<svg
  width="120"
  height="164"
  viewBox="0 0 120 164"
  fill="none"
  xmlns="http://www.w3.org/2000/svg"
>
  <path
    d="M92.5155 138.599C93.6952 137.179 94.9002 135.776 96.1979 134.465C96.2527 132.043 96.2611 129.62 96.2274 127.197C96.2189 126.645 95.8229 126.245 95.3594 126.114C95.4521 125.908 95.5406 125.701 95.6165 125.487C95.7302 125.162 95.3763 124.833 95.0603 124.93C92.2796 125.811 91.024 129.451 90.7797 132.072C90.5606 134.415 91.1841 136.728 92.3807 138.713C92.427 138.675 92.4734 138.637 92.5155 138.599Z"
    fill="#47AD4B"
  />
  <path
    d="M24.5437 129.826C24.7375 129.953 24.9313 130.079 25.1209 130.197C24.6574 130.29 24.2488 130.707 24.2698 131.2C24.3372 132.565 24.4173 133.947 24.5226 135.329C25.3358 136.184 26.0941 137.086 26.8652 137.979C26.9621 138.089 27.0084 138.207 27.0295 138.325C27.6952 138.89 28.3819 139.433 29.0645 139.972C29.3552 140.2 29.6459 140.432 29.9366 140.659C31.1416 138.439 31.6977 135.755 30.893 133.302C30.0208 130.644 27.7078 129.119 25.0535 128.626C24.3246 128.495 23.9033 129.401 24.5437 129.826ZM26.9579 137.326C26.8904 136.64 26.8272 135.953 26.7556 135.27C26.9031 135.932 26.9621 136.627 26.9579 137.326Z"
    fill="#47AD4B"
  />
  <path
    d="M62.0625 40.7032C60.2592 40.56 58.258 41.015 56.4589 41.2046C54.622 41.3984 52.4943 41.4195 50.7542 42.0852C49.9874 42.3802 49.406 42.9911 49.406 43.8549C49.406 44.6049 49.9706 45.4897 50.7542 45.6245C52.6797 45.9574 54.7189 45.6372 56.6527 45.4644C58.5908 45.2917 60.748 45.338 62.6186 44.8113C64.9822 44.1498 64.3545 40.8844 62.0625 40.7032Z"
    fill="#E5332A"
  />
  <path
    d="M52.5824 125.781C52.477 125.503 52.4391 125.217 52.4686 124.922C52.4686 124.265 51.9125 123.995 51.4237 124.092C51.2679 124.016 51.0951 123.982 50.9308 123.991C50.7201 123.847 50.4673 123.78 50.2356 123.831C49.9154 123.506 49.3761 123.565 49.0096 123.864C48.6767 123.574 48.1079 123.628 47.7583 123.936C47.5434 123.86 47.3032 123.856 47.0968 123.932C46.7513 123.506 46.0224 123.502 45.6811 123.923C45.4326 123.776 45.1124 123.755 44.8511 123.856C44.5141 123.696 44.0506 123.772 43.781 124.075C43.6588 124.054 43.5324 124.062 43.406 124.096C43.0563 123.965 42.6055 124.033 42.3738 124.391C41.9946 124.977 41.9819 125.651 42.2179 126.3C42.4033 126.814 42.9636 127.075 43.4313 126.835C43.6167 126.97 43.8526 127.037 44.1728 126.986C44.2065 126.982 44.236 126.97 44.2697 126.965C44.5436 127.29 44.9565 127.324 45.2851 127.151C45.302 127.172 45.3146 127.193 45.3314 127.214C45.6179 127.572 46.2794 127.543 46.5996 127.214C46.9493 127.408 47.4001 127.374 47.6782 127.092C47.8678 127.147 48.0827 127.134 48.2723 127.066C48.6683 127.467 49.3298 127.534 49.6921 126.995C50.0882 127.092 50.5305 126.974 50.7117 126.574C50.7244 126.54 50.7412 126.51 50.7538 126.477C50.7665 126.477 50.7749 126.472 50.7875 126.472C50.8002 126.481 50.8086 126.489 50.8212 126.498C51.192 127.391 52.8899 126.902 52.5824 125.781Z"
    fill="#E5332A"
  />
  <path
    d="M37.3559 124.812C37.3643 124.77 37.3011 124.749 37.2885 124.795C36.8588 126.506 36.3995 128.208 35.9487 129.91C35.7844 129.662 35.6032 129.417 35.4558 129.144C35.0302 128.351 34.7817 127.471 34.7016 126.578C34.6679 126.211 34.1876 126.224 34.1412 126.578C34.0149 127.551 34.0738 128.512 34.3856 129.447C34.6173 130.142 34.9123 130.96 35.5864 131.292C35.144 132.986 34.7142 134.684 34.3393 136.395C33.8337 138.691 33.3281 141.16 33.2144 143.604C33.6525 144.063 34.0865 144.523 34.5331 144.974C34.491 143.92 34.4615 142.863 34.5457 141.792C34.6974 139.875 35.0597 137.988 35.4347 136.104C35.7591 134.474 36.0414 132.83 36.3111 131.187C36.3574 131.12 36.3827 131.044 36.3742 130.955C36.37 130.93 36.3658 130.905 36.3616 130.88C36.6902 128.857 37.002 126.83 37.3559 124.812Z"
    fill="#1D1D1B"
  />
  <path
    d="M84.9187 142.109C84.9945 143.217 84.9566 144.354 84.9566 145.484C85.3526 145.176 85.7698 144.89 86.2079 144.637C86.1616 143.714 86.0689 142.795 85.9973 141.927C85.8203 139.745 85.5085 137.567 85.0704 135.422C84.5606 132.932 83.8991 130.315 82.968 127.833C83.0564 127.821 83.1407 127.783 83.2081 127.703C83.7938 127.003 84.1224 126.127 84.4299 125.276C84.7375 124.421 85.163 123.397 85.0914 122.478C85.0746 122.276 84.8091 122.179 84.6954 122.373C84.2277 123.152 84.0508 124.126 83.6547 124.951C83.3345 125.617 82.9216 126.237 82.6014 126.898C82.0326 125.508 81.3754 124.172 80.6001 122.942C80.4906 122.769 80.1872 122.878 80.2589 123.085C80.933 125.112 81.7925 127.071 82.4371 129.11C83.1028 131.208 83.6379 133.357 84.0592 135.519C84.4847 137.697 84.7712 139.897 84.9187 142.109Z"
    fill="#1D1D1B"
  />
  <path
    d="M94.2721 107.992C94.5375 109.037 94.7355 110.095 94.883 111.161C94.3016 111.43 93.8676 112.062 93.4463 112.522C92.8986 113.12 92.3467 113.718 91.799 114.312C91.4661 114.675 91.9801 115.193 92.3424 114.856C92.9323 114.3 93.5264 113.743 94.1162 113.192C94.3985 112.926 94.744 112.656 95.0347 112.353C95.1274 113.234 95.1906 114.118 95.2369 115.003C95.1274 114.915 94.9757 114.881 94.8029 114.936C94.685 114.974 94.5712 115.02 94.4575 115.071C94.508 114.839 94.5502 114.607 94.567 114.371C94.5923 114.017 94.1583 113.925 93.935 114.11C93.6822 114.316 93.4126 114.43 93.1261 114.574C92.9449 114.666 93.0545 114.906 93.2188 114.923C93.3494 114.936 93.4758 114.936 93.598 114.919C93.4589 115.302 93.3115 115.677 93.0882 116.044C92.8607 116.415 93.2441 116.988 93.6865 116.824C93.7792 116.79 93.8761 116.748 93.9687 116.71C93.855 117.03 93.7454 117.35 93.657 117.679C93.5264 118.172 94.289 118.538 94.5123 118.041C94.8072 117.375 95.0052 116.676 95.279 116.002C95.3296 117.472 95.3423 118.947 95.3465 120.413C95.3591 125.048 95.2116 129.683 94.9209 134.309C94.8872 134.857 94.8493 135.405 94.8114 135.953C95.3422 135.367 95.8857 134.794 96.4461 134.238C96.7705 129.569 96.9264 124.896 96.9054 120.215C96.8674 112.298 96.543 102.729 89.4775 97.6228C86.5114 95.4781 82.5762 94.4163 79.1172 95.8236C79.134 95.7267 79.134 95.6298 79.1088 95.5371C78.7464 94.2183 78.4052 92.8953 78.0344 91.5765C83.2714 88.9767 87.7374 84.7211 88.4073 78.6285C88.896 74.1664 87.6911 69.3294 86.326 65.1075C85.6856 63.1272 84.7208 61.5555 83.2419 60.1061C81.9485 58.8379 82.5425 57.0977 82.3445 55.4839C82.4583 54.8477 82.5088 54.2031 82.5088 53.5584C82.6521 53.4615 82.7616 53.3014 82.7995 53.0654C83.2082 50.5921 83.2419 48.161 83.1956 45.6624C83.1871 45.1525 82.6268 44.5753 82.0749 44.8113C80.6045 45.4306 79.1762 46.1511 77.7352 46.8337C76.9937 47.1834 76.2522 47.5416 75.5107 47.9039C74.8197 48.241 73.9476 48.873 73.1681 48.8815C72.494 48.8899 71.7736 48.5402 71.1289 48.359C70.3748 48.1441 69.6164 47.9545 68.8538 47.7817C67.4297 47.4615 65.9973 47.2382 64.5521 47.0402C62.1253 46.7115 59.6774 46.5851 57.2338 46.6567C56.8757 46.5851 56.5091 46.6104 56.1426 46.7031C53.1849 46.8632 50.2399 47.314 47.3707 48.064C44.3077 48.8646 41.3205 49.998 38.5145 51.4685C36.7576 50.4404 34.9922 49.4292 33.1132 48.6329C32.0304 48.1736 29.3297 46.7242 28.4407 48.1399C28.0489 48.7635 28.3101 49.5682 28.4618 50.2255C28.723 51.3463 28.9969 52.4671 29.2834 53.5837C29.8311 55.7368 30.4631 57.8519 31.1456 59.9629C31.1203 60.0345 31.1161 60.1103 31.1245 60.1777C31.154 60.3758 31.1751 60.5738 31.2004 60.7718C31.2214 60.9319 31.3057 61.0373 31.4068 61.0878C31.4068 61.0878 31.4068 61.0879 31.4068 61.0921C31.3942 61.1047 31.3815 61.1216 31.3731 61.1384C28.209 68.1791 28.584 76.8841 32.5317 83.5287C34.2634 86.4445 36.627 88.9767 39.4372 90.877C40.0987 91.3236 40.7812 91.7197 41.4806 92.0779C41.1983 93.1396 40.9455 94.2014 40.7138 95.2717C40.52 96.1733 40.1534 97.1804 40.0944 98.1242C39.9343 98.1157 39.7785 98.12 39.6184 98.1326C39.4372 97.9598 39.1844 97.8671 38.8979 97.9556C37.3474 98.4317 35.9276 99.1312 34.6384 100.003C33.3491 100.69 32.1652 101.592 31.1372 102.599C28.4913 105.19 26.7934 108.633 25.5884 112.092C23.9031 116.925 23.3132 122.006 23.3427 127.1C23.2248 129.038 23.1826 130.968 23.2037 132.868C23.2079 133.269 23.2205 133.673 23.229 134.073C23.8441 134.617 24.4171 135.207 24.969 135.809C24.8426 131.819 25.0112 127.816 25.483 123.856C26.2541 117.375 27.4506 110.406 31.5711 105.119C32.8225 103.509 34.3308 102.097 36.0498 101.023C36.0793 101.015 36.1088 101.01 36.1425 100.998C37.2927 100.543 38.3965 99.9486 39.5088 99.4135C39.6647 99.3376 39.7658 99.2323 39.829 99.1059C39.8332 99.1017 39.8417 99.1017 39.8459 99.0975C39.9723 99.0596 40.0987 99.0258 40.2251 98.9879C40.4062 99.3208 40.7349 99.5315 41.1435 99.7126C42.2685 100.214 43.4018 100.703 44.5352 101.183C48.9548 103.062 53.3745 104.937 57.7941 106.817C58.2407 107.006 58.957 106.804 58.8938 106.185C58.6747 104.048 58.7379 101.912 59.0876 99.818C59.0707 100.26 59.0623 100.707 59.0455 101.149C58.9949 102.59 58.9823 104.031 58.9696 105.472C58.9401 108.422 58.9064 111.367 58.9064 114.316C58.9064 120.139 58.7758 126 59.2056 131.811C59.2224 132.021 59.412 132.102 59.5595 132.051C59.5173 134.444 59.6185 136.842 59.4752 139.231C59.3909 140.663 59.2519 142.062 59.2351 143.499C59.2224 144.514 59.2224 145.534 59.2224 146.549H60.4232C60.4232 145.597 60.4232 144.645 60.4105 143.693C60.3937 142.189 60.2673 140.726 60.1704 139.231C59.9808 136.26 60.1957 133.277 60.0271 130.302C60.0187 130.18 59.9344 130.117 59.8418 130.109C60.1367 124.859 60.0314 119.571 60.0314 114.316C60.0314 111.434 59.9976 108.552 59.9724 105.666C59.9597 104.225 59.9513 102.784 59.9007 101.343C59.867 100.412 59.867 99.4809 59.7701 98.5582C60.3431 101.015 60.9035 103.475 61.4681 105.936C61.565 106.357 62.1717 106.656 62.5424 106.374C67.4761 102.662 72.7805 99.4051 78.2451 96.5399C78.283 96.7759 78.4978 96.9907 78.7717 96.9023C82.1044 95.8658 85.5508 96.6832 88.3652 98.6677C91.5167 100.892 93.341 104.314 94.2721 107.992ZM85.7909 68.4108C85.6477 68.335 85.4876 68.2929 85.3148 68.2676C85.4539 68.2212 85.5887 68.1749 85.7235 68.1243C85.7488 68.2212 85.7698 68.3181 85.7909 68.4108ZM57.3265 105.06C53.7621 103.606 50.1977 102.152 46.6334 100.699C45.6727 100.307 44.7121 99.9107 43.7473 99.5273C43.0774 99.2618 41.2447 98.8742 41.1351 98.12C41.0719 97.6902 41.2531 97.1129 41.3079 96.679C41.3668 96.1818 41.43 95.6846 41.489 95.1874C41.6112 94.2014 41.7039 93.2197 41.7797 92.2295C44.3961 93.5062 47.2274 94.193 50.1598 94.5554C53.0037 94.9051 55.9235 95.1537 58.8474 95.2085C57.634 98.3559 57.1032 101.701 57.3265 105.06ZM54.2213 93.5315C50.341 93.2745 46.3216 92.9416 42.7614 91.2478C40.9497 90.3883 39.2855 89.2548 37.8025 87.915C39.1254 87.4599 39.6816 85.686 39.3108 84.422C38.9442 83.1875 37.8657 82.1509 36.5469 82.0667C36.0329 82.033 35.5821 82.1804 35.1102 82.3616C34.7226 82.5091 34.1454 82.8883 33.8884 82.981C33.8505 82.9936 33.8126 83.0105 33.7789 83.0273C33.4924 82.5512 33.2269 82.0625 32.9741 81.5653C33.2943 81.5442 33.623 81.4473 33.9516 81.3209C35.2788 80.8026 36.6649 79.9304 37.4443 78.7085C38.2701 77.4108 37.3896 76.2647 35.995 76.1173C34.7268 75.9824 33.328 76.3827 32.182 77.0189C31.8492 77.0695 31.5753 77.2128 31.3605 77.4108C31.1877 76.7998 31.0361 76.1847 30.9054 75.5611C33.5303 75.3504 39.631 74.7647 38.1395 70.8547C36.9893 67.8462 33.0752 67.4291 30.442 68.6552C30.6063 66.1819 31.0908 63.7339 31.7691 61.3069C31.786 61.2437 31.7692 61.1848 31.7397 61.1384C31.7481 61.1216 31.7607 61.1047 31.7691 61.0878C31.8955 61.0246 31.984 60.8898 31.9461 60.696C31.984 60.578 32.0051 60.46 32.0093 60.3294C32.0177 60.0598 31.8829 59.8659 31.6765 59.7859C31.1709 57.5696 30.6737 55.3491 30.1681 53.1328C29.9111 52.0121 29.6415 50.8871 29.4266 49.7536C29.3676 49.4418 29.178 49.0795 29.414 48.8098C29.6668 48.5233 29.9701 48.7256 30.3072 48.8225C30.8802 48.9826 31.4405 49.1932 31.9925 49.4166C33.05 49.8463 34.0696 50.373 35.0681 50.9292C35.5905 51.2241 36.1088 51.5275 36.6228 51.8351C37.1073 52.1258 37.6255 52.5893 38.1564 52.7747C38.8642 53.0233 39.7026 52.3323 40.3262 52.0373C41.3879 51.5359 42.4665 51.0809 43.5661 50.6722C45.837 49.8295 48.1922 49.1806 50.5811 48.734C50.3452 49.8168 50.8129 51.2873 51.4491 52.0036C52.5234 53.2129 54.2466 52.9264 54.8912 51.4475C55.0935 50.9798 55.2367 50.3646 55.2578 49.741C55.262 49.7705 55.2662 49.7958 55.2704 49.8253C55.4853 51.1314 57.0821 51.498 57.9964 50.63C58.1817 50.4531 58.3419 50.2424 58.4725 50.0107C58.6368 50.2719 58.8643 50.491 59.1466 50.6637C60.3937 51.418 61.8346 50.5163 62.336 49.3112C62.4792 48.9615 62.5424 48.5781 62.4876 48.2157C64.6617 48.4348 66.8146 48.8267 68.917 49.4039C70.1051 49.7326 71.2638 50.2424 72.4603 50.5247C73.4841 50.7649 74.2846 50.4236 75.2031 50.0022C77.3055 49.0374 79.4416 48.0978 81.5145 47.057C81.5861 48.9109 81.426 50.7902 81.169 52.6104C81.1395 52.821 81.1816 53.0106 81.2701 53.1665C81.1185 54.1146 80.9878 55.0795 81.0089 56.0275C81.0131 56.196 81.0974 56.314 81.2069 56.3772C81.2069 56.4573 81.2027 56.5373 81.2027 56.6216C81.2027 56.6974 81.2196 56.7648 81.2491 56.8196C81.1859 57.7297 81.1016 58.6398 81.4134 59.5078C81.6577 60.1777 82.1086 60.6581 82.6141 61.1468C83.2925 61.8041 83.8318 62.5415 84.2531 63.3884C84.8345 64.564 85.1926 65.8491 85.5002 67.1342C83.1956 67.1763 78.1271 68.3224 78.9192 71.3139C79.3194 72.8139 81.1016 73.6355 82.454 74.0274C83.6379 74.3729 85.7319 74.7942 86.8906 74.0021C86.9074 74.1454 86.9285 74.2844 86.9411 74.4277C87.0001 74.9965 87.038 75.5611 87.0507 76.1215C86.1532 75.8645 85.121 75.9656 84.2067 76.0077C83.4104 76.0456 82.5425 76.0751 81.8136 76.4417C80.537 77.0779 79.6101 79.3574 80.5244 80.5751C81.4597 81.8181 84.0593 83.415 85.6477 82.745C85.6856 82.7282 85.7151 82.7113 85.7488 82.6945C85.3274 83.5667 84.7966 84.4009 84.1393 85.1846C84.1309 85.1973 84.1225 85.2057 84.114 85.2141C84.0761 85.1931 84.034 85.1762 83.9919 85.1636C83.7854 85.0667 83.5579 84.9908 83.3178 84.9487C83.2377 84.9192 83.1577 84.8939 83.0776 84.8644C83.1408 84.6959 83.086 84.4852 82.9133 84.3841C82.2265 83.9922 81.0974 84.2113 80.5075 84.7212C79.8418 85.2984 79.9177 86.3686 80.1831 87.1228C80.2969 87.4515 80.5455 87.6158 80.8025 87.6495C80.9078 87.7801 81.0426 87.877 81.1985 87.9529C79.4627 89.2717 77.5077 90.3208 75.5107 91.1256C68.799 93.8307 61.3459 94.0076 54.2213 93.5315ZM33.9516 73.5049C33.9979 73.4375 34.0485 73.3659 34.0948 73.2942C34.1665 73.3237 34.2381 73.3532 34.3097 73.3785C34.1918 73.4249 34.0696 73.467 33.9516 73.5049ZM62.6141 104.491C61.8641 101.402 61.1099 98.318 60.4021 95.2169C64.8428 95.1916 69.2709 94.686 73.4673 93.3882C74.5627 93.0512 75.6624 92.6467 76.7409 92.1748C77.0654 93.2408 77.4066 94.3026 77.7437 95.3644C72.355 97.8503 67.3455 100.926 62.6141 104.491Z"
    fill="#1D1D1B"
  />
  <path
    d="M60.4741 73.4205C60.6595 72.6537 60.9165 71.3939 60.0697 70.9177C59.2397 70.4542 58.3844 71.3054 57.9462 71.9416C57.7693 72.1944 57.6302 72.4641 57.5249 72.7422C57.2342 72.3967 56.8929 72.1017 56.4969 71.8995C55.9365 71.6087 54.9675 71.4402 54.6936 72.1986C54.4113 72.9781 55.2413 74.3601 55.6416 74.9921C56.2062 75.8812 56.9266 76.9598 57.7735 77.6593C57.7735 77.7225 57.7735 77.7815 57.7777 77.8447C57.7903 77.9921 57.942 78.0469 58.0558 77.9584C58.0768 77.9416 58.0937 77.9247 58.1105 77.9079C58.1232 77.9163 58.14 77.9289 58.1527 77.9374C58.2327 77.9879 58.3001 77.891 58.2706 77.8194C58.2622 77.8025 58.2538 77.7899 58.2496 77.773C58.4602 77.5455 58.6203 77.2674 58.7214 76.9683C59.4166 75.8475 60.1581 74.7183 60.4741 73.4205Z"
    fill="#1D1D1B"
  />
  <path
    d="M52.6921 69.1436C52.6542 67.3866 52.4141 65.6296 52.195 63.8894C52.0138 62.4569 51.7104 60.9527 50.6403 59.8951C48.3947 57.6872 45.6097 59.8487 44.5691 62.1071C43.2166 65.0397 43.3725 68.4779 44.5101 71.44C44.5017 71.4442 44.489 71.4442 44.4806 71.4484C44.173 71.5242 44.2615 71.9919 44.5733 71.9329C44.6533 71.9161 44.7334 71.9034 44.8092 71.8908C45.0199 72.0046 45.2937 71.9414 45.4791 71.7728C46.09 71.6675 46.7052 71.579 47.3203 71.4989C47.5099 71.5706 47.6995 71.6296 47.8849 71.6633C48.007 71.7138 48.125 71.7265 48.2346 71.7096C48.7823 71.7433 49.3131 71.6001 49.8229 71.2546C49.8356 71.2461 49.844 71.2377 49.8566 71.2251C50.0336 71.2082 50.2148 71.1914 50.3917 71.1787C50.9268 71.1408 51.7736 71.2841 52.2708 70.9765C52.8522 70.6225 52.7048 69.7124 52.6921 69.1436ZM51.4661 69.999C51.2933 70.138 50.8004 70.1043 50.5645 70.1464C50.4423 70.1675 50.3243 70.1886 50.2021 70.2096C50.24 70.138 50.2653 70.0579 50.278 69.9695C50.4886 68.2588 50.1516 66.6113 49.6249 64.9849C49.3468 64.117 49.0098 62.0229 47.691 62.3305C46.5366 62.6001 46.3428 64.7953 46.2501 65.7265C46.1027 67.197 46.0942 69.2532 46.7473 70.5931C46.722 70.6984 46.722 70.8037 46.7431 70.9091C46.3934 70.9891 46.0395 71.0692 45.6898 71.1534C45.6814 71.1239 45.6771 71.0945 45.6687 71.0607C44.7924 68.6212 44.6533 65.7897 45.4496 63.308C45.7614 62.3431 46.2796 61.2982 47.1433 60.7167C48.4452 59.8445 49.6628 60.5819 50.1937 61.9049C50.615 62.9498 50.7709 64.138 50.9774 65.242C51.2386 66.6198 51.2217 68.0481 51.4703 69.4133C51.4745 69.5355 51.4745 69.6577 51.4787 69.7799C51.7147 69.94 51.7104 70.0116 51.4661 69.999Z"
    fill="#1D1D1B"
  />
  <path
    d="M69.5872 62.6761C69.3723 61.3657 69.2923 59.8573 68.5213 58.7197C66.8402 56.2295 63.8277 58.8714 62.9767 60.7042C62.3742 61.9978 62.1298 63.4303 62.0582 64.8461C61.9824 66.3503 62.0203 68.0904 62.6986 69.4682C62.3615 69.5904 62.4079 70.1466 62.8124 70.1129C63.8404 70.0202 64.8726 69.9781 65.9049 70.0202C66.8402 70.0581 67.7797 70.2561 68.7151 70.2688C69.958 70.2856 70.0801 69.3924 70.1265 68.3222C70.2108 66.3924 69.899 64.568 69.5872 62.6761ZM68.9299 68.7772C68.8794 69.1901 69.0395 69.1817 68.5465 69.1986C68.378 69.2028 68.2053 69.1986 68.0325 69.1901C68.0325 69.1817 68.0368 69.1733 68.041 69.1649C68.2727 68.0399 68.4159 61.7702 66.1071 62.5961C65.2223 62.9121 64.7378 64.1508 64.5271 64.9809C64.1732 66.3755 64.3881 67.8334 64.2912 69.2491C64.0763 69.2702 63.8615 69.2955 63.6466 69.325C63.596 68.1578 63.2842 67.0286 63.2632 65.8489C63.2421 64.6649 63.3601 63.4472 63.6929 62.3053C63.9794 61.3152 64.464 60.2871 65.2771 59.6172C65.7532 59.2253 66.5031 58.8166 67.1351 59.0568C67.6955 59.2674 67.9525 59.8573 68.121 60.3882C68.8794 62.7857 68.7825 65.3601 68.9004 67.8376C68.9089 68.1326 68.9679 68.4823 68.9299 68.7772Z"
    fill="#1D1D1B"
  />
  <path
    d="M36.5639 54.4388C34.8491 53.6045 33.1217 52.745 31.3269 52.0961C31.0615 51.9992 30.7623 52.3026 30.8592 52.5638C31.2258 53.5792 31.5544 54.5947 31.9589 55.5933C32.3381 56.5202 32.831 57.325 33.3155 58.193C33.3829 58.3152 33.5641 58.2309 33.5346 58.1003C33.5304 58.0834 33.5262 58.0666 33.522 58.0497C33.8253 58.1635 34.1961 58.1003 34.4868 57.8685C35.2957 57.2281 35.9909 56.4149 36.7198 55.6818C37.0611 55.3447 37.0274 54.6663 36.5639 54.4388Z"
    fill="#1D1D1B"
  />
  <path
    d="M79.72 51.3755C79.8801 51.1227 79.8001 50.8151 79.6189 50.6002C79.0164 49.8924 77.7651 50.5454 77.0952 50.7983C76.3326 51.089 75.3509 51.3249 74.917 52.0539C74.8664 52.0286 74.8201 52.0033 74.7695 51.9822C74.6094 51.9106 74.4409 52.0581 74.5252 52.2266C74.601 52.3825 74.6895 52.5258 74.7822 52.669C74.8285 52.8671 74.9591 53.0482 75.1319 53.1704C75.4647 53.6128 75.8355 54.0258 76.1852 54.464C76.8635 55.3109 77.5165 56.1831 78.1654 57.0552C78.671 57.7336 79.6147 57.3249 79.4968 56.4948C79.3746 55.6395 79.3114 54.801 79.3324 53.9373C79.3535 53.2041 79.3114 52.0244 79.72 51.3755Z"
    fill="#1D1D1B"
  />
  <path
    d="M61.502 109.109C60.3644 109.109 60.3602 110.879 61.502 110.879C62.6437 110.879 62.6437 109.109 61.502 109.109Z"
    fill="#1D1D1B"
  />
  <path
    d="M61.9482 113.309C60.6211 113.309 60.6211 115.369 61.9482 115.369C63.2712 115.369 63.2754 113.309 61.9482 113.309Z"
    fill="#1D1D1B"
  />
  <path
    d="M62.0369 118.113C60.8446 118.113 60.8404 119.967 62.0369 119.967C63.2293 119.967 63.2335 118.113 62.0369 118.113Z"
    fill="#1D1D1B"
  />
  <path
    d="M63.2083 123.456C63.0145 123.275 62.7743 123.165 62.5004 123.165C62.2434 123.165 61.9738 123.275 61.7926 123.456C61.6199 123.629 61.4893 123.915 61.4977 124.164C61.5103 124.421 61.5946 124.69 61.7926 124.871C61.9864 125.053 62.2266 125.166 62.5004 125.166C62.7574 125.166 63.0271 125.057 63.2083 124.871C63.381 124.699 63.5116 124.412 63.5032 124.164C63.4905 123.902 63.4063 123.637 63.2083 123.456Z"
    fill="#1D1D1B"
  />
  <path
    d="M63.1873 127.736C62.943 127.513 62.6438 127.37 62.3025 127.37C61.9823 127.37 61.6453 127.509 61.4178 127.736C61.2029 127.951 61.0386 128.309 61.0512 128.621C61.0639 128.945 61.1734 129.278 61.4178 129.506C61.6621 129.729 61.9655 129.872 62.3025 129.872C62.6227 129.872 62.9598 129.733 63.1873 129.506C63.4022 129.291 63.5665 128.933 63.5539 128.621C63.537 128.297 63.4317 127.96 63.1873 127.736Z"
    fill="#1D1D1B"
  />
  <path
    d="M62.3023 132.54C60.6549 132.54 60.6507 135.098 62.3023 135.098C63.9497 135.102 63.9497 132.54 62.3023 132.54Z"
    fill="#1D1D1B"
  />
  <path
    d="M62.4793 137.794C61.3839 137.794 61.3839 139.497 62.4793 139.497C63.5747 139.497 63.5747 137.794 62.4793 137.794Z"
    fill="#1D1D1B"
  />
  <path
    d="M62.5678 141.818C61.5145 141.818 61.5145 143.453 62.5678 143.453C63.6211 143.453 63.6211 141.818 62.5678 141.818Z"
    fill="#1D1D1B"
  />
  <path
    d="M61.9021 146.549H62.6984C63.1323 146.216 63.0017 145.332 62.2981 145.332C61.603 145.332 61.4682 146.216 61.9021 146.549Z"
    fill="#1D1D1B"
  />
  <path
    d="M52.5743 123.178C52.0055 122.857 51.1755 122.984 50.552 122.996C50.4466 122.996 50.3371 123.001 50.2318 123.005C50.2823 122.904 50.2992 122.786 50.257 122.655C49.8441 121.404 49.1911 120.182 48.6012 119.002C48.3232 118.442 47.885 117.683 47.135 118.008C46.4441 118.303 46.0775 119.39 45.8416 120.034C45.4498 121.113 45.2602 122.255 44.6745 123.253C44.6535 123.291 44.6408 123.325 44.6324 123.363C43.6929 123.472 42.7533 123.599 41.8138 123.717C41.5947 123.746 41.5778 124.088 41.8138 124.075C41.9402 124.071 42.0666 124.067 42.1929 124.062C42.1677 124.918 41.8896 126.22 42.3193 126.986L42.3236 126.991C42.2983 128.259 42.4373 129.552 42.5637 130.795C42.6859 132.001 42.9513 133.294 43.6886 134.284C45.0284 136.092 47.5269 136.395 49.6082 136.538C50.5435 136.602 51.7106 136.623 52.3047 135.746C52.6544 135.232 52.6628 134.512 52.7386 133.918C52.8397 133.104 52.9198 132.287 52.983 131.47C53.1136 129.772 53.1726 128.061 53.1684 126.359C53.1599 125.499 53.4928 123.696 52.5743 123.178ZM46.9834 119.727C47.0466 119.596 47.1182 119.47 47.1982 119.347C47.3457 118.913 47.4679 118.85 47.5606 119.158C47.7797 119.272 48.0282 120.148 48.1378 120.388C48.538 121.26 48.8625 122.179 49.3091 123.026C48.7487 123.043 48.1926 123.064 47.6322 123.093C46.9202 123.131 46.2039 123.19 45.4919 123.266C46.166 122.149 46.3851 120.881 46.9834 119.727ZM52.0182 128.251C51.9508 129.902 51.7949 131.55 51.5673 133.184C51.4662 133.922 51.5084 134.958 50.7458 135.304C50.2823 135.515 49.5366 135.43 49.0394 135.43C47.746 135.434 46.343 135.354 45.2222 134.638C43.9456 133.821 43.6549 132.384 43.3895 131.002C43.1578 129.797 42.9387 128.63 42.8165 127.433C43.3052 127.673 43.9667 127.686 44.4428 127.753C46.9623 128.099 49.4734 128.061 51.9592 127.522C51.9887 127.517 52.0139 127.505 52.0392 127.496C52.0308 127.745 52.0266 127.998 52.0182 128.251ZM52.0561 125.786C52.0561 126.017 52.0561 126.249 52.0519 126.481C51.9845 126.451 51.9044 126.435 51.8117 126.447C49.9747 126.666 48.1336 126.801 46.284 126.784C45.4245 126.776 44.5608 126.729 43.7055 126.633C42.9555 126.548 42.905 126.338 42.6859 125.651C42.6395 125.499 42.5932 125.347 42.5511 125.192C42.5637 125.179 42.5764 125.158 42.5637 125.133L42.5047 125.015C42.471 124.88 42.4373 124.745 42.4078 124.606C42.412 124.606 42.4163 124.606 42.4205 124.602C42.4879 124.56 42.5131 124.471 42.4668 124.404C42.4415 124.366 42.3994 124.353 42.3615 124.353C42.3446 124.252 42.3278 124.151 42.3151 124.05C43.8319 123.995 45.336 124.016 46.8528 124.041C48.3948 124.071 49.9874 123.974 51.521 124.163C52.0982 124.235 51.955 124.142 52.035 124.64C52.0982 125.01 52.0561 125.415 52.0561 125.786Z"
    fill="#1D1D1B"
  />
  <path
    d="M63.7726 100.88C63.385 100.653 62.9089 100.737 62.5887 101.032C62.5761 101.045 62.5635 101.057 62.5508 101.066C62.1927 101.394 62.1927 102.048 62.5508 102.38C62.5635 102.393 62.5761 102.406 62.5887 102.414C62.8794 102.684 63.2881 102.772 63.6589 102.616C64.0002 102.473 64.2782 102.111 64.2614 101.723C64.2403 101.386 64.0718 101.057 63.7726 100.88Z"
    fill="#1D1D1B"
  />
  <path
    d="M55.3126 101.52C54.095 101.52 54.095 103.408 55.3126 103.408C56.5302 103.408 56.5302 101.52 55.3126 101.52Z"
    fill="#1D1D1B"
  />
  <path
    d="M93.8801 109.159C93.147 110.014 92.6961 111.038 91.8746 111.851C91.0277 112.69 90.025 113.372 88.9464 113.874C88.643 114.017 88.8579 114.527 89.1739 114.417C90.3662 114.004 91.4364 113.41 92.3675 112.551C93.1975 111.784 94.2508 110.638 94.4657 109.496C94.5204 109.188 94.1244 108.872 93.8801 109.159Z"
    fill="#1D1D1B"
  />
  <path
    d="M70.8049 44.0988C69.5958 43.9808 68.3486 44.1789 67.1352 44.2547C66.3094 44.3053 65.4794 44.3558 64.6537 44.4064C64.8938 44.1409 65.0371 43.787 65.0076 43.3657C64.8727 41.3601 64.2618 39.3039 63.8742 37.332C63.4866 35.3601 63.2759 33.2281 62.6734 31.311C61.9951 29.1452 59.7073 29.6551 57.9209 29.811C56.0124 29.9753 54.1122 30.2197 52.2247 30.5483C50.3414 30.877 48.4665 31.2772 46.6127 31.7492C45.7616 31.9683 44.9906 32.2421 44.5103 33.0258C44.03 33.8095 44.0848 34.6817 44.2954 35.5455C45.1296 38.95 46.4652 42.2702 48.0241 45.4134C45.7364 45.5567 43.4486 45.721 41.165 45.9401C40.3224 46.0201 40.4993 47.1873 41.2956 47.2083C46.1998 47.339 51.1166 47.1873 56.0208 47.0904C58.4392 47.0398 60.8576 46.9766 63.2759 46.905C64.4514 46.8713 65.6269 46.8333 66.8024 46.7954C68.079 46.7533 69.4651 46.8713 70.7165 46.6227C72.031 46.3699 72.347 44.2463 70.8049 44.0988ZM56.0039 44.9373C53.9184 45.0679 51.8287 45.1859 49.7389 45.3081C49.4693 44.6086 49.2122 43.905 48.9679 43.1929C48.9763 43.1929 48.9889 43.1929 48.9974 43.1929C50.076 43.0623 51.1335 42.7336 52.2078 42.5693C53.2864 42.4008 54.3734 42.2617 55.4562 42.1227C56.4842 41.9921 57.5165 41.8952 58.5487 41.8193C59.5683 41.7477 60.6722 41.6087 61.6918 41.7772C61.835 42.5398 61.9993 43.294 62.2353 44.0188C62.3027 44.2294 62.4038 44.398 62.526 44.5328C60.352 44.6676 58.178 44.7982 56.0039 44.9373Z"
    fill="#1D1D1B"
  />
  <path
    d="M66.7899 79.0159C66.7098 78.2027 65.884 77.4822 65.054 77.7982C64.4262 78.0383 64.3841 78.7041 64.9318 79.058C65.0035 79.1043 65.1172 79.0454 65.113 78.9569C65.0751 78.4597 65.7955 79.0791 65.863 79.2013C65.6312 79.6984 65.3321 79.8543 64.9613 79.6689C64.8223 79.6605 64.7043 79.61 64.6116 79.5173C64.2072 79.2813 63.8912 78.9737 63.4361 78.8094C62.4545 78.4513 61.2959 78.4765 60.3395 78.8726C59.796 79.0959 59.421 79.5299 59.5052 80.1535C59.5769 80.6717 60.074 81.2321 60.6512 81.1647C61.4939 81.0636 62.2817 81.051 63.1202 81.1605C63.7943 81.2448 64.4305 81.2911 65.1004 81.1226C66.0146 80.8866 66.8868 80.0187 66.7899 79.0159Z"
    fill="#1D1D1B"
  />
  <path
    d="M57.5036 79.5044C56.6651 79.7614 55.9278 80.208 55.1105 80.4987C54.6723 80.6546 54.0866 80.9032 53.6105 80.8527C52.7679 80.7642 53.2103 79.9215 53.7959 79.6392C53.8423 79.6181 53.8212 79.5381 53.7706 79.5423C52.8437 79.6434 51.8873 80.781 52.6415 81.6069C53.126 82.1378 53.9897 82.4201 54.6765 82.5001C55.1273 82.5507 55.5655 82.5128 56.0037 82.3864C56.3997 82.2726 57.0907 81.8007 57.5036 81.8597C59.6607 82.1715 59.29 78.9566 57.5036 79.5044Z"
    fill="#1D1D1B"
  />
  <path
    d="M61.0764 82.7868C60.0526 82.7025 58.8139 82.9132 57.8365 83.2165C57.5921 83.2924 57.5963 83.6337 57.8365 83.7095C58.8139 84.0171 60.0526 84.232 61.0764 84.1519C61.9528 84.0803 61.9528 82.8584 61.0764 82.7868Z"
    fill="#1D1D1B"
  />
  <path
    d="M118.852 85.1465C118.844 89.6128 118.549 94.0833 117.917 98.5032C117.285 102.923 116.345 107.301 115.069 111.573C114.428 113.705 113.712 115.821 112.92 117.898C112.12 119.975 111.239 122.023 110.283 124.028C108.37 128.04 106.137 131.891 103.592 135.514C101.056 139.142 98.1864 142.525 95.0307 145.597C93.4508 147.131 91.7992 148.589 90.0676 149.945C88.3444 151.306 86.5411 152.562 84.6747 153.708C80.9376 156 76.9308 157.837 72.7471 159.097C68.5592 160.344 64.2027 161.014 59.8294 161.06C57.6427 161.073 55.4519 160.942 53.2821 160.652C51.1081 160.361 48.9593 159.906 46.8443 159.316C42.6143 158.124 38.5527 156.325 34.765 154.058C30.969 151.795 27.472 149.023 24.2868 145.938C21.1101 142.837 18.2577 139.399 15.7424 135.729C13.8591 132.978 12.1654 130.092 10.6613 127.108C10.1641 126.114 9.68383 125.111 9.22459 124.096C7.39185 120.038 5.86245 115.837 4.68696 111.544C2.3065 102.957 1.24899 94.0327 1.35011 85.1465C1.41752 80.7013 1.75458 76.2688 2.40341 71.8783C2.72783 69.6873 3.12808 67.5048 3.59996 65.3391C4.06763 63.1776 4.61113 61.0287 5.23469 58.9051C7.72469 50.415 11.3986 42.2661 16.3744 34.9895C18.8602 31.3575 21.6746 27.9488 24.8008 24.8688C27.9228 21.7929 31.3566 19.0331 35.0853 16.7494C38.8097 14.4742 42.7996 12.6413 46.9707 11.4068C51.1418 10.1764 55.4814 9.53177 59.8294 9.51913C64.1774 9.5107 68.517 10.1469 72.6965 11.3562C76.8803 12.5781 80.8828 14.4025 84.6199 16.6736C86.4906 17.807 88.2938 19.0542 90.0212 20.4109C91.7529 21.755 93.4129 23.2002 94.9928 24.7339C98.1527 27.7971 101.022 31.1763 103.567 34.7957C106.111 38.415 108.349 42.2661 110.261 46.2774C111.218 48.2788 112.098 50.3265 112.899 52.4037C113.695 54.481 114.412 56.5919 115.048 58.7281C116.324 62.9964 117.268 67.3742 117.904 71.7899C118.54 76.2098 118.835 80.6803 118.852 85.1465ZM112.393 85.1465C112.372 77.2042 111.403 69.2576 109.372 61.5554L108.551 58.686C108.252 57.7338 107.927 56.7899 107.62 55.8419C107.472 55.3658 107.283 54.9065 107.114 54.4346L106.592 53.0357C106.503 52.7998 106.423 52.5638 106.326 52.3363L106.036 51.6453L105.454 50.2633C103.866 46.6018 101.995 43.0498 99.8085 39.6875C97.6176 36.3336 95.1276 33.1524 92.3048 30.2704C89.4862 27.3926 86.3642 24.7803 82.9262 22.6272C79.4967 20.4699 75.7764 18.7466 71.8792 17.571C67.982 16.3871 63.9078 15.7719 59.8294 15.7508C55.7468 15.7508 51.6684 16.3618 47.767 17.5247C43.8614 18.6918 40.1285 20.4067 36.6863 22.5598C36.463 22.682 36.2565 22.8337 36.0459 22.9727L35.4139 23.3941L34.1541 24.2452L32.9365 25.1595L32.3298 25.6188C32.1318 25.7704 31.9253 25.9179 31.7358 26.0865L30.5729 27.064C30.1853 27.3926 29.7892 27.7044 29.4269 28.0583L28.3146 29.0949L27.7627 29.6089C27.5773 29.7817 27.4088 29.9713 27.2276 30.1482C24.3795 33.0176 21.8347 36.1735 19.5933 39.519C15.1147 46.2184 11.8452 53.6678 9.72597 61.3995L8.99708 64.3152L8.90439 64.6775L8.82855 65.0483L8.67687 65.7815L8.36931 67.252C8.31876 67.4963 8.26819 67.7449 8.22185 67.9893L8.09966 68.7309L7.8553 70.2098C7.67413 71.1958 7.56459 72.1901 7.4424 73.1845C6.95788 77.1536 6.7388 81.1522 6.7725 85.1465C6.8357 89.1409 7.15591 93.1226 7.72048 97.0706C7.86794 98.0566 7.99434 99.0467 8.19657 100.024L8.47043 101.495L8.60947 102.228L8.77378 102.957L9.09819 104.415L9.26251 105.144L9.34678 105.51L9.43946 105.868L10.2147 108.759C11.5966 113.541 13.4041 118.205 15.6455 122.651C16.9895 125.318 18.4936 127.909 20.1579 130.395C22.3698 133.711 24.8767 136.837 27.6826 139.686C27.8554 139.867 28.0239 140.052 28.2051 140.225L28.7486 140.739L29.8398 141.771C30.1937 142.125 30.5856 142.437 30.9647 142.766L32.1065 143.743C32.2919 143.907 32.4941 144.055 32.6921 144.211L33.2904 144.666L34.4786 145.584L35.7214 146.436L36.3408 146.865C36.5472 147.004 36.7495 147.152 36.9686 147.278C40.3518 149.436 44.0215 151.18 47.8765 152.385C51.7316 153.586 55.7721 154.243 59.8294 154.285C63.8825 154.302 67.944 153.737 71.837 152.579C75.73 151.433 79.4461 149.726 82.8799 147.59C86.3178 145.454 89.4483 142.858 92.2711 139.989C95.094 137.115 97.5882 133.938 99.7832 130.589C101.97 127.231 103.849 123.679 105.437 120.017L106.019 118.639L106.305 117.948C106.402 117.721 106.482 117.485 106.575 117.249L107.097 115.85C107.266 115.382 107.455 114.919 107.603 114.443C107.911 113.495 108.235 112.555 108.53 111.603L109.356 108.733C111.386 101.031 112.36 93.0889 112.393 85.1465Z"
    fill="#47AD4B"
  />
  <path
    d="M31.0574 132.072C31.1838 131.962 31.3144 131.857 31.445 131.752C31.6641 131.579 31.9464 131.844 31.7568 132.068C31.5967 132.253 31.4155 132.422 31.2217 132.573C31.4492 133.336 31.5841 134.17 31.6262 135.025C31.6683 135.017 31.7105 135.009 31.7526 135.004C32.136 134.945 32.3045 135.485 31.9169 135.594C31.8242 135.62 31.7315 135.645 31.6388 135.666C31.6304 136.378 31.5588 137.098 31.4198 137.794C31.5756 137.84 31.7358 137.891 31.8874 137.941C32.1444 138.034 32.0433 138.43 31.7779 138.354C31.6262 138.312 31.4745 138.261 31.3271 138.215C31.2344 138.582 31.129 138.94 30.9984 139.285C31.0069 139.289 31.0111 139.289 31.0195 139.294C31.2175 139.361 31.2007 139.69 30.9689 139.677C30.9268 139.673 30.8847 139.669 30.8425 139.664C30.6656 140.073 30.4634 140.465 30.2232 140.819L30.4802 141.051C30.8383 141.392 31.2302 141.687 31.6094 141.999L32.7511 142.93C32.9407 143.09 33.143 143.229 33.341 143.372L33.935 143.806L35.1232 144.674L36.3618 145.471L36.977 145.871C37.1834 146.002 37.3857 146.141 37.6005 146.259C38.7592 146.95 39.9431 147.586 41.1523 148.171C40.8784 146.132 41.443 144.135 42.0244 142.193C42.0623 142.066 42.2519 142.121 42.2224 142.247C41.7885 144.219 41.443 146.128 41.8095 148.142C41.8348 148.268 41.7927 148.369 41.7168 148.441C43.8529 149.44 46.0607 150.27 48.3189 150.906L49.0183 151.104C49.2543 151.171 49.486 151.243 49.7261 151.289L49.7514 151.294C49.4481 148.673 49.9916 145.803 50.6741 143.33C50.7415 143.073 51.1165 143.183 51.0659 143.436C50.7837 144.885 50.6362 146.368 50.6025 147.843C50.573 149.086 50.75 150.299 50.8174 151.53L51.1502 151.601L51.8622 151.757C52.0982 151.812 52.3425 151.837 52.5827 151.879L54.0236 152.098C54.2638 152.132 54.4997 152.183 54.7441 152.2L55.4687 152.258L56.9181 152.385C57.1624 152.414 57.4026 152.414 57.647 152.419L58.3716 152.435L59.1932 152.457C59.1258 149.945 59.0373 147.405 59.1005 144.902C59.1216 143.992 60.4909 143.992 60.5119 144.902C60.5709 147.409 60.4867 149.95 60.415 152.461C64.0974 152.372 67.7587 151.766 71.2809 150.712C71.6517 150.598 72.0266 150.48 72.3974 150.358C72.4058 148.993 72.4395 147.674 72.2078 146.284C72.1741 146.082 72.469 145.993 72.5196 146.2C72.8019 147.443 73.0547 148.808 73.0631 150.131C74.938 149.478 76.7707 148.694 78.5487 147.792C78.5445 147.788 78.5445 147.784 78.5403 147.775C78.2875 146.907 78.3422 145.892 78.279 144.99C78.2453 144.464 79.0501 144.476 79.0964 144.99C79.168 145.766 79.3408 146.612 79.2986 147.405C80.1665 146.945 81.0218 146.461 81.8603 145.947C82.0751 145.829 82.2732 145.69 82.4754 145.555L83.0863 145.155L84.3039 144.354L85.4794 143.486L86.065 143.052C86.2631 142.909 86.4611 142.77 86.6465 142.61L87.7798 141.683C88.1506 141.371 88.5424 141.076 88.8963 140.739L89.9791 139.757L90.5226 139.264C90.7038 139.1 90.8681 138.923 91.045 138.754C91.3231 138.48 91.597 138.207 91.8708 137.929C91.6054 137.364 91.3905 136.766 91.2262 136.15C91.1419 136.176 91.0619 136.197 90.9819 136.222C90.7628 136.285 90.6195 135.952 90.826 135.847C90.9229 135.801 91.0156 135.746 91.1083 135.691C90.9566 135.034 90.8639 134.356 90.8091 133.677C90.6364 133.669 90.4636 133.656 90.2951 133.643C90.0971 133.631 90.0971 133.353 90.2951 133.34C90.4594 133.327 90.6237 133.302 90.7838 133.273C90.7417 132.43 90.7712 131.583 90.8639 130.77C90.7543 130.736 90.6448 130.698 90.5395 130.665C90.2066 130.563 90.3499 130.104 90.6785 130.159C90.767 130.172 90.8555 130.18 90.9439 130.184C90.9734 129.999 91.0029 129.818 91.0366 129.636C91.1672 128.979 91.3779 128.364 91.6602 127.795L91.5422 127.724C91.3695 127.618 91.4874 127.298 91.6897 127.382C91.7402 127.403 91.7908 127.424 91.8456 127.445C92.2163 126.797 92.6882 126.224 93.257 125.752C93.1601 125.608 93.0632 125.461 92.9747 125.309C92.7725 124.976 93.2612 124.584 93.5224 124.888C93.6404 125.027 93.7668 125.158 93.8932 125.288C94.3861 124.976 94.938 124.728 95.5405 124.555C95.7596 124.492 95.8734 124.799 95.6922 124.913C95.2498 125.191 94.799 125.457 94.3693 125.752C94.4451 125.819 94.5125 125.891 94.5884 125.954C95.0602 126.358 94.3061 127.1 93.9142 126.628C93.8258 126.518 93.7373 126.409 93.653 126.299C93.4171 126.506 93.198 126.729 93.0042 126.986C92.8272 127.222 92.6798 127.475 92.5576 127.732L92.8188 127.837C93.2191 128.002 92.941 128.579 92.5955 128.368C92.5154 128.318 92.4354 128.271 92.3553 128.221C92.1405 128.832 92.0225 129.476 91.934 130.121C92.1236 130.104 92.309 130.087 92.5028 130.096C93.0126 130.108 93.1601 130.922 92.625 131.014C92.3638 131.061 92.1026 131.052 91.8371 131.014C91.7908 131.693 91.7992 132.354 91.8498 133.007C92.0141 132.965 92.1784 132.923 92.3427 132.885C92.7177 132.805 92.8357 133.302 92.4986 133.445C92.3132 133.521 92.1152 133.576 91.913 133.614C91.972 134.09 92.052 134.57 92.1531 135.042C92.368 134.916 92.5829 134.798 92.8146 134.701C93.0969 134.579 93.278 134.992 93.0969 135.181C92.8736 135.417 92.6039 135.594 92.3132 135.742C92.4228 136.188 92.5449 136.639 92.6756 137.094C94.8369 134.823 96.8298 132.388 98.633 129.809C100.887 126.599 102.872 123.181 104.569 119.625L105.189 118.281L105.501 117.611C105.606 117.388 105.694 117.156 105.791 116.933L106.356 115.563C106.541 115.108 106.748 114.658 106.908 114.19C107.245 113.263 107.595 112.336 107.915 111.405L108.816 108.582C111.07 100.998 112.153 93.0678 112.174 85.1465H112.393C112.36 93.0889 111.386 101.031 109.356 108.733L108.53 111.603C108.235 112.555 107.911 113.495 107.603 114.443C107.455 114.919 107.266 115.382 107.097 115.85L106.575 117.249C106.482 117.485 106.402 117.721 106.305 117.948L106.019 118.639L105.437 120.017C103.849 123.679 101.97 127.231 99.7832 130.589C97.5882 133.938 95.094 137.115 92.2711 139.989C89.4483 142.858 86.3178 145.454 82.8799 147.59C79.4461 149.726 75.73 151.433 71.837 152.579C67.944 153.737 63.8825 154.302 59.8294 154.285C55.7721 154.243 51.7316 153.586 47.8765 152.385C44.0215 151.18 40.3518 149.435 36.9686 147.278C36.7495 147.152 36.5472 147.004 36.3408 146.865L35.7214 146.436L34.4785 145.584L33.2904 144.666L32.6921 144.211C32.4941 144.055 32.2919 143.907 32.1065 143.743L30.9647 142.766C30.5855 142.437 30.1937 142.125 29.8398 141.771L28.7486 140.739L28.2051 140.225C28.0239 140.052 27.8554 139.867 27.6826 139.686C24.8766 136.837 22.3698 133.711 20.1578 130.395C18.4936 127.909 16.9895 125.318 15.6455 122.651L16.2311 122.356C17.5667 125.002 19.0708 127.555 20.7393 130.003C22.9681 133.256 25.496 136.302 28.3146 139.054C28.4874 139.226 28.6559 139.403 28.8371 139.572L29.3848 140.065L29.4143 140.09C29.5322 139.795 29.6502 139.509 29.764 139.218C29.646 139.142 29.5365 139.054 29.4311 138.965C29.2837 138.843 29.4775 138.594 29.6376 138.7C29.7218 138.759 29.8103 138.805 29.903 138.855C30.0294 138.514 30.1431 138.177 30.2443 137.827C29.9788 137.726 29.7092 137.625 29.4438 137.528C29.2879 137.473 29.3511 137.242 29.5112 137.284C29.785 137.355 30.0589 137.427 30.3328 137.499C30.417 137.17 30.4844 136.837 30.5223 136.488C30.5518 136.256 30.5687 136.024 30.5813 135.792C30.1726 135.805 29.7597 135.78 29.3637 135.721C29.2584 135.704 29.271 135.544 29.3637 135.523C29.7724 135.422 30.1853 135.316 30.5982 135.223C30.6024 134.516 30.5266 133.804 30.3622 133.117C30.1558 133.222 29.9409 133.319 29.726 133.403C29.6249 133.445 29.5912 133.302 29.6586 133.247C29.8651 133.091 30.0673 132.923 30.2653 132.754C30.101 132.198 29.8735 131.667 29.5702 131.179C29.507 131.225 29.4396 131.267 29.3721 131.309C29.3426 131.339 29.3132 131.372 29.2795 131.402C29.2584 131.427 29.2247 131.423 29.2036 131.406C29.1573 131.431 29.1151 131.457 29.0688 131.482C28.9466 131.545 28.8034 131.381 28.9171 131.28C29.0646 131.141 29.2036 130.993 29.3342 130.841C29.0983 130.521 28.8286 130.226 28.5169 129.965C28.361 130.142 28.2009 130.311 28.0365 130.475C27.8427 130.669 27.5436 130.37 27.7374 130.176C27.8891 130.024 28.0323 129.864 28.1672 129.704C27.6826 129.392 27.1434 129.211 26.6041 129.038C26.4692 129.32 26.3344 129.607 26.208 129.889C26.1743 129.961 26.0648 129.906 26.0816 129.834C26.1617 129.54 26.2333 129.24 26.3091 128.941C25.7909 128.773 25.2769 128.583 24.8261 128.267C24.7882 128.242 24.784 128.166 24.8387 128.158C25.4201 128.061 25.9889 128.065 26.5366 128.158C26.6378 127.85 26.7515 127.547 26.9032 127.256C26.9875 127.087 27.2318 127.209 27.1981 127.382C27.1349 127.673 27.0422 127.959 26.9369 128.242C27.5647 128.402 28.1545 128.672 28.6854 129.034C28.9003 128.731 29.1025 128.423 29.3005 128.103C29.4353 127.884 29.7429 128.073 29.6376 128.301C29.4732 128.65 29.271 128.983 29.0477 129.299C29.3637 129.548 29.6502 129.83 29.9156 130.138C29.9957 130.037 30.0757 129.94 30.1558 129.843C30.3412 129.628 30.6193 129.902 30.5181 130.121C30.4423 130.277 30.3538 130.424 30.2485 130.559C30.5813 131.018 30.8552 131.528 31.0532 132.063C31.0532 132.063 31.0574 132.068 31.0574 132.072Z"
    fill="#1D1D1B"
  />
  <path
    d="M8.19648 100.025C7.99424 99.0474 7.86784 98.0572 7.72038 97.0713C7.15581 93.1233 6.83561 89.1415 6.77241 85.1472C6.7387 81.1528 6.95779 77.1542 7.44231 73.1852C7.56449 72.1908 7.67404 71.1964 7.85521 70.2105L8.09957 68.7315L8.22175 67.99C8.2681 67.7456 8.31866 67.497 8.36922 67.2526L8.67677 65.7821L8.82846 65.049L8.90429 64.6782L8.99698 64.3158L9.72587 61.4001C11.8451 53.6684 15.1146 46.219 19.5932 39.5196C21.8346 36.1741 24.3794 33.0182 27.2275 30.1489C27.4087 29.9719 27.5772 29.7823 27.7626 29.6095L28.3145 29.0955L29.4268 28.059C29.7892 27.7051 30.1852 27.3933 30.5728 27.0646L31.7357 26.0871C31.9253 25.9185 32.1317 25.7711 32.3297 25.6194L32.9364 25.1601L34.154 24.2458L35.4138 23.3947L36.0458 22.9733C36.2564 22.8343 36.4629 22.6826 36.6862 22.5604C40.1284 20.4073 43.8613 18.6925 47.7669 17.5253C51.6683 16.3624 55.7467 15.7515 59.8293 15.7515C63.9077 15.7725 67.9819 16.3877 71.8791 17.5717C75.7763 18.7472 79.4966 20.4705 82.9261 22.6278C86.3641 24.7809 89.4861 27.3933 92.3047 30.2711C95.1276 33.1531 97.6176 36.3342 99.8084 39.6881C101.995 43.0505 103.866 46.6024 105.454 50.2639L106.036 51.6459L106.326 52.337C106.423 52.5645 106.503 52.8004 106.592 53.0364L107.114 54.4353C107.283 54.9072 107.472 55.3664 107.62 55.8425C107.927 56.7906 108.252 57.7344 108.551 58.6866L109.372 61.556C111.403 69.2582 112.372 77.2048 112.393 85.1472H112.174C112.141 77.2259 111.054 69.3003 108.799 61.7161L107.898 58.8931C107.573 57.9619 107.228 57.0392 106.891 56.108C106.727 55.6445 106.524 55.1937 106.339 54.7344L105.77 53.3692C105.673 53.1417 105.585 52.9142 105.484 52.6909L105.172 52.0167L104.548 50.6768C102.85 47.1207 100.866 43.712 98.6077 40.5013C96.3536 37.2907 93.8088 34.2949 91.0113 31.573C90.8343 31.4045 90.67 31.2275 90.4888 31.0632L89.9453 30.5744L88.8583 29.5969C88.5044 29.2598 88.1126 28.9691 87.7376 28.6573L86.6043 27.7388C86.4189 27.5787 86.2166 27.4396 86.0228 27.2963L85.433 26.8666L84.2575 26.0028L83.0399 25.2107L82.429 24.8104C82.2267 24.6798 82.0287 24.5365 81.8139 24.4228C78.4981 22.4129 74.9421 20.8076 71.2387 19.7248C67.5311 18.6461 63.6844 18.0731 59.8293 18.0773C55.9742 18.0941 52.1276 18.6714 48.4326 19.7669C44.7334 20.8624 41.1901 22.4761 37.8827 24.4944C37.6721 24.6082 37.4741 24.7514 37.2718 24.882L36.6651 25.2823L35.4517 26.0829L34.2846 26.9508L33.699 27.3848C33.5052 27.5281 33.3072 27.6713 33.1218 27.8272L32.0011 28.7584C31.6303 29.0702 31.2427 29.3652 30.893 29.7022L29.8187 30.6882L29.2836 31.1812C29.1024 31.3455 28.9381 31.5267 28.7654 31.6952C25.9973 34.4297 23.5031 37.4508 21.2996 40.6741C16.8883 47.1249 13.6231 54.3468 11.4112 61.8762L10.6401 64.7161L10.5432 65.07L10.4632 65.4282L10.2989 66.1487L9.97023 67.5855L9.80592 68.3018L9.66688 69.0265L9.39303 70.4717C9.19079 71.4366 9.06018 72.4099 8.91271 73.3832C8.33972 77.2722 8.03216 81.2076 7.96896 85.1472C7.93525 89.0868 8.14171 93.0348 8.63465 96.9491C8.76105 97.9266 8.87059 98.9083 9.05176 99.8774L9.29612 101.34L9.4183 102.068C9.46465 102.313 9.51521 102.553 9.56577 102.793L9.87334 104.243L10.0292 104.967L10.1051 105.33L10.1935 105.688L10.9266 108.557C11.9715 112.366 13.3324 116.087 14.9545 119.685C15.3631 120.587 15.7887 121.476 16.2311 122.356L15.6454 122.651C13.404 118.206 11.5965 113.542 10.2146 108.759L9.43936 105.869L9.34669 105.511L9.26242 105.144L9.0981 104.415L8.77368 102.957L8.60937 102.229L8.47033 101.495L8.19648 100.025Z"
    fill="#1D1D1B"
  />
  <path
    d="M3.88229 111.771C3.26295 109.609 2.71943 107.427 2.25177 105.232C1.77989 103.032 1.37963 100.82 1.05522 98.5955C0.414809 94.1419 0.0651168 89.6503 0.00613194 85.1461C-0.0907718 76.1462 0.958314 67.0957 3.33456 58.3696C5.71502 49.6477 9.40159 41.2419 14.4532 33.6872C16.9811 29.9161 19.8461 26.3557 23.065 23.1282C26.2839 19.9007 29.8441 16.9934 33.7328 14.5707C37.6132 12.1395 41.8138 10.1971 46.2208 8.87829C50.6278 7.57212 55.2286 6.89376 59.8295 6.89797C64.4261 6.91482 69.0227 7.5974 73.4213 8.92886C77.8156 10.2561 82.0078 12.2111 85.8755 14.6465C87.8094 15.8642 89.659 17.2083 91.4243 18.6493C93.1854 20.0945 94.8623 21.6409 96.4549 23.2631C99.6401 26.5074 102.446 30.0973 104.919 33.881C107.384 37.6731 109.495 41.6801 111.285 45.8093C112.179 47.8781 112.992 49.9764 113.721 52.1042C114.458 54.2278 115.115 56.3766 115.692 58.5466C116.838 62.8864 117.694 67.2979 118.262 71.7431C118.549 73.9636 118.755 76.1968 118.89 78.4341C119.029 80.6672 119.101 82.9088 119.101 85.1461H118.852C118.835 80.6799 118.54 76.2094 117.904 71.7895C117.268 67.3738 116.324 62.996 115.048 58.7277C114.412 56.5915 113.695 54.4806 112.899 52.4033C112.099 50.3261 111.218 48.2784 110.262 46.277C108.349 42.2658 106.112 38.4147 103.567 34.7953C101.022 31.1759 98.1528 27.7967 94.9929 24.7335C93.4129 23.1998 91.7529 21.7546 90.0213 20.4105C88.2939 19.0538 86.4906 17.8066 84.62 16.6732C80.8829 14.4021 76.8803 12.5777 72.6966 11.3558C68.5171 10.1465 64.1775 9.51031 59.8295 9.51874C55.4814 9.53138 51.1418 10.176 46.9708 11.4064C42.7997 12.6409 38.8098 14.4738 35.0853 16.749C31.3566 19.0327 27.9228 21.7926 24.8009 24.8684C21.6747 27.9484 18.8602 31.3571 16.3744 34.9891C11.3986 42.2658 7.72473 50.4146 5.23472 58.9047C4.61117 61.0283 4.06766 63.1772 3.6 65.3387C3.12812 67.5044 2.72786 69.687 2.40345 71.878C1.75461 76.2684 1.41756 80.701 1.35015 85.1461C1.24903 94.0323 2.30654 102.956 4.687 111.543C5.86248 115.837 7.39189 120.038 9.22463 124.095C9.68387 125.111 10.1642 126.114 10.6613 127.108L9.99986 127.441C7.47615 122.427 5.44117 117.164 3.88229 111.771Z"
    fill="#1D1D1B"
  />
  <path
    d="M73.8844 8.68065C71.2554 7.05426 68.6221 5.44471 65.9551 3.87731C64.6238 3.0936 63.2966 2.30569 61.9695 1.51777C60.8698 0.864682 59.6606 -0.0327855 58.3208 0.000922233C57.2127 0.026203 56.1974 1.03743 55.3631 1.67367C54.3014 2.48686 53.265 3.32534 52.2538 4.20174C50.0671 6.0978 47.9395 8.12026 46.1194 10.3745C46.0393 10.4756 46.1657 10.6104 46.2626 10.5177C48.1501 8.71015 50.0124 6.88993 52.0263 5.22561C53.0543 4.37871 54.1118 3.5613 55.1904 2.78181C56.2353 2.0276 57.4066 0.881536 58.7969 1.27339C60.0187 1.61889 61.1816 2.67226 62.2265 3.36748C63.4062 4.15539 64.5859 4.94331 65.7613 5.73544C68.1165 7.3197 70.497 8.8534 72.8859 10.3829C73.9602 11.0739 74.9672 9.35059 73.8844 8.68065Z"
    fill="#1D1E1B"
  />
  <path
    d="M58.7891 2.65168C58.4731 2.33567 58.0097 2.2177 57.5799 2.33146C57.5673 2.33567 57.5547 2.33567 57.542 2.33989C57.4451 2.38202 57.344 2.42416 57.2471 2.46629C57.1038 2.54213 56.9859 2.65168 56.9016 2.7823C56.7415 2.98876 56.6235 3.25842 56.6362 3.52808C56.6446 3.74718 56.7036 3.95786 56.8047 4.15168C56.9437 4.41712 57.2555 4.64465 57.542 4.72049C57.5547 4.72471 57.5673 4.72471 57.5799 4.72892C57.997 4.83847 58.49 4.73313 58.7891 4.4087C59.0124 4.16432 59.1515 3.86516 59.1515 3.52808C59.1557 3.21629 59.0166 2.87921 58.7891 2.65168Z"
    fill="#1D1E1B"
  />
  <path
    d="M95.4691 59.0527C94.4158 60.1187 93.3625 61.1847 92.3092 62.2507C91.9553 62.6088 92.503 63.1608 92.8611 62.8026C93.9271 61.7493 94.993 60.6959 96.059 59.6425C96.4382 59.2633 95.8441 58.6692 95.4691 59.0527Z"
    fill="#1D1D1B"
  />
  <path
    d="M25.5839 94.8969C22.9633 97.5767 20.3427 100.256 17.7263 102.936C17.5577 103.109 17.819 103.37 17.9917 103.202L26.0305 95.3435C26.3212 95.0612 25.8704 94.6104 25.5839 94.8969Z"
    fill="#1D1D1B"
  />
  <path
    d="M21.5019 70.9427C19.2437 73.1927 17.0149 75.4637 14.7987 77.7559C14.449 78.1182 14.9883 78.6618 15.3507 78.3078C17.6427 76.0915 19.9136 73.8626 22.1634 71.6042C22.5932 71.1744 21.9317 70.5129 21.5019 70.9427Z"
    fill="#1D1D1B"
  />
  <path
    d="M73.1815 31.9941L69.6087 35.5756C69.2 35.9885 69.8362 36.6247 70.2449 36.2118C71.4372 35.0194 72.6338 33.8312 73.8261 32.6388C74.2517 32.2259 73.5986 31.5728 73.1815 31.9941Z"
    fill="#1D1D1B"
  />
  <path
    d="M35.9486 30.9318C33.3237 33.3335 30.8506 35.9079 28.3311 38.4192C27.9983 38.752 28.5165 39.2703 28.8493 38.9374C31.3604 36.4178 33.9347 33.9445 36.3362 31.3195C36.5721 31.0582 36.2098 30.6959 35.9486 30.9318Z"
    fill="#1D1D1B"
  />
  <path
    d="M15.0846 136.176C13.2097 133.37 11.516 130.45 9.99927 127.441L10.6607 127.108C12.1649 130.091 13.8586 132.978 15.7419 135.729C18.2572 139.399 21.1095 142.837 24.2863 145.938C27.4714 149.023 30.9684 151.795 34.7645 154.058C38.5522 156.324 42.6137 158.124 46.8438 159.316C48.9588 159.906 51.1075 160.361 53.2815 160.652C55.4513 160.942 57.6422 161.073 59.8289 161.06C64.2022 161.014 68.5586 160.344 72.7466 159.097C76.9303 157.837 80.937 156 84.6741 153.708C86.5406 152.562 88.3438 151.306 90.067 149.945C91.7987 148.589 93.4503 147.131 95.0302 145.597C98.1859 142.525 101.055 139.142 103.591 135.514C106.136 131.891 108.369 128.04 110.282 124.028C111.238 122.023 112.119 119.975 112.919 117.898C113.712 115.82 114.428 113.705 115.068 111.573C116.345 107.301 117.284 102.923 117.916 98.5032C118.548 94.0832 118.843 89.6128 118.852 85.1465H119.1C119.096 87.3838 119.024 89.6254 118.881 91.8585C118.742 94.0959 118.536 96.3248 118.249 98.5495C117.676 102.99 116.817 107.402 115.675 111.742C115.098 113.912 114.436 116.061 113.699 118.184C112.97 120.308 112.157 122.406 111.264 124.471C109.473 128.604 107.358 132.603 104.889 136.391C102.483 140.065 99.7532 143.549 96.6776 146.714C96.6691 146.743 96.6565 146.768 96.6397 146.798C96.6439 146.798 96.6439 146.802 96.6481 146.802C96.5975 146.874 96.547 146.937 96.4964 147.004C96.3489 147.236 96.2731 147.527 95.995 147.636C95.9276 147.662 95.8644 147.674 95.8012 147.674C95.7422 147.721 95.679 147.763 95.6116 147.805C95.599 147.813 95.5906 147.818 95.5779 147.826C92.616 150.729 89.3592 153.35 85.8201 155.558C81.9524 157.972 77.7645 159.91 73.3701 161.204C68.9799 162.493 64.4002 163.146 59.8289 163.108C55.2533 163.062 50.6988 162.333 46.3466 160.985C41.9986 159.624 37.8654 157.648 34.0482 155.208C30.2311 152.768 26.7341 149.869 23.5742 146.65C20.4101 143.44 17.583 139.913 15.0846 136.176Z"
    fill="#1D1D1B"
  />
</svg>
