<svg
  width="119"
  height="164"
  viewBox="0 0 119 164"
  fill="none"
  xmlns="http://www.w3.org/2000/svg"
>
  <path
    d="M92.2077 139.077C93.3835 137.662 94.5844 136.264 95.8777 134.958C95.9323 132.543 95.9406 130.129 95.9071 127.714C95.8987 127.164 95.504 126.765 95.0421 126.635C95.1344 126.429 95.2226 126.224 95.2982 126.009C95.4116 125.686 95.0589 125.359 94.7439 125.455C91.9726 126.333 90.7213 129.961 90.4778 132.573C90.2594 134.908 90.8809 137.213 92.0734 139.191C92.1196 139.153 92.1658 139.115 92.2077 139.077Z"
    fill="#39B100"
  />
  <path
    d="M24.4652 130.334C24.6584 130.46 24.8515 130.586 25.0405 130.704C24.5786 130.796 24.1713 131.212 24.1923 131.703C24.2595 133.064 24.3393 134.441 24.4442 135.819C25.2546 136.671 26.0104 137.57 26.7789 138.46C26.8754 138.569 26.9216 138.687 26.9426 138.804C27.606 139.367 28.2905 139.909 28.9707 140.446C29.2604 140.673 29.5502 140.904 29.8399 141.131C31.0408 138.918 31.5951 136.243 30.7931 133.799C29.9239 131.149 27.6187 129.629 24.9733 129.138C24.2469 129.008 23.827 129.91 24.4652 130.334ZM26.8712 137.809C26.8041 137.125 26.7411 136.44 26.6697 135.76C26.8166 136.419 26.8754 137.112 26.8712 137.809Z"
    fill="#39B100"
  />
  <path
    d="M61.8574 41.5122C60.0602 41.3694 58.0657 41.823 56.2727 42.0119C54.442 42.2051 52.3215 42.2261 50.5873 42.8896C49.8231 43.1835 49.2437 43.7924 49.2437 44.6532C49.2437 45.4007 49.8063 46.2825 50.5873 46.4169C52.5063 46.7487 54.5386 46.4295 56.4659 46.2573C58.3974 46.0852 60.5473 46.1314 62.4116 45.6064C64.7673 44.9472 64.1416 41.6928 61.8574 41.5122Z"
    fill="#EF4036"
  />
  <path
    d="M52.4099 126.304C52.3049 126.027 52.2671 125.741 52.2965 125.447C52.2965 124.792 51.7422 124.523 51.2551 124.62C51.0998 124.544 50.9276 124.511 50.7639 124.519C50.5539 124.376 50.302 124.309 50.071 124.36C49.7519 124.036 49.2144 124.095 48.8491 124.393C48.5174 124.103 47.9506 124.158 47.602 124.465C47.3879 124.389 47.1485 124.385 46.9428 124.46C46.5985 124.036 45.8721 124.032 45.5319 124.452C45.2842 124.305 44.9651 124.284 44.7048 124.385C44.3688 124.225 43.9069 124.301 43.6382 124.603C43.5164 124.582 43.3905 124.591 43.2645 124.624C42.916 124.494 42.4667 124.561 42.2358 124.918C41.8578 125.502 41.8453 126.174 42.0804 126.82C42.2651 127.333 42.8236 127.593 43.2897 127.354C43.4745 127.488 43.7096 127.555 44.0287 127.505C44.0623 127.501 44.0917 127.488 44.1253 127.484C44.3982 127.807 44.8097 127.841 45.1372 127.669C45.154 127.69 45.1666 127.711 45.1834 127.732C45.469 128.088 46.1282 128.059 46.4473 127.732C46.7958 127.925 47.2451 127.891 47.5223 127.61C47.7112 127.664 47.9254 127.652 48.1143 127.585C48.509 127.984 49.1683 128.051 49.5294 127.513C49.9241 127.61 50.365 127.492 50.5455 127.093C50.5581 127.06 50.5749 127.03 50.5875 126.997C50.6001 126.997 50.6085 126.992 50.6211 126.992C50.6337 127.001 50.6421 127.009 50.6547 127.018C51.0242 127.908 52.7164 127.421 52.4099 126.304Z"
    fill="#EF4036"
  />
  <path
    d="M37.2345 125.337C37.2429 125.295 37.1799 125.274 37.1673 125.321C36.739 127.025 36.2813 128.722 35.8321 130.418C35.6683 130.171 35.4877 129.927 35.3408 129.654C34.9167 128.865 34.6689 127.987 34.5892 127.097C34.5556 126.732 34.0769 126.744 34.0307 127.097C33.9047 128.067 33.9635 129.024 34.2742 129.957C34.5052 130.649 34.7991 131.464 35.4709 131.796C35.0301 133.484 34.6018 135.176 34.228 136.881C33.7242 139.17 33.2203 141.63 33.1069 144.066C33.5436 144.524 33.9761 144.981 34.4212 145.431C34.3792 144.381 34.3498 143.327 34.4338 142.26C34.585 140.35 34.9461 138.468 35.3198 136.591C35.6431 134.966 35.9244 133.328 36.1932 131.691C36.2394 131.624 36.2645 131.548 36.2561 131.46C36.252 131.435 36.2478 131.409 36.2436 131.384C36.5711 129.369 36.8818 127.349 37.2345 125.337Z"
    fill="#251C1C"
  />
  <path
    d="M84.6368 142.576C84.7124 143.68 84.6746 144.814 84.6746 145.939C85.0693 145.633 85.485 145.347 85.9217 145.095C85.8755 144.176 85.7831 143.26 85.7117 142.395C85.5354 140.22 85.2247 138.049 84.788 135.912C84.2799 133.43 83.6206 130.822 82.6927 128.349C82.7808 128.336 82.8648 128.298 82.932 128.219C83.5157 127.522 83.8432 126.648 84.1497 125.8C84.4562 124.947 84.8803 123.927 84.8089 123.012C84.7921 122.81 84.5276 122.713 84.4142 122.907C83.9482 123.683 83.7718 124.653 83.3771 125.477C83.058 126.14 82.6465 126.757 82.3274 127.417C81.7605 126.031 81.1054 124.7 80.3328 123.473C80.2237 123.301 79.9213 123.41 79.9927 123.616C80.6646 125.636 81.5211 127.589 82.1636 129.621C82.827 131.712 83.3603 133.854 83.7802 136.008C84.2043 138.179 84.4898 140.371 84.6368 142.576Z"
    fill="#251C1C"
  />
  <path
    d="M93.9585 108.574C94.223 109.616 94.4203 110.67 94.5673 111.732C93.9878 112.001 93.5553 112.631 93.1354 113.088C92.5896 113.685 92.0395 114.281 91.4937 114.873C91.1619 115.234 91.6742 115.751 92.0353 115.415C92.6232 114.861 93.2152 114.306 93.8031 113.756C94.0844 113.492 94.4287 113.223 94.7185 112.921C94.8108 113.798 94.8738 114.68 94.92 115.562C94.8108 115.474 94.6597 115.44 94.4875 115.495C94.3699 115.532 94.2566 115.579 94.1432 115.629C94.1936 115.398 94.2356 115.167 94.2524 114.932C94.2776 114.579 93.8451 114.487 93.6225 114.672C93.3706 114.877 93.1019 114.991 92.8163 115.134C92.6358 115.226 92.7449 115.465 92.9087 115.482C93.0389 115.495 93.1648 115.495 93.2866 115.478C93.148 115.86 93.0011 116.234 92.7785 116.599C92.5518 116.969 92.9339 117.54 93.3748 117.376C93.4672 117.342 93.5637 117.3 93.6561 117.263C93.5427 117.582 93.4336 117.901 93.3454 118.228C93.2152 118.72 93.9753 119.085 94.1978 118.589C94.4917 117.926 94.6891 117.229 94.962 116.557C95.0124 118.023 95.025 119.492 95.0292 120.954C95.0418 125.573 94.8948 130.192 94.6051 134.803C94.5715 135.349 94.5337 135.894 94.4959 136.44C95.025 135.857 95.5667 135.286 96.1251 134.731C96.4484 130.079 96.6038 125.422 96.5828 120.756C96.545 112.866 96.2217 103.33 89.18 98.24C86.2239 96.1026 82.3021 95.0444 78.8547 96.447C78.8715 96.3504 78.8715 96.2538 78.8463 96.1614C78.4852 94.8471 78.1451 93.5285 77.7756 92.2142C82.9949 89.6232 87.4458 85.382 88.1135 79.3099C88.6005 74.863 87.3996 70.0423 86.0392 65.8346C85.4009 63.861 84.4394 62.2947 82.9655 60.8502C81.6765 59.5862 82.2685 57.8519 82.0712 56.2436C82.1845 55.6095 82.2349 54.967 82.2349 54.3246C82.3777 54.228 82.4868 54.0684 82.5246 53.8333C82.9319 51.3683 82.9655 48.9454 82.9193 46.4552C82.9109 45.9471 82.3525 45.3718 81.8024 45.607C80.337 46.2243 78.9135 46.9423 77.4775 47.6226C76.7385 47.9711 75.9994 48.3281 75.2604 48.6892C74.5718 49.0251 73.7026 49.655 72.9258 49.6634C72.254 49.6718 71.5359 49.3233 70.8935 49.1427C70.1419 48.9286 69.3861 48.7396 68.6261 48.5674C67.2068 48.2483 65.7792 48.0257 64.3389 47.8284C61.9203 47.5008 59.4807 47.3748 57.0453 47.4462C56.6884 47.3748 56.3231 47.4001 55.9578 47.4924C53.0101 47.652 50.075 48.1013 47.2155 48.8488C44.1628 49.6466 41.1858 50.7762 38.3893 52.2418C36.6383 51.2171 34.8789 50.2093 33.0062 49.4157C31.927 48.9579 29.2355 47.5134 28.3495 48.9244C27.959 49.5458 28.2194 50.3479 28.3705 51.003C28.6308 52.12 28.9038 53.237 29.1893 54.3498C29.7352 56.4956 30.365 58.6036 31.0453 60.7074C31.0201 60.7788 31.0159 60.8544 31.0243 60.9215C31.0536 61.1189 31.0747 61.3163 31.0998 61.5136C31.1208 61.6732 31.2048 61.7782 31.3056 61.8286C31.3056 61.8286 31.3056 61.8286 31.3056 61.8328C31.293 61.8454 31.2804 61.8622 31.272 61.879C28.1186 68.8959 28.4923 77.5715 32.4267 84.1936C34.1525 87.0995 36.5081 89.6232 39.3088 91.5171C39.9681 91.9622 40.6483 92.3569 41.3453 92.7139C41.064 93.7721 40.8121 94.8303 40.5811 95.8969C40.388 96.7997 40.0227 97.7991 39.9639 98.7397C39.8043 98.7314 39.6489 98.7356 39.4894 98.7482C39.3088 98.576 39.0569 98.4836 38.7714 98.5718C37.2261 99.0463 35.8111 99.7434 34.5262 100.613C33.2413 101.297 32.0614 102.196 31.0369 103.199C28.3999 105.782 26.7077 109.213 25.5068 112.66C23.8272 117.477 23.2394 122.541 23.2688 127.618C23.1512 129.549 23.1092 131.473 23.1302 133.367C23.1344 133.765 23.147 134.169 23.1554 134.568C23.7684 135.109 24.3395 135.697 24.8896 136.298C24.7636 132.321 24.9316 128.332 25.4018 124.384C26.1702 117.926 27.3628 110.98 31.4694 105.71C32.7165 104.106 34.2197 102.7 35.9329 101.629C35.9622 101.62 35.9916 101.616 36.0252 101.604C37.1715 101.15 38.2717 100.558 39.3802 100.025C39.5356 99.9491 39.6363 99.8442 39.6993 99.7182C39.7035 99.714 39.7119 99.714 39.7161 99.7098C39.8421 99.672 39.9681 99.6384 40.094 99.6006C40.2746 99.9323 40.6021 100.142 41.0094 100.323C42.1305 100.823 43.2601 101.31 44.3896 101.788C48.7943 103.661 53.199 105.53 57.6038 107.403C58.0488 107.592 58.7627 107.39 58.6997 106.773C58.4813 104.644 58.5443 102.515 58.8928 100.428C58.876 100.869 58.8676 101.314 58.8508 101.755C58.8005 103.191 58.7879 104.627 58.7753 106.063C58.7459 109.003 58.7123 111.938 58.7123 114.877C58.7123 120.681 58.5821 126.522 59.0104 132.313C59.0272 132.523 59.2162 132.602 59.3631 132.552C59.3211 134.937 59.4219 137.326 59.2791 139.707C59.1952 141.135 59.0566 142.529 59.0398 143.961C59.0272 144.973 59.0272 145.989 59.0272 147.001H60.2239C60.2239 146.052 60.2239 145.103 60.2113 144.154C60.1945 142.655 60.0685 141.198 59.972 139.707C59.783 136.747 59.9972 133.774 59.8292 130.809C59.8208 130.687 59.7368 130.624 59.6444 130.616C59.9384 125.384 59.8334 120.114 59.8334 114.877C59.8334 112.005 59.7998 109.133 59.7746 106.256C59.762 104.82 59.7536 103.384 59.7032 101.948C59.6696 101.02 59.6696 100.092 59.5731 99.1723C60.1441 101.62 60.7026 104.073 61.2653 106.525C61.3618 106.945 61.9665 107.243 62.336 106.962C67.253 103.262 72.5395 100.016 77.9856 97.1608C78.0234 97.396 78.2375 97.6101 78.5104 97.522C81.8318 96.489 85.2666 97.3036 88.0715 99.2814C91.2123 101.499 93.0305 104.908 93.9585 108.574ZM85.5059 69.1268C85.3632 69.0512 85.2036 69.0093 85.0314 68.9841C85.17 68.9379 85.3044 68.8917 85.4387 68.8413C85.4639 68.9379 85.4849 69.0344 85.5059 69.1268ZM57.1377 105.652C53.5853 104.203 50.033 102.754 46.4807 101.305C45.5233 100.915 44.5659 100.52 43.6044 100.138C42.9367 99.8736 41.1102 99.4872 41.001 98.7355C40.938 98.3072 41.1186 97.7319 41.1732 97.2994C41.232 96.8039 41.2949 96.3084 41.3537 95.8129C41.4755 94.8303 41.5679 93.8519 41.6435 92.865C44.251 94.1374 47.0727 94.8219 49.9952 95.183C52.8295 95.5315 55.7394 95.7793 58.6535 95.8339C57.4442 98.9707 56.9151 102.305 57.1377 105.652ZM54.043 94.1668C50.1758 93.9106 46.17 93.5789 42.6218 91.8908C40.8163 91.0342 39.1577 89.9046 37.6796 88.5692C38.9981 88.1157 39.5524 86.3478 39.1829 85.0881C38.8176 83.8577 37.7426 82.8247 36.4283 82.7407C35.9161 82.7071 35.4668 82.8541 34.9965 83.0346C34.6102 83.1816 34.0349 83.5596 33.7788 83.6519C33.741 83.6645 33.7032 83.6813 33.6696 83.6981C33.3841 83.2236 33.1195 82.7365 32.8676 82.241C33.1867 82.22 33.5143 82.1234 33.8418 81.9974C35.1644 81.4809 36.5459 80.6117 37.3227 79.3939C38.1457 78.1006 37.2681 76.9584 35.8783 76.8114C34.6144 76.677 33.2203 77.076 32.0782 77.71C31.7465 77.7604 31.4736 77.9032 31.2594 78.1006C31.0873 77.4917 30.9361 76.8786 30.8059 76.2571C33.4219 76.0472 39.502 75.4634 38.0156 71.5666C36.8692 68.5683 32.9684 68.1526 30.344 69.3746C30.5078 66.9096 30.9907 64.4699 31.6667 62.0511C31.6835 61.9881 31.6667 61.9293 31.6373 61.8832C31.6457 61.8664 31.6583 61.8496 31.6667 61.8328C31.7927 61.7698 31.8808 61.6354 31.8431 61.4422C31.8808 61.3247 31.9018 61.2071 31.906 61.0769C31.9144 60.8082 31.7801 60.615 31.5743 60.5352C31.0705 58.3264 30.575 56.1134 30.0711 53.9046C29.815 52.7876 29.5462 51.6665 29.3321 50.5369C29.2733 50.2261 29.0843 49.865 29.3195 49.5962C29.5714 49.3107 29.8737 49.5123 30.2097 49.6088C30.7807 49.7684 31.3392 49.9784 31.8893 50.2009C32.9432 50.6292 33.9593 51.1542 34.9545 51.7084C35.4752 52.0024 35.9916 52.3047 36.5039 52.6113C36.9868 52.901 37.5033 53.3629 38.0323 53.5477C38.7378 53.7955 39.5734 53.1068 40.1948 52.8128C41.253 52.3131 42.3279 51.8596 43.4238 51.4523C45.6871 50.6125 48.0343 49.9658 50.4151 49.5206C50.18 50.5998 50.6461 52.0654 51.2801 52.7792C52.3508 53.9844 54.0682 53.6989 54.7107 52.2249C54.9122 51.7588 55.055 51.1457 55.076 50.5243C55.0802 50.5537 55.0844 50.5789 55.0886 50.6083C55.3027 51.91 56.8941 52.2753 57.8053 51.4103C57.9901 51.2339 58.1496 51.024 58.2798 50.793C58.4435 51.0534 58.6703 51.2717 58.9516 51.4439C60.1945 52.1956 61.6306 51.2969 62.1302 50.0959C62.273 49.7474 62.336 49.3653 62.2814 49.0041C64.4481 49.2225 66.5938 49.613 68.689 50.1883C69.8731 50.5159 71.0279 51.024 72.2204 51.3053C73.2407 51.5447 74.0385 51.2045 74.9539 50.7846C77.0492 49.823 79.1781 48.8866 81.244 47.8494C81.3153 49.697 81.1558 51.5699 80.8996 53.3839C80.8702 53.5939 80.9122 53.7829 81.0004 53.9382C80.8492 54.8831 80.7191 55.8447 80.7401 56.7895C80.7443 56.9575 80.8283 57.0751 80.9374 57.138C80.9374 57.2178 80.9332 57.2976 80.9332 57.3816C80.9332 57.4572 80.95 57.5244 80.9794 57.579C80.9164 58.486 80.8325 59.393 81.1432 60.2581C81.3867 60.9257 81.836 61.4045 82.3399 61.8916C83.0159 62.5466 83.5534 63.2815 83.9733 64.1256C84.5527 65.2971 84.9097 66.5779 85.2162 67.8587C82.9194 67.9007 77.868 69.0428 78.6574 72.0243C79.0563 73.5192 80.8324 74.3381 82.1803 74.7286C83.3602 75.0729 85.4471 75.4929 86.6018 74.7034C86.6186 74.8462 86.6396 74.9848 86.6522 75.1275C86.711 75.6944 86.7488 76.2571 86.7614 76.8156C85.867 76.5594 84.8383 76.6602 83.9271 76.7022C83.1335 76.74 82.2685 76.7694 81.5421 77.1347C80.2698 77.7688 79.346 80.0406 80.2572 81.2542C81.1894 82.493 83.7801 84.0845 85.3631 83.4168C85.4009 83.4 85.4303 83.3832 85.4639 83.3664C85.044 84.2356 84.5149 85.0671 83.8599 85.8481C83.8515 85.8607 83.8431 85.8691 83.8347 85.8775C83.7969 85.8565 83.7549 85.8397 83.713 85.8271C83.5072 85.7306 83.2805 85.655 83.0411 85.613C82.9613 85.5836 82.8816 85.5584 82.8018 85.529C82.8648 85.361 82.8102 85.1511 82.638 85.0503C81.9536 84.6598 80.8283 84.8781 80.2404 85.3862C79.577 85.9615 79.6526 87.0281 79.9171 87.7798C80.0305 88.1073 80.2782 88.2711 80.5343 88.3047C80.6393 88.4307 80.7737 88.5314 80.929 88.607C79.1991 89.9214 77.2507 90.967 75.2604 91.7691C68.5715 94.4608 61.1435 94.6371 54.043 94.1668ZM33.8418 74.2037C33.888 74.1365 33.9383 74.0651 33.9845 73.9937C34.0559 74.0231 34.1273 74.0525 34.1987 74.0777C34.0811 74.1239 33.9593 74.1659 33.8418 74.2037ZM62.4074 105.085C61.66 102.007 60.9083 98.9329 60.2029 95.8423C64.6286 95.8171 69.0417 95.3132 73.2239 94.0198C74.3157 93.6839 75.4116 93.2808 76.4865 92.8105C76.8098 93.8729 77.15 94.9311 77.4859 95.9893C72.1154 98.4668 67.1228 101.532 62.4074 105.085Z"
    fill="#251C1C"
  />
  <path
    d="M60.2745 74.1196C60.4592 73.3554 60.7154 72.0998 59.8714 71.6253C59.0442 71.1634 58.1918 72.0116 57.7551 72.6457C57.5787 72.8976 57.4402 73.1664 57.3352 73.4436C57.0455 73.0992 56.7054 72.8053 56.3107 72.6037C55.7522 72.314 54.7864 72.146 54.5135 72.9018C54.2322 73.6787 55.0594 75.056 55.4583 75.6859C56.0209 76.572 56.7389 77.647 57.5829 78.344C57.5829 78.407 57.5829 78.4658 57.5871 78.5288C57.5997 78.6758 57.7509 78.7304 57.8643 78.6422C57.8853 78.6254 57.9021 78.6086 57.9189 78.5918C57.9315 78.6002 57.9483 78.6128 57.9609 78.6212C58.0406 78.6716 58.1078 78.575 58.0784 78.5036C58.07 78.4868 58.0616 78.4742 58.0574 78.4574C58.2674 78.2307 58.4269 77.9535 58.5277 77.6554C59.2205 76.5384 59.9596 75.413 60.2745 74.1196Z"
    fill="#251C1C"
  />
  <path
    d="M52.5191 69.8573C52.4813 68.1062 52.242 66.3551 52.0236 64.6209C51.8431 63.1931 51.5407 61.694 50.4742 60.64C48.2361 58.4396 45.4606 60.5938 44.4235 62.8446C43.0756 65.7673 43.231 69.1938 44.3647 72.1459C44.3563 72.1501 44.3437 72.1501 44.3353 72.1543C44.0288 72.2299 44.117 72.696 44.4277 72.6372C44.5075 72.6204 44.5872 72.6078 44.6628 72.5952C44.8728 72.7086 45.1457 72.6456 45.3305 72.4776C45.9393 72.3726 46.5523 72.2844 47.1654 72.2047C47.3544 72.276 47.5433 72.3348 47.7281 72.3684C47.8498 72.4188 47.9674 72.4314 48.0766 72.4146C48.6224 72.4482 49.1515 72.3054 49.6596 71.9611C49.6722 71.9527 49.6806 71.9443 49.6932 71.9317C49.8695 71.9149 50.0501 71.8981 50.2264 71.8855C50.7597 71.8477 51.6037 71.9905 52.0992 71.684C52.6786 71.3312 52.5317 70.4242 52.5191 69.8573ZM51.2972 70.7139C51.125 70.8525 50.6338 70.8189 50.3986 70.8609C50.2768 70.8819 50.1593 70.9029 50.0375 70.9239C50.0753 70.8525 50.1005 70.7727 50.1131 70.6845C50.323 68.9797 49.9871 67.3377 49.4622 65.7168C49.1851 64.8518 48.8492 62.7648 47.5349 63.0713C46.3844 63.3401 46.1912 65.5279 46.0989 66.4559C45.9519 67.9214 45.9435 69.9707 46.5943 71.306C46.5692 71.411 46.5691 71.516 46.5901 71.621C46.2416 71.7007 45.8889 71.7805 45.5404 71.8645C45.532 71.8351 45.5278 71.8057 45.5194 71.7721C44.646 69.3408 44.5075 66.5189 45.3011 64.0456C45.6118 63.0839 46.1283 62.0425 46.989 61.463C48.2865 60.5938 49.5 61.3287 50.0291 62.6472C50.449 63.6886 50.6044 64.8728 50.8101 65.973C51.0704 67.3461 51.0536 68.7697 51.3014 70.1302C51.3056 70.252 51.3056 70.3738 51.3098 70.4956C51.5449 70.6509 51.5407 70.7223 51.2972 70.7139Z"
    fill="#251C1C"
  />
  <path
    d="M69.3568 63.4118C69.1427 62.1058 69.0629 60.6025 68.2945 59.4687C66.6191 56.987 63.6168 59.6199 62.7686 61.4465C62.1682 62.7357 61.9247 64.1634 61.8533 65.5744C61.7777 67.0735 61.8155 68.8078 62.4915 70.1809C62.1556 70.3027 62.2018 70.857 62.6049 70.8234C63.6294 70.731 64.6582 70.689 65.6869 70.731C66.6191 70.7688 67.5555 70.9662 68.4876 70.9788C69.7263 70.9956 69.8481 70.1054 69.8943 69.0387C69.9783 67.1155 69.6676 65.2972 69.3568 63.4118ZM68.7018 69.4922C68.6514 69.9038 68.811 69.8954 68.3197 69.9122C68.1517 69.9164 67.9796 69.9122 67.8074 69.9038C67.8074 69.8954 67.8116 69.887 67.8158 69.8786C68.0468 68.7574 68.1895 62.5089 65.8885 63.332C65.0067 63.6469 64.5238 64.8815 64.3139 65.7087C63.9612 67.0987 64.1753 68.5516 64.0787 69.9626C63.8646 69.9836 63.6504 70.0088 63.4363 70.0382C63.3859 68.875 63.0752 67.7496 63.0542 66.5738C63.0332 65.3938 63.1508 64.1802 63.4825 63.0422C63.768 62.0554 64.2509 61.0308 65.0613 60.3631C65.5358 59.9726 66.2832 59.5653 66.913 59.8046C67.4715 60.0146 67.7276 60.6025 67.8956 61.1316C68.6514 63.521 68.5548 66.0867 68.6724 68.5558C68.6808 68.8498 68.7396 69.1983 68.7018 69.4922Z"
    fill="#251C1C"
  />
  <path
    d="M36.4452 55.2023C34.7362 54.3708 33.0147 53.5142 31.2259 52.8675C30.9614 52.7709 30.6632 53.0733 30.7598 53.3336C31.1251 54.3456 31.4526 55.3577 31.8557 56.3529C32.2336 57.2767 32.7249 58.0787 33.2078 58.9438C33.275 59.0656 33.4555 58.9816 33.4261 58.8514C33.4219 58.8346 33.4177 58.8178 33.4136 58.801C33.7159 58.9144 34.0854 58.8514 34.3751 58.6205C35.1813 57.9822 35.8741 57.1717 36.6006 56.4411C36.9407 56.1051 36.9071 55.429 36.4452 55.2023Z"
    fill="#251C1C"
  />
  <path
    d="M79.4556 52.1491C79.6151 51.8972 79.5354 51.5906 79.3548 51.3765C78.7544 50.671 77.5073 51.3219 76.8396 51.5738C76.0796 51.8636 75.1012 52.0987 74.6688 52.8252C74.6184 52.8 74.5722 52.7748 74.5218 52.7538C74.3622 52.6824 74.1943 52.8294 74.2782 52.9974C74.3538 53.1528 74.442 53.2955 74.5344 53.4383C74.5806 53.6357 74.7107 53.8162 74.8829 53.938C75.2146 54.3789 75.5841 54.7905 75.9326 55.2272C76.6087 56.0712 77.2595 56.9404 77.9062 57.8097C78.41 58.4858 79.3506 58.0785 79.2331 57.2512C79.1113 56.3988 79.0483 55.5631 79.0693 54.7023C79.0903 53.9716 79.0483 52.7958 79.4556 52.1491Z"
    fill="#251C1C"
  />
  <path
    d="M61.2989 109.687C60.1652 109.687 60.161 111.45 61.2989 111.45C62.4368 111.45 62.4368 109.687 61.2989 109.687Z"
    fill="#251C1C"
  />
  <path
    d="M61.7437 113.873C60.421 113.873 60.421 115.926 61.7437 115.926C63.0622 115.926 63.0664 113.873 61.7437 113.873Z"
    fill="#251C1C"
  />
  <path
    d="M61.8323 118.661C60.644 118.661 60.6398 120.509 61.8323 120.509C63.0206 120.509 63.0248 118.661 61.8323 118.661Z"
    fill="#251C1C"
  />
  <path
    d="M62.9996 123.985C62.8065 123.804 62.5671 123.691 62.2942 123.691C62.038 123.691 61.7693 123.8 61.5887 123.985C61.4166 124.157 61.2864 124.443 61.2948 124.69C61.3074 124.946 61.3914 125.215 61.5887 125.396C61.7819 125.576 62.0212 125.69 62.2942 125.69C62.5503 125.69 62.819 125.581 62.9996 125.396C63.1718 125.224 63.3019 124.938 63.2935 124.69C63.2809 124.43 63.197 124.165 62.9996 123.985Z"
    fill="#251C1C"
  />
  <path
    d="M62.9784 128.252C62.7349 128.029 62.4368 127.887 62.0967 127.887C61.7775 127.887 61.4416 128.025 61.2149 128.252C61.0007 128.466 60.837 128.823 60.8496 129.134C60.8622 129.457 60.9713 129.789 61.2149 130.016C61.4584 130.238 61.7607 130.381 62.0967 130.381C62.4158 130.381 62.7517 130.242 62.9784 130.016C63.1926 129.802 63.3563 129.445 63.3438 129.134C63.327 128.811 63.222 128.475 62.9784 128.252Z"
    fill="#251C1C"
  />
  <path
    d="M62.0967 133.039C60.4549 133.039 60.4507 135.588 62.0967 135.588C63.7385 135.592 63.7385 133.039 62.0967 133.039Z"
    fill="#251C1C"
  />
  <path
    d="M62.3613 142.286C61.3115 142.286 61.3115 143.915 62.3613 143.915C63.411 143.915 63.411 142.286 62.3613 142.286Z"
    fill="#251C1C"
  />
  <path
    d="M61.6979 147.001H62.4915C62.924 146.669 62.7938 145.787 62.0926 145.787C61.3998 145.791 61.2654 146.669 61.6979 147.001Z"
    fill="#251C1C"
  />
  <path
    d="M52.4014 123.709C51.8345 123.389 51.0073 123.515 50.3859 123.528C50.2809 123.528 50.1717 123.532 50.0667 123.536C50.1171 123.436 50.1339 123.318 50.0919 123.188C49.6804 121.941 49.0296 120.723 48.4417 119.547C48.1646 118.989 47.7279 118.233 46.9805 118.556C46.2919 118.85 45.9266 119.934 45.6914 120.576C45.3009 121.651 45.112 122.789 44.5283 123.784C44.5073 123.822 44.4947 123.856 44.4863 123.893C43.5499 124.003 42.6136 124.129 41.6772 124.246C41.4589 124.275 41.4421 124.616 41.6772 124.603C41.8032 124.599 41.9291 124.595 42.0551 124.59C42.0299 125.443 41.7528 126.74 42.1811 127.505L42.1853 127.509C42.1601 128.773 42.2986 130.062 42.4246 131.301C42.5464 132.502 42.8109 133.791 43.5457 134.778C44.881 136.579 47.371 136.882 49.4453 137.024C50.3775 137.087 51.5406 137.108 52.1327 136.235C52.4812 135.723 52.4896 135.004 52.5651 134.412C52.6659 133.602 52.7457 132.787 52.8087 131.973C52.9388 130.28 52.9976 128.575 52.9934 126.879C52.985 126.022 53.3168 124.225 52.4014 123.709ZM46.8293 120.269C46.8923 120.139 46.9637 120.013 47.0435 119.892C47.1905 119.459 47.3122 119.396 47.4046 119.703C47.6229 119.816 47.8707 120.689 47.9799 120.929C48.3788 121.798 48.7021 122.713 49.1472 123.557C48.5887 123.574 48.0344 123.595 47.476 123.625C46.7664 123.662 46.0525 123.721 45.3429 123.797C46.0147 122.684 46.2331 121.42 46.8293 120.269ZM51.8471 128.764C51.7799 130.406 51.6246 132.052 51.3978 133.682C51.2971 134.417 51.339 135.45 50.579 135.794C50.1171 136.004 49.3739 135.92 48.8784 135.92C47.5894 135.924 46.1911 135.844 45.0742 135.13C43.8019 134.316 43.5121 132.884 43.2476 131.507C43.0167 130.306 42.7983 129.142 42.6765 127.95C43.1636 128.189 43.8229 128.202 44.2974 128.269C46.8083 128.613 49.3109 128.575 51.7883 128.038C51.8177 128.034 51.8429 128.021 51.8681 128.013C51.8597 128.261 51.8555 128.513 51.8471 128.764ZM51.8849 126.308C51.8849 126.539 51.8849 126.77 51.8807 127.001C51.8135 126.971 51.7337 126.955 51.6414 126.967C49.8106 127.186 47.9757 127.32 46.1323 127.303C45.2757 127.295 44.4149 127.249 43.5625 127.152C42.8151 127.068 42.7647 126.858 42.5464 126.174C42.5002 126.022 42.454 125.871 42.412 125.716C42.4246 125.703 42.4372 125.682 42.4246 125.657L42.3658 125.539C42.3322 125.405 42.2986 125.271 42.2692 125.132C42.2734 125.132 42.2777 125.132 42.2819 125.128C42.349 125.086 42.3742 124.998 42.328 124.931C42.3028 124.893 42.2608 124.88 42.2231 124.88C42.2063 124.779 42.1895 124.679 42.1769 124.578C43.6885 124.523 45.1875 124.544 46.6992 124.569C48.236 124.599 49.8232 124.502 51.3516 124.691C51.9269 124.763 51.7841 124.67 51.8639 125.166C51.9269 125.535 51.8849 125.938 51.8849 126.308Z"
    fill="#251C1C"
  />
  <path
    d="M63.562 101.486C63.1757 101.259 62.7013 101.343 62.3821 101.637C62.3695 101.65 62.3569 101.662 62.3443 101.671C61.9874 101.998 61.9874 102.649 62.3443 102.981C62.3569 102.993 62.3695 103.006 62.3821 103.014C62.6719 103.283 63.0792 103.371 63.4487 103.216C63.7888 103.073 64.0659 102.712 64.0491 102.326C64.0281 101.99 63.8602 101.662 63.562 101.486Z"
    fill="#251C1C"
  />
  <path
    d="M55.1306 102.124C53.9171 102.124 53.9171 104.005 55.1306 104.005C56.3441 104.005 56.3441 102.124 55.1306 102.124Z"
    fill="#251C1C"
  />
  <path
    d="M93.5677 109.737C92.8371 110.589 92.3878 111.61 91.569 112.42C90.725 113.256 89.7257 113.936 88.6507 114.436C88.3484 114.579 88.5625 115.087 88.8775 114.978C90.0658 114.566 91.1323 113.974 92.0603 113.117C92.8875 112.353 93.9372 111.211 94.1514 110.073C94.206 109.766 93.8113 109.451 93.5677 109.737Z"
    fill="#251C1C"
  />
  <path
    d="M70.5701 44.8976C69.365 44.78 68.1221 44.9774 66.9128 45.053C66.0898 45.1034 65.2626 45.1538 64.4396 45.2042C64.6789 44.9396 64.8217 44.5869 64.7923 44.167C64.6579 42.1681 64.0491 40.1189 63.6628 38.1537C63.2765 36.1884 63.0665 34.0636 62.4661 32.153C61.79 29.9946 59.51 30.5027 57.7296 30.6581C55.8275 30.8218 53.9338 31.0654 52.0526 31.3929C50.1757 31.7205 48.3071 32.1194 46.4596 32.5897C45.6114 32.8081 44.843 33.081 44.3643 33.8621C43.8856 34.6431 43.9402 35.5124 44.1502 36.3732C44.9816 39.7662 46.3126 43.0752 47.8663 46.2078C45.5862 46.3506 43.3062 46.5143 41.0303 46.7327C40.1905 46.8125 40.3669 47.9757 41.1605 47.9967C46.0481 48.1268 50.9483 47.9757 55.8359 47.8791C58.2461 47.8287 60.6563 47.7657 63.0665 47.6943C64.2381 47.6607 65.4096 47.6229 66.5811 47.5851C67.8534 47.5431 69.2348 47.6607 70.4819 47.413C71.792 47.161 72.1069 45.0446 70.5701 44.8976ZM55.8191 45.7333C53.7406 45.8635 51.6579 45.981 49.5752 46.1028C49.3065 45.4058 49.0504 44.7045 48.8068 43.9948C48.8152 43.9948 48.8278 43.9948 48.8362 43.9948C49.9112 43.8646 50.9651 43.5371 52.0358 43.3733C53.1108 43.2054 54.1941 43.0668 55.2732 42.9282C56.2978 42.798 57.3265 42.7014 58.3553 42.6259C59.3714 42.5545 60.4716 42.4159 61.4877 42.5839C61.6305 43.3439 61.7943 44.0956 62.0294 44.8178C62.0966 45.0278 62.1973 45.1958 62.3191 45.3302C60.1524 45.4645 57.9858 45.5947 55.8191 45.7333Z"
    fill="#251C1C"
  />
  <path
    d="M66.5684 79.6961C66.4887 78.8856 65.6656 78.1675 64.8385 78.4825C64.2128 78.7218 64.1708 79.3853 64.7167 79.7381C64.7881 79.7843 64.9014 79.7255 64.8972 79.6373C64.8595 79.1418 65.5775 79.759 65.6447 79.8808C65.4137 80.3763 65.1156 80.5317 64.7461 80.347C64.6075 80.3386 64.4899 80.2881 64.3976 80.1958C63.9945 79.9606 63.6795 79.6541 63.226 79.4903C62.2477 79.1334 61.093 79.1586 60.1398 79.5533C59.5982 79.7759 59.2244 80.2084 59.3084 80.8299C59.3798 81.3464 59.8753 81.9049 60.4505 81.8377C61.2903 81.7369 62.0755 81.7243 62.9111 81.8335C63.583 81.9175 64.217 81.9637 64.8846 81.7957C65.7958 81.5605 66.665 80.6955 66.5684 79.6961Z"
    fill="#251C1C"
  />
  <path
    d="M57.3143 80.1838C56.4787 80.44 55.7439 80.8851 54.9293 81.1749C54.4926 81.3302 53.909 81.578 53.4345 81.5276C52.5947 81.4394 53.0356 80.5996 53.6192 80.3182C53.6654 80.2972 53.6444 80.2174 53.594 80.2216C52.6703 80.3224 51.7171 81.4562 52.4687 82.2793C52.9516 82.8084 53.8124 83.0897 54.4968 83.1695C54.9461 83.2199 55.3828 83.1821 55.8195 83.0561C56.2142 82.9427 56.9028 82.4724 57.3143 82.5312C59.4642 82.842 59.0947 79.6379 57.3143 80.1838Z"
    fill="#251C1C"
  />
  <path
    d="M60.8752 83.4542C59.8548 83.3702 58.6203 83.5802 57.6462 83.8825C57.4026 83.9581 57.4068 84.2982 57.6462 84.3738C58.6203 84.6804 59.8548 84.8945 60.8752 84.8147C61.7486 84.7433 61.7486 83.5256 60.8752 83.4542Z"
    fill="#251C1C"
  />
  <path
    d="M109.008 62.2943L108.189 59.4346C107.895 58.4856 107.567 57.5492 107.261 56.6043C107.114 56.1298 106.925 55.6679 106.757 55.2018L106.236 53.8035C106.148 53.5725 106.068 53.3374 105.972 53.1064L105.682 52.4177L105.103 51.0404C103.52 47.3912 101.651 43.8513 99.4719 40.5003C97.2884 37.1535 94.8068 33.9831 91.9935 31.1151C89.1844 28.2428 86.0729 25.6393 82.6466 23.4977C79.2286 21.3477 75.5209 19.6302 71.6327 18.4586C67.7486 17.2786 63.6882 16.6655 59.6236 16.6445C55.559 16.6487 51.4944 17.2534 47.602 18.4166C43.7095 19.5798 39.9892 21.2889 36.5587 23.4305C36.3361 23.5523 36.1346 23.7034 35.9204 23.842L35.2906 24.2661L34.0351 25.1144L32.8258 26.0256L32.2211 26.4833C32.0196 26.6345 31.8138 26.7815 31.6249 26.9494L30.466 27.9236C30.0839 28.2512 29.685 28.5619 29.3239 28.9147L28.2195 29.9477L27.6653 30.4642C27.4805 30.6363 27.3125 30.8253 27.1362 31.0017C24.2935 33.8572 21.7615 37.0024 19.5277 40.3365C15.0642 47.0133 11.8015 54.4375 9.69367 62.1431L8.96724 65.049L8.87906 65.4143L8.80349 65.7797L8.65232 66.5145L8.3458 67.98C8.29541 68.2236 8.24502 68.4672 8.19463 68.7149L8.07287 69.454L7.82932 70.9321C7.64877 71.9147 7.54379 72.9057 7.41782 73.8926C6.93494 77.8482 6.72079 81.8333 6.75439 85.8141C6.81317 89.795 7.13229 93.7633 7.69495 97.698C7.84192 98.6806 7.97209 99.6674 8.16944 100.642L8.44237 102.107L8.58094 102.838L8.74469 103.564L9.07221 105.017L9.23598 105.744L9.31576 106.109L9.41233 106.47L10.1807 109.347C12.3894 116.972 15.6688 124.304 20.0903 130.91C22.299 134.214 24.7932 137.33 27.5897 140.169C27.7618 140.345 27.9298 140.534 28.1104 140.706L28.652 141.219L29.7354 142.248C30.0881 142.6 30.4786 142.911 30.8565 143.239L31.9944 144.213C32.1792 144.381 32.3807 144.528 32.5781 144.679L33.1743 145.137L34.3626 146.052L35.5971 146.904L36.2144 147.329C36.4201 147.467 36.6217 147.618 36.84 147.744C40.216 149.894 43.8691 151.633 47.7153 152.834C51.5574 154.031 55.5842 154.686 59.6236 154.728C63.663 154.744 67.715 154.178 71.5907 153.027C75.4705 151.885 79.174 150.184 82.5962 148.051C86.0226 145.922 89.1424 143.335 91.9557 140.475C94.769 137.612 97.2548 134.45 99.4425 131.107C101.626 127.76 103.494 124.224 105.077 120.575L105.657 119.202L105.947 118.513C106.043 118.283 106.123 118.047 106.211 117.816L106.732 116.418C106.9 115.952 107.089 115.49 107.236 115.016C107.542 114.071 107.866 113.134 108.164 112.185L108.987 109.326C111.011 101.649 111.981 93.7339 112.014 85.8183C111.993 77.8902 111.027 69.9705 109.008 62.2943ZM108.453 109.162L107.555 111.975C107.232 112.908 106.887 113.827 106.551 114.751C106.392 115.217 106.186 115.666 106.001 116.12L105.434 117.48C105.338 117.707 105.25 117.938 105.149 118.161L104.838 118.828L104.217 120.164C102.525 123.708 100.551 127.114 98.3003 130.313C96.5032 132.883 94.5171 135.31 92.363 137.574C92.2328 137.12 92.1068 136.671 91.9977 136.226C92.2874 136.079 92.5603 135.903 92.7787 135.672C92.9593 135.483 92.7787 135.071 92.4974 135.189C92.2664 135.285 92.0523 135.403 91.8381 135.533C91.7373 135.058 91.6576 134.584 91.5988 134.105C91.8003 134.067 91.9977 134.017 92.1824 133.937C92.5183 133.799 92.4008 133.299 92.0271 133.383C91.8591 133.421 91.6954 133.463 91.5358 133.505C91.4812 132.854 91.4728 132.195 91.5232 131.519C91.7835 131.556 92.0439 131.565 92.3084 131.519C92.8417 131.426 92.6905 130.616 92.1824 130.603C91.9893 130.599 91.8045 130.611 91.6198 130.628C91.708 129.986 91.8255 129.343 92.0397 128.734C92.1195 128.785 92.1992 128.831 92.2748 128.881C92.6191 129.091 92.8962 128.516 92.4974 128.352L92.237 128.247C92.3588 127.987 92.5057 127.739 92.6821 127.504C92.8753 127.248 93.0936 127.025 93.3288 126.82C93.4127 126.929 93.5009 127.038 93.5891 127.147C93.9796 127.617 94.727 126.878 94.2609 126.475C94.1853 126.408 94.114 126.337 94.0426 126.269C94.4709 125.98 94.9202 125.715 95.3611 125.438C95.5458 125.325 95.4282 125.018 95.2099 125.081C94.6094 125.253 94.0594 125.501 93.5681 125.812C93.4421 125.682 93.3162 125.551 93.1986 125.413C92.9383 125.11 92.4512 125.501 92.6527 125.833C92.7409 125.984 92.8375 126.127 92.9341 126.274C92.3672 126.744 91.8927 127.315 91.5232 127.962C91.4728 127.941 91.4182 127.92 91.3678 127.899C91.1663 127.819 91.0487 128.134 91.2251 128.239L91.3384 128.31C91.0571 128.877 90.8514 129.49 90.7212 130.15C90.6876 130.33 90.654 130.511 90.6246 130.691C90.5364 130.687 90.4483 130.679 90.3601 130.666C90.0326 130.611 89.8898 131.069 90.2215 131.174C90.3265 131.208 90.4357 131.241 90.5448 131.275C90.4525 132.09 90.4231 132.929 90.4651 133.769C90.3055 133.799 90.1459 133.824 89.978 133.836C89.7806 133.853 89.7806 134.126 89.978 134.143C90.1459 134.156 90.3181 134.168 90.4945 134.172C90.549 134.853 90.6414 135.525 90.7926 136.184C90.7002 136.238 90.6036 136.289 90.5112 136.339C90.3055 136.444 90.4483 136.776 90.6666 136.713C90.7464 136.692 90.8262 136.667 90.9059 136.642C91.0739 137.259 91.2838 137.851 91.5484 138.414C91.2754 138.691 91.0025 138.964 90.7254 139.237C90.5532 139.405 90.3853 139.585 90.2047 139.749L89.663 140.24L88.5839 141.219C88.2312 141.555 87.8449 141.849 87.4712 142.159L86.3417 143.083C86.1569 143.243 85.9596 143.381 85.7622 143.524L85.1786 143.957L84.007 144.822L82.7935 145.62L82.1847 146.018C81.9831 146.149 81.7858 146.291 81.5716 146.409C80.7361 146.921 79.8837 147.404 79.0145 147.862C79.0564 147.077 78.8843 146.228 78.8129 145.456C78.7667 144.939 77.9605 144.931 77.9983 145.456C78.0613 146.354 78.0067 147.366 78.2587 148.231C78.2587 148.24 78.2628 148.244 78.267 148.248C76.4951 149.143 74.6685 149.924 72.8 150.579C72.7916 149.26 72.5396 147.9 72.2583 146.661C72.2121 146.455 71.914 146.548 71.9476 146.745C72.1785 148.131 72.1491 149.445 72.1365 150.806C71.767 150.927 71.3975 151.045 71.0238 151.158C67.5135 152.208 63.8688 152.817 60.1947 152.905C60.2661 150.402 60.35 147.866 60.2913 145.368C60.2703 144.461 58.9056 144.461 58.8846 145.368C58.8216 147.866 58.9098 150.398 58.9812 152.897L58.1624 152.876L57.436 152.859C57.1924 152.855 56.9531 152.855 56.7137 152.825L55.2693 152.699L54.5471 152.636C54.3035 152.624 54.0684 152.569 53.829 152.536L52.393 152.317C52.1537 152.275 51.9143 152.254 51.675 152.2L50.9653 152.044L50.6336 151.973C50.5664 150.747 50.3901 149.537 50.4195 148.299C50.4531 146.829 50.6 145.351 50.8814 143.906C50.9317 143.65 50.558 143.541 50.4909 143.797C49.8106 146.266 49.2732 149.126 49.5713 151.734L49.5461 151.729C49.3068 151.683 49.0758 151.612 48.8407 151.549L48.1394 151.351C45.8888 150.717 43.6885 149.89 41.5638 148.895C41.6352 148.824 41.6814 148.719 41.6562 148.593C41.2867 146.585 41.6352 144.687 42.0677 142.722C42.0971 142.596 41.9082 142.541 41.8704 142.667C41.2909 144.603 40.7241 146.594 41.0012 148.626C39.7961 148.042 38.6162 147.404 37.4615 146.715C37.2473 146.602 37.0458 146.459 36.84 146.329L36.2228 145.93L34.9925 145.137L33.8083 144.276L33.2163 143.843C33.0189 143.7 32.8174 143.558 32.6326 143.402L31.4947 142.474C31.1168 142.164 30.7263 141.865 30.3694 141.529L30.1133 141.298C30.3526 140.942 30.5542 140.551 30.7305 140.144C30.7725 140.148 30.8103 140.156 30.8523 140.156C31.0832 140.169 31.1 139.841 30.9027 139.774C30.8943 139.77 30.8901 139.77 30.8817 139.766C31.0118 139.421 31.1168 139.064 31.2092 138.699C31.3603 138.75 31.5073 138.796 31.6585 138.838C31.923 138.913 32.028 138.519 31.7718 138.43C31.6165 138.376 31.4611 138.33 31.3016 138.283C31.4401 137.591 31.5115 136.873 31.5199 136.163C31.6123 136.142 31.7047 136.121 31.7971 136.091C32.1834 135.982 32.0154 135.445 31.6333 135.504C31.5913 135.512 31.5493 135.52 31.5073 135.525C31.4695 134.672 31.331 133.841 31.1042 133.081C31.2974 132.929 31.4779 132.766 31.6375 132.577C31.8264 132.358 31.5451 132.094 31.3268 132.266C31.1966 132.367 31.0664 132.476 30.9405 132.585C30.9405 132.581 30.9363 132.577 30.9363 132.577C30.7389 132.043 30.466 131.54 30.1343 131.078C30.2392 130.943 30.3316 130.8 30.403 130.641C30.5038 130.422 30.2266 130.15 30.0419 130.364C29.9579 130.46 29.8781 130.561 29.7983 130.658C29.538 130.351 29.2483 130.07 28.9333 129.822C29.1559 129.507 29.3574 129.175 29.5212 128.827C29.6262 128.604 29.3197 128.411 29.1853 128.629C28.9879 128.949 28.7864 129.259 28.5722 129.557C28.039 129.196 27.4511 128.928 26.8297 128.768C26.9346 128.487 27.027 128.201 27.09 127.911C27.1278 127.743 26.8843 127.617 26.7961 127.785C26.6491 128.075 26.5315 128.373 26.4308 128.684C25.8849 128.592 25.318 128.587 24.7428 128.684C24.6882 128.692 24.6924 128.768 24.7302 128.793C25.1795 129.108 25.6917 129.293 26.2082 129.465C26.1326 129.763 26.0571 130.061 25.9815 130.355C25.9647 130.427 26.0738 130.481 26.1074 130.406C26.2334 130.124 26.372 129.843 26.5021 129.557C27.0438 129.73 27.5813 129.91 28.06 130.225C27.9256 130.385 27.7828 130.544 27.6317 130.695C27.4385 130.889 27.7366 131.187 27.9298 130.994C28.0935 130.83 28.2531 130.662 28.4085 130.485C28.7192 130.742 28.9879 131.036 29.2231 131.355C29.0887 131.506 28.9543 131.657 28.8032 131.791C28.694 131.892 28.8326 132.056 28.9585 131.993C29.0047 131.968 29.0467 131.943 29.0929 131.922C29.1139 131.938 29.1475 131.943 29.1727 131.917C29.2021 131.888 29.2315 131.854 29.2651 131.821C29.3323 131.779 29.3994 131.737 29.4624 131.691C29.7605 132.174 29.9915 132.707 30.1553 133.261C29.9579 133.429 29.7605 133.597 29.5506 133.752C29.4834 133.803 29.517 133.946 29.6178 133.908C29.8319 133.82 30.0461 133.727 30.2518 133.618C30.4156 134.303 30.4912 135.012 30.487 135.722C30.0713 135.814 29.6598 135.915 29.2525 136.02C29.1601 136.041 29.1517 136.201 29.2525 136.217C29.6472 136.276 30.0587 136.301 30.4702 136.289C30.4576 136.52 30.4408 136.751 30.4114 136.982C30.3694 137.33 30.3022 137.662 30.2224 137.985C29.9495 137.914 29.6724 137.847 29.3994 137.771C29.2399 137.729 29.1811 137.96 29.3322 138.015C29.5968 138.111 29.8655 138.212 30.1343 138.313C30.0335 138.657 29.9201 138.997 29.7899 139.333C29.7018 139.287 29.6136 139.237 29.5254 139.178C29.3658 139.073 29.1727 139.321 29.3196 139.442C29.4246 139.531 29.5338 139.615 29.6514 139.694C29.538 139.98 29.4204 140.27 29.3029 140.564L29.2777 140.538L28.7318 140.047C28.5512 139.883 28.3833 139.703 28.2069 139.531C25.402 136.789 22.8826 133.752 20.6572 130.511C18.4401 127.265 16.5128 123.813 14.892 120.231C13.2712 116.645 11.9191 112.937 10.8736 109.141L10.1471 106.281L10.059 105.924L9.9834 105.563L9.83223 104.841L9.52571 103.396C9.47532 103.157 9.42073 102.913 9.37454 102.674L9.25278 101.948L9.00923 100.495C8.82868 99.5288 8.71951 98.5504 8.59354 97.5762C8.10226 93.6751 7.89651 89.7404 7.9259 85.8141C7.98889 81.8879 8.29961 77.9658 8.87067 74.0899C9.01763 73.1199 9.1478 72.1499 9.34935 71.1925L9.62228 69.7479L9.76085 69.0257L9.9246 68.3118L10.2521 66.8799L10.4159 66.166L10.4957 65.8091L10.5923 65.4563L11.3607 62.626C13.5651 55.1262 16.8193 47.9245 21.2156 41.4955C23.4117 38.2831 25.8975 35.2723 28.6562 32.5512C28.8284 32.379 28.9921 32.2027 29.1685 32.0389L29.706 31.5476L30.7767 30.565C31.1252 30.229 31.5115 29.9351 31.881 29.6243L32.9979 28.7005C33.1827 28.5409 33.3801 28.4024 33.5732 28.2596L34.1569 27.8271L35.32 26.962L36.5293 26.1642L37.1339 25.7652C37.3355 25.6351 37.5328 25.4923 37.7428 25.3789C41.0348 23.3675 44.5661 21.7592 48.2528 20.6716C51.9353 19.5756 55.769 19.0045 59.611 18.9877C63.4531 18.9835 67.2909 19.5546 70.9818 20.6296C74.6769 21.7088 78.2167 23.3087 81.5254 25.3117C81.7396 25.4251 81.9369 25.5679 82.1385 25.6981L82.7474 26.0928L83.9609 26.8864L85.1324 27.7431L85.7202 28.1714C85.9134 28.3142 86.1149 28.4527 86.2997 28.6123L87.4292 29.5277C87.8029 29.8385 88.1934 30.1282 88.5461 30.4642L89.6295 31.4384L90.1711 31.9255C90.3517 32.0893 90.5196 32.2656 90.6918 32.4378C93.4799 35.1505 96.0161 38.1362 98.2626 41.336C100.513 44.5316 102.491 47.933 104.183 51.4771L104.805 52.8125L105.115 53.4801C105.22 53.7027 105.304 53.9336 105.401 54.1604L105.968 55.521C106.152 55.9745 106.354 56.4238 106.518 56.8899C106.854 57.8137 107.202 58.7334 107.521 59.6656L108.42 62.4791C110.666 70.0335 111.75 77.9322 111.783 85.831C111.775 93.7003 110.696 101.603 108.453 109.162Z"
    fill="#251C1C"
  />
  <path
    d="M118.489 79.1125C118.355 76.8827 118.149 74.6613 117.863 72.4441C117.296 68.014 116.444 63.6174 115.302 59.2922C114.727 57.1296 114.067 54.988 113.337 52.8716C112.61 50.7552 111.8 48.6597 110.91 46.6021C109.125 42.4827 107.022 38.4934 104.565 34.7141C102.105 30.939 99.3039 27.3655 96.1295 24.1321C94.5465 22.5154 92.8753 20.9743 91.1201 19.5339C89.3607 18.0978 87.5174 16.7582 85.5859 15.5447C81.7312 13.1175 77.5574 11.1691 73.1737 9.84631C68.7942 8.51936 64.2131 7.83908 59.6278 7.82229C55.0425 7.81809 50.4573 8.49417 46.0651 9.79593C41.673 11.1061 37.4866 13.0461 33.6194 15.4649C29.7437 17.8794 26.1998 20.7811 22.9876 23.9935C19.7796 27.2143 16.9201 30.7585 14.4049 34.521C9.37034 42.0502 5.69623 50.4276 3.32381 59.1158C0.951395 67.8124 -0.094146 76.8323 0.00662928 85.8019C0.0654149 90.2908 0.413938 94.7672 1.05218 99.2058C1.3755 101.423 1.7744 103.628 2.24469 105.82C2.71077 108.012 3.25244 110.187 3.86969 112.337C6.35128 120.937 10.0464 129.205 15.0347 136.659C17.5247 140.383 20.3422 143.898 23.4957 147.098C26.6407 150.302 30.1301 153.195 33.9343 155.627C37.7386 158.054 41.8578 160.027 46.1911 161.384C50.5245 162.727 55.0677 163.454 59.6236 163.5C64.1795 163.538 68.748 162.887 73.1233 161.602C77.4986 160.313 81.6724 158.381 85.5313 155.975C89.0542 153.775 92.3042 151.163 95.2561 148.265C95.2687 148.261 95.2771 148.253 95.2897 148.249C95.3569 148.207 95.4156 148.165 95.4786 148.118C95.5416 148.118 95.6046 148.106 95.6718 148.081C95.9489 147.971 96.0287 147.682 96.1757 147.446C96.226 147.383 96.2764 147.316 96.3226 147.245L96.3184 147.241C96.3352 147.211 96.3478 147.186 96.3562 147.157C99.4215 144.003 102.142 140.53 104.54 136.869C107.001 133.094 109.108 129.104 110.893 124.989C111.783 122.931 112.594 120.84 113.324 118.72C114.059 116.603 114.718 114.462 115.289 112.299C116.431 107.974 117.288 103.577 117.855 99.1512C118.14 96.9382 118.35 94.7126 118.485 92.487C118.628 90.2614 118.699 88.0275 118.703 85.7977C118.703 83.5721 118.632 81.3423 118.489 79.1125ZM117.523 99.1176C116.893 103.523 115.953 107.886 114.681 112.139C114.046 114.268 113.333 116.372 112.539 118.447C111.741 120.517 110.868 122.558 109.915 124.557C108.008 128.554 105.783 132.396 103.247 136.004C100.719 139.619 97.8594 142.991 94.7144 146.052C93.1398 147.581 91.4938 149.034 89.768 150.382C88.0506 151.738 86.2535 152.994 84.3891 154.132C80.6646 156.416 76.6714 158.251 72.5019 159.502C68.3281 160.75 63.9864 161.413 59.6278 161.459C57.4486 161.472 55.2651 161.346 53.1026 161.052C50.9401 160.762 48.7945 160.309 46.6866 159.721C42.4708 158.537 38.423 156.739 34.6481 154.48C30.8649 152.225 27.3797 149.466 24.2053 146.388C21.0393 143.298 18.1966 139.875 15.6898 136.218C13.1872 132.556 11.0205 128.663 9.19398 124.619C7.37163 120.576 5.8474 116.389 4.67169 112.11C2.30347 103.552 1.24953 94.658 1.3503 85.8019C1.41749 81.3717 1.75341 76.9541 2.40005 72.5785C2.72337 70.3907 3.12227 68.2197 3.59255 66.0613C4.05864 63.9029 4.6003 61.7655 5.21755 59.6449C7.69914 51.1877 11.3649 43.0622 16.3238 35.8143C18.8012 32.1946 21.6019 28.7974 24.7176 25.7278C27.829 22.6581 31.2554 19.9076 34.9673 17.6359C38.6791 15.3641 42.6556 13.5374 46.8168 12.3113C50.9737 11.0851 55.2987 10.4426 59.6278 10.43C63.9612 10.4216 68.2861 11.0515 72.4557 12.2609C76.621 13.4786 80.6143 15.2927 84.3388 17.5561C86.2031 18.6857 88.0003 19.9329 89.7218 21.2808C91.4476 22.6246 93.102 24.0649 94.6766 25.5892C97.8216 28.6462 100.685 32.0098 103.217 35.6211C105.758 39.2283 107.987 43.0622 109.889 47.0598C110.843 49.0587 111.72 51.0953 112.518 53.1655C113.312 55.2357 114.025 57.3395 114.66 59.4685C115.932 63.7265 116.872 68.0853 117.506 72.4903C118.136 76.8953 118.434 81.3465 118.451 85.8019C118.443 90.2572 118.153 94.7126 117.523 99.1176Z"
    fill="#251C1C"
  />
  <path
    d="M73.6396 9.5986C71.0195 7.97769 68.3951 6.37359 65.7372 4.81148C64.4103 4.03042 63.0876 3.24516 61.7649 2.45991C60.669 1.80903 59.4639 0.914591 58.1286 0.948185C57.0243 0.97338 56.0123 1.9812 55.1809 2.61528C54.1228 3.42573 53.0899 4.26138 52.0821 5.13482C49.9028 7.02447 47.7824 9.0401 45.9684 11.2867C45.8886 11.3875 46.0146 11.5218 46.1112 11.4295C47.9923 9.62799 49.8482 7.81392 51.8554 6.15522C52.8799 5.31118 53.9339 4.49653 55.0088 3.71968C56.0501 2.96802 57.2174 1.82582 58.6031 2.21635C59.8208 2.56068 60.9797 3.61049 62.0211 4.30336C63.1968 5.08862 64.3725 5.87387 65.544 6.66333C67.8912 8.24224 70.2637 9.77077 72.6445 11.2951C73.7152 11.9838 74.7188 10.2663 73.6396 9.5986Z"
    fill="#251C1C"
  />
  <path
    d="M58.5948 3.58942C58.2799 3.27448 57.818 3.1569 57.3897 3.27028C57.3771 3.27448 57.3645 3.27448 57.3519 3.27867C57.2554 3.32067 57.1546 3.36267 57.058 3.40466C56.9152 3.48024 56.7977 3.58942 56.7137 3.7196C56.5541 3.92536 56.4366 4.1941 56.4492 4.46285C56.4576 4.68121 56.5163 4.89118 56.6171 5.08434C56.7557 5.34889 57.0664 5.57565 57.3519 5.65123C57.3645 5.65543 57.3771 5.65543 57.3897 5.65963C57.8054 5.76881 58.2967 5.66382 58.5948 5.34048C58.8174 5.09693 58.956 4.79879 58.956 4.46285C58.9602 4.15211 58.8216 3.81618 58.5948 3.58942Z"
    fill="#251C1C"
  />
  <path
    d="M105.493 76.4796C102.201 79.7886 98.8969 83.085 95.6511 86.4443C95.4076 86.6963 95.7813 87.07 96.0332 86.8265C99.3882 83.5805 102.689 80.2757 105.997 76.9835C106.321 76.6602 105.817 76.1562 105.493 76.4796Z"
    fill="#251C1C"
  />
  <path
    d="M95.1512 59.8003C94.1014 60.8627 93.0517 61.9251 92.0019 62.9875C91.6492 63.3444 92.1951 63.8945 92.552 63.5376C93.6143 62.4878 94.6767 61.438 95.739 60.3882C96.1169 60.0102 95.5249 59.4182 95.1512 59.8003Z"
    fill="#251C1C"
  />
  <path
    d="M25.5025 95.5267C22.8907 98.1974 20.279 100.868 17.6714 103.539C17.5034 103.711 17.7638 103.971 17.9359 103.803L25.9476 95.9719C26.2373 95.6863 25.788 95.237 25.5025 95.5267Z"
    fill="#251C1C"
  />
  <path
    d="M21.4342 71.6507C19.1836 73.8931 16.9623 76.1565 14.7537 78.4408C14.4052 78.802 14.9426 79.3437 15.3037 78.9909C17.588 76.7821 19.8512 74.5608 22.0935 72.31C22.5218 71.8817 21.8625 71.2224 21.4342 71.6507Z"
    fill="#251C1C"
  />
  <path
    d="M72.9385 32.833L69.3778 36.4024C68.9705 36.8139 69.6045 37.448 70.0118 37.0364C71.2002 35.8481 72.3927 34.6639 73.581 33.4755C74.0051 33.064 73.3542 32.4131 72.9385 32.833Z"
    fill="#251C1C"
  />
  <path
    d="M35.8321 31.7744C33.2162 34.1679 30.7514 36.7336 28.2404 39.2364C27.9087 39.5681 28.4252 40.0846 28.7569 39.7529C31.2595 37.2417 33.825 34.7768 36.2184 32.1607C36.4536 31.9003 36.0925 31.5392 35.8321 31.7744Z"
    fill="#251C1C"
  />
  <path
    d="M105.536 100.688C104.066 102.132 102.659 103.615 101.269 105.135C101.122 105.294 101.349 105.521 101.509 105.374C103.029 103.984 104.511 102.578 105.955 101.108C106.22 100.835 105.809 100.419 105.536 100.688Z"
    fill="#251C1C"
  />
</svg>
