<svg width="100" height="100" viewBox="0 0 100 100" fill="none" xmlns="http://www.w3.org/2000/svg">
<rect width="100" height="100" rx="20" fill="white"/>
<path d="M54.1628 61.5168C54.1628 60.5 54.202 59.4832 54.202 58.4272C54.202 57.9188 54.4762 57.3322 55.0247 57.0585C55.7691 56.7065 56.4744 56.3545 57.2188 56.0417C57.0229 55.8461 56.827 55.6897 56.6702 55.4941C56.2785 55.1031 55.8867 54.712 55.4557 54.3209C55.0639 53.9298 54.6329 53.4996 54.2411 53.1086C53.771 52.6393 53.34 52.2091 52.9874 51.8571L52.9482 51.818C52.8307 51.7007 52.7523 51.6224 52.674 51.5442C52.4781 51.3487 52.243 51.114 52.0471 50.8794L51.8512 50.6839L51.6553 50.4883L47.0322 46.1473C46.993 45.7171 46.9538 45.3261 46.9538 44.935C46.9146 44.231 46.9146 43.488 46.9538 42.8231C46.993 42.0801 47.0322 41.4153 47.1497 40.7504C47.3456 39.2252 47.8549 37.5045 49.7355 36.605C50.0882 36.4485 50.4408 36.2921 50.7934 36.1357H50.8326C50.3232 35.7837 49.7747 35.4708 49.2654 35.2753C49.187 35.2362 49.0695 35.2362 48.952 35.1971C48.7169 35.158 48.4035 35.1971 48.1292 35.2362C47.9333 35.2753 47.7374 35.3144 47.5415 35.3926C47.424 35.4317 47.3064 35.4708 47.1497 35.5099C46.993 35.5491 46.7971 35.5882 46.6404 35.6664C45.7393 35.901 44.8382 36.1357 43.937 36.4094C41.8997 36.996 39.9408 37.5827 38.0993 38.1693H38.0602L37.7467 38.2866C36.9631 38.5213 36.1796 38.795 35.4352 39.0688C35.3176 39.1079 35.2393 39.147 35.1609 39.1861C35.0825 39.2252 35.0042 39.2643 34.9258 39.3034C34.8475 39.3425 34.7691 39.3816 34.7299 39.4207C34.6908 39.4599 34.6124 39.499 34.5732 39.5381C34.4949 39.6163 34.4165 39.6554 34.3381 39.7336C34.2598 39.8509 34.1814 39.9292 34.1422 40.0856C34.1422 40.0856 34.1422 40.1247 34.1031 40.1247C33.5154 41.337 33.4762 42.6667 33.7113 43.9573C33.8288 44.8177 34.2598 45.3261 34.7691 45.8345C34.7691 45.8345 34.7691 45.8736 34.8083 45.8736C34.8867 45.9518 34.965 46.03 35.0434 46.1082C35.2784 46.3429 35.5135 46.6166 35.7878 46.8904C35.9837 47.0468 36.1404 47.2423 36.2971 47.3988C38.4911 49.6279 40.6852 51.818 42.8792 53.8907C46.5229 57.3713 50.3624 60.8519 54.2803 64.2152V64.1761C54.2803 64.1761 54.3195 64.1761 54.3195 64.2152C54.1628 63.2375 54.1628 62.3772 54.1628 61.5168ZM70.6964 60.4609C70.6964 59.8742 70.6964 59.2876 70.7356 58.6619C70.7356 58.0753 71.049 57.5278 71.5583 57.2931C73.2822 56.4718 75.0061 55.6506 76.73 54.8293C77.6311 54.3991 78.5714 53.9689 79.4725 53.5387C80.1777 53.2259 80.8438 52.913 81.549 52.561C81.8233 52.4437 82.0975 52.3264 82.3326 52.2091C82.8419 51.9744 83.3512 51.7398 83.8606 51.5051C84.4483 51.1923 84.605 50.9967 84.8009 50.2928C84.9576 49.7062 85.1143 49.0804 85.2318 48.4938C85.3494 47.9854 85.4669 47.477 85.5845 46.9686L85.7804 46.2255C85.1535 45.9518 84.5658 45.6389 83.9389 45.3261C81.3139 44.0746 78.5714 42.7058 75.9464 41.2979C74.7318 40.6722 73.4389 39.9292 72.0285 39.147C71.9893 39.147 71.9893 39.1079 71.9501 39.1079C71.5191 38.8732 71.049 38.5995 70.5788 38.3257C69.9912 37.9737 69.4035 37.6218 68.8158 37.3089C68.5807 37.1525 68.3456 37.0352 68.1106 36.8787C67.8363 36.7223 67.5621 36.5268 67.2878 36.3703C66.896 36.0966 66.465 35.8228 66.0732 35.6273C65.9557 35.5491 65.799 35.5099 65.6815 35.4708C65.0938 35.2753 64.3494 35.4708 63.605 35.7055C63.4482 35.7446 63.2523 35.7837 63.0956 35.8619C62.1945 36.0966 61.2542 36.3312 60.3531 36.605C59.3736 36.8787 58.355 37.1916 57.3755 37.4653C56.5135 37.7391 55.6124 38.0129 54.7505 38.2866C54.7113 38.2866 54.6721 38.3257 54.6329 38.3257L54.1628 38.4822C53.3792 38.7168 52.5956 38.9906 51.812 39.2643C51.5378 39.3816 51.3027 39.4599 51.1068 39.5772C50.7542 39.7727 50.5975 39.9292 50.4799 40.242C50.4799 40.2811 50.4799 40.3202 50.4799 40.3202C49.8923 41.5326 49.8531 42.8623 50.0882 44.1528C50.2057 44.8568 50.5191 45.3652 50.9109 45.8345C50.9893 45.9127 51.0676 45.9909 51.1068 46.0691C51.1852 46.1473 51.2635 46.2646 51.3419 46.3429C51.4202 46.4602 51.5378 46.5775 51.6553 46.6557C51.7729 46.7731 51.8904 46.8904 52.0079 47.0077C52.2038 47.2032 52.3997 47.3597 52.5564 47.5552L54.4762 49.4715C56.0042 50.9967 57.5714 52.5219 59.0994 54.008C59.3344 54.2427 59.6087 54.4773 59.8438 54.712C59.9613 54.8293 60.0788 54.9466 60.1964 55.0248C60.6665 55.4941 61.1367 55.9243 61.646 56.3545C61.8811 56.5892 62.1553 56.8238 62.3904 57.0585C65.0154 59.4832 67.7188 61.9079 70.5005 64.2934V64.1761C70.5005 63.5113 70.5005 62.8464 70.5397 62.1816C70.6964 61.6341 70.6964 61.0475 70.6964 60.4609ZM32.4575 33.7892C33.437 34.3758 34.4165 34.9233 35.396 35.4708C35.6311 35.3926 35.9053 35.3144 36.1404 35.2362C36.3755 35.158 36.6105 35.0798 36.8456 35.0406C37.2374 34.9233 37.6684 34.806 38.0602 34.6887H38.0993C38.9221 34.454 39.784 34.1803 40.6068 33.9456C40.646 33.9456 40.646 33.9065 40.6852 33.9065C41.5471 33.6719 42.3699 33.4372 43.2318 33.2026C43.6236 33.0852 44.0546 32.9679 44.4855 32.8506C44.6423 32.8115 44.799 32.7724 44.9557 32.6942H44.9949C45.3083 32.616 45.6217 32.5377 45.9352 32.4595C46.2486 32.3813 46.562 32.3031 46.8755 32.2249C47.0322 32.1858 47.1889 32.1467 47.3848 32.1467C47.5807 32.1467 47.6982 32.1075 47.8549 32.0684C48.0117 32.0293 48.1684 32.0293 48.3251 32.0293C48.5602 31.9902 48.7952 31.9902 49.0303 32.0293C50.4016 32.1075 51.5378 32.7724 52.674 33.4372L55.1031 34.8451C56.5919 34.4149 58.0807 33.9847 59.7262 33.5154C60.1572 33.3981 60.5882 33.2808 61.0583 33.1244C62.3121 32.7724 63.5658 32.3813 64.8587 32.264C65.3288 32.2249 65.799 32.264 66.1908 32.3422C67.2878 32.5377 68.2281 33.1244 69.1684 33.6719L69.4818 33.8674C70.5005 34.454 71.48 35.0406 72.4986 35.5882C73.8307 36.3312 75.0845 37.0743 76.3382 37.7391C76.3774 37.7391 76.3774 37.7782 76.4165 37.7782C79.0415 39.2252 81.549 40.594 84.0173 41.8063C85.3494 42.4712 86.6423 43.136 87.9352 43.7226C88.0919 43.8008 88.2878 43.8791 88.4445 43.9573C89.1498 44.3092 89.3848 45.1305 89.2281 45.7562C89.1498 46.1082 89.0714 46.4993 88.993 46.8513C88.9147 47.125 88.8755 47.4379 88.7971 47.7116C88.6404 48.572 88.4445 49.4324 88.2095 50.2928C88.0527 50.8012 87.9352 51.3487 87.7393 51.8571C87.1516 53.617 85.702 54.2818 84.3307 54.9075L84.2524 54.9466C83.508 55.2986 82.7636 55.6506 82.0192 55.9634C79.6292 57.0585 77.1609 58.1926 74.6927 59.3658C74.4184 59.4832 74.1442 59.6005 73.8699 59.7569C73.8307 60.5 73.7915 61.2821 73.7524 62.0252C73.7132 62.3772 73.7132 62.7291 73.7132 63.0811C73.6348 64.2934 73.5956 65.4667 73.5565 66.679C73.5173 66.9137 73.5173 67.1483 73.5173 67.383C73.4781 67.9305 73.1647 68.3998 72.6945 68.6344C72.1852 68.8691 71.5583 68.7909 71.1274 68.3998C70.5788 67.9305 70.0303 67.5003 69.521 67.031C69.3643 66.9137 69.2468 66.7964 69.09 66.679C68.3065 66.0142 67.5621 65.3494 66.7785 64.6845C64.3885 62.6118 62.0378 60.5 59.8046 58.3881C59.021 58.7401 58.1982 59.1312 57.4147 59.4832C57.3755 60.2262 57.3363 61.0084 57.2971 61.7514C57.2579 62.2989 57.2188 62.8856 57.2188 63.4331V63.4722C57.1796 63.9415 57.1796 64.4108 57.1404 64.9192C57.1012 65.6622 57.062 66.4053 57.062 67.1483C57.0229 67.6958 56.7094 68.1651 56.2393 68.3998C56.1609 68.4389 56.0434 68.478 55.965 68.478C55.9259 68.478 55.8475 68.5171 55.8083 68.5171C55.4165 68.5562 55.0247 68.4389 54.6721 68.1651C54.1236 67.6958 53.5751 67.2265 52.9874 66.7573C49.3438 63.6677 45.7785 60.4609 42.3699 57.2149C40.5676 58.0362 38.7654 58.8965 36.9631 59.7178L36.8848 61.5168C36.7672 63.4722 36.6889 65.4276 36.6105 67.383C36.5714 67.9305 36.2971 68.3998 35.7878 68.6344C35.5919 68.7127 35.396 68.7518 35.2001 68.7518C34.8475 68.7518 34.534 68.6344 34.2206 68.3998C33.7505 68.0087 33.3195 67.6176 32.8493 67.2657L10.1254 46.0691C9.92953 44.2701 9.96871 42.5103 10.2038 40.7504C10.3997 39.3034 10.8698 37.5045 12.7896 36.5659C13.965 35.9792 15.2579 35.6273 16.5508 35.2753C16.9426 35.158 17.3736 35.0406 17.7654 34.9233C19.4109 34.4149 21.1348 33.9065 22.8586 33.4372C23.2896 33.3199 23.7206 33.2026 24.1907 33.0461C25.4445 32.6942 26.6982 32.3031 27.9911 32.1858C29.715 32.0293 31.0863 32.8506 32.3008 33.5937L32.4575 33.7892ZM33.6721 61.8296C33.6721 60.7737 33.7113 59.7178 33.7113 58.701C33.7113 58.6228 33.7113 58.5446 33.7505 58.4664C33.7505 58.4272 33.7896 58.349 33.7896 58.2708C33.7896 58.2317 33.8288 58.1926 33.8288 58.1535C33.8288 58.1144 33.868 58.0362 33.9072 57.9971C34.0247 57.8015 34.1422 57.606 34.3381 57.4495C34.4165 57.4104 34.4949 57.3322 34.5732 57.2931C36.2971 56.4718 38.021 55.6506 39.784 54.8293C39.1964 54.2818 38.6087 53.6952 38.021 53.1086C37.4725 52.561 36.924 52.0135 36.3755 51.4269C36.2971 51.3487 36.2187 51.2314 36.1012 51.1532C35.7486 50.8012 35.2001 50.3319 35.2001 50.3319L34.965 50.1363L30.4986 45.9518C30.4986 45.9127 30.4986 45.9127 30.4986 45.8736V45.8345C30.4594 45.5998 30.4594 45.3261 30.4202 45.0914C30.381 44.8568 30.381 44.6221 30.381 44.3875C30.381 44.3484 30.381 44.2701 30.381 44.1919C30.381 43.9573 30.381 43.6835 30.381 43.4489C30.381 42.4321 30.4594 41.4544 30.5769 40.4376C30.7337 39.3425 31.0079 38.1693 31.8307 37.2307C31.5956 37.1134 31.3605 36.9569 31.1254 36.8005C30.8512 36.6441 30.5769 36.4485 30.3027 36.2921C29.7542 35.9401 29.2057 35.5882 28.6963 35.3926C28.1087 35.1971 27.3251 35.3926 26.6198 35.6273C26.4631 35.6664 26.2672 35.7055 26.1105 35.7837C25.1702 36.0183 24.2691 36.253 23.368 36.5268C21.3698 37.0743 19.4109 37.6609 17.5695 38.2866L17.2169 38.4039C16.4333 38.6386 15.6497 38.9123 14.9053 39.1861C14.7877 39.2252 14.7094 39.2643 14.631 39.3034C14.5527 39.3425 14.4743 39.3816 14.396 39.4207C14.3176 39.4599 14.2392 39.499 14.2001 39.5381C14.1217 39.5772 14.0825 39.6163 14.0433 39.6554C13.965 39.7336 13.8866 39.7727 13.8083 39.8509C13.7299 39.9683 13.6516 40.0465 13.6124 40.2029C13.0247 41.4153 12.9855 42.784 13.1814 44.0746C13.2989 44.935 13.7299 45.4434 14.2392 45.9518C14.2392 45.9518 14.2392 45.9909 14.2784 45.9909C14.5527 46.3429 14.9053 46.6557 15.2579 47.0077C15.4538 47.1641 15.6105 47.3597 15.7672 47.5161C17.9613 49.7453 20.1553 51.9353 22.3493 54.008C25.993 57.4887 29.8325 60.9693 33.7505 64.3326C33.6721 63.5113 33.6721 62.6509 33.6721 61.8296Z" fill="black"/>
<path d="M33.7112 58.7008C33.7112 59.7567 33.672 60.7735 33.672 61.8294C33.672 62.6507 33.6328 63.5111 33.6328 64.3323C29.6757 60.969 25.8754 57.4884 22.2317 54.0078C20.0769 51.9351 17.8436 49.745 15.6496 47.5159C15.4929 47.3594 15.297 47.1639 15.1403 47.0075C14.7877 46.6555 14.4351 46.3426 14.1608 45.9907C14.1608 45.9907 14.1608 45.9516 14.1216 45.9516C13.6123 45.4432 13.2205 44.8956 13.0638 44.0744C12.8679 42.7447 12.8679 41.3759 13.4948 40.2027C13.5339 40.0854 13.6123 39.968 13.6907 39.8507C13.769 39.7725 13.8082 39.6943 13.9257 39.6552C13.9649 39.6161 14.0433 39.577 14.0824 39.5378C14.1608 39.4987 14.2 39.4596 14.2783 39.4205C14.3567 39.3814 14.4351 39.3423 14.5134 39.3032C14.5918 39.2641 14.7093 39.225 14.7877 39.1859C15.5321 38.9121 16.3548 38.6384 17.0992 38.4037L17.4519 38.2864C19.3325 37.6998 21.2914 37.1131 23.2504 36.5265C24.1515 36.2919 25.0526 36.0181 25.9929 35.7835C26.1496 35.7444 26.3063 35.7053 26.5022 35.627C27.325 35.4706 28.1086 35.236 28.6963 35.4706C29.2448 35.6661 29.7933 36.0181 30.3026 36.3701C30.5769 36.5656 30.8511 36.7221 31.1254 36.8785C31.3604 37.0349 31.5955 37.1523 31.8306 37.3087C31.0078 38.2473 30.6944 39.4205 30.5769 40.5155C30.4202 41.4932 30.381 42.5101 30.381 43.5269C30.381 43.7615 30.381 44.0353 30.381 44.2699C30.381 44.3481 30.381 44.3872 30.381 44.4655C30.381 44.7001 30.4201 44.9348 30.4201 45.1694C30.4593 45.404 30.4593 45.6778 30.4985 45.9125V45.9516C30.4985 45.9907 30.4985 45.9907 30.4985 46.0298L34.9649 50.2143L35.2 50.4099C35.2 50.4099 35.7093 50.8792 36.1011 51.2311C36.1795 51.3094 36.2578 51.4267 36.3754 51.5049C36.9239 52.0915 37.4724 52.639 38.0209 53.1865C38.6086 53.7732 39.1963 54.3598 39.784 54.9073C38.0601 55.7286 36.297 56.5498 34.5731 57.3711C34.4948 57.4102 34.4164 57.4493 34.3381 57.5275C34.1422 57.684 34.0246 57.8404 33.9071 58.075C33.8679 58.1142 33.8679 58.1533 33.8287 58.2315C33.7896 58.2706 33.7896 58.3097 33.7896 58.3488C33.7504 58.427 33.7504 58.4661 33.7504 58.5443C33.7504 58.5052 33.7112 58.5835 33.7112 58.7008Z" fill="#00AB2E"/>
<path d="M70.7354 58.6617C70.7354 59.2483 70.6962 59.8349 70.6962 60.4606C70.6962 61.0473 70.6962 61.6339 70.6571 62.2205C70.6571 62.8853 70.6571 63.5502 70.6179 64.215V64.3323C67.8362 61.9467 65.0936 59.522 62.5078 57.0973C62.2727 56.8627 61.9985 56.628 61.7634 56.3934C61.2932 55.9632 60.8231 55.533 60.3138 55.0637C60.1962 54.9464 60.0787 54.8291 59.9611 54.7509C59.7261 54.5162 59.4518 54.2816 59.2167 54.0469C57.6888 52.5608 56.1216 51.0356 54.5936 49.5104L52.6738 47.5941C52.4779 47.3986 52.3212 47.203 52.1253 47.0466C52.0078 46.9293 51.8902 46.8119 51.7727 46.6946C51.6552 46.5773 51.5376 46.4991 51.4593 46.3817C51.3809 46.3035 51.3026 46.1862 51.2242 46.108C51.1458 46.0298 51.0675 45.9516 51.0283 45.8733C50.5973 45.4432 50.3231 44.9347 50.2055 44.1917C50.0096 42.9011 50.0096 41.5324 50.5973 40.3591C50.5973 40.32 50.5973 40.2809 50.5973 40.2809C50.7149 39.968 50.9108 39.8116 51.2242 39.6161C51.4201 39.4987 51.6552 39.4205 51.9294 39.3032C52.6738 39.0294 53.4966 38.7557 54.2802 38.521L54.7503 38.3646C54.7895 38.3646 54.8679 38.3255 54.8679 38.3255C55.7298 38.0517 56.6309 37.778 57.4929 37.5042C58.4723 37.1914 59.4518 36.9176 60.4705 36.6438C61.3716 36.4092 62.3119 36.1354 63.213 35.9008C63.3697 35.8617 63.5264 35.8226 63.7223 35.7444C64.4667 35.5488 65.2112 35.3142 65.7988 35.5097C65.9164 35.5488 66.0731 35.627 66.1906 35.6661C66.5824 35.8617 67.0134 36.1354 67.4052 36.4092C67.6794 36.6047 67.9537 36.7612 68.2279 36.9176C68.463 37.074 68.6981 37.1914 68.9332 37.3478C69.5209 37.6998 70.1085 38.0517 70.6962 38.3646C71.1664 38.6384 71.6365 38.9121 72.0675 39.1468C72.1067 39.1468 72.1067 39.1859 72.1459 39.1859C73.5563 39.968 74.8492 40.672 76.0638 41.3368C78.728 42.7447 81.4313 44.1135 84.0563 45.3649C84.6832 45.6778 85.3101 45.9516 85.8977 46.2644L85.7018 47.0075C85.5843 47.5159 85.4668 48.0243 85.3492 48.5327C85.1925 49.1193 85.0358 49.745 84.9183 50.3317C84.7224 51.0356 84.5657 51.2702 83.978 51.544C83.4686 51.7787 82.9593 52.0133 82.45 52.2479C82.1757 52.3653 81.9015 52.4826 81.6664 52.5999C80.9612 52.9128 80.2951 53.2256 79.5899 53.5776C78.6888 54.0078 77.7485 54.438 76.8474 54.8682C75.1235 55.6895 73.3996 56.5107 71.6757 57.332C71.0488 57.5275 70.7354 58.1142 70.7354 58.6617Z" fill="#ED1B23"/>
</svg>
