<svg
  width="102"
  height="19"
  viewBox="0 0 102 19"
  fill="none"
  xmlns="http://www.w3.org/2000/svg"
>
  <path
    d="M9.48882 4.95407C9.25641 4.47675 8.60541 4.21984 8.09299 4.50343C7.79057 4.67049 7.48255 4.84738 7.17453 5.03129C6.88892 5.0692 6.60469 5.12113 6.32328 5.19132C4.18957 5.46649 2.27703 7.1694 1.52379 9.24997C1.04357 10.5767 1.157 12.0241 1.72683 13.2455C1.77723 14.5483 2.41705 15.5647 3.3929 16.2498C4.36175 16.9293 5.38243 17.3771 6.46048 17.4922C7.41813 17.8137 8.45981 17.8994 9.49866 17.679C9.92289 17.5891 10.2085 17.1455 10.2183 16.7313C10.2785 13.9334 10.3401 11.134 10.4003 8.33604C10.4423 7.81519 10.4773 7.29577 10.4801 6.77492C10.4815 6.6247 10.4675 6.4829 10.4437 6.34673C10.4465 6.19932 10.4507 6.05052 10.4535 5.90311C10.4703 5.26714 9.98165 4.95127 9.48882 4.95407Z"
    fill="#39B100"
  />
  <path
    d="M96.6601 10.3846C96.6699 10.5503 96.6783 10.7159 96.6881 10.8844C96.8352 10.7819 96.9794 10.6808 97.1222 10.5797C97.531 10.6598 98.0014 10.5475 98.3822 10.2372C99.0627 9.68407 100.208 8.6873 100.33 7.77055C100.335 7.73265 100.335 7.69758 100.337 7.66108C100.376 7.60492 100.417 7.54733 100.454 7.48977C99.9167 6.27962 98.9955 5.74896 97.9748 5.2941C97.9454 5.28006 97.916 5.26742 97.8866 5.25478C97.5954 5.12703 97.2972 5.00349 96.9976 4.87012C96.9472 5.03437 96.9038 5.19722 96.8646 5.36008C96.7722 5.43167 96.691 5.52011 96.6322 5.63523C96.495 5.90057 96.4305 6.20523 96.4613 6.49303C96.4123 6.98299 96.3619 7.47435 96.3129 7.96431C96.2639 8.44023 96.1421 8.96107 96.1757 9.43699C96.2037 9.87782 96.3927 10.1923 96.6601 10.3846Z"
    fill="#39B100"
  />
  <path
    d="M0.779487 12.9439C1.0273 16.1714 3.69162 18.0933 6.47077 18.3362C8.42247 18.5061 10.4204 18.1495 12.3959 18.0274C13.2318 17.9754 14.0844 17.7873 14.8964 17.8968C16.1159 18.0611 17.292 18.0863 18.5296 17.9909C22.1544 17.7115 25.8002 17.7045 29.4278 17.449C35.8009 17.0011 42.16 16.4325 48.5625 16.4059C53.0316 16.3876 57.5006 16.0128 61.9669 15.7657C65.9249 15.5467 69.8801 15.2954 73.8353 15.0315C74.8097 14.9669 75.7772 14.7984 76.7474 14.6819C77.348 14.6103 77.9473 14.5162 78.5493 14.4825C80.179 14.3913 81.8114 14.3253 83.4425 14.2523C84.8342 14.1891 86.2021 14.2256 87.6049 14.4039C89.1282 14.5976 90.7047 14.8433 92.2994 14.2804C95.458 13.1657 97.9627 11.102 100.413 8.95542C102.44 7.18089 101.72 6.75552 99.997 5.31091C99.962 5.28143 99.913 5.27017 99.871 5.24771C98.4219 4.50364 96.9588 3.78626 95.5266 3.0071C94.3519 2.36832 93.2137 1.65657 91.85 0.853544C90.2539 0.853544 88.4842 0.804381 86.7173 0.861941C82.1503 1.01216 77.5847 1.2354 73.0162 1.3786C68.8202 1.50916 64.6228 1.53863 60.4268 1.67621C53.5272 1.89943 46.6304 2.18723 39.7309 2.42168C34.2286 2.60981 28.7557 3.14328 23.2772 3.64447C20.8859 3.86207 18.4652 3.76241 16.0571 3.79891C15.9227 3.80172 15.7883 3.72027 15.6496 3.70764C15.1456 3.66131 14.6374 3.57848 14.1348 3.59673C12.0543 3.67675 9.97377 3.76802 7.89606 3.89577C6.39939 3.98703 4.93911 4.20183 3.76025 5.30388C1.53973 7.37884 0.545675 9.90584 0.779487 12.9439ZM96.9953 4.87147C98.3799 5.48357 99.7464 5.90192 100.452 7.48972C99.5728 8.84027 98.2707 9.77669 96.6872 10.8844C96.571 8.68446 96.3932 6.82991 96.9953 4.87147ZM92.0208 2.40341C93.3102 3.0113 94.4653 3.55462 95.7604 4.16531C95.6484 6.44945 95.5462 8.72378 95.4131 10.9953C95.3977 11.2508 95.2759 11.5863 95.0869 11.7295C94.0817 12.4876 93.0275 13.1615 91.416 12.986C91.2956 9.43835 91.3879 6.01704 92.0208 2.40341ZM19.1401 4.68756C21.4586 4.45732 23.7799 4.24814 26.1026 4.06002C30.377 3.71185 34.6472 3.29349 38.9286 3.07167C43.4453 2.83582 47.9731 2.80495 52.4953 2.66596C55.1513 2.58453 57.8058 2.43571 60.4632 2.37534C65.453 2.26444 70.4443 2.22653 75.4342 2.09738C78.2749 2.02437 81.1128 1.79974 83.955 1.70568C85.8185 1.64251 87.6848 1.6762 89.5497 1.70428C89.8535 1.70849 90.1965 1.8517 90.4457 2.0328C90.9903 2.4273 90.9441 3.23733 90.3407 3.52653C89.9347 3.72167 89.4531 3.82977 89.0008 3.841C82.7103 4.01368 76.4198 4.16251 70.1278 4.31694C70.1264 4.26079 70.1237 4.20323 70.1209 4.14567C64.5822 4.48541 59.0197 4.61597 53.5104 5.22526C48.2685 5.80366 43.0155 6.14059 37.768 6.58843C33.3088 6.96749 28.8524 7.37601 24.3903 7.70452C22.671 7.83087 20.9391 7.80561 19.2142 7.78034C18.2678 7.7663 17.978 7.43638 17.9458 6.6516C17.8897 5.21823 18.1264 4.78864 19.1401 4.68756ZM20.6185 8.48791C24.3861 8.27732 28.1439 7.90952 31.9087 7.62312C36.3693 7.28338 40.8342 6.97169 45.2948 6.62072C47.6175 6.43821 49.936 6.19534 52.2559 5.98475C54.7607 5.75592 57.2612 5.44005 59.7715 5.32774C64.4296 5.11716 69.0932 5.0175 73.7541 4.88974C76.3624 4.81814 78.9721 4.74794 81.5805 4.73952C83.6722 4.7325 85.7653 4.86306 87.857 4.85043C89.1703 4.84341 89.1688 4.77602 90.5185 5.37267C90.5185 6.40875 90.5185 7.37883 90.5185 8.41631C90.0705 8.54687 89.684 8.72516 89.285 8.76588C86.0439 9.1 82.7999 9.3892 79.535 9.28953C78.8839 9.26847 78.2301 9.36394 77.5777 9.36253C75.8556 9.35972 74.132 9.31339 72.4086 9.32181C71.2927 9.32883 70.1783 9.43414 69.0624 9.43975C61.8758 9.47485 54.7159 10.0097 47.5489 10.473C43.2129 10.7538 38.9273 11.3631 34.6221 11.8657C29.3914 12.4764 24.1607 13.1685 18.8726 13.0969C17.5985 13.0787 17.5299 13.0464 17.5047 11.7674C17.4431 8.5876 17.4474 8.6648 20.6185 8.48791ZM17.1506 15.9622C17.215 14.571 17.5678 14.1428 18.9482 13.9098C19.7281 13.7778 20.5247 13.7441 21.3143 13.6697C24.6507 13.351 27.9899 13.0393 31.3263 12.7136C36.6564 12.1956 41.9878 11.6986 47.3137 11.1357C51.7267 10.6696 56.1467 10.4871 60.5835 10.4702C65.2402 10.4534 69.8969 10.3172 74.5535 10.2315C78.5619 10.1571 82.5703 10.0617 86.5787 10.0181C87.7687 10.0055 89.0078 9.82161 90.1979 10.5643C90.1979 11.1371 90.2497 11.7435 90.1867 12.3374C90.0705 13.4268 89.3999 13.7595 88.431 13.2948C88.165 13.1671 87.8486 13.0436 87.5658 13.0646C85.1968 13.2359 82.8321 13.4479 80.4632 13.636C77.3046 13.8887 74.1447 14.1512 70.9833 14.3702C63.7716 14.8686 56.5654 15.5313 49.3466 15.7601C44.5472 15.9131 39.7463 16.0016 34.9553 16.3188C30.9076 16.5884 26.8628 16.8986 22.8152 17.1598C21.5146 17.244 20.2069 17.2566 18.9034 17.2398C18.3588 17.2314 17.8156 17.0587 17.2037 16.9492C17.1827 16.594 17.1366 16.2767 17.1506 15.9622ZM13.9318 15.5916C14.111 13.0759 14.356 10.5657 14.58 8.05409C14.629 7.49534 14.7326 6.94082 14.755 6.38207C14.825 4.61877 14.8572 4.58087 16.9405 4.76759C16.9909 5.73206 17.1113 6.65019 17.0707 7.55992C17.0021 9.09578 16.8551 10.6288 16.6955 12.1577C16.5653 13.4099 16.3763 14.6552 16.1985 15.9019C16.1061 16.5477 15.7575 16.9113 15.0602 16.8495C14.2328 16.7751 13.8702 16.4592 13.9318 15.5916ZM11.0574 9.71913C11.1638 8.46545 11.238 7.21036 11.3612 5.9609C11.4662 4.89534 11.7169 4.65807 12.6031 4.65386C13.3606 4.64965 13.6293 4.89394 13.7889 5.8907C13.8701 6.39049 13.8856 6.91553 13.838 7.42093C13.5747 10.1543 13.2878 12.8849 12.9937 15.6155C12.9601 15.9328 12.8691 16.2599 12.7347 16.5491C12.4645 17.1331 11.9353 17.1022 11.4131 17.0138C10.923 16.9295 10.7088 16.6235 10.7172 16.1293C10.7284 15.4765 10.72 14.8251 10.72 14.1723C10.7018 14.1695 10.685 14.1667 10.6668 14.1638C10.797 12.6827 10.9328 11.2002 11.0574 9.71913ZM2.35177 8.48369C3.56843 5.62536 6.4554 4.80269 8.91672 4.98239C9.91497 5.05539 10.4918 5.77559 10.4834 6.77516C10.4778 7.61329 10.3952 8.4514 10.3224 9.28812C10.16 11.1497 9.99056 13.0098 9.80995 14.8686C9.74135 15.5593 9.63072 16.2458 9.54252 16.9071C7.2814 18.0021 5.24294 17.5458 3.39485 16.25C2.39659 15.5495 1.74834 14.5022 1.72454 13.1559C1.69513 11.561 1.70213 10.0069 2.35177 8.48369Z"
    fill="#251C1C"
  />
</svg>
