<svg
  width="121"
  height="30"
  viewBox="0 0 121 30"
  fill="none"
  xmlns="http://www.w3.org/2000/svg"
>
  <path
    d="M26.0697 2.95814C25.7248 2.78915 25.314 2.79914 24.9365 2.77984C24.8623 2.77618 24.7882 2.77252 24.7141 2.76919C24.587 2.68337 24.4304 2.64179 24.2451 2.66574C24.1579 2.67705 24.0754 2.70433 24.0006 2.74391C23.9382 2.74225 23.8763 2.74059 23.8139 2.73926C23.0956 2.72462 22.3772 2.7326 21.6596 2.76055C21.644 2.75988 21.6284 2.75955 21.6128 2.75888C21.4445 2.75323 21.2755 2.77418 21.0936 2.79348C20.9696 2.5094 20.4435 2.56495 20.4761 2.90891C20.6198 4.41381 20.8186 5.91406 20.9627 7.41963C20.9907 7.71203 21.016 8.00509 21.0403 8.29815C21.0074 9.9604 20.961 11.6226 20.9301 13.2849C20.9204 13.8148 20.9571 14.3457 20.9741 14.9422C21.112 14.9325 21.2474 14.9232 21.3807 14.9139C21.4947 15.0659 21.6807 15.168 21.8816 15.1664C22.5563 15.1604 23.2338 15.1111 23.9002 15.0084C23.9798 14.996 24.0595 14.9831 24.1388 14.9694C24.2254 15.0057 24.3199 15.0243 24.4183 15.02C24.6154 15.0117 24.799 14.9338 24.9323 14.8088C25.2496 14.7336 25.5741 14.6311 25.8013 14.3933C26.2675 13.9053 26.1882 13.1505 26.218 12.5351L26.3108 10.6137C26.3731 9.32172 26.4358 8.02971 26.4982 6.7377C26.529 6.09735 26.5602 5.45667 26.591 4.81632C26.6222 4.17131 26.7999 3.31573 26.0697 2.95814Z"
    fill="#EF4036"
  />
  <path
    d="M12.0453 14.644C12.0155 14.2521 11.9833 13.8603 11.9487 13.4688C11.879 12.6857 11.7997 11.9033 11.71 11.1222C11.5237 9.49925 11.2961 7.88025 11.0273 6.26823C10.9626 5.88036 10.8954 5.49283 10.8257 5.10562C10.7662 4.77464 10.7184 4.44864 10.5812 4.14028C10.4981 3.81628 10.4105 3.49161 10.3312 3.16262C10.0426 3.16262 9.82824 3.14998 9.61592 3.16528C9.24116 3.19222 8.8685 3.25244 8.49374 3.26974C7.54368 3.31431 6.59256 3.33593 5.64285 3.3845C5.47452 3.39315 5.24316 3.43839 5.15622 3.54982C4.95915 3.80264 4.74129 4.03982 4.58162 4.30993C4.48949 4.24806 4.37864 4.21213 4.25187 4.21745C3.90586 4.23242 3.65613 4.47625 3.63881 4.80624C3.62842 5.0055 3.61806 5.20509 3.60732 5.40434C3.6049 5.44858 3.60281 5.49283 3.60039 5.5374C3.59311 5.67279 3.60559 5.59063 3.60732 5.56168C3.5997 5.71038 3.58444 5.85342 3.58236 6.00244L3.5668 7.19865C3.55606 8.00732 3.5616 8.81533 3.56541 9.624C3.57269 11.2187 3.60108 12.8138 3.62048 14.4082C3.62533 14.818 3.63017 15.2278 3.63536 15.6373C3.64125 16.1137 3.63051 16.6306 4.03817 16.9739C4.49814 17.3611 5.03845 17.2653 5.58985 17.1871C5.9982 17.1292 6.40694 17.0713 6.81529 17.0135C7.63235 16.8977 8.44938 16.7839 9.2654 16.6628C9.67307 16.6023 10.0811 16.5421 10.4887 16.4816C10.9449 16.414 11.3893 16.3675 11.7301 16.0275C12.1139 15.6446 12.082 15.1313 12.0453 14.644Z"
    fill="#39B100"
  />
  <mask
    id="path-3-outside-1_665_20651"
    maskUnits="userSpaceOnUse"
    x="-0.341797"
    y="0.0537109"
    width="28"
    height="29"
    fill="black"
  >
    <rect fill="white" x="-0.341797" y="0.0537109" width="28" height="29" />
    <path
      d="M22.0954 15.1661C22.9845 15.078 23.8795 15.0444 24.7704 14.9689C25.1077 14.9403 25.4416 14.8651 25.7741 14.7966C26.0914 14.731 26.2625 14.5138 26.3182 14.2221C26.3532 14.0371 26.3526 13.8445 26.356 13.6552C26.3889 11.8786 26.4298 10.1019 26.4454 8.32486C26.4523 7.54979 26.3882 6.77405 26.3899 5.99865C26.392 5.15405 26.4343 4.30978 26.4558 3.46519C26.4641 3.14118 26.4759 2.81485 26.3013 2.53144C25.6484 2.55273 25.0222 2.60462 24.398 2.58566C23.5204 2.55905 22.6437 2.48354 21.7671 2.42267C21.3827 2.39572 20.9726 2.43763 20.6906 2.05841C20.2508 2.42998 19.7464 2.40071 19.2453 2.38907C18.7261 2.37709 18.2059 2.34582 17.6877 2.36312C16.3449 2.4087 15.0024 2.46491 13.6609 2.5381C12.3722 2.60862 11.0861 2.71839 9.79767 2.78725C8.49052 2.85744 7.18198 2.90833 5.87344 2.94791C5.26524 2.96621 5.19077 2.89104 5.01898 2.32321C4.78277 1.54148 3.85488 0.942708 3.03158 1.07111C2.18439 1.2035 1.47782 1.59071 0.952049 2.25235C0.61054 2.68246 0.543693 3.44889 0.874119 3.80715C1.19831 4.15909 1.45323 4.61116 2.07355 4.71062C2.07355 5.10282 2.03129 5.48203 2.08116 5.84961C2.24395 7.04981 2.32291 8.25201 2.30663 9.46218C2.30178 9.83974 2.35307 10.2186 2.38805 10.5962C2.46113 11.3862 2.58858 12.1746 2.60797 12.9656C2.64503 14.5002 2.62495 16.036 2.62495 17.5712C2.62461 19.8638 2.55913 22.1577 2.87085 24.4407C3.04472 25.7171 3.19575 26.9961 3.36685 28.3493C3.46972 28.3493 3.62176 28.3553 3.77277 28.348C4.12952 28.3314 4.48592 28.2901 4.84232 28.2928C5.29639 28.2958 5.46094 28.0985 5.43011 27.6478C5.35738 26.5833 5.31096 25.5172 5.26454 24.451C5.25242 24.1763 5.29676 23.8992 5.28602 23.6241C5.20913 21.6771 5.12669 19.7304 5.0408 17.7837C5.02868 17.5086 4.97152 17.2352 4.96182 16.9601C4.94935 16.6125 5.03559 16.5489 5.39061 16.5173C6.02998 16.4601 6.66869 16.3936 7.30633 16.3204C8.39251 16.196 9.47523 16.033 10.5649 15.9505C10.9556 15.9206 11.4069 15.8178 11.7006 16.0729C12.0275 15.9851 12.305 15.87 12.5917 15.8404C13.6984 15.727 14.8067 15.6278 15.9164 15.548C16.9527 15.4732 17.9908 15.397 19.0288 15.3843C19.5812 15.3774 20.1569 15.1352 20.6976 15.4608C20.7274 15.4788 20.7952 15.4359 20.8458 15.4249C21.2621 15.3354 21.6739 15.2077 22.0954 15.1661ZM20.9043 2.8122C21.162 2.79157 21.3892 2.75132 21.6151 2.75897C22.8505 2.80022 24.0853 2.85378 25.3204 2.90235C25.4101 2.90567 25.5005 2.89902 25.5899 2.90501C25.9483 2.92929 26.0283 2.99017 26.0411 3.3451C26.0612 3.89664 26.0644 4.44917 26.0564 5.0007C26.0304 6.82794 25.9591 8.65517 25.9799 10.4818C25.9923 11.5516 25.966 12.6147 25.8777 13.6798C25.8264 14.2942 25.7468 14.4153 25.1199 14.5637C24.8771 14.6209 24.6273 14.6572 24.3786 14.6844C23.9883 14.7267 23.5966 14.7566 23.2052 14.7856C22.4917 14.8381 21.7778 14.8864 20.9764 14.9422C20.9594 14.3458 20.9227 13.8149 20.9324 13.285C20.9732 11.0795 21.0415 8.87406 21.0696 6.6686C21.0768 6.06983 20.9819 5.4694 20.9272 4.87029C20.8662 4.202 20.8271 3.53471 20.9043 2.8122ZM1.97482 4.25191C1.39363 4.15876 0.949964 3.23466 1.18757 2.71872C1.46569 2.11463 2.00287 1.82223 2.61558 1.62763C3.46485 1.35785 3.86561 1.52751 4.27015 1.98157C4.78865 2.56371 4.78344 3.23599 4.35603 3.84308C4.05331 3.92824 3.8119 3.9452 3.63318 4.05597C3.10567 4.38263 2.53419 4.34139 1.97482 4.25191ZM4.19151 27.7892C4.10319 27.7845 4.01524 27.7705 3.87011 27.7546C3.8005 27.518 3.70904 27.2782 3.6602 27.0307C3.36511 25.5385 3.22033 24.0306 3.10464 22.516C2.93077 20.241 2.9772 17.9667 2.98552 15.69C2.99071 14.2094 2.9862 12.7208 2.83449 11.2502C2.69248 9.87334 2.66823 8.49884 2.60692 7.12167C2.58095 6.5392 2.45037 5.96105 2.37729 5.37992C2.31529 4.8856 2.41991 4.78247 2.93806 4.71861C3.23177 4.68235 3.51993 4.60285 3.8739 4.52966C3.8739 5.11546 3.87425 5.66167 3.8739 6.20754C3.87286 7.77565 3.97503 9.33844 4.10215 10.9016C4.1735 11.7764 4.1077 12.6613 4.16969 13.5375C4.23377 14.4473 4.35499 15.3554 4.4918 16.2589C4.71208 17.7142 4.74987 19.1792 4.78208 20.6439C4.82018 22.3853 4.81913 24.127 4.84753 25.8684C4.85411 26.2813 4.92408 26.6931 4.93966 27.1062C4.96356 27.7299 4.84959 27.8257 4.19151 27.7892ZM10.8412 15.6488C9.5715 15.7463 8.30385 15.8733 7.0334 15.9595C6.57379 15.9908 6.10827 15.9432 5.64554 15.9256C5.39616 15.9162 5.14714 15.895 4.83853 15.875C4.80701 15.7276 4.75332 15.566 4.74051 15.4016C4.6411 14.1296 4.50565 12.8582 4.46582 11.5845C4.39898 9.44855 4.4215 7.31028 4.34981 5.17467C4.32556 4.46048 4.77928 4.03468 5.15715 3.55001C5.24409 3.43857 5.47548 3.39334 5.64381 3.38469C6.59353 3.33612 7.54461 3.3145 8.49467 3.26992C8.86943 3.25263 9.24212 3.19241 9.61688 3.16547C9.8292 3.15017 10.0436 3.16281 10.3321 3.16281C10.5049 3.87768 10.7166 4.57258 10.834 5.28179C10.9805 6.16663 11.0633 7.06212 11.1467 7.95528C11.2094 8.62457 11.2423 9.29686 11.2669 9.96848C11.3234 11.5023 11.3667 13.0368 11.4152 14.571C11.4197 14.7091 11.4204 14.8471 11.4301 14.9848C11.4713 15.557 11.4159 15.6046 10.8412 15.6488ZM20.6262 9.76889C20.5781 11.1131 20.5749 12.4587 20.5452 13.8036C20.5393 14.0614 20.5212 14.3219 20.4748 14.5757C20.4139 14.91 20.2826 15.0098 19.9363 15.0437C19.8292 15.0544 19.7208 15.0527 19.6135 15.0597C17.269 15.2114 14.9248 15.364 12.5803 15.5137C12.3891 15.5257 12.1965 15.5151 11.9094 15.5151C11.8439 14.1831 11.7955 12.9271 11.7168 11.673C11.6133 10.0227 11.6472 8.36511 11.4086 6.72183C11.305 6.00729 11.2579 5.28544 11.163 4.56958C11.1204 4.24824 10.9947 3.93655 10.9586 3.61488C10.9164 3.23699 10.9885 3.20206 11.3836 3.1149C12.3673 2.89835 13.3617 2.84114 14.3685 2.83715C15.1028 2.83449 15.8361 2.73103 16.571 2.69444C17.8048 2.63323 19.0395 2.58799 20.327 2.7287C20.3599 2.88405 20.4101 3.04505 20.427 3.20938C20.6504 5.39156 20.7045 7.57773 20.6262 9.76889Z"
    />
  </mask>
  <path
    d="M22.0954 15.1661C22.9845 15.078 23.8795 15.0444 24.7704 14.9689C25.1077 14.9403 25.4416 14.8651 25.7741 14.7966C26.0914 14.731 26.2625 14.5138 26.3182 14.2221C26.3532 14.0371 26.3526 13.8445 26.356 13.6552C26.3889 11.8786 26.4298 10.1019 26.4454 8.32486C26.4523 7.54979 26.3882 6.77405 26.3899 5.99865C26.392 5.15405 26.4343 4.30978 26.4558 3.46519C26.4641 3.14118 26.4759 2.81485 26.3013 2.53144C25.6484 2.55273 25.0222 2.60462 24.398 2.58566C23.5204 2.55905 22.6437 2.48354 21.7671 2.42267C21.3827 2.39572 20.9726 2.43763 20.6906 2.05841C20.2508 2.42998 19.7464 2.40071 19.2453 2.38907C18.7261 2.37709 18.2059 2.34582 17.6877 2.36312C16.3449 2.4087 15.0024 2.46491 13.6609 2.5381C12.3722 2.60862 11.0861 2.71839 9.79767 2.78725C8.49052 2.85744 7.18198 2.90833 5.87344 2.94791C5.26524 2.96621 5.19077 2.89104 5.01898 2.32321C4.78277 1.54148 3.85488 0.942708 3.03158 1.07111C2.18439 1.2035 1.47782 1.59071 0.952049 2.25235C0.61054 2.68246 0.543693 3.44889 0.874119 3.80715C1.19831 4.15909 1.45323 4.61116 2.07355 4.71062C2.07355 5.10282 2.03129 5.48203 2.08116 5.84961C2.24395 7.04981 2.32291 8.25201 2.30663 9.46218C2.30178 9.83974 2.35307 10.2186 2.38805 10.5962C2.46113 11.3862 2.58858 12.1746 2.60797 12.9656C2.64503 14.5002 2.62495 16.036 2.62495 17.5712C2.62461 19.8638 2.55913 22.1577 2.87085 24.4407C3.04472 25.7171 3.19575 26.9961 3.36685 28.3493C3.46972 28.3493 3.62176 28.3553 3.77277 28.348C4.12952 28.3314 4.48592 28.2901 4.84232 28.2928C5.29639 28.2958 5.46094 28.0985 5.43011 27.6478C5.35738 26.5833 5.31096 25.5172 5.26454 24.451C5.25242 24.1763 5.29676 23.8992 5.28602 23.6241C5.20913 21.6771 5.12669 19.7304 5.0408 17.7837C5.02868 17.5086 4.97152 17.2352 4.96182 16.9601C4.94935 16.6125 5.03559 16.5489 5.39061 16.5173C6.02998 16.4601 6.66869 16.3936 7.30633 16.3204C8.39251 16.196 9.47523 16.033 10.5649 15.9505C10.9556 15.9206 11.4069 15.8178 11.7006 16.0729C12.0275 15.9851 12.305 15.87 12.5917 15.8404C13.6984 15.727 14.8067 15.6278 15.9164 15.548C16.9527 15.4732 17.9908 15.397 19.0288 15.3843C19.5812 15.3774 20.1569 15.1352 20.6976 15.4608C20.7274 15.4788 20.7952 15.4359 20.8458 15.4249C21.2621 15.3354 21.6739 15.2077 22.0954 15.1661ZM20.9043 2.8122C21.162 2.79157 21.3892 2.75132 21.6151 2.75897C22.8505 2.80022 24.0853 2.85378 25.3204 2.90235C25.4101 2.90567 25.5005 2.89902 25.5899 2.90501C25.9483 2.92929 26.0283 2.99017 26.0411 3.3451C26.0612 3.89664 26.0644 4.44917 26.0564 5.0007C26.0304 6.82794 25.9591 8.65517 25.9799 10.4818C25.9923 11.5516 25.966 12.6147 25.8777 13.6798C25.8264 14.2942 25.7468 14.4153 25.1199 14.5637C24.8771 14.6209 24.6273 14.6572 24.3786 14.6844C23.9883 14.7267 23.5966 14.7566 23.2052 14.7856C22.4917 14.8381 21.7778 14.8864 20.9764 14.9422C20.9594 14.3458 20.9227 13.8149 20.9324 13.285C20.9732 11.0795 21.0415 8.87406 21.0696 6.6686C21.0768 6.06983 20.9819 5.4694 20.9272 4.87029C20.8662 4.202 20.8271 3.53471 20.9043 2.8122ZM1.97482 4.25191C1.39363 4.15876 0.949964 3.23466 1.18757 2.71872C1.46569 2.11463 2.00287 1.82223 2.61558 1.62763C3.46485 1.35785 3.86561 1.52751 4.27015 1.98157C4.78865 2.56371 4.78344 3.23599 4.35603 3.84308C4.05331 3.92824 3.8119 3.9452 3.63318 4.05597C3.10567 4.38263 2.53419 4.34139 1.97482 4.25191ZM4.19151 27.7892C4.10319 27.7845 4.01524 27.7705 3.87011 27.7546C3.8005 27.518 3.70904 27.2782 3.6602 27.0307C3.36511 25.5385 3.22033 24.0306 3.10464 22.516C2.93077 20.241 2.9772 17.9667 2.98552 15.69C2.99071 14.2094 2.9862 12.7208 2.83449 11.2502C2.69248 9.87334 2.66823 8.49884 2.60692 7.12167C2.58095 6.5392 2.45037 5.96105 2.37729 5.37992C2.31529 4.8856 2.41991 4.78247 2.93806 4.71861C3.23177 4.68235 3.51993 4.60285 3.8739 4.52966C3.8739 5.11546 3.87425 5.66167 3.8739 6.20754C3.87286 7.77565 3.97503 9.33844 4.10215 10.9016C4.1735 11.7764 4.1077 12.6613 4.16969 13.5375C4.23377 14.4473 4.35499 15.3554 4.4918 16.2589C4.71208 17.7142 4.74987 19.1792 4.78208 20.6439C4.82018 22.3853 4.81913 24.127 4.84753 25.8684C4.85411 26.2813 4.92408 26.6931 4.93966 27.1062C4.96356 27.7299 4.84959 27.8257 4.19151 27.7892ZM10.8412 15.6488C9.5715 15.7463 8.30385 15.8733 7.0334 15.9595C6.57379 15.9908 6.10827 15.9432 5.64554 15.9256C5.39616 15.9162 5.14714 15.895 4.83853 15.875C4.80701 15.7276 4.75332 15.566 4.74051 15.4016C4.6411 14.1296 4.50565 12.8582 4.46582 11.5845C4.39898 9.44855 4.4215 7.31028 4.34981 5.17467C4.32556 4.46048 4.77928 4.03468 5.15715 3.55001C5.24409 3.43857 5.47548 3.39334 5.64381 3.38469C6.59353 3.33612 7.54461 3.3145 8.49467 3.26992C8.86943 3.25263 9.24212 3.19241 9.61688 3.16547C9.8292 3.15017 10.0436 3.16281 10.3321 3.16281C10.5049 3.87768 10.7166 4.57258 10.834 5.28179C10.9805 6.16663 11.0633 7.06212 11.1467 7.95528C11.2094 8.62457 11.2423 9.29686 11.2669 9.96848C11.3234 11.5023 11.3667 13.0368 11.4152 14.571C11.4197 14.7091 11.4204 14.8471 11.4301 14.9848C11.4713 15.557 11.4159 15.6046 10.8412 15.6488ZM20.6262 9.76889C20.5781 11.1131 20.5749 12.4587 20.5452 13.8036C20.5393 14.0614 20.5212 14.3219 20.4748 14.5757C20.4139 14.91 20.2826 15.0098 19.9363 15.0437C19.8292 15.0544 19.7208 15.0527 19.6135 15.0597C17.269 15.2114 14.9248 15.364 12.5803 15.5137C12.3891 15.5257 12.1965 15.5151 11.9094 15.5151C11.8439 14.1831 11.7955 12.9271 11.7168 11.673C11.6133 10.0227 11.6472 8.36511 11.4086 6.72183C11.305 6.00729 11.2579 5.28544 11.163 4.56958C11.1204 4.24824 10.9947 3.93655 10.9586 3.61488C10.9164 3.23699 10.9885 3.20206 11.3836 3.1149C12.3673 2.89835 13.3617 2.84114 14.3685 2.83715C15.1028 2.83449 15.8361 2.73103 16.571 2.69444C17.8048 2.63323 19.0395 2.58799 20.327 2.7287C20.3599 2.88405 20.4101 3.04505 20.427 3.20938C20.6504 5.39156 20.7045 7.57773 20.6262 9.76889Z"
    fill="#251C1C"
  />
  <path
    d="M22.0954 15.1661C22.9845 15.078 23.8795 15.0444 24.7704 14.9689C25.1077 14.9403 25.4416 14.8651 25.7741 14.7966C26.0914 14.731 26.2625 14.5138 26.3182 14.2221C26.3532 14.0371 26.3526 13.8445 26.356 13.6552C26.3889 11.8786 26.4298 10.1019 26.4454 8.32486C26.4523 7.54979 26.3882 6.77405 26.3899 5.99865C26.392 5.15405 26.4343 4.30978 26.4558 3.46519C26.4641 3.14118 26.4759 2.81485 26.3013 2.53144C25.6484 2.55273 25.0222 2.60462 24.398 2.58566C23.5204 2.55905 22.6437 2.48354 21.7671 2.42267C21.3827 2.39572 20.9726 2.43763 20.6906 2.05841C20.2508 2.42998 19.7464 2.40071 19.2453 2.38907C18.7261 2.37709 18.2059 2.34582 17.6877 2.36312C16.3449 2.4087 15.0024 2.46491 13.6609 2.5381C12.3722 2.60862 11.0861 2.71839 9.79767 2.78725C8.49052 2.85744 7.18198 2.90833 5.87344 2.94791C5.26524 2.96621 5.19077 2.89104 5.01898 2.32321C4.78277 1.54148 3.85488 0.942708 3.03158 1.07111C2.18439 1.2035 1.47782 1.59071 0.952049 2.25235C0.61054 2.68246 0.543693 3.44889 0.874119 3.80715C1.19831 4.15909 1.45323 4.61116 2.07355 4.71062C2.07355 5.10282 2.03129 5.48203 2.08116 5.84961C2.24395 7.04981 2.32291 8.25201 2.30663 9.46218C2.30178 9.83974 2.35307 10.2186 2.38805 10.5962C2.46113 11.3862 2.58858 12.1746 2.60797 12.9656C2.64503 14.5002 2.62495 16.036 2.62495 17.5712C2.62461 19.8638 2.55913 22.1577 2.87085 24.4407C3.04472 25.7171 3.19575 26.9961 3.36685 28.3493C3.46972 28.3493 3.62176 28.3553 3.77277 28.348C4.12952 28.3314 4.48592 28.2901 4.84232 28.2928C5.29639 28.2958 5.46094 28.0985 5.43011 27.6478C5.35738 26.5833 5.31096 25.5172 5.26454 24.451C5.25242 24.1763 5.29676 23.8992 5.28602 23.6241C5.20913 21.6771 5.12669 19.7304 5.0408 17.7837C5.02868 17.5086 4.97152 17.2352 4.96182 16.9601C4.94935 16.6125 5.03559 16.5489 5.39061 16.5173C6.02998 16.4601 6.66869 16.3936 7.30633 16.3204C8.39251 16.196 9.47523 16.033 10.5649 15.9505C10.9556 15.9206 11.4069 15.8178 11.7006 16.0729C12.0275 15.9851 12.305 15.87 12.5917 15.8404C13.6984 15.727 14.8067 15.6278 15.9164 15.548C16.9527 15.4732 17.9908 15.397 19.0288 15.3843C19.5812 15.3774 20.1569 15.1352 20.6976 15.4608C20.7274 15.4788 20.7952 15.4359 20.8458 15.4249C21.2621 15.3354 21.6739 15.2077 22.0954 15.1661ZM20.9043 2.8122C21.162 2.79157 21.3892 2.75132 21.6151 2.75897C22.8505 2.80022 24.0853 2.85378 25.3204 2.90235C25.4101 2.90567 25.5005 2.89902 25.5899 2.90501C25.9483 2.92929 26.0283 2.99017 26.0411 3.3451C26.0612 3.89664 26.0644 4.44917 26.0564 5.0007C26.0304 6.82794 25.9591 8.65517 25.9799 10.4818C25.9923 11.5516 25.966 12.6147 25.8777 13.6798C25.8264 14.2942 25.7468 14.4153 25.1199 14.5637C24.8771 14.6209 24.6273 14.6572 24.3786 14.6844C23.9883 14.7267 23.5966 14.7566 23.2052 14.7856C22.4917 14.8381 21.7778 14.8864 20.9764 14.9422C20.9594 14.3458 20.9227 13.8149 20.9324 13.285C20.9732 11.0795 21.0415 8.87406 21.0696 6.6686C21.0768 6.06983 20.9819 5.4694 20.9272 4.87029C20.8662 4.202 20.8271 3.53471 20.9043 2.8122ZM1.97482 4.25191C1.39363 4.15876 0.949964 3.23466 1.18757 2.71872C1.46569 2.11463 2.00287 1.82223 2.61558 1.62763C3.46485 1.35785 3.86561 1.52751 4.27015 1.98157C4.78865 2.56371 4.78344 3.23599 4.35603 3.84308C4.05331 3.92824 3.8119 3.9452 3.63318 4.05597C3.10567 4.38263 2.53419 4.34139 1.97482 4.25191ZM4.19151 27.7892C4.10319 27.7845 4.01524 27.7705 3.87011 27.7546C3.8005 27.518 3.70904 27.2782 3.6602 27.0307C3.36511 25.5385 3.22033 24.0306 3.10464 22.516C2.93077 20.241 2.9772 17.9667 2.98552 15.69C2.99071 14.2094 2.9862 12.7208 2.83449 11.2502C2.69248 9.87334 2.66823 8.49884 2.60692 7.12167C2.58095 6.5392 2.45037 5.96105 2.37729 5.37992C2.31529 4.8856 2.41991 4.78247 2.93806 4.71861C3.23177 4.68235 3.51993 4.60285 3.8739 4.52966C3.8739 5.11546 3.87425 5.66167 3.8739 6.20754C3.87286 7.77565 3.97503 9.33844 4.10215 10.9016C4.1735 11.7764 4.1077 12.6613 4.16969 13.5375C4.23377 14.4473 4.35499 15.3554 4.4918 16.2589C4.71208 17.7142 4.74987 19.1792 4.78208 20.6439C4.82018 22.3853 4.81913 24.127 4.84753 25.8684C4.85411 26.2813 4.92408 26.6931 4.93966 27.1062C4.96356 27.7299 4.84959 27.8257 4.19151 27.7892ZM10.8412 15.6488C9.5715 15.7463 8.30385 15.8733 7.0334 15.9595C6.57379 15.9908 6.10827 15.9432 5.64554 15.9256C5.39616 15.9162 5.14714 15.895 4.83853 15.875C4.80701 15.7276 4.75332 15.566 4.74051 15.4016C4.6411 14.1296 4.50565 12.8582 4.46582 11.5845C4.39898 9.44855 4.4215 7.31028 4.34981 5.17467C4.32556 4.46048 4.77928 4.03468 5.15715 3.55001C5.24409 3.43857 5.47548 3.39334 5.64381 3.38469C6.59353 3.33612 7.54461 3.3145 8.49467 3.26992C8.86943 3.25263 9.24212 3.19241 9.61688 3.16547C9.8292 3.15017 10.0436 3.16281 10.3321 3.16281C10.5049 3.87768 10.7166 4.57258 10.834 5.28179C10.9805 6.16663 11.0633 7.06212 11.1467 7.95528C11.2094 8.62457 11.2423 9.29686 11.2669 9.96848C11.3234 11.5023 11.3667 13.0368 11.4152 14.571C11.4197 14.7091 11.4204 14.8471 11.4301 14.9848C11.4713 15.557 11.4159 15.6046 10.8412 15.6488ZM20.6262 9.76889C20.5781 11.1131 20.5749 12.4587 20.5452 13.8036C20.5393 14.0614 20.5212 14.3219 20.4748 14.5757C20.4139 14.91 20.2826 15.0098 19.9363 15.0437C19.8292 15.0544 19.7208 15.0527 19.6135 15.0597C17.269 15.2114 14.9248 15.364 12.5803 15.5137C12.3891 15.5257 12.1965 15.5151 11.9094 15.5151C11.8439 14.1831 11.7955 12.9271 11.7168 11.673C11.6133 10.0227 11.6472 8.36511 11.4086 6.72183C11.305 6.00729 11.2579 5.28544 11.163 4.56958C11.1204 4.24824 10.9947 3.93655 10.9586 3.61488C10.9164 3.23699 10.9885 3.20206 11.3836 3.1149C12.3673 2.89835 13.3617 2.84114 14.3685 2.83715C15.1028 2.83449 15.8361 2.73103 16.571 2.69444C17.8048 2.63323 19.0395 2.58799 20.327 2.7287C20.3599 2.88405 20.4101 3.04505 20.427 3.20938C20.6504 5.39156 20.7045 7.57773 20.6262 9.76889Z"
    stroke="#251C1C"
    stroke-width="0.4"
    mask="url(#path-3-outside-1_665_20651)"
  />
  <path
    d="M43.4744 14.6109C44.0169 14.6834 44.6116 14.4923 44.756 13.9121C45.0047 12.9127 44.828 12.0598 44.5038 11.096C44.1617 10.0786 43.8357 9.00664 43.283 8.07468C43.0389 7.66324 42.661 7.52324 42.2993 7.56791C42.1003 7.479 41.8347 7.51422 41.6696 7.72982C40.0978 9.78442 40.1958 14.1732 43.4744 14.6109Z"
    fill="#EF4036"
  />
  <path
    d="M43.208 24.0293C44.5339 24.6632 46.4733 23.6488 47.7553 23.1699C48.7521 22.798 48.9479 21.327 47.7553 21.0298C46.5497 20.7296 45.2668 20.3178 44.0684 20.8623C42.9983 21.3485 42.0776 22.4085 41.5857 23.422C41.2896 24.0319 41.9573 24.9454 42.6638 24.4575C42.853 24.3265 43.0323 24.18 43.208 24.0293Z"
    fill="#EF4036"
  />
  <path
    d="M38.7513 1.91944L38.7519 1.81945C38.6478 1.8188 38.5625 1.84392 38.4949 1.89388C38.4284 1.94301 38.3885 2.00918 38.3617 2.07334C38.3373 2.13162 38.3211 2.19514 38.3073 2.2496C38.3062 2.25385 38.3051 2.25804 38.3041 2.26216C38.2885 2.32311 38.2751 2.37156 38.2562 2.41039L38.2562 2.41049C38.0703 2.79359 37.8939 3.18646 37.7183 3.57775C37.5821 3.88132 37.4463 4.18394 37.3068 4.48033C36.2465 6.73041 35.1237 8.95228 34.0002 11.1755C33.8022 11.5672 33.6042 11.959 33.4065 12.351C32.0874 14.9669 30.7827 17.5913 29.5952 20.2685L29.6866 20.3091L29.5952 20.2686C29.2184 21.1184 28.6804 21.6655 27.8885 22.0725C27.4834 22.2805 27.2349 22.6068 27.0502 22.9818L27.14 23.026L27.0502 22.9818C26.5677 23.9623 26.581 24.9382 27.0166 25.7602C27.4511 26.5799 28.2988 27.234 29.4628 27.5902C31.9986 28.3668 34.616 28.5409 37.2934 28.719C38.0477 28.7691 38.8068 28.8196 39.5701 28.884L39.5787 28.8847L39.5872 28.884C40.2189 28.829 40.8652 28.7787 41.5211 28.7276C43.1008 28.6045 44.7366 28.4771 46.36 28.2702C47.7854 28.0883 49.2203 27.7663 50.5245 27.0975C51.6603 26.5153 52.829 25.9006 53.2586 24.5311C53.5022 23.7546 53.3095 22.9139 52.8576 22.2626C52.4057 21.6111 51.6868 21.138 50.8644 21.1081L50.8643 21.1081L50.8613 21.1079C50.739 21.1035 50.6579 21.1006 50.5887 21.0772C50.5269 21.0563 50.4696 21.0166 50.4096 20.9214C49.9537 20.1987 49.4809 19.487 49.009 18.7766C48.0448 17.3252 47.084 15.879 46.2775 14.3532L46.2775 14.3532C45.8336 13.5138 45.4002 12.668 44.9666 11.8218C43.2814 8.53325 41.5928 5.23783 39.2713 2.27818L39.2713 2.27816C39.2435 2.2427 39.2185 2.20133 39.1905 2.15369L39.185 2.1445C39.1595 2.10115 39.131 2.05255 39.0982 2.00841C39.025 1.9097 38.921 1.82031 38.7518 1.81945L38.7513 1.91944ZM38.7513 1.91944C38.9371 1.92039 39.0179 2.05774 39.0995 2.19628C39.1288 2.2461 39.1582 2.29606 39.1926 2.3399L37.3972 4.52292C37.5389 4.22203 37.675 3.91875 37.811 3.61551C37.9855 3.22664 38.16 2.83782 38.3461 2.45415C38.3717 2.40166 38.3876 2.33917 38.4038 2.27574C38.4486 2.10041 38.4951 1.91787 38.7513 1.91944ZM52.6836 23.9656C52.6864 23.8517 52.6821 23.7649 52.6691 23.7023C52.6557 23.6382 52.6369 23.6168 52.6262 23.6095C52.6174 23.6036 52.5928 23.5931 52.5275 23.61C52.4624 23.6269 52.373 23.6672 52.2523 23.7386L52.2523 23.7386C51.521 24.1712 50.7315 24.5908 49.7708 24.525L49.4471 24.5028L49.7272 24.3389C50.2857 24.0121 50.8721 23.7446 51.4529 23.4797C51.5571 23.4322 51.6611 23.3848 51.7647 23.3371C52.1004 23.1824 52.2308 23.0126 52.2527 22.8433C52.2757 22.6654 52.1861 22.4461 51.98 22.1792C51.7834 21.9248 51.5552 21.8244 51.3348 21.816C51.1108 21.8075 50.8844 21.8938 50.6987 22.0324C50.2707 22.352 49.799 22.5406 49.3255 22.6954C49.1681 22.7468 49.0118 22.7942 48.8568 22.8412C48.5402 22.9372 48.2291 23.0316 47.9252 23.1555M52.6836 23.9656L47.8875 23.0629M52.6836 23.9656C52.6633 24.7521 52.2091 25.3062 51.5772 25.7668C49.9708 26.9374 48.0617 27.3194 46.1067 27.6408C45.1837 27.7924 44.2526 27.8698 43.3169 27.9339C43.1122 27.9479 42.9072 27.9613 42.702 27.9747C41.9707 28.0225 41.2372 28.0705 40.5071 28.1476C39.729 28.2298 38.953 28.2042 38.1746 28.1464C37.856 28.1228 37.5348 28.0935 37.2129 28.0642C36.7535 28.0224 36.2926 27.9804 35.8356 27.9544L35.8355 27.9544C33.7256 27.8353 31.6176 27.5676 29.5808 26.9336M47.9252 23.1555L47.8875 23.0629M47.9252 23.1555C47.9252 23.1555 47.9252 23.1555 47.9252 23.1555L47.8875 23.0629M47.9252 23.1555C45.7383 24.0476 43.4641 24.6152 41.0765 24.7089C37.0908 24.866 33.3687 23.7439 29.6943 22.5165L29.726 22.4217C33.4004 23.6491 37.107 24.7653 41.0725 24.609C43.4466 24.5158 45.7093 23.9515 47.8875 23.0629M31.5486 25.1089L31.5271 25.2066C31.485 25.1973 31.4431 25.1876 31.4014 25.1774C31.4499 25.1575 31.499 25.1348 31.5486 25.1089ZM31.5486 25.1089L31.5024 25.0202C31.4657 25.0394 31.4293 25.0567 31.3932 25.0724C31.4447 25.0852 31.4965 25.0974 31.5486 25.1089ZM29.5808 26.9336C29.5809 26.9336 29.5809 26.9336 29.5809 26.9336L29.5511 27.0291L29.5808 26.9336ZM53.1632 24.5012C53.6287 23.0173 52.4312 21.2651 50.8607 21.208L39.5785 28.7843C40.2121 28.7292 40.8595 28.6788 41.516 28.6277C43.0947 28.5047 44.7265 28.3776 46.3474 28.171C47.7672 27.9898 49.1892 27.6699 50.4788 27.0085C51.62 26.4235 52.7478 25.8253 53.1632 24.5012ZM34.9707 16.9219L34.9707 16.9219C34.2457 18.1439 33.2024 18.9231 31.7013 18.9951L31.7013 18.995L31.6972 18.9954C31.4966 19.0132 31.3468 19.0041 31.2394 18.9754C31.1334 18.9471 31.0757 18.902 31.0452 18.851C31.0139 18.7989 31.0009 18.7239 31.0185 18.6167C31.0361 18.5094 31.0832 18.3787 31.1604 18.2251C31.3673 17.8137 31.573 17.402 31.7785 16.9903C32.3029 15.9402 32.8268 14.8911 33.3709 13.8511C33.4602 13.6806 33.5457 13.5583 33.6282 13.4783C33.7099 13.3991 33.784 13.3657 33.8533 13.3614C33.9234 13.357 34.0055 13.3813 34.1048 13.4508C34.2045 13.5206 34.3154 13.6317 34.4394 13.7889C34.8224 14.2746 35.125 14.7723 35.2472 15.2903C35.3684 15.804 35.3139 16.3439 34.9707 16.9219Z"
    fill="#251C1C"
    stroke="#251C1C"
    stroke-width="0.2"
  />
  <path
    d="M47.2045 19.8118C47.3803 19.8118 47.5196 19.7453 47.614 19.6396C47.7068 19.5358 47.7512 19.4001 47.7513 19.2676C47.7513 19.1351 47.7071 18.9993 47.6143 18.8955C47.5199 18.7898 47.3805 18.7232 47.2045 18.7232C47.0288 18.7232 46.8895 18.7898 46.7951 18.8954C46.7023 18.9993 46.6579 19.135 46.6578 19.2675C46.6577 19.4 46.702 19.5358 46.7948 19.6396C46.8892 19.7453 47.0286 19.8118 47.2045 19.8118Z"
    fill="#251C1C"
    stroke="#251C1C"
    stroke-width="0.2"
  />
  <path
    d="M42.1854 19.3112L42.1854 19.3111C41.9052 19.0091 41.8227 18.6022 41.8278 18.2321M42.1854 19.3112L41.4666 15.9352C41.7513 15.9744 41.9035 16.0904 41.9859 16.2392C42.0721 16.3948 42.0918 16.6038 42.0716 16.8452C42.0514 17.0851 41.9934 17.3414 41.938 17.5849L41.9351 17.5973C41.882 17.8306 41.8301 18.0586 41.8278 18.2321M42.1854 19.3112C42.4021 19.5446 42.6471 19.6615 42.8772 19.6172C43.1101 19.5723 43.2813 19.3717 43.3692 19.0754M42.1854 19.3112L43.3692 19.0754M41.8278 18.2321L41.9278 18.2334L41.8278 18.2321C41.8278 18.2321 41.8278 18.2321 41.8278 18.2321ZM44.1158 18.2914C43.9485 18.2075 43.9414 18.0211 43.9353 17.8616C43.931 17.75 43.9273 17.6515 43.8695 17.6107M44.1158 18.2914L42.2587 19.2431C42.6692 19.6855 43.1088 19.6017 43.2734 19.0469M44.1158 18.2914C44.6019 18.5347 44.7795 17.9624 44.9567 17.3917M44.1158 18.2914L44.9567 17.3917M43.8695 17.6107C43.2487 17.1733 43.3056 18.0267 43.3254 18.3243C43.3278 18.3598 43.3296 18.3874 43.3297 18.4039C43.3298 18.4146 43.3298 18.4253 43.3299 18.4361C43.3309 18.6383 43.332 18.8507 43.2734 19.0469M43.8695 17.6107L43.8119 17.6924C43.6446 17.5746 43.566 17.5819 43.5345 17.5967C43.4978 17.6141 43.4599 17.6696 43.4367 17.7852C43.4149 17.8939 43.4122 18.0249 43.4159 18.1426C43.4177 18.2008 43.421 18.2543 43.4239 18.2987C43.4243 18.3049 43.4247 18.311 43.4252 18.3171C43.4275 18.352 43.4296 18.3835 43.4297 18.4034L43.4297 18.4035C43.4298 18.4154 43.4298 18.4273 43.4299 18.4393C43.431 18.6382 43.4322 18.8645 43.3692 19.0754M43.8695 17.6107L43.8117 17.6924C43.8116 17.6922 43.8115 17.6922 43.8115 17.6922C43.8114 17.6923 43.8215 17.702 43.828 17.7518C43.8323 17.7848 43.8336 17.8187 43.8351 17.8586C43.836 17.8833 43.837 17.9103 43.8388 17.9408C43.8473 18.081 43.8746 18.2823 44.071 18.3808L44.0711 18.3808C44.1977 18.4442 44.3176 18.4644 44.4294 18.437C44.5404 18.4099 44.628 18.3397 44.6982 18.2522C44.8349 18.0819 44.9273 17.8172 45.0086 17.5607C45.0237 17.5131 45.0385 17.4655 45.0531 17.4184C45.12 17.2029 45.1841 16.9967 45.2638 16.8332C45.3634 16.629 45.464 16.5401 45.5798 16.5417L43.3692 19.0754M43.2734 19.0469L43.3692 19.0755C43.3692 19.0754 43.3692 19.0754 43.3692 19.0754M43.2734 19.0469L43.3692 19.0753C43.3692 19.0753 43.3692 19.0753 43.3692 19.0754M45.5865 16.021L45.5867 16.021C45.754 16.0301 45.8417 16.1624 45.8422 16.2863C45.8425 16.3477 45.822 16.4123 45.7758 16.4623C45.7282 16.5139 45.6598 16.5428 45.5799 16.5417L45.5865 16.021ZM45.5865 16.021C45.3859 16.0105 45.2117 16.0482 45.0624 16.1372C44.9137 16.2258 44.7976 16.3606 44.705 16.5314C44.64 16.6508 44.6102 16.7782 44.5905 16.8988C44.5825 16.948 44.576 16.9977 44.5696 17.0455C44.5682 17.0561 44.5669 17.0667 44.5655 17.0771C44.5577 17.1352 44.5498 17.1905 44.5392 17.2437L44.5389 17.2436M45.5865 16.021L44.5389 17.2436M44.5389 17.2436L44.538 17.2514M44.5389 17.2436L44.538 17.2514M44.538 17.2514C44.5268 17.3446 44.5067 17.4358 44.4776 17.5252C44.4194 17.5455 44.3722 17.5568 44.3351 17.5608C44.2883 17.5658 44.2677 17.5583 44.2606 17.554C44.2574 17.5521 44.25 17.5475 44.2457 17.5237C44.2408 17.4967 44.242 17.453 44.2571 17.3875L44.2669 17.3448M44.538 17.2514L44.2669 17.3448M44.2669 17.3448L44.2422 17.3086C44.2147 17.2683 44.1952 17.2245 44.1765 17.1754C44.1717 17.1628 44.1667 17.1491 44.1614 17.1348C44.1478 17.0976 44.1327 17.0561 44.1156 17.019C44.0903 16.9643 44.0563 16.908 44.0025 16.8591C43.9484 16.8099 43.8795 16.773 43.7907 16.7492M44.2669 17.3448L44.1597 17.365C44.1153 17.3001 44.0901 17.2311 44.0659 17.1648C44.0156 17.027 43.9694 16.9006 43.7648 16.8458M43.7648 16.8458L43.7907 16.7492M43.7648 16.8458C43.5426 16.7861 43.3217 16.8965 43.1848 17.0558L43.7907 16.7492M43.7648 16.8458L43.7907 16.7492C43.7907 16.7492 43.7907 16.7492 43.7907 16.7492M42.3153 18.3555L42.3148 18.3644C42.3011 18.6095 42.3559 18.748 42.4436 18.8189C42.525 18.8849 42.6619 18.915 42.8777 18.8793L42.3153 18.3555ZM42.3153 18.3555L42.3142 18.3466M42.3153 18.3555L42.3142 18.3466M42.3142 18.3466C42.2911 18.1605 42.3154 17.9698 42.354 17.7699M42.3142 18.3466L42.354 17.7699M42.354 17.7699C42.3657 17.7096 42.3789 17.6475 42.3923 17.5845M42.354 17.7699L42.3923 17.5845M42.3923 17.5845C42.422 17.4445 42.4528 17.2998 42.4698 17.1594L42.3923 17.5845ZM41.4875 15.6555C41.7108 15.6467 41.8946 15.6931 42.0417 15.7846C42.1887 15.876 42.2917 16.008 42.3613 16.1583C42.4987 16.4552 42.5096 16.8331 42.4698 17.1593L41.4666 15.9352C41.4279 15.9299 41.3919 15.9094 41.3697 15.874C41.3491 15.8411 41.3464 15.8051 41.3514 15.7765C41.3608 15.7231 41.4064 15.6586 41.4875 15.6555ZM41.4875 15.6555C41.4876 15.6554 41.4876 15.6554 41.4876 15.6554L41.4914 15.7548L41.4914 15.7551L41.4914 15.7554L41.4914 15.7551L41.4914 15.7548L41.4874 15.6555C41.4875 15.6555 41.4875 15.6555 41.4875 15.6555ZM44.9567 17.3917C45.105 16.9138 45.2529 16.4372 45.5812 16.4417L44.9567 17.3917Z"
    fill="#251C1C"
    stroke="#251C1C"
    stroke-width="0.2"
  />
  <path
    d="M39.3122 6.31966L39.3122 6.31966C39.2287 6.34095 39.135 6.32678 39.059 6.289C38.9829 6.25112 38.9086 6.18065 38.8918 6.07685L39.3122 6.31966ZM39.3122 6.31966C39.6261 6.23952 39.9089 5.96449 39.8707 5.60451L39.8707 5.60443M39.3122 6.31966L39.8707 5.60443M39.8707 5.60443C39.8331 5.25294 39.4847 4.97243 39.1115 5.0773L39.1115 5.07731M39.8707 5.60443L39.1115 5.07731M39.1115 5.07731C38.9599 5.11992 38.8648 5.2263 38.8334 5.35188M39.1115 5.07731L38.8334 5.35188M38.8334 5.35188C38.8067 5.45818 38.8269 5.5733 38.8879 5.66749M38.8334 5.35188L38.8879 5.66749M38.8879 5.66749C38.8651 5.79919 38.8688 5.93496 38.8918 6.0768L38.8879 5.66749Z"
    fill="#251C1C"
    stroke="#251C1C"
    stroke-width="0.2"
  />
  <path
    d="M38.6954 16.4648L38.6954 16.4646C38.6994 16.3885 38.7077 16.3212 38.7202 16.2559C38.5749 15.9665 38.8121 15.5641 39.2238 15.6396L38.6954 16.4648ZM38.6954 16.4648C38.688 16.6125 38.7652 16.7319 38.8698 16.8039M38.6954 16.4648L38.8698 16.8039M38.8698 16.8039C38.9731 16.875 39.1096 16.9053 39.2388 16.8751M38.8698 16.8039L39.2388 16.8751M39.2388 16.8751C39.5734 16.7969 39.7484 16.5212 39.7489 16.2489M39.2388 16.8751L39.7489 16.2489M39.7489 16.2489C39.7494 15.9744 39.5728 15.7035 39.2238 15.6396L39.7489 16.2489Z"
    fill="#251C1C"
    stroke="#251C1C"
    stroke-width="0.2"
  />
  <path
    d="M36.0633 10.554C36.0822 10.5497 36.103 10.5375 36.1166 10.5154C36.1209 10.5083 36.124 10.5012 36.126 10.4941C36.1009 10.492 36.0752 10.4901 36.0488 10.4887C36.0487 10.4887 36.0487 10.4887 36.0486 10.4887C36.0478 10.4887 36.0469 10.4886 36.046 10.4886L36.0414 10.5884C35.9778 10.5855 35.939 10.5365 35.931 10.4909C35.9269 10.467 35.9296 10.4378 35.9462 10.4108C35.9637 10.3822 35.9914 10.3649 36.0202 10.3586L36.0416 10.4563L36.0407 10.5884C36.4314 10.6093 36.6512 10.7137 36.7845 10.8786C36.9221 11.0488 36.9844 11.3029 37.0119 11.6639L37.0119 11.6639C37.0225 11.8024 37.032 11.9421 37.0415 12.0824C37.0666 12.4539 37.0921 12.8299 37.1395 13.2004M36.0633 10.554C36.0632 10.554 36.063 10.554 36.0629 10.554L36.0629 10.554L36.0633 10.554ZM36.0633 10.554C36.1476 10.5352 36.2259 10.523 36.2986 10.5168C36.9004 10.6259 37.0625 11.0107 37.1117 11.6563C37.1224 11.7967 37.1319 11.9375 37.1415 12.0785C37.1665 12.449 37.1917 12.8204 37.2387 13.1878M37.2387 13.1878L37.1395 13.2004M37.2387 13.1878L37.1395 13.2005C37.1395 13.2005 37.1395 13.2005 37.1395 13.2004M37.2387 13.1878C37.2861 13.5593 37.3786 14.0545 37.8446 14.1378L37.8269 14.2362C37.827 14.2362 37.827 14.2362 37.827 14.2362C38.0503 14.2762 38.2301 14.2112 38.3612 14.0855C38.4884 13.9636 38.5638 13.7909 38.6002 13.62M37.1395 13.2004L39.1296 10.7107C38.8474 10.7448 38.6901 10.8813 38.5999 11.0783C38.5056 11.2843 38.4824 11.5624 38.4947 11.8754C38.5042 12.1163 38.534 12.3675 38.5629 12.6111C38.5714 12.6829 38.5798 12.754 38.5876 12.824C38.6211 13.1241 38.6445 13.4124 38.6002 13.62M38.6002 13.62C38.6002 13.6201 38.6002 13.6201 38.6002 13.6201L38.5024 13.5992L38.6002 13.62ZM38.3382 10.4755C38.1502 10.6355 38.0366 10.8577 38.0114 11.1605L39.1297 10.7107C39.2197 10.6998 39.2914 10.6583 39.3372 10.5962C39.3819 10.5356 39.3971 10.4618 39.3875 10.3937C39.378 10.3257 39.3431 10.2586 39.2817 10.2137C39.2188 10.1677 39.1372 10.1517 39.0483 10.1704L39.0483 10.1704C38.7693 10.2291 38.5224 10.3188 38.3382 10.4755ZM38.0114 11.1606C37.9899 11.4188 38.003 11.6857 38.0243 11.9478C38.0321 12.0447 38.041 12.14 38.0498 12.2342C38.065 12.3983 38.08 12.5588 38.0886 12.7174L38.0886 12.7174C38.0919 12.7769 38.1028 12.8512 38.1134 12.9232C38.1193 12.9634 38.1251 13.0028 38.1294 13.0385C38.1429 13.1506 38.1441 13.2381 38.1239 13.2944L38.1156 13.3173L38.1188 13.3414C38.1253 13.3896 38.1187 13.4165 38.1113 13.4308C38.1052 13.4427 38.0938 13.4552 38.0657 13.4649C38.0071 13.4852 37.8995 13.485 37.7291 13.4454C37.7049 13.3122 37.6888 13.1777 37.6806 13.0425L37.6807 13.0425L37.6801 13.0376C37.6627 12.8805 37.6529 12.7042 37.6424 12.5151C37.6359 12.3993 37.6292 12.2788 37.6203 12.1549C37.5974 11.8344 37.56 11.4993 37.4728 11.2056C37.3858 10.9124 37.2454 10.6478 37.0073 10.483C36.7663 10.3163 36.4436 10.2643 36.0198 10.3587L38.0114 11.1606ZM39.0689 10.2682L39.0689 10.2682L39.0689 10.2682Z"
    fill="#251C1C"
    stroke="#251C1C"
    stroke-width="0.2"
  />
  <path
    d="M37.2476 21.7803L37.252 21.7626C37.2889 21.6111 37.289 21.4458 37.2722 21.268C37.2616 21.1547 37.245 21.0427 37.2279 20.9275C37.2177 20.8586 37.2073 20.7884 37.1979 20.7161C37.1494 20.343 37.132 19.9417 37.3878 19.5982C37.536 19.3989 37.744 19.2715 37.9624 19.2488C38.1839 19.2257 38.4057 19.3117 38.5696 19.519L38.4912 19.581L38.5695 19.5188C38.6197 19.582 38.6324 19.6555 38.6142 19.7234C38.597 19.7874 38.5546 19.8393 38.5064 19.8744C38.4144 19.9415 38.2534 19.9748 38.1416 19.8526C38.0743 19.7792 38.0239 19.7472 37.9903 19.7358C37.9621 19.7263 37.9451 19.7306 37.9291 19.741C37.9081 19.7547 37.8824 19.7841 37.856 19.8368C37.8303 19.8882 37.8079 19.9538 37.7889 20.0289C37.7124 20.3327 37.7057 20.7356 37.708 20.8018C37.708 20.8019 37.708 20.8019 37.708 20.8019L37.2476 21.7803ZM37.2476 21.7803L37.2498 21.7983M37.2476 21.7803L37.2498 21.7983M37.2498 21.7983C37.2564 21.8531 37.2494 21.8913 37.2363 21.9184C37.2236 21.9447 37.2013 21.9688 37.1621 21.9891C37.0846 22.0293 36.951 22.0495 36.747 22.0351C36.6797 21.9091 36.6399 21.7768 36.6268 21.6374L36.6273 21.6373M37.2498 21.7983L36.6273 21.6373M36.6273 21.6373L36.6254 21.6276M36.6273 21.6373L36.6254 21.6276M36.6254 21.6276C36.589 21.4413 36.5856 21.2564 36.5819 21.0605C36.5809 21.0046 36.5798 20.9478 36.578 20.8899L36.578 20.8897M36.6254 21.6276L36.578 20.8897M36.578 20.8897C36.5765 20.8455 36.5752 20.8007 36.5739 20.7554C36.5655 20.4627 36.5566 20.1509 36.4921 19.8548L36.3944 19.876L36.4921 19.8549C36.4396 19.6116 36.3263 19.3725 36.1455 19.2168C35.9593 19.0565 35.7097 18.9922 35.4126 19.091L35.4126 19.091M36.578 20.8897L35.4126 19.091M35.4126 19.091C35.2809 19.1348 35.2402 19.2608 35.2677 19.3598C35.2813 19.4087 35.3123 19.4559 35.3607 19.4861C35.4109 19.5175 35.4724 19.5258 35.5353 19.5087L35.5353 19.5087M35.4126 19.091L35.5353 19.5087M35.5353 19.5087L35.5355 19.5086M35.5353 19.5087L35.5355 19.5086M35.5355 19.5086C35.6172 19.4861 35.6773 19.495 35.7249 19.5195M35.5355 19.5086L35.7249 19.5195M35.7249 19.5195C35.7748 19.5453 35.8222 19.5944 35.8653 19.6713M35.7249 19.5195L35.8653 19.6713M35.8653 19.6713C35.9528 19.8277 36.0057 20.0686 36.0363 20.3427M35.8653 19.6713L36.0363 20.3427M36.0363 20.3427C36.0666 20.6138 36.0738 20.9042 36.0773 21.1521M36.0363 20.3427L36.0773 21.1521M36.0773 21.1521C36.0779 21.1903 36.0783 21.2275 36.0787 21.2636M36.0773 21.1521L36.0787 21.2636M36.0787 21.2636C36.0797 21.3438 36.0806 21.4181 36.0822 21.4825M36.0787 21.2636L36.0822 21.4825M36.0822 21.4825C36.0845 21.5743 36.0884 21.6546 36.0978 21.7082M36.0822 21.4825L36.0978 21.7082M36.0978 21.7082C36.132 21.9053 36.2025 22.1423 36.3266 22.3439C36.451 22.546 36.6352 22.721 36.8974 22.7714M36.0978 21.7082L37.7053 22.2602C37.5917 22.5785 37.2956 22.8481 36.8974 22.7714M36.8974 22.7714C36.8974 22.7714 36.8973 22.7714 36.8973 22.7714L36.9162 22.6732L36.8974 22.7714Z"
    fill="#251C1C"
    stroke="#251C1C"
    stroke-width="0.2"
  />
  <path
    d="M32.867 20.5294C32.6892 20.5294 32.5484 20.5967 32.4529 20.7035C32.3591 20.8084 32.3142 20.9456 32.3141 21.0796C32.314 21.2137 32.3587 21.3509 32.4525 21.4559C32.548 21.5627 32.6889 21.63 32.867 21.63C33.0449 21.63 33.1857 21.5627 33.2812 21.456C33.3751 21.351 33.42 21.2138 33.4201 21.0798C33.4202 20.9457 33.3754 20.8084 33.2815 20.7035C33.186 20.5967 33.045 20.5294 32.867 20.5294Z"
    fill="#251C1C"
    stroke="#251C1C"
    stroke-width="0.2"
  />
  <path
    d="M85.6705 22.4851C85.691 22.478 85.7116 22.4708 85.733 22.4637C87.0841 22.4377 88.4344 22.4108 89.7854 22.3847C90.4931 22.3713 91.2015 22.3571 91.9091 22.3436C92.4538 22.3334 93.317 22.4803 93.7407 22.0805C94.1307 21.7122 94.1349 20.9875 94.2344 20.5007C94.3611 19.878 94.4887 19.2553 94.6154 18.6326C94.868 17.3927 95.1568 16.1686 94.9782 14.901C94.9124 14.4363 94.125 14.3605 93.9259 14.769C93.4659 15.7094 93.0125 16.6538 92.5443 17.5902C92.1403 18.3987 91.6795 19.151 90.8872 19.6599C89.2489 20.7125 87.1779 20.7813 85.3644 21.4174C84.674 21.6608 84.9719 22.7301 85.6705 22.4851ZM92.7237 21.1258C92.792 21.1274 92.8611 21.1164 92.9261 21.0919C92.9146 21.1353 92.9072 21.178 92.9072 21.2151C92.9006 21.2159 92.8957 21.2167 92.8891 21.2183C92.8126 21.2033 92.7278 21.2001 92.6406 21.2009C92.6686 21.1756 92.6974 21.1511 92.7237 21.1258Z"
    fill="#39B100"
  />
  <path
    d="M65.5345 8.41564C65.6909 8.36665 65.8299 8.25601 65.9015 8.07109C66.4775 6.58541 67.678 5.41267 69.1722 4.76071C69.401 4.66114 69.4997 4.35373 69.4372 4.13562C69.364 3.88116 69.1369 3.76025 68.8818 3.72943C67.5908 3.57296 66.3335 3.66226 65.458 4.69987C64.6163 5.69796 64.483 6.97106 64.4303 8.20939C64.4023 8.84475 65.3148 8.91192 65.5345 8.41564Z"
    fill="#39B100"
  />
  <path
    d="M66.792 2.06205L66.792 2.06207C67.0135 2.09993 67.2468 2.08632 67.493 2.06125C67.546 2.05585 67.5999 2.04988 67.6543 2.04384C67.8481 2.02237 68.049 2.0001 68.2463 1.99979L66.792 2.06205ZM66.792 2.06205C66.174 1.95688 65.7324 2.13039 65.2318 2.41339L65.2317 2.41345M66.792 2.06205L65.2317 2.41345M65.2317 2.41345C64.0739 3.06974 63.4334 4.05575 63.2411 5.26486L63.2411 5.26489M65.2317 2.41345L63.2411 5.26489M63.2411 5.26489C63.0306 6.59159 62.9126 7.94011 62.8738 9.28189C62.8329 10.6886 62.8333 12.0984 62.8338 13.5066C62.834 14.3371 62.8343 15.1671 62.826 15.9954L62.826 15.9955M63.2411 5.26489L62.826 15.9955M62.826 15.9955C62.8182 16.8275 62.7969 17.658 62.7755 18.4894C62.7611 19.0503 62.7467 19.6117 62.7364 20.1742L62.7364 20.1743M62.826 15.9955L62.7364 20.1743M62.7364 20.1743C62.7151 21.3554 63.4586 22.5101 64.5797 22.8712L64.5797 22.8712M62.7364 20.1743L64.5797 22.8712M64.5797 22.8712C65.2553 23.0883 65.9735 23.1967 66.6711 23.2985L66.6711 23.2986M64.5797 22.8712L66.6711 23.2986M66.6711 23.2986C67.1624 23.3701 67.6608 23.4093 68.1604 23.4486M66.6711 23.2986L68.1604 23.4486M66.9709 27.7616L66.9709 27.7615C67.4655 26.6449 67.9312 25.5165 68.3975 24.387C68.5054 24.1254 68.6134 23.8638 68.7218 23.6023C68.7218 23.6023 68.7218 23.6023 68.7218 23.6023L66.9709 27.7616ZM66.9709 27.7616C66.9622 27.7813 66.953 27.8014 66.9438 27.8218C66.8852 27.9507 66.821 28.0919 66.8144 28.2415C66.8062 28.4275 66.884 28.6125 67.0931 28.8205L67.1599 28.887M66.9709 27.7616L67.1599 28.887M67.1599 28.887L67.2302 28.8241M67.1599 28.887L67.2302 28.8241M67.2302 28.8241C67.3062 28.7561 67.3817 28.6913 67.4556 28.6278M67.2302 28.8241L67.4556 28.6278M87.7271 23.5667L87.727 23.5667C87.6005 23.5691 87.4722 23.5737 87.343 23.5783L87.7271 23.5667ZM87.7271 23.5667C87.9465 23.5623 88.1651 23.556 88.3832 23.5497C88.8757 23.5355 89.3656 23.5214 89.8562 23.5295H89.8562M87.7271 23.5667L89.8562 23.5295M89.8562 23.5295C90.9226 23.5469 91.989 23.5769 93.0516 23.6408C93.7554 23.6842 94.2623 23.3797 94.7223 22.9597C95.3974 22.3437 95.4836 21.5313 95.5643 20.77C95.5743 20.6756 95.5842 20.5821 95.5951 20.4897C95.6861 19.722 95.7602 18.9503 95.8342 18.18C95.886 17.6409 95.9377 17.1024 95.9951 16.5666C96.0352 16.1937 96.0846 15.8218 96.1342 15.4485L96.1465 15.3552C96.2001 14.9511 96.253 14.5453 96.2931 14.1381C96.3557 13.5039 96.409 12.8706 96.4622 12.2382C96.55 11.1941 96.6377 10.1524 96.7667 9.11298L96.7667 9.11291M89.8562 23.5295L96.7667 9.11291M96.7667 9.11291C96.9623 7.52924 97.0248 5.96538 96.6312 4.38007M96.7667 9.11291L96.6312 4.38007M87.3817 1.85438L87.3817 1.85438C87.8025 1.85671 88.2232 1.85946 88.6439 1.86221C90.2211 1.87252 91.7975 1.88282 93.3746 1.87098L87.3817 1.85438ZM87.3817 1.85438C86.7292 1.85089 86.0757 1.84447 85.4218 1.83805C84.5954 1.82993 83.7686 1.82181 82.9431 1.81961L82.9428 1.9196M87.3817 1.85438L82.9428 1.9196M82.9428 1.9196L82.9431 1.81961C82.3759 1.81812 81.8076 1.82661 81.2405 1.83509M82.9428 1.9196L81.2405 1.83509M77.2738 2.58537L77.2738 2.58537C76.9037 2.59825 76.5326 2.61481 76.161 2.63139C75.465 2.66244 74.7672 2.69358 74.0706 2.7008L77.2738 2.58537ZM77.2738 2.58537C77.4106 2.58053 77.5473 2.57544 77.6839 2.57034M77.2738 2.58537L77.6839 2.57034M93.7658 2.741L93.7658 2.741C92.0987 2.66439 90.4309 2.60831 88.7623 2.57434C87.9062 2.55704 87.0515 2.55894 86.1956 2.56083L93.7658 2.741ZM93.7658 2.741C94.292 2.76502 94.7039 2.92686 95.0245 3.19352C95.346 3.46106 95.5822 3.8396 95.7462 4.3069L95.7462 4.30694L93.7658 2.741ZM94.6154 21.3868L94.5171 21.3684C94.568 21.0954 94.5975 20.8179 94.6246 20.5363C94.6284 20.4958 94.6323 20.4552 94.6361 20.4145C94.6589 20.1735 94.682 19.9295 94.7172 19.6876L94.6154 21.3868ZM94.6154 21.3868L94.5171 21.3684C94.4156 21.9124 94.2778 22.2336 94.0423 22.4358C93.8054 22.6393 93.4515 22.7383 92.8742 22.7878C92.7239 22.8003 92.5749 22.7973 92.4201 22.7942C92.3561 22.7929 92.2911 22.7916 92.2246 22.7914L92.2245 22.7914M94.6154 21.3868L92.2245 22.7914M92.2245 22.7914C91.4674 22.7895 90.7104 22.7888 89.9535 22.7881C88.2179 22.7866 86.4826 22.785 84.7474 22.7685L84.7474 22.7685M92.2245 22.7914L84.7474 22.7685M84.7474 22.7685C83.4322 22.7565 82.1132 22.7353 80.7939 22.714C79.3446 22.6907 77.8948 22.6674 76.4491 22.6563H76.449M84.7474 22.7685L76.449 22.6563M76.449 22.6563C76.0079 22.6531 75.5671 22.6774 75.1293 22.7041C75.0838 22.7068 75.0383 22.7096 74.9929 22.7124C74.6002 22.7366 74.2101 22.7606 73.8203 22.7669C73.3141 22.7747 72.8026 22.7318 72.2968 22.6666L72.2966 22.6665M76.449 22.6563L72.2966 22.6665M72.2966 22.6665C72.1255 22.6448 71.9886 22.6587 71.8647 22.7201C71.7439 22.7799 71.6468 22.8797 71.545 23.0044L71.5448 23.0046M72.2966 22.6665L71.5448 23.0046M71.5448 23.0046C70.718 24.0229 69.8675 25.0233 69.0163 26.0245M71.5448 23.0046L69.0163 26.0245M69.5366 22.7117L69.5624 22.7522C69.6976 22.9639 69.7186 23.1638 69.6815 23.3566C69.6493 23.5239 69.5726 23.687 69.4999 23.8418L69.5366 22.7117ZM69.5366 22.7117L69.4888 22.7066M69.5366 22.7117L69.4888 22.7066M69.4888 22.7066C69.1263 22.668 68.7637 22.6303 68.4011 22.5925M69.4888 22.7066L68.4011 22.5925M63.5732 10.0313L63.5732 10.0313C63.5244 12.3505 63.5132 14.6697 63.5019 16.9901C63.498 17.8014 63.494 18.6128 63.4885 19.4244C63.4875 19.571 63.4997 19.7124 63.5124 19.8588L63.5732 10.0313ZM63.5732 10.0313C63.6044 8.53746 63.7193 7.03997 63.8926 5.55372L63.8926 5.55369M63.5732 10.0313L63.8926 5.55369M63.8926 5.55369C63.9577 4.99398 64.221 4.42676 64.505 3.90011C64.8788 3.20916 65.4991 2.88214 66.366 2.86991L66.366 2.86991M63.8926 5.55369L66.366 2.86991M66.366 2.86991C67.039 2.86039 67.7108 2.81973 68.3802 2.77766C68.4159 2.77541 68.4517 2.77316 68.4874 2.77092C69.1215 2.73098 69.7534 2.69119 70.3856 2.67628L70.3857 2.67628M66.366 2.86991L70.3857 2.67628M70.3857 2.67628C70.9971 2.66133 71.6096 2.67076 72.2242 2.68232M70.3857 2.67628L72.2242 2.68232M68.1604 23.4486C68.3478 23.4634 68.5353 23.4781 68.7227 23.4946L68.1604 23.4486ZM67.4556 28.6278C67.6195 28.487 67.7757 28.3528 67.9123 28.206M67.4556 28.6278L67.9123 28.206M67.9123 28.206L68.0646 28.0428C69.2743 26.746 70.4846 25.4487 71.6752 24.1352M67.9123 28.206L71.6752 24.1352M71.6752 24.1352C71.9649 23.8166 72.2673 23.6569 72.7208 23.5967C74.5256 23.3585 76.3315 23.3708 78.1452 23.3831C79.0391 23.3892 79.9349 23.3953 80.8333 23.3715C82.0935 23.3382 83.3536 23.4132 84.6188 23.4886C85.2414 23.5257 85.8652 23.5628 86.4909 23.5872L71.6752 24.1352ZM96.6312 4.38007C96.4384 3.60418 96.0417 2.97241 95.4815 2.53641M96.6312 4.38007L95.4815 2.53641M95.4815 2.53641C94.9212 2.10036 94.203 1.8645 93.3747 1.87098L95.4815 2.53641ZM81.2405 1.83509C80.9047 1.84012 80.5693 1.84513 80.2349 1.84806M81.2405 1.83509L80.2349 1.84806M80.2349 1.84806L80.2358 1.94806L80.2349 1.84806ZM77.6839 2.57034C78.2857 2.5479 78.8856 2.52552 79.4852 2.52616M77.6839 2.57034L79.4852 2.52616M79.4852 2.52616C80.5125 2.5271 81.5391 2.53589 82.5661 2.54468M79.4852 2.52616L82.5661 2.54468M82.5661 2.54468C83.2633 2.55065 83.9607 2.55662 84.6587 2.56014L82.5661 2.54468ZM69.0163 26.0245C68.748 26.3401 68.4797 26.6557 68.212 26.972M69.0163 26.0245L68.212 26.972M68.212 26.972L68.1777 26.9478L68.1355 26.918C68.2521 26.6526 68.3677 26.387 68.4833 26.1217C68.8087 25.3747 69.1334 24.6292 69.4766 23.8915L68.212 26.972ZM68.4011 22.5925C67.5759 22.5067 66.7506 22.4208 65.9262 22.3242M68.4011 22.5925L65.9262 22.3242M65.9262 22.3242C65.1808 22.2365 64.5991 21.9757 64.1965 21.5957M65.9262 22.3242C65.9262 22.3242 65.9262 22.3243 65.9262 22.3243L65.9145 22.4236L64.1965 21.5957M64.1965 21.5957C63.7948 21.2164 63.5656 20.713 63.5328 20.127L64.1965 21.5957ZM72.2242 2.68232C72.2811 2.68339 72.3379 2.68448 72.3948 2.68556M72.2242 2.68232L72.3948 2.68556M72.3948 2.68556C72.9523 2.69622 73.5116 2.70692 74.0706 2.7008L72.3948 2.68556ZM78.6734 1.85127C78.0732 1.86947 77.4744 1.89307 76.8761 1.91665C75.8603 1.95668 74.8461 1.99665 73.8296 2.01007C72.7077 2.02483 71.5872 2.01691 70.4657 2.00898C69.7266 2.00376 68.9871 1.99853 68.2463 1.99979L78.6734 1.85127Z"
    fill="#251C1C"
    stroke="#251C1C"
    stroke-width="0.2"
  />
  <path
    d="M112.4 18.9108C111.685 19.6728 111.028 19.3755 110.429 18.0189C110.539 17.6414 110.673 17.2714 110.829 16.9092C110.917 16.62 110.987 16.3723 111.033 16.1292C111.167 15.694 111.21 15.2538 110.994 14.7557C110.972 14.7818 110.951 14.8067 110.931 14.8311C110.788 14.699 110.566 14.659 110.403 14.8311C109.835 15.4323 109.616 15.0811 109.57 14.5341C109.567 14.386 109.571 14.238 109.566 14.0899C109.571 13.9757 109.582 13.8616 109.596 13.7523C109.704 12.908 109.891 12.0941 110.14 11.29C110.231 11.0565 110.321 10.8224 110.409 10.5877C110.44 10.5048 110.458 10.4176 110.469 10.3284C110.484 10.2887 110.498 10.249 110.514 10.2093C110.548 10.1195 110.533 10.0282 110.489 9.94936C110.491 9.85895 110.494 9.76886 110.501 9.68077C110.455 9.66918 110.408 9.65759 110.361 9.646C110.342 9.69004 110.323 9.73264 110.303 9.77378C110.189 9.7167 110.053 9.7083 109.94 9.78566C109.614 10.0641 109.23 10.2319 108.788 10.2895C108.638 10.3231 108.482 10.4947 108.501 10.6512C108.609 11.53 108.682 12.4073 108.728 13.2835C108.533 14.2336 108.477 15.1608 108.772 15.789C108.747 17.4072 108.615 19.022 108.373 20.6345C108.207 21.1914 108 21.7416 107.742 22.2835C107.781 22.2988 107.822 22.3124 107.862 22.3252C107.869 22.5428 108.06 22.7711 108.35 22.7111C108.356 22.71 108.361 22.7088 108.367 22.7077C108.516 22.761 108.687 22.7421 108.783 22.6173C110.72 22.178 112.59 21.4443 112.974 19.3347C113.025 19.0516 112.704 18.6964 112.4 18.9108Z"
    fill="#39B100"
  />
  <path
    d="M119.55 14.5781C119.194 14.5502 118.839 14.5224 118.483 14.4949C118.308 14.2764 117.827 14.2251 117.77 14.5844C117.667 15.2245 117.746 15.8388 117.701 16.4768C117.626 17.5457 116.865 18.0974 116.494 19.0115C116.141 19.8802 116.417 20.752 116.829 21.5468C116.871 21.6601 116.918 21.7729 116.971 21.8853C117.015 21.9786 117.083 22.0614 117.166 22.1443C117.193 22.1895 117.22 22.2347 117.248 22.2793C117.314 22.3886 117.409 22.4416 117.508 22.4543C117.557 22.4984 117.606 22.5447 117.656 22.5949C117.665 22.5401 117.674 22.488 117.682 22.4372C117.74 22.419 117.795 22.3894 117.84 22.3512C117.953 22.3152 118.05 22.2341 118.087 22.1055C118.766 19.7373 119.445 17.3695 120.123 15.0014C120.207 14.7102 119.836 14.3767 119.55 14.5781Z"
    fill="#39B100"
  />
  <mask
    id="path-19-outside-2_665_20651"
    maskUnits="userSpaceOnUse"
    x="97.8809"
    y="0.653809"
    width="23"
    height="29"
    fill="black"
  >
    <rect fill="white" x="97.8809" y="0.653809" width="23" height="29" />
    <path
      d="M120.065 7.96884C119.87 7.28996 119.81 6.57602 119.634 5.89105C119.291 4.55588 118.777 3.28038 118.09 2.06923C117.92 1.77049 117.698 1.6372 117.354 1.65545C116.886 1.68037 116.416 1.68733 115.949 1.71921C114.448 1.8212 112.947 1.93045 111.446 2.03969C111.318 2.04925 111.183 2.05936 111.064 2.10225C109.963 2.49979 108.809 2.57309 107.653 2.62032C107.364 2.6322 107.073 2.59483 106.784 2.57773C106.455 2.55832 106.291 2.67365 106.362 3.01672C106.524 3.80368 106.676 4.59208 106.835 5.37962C106.853 5.4709 106.878 5.561 106.905 5.65025C107.088 6.2564 107.326 6.85242 107.445 7.46987C107.695 8.76071 107.899 10.0606 108.088 11.3612C108.186 12.0361 108.21 12.7208 108.273 13.4005C108.362 14.3689 108.564 15.3412 108.522 16.3038C108.467 17.5824 108.252 18.8577 108.047 20.1253C107.968 20.6153 107.784 21.1084 107.55 21.5523C107.151 22.3086 106.655 23.0347 105.854 23.4441C105.013 23.875 104.121 24.2163 103.245 24.5846C102.261 24.9983 101.259 25.3747 100.29 25.8198C100.01 25.9484 99.7932 26.2379 99.5962 26.4888C99.4273 26.7041 99.3883 27.0428 99.1853 27.1984C98.7288 27.5481 98.896 27.9686 98.9883 28.3476C99.0818 28.7309 99.49 28.6672 99.8056 28.675C100.985 28.7043 102.166 28.726 103.346 28.7503C103.348 28.7292 103.35 28.708 103.353 28.6868C104.251 28.6303 105.149 28.5675 106.048 28.5185C107.737 28.4264 109.427 28.3305 111.118 28.2624C111.554 28.2447 111.665 28.0538 111.672 27.682C111.68 27.2375 111.645 26.7664 111.783 26.3547C112.111 25.3799 112.792 24.6533 113.746 24.1766C114.282 23.9089 114.976 24.0016 115.386 24.4377C116.079 25.1774 116.296 26.1234 116.495 27.0556C116.69 27.9729 116.692 28.0126 117.659 27.9929C117.708 27.9921 117.756 27.99 117.805 27.9883C118.115 27.9776 118.28 27.8524 118.259 27.5255C118.203 26.665 118.117 25.8027 118.128 24.9421C118.145 23.6655 117.94 22.37 118.458 21.125C118.694 20.555 118.839 19.95 119.043 19.3668C119.37 18.4338 119.808 17.5257 120.024 16.5704C120.283 15.427 120.393 14.248 120.499 13.0786C120.547 12.5492 120.4 12.0065 120.389 11.469C120.365 10.2947 120.397 9.12234 120.065 7.96884ZM108.378 10.2495C107.896 8.04244 107.361 5.58941 106.839 3.19521C108.455 2.98688 109.998 2.7881 111.465 2.5989C110.771 3.78572 109.882 4.97746 109.353 6.30162C108.823 7.62636 108.651 9.08322 108.378 10.2495ZM108.96 15.3276C108.94 14.3263 108.74 13.3295 108.699 12.3276C108.675 11.7379 108.803 11.1425 108.865 10.5215C109.662 10.6018 110.103 10.2616 110.36 9.64736C110.407 9.65895 110.454 9.67055 110.501 9.68214C110.473 9.98579 110.512 10.3118 110.408 10.5893C109.982 11.7315 109.507 12.8572 109.062 13.9933C108.862 14.5033 109.126 14.9466 109.398 15.3352C109.628 15.6649 110.265 15.5994 110.55 15.2813C110.683 15.1326 110.808 14.9773 110.993 14.7571C111.218 15.276 111.163 15.7321 111.016 16.185C110.801 16.8465 110.56 17.5005 110.349 18.1628C110.193 18.6519 110.189 19.1315 110.702 19.4444C111.159 19.7231 111.622 19.6495 112.062 19.3746C112.115 19.3412 112.177 19.3184 112.237 19.2995C112.264 19.2914 112.298 19.305 112.329 19.3088C112.471 20.7353 109.506 22.9797 107.741 22.2848C108.795 20.0694 109.01 17.7146 108.96 15.3276ZM111.054 27.8159C110.894 27.926 110.668 27.9906 110.467 27.9978C109.014 28.05 107.559 28.0735 106.105 28.1245C104.834 28.1688 103.565 28.2372 102.294 28.2951C102.293 28.3056 102.291 28.3163 102.29 28.3267C101.482 28.3099 100.674 28.2974 99.8668 28.2737C99.6526 28.2673 99.373 28.3145 99.3702 27.9804C99.3675 27.6539 99.6137 27.6275 99.8744 27.6206C100.86 27.5939 101.846 27.5803 102.831 27.5302C104.567 27.4421 106.303 27.336 108.039 27.2271C108.776 27.1807 109.511 27.099 110.248 27.0512C110.486 27.0359 110.736 27.0475 110.965 27.1048C111.08 27.1341 111.232 27.29 111.238 27.3951C111.245 27.5365 111.168 27.7382 111.054 27.8159ZM117.766 27.6246C117.56 27.5757 117.353 27.5267 117.147 27.478C117.174 27.3998 117.209 27.2526 117.226 27.2543C117.429 27.2772 117.63 27.3221 117.832 27.3612C117.81 27.449 117.788 27.5369 117.766 27.6246ZM119.19 17.7557C119.001 18.3909 118.749 19.0092 118.525 19.6348C118.299 20.2621 118.058 20.8845 117.855 21.5182C117.761 21.8085 117.741 22.1205 117.656 22.5963C117.368 22.3057 117.088 22.1318 116.972 21.8864C116.536 20.965 116.48 20.0085 116.824 19.0376C116.89 18.851 116.899 18.6456 116.934 18.4529C117.724 18.4361 118.278 18.0122 118.418 17.3115C118.44 17.2017 118.383 17.0737 118.348 16.9584C118.113 16.1908 117.975 15.4224 118.249 14.6977C118.778 14.8009 119.265 14.8956 119.929 15.0251C119.689 15.9204 119.463 16.8445 119.19 17.7557ZM120.057 13.3892C120.05 13.6763 119.928 14.0269 119.726 14.2237C119.554 14.3915 119.183 14.4517 118.919 14.419C118.783 14.4022 118.672 14.0855 118.58 13.891C118.522 13.767 118.52 13.6187 118.492 13.4813C118.43 13.4741 118.367 13.4669 118.304 13.4599C118.177 13.7328 118.022 13.9974 117.928 14.281C117.686 15.0196 117.644 15.771 117.813 16.5359C117.872 16.8054 117.901 17.0939 117.871 17.366C117.817 17.8441 117.456 18.0104 117.006 17.7908C116.807 17.6937 116.624 17.6138 116.583 17.9183C116.458 18.8513 116.245 19.7869 116.258 20.7193C116.269 21.4944 116.527 22.275 117.302 22.7513C117.56 22.9095 117.676 23.1234 117.687 23.4444C117.72 24.418 117.816 25.3892 117.858 26.3625C117.864 26.5149 117.681 26.8145 117.641 26.8061C117.361 26.7476 116.978 26.9573 116.822 26.519C116.599 25.8954 116.367 25.2716 116.082 24.6726C115.572 23.6032 114.275 23.3691 113.261 23.9306C112.326 24.4487 111.763 25.213 111.373 26.1298C111.211 26.5117 110.97 26.645 110.532 26.667C108.857 26.7516 107.186 26.9069 105.511 26.9988C103.755 27.0953 101.997 27.1567 100.239 27.2175C99.7769 27.2338 99.7163 27.1231 99.9902 26.7478C100.158 26.5186 100.374 26.2747 100.629 26.1602C101.586 25.7297 102.577 25.3657 103.54 24.9459C104.515 24.5208 105.478 24.0685 106.434 23.6055C106.64 23.5055 106.839 23.3352 106.966 23.15C107.244 22.7452 107.626 22.7426 108.063 22.7684C110.163 22.8921 111.582 21.8488 112.591 20.2134C112.841 19.8069 112.894 19.2766 112.98 18.7936C113.012 18.6134 112.876 18.4062 112.817 18.2112C112.762 18.1901 112.707 18.1689 112.652 18.1478C112.401 18.4112 112.156 18.6797 111.899 18.9365C111.602 19.2323 111.209 19.2819 110.877 19.0903C110.55 18.9008 110.653 18.543 110.763 18.2411C110.981 17.6465 111.22 17.0583 111.423 16.4591C111.71 15.6136 111.517 14.8078 111.135 14.033C111.097 13.9554 110.936 13.8699 110.86 13.889C110.759 13.9142 110.65 14.0249 110.607 14.124C110.508 14.3509 110.491 14.6201 110.357 14.8203C110.26 14.9643 110.037 15.0657 109.852 15.1025C109.777 15.1175 109.64 14.9205 109.557 14.8032C109.334 14.4908 109.392 14.1915 109.542 13.8459C109.993 12.8097 110.43 11.7654 110.806 10.7026C111.06 9.9826 110.831 9.25967 110.593 8.56224C110.565 8.48024 110.443 8.4278 110.364 8.36173C110.288 8.44895 110.174 8.52545 110.143 8.62571C110.041 8.95921 109.985 9.30633 109.875 9.63723C109.835 9.75574 109.708 9.87191 109.589 9.93507C109.449 10.0095 109.257 10.0849 109.123 10.0455C109.035 10.0197 108.979 9.7957 108.966 9.65517C108.951 9.50508 108.988 9.34544 109.027 9.19593C109.316 8.09111 109.572 6.97616 109.923 5.88989C110.066 5.44831 110.415 5.0667 110.679 4.66365C111.02 4.14413 111.3 3.56259 111.74 3.13578C112.073 2.813 112.596 2.62265 113.07 2.49313C114.302 2.15586 115.568 2.09124 116.852 2.09732C117.472 2.10051 117.817 2.32419 118.005 2.78692C118.456 3.89232 118.91 5.00236 119.254 6.1405C119.791 7.91551 119.959 9.74618 119.953 11.5942C119.951 12.1925 120.072 12.792 120.057 13.3892Z"
    />
  </mask>
  <path
    d="M120.065 7.96884C119.87 7.28996 119.81 6.57602 119.634 5.89105C119.291 4.55588 118.777 3.28038 118.09 2.06923C117.92 1.77049 117.698 1.6372 117.354 1.65545C116.886 1.68037 116.416 1.68733 115.949 1.71921C114.448 1.8212 112.947 1.93045 111.446 2.03969C111.318 2.04925 111.183 2.05936 111.064 2.10225C109.963 2.49979 108.809 2.57309 107.653 2.62032C107.364 2.6322 107.073 2.59483 106.784 2.57773C106.455 2.55832 106.291 2.67365 106.362 3.01672C106.524 3.80368 106.676 4.59208 106.835 5.37962C106.853 5.4709 106.878 5.561 106.905 5.65025C107.088 6.2564 107.326 6.85242 107.445 7.46987C107.695 8.76071 107.899 10.0606 108.088 11.3612C108.186 12.0361 108.21 12.7208 108.273 13.4005C108.362 14.3689 108.564 15.3412 108.522 16.3038C108.467 17.5824 108.252 18.8577 108.047 20.1253C107.968 20.6153 107.784 21.1084 107.55 21.5523C107.151 22.3086 106.655 23.0347 105.854 23.4441C105.013 23.875 104.121 24.2163 103.245 24.5846C102.261 24.9983 101.259 25.3747 100.29 25.8198C100.01 25.9484 99.7932 26.2379 99.5962 26.4888C99.4273 26.7041 99.3883 27.0428 99.1853 27.1984C98.7288 27.5481 98.896 27.9686 98.9883 28.3476C99.0818 28.7309 99.49 28.6672 99.8056 28.675C100.985 28.7043 102.166 28.726 103.346 28.7503C103.348 28.7292 103.35 28.708 103.353 28.6868C104.251 28.6303 105.149 28.5675 106.048 28.5185C107.737 28.4264 109.427 28.3305 111.118 28.2624C111.554 28.2447 111.665 28.0538 111.672 27.682C111.68 27.2375 111.645 26.7664 111.783 26.3547C112.111 25.3799 112.792 24.6533 113.746 24.1766C114.282 23.9089 114.976 24.0016 115.386 24.4377C116.079 25.1774 116.296 26.1234 116.495 27.0556C116.69 27.9729 116.692 28.0126 117.659 27.9929C117.708 27.9921 117.756 27.99 117.805 27.9883C118.115 27.9776 118.28 27.8524 118.259 27.5255C118.203 26.665 118.117 25.8027 118.128 24.9421C118.145 23.6655 117.94 22.37 118.458 21.125C118.694 20.555 118.839 19.95 119.043 19.3668C119.37 18.4338 119.808 17.5257 120.024 16.5704C120.283 15.427 120.393 14.248 120.499 13.0786C120.547 12.5492 120.4 12.0065 120.389 11.469C120.365 10.2947 120.397 9.12234 120.065 7.96884ZM108.378 10.2495C107.896 8.04244 107.361 5.58941 106.839 3.19521C108.455 2.98688 109.998 2.7881 111.465 2.5989C110.771 3.78572 109.882 4.97746 109.353 6.30162C108.823 7.62636 108.651 9.08322 108.378 10.2495ZM108.96 15.3276C108.94 14.3263 108.74 13.3295 108.699 12.3276C108.675 11.7379 108.803 11.1425 108.865 10.5215C109.662 10.6018 110.103 10.2616 110.36 9.64736C110.407 9.65895 110.454 9.67055 110.501 9.68214C110.473 9.98579 110.512 10.3118 110.408 10.5893C109.982 11.7315 109.507 12.8572 109.062 13.9933C108.862 14.5033 109.126 14.9466 109.398 15.3352C109.628 15.6649 110.265 15.5994 110.55 15.2813C110.683 15.1326 110.808 14.9773 110.993 14.7571C111.218 15.276 111.163 15.7321 111.016 16.185C110.801 16.8465 110.56 17.5005 110.349 18.1628C110.193 18.6519 110.189 19.1315 110.702 19.4444C111.159 19.7231 111.622 19.6495 112.062 19.3746C112.115 19.3412 112.177 19.3184 112.237 19.2995C112.264 19.2914 112.298 19.305 112.329 19.3088C112.471 20.7353 109.506 22.9797 107.741 22.2848C108.795 20.0694 109.01 17.7146 108.96 15.3276ZM111.054 27.8159C110.894 27.926 110.668 27.9906 110.467 27.9978C109.014 28.05 107.559 28.0735 106.105 28.1245C104.834 28.1688 103.565 28.2372 102.294 28.2951C102.293 28.3056 102.291 28.3163 102.29 28.3267C101.482 28.3099 100.674 28.2974 99.8668 28.2737C99.6526 28.2673 99.373 28.3145 99.3702 27.9804C99.3675 27.6539 99.6137 27.6275 99.8744 27.6206C100.86 27.5939 101.846 27.5803 102.831 27.5302C104.567 27.4421 106.303 27.336 108.039 27.2271C108.776 27.1807 109.511 27.099 110.248 27.0512C110.486 27.0359 110.736 27.0475 110.965 27.1048C111.08 27.1341 111.232 27.29 111.238 27.3951C111.245 27.5365 111.168 27.7382 111.054 27.8159ZM117.766 27.6246C117.56 27.5757 117.353 27.5267 117.147 27.478C117.174 27.3998 117.209 27.2526 117.226 27.2543C117.429 27.2772 117.63 27.3221 117.832 27.3612C117.81 27.449 117.788 27.5369 117.766 27.6246ZM119.19 17.7557C119.001 18.3909 118.749 19.0092 118.525 19.6348C118.299 20.2621 118.058 20.8845 117.855 21.5182C117.761 21.8085 117.741 22.1205 117.656 22.5963C117.368 22.3057 117.088 22.1318 116.972 21.8864C116.536 20.965 116.48 20.0085 116.824 19.0376C116.89 18.851 116.899 18.6456 116.934 18.4529C117.724 18.4361 118.278 18.0122 118.418 17.3115C118.44 17.2017 118.383 17.0737 118.348 16.9584C118.113 16.1908 117.975 15.4224 118.249 14.6977C118.778 14.8009 119.265 14.8956 119.929 15.0251C119.689 15.9204 119.463 16.8445 119.19 17.7557ZM120.057 13.3892C120.05 13.6763 119.928 14.0269 119.726 14.2237C119.554 14.3915 119.183 14.4517 118.919 14.419C118.783 14.4022 118.672 14.0855 118.58 13.891C118.522 13.767 118.52 13.6187 118.492 13.4813C118.43 13.4741 118.367 13.4669 118.304 13.4599C118.177 13.7328 118.022 13.9974 117.928 14.281C117.686 15.0196 117.644 15.771 117.813 16.5359C117.872 16.8054 117.901 17.0939 117.871 17.366C117.817 17.8441 117.456 18.0104 117.006 17.7908C116.807 17.6937 116.624 17.6138 116.583 17.9183C116.458 18.8513 116.245 19.7869 116.258 20.7193C116.269 21.4944 116.527 22.275 117.302 22.7513C117.56 22.9095 117.676 23.1234 117.687 23.4444C117.72 24.418 117.816 25.3892 117.858 26.3625C117.864 26.5149 117.681 26.8145 117.641 26.8061C117.361 26.7476 116.978 26.9573 116.822 26.519C116.599 25.8954 116.367 25.2716 116.082 24.6726C115.572 23.6032 114.275 23.3691 113.261 23.9306C112.326 24.4487 111.763 25.213 111.373 26.1298C111.211 26.5117 110.97 26.645 110.532 26.667C108.857 26.7516 107.186 26.9069 105.511 26.9988C103.755 27.0953 101.997 27.1567 100.239 27.2175C99.7769 27.2338 99.7163 27.1231 99.9902 26.7478C100.158 26.5186 100.374 26.2747 100.629 26.1602C101.586 25.7297 102.577 25.3657 103.54 24.9459C104.515 24.5208 105.478 24.0685 106.434 23.6055C106.64 23.5055 106.839 23.3352 106.966 23.15C107.244 22.7452 107.626 22.7426 108.063 22.7684C110.163 22.8921 111.582 21.8488 112.591 20.2134C112.841 19.8069 112.894 19.2766 112.98 18.7936C113.012 18.6134 112.876 18.4062 112.817 18.2112C112.762 18.1901 112.707 18.1689 112.652 18.1478C112.401 18.4112 112.156 18.6797 111.899 18.9365C111.602 19.2323 111.209 19.2819 110.877 19.0903C110.55 18.9008 110.653 18.543 110.763 18.2411C110.981 17.6465 111.22 17.0583 111.423 16.4591C111.71 15.6136 111.517 14.8078 111.135 14.033C111.097 13.9554 110.936 13.8699 110.86 13.889C110.759 13.9142 110.65 14.0249 110.607 14.124C110.508 14.3509 110.491 14.6201 110.357 14.8203C110.26 14.9643 110.037 15.0657 109.852 15.1025C109.777 15.1175 109.64 14.9205 109.557 14.8032C109.334 14.4908 109.392 14.1915 109.542 13.8459C109.993 12.8097 110.43 11.7654 110.806 10.7026C111.06 9.9826 110.831 9.25967 110.593 8.56224C110.565 8.48024 110.443 8.4278 110.364 8.36173C110.288 8.44895 110.174 8.52545 110.143 8.62571C110.041 8.95921 109.985 9.30633 109.875 9.63723C109.835 9.75574 109.708 9.87191 109.589 9.93507C109.449 10.0095 109.257 10.0849 109.123 10.0455C109.035 10.0197 108.979 9.7957 108.966 9.65517C108.951 9.50508 108.988 9.34544 109.027 9.19593C109.316 8.09111 109.572 6.97616 109.923 5.88989C110.066 5.44831 110.415 5.0667 110.679 4.66365C111.02 4.14413 111.3 3.56259 111.74 3.13578C112.073 2.813 112.596 2.62265 113.07 2.49313C114.302 2.15586 115.568 2.09124 116.852 2.09732C117.472 2.10051 117.817 2.32419 118.005 2.78692C118.456 3.89232 118.91 5.00236 119.254 6.1405C119.791 7.91551 119.959 9.74618 119.953 11.5942C119.951 12.1925 120.072 12.792 120.057 13.3892Z"
    fill="#251C1C"
  />
  <path
    d="M120.065 7.96884C119.87 7.28996 119.81 6.57602 119.634 5.89105C119.291 4.55588 118.777 3.28038 118.09 2.06923C117.92 1.77049 117.698 1.6372 117.354 1.65545C116.886 1.68037 116.416 1.68733 115.949 1.71921C114.448 1.8212 112.947 1.93045 111.446 2.03969C111.318 2.04925 111.183 2.05936 111.064 2.10225C109.963 2.49979 108.809 2.57309 107.653 2.62032C107.364 2.6322 107.073 2.59483 106.784 2.57773C106.455 2.55832 106.291 2.67365 106.362 3.01672C106.524 3.80368 106.676 4.59208 106.835 5.37962C106.853 5.4709 106.878 5.561 106.905 5.65025C107.088 6.2564 107.326 6.85242 107.445 7.46987C107.695 8.76071 107.899 10.0606 108.088 11.3612C108.186 12.0361 108.21 12.7208 108.273 13.4005C108.362 14.3689 108.564 15.3412 108.522 16.3038C108.467 17.5824 108.252 18.8577 108.047 20.1253C107.968 20.6153 107.784 21.1084 107.55 21.5523C107.151 22.3086 106.655 23.0347 105.854 23.4441C105.013 23.875 104.121 24.2163 103.245 24.5846C102.261 24.9983 101.259 25.3747 100.29 25.8198C100.01 25.9484 99.7932 26.2379 99.5962 26.4888C99.4273 26.7041 99.3883 27.0428 99.1853 27.1984C98.7288 27.5481 98.896 27.9686 98.9883 28.3476C99.0818 28.7309 99.49 28.6672 99.8056 28.675C100.985 28.7043 102.166 28.726 103.346 28.7503C103.348 28.7292 103.35 28.708 103.353 28.6868C104.251 28.6303 105.149 28.5675 106.048 28.5185C107.737 28.4264 109.427 28.3305 111.118 28.2624C111.554 28.2447 111.665 28.0538 111.672 27.682C111.68 27.2375 111.645 26.7664 111.783 26.3547C112.111 25.3799 112.792 24.6533 113.746 24.1766C114.282 23.9089 114.976 24.0016 115.386 24.4377C116.079 25.1774 116.296 26.1234 116.495 27.0556C116.69 27.9729 116.692 28.0126 117.659 27.9929C117.708 27.9921 117.756 27.99 117.805 27.9883C118.115 27.9776 118.28 27.8524 118.259 27.5255C118.203 26.665 118.117 25.8027 118.128 24.9421C118.145 23.6655 117.94 22.37 118.458 21.125C118.694 20.555 118.839 19.95 119.043 19.3668C119.37 18.4338 119.808 17.5257 120.024 16.5704C120.283 15.427 120.393 14.248 120.499 13.0786C120.547 12.5492 120.4 12.0065 120.389 11.469C120.365 10.2947 120.397 9.12234 120.065 7.96884ZM108.378 10.2495C107.896 8.04244 107.361 5.58941 106.839 3.19521C108.455 2.98688 109.998 2.7881 111.465 2.5989C110.771 3.78572 109.882 4.97746 109.353 6.30162C108.823 7.62636 108.651 9.08322 108.378 10.2495ZM108.96 15.3276C108.94 14.3263 108.74 13.3295 108.699 12.3276C108.675 11.7379 108.803 11.1425 108.865 10.5215C109.662 10.6018 110.103 10.2616 110.36 9.64736C110.407 9.65895 110.454 9.67055 110.501 9.68214C110.473 9.98579 110.512 10.3118 110.408 10.5893C109.982 11.7315 109.507 12.8572 109.062 13.9933C108.862 14.5033 109.126 14.9466 109.398 15.3352C109.628 15.6649 110.265 15.5994 110.55 15.2813C110.683 15.1326 110.808 14.9773 110.993 14.7571C111.218 15.276 111.163 15.7321 111.016 16.185C110.801 16.8465 110.56 17.5005 110.349 18.1628C110.193 18.6519 110.189 19.1315 110.702 19.4444C111.159 19.7231 111.622 19.6495 112.062 19.3746C112.115 19.3412 112.177 19.3184 112.237 19.2995C112.264 19.2914 112.298 19.305 112.329 19.3088C112.471 20.7353 109.506 22.9797 107.741 22.2848C108.795 20.0694 109.01 17.7146 108.96 15.3276ZM111.054 27.8159C110.894 27.926 110.668 27.9906 110.467 27.9978C109.014 28.05 107.559 28.0735 106.105 28.1245C104.834 28.1688 103.565 28.2372 102.294 28.2951C102.293 28.3056 102.291 28.3163 102.29 28.3267C101.482 28.3099 100.674 28.2974 99.8668 28.2737C99.6526 28.2673 99.373 28.3145 99.3702 27.9804C99.3675 27.6539 99.6137 27.6275 99.8744 27.6206C100.86 27.5939 101.846 27.5803 102.831 27.5302C104.567 27.4421 106.303 27.336 108.039 27.2271C108.776 27.1807 109.511 27.099 110.248 27.0512C110.486 27.0359 110.736 27.0475 110.965 27.1048C111.08 27.1341 111.232 27.29 111.238 27.3951C111.245 27.5365 111.168 27.7382 111.054 27.8159ZM117.766 27.6246C117.56 27.5757 117.353 27.5267 117.147 27.478C117.174 27.3998 117.209 27.2526 117.226 27.2543C117.429 27.2772 117.63 27.3221 117.832 27.3612C117.81 27.449 117.788 27.5369 117.766 27.6246ZM119.19 17.7557C119.001 18.3909 118.749 19.0092 118.525 19.6348C118.299 20.2621 118.058 20.8845 117.855 21.5182C117.761 21.8085 117.741 22.1205 117.656 22.5963C117.368 22.3057 117.088 22.1318 116.972 21.8864C116.536 20.965 116.48 20.0085 116.824 19.0376C116.89 18.851 116.899 18.6456 116.934 18.4529C117.724 18.4361 118.278 18.0122 118.418 17.3115C118.44 17.2017 118.383 17.0737 118.348 16.9584C118.113 16.1908 117.975 15.4224 118.249 14.6977C118.778 14.8009 119.265 14.8956 119.929 15.0251C119.689 15.9204 119.463 16.8445 119.19 17.7557ZM120.057 13.3892C120.05 13.6763 119.928 14.0269 119.726 14.2237C119.554 14.3915 119.183 14.4517 118.919 14.419C118.783 14.4022 118.672 14.0855 118.58 13.891C118.522 13.767 118.52 13.6187 118.492 13.4813C118.43 13.4741 118.367 13.4669 118.304 13.4599C118.177 13.7328 118.022 13.9974 117.928 14.281C117.686 15.0196 117.644 15.771 117.813 16.5359C117.872 16.8054 117.901 17.0939 117.871 17.366C117.817 17.8441 117.456 18.0104 117.006 17.7908C116.807 17.6937 116.624 17.6138 116.583 17.9183C116.458 18.8513 116.245 19.7869 116.258 20.7193C116.269 21.4944 116.527 22.275 117.302 22.7513C117.56 22.9095 117.676 23.1234 117.687 23.4444C117.72 24.418 117.816 25.3892 117.858 26.3625C117.864 26.5149 117.681 26.8145 117.641 26.8061C117.361 26.7476 116.978 26.9573 116.822 26.519C116.599 25.8954 116.367 25.2716 116.082 24.6726C115.572 23.6032 114.275 23.3691 113.261 23.9306C112.326 24.4487 111.763 25.213 111.373 26.1298C111.211 26.5117 110.97 26.645 110.532 26.667C108.857 26.7516 107.186 26.9069 105.511 26.9988C103.755 27.0953 101.997 27.1567 100.239 27.2175C99.7769 27.2338 99.7163 27.1231 99.9902 26.7478C100.158 26.5186 100.374 26.2747 100.629 26.1602C101.586 25.7297 102.577 25.3657 103.54 24.9459C104.515 24.5208 105.478 24.0685 106.434 23.6055C106.64 23.5055 106.839 23.3352 106.966 23.15C107.244 22.7452 107.626 22.7426 108.063 22.7684C110.163 22.8921 111.582 21.8488 112.591 20.2134C112.841 19.8069 112.894 19.2766 112.98 18.7936C113.012 18.6134 112.876 18.4062 112.817 18.2112C112.762 18.1901 112.707 18.1689 112.652 18.1478C112.401 18.4112 112.156 18.6797 111.899 18.9365C111.602 19.2323 111.209 19.2819 110.877 19.0903C110.55 18.9008 110.653 18.543 110.763 18.2411C110.981 17.6465 111.22 17.0583 111.423 16.4591C111.71 15.6136 111.517 14.8078 111.135 14.033C111.097 13.9554 110.936 13.8699 110.86 13.889C110.759 13.9142 110.65 14.0249 110.607 14.124C110.508 14.3509 110.491 14.6201 110.357 14.8203C110.26 14.9643 110.037 15.0657 109.852 15.1025C109.777 15.1175 109.64 14.9205 109.557 14.8032C109.334 14.4908 109.392 14.1915 109.542 13.8459C109.993 12.8097 110.43 11.7654 110.806 10.7026C111.06 9.9826 110.831 9.25967 110.593 8.56224C110.565 8.48024 110.443 8.4278 110.364 8.36173C110.288 8.44895 110.174 8.52545 110.143 8.62571C110.041 8.95921 109.985 9.30633 109.875 9.63723C109.835 9.75574 109.708 9.87191 109.589 9.93507C109.449 10.0095 109.257 10.0849 109.123 10.0455C109.035 10.0197 108.979 9.7957 108.966 9.65517C108.951 9.50508 108.988 9.34544 109.027 9.19593C109.316 8.09111 109.572 6.97616 109.923 5.88989C110.066 5.44831 110.415 5.0667 110.679 4.66365C111.02 4.14413 111.3 3.56259 111.74 3.13578C112.073 2.813 112.596 2.62265 113.07 2.49313C114.302 2.15586 115.568 2.09124 116.852 2.09732C117.472 2.10051 117.817 2.32419 118.005 2.78692C118.456 3.89232 118.91 5.00236 119.254 6.1405C119.791 7.91551 119.959 9.74618 119.953 11.5942C119.951 12.1925 120.072 12.792 120.057 13.3892Z"
    stroke="#251C1C"
    stroke-width="0.4"
    mask="url(#path-19-outside-2_665_20651)"
  />
  <path
    d="M116.515 6.97105L116.515 6.97105L116.56 8.90339L116.555 9.00326C116.555 9.00326 116.555 9.00326 116.555 9.00327C116.81 9.01624 117.03 8.90132 117.185 8.70349C117.338 8.5075 117.427 8.2319 117.435 7.91495L117.435 7.91494C117.448 7.38563 117.054 6.98771 116.515 6.97105ZM116.792 7.91437C116.817 7.93767 116.846 7.96352 116.876 7.98974C116.792 8.07671 116.721 8.15009 116.656 8.21753C116.636 8.23821 116.617 8.25833 116.598 8.27811C116.597 8.27611 116.595 8.27411 116.594 8.27212C116.589 8.26468 116.584 8.25737 116.579 8.25017C116.559 8.22005 116.54 8.19174 116.522 8.16318C116.478 8.0924 116.454 8.0365 116.451 7.98754C116.451 7.98571 116.454 7.97903 116.462 7.96699C116.474 7.94875 116.494 7.92678 116.52 7.90397C116.567 7.86251 116.624 7.82849 116.668 7.81212C116.668 7.81222 116.668 7.81233 116.669 7.81243C116.684 7.82141 116.706 7.83804 116.736 7.8644C116.752 7.87867 116.771 7.8957 116.792 7.91437ZM116.659 7.8076C116.659 7.80757 116.659 7.80768 116.66 7.80803L116.659 7.8076Z"
    fill="#251C1C"
    stroke="#251C1C"
    stroke-width="0.2"
  />
  <path
    d="M115.604 11.2871L115.604 11.2871C115.623 11.042 115.714 10.8434 115.88 10.7116C116.044 10.5811 116.267 10.5276 116.531 10.5419L115.604 11.2871ZM115.604 11.2871C115.564 11.7943 115.956 12.282 116.45 12.3163L116.45 12.3163M115.604 11.2871L116.45 12.3163M116.45 12.3163C116.719 12.3349 116.942 12.2782 117.101 12.1226C117.257 11.9692 117.333 11.7368 117.35 11.4441L117.35 11.444M116.45 12.3163L117.35 11.444M117.35 11.444C117.367 11.1505 117.337 10.922 117.196 10.7671M117.35 11.444L117.196 10.7671M117.196 10.7671C117.055 10.6128 116.829 10.558 116.531 10.5419L117.196 10.7671ZM116.515 11.2379C116.519 11.2342 116.524 11.2304 116.528 11.2266L116.744 11.4363C116.65 11.5125 116.578 11.5706 116.513 11.6232C116.51 11.6195 116.507 11.6157 116.505 11.6121C116.499 11.6052 116.494 11.5985 116.489 11.5919C116.47 11.567 116.452 11.544 116.435 11.5207C116.392 11.46 116.373 11.4185 116.372 11.387C116.372 11.3856 116.374 11.3801 116.381 11.3698C116.391 11.3539 116.409 11.3348 116.433 11.3112C116.452 11.2934 116.472 11.2758 116.494 11.2567C116.501 11.2506 116.508 11.2444 116.515 11.2379Z"
    fill="#251C1C"
    stroke="#251C1C"
    stroke-width="0.2"
  />
  <path
    d="M117.284 5.23061C117.28 5.13174 117.232 5.03051 117.171 4.94034C117.107 4.84802 117.022 4.75676 116.927 4.67607C116.833 4.59527 116.727 4.52289 116.622 4.4697C116.517 4.41715 116.406 4.37993 116.302 4.37722L116.302 4.37722C116.083 4.37169 115.881 4.49892 115.737 4.67584C115.593 4.85415 115.497 5.09547 115.496 5.34615L115.496 5.34616C115.493 5.8538 115.848 6.24897 116.341 6.25919L116.341 6.25919C116.57 6.26382 116.811 6.10755 116.984 5.9171C117.158 5.7254 117.294 5.46774 117.284 5.23061ZM117.284 5.23061L117.184 5.23462L117.284 5.23055C117.284 5.23057 117.284 5.23059 117.284 5.23061ZM116.3 4.47719C115.943 4.46821 115.598 4.89387 115.596 5.34675L116.3 4.47719ZM116.201 5.21528L116.306 5.20585L116.406 5.1968C116.404 5.26447 116.403 5.33166 116.401 5.39882C116.4 5.47522 116.398 5.55158 116.396 5.62856L116.271 5.63849L116.201 5.21528Z"
    fill="#251C1C"
    stroke="#251C1C"
    stroke-width="0.2"
  />
  <path
    d="M113.96 25.6916C113.939 25.6725 113.919 25.6534 113.898 25.634C113.873 25.6104 113.848 25.5864 113.82 25.5614C113.753 25.5007 113.68 25.4402 113.594 25.3948L113.594 25.3948C113.517 25.3536 113.414 25.3022 113.314 25.2688C113.265 25.2521 113.212 25.2386 113.161 25.2341C113.112 25.2296 113.055 25.2329 113.003 25.2596L113.96 25.6916ZM114.387 26.323C114.239 26.6114 114.087 26.9056 113.923 27.2256C113.915 27.2406 113.907 27.2557 113.899 27.2708C113.709 27.0631 113.565 26.8667 113.48 26.66C113.404 26.4752 113.374 26.2785 113.407 26.0525C113.473 26.132 113.536 26.21 113.594 26.2929L113.594 26.293C113.654 26.3779 113.705 26.4654 113.758 26.5573C113.783 26.6006 113.809 26.645 113.837 26.6904L113.901 26.7961L113.991 26.7116C114.022 26.6824 114.054 26.6527 114.087 26.6224C114.163 26.5538 114.241 26.4824 114.312 26.4078L114.312 26.4078C114.338 26.3807 114.363 26.3521 114.387 26.323Z"
    fill="#251C1C"
    stroke="#251C1C"
    stroke-width="0.2"
  />
</svg>
