<svg
  width="105"
  height="28"
  viewBox="0 0 105 28"
  fill="none"
  xmlns="http://www.w3.org/2000/svg"
>
  <path
    d="M100.523 23.5443C101.075 22.8962 101.511 22.1271 101.736 21.2963C101.854 20.8618 101.813 20.4087 101.621 20.0766C101.616 20.0137 101.613 19.9507 101.605 19.8853C101.563 19.8853 101.523 19.8853 101.482 19.8853C101.436 19.8347 101.384 19.789 101.328 19.7495C101.263 19.6618 101.176 19.5828 101.06 19.5174C99.9681 18.894 99.0234 19.7075 98.367 20.726C97.9214 21.1778 97.6222 21.7728 97.5605 22.4111C97.552 22.4358 97.5435 22.4617 97.535 22.4864C97.2516 23.3641 97.42 24.4183 98.4446 24.6233C99.2705 24.785 100.019 24.1356 100.523 23.5443Z"
    fill="#39B100"
  />
  <path
    d="M102.382 4.36153C102.349 4.364 102.315 4.36768 102.281 4.37139C101.94 4.0998 101.404 4.07141 101.062 4.50596C101.021 4.5109 100.981 4.51585 100.94 4.52079C100.586 4.24055 100.004 4.20474 99.649 4.66027C99.6309 4.6615 99.6127 4.66274 99.5945 4.66521C99.3027 4.24919 98.6899 4.04674 98.3072 4.51955C98.2563 4.58251 98.2043 4.64424 98.1522 4.7072C98.1231 4.70596 98.094 4.70596 98.065 4.70596C97.7682 4.26031 96.998 4.10721 96.5765 4.68248C96.562 4.701 96.5487 4.72075 96.5354 4.7405C96.1297 4.76889 95.7264 4.80842 95.3243 4.8578C95.2456 4.85904 95.1681 4.86768 95.0918 4.88743C94.766 4.9294 94.4402 4.9763 94.1157 5.02691C93.7305 4.75656 93.1396 4.74299 92.8864 5.22321C92.6842 5.25654 92.4819 5.28864 92.2797 5.3195C92.1452 5.25407 91.9987 5.22319 91.857 5.23677C91.5664 4.87877 91.0359 4.72817 90.6338 5.16272C89.665 6.20957 89.3016 7.55518 89.5354 8.96497C89.5499 9.05262 89.5826 9.13286 89.6262 9.20446C89.6056 9.36494 89.5838 9.52665 89.562 9.69208C89.7461 9.72047 89.9229 9.7538 90.0937 9.78837C90.2415 10.0772 90.497 10.2994 90.8761 10.3686C91.335 10.4538 91.6996 10.2809 92.0036 10.0007C92.27 10.3488 92.8525 10.3859 93.234 10.1167C93.2861 10.1871 93.3479 10.2538 93.4266 10.3167C93.756 10.5822 94.3106 10.7118 94.6255 10.3167C94.6449 10.292 94.663 10.2686 94.6824 10.2439C94.9719 10.4031 95.34 10.392 95.638 10.0883C95.6743 10.0513 95.7106 10.0118 95.7469 9.97478C95.8366 10.1735 95.9989 10.3278 96.2544 10.3649C97.0562 10.4821 97.6374 10.0439 98.1412 9.48469C98.2696 9.47481 98.3968 9.46494 98.5252 9.45506C98.5809 9.45012 98.6378 9.4427 98.6935 9.43406C98.8945 9.4427 99.0907 9.3921 99.2809 9.29951C99.3511 9.281 99.4214 9.26369 99.4916 9.24641C99.7532 9.64268 100.332 9.75752 100.789 9.39457C100.986 9.23779 101.174 9.06866 101.355 8.8946C101.65 8.86373 101.949 8.84767 102.253 8.85138C102.252 8.94026 102.252 9.02916 102.253 9.11805C102.269 10.2291 103.964 10.2328 103.948 9.11805C103.939 8.44648 103.988 7.78849 104.092 7.13915C104.49 6.51326 104.61 5.6775 104.499 4.97507C104.413 4.42942 103.922 4.27509 103.494 4.40101C103.494 4.3862 103.494 4.37017 103.494 4.35535C103.022 4.35782 102.7 4.33437 102.382 4.36153Z"
    fill="#39B100"
  />
  <path
    d="M88.0631 14.8573C88.3903 13.404 88.5655 11.9127 88.7402 10.4253C88.7717 10.1564 88.8033 9.88767 88.8358 9.61928C88.9777 8.45181 89.0868 7.28023 89.1968 6.09889C89.2464 5.56638 89.2962 5.03189 89.3493 4.49489L88.0631 14.8573ZM88.0631 14.8573C87.9209 15.4892 87.8528 16.1371 87.7845 16.7867C87.6737 17.8411 87.5624 18.8999 87.133 19.9014L88.0631 14.8573ZM104.128 2.92397L104.162 2.9594C104.61 3.43076 104.755 3.99253 104.71 4.61312C104.679 5.04352 104.653 5.47561 104.627 5.90839C104.569 6.87087 104.511 7.83675 104.401 8.79497C104.401 8.79497 104.401 8.79498 104.401 8.79498L104.301 8.78353C103.906 12.2117 103.48 15.6362 103.027 19.057C102.809 20.7026 102.195 22.2309 101.426 23.6827L104.128 2.92397ZM104.128 2.92397L104.079 2.92881M104.128 2.92397L104.079 2.92881M104.079 2.92881C101.938 3.14177 99.8031 3.35427 97.6728 3.5663C94.8881 3.84345 92.1114 4.11981 89.3394 4.39538L89.2578 4.40349M104.079 2.92881L89.2578 4.40349M89.2578 4.40349L89.2498 4.48505M89.2578 4.40349L89.2498 4.48505M89.2498 4.48505C89.1966 5.02328 89.1467 5.55844 89.0971 6.09128C88.9871 7.27191 88.8782 8.44116 88.7365 9.60721L88.7365 9.60728M89.2498 4.48505L88.7365 9.60728M88.7365 9.60728C88.7039 9.87636 88.6723 10.1456 88.6407 10.4147C88.466 11.9023 88.2915 13.3876 87.9655 14.8353L87.9655 14.8353M88.7365 9.60728L87.9655 14.8353M87.9655 14.8353C87.822 15.4735 87.753 16.1295 87.6846 16.7803C87.6635 16.9818 87.6423 17.1828 87.6191 17.3826C87.5229 18.2086 87.3897 19.0208 87.0687 19.7965C86.9239 19.7853 86.7873 19.7699 86.6538 19.7548C86.5654 19.7449 86.4785 19.7351 86.3914 19.7267C86.1557 19.7041 85.9267 19.6933 85.7012 19.7272L85.7011 19.7272M87.9655 14.8353L85.7011 19.7272M85.7011 19.7272C85.6602 19.7334 85.6185 19.7396 85.5762 19.7458C85.3426 19.7803 85.0897 19.8176 84.8513 19.8779C84.5697 19.9492 84.296 20.0554 84.0879 20.2372L84.0879 20.2372M85.7011 19.7272L84.0879 20.2372M84.0879 20.2372C82.8632 21.3082 81.903 22.9919 82.4607 24.8131L82.4607 24.8132M84.0879 20.2372L82.4607 24.8132M82.4607 24.8132C82.7277 25.6823 83.3105 26.2104 84.1158 26.414C84.865 26.6043 85.5271 26.3281 86.0468 25.7125C86.9551 24.6387 87.4766 23.3532 87.7624 22.0361L87.7624 22.036M82.4607 24.8132L87.7624 22.036M87.7624 22.036C88.0338 20.7827 88.1952 19.5015 88.356 18.225C88.431 17.6289 88.506 17.0339 88.592 16.4432C88.7548 15.3244 88.9234 14.2064 89.0957 13.0636C89.1806 12.5005 89.2665 11.9314 89.353 11.3532C90.318 11.3572 91.2544 11.2347 92.1801 11.1136C92.2092 11.1098 92.2382 11.106 92.2673 11.1022C93.221 10.9775 94.1642 10.8586 95.1295 10.8797C95.2314 13.3742 94.7858 15.6323 94.2556 17.9731C94.1464 17.9868 94.0498 17.9961 93.9605 18.0048C93.9137 18.0093 93.8689 18.0136 93.8253 18.0183C93.6841 18.0334 93.5572 18.0519 93.4349 18.0932C93.2082 18.169 92.9761 18.2375 92.7416 18.3057C92.7141 18.3137 92.6865 18.3217 92.659 18.3297C92.4519 18.3898 92.2433 18.4504 92.0374 18.5158C91.5709 18.6639 91.112 18.8384 90.7 19.0956C89.1749 20.046 88.7479 22.1054 89.5099 23.7977C89.8244 24.4974 90.3123 24.924 90.874 25.0311C91.4358 25.1383 92.0441 24.9208 92.5884 24.39C93.5284 23.4744 94.2168 22.3853 94.515 21.0993M87.7624 22.036L95.6469 15.5514M95.6469 15.5514L95.6469 15.5515C95.6034 15.7769 95.5601 16.0025 95.5167 16.2281C95.2041 17.8549 94.8909 19.4852 94.515 21.0993M95.6469 15.5514C95.8577 14.4544 96.0532 13.3546 96.2515 12.2389C96.338 11.7526 96.4249 11.2632 96.514 10.7698C97.3925 10.7654 98.2472 10.6496 99.0881 10.5358C99.3446 10.501 99.5998 10.4665 99.854 10.4353C100.945 10.3015 102.025 10.2286 103.143 10.4572C103.013 12.3803 102.765 14.2444 102.516 16.1132C102.409 16.9155 102.302 17.7187 102.204 18.5278C102.075 18.529 101.957 18.5326 101.848 18.5358C101.788 18.5376 101.731 18.5394 101.677 18.5405C101.5 18.5444 101.349 18.5427 101.203 18.5222L101.202 18.5222M95.6469 15.5514L101.202 18.5222M94.515 21.0993L94.4176 21.0766L94.515 21.0992C94.515 21.0993 94.515 21.0993 94.515 21.0993ZM101.202 18.5222C98.2948 18.1198 96.2535 20.8381 96.5722 23.3828L96.5722 23.3829M101.202 18.5222L96.5722 23.3829M96.5722 23.3829C96.6628 24.1014 97.0016 24.6799 97.6957 24.9958L96.5722 23.3829ZM86.6828 22.3964L86.6828 22.3964C86.7639 22.1924 86.83 21.9884 86.8312 21.7937C86.8324 21.6047 86.7727 21.4218 86.5924 21.2534L86.5924 21.2534C86.3796 21.0545 86.1632 20.9096 85.9305 20.8368C85.6997 20.7645 85.4463 20.7611 85.1547 20.8557C84.136 21.1869 83.3247 22.2701 83.2715 23.5652C83.2715 23.5654 83.2715 23.5656 83.2715 23.5658L86.6828 22.3964ZM86.6828 22.3964C86.3834 23.1503 86.0795 23.9038 85.677 24.5901M86.6828 22.3964L85.677 24.5901M97.6457 22.7421L97.6457 22.7422C97.6677 23.3733 98.001 23.8147 98.5213 23.8495L97.6457 22.7421ZM97.6457 22.7421C97.5944 21.3198 98.8068 20.0245 100.232 19.9853M97.6457 22.7421L100.232 19.9853M85.677 24.5901C85.5241 24.8506 85.3262 25.0706 85.0924 25.1945M85.677 24.5901L85.0924 25.1945M85.0924 25.1945C84.8624 25.3165 84.5915 25.3491 84.2773 25.2265L85.0924 25.1945ZM100.232 19.9853C100.517 19.978 100.802 19.9799 101.113 19.982M100.232 19.9853L101.113 19.982M101.113 19.982C101.241 19.9829 101.373 19.9837 101.512 19.984M101.113 19.982L101.512 19.984M101.512 19.984C101.625 21.2546 101.204 22.1461 100.652 23.0207C100.148 23.819 99.3689 23.9058 98.5213 23.8495L101.512 19.984ZM93.7605 20.1374L93.7605 20.1377C93.5012 21.3006 92.9819 22.3363 92.2127 23.2324L92.2126 23.2324C92.037 23.4375 91.8397 23.5881 91.6251 23.664C91.4125 23.7392 91.1767 23.7434 90.9164 23.6458L90.9163 23.6458C90.678 23.5566 90.5468 23.4052 90.462 23.2151C90.3813 23.0342 90.3439 22.8219 90.3028 22.5892C90.2992 22.5687 90.2955 22.5479 90.2918 22.5271C90.1708 21.8423 90.2844 21.2323 90.5877 20.7622C90.8907 20.2927 91.3884 19.954 92.0527 19.8204C92.4332 19.7444 92.8129 19.6617 93.2433 19.5679C93.3954 19.5348 93.5538 19.5002 93.7208 19.4641C93.73 19.5731 93.7406 19.6667 93.7498 19.7472C93.7541 19.7854 93.7581 19.8206 93.7615 19.8532C93.7746 19.9805 93.7772 20.0634 93.7605 20.1374ZM93.8581 20.1594C93.5953 21.3384 93.0685 22.3889 92.2885 23.2975L93.8581 20.1594ZM91.416 9.85644L91.4158 9.85645C91.1417 9.87181 90.8618 9.83415 90.5582 9.7776C90.4552 9.7584 90.3485 9.73683 90.2386 9.71459C90.0585 9.67815 89.8696 9.63994 89.6731 9.60746C89.7193 9.25746 89.7624 8.92016 89.8044 8.59199C89.9078 7.78342 90.004 7.0303 90.1214 6.27937C90.1532 6.07555 90.2379 5.92621 90.3618 5.82062C90.487 5.71389 90.6599 5.64551 90.8777 5.61878C91.625 5.5274 92.3712 5.4065 93.1153 5.28596C93.5829 5.2102 94.0497 5.13457 94.5153 5.06651C95.726 4.88954 96.9389 4.76183 98.1743 4.80718L98.1744 4.80718C98.8793 4.83276 99.5857 4.77532 100.289 4.69723C100.534 4.66998 100.778 4.64031 101.022 4.61071C101.479 4.55514 101.935 4.49981 102.391 4.46123L102.391 4.46122C102.595 4.4438 102.797 4.44769 103.047 4.4525C103.153 4.45453 103.268 4.45674 103.395 4.45755V4.46088V4.47022V4.47957V4.48891V4.49824V4.50757V4.5169V4.52623V4.53555V4.54487V4.55419V4.56351V4.57282V4.58212V4.59143V4.60073V4.61003V4.61933V4.62862V4.63791V4.6472V4.65649V4.66577V4.67505V4.68432V4.6936V4.70287V4.71213V4.7214V4.73066V4.73992V4.74918V4.75843V4.76768V4.77693V4.78617V4.79542V4.80466V4.81389V4.82313V4.83236V4.84159V4.85081V4.86004V4.86926V4.87848V4.88769V4.8969V4.90611V4.91532V4.92453V4.93373V4.94293V4.95213V4.96132V4.97052V4.97971V4.98889V4.99808V5.00726V5.01644V5.02562V5.03479V5.04396V5.05313V5.0623V5.07147V5.08063V5.08979V5.09895V5.1081V5.11726V5.12641V5.13556V5.1447V5.15385V5.16299V5.17213V5.18127V5.1904V5.19953V5.20866V5.21779V5.22692V5.23604V5.24516V5.25428V5.2634V5.27251V5.28163V5.29074V5.29985V5.30895V5.31806V5.32716V5.33626V5.34536V5.35445V5.36355V5.37264V5.38173V5.39081V5.3999V5.40898V5.41807V5.42715V5.43622V5.4453V5.45437V5.46344V5.47251V5.48158V5.49065V5.49971V5.50877V5.51783V5.52689V5.53595V5.545V5.55406V5.56311V5.57216V5.58121V5.59025V5.5993V5.60834V5.61738V5.62642V5.63545V5.64449V5.65352V5.66255V5.67158V5.68061V5.68964V5.69866V5.70769V5.71671V5.72573V5.73475V5.74377V5.75278V5.7618V5.77081V5.77982V5.78883V5.79784V5.80684V5.81585V5.82485V5.83385V5.84285V5.85185V5.86085V5.86984V5.87884V5.88783V5.89682V5.90581V5.9148V5.92379V5.93277V5.94176V5.95074V5.95972V5.9687V5.97768V5.98666V5.99564V6.00461V6.01359V6.02256V6.03153V6.0405V6.04947V6.05844V6.0674V6.07637V6.08533V6.0943V6.10326V6.11222V6.12118V6.13014V6.1391V6.14805V6.15701V6.16596V6.17491V6.18387V6.19282V6.20177V6.21072V6.21966V6.22861V6.23756V6.2465V6.25544V6.26439V6.27333V6.28227V6.29121V6.30015V6.30909V6.31803V6.32696V6.3359V6.34483V6.35377V6.3627V6.37163V6.38056V6.38949V6.39842V6.40735V6.41628V6.42521V6.43413V6.44306V6.45198V6.46091V6.46983V6.47876V6.48768V6.4966V6.50552V6.51444V6.52336V6.53228V6.5412V6.55012V6.55903V6.56795V6.57687V6.58578V6.5947V6.60361V6.61252V6.62144V6.63035V6.63926V6.64817V6.65709V6.666V6.67491V6.68382V6.69273V6.70164V6.71054V6.71945V6.72836V6.73727V6.74617V6.75508V6.76399V6.77289V6.7818V6.7907V6.79961V6.80851V6.81742V6.82632V6.83523V6.84413V6.85303V6.86194V6.87084V6.87974V6.88865V6.89755V6.90645V6.91535V6.92426V6.93316V6.94206V6.95096V6.95986V6.96876V6.97766V6.98657V6.99547V7.00437V7.01327V7.02217V7.03107V7.03997V7.04887V7.05777V7.06667V7.07558V7.08448V7.09338V7.10228V7.11118V7.12008V7.12898V7.13788V7.14679V7.15569V7.16459V7.17349V7.18239V7.1913V7.2002V7.2091V7.21801V7.22691V7.23581V7.24472V7.25362V7.26252V7.27143V7.28033V7.28924V7.29814V7.30705V7.31596V7.32486V7.33377V7.34268V7.35158V7.36049V7.3694V7.37831V7.38722V7.39613V7.40504V7.41395V7.42286V7.43177V7.44068V7.44959V7.45851V7.46742V7.47634V7.48525V7.49416V7.50308V7.512V7.52091V7.52983V7.53875V7.54767V7.55659V7.56551V7.57443V7.58335V7.59227V7.60119V7.61012V7.61904V7.62796V7.63689V7.64582V7.65474V7.66367V7.6726V7.68153V7.69046V7.69939V7.70832V7.71725V7.72618V7.73512V7.74405V7.75299V7.76193V7.77086V7.7798V7.78874V7.79768V7.80662V7.81557V7.82451V7.83345V7.8424V7.85134V7.86029V7.86924V7.87819V7.88714V7.89609V7.90504V7.91399V7.92295V7.9319V7.94086V7.94982V7.95878V7.96774V7.9767V7.98566V7.99462V8.00359V8.01255V8.02152V8.03049V8.03946V8.04843V8.0574V8.06637V8.07535V8.08432V8.0933V8.10228V8.11126V8.12024V8.12922V8.13821V8.14719V8.15618V8.16516V8.17415V8.18314V8.19214V8.20113V8.21012V8.21912V8.22812V8.23712V8.24612V8.25512V8.26412V8.27313V8.28213V8.29114V8.30015V8.30916V8.31817V8.32719V8.33621V8.34522V8.35424V8.36326V8.37228V8.38131V8.39033V8.39936V8.40839V8.41742V8.42645V8.43549V8.44452V8.45356V8.4626V8.47164V8.48068V8.48973V8.49877V8.50782V8.51687V8.52592V8.53498V8.54403V8.55309V8.56215V8.57121V8.58027V8.58933V8.5984V8.60747V8.61654V8.62561V8.63469V8.64376V8.65284V8.66192V8.671V8.68009V8.68917V8.69826V8.70735V8.71644V8.72554V8.73463V8.74373V8.75283V8.76194V8.77104V8.78015V8.78926V8.79837V8.80748V8.8166V8.82571V8.83483V8.84396V8.85308V8.86018C101.84 8.57819 100.455 8.89308 99.0929 9.2459C98.8976 9.29535 98.7068 9.34134 98.5166 9.35665C98.0011 9.39508 97.4857 9.43439 96.9705 9.47369C95.1186 9.61493 93.2681 9.75606 91.416 9.85644Z"
    fill="#251C1C"
    stroke="#251C1C"
    stroke-width="0.2"
  />
  <path
    d="M71.0751 20.222C70.5156 19.4109 69.6727 19.7998 69.1544 20.3837C68.8492 20.464 68.5549 20.5591 68.3296 20.743C68.0281 20.9887 67.7956 21.28 67.6248 21.6034C67.3111 21.9985 67.0629 22.4602 66.9103 22.9034C66.6414 23.6836 66.7867 24.6576 67.5327 25.1156C68.2461 25.5513 69.0744 25.2538 69.657 24.7427C70.5495 24.4712 71.0218 23.8761 71.2338 22.7885C71.2895 22.5058 71.321 22.2194 71.3622 21.9343C71.4699 21.1837 71.4748 20.7862 71.235 20.5763C71.1999 20.4479 71.1478 20.3282 71.0751 20.222Z"
    fill="#39B100"
  />
  <path
    d="M60.2044 21.6304C59.7297 20.6453 58.7076 19.9947 57.6213 20.2095C57.1465 20.3033 56.7262 20.549 56.3859 20.886C55.6617 21.2514 55.2233 22.0304 55.2306 23.0649C55.2318 23.1563 55.2366 23.2452 55.2439 23.334C55.0755 24.4599 55.3759 25.6265 56.6669 25.8314C58.9122 26.1845 61.321 23.95 60.2044 21.6304Z"
    fill="#39B100"
  />
  <path
    d="M71.8879 7.50902C71.8879 7.22262 71.8697 6.98686 71.8273 6.79428C71.8249 6.59058 71.8104 6.38936 71.7632 6.20418C71.4967 5.15733 70.4443 5.3573 69.6571 5.47334C67.6601 5.76839 65.663 6.06345 63.6672 6.35849C63.5376 6.37825 63.4286 6.42761 63.3414 6.49921C63.0556 6.38317 62.6995 6.40293 62.4355 6.60169C62.4149 6.60292 62.3931 6.6054 62.3725 6.60663C62.3653 6.62885 62.358 6.65228 62.3507 6.6745C62.2623 6.76215 62.1885 6.87449 62.1376 7.01399C61.681 8.26824 61.4157 9.56077 61.2995 10.8916C61.2583 11.3631 61.7125 11.7532 62.1533 11.7569C62.4161 11.8779 62.6801 11.9298 62.9441 11.9495C62.9247 12.0113 62.9042 12.073 62.886 12.1347C62.7407 12.626 63.1536 13.2914 63.7035 13.2285C64.5355 13.1346 65.2076 12.6075 65.812 11.9964C65.9755 12.1631 66.1971 12.2705 66.4163 12.2618C66.8486 12.2433 67.2374 12.0582 67.591 11.794C67.654 11.7915 67.7157 11.789 67.7787 11.7853C67.9798 12.1816 68.4884 12.3544 68.9583 12.1495C69.2054 12.0421 69.4428 11.9187 69.6741 11.7829C69.7504 11.9211 69.857 12.0384 69.9793 12.1137C70.4128 12.3791 70.8621 12.1717 71.1394 11.8038C71.2 11.7236 71.2557 11.6421 71.3078 11.5569C71.4967 11.5409 71.6893 11.5249 71.8927 11.5088C71.8879 10.0496 71.8903 8.77932 71.8879 7.50902Z"
    fill="#39B100"
  />
  <path
    d="M71.6867 17.9084C71.7296 16.8315 71.7206 15.7521 71.711 14.6118C71.7068 14.1091 71.7025 13.5945 71.7025 13.063C68.3067 12.905 65.0235 12.8865 61.6736 13.0902C61.6282 13.609 61.583 14.1182 61.5384 14.6204C61.426 15.8857 61.3174 17.1072 61.2195 18.3294C61.1759 18.8753 61.1516 19.4229 61.1274 19.9706C61.1153 20.2441 61.1032 20.5176 61.0887 20.791C60.9833 22.7822 60.0665 24.3833 58.7501 25.7795C57.7061 26.8869 55.7272 26.4857 54.8577 25.0105L71.6867 17.9084ZM71.6867 17.9084C71.6395 19.1194 71.579 19.1367 70.3994 19.133M71.6867 17.9084L70.3994 19.133M60.2614 20.4542C60.0563 20.4016 59.8631 20.3548 59.6787 20.3102C59.2461 20.2054 58.8623 20.1125 58.4873 19.9829L58.4872 19.9829C57.7916 19.7427 57.147 19.7315 56.5586 19.9116C55.9712 20.0913 55.4467 20.4595 54.9859 20.9669L54.9859 20.967C54.57 21.4255 54.363 22.1864 54.3334 22.9518C54.3037 23.7189 54.4511 24.5172 54.7715 25.0612L54.7715 25.0612C55.2211 25.824 55.9578 26.3098 56.7189 26.4615C57.4803 26.6133 58.2731 26.4313 58.8228 25.8481C60.1498 24.4407 61.0815 22.8183 61.1885 20.7963C61.2032 20.521 61.2153 20.2465 61.2274 19.9726C61.2516 19.426 61.2757 18.8816 61.3192 18.3374C61.4171 17.1157 61.5255 15.8948 61.6379 14.6297C61.6801 14.1551 61.7228 13.6743 61.7657 13.1848C65.0501 12.9888 68.2723 13.006 71.6026 13.1585C71.603 13.6581 71.6071 14.1423 71.611 14.6154C71.6206 15.7545 71.6296 16.83 71.5868 17.9044L71.5868 17.9045C71.5749 18.2086 71.5624 18.4297 71.5331 18.5936C71.5038 18.7572 71.4604 18.847 71.3999 18.9027C71.339 18.9588 71.245 18.995 71.08 19.0142C70.9149 19.0334 70.6966 19.034 70.3998 19.033C70.3998 19.033 70.3997 19.033 70.3997 19.033L70.3994 19.133M60.2614 20.4542L71.4064 24.6004M60.2614 20.4542C60.2802 20.2946 60.2994 20.1394 60.3182 19.9872C60.3667 19.5957 60.4126 19.2243 60.4428 18.8497L60.5424 18.8577M60.2614 20.4542L61.4156 6.7029M70.3994 19.133C69.5322 19.1293 68.7705 19.2984 68.0208 19.8293C66.6305 20.8144 66.4271 22.2119 66.4985 23.734C66.5422 24.6483 67.1899 25.1193 67.8286 25.5838C67.9151 25.6468 68.0015 25.7096 68.0862 25.7734C68.7402 26.266 69.3058 25.9277 69.8581 25.5672C69.951 25.5065 70.0446 25.4463 70.1382 25.3861C70.5547 25.1184 70.9726 24.8498 71.3404 24.5253M71.3404 24.5253L71.4064 24.6004M71.3404 24.5253L71.4065 24.6003C71.4065 24.6003 71.4065 24.6004 71.4064 24.6004M71.3404 24.5253C71.5959 24.3006 71.8333 23.9389 71.8829 23.6069M71.4064 24.6004C71.6742 24.365 71.9277 23.9835 71.9818 23.6218M71.8829 23.6069L71.9818 23.6218M71.8829 23.6069L71.9818 23.6216C71.9818 23.6217 71.9818 23.6218 71.9818 23.6218M71.8829 23.6069C72.0973 22.1909 72.2971 20.7663 72.3928 19.3367M71.9818 23.6218L72.7568 9.38451L72.6568 9.38546M72.3928 19.3367L72.4926 19.3434C72.4926 19.3434 72.4926 19.3434 72.4926 19.3434L72.3928 19.3367ZM72.3928 19.3367C72.4731 18.1418 72.4968 16.9426 72.5205 15.7434C72.53 15.2613 72.5395 14.7793 72.5527 14.2975C72.5874 13.0049 72.6184 11.7124 72.6495 10.4198L72.6507 10.3681C72.658 10.041 72.6605 9.7126 72.6568 9.38546M72.6568 9.38546C72.6535 9.03892 72.6521 8.69219 72.6507 8.3454C72.6469 7.421 72.6432 6.49618 72.6036 5.57332M72.6568 9.38546L72.7568 9.38435M72.6036 5.57332L72.6205 15.7429C72.63 15.2614 72.6395 14.7803 72.6527 14.3002L72.6527 14.3002C72.6873 13.0075 72.7184 11.7149 72.7495 10.4224L72.7507 10.3705L72.7507 10.3703C72.758 10.0422 72.7605 9.71273 72.7568 9.38435M72.6036 5.57332L72.7035 5.5692C72.7035 5.56914 72.7035 5.56909 72.7035 5.56903M72.6036 5.57332L72.7568 9.38435M72.6036 5.57332L72.7035 5.56903M72.6036 5.57332C72.5721 4.8104 72.3952 4.70424 71.6007 4.77461C71.0289 4.82535 70.4574 4.88003 69.886 4.93472C68.8586 5.03302 67.8313 5.13132 66.8025 5.20668C65.9246 5.27137 65.0454 5.3106 64.1659 5.34983C63.6355 5.3735 63.105 5.39717 62.5747 5.42642M72.7568 9.38435C72.7535 9.03908 72.7521 8.69315 72.7507 8.34683C72.747 7.42175 72.7432 6.49399 72.7035 5.56903M72.7035 5.56903C72.6955 5.37619 72.6782 5.21695 72.6414 5.08912C72.6041 4.9595 72.5449 4.85557 72.4491 4.78214C72.3547 4.70967 72.2361 4.67576 72.0974 4.66286C71.9592 4.65001 71.7917 4.6573 71.5919 4.675L71.5919 4.675C71.0186 4.72587 70.4464 4.78062 69.8747 4.83533C68.8481 4.93356 67.823 5.03166 66.7952 5.10695L66.7951 5.10695C65.9183 5.17156 65.0421 5.21064 64.1639 5.24981C63.6332 5.27349 63.1018 5.29719 62.5692 5.32657M62.5692 5.32657L62.5747 5.42642M62.5692 5.32657C62.2728 5.34285 62.0406 5.35819 61.8634 5.3913C61.6865 5.42438 61.5464 5.47812 61.4499 5.58527C61.3532 5.69259 61.3155 5.8367 61.3023 6.01362C61.2892 6.19054 61.2998 6.41883 61.3158 6.7084L61.3158 6.70845C61.3338 7.03249 61.3361 7.35871 61.3111 7.68028L61.3111 7.68041C61.0265 11.4036 60.737 15.1267 60.4428 18.8499L60.5424 18.8577M62.5692 5.32657L60.5424 18.8577M62.5747 5.42642C61.383 5.49185 61.3514 5.53754 61.4156 6.7029M62.5747 5.42642L62.5692 5.32658L61.4156 6.7029M61.4156 6.7029C61.4338 7.03005 61.4363 7.36089 61.4108 7.68803C61.1262 11.4113 60.8367 15.1345 60.5424 18.8577M57.8637 20.791L57.8637 20.791C57.1011 20.6702 56.4681 20.852 56.0275 21.2494C55.5862 21.6475 55.3254 22.273 55.3307 23.063C55.3389 24.284 56.007 25.1892 57.0633 25.3611C57.0633 25.3611 57.0634 25.3611 57.0634 25.3611L57.8637 20.791ZM57.8637 20.791C58.3578 20.8691 58.8531 21.0573 59.3178 21.2764L59.3178 21.2764M57.8637 20.791L59.3178 21.2764M59.3178 21.2764C59.7173 21.4647 59.905 21.6246 59.9734 21.8183C60.0433 22.0163 60.0007 22.28 59.8453 22.7113L59.8452 22.7114M59.3178 21.2764L59.8452 22.7114M59.8452 22.7114C59.4802 23.7278 58.7307 24.4506 57.9723 25.1804L59.8452 22.7114ZM71.1369 22.7678L71.1369 22.768C71.0119 23.4089 70.7983 23.8627 70.4697 24.1782C70.1413 24.4935 69.6866 24.6817 69.0572 24.7682C68.578 24.8342 68.1668 24.7244 67.8713 24.4847C67.5762 24.2453 67.3864 23.8682 67.365 23.379C67.3212 22.3675 67.6301 21.4436 68.394 20.8204C68.5761 20.6721 68.8115 20.583 69.0751 20.5088C69.1686 20.4825 69.2677 20.4577 69.3684 20.4325C69.5084 20.3974 69.6516 20.3615 69.7877 20.3197C69.7927 20.3355 69.7975 20.3512 69.8022 20.3668L69.8237 20.4379H69.898C69.9135 20.4379 69.928 20.4378 69.9419 20.4376C69.9676 20.4373 69.9912 20.4371 70.016 20.4379L70.0171 20.4379C70.3647 20.4447 70.6271 20.4612 70.8241 20.5017C71.0207 20.5422 71.1386 20.604 71.2115 20.6906C71.2845 20.7772 71.3258 20.9047 71.3334 21.1069C71.341 21.3093 71.3143 21.5726 71.2644 21.9186C71.2524 22.002 71.2413 22.0845 71.2302 22.1666C71.2029 22.3695 71.1761 22.5688 71.1369 22.7678ZM63.7183 11.8369C63.0594 11.8729 62.4201 11.9079 61.7956 11.4207C61.8945 10.8392 61.9366 10.2442 61.9787 9.6485C61.9924 9.45428 62.0062 9.25999 62.0219 9.06608C62.086 8.27475 62.1832 7.48307 62.4435 6.69895C62.9236 6.66328 63.4014 6.62739 63.8777 6.59161C64.9136 6.51379 65.9424 6.43651 66.9719 6.36316L66.972 6.36316C67.282 6.34084 67.5913 6.31615 67.9 6.2915C68.7568 6.2231 69.6099 6.155 70.4655 6.13871L70.4656 6.13871C71.0363 6.12701 71.3508 6.2066 71.5313 6.39766C71.7142 6.5913 71.7866 6.92663 71.7878 7.50921C71.7894 8.34309 71.7889 9.1769 71.7884 10.0639C71.7881 10.4994 71.7878 10.9477 71.7878 11.4152C71.4864 11.4392 71.2021 11.4635 70.9296 11.4868C70.3017 11.5405 69.7368 11.5888 69.1702 11.6163L69.17 11.6163C67.4785 11.7002 65.7863 11.7755 64.0943 11.8199L64.0943 11.8199C63.9682 11.8233 63.8429 11.8301 63.7183 11.8369Z"
    fill="#251C1C"
    stroke="#251C1C"
    stroke-width="0.2"
  />
  <path
    d="M30.7183 19.8361C30.946 19.3139 31.2257 18.83 31.5443 18.3769C31.6872 18.2745 31.7986 18.1313 31.8628 17.9498C32.4405 17.2227 33.1223 16.5807 33.8598 15.998C35.1872 14.95 36.7494 14.187 37.9654 12.997C39.1885 11.7995 39.7772 10.0811 39.1547 8.41207C38.818 7.50842 38.2064 6.76278 37.4446 6.22331C36.6647 5.611 35.8823 5.053 34.9438 4.70117C34.532 4.54685 34.0863 4.49131 33.6479 4.5234C33.6467 4.5234 33.6455 4.5234 33.643 4.52217C32.7057 4.38637 31.9391 4.97522 31.2657 5.56408C30.9944 5.80233 30.9412 6.09246 31.0223 6.3517C30.9569 6.47145 30.8964 6.59242 30.8382 6.71464C30.0038 7.61952 29.454 8.85032 29.5872 10.0243C29.6405 10.4922 29.9396 10.8835 30.435 10.8885C30.7692 10.8922 31.1434 10.6329 31.2536 10.2934C31.3081 10.3021 31.365 10.3095 31.4256 10.3181C31.514 9.86753 31.5697 9.50583 31.6593 9.15153C31.7211 8.9071 31.7756 8.65774 31.8507 8.41701C32.2225 8.45651 32.6294 8.2886 32.799 7.84172C33.0024 7.30718 33.6285 7.0788 34.1553 7.01461C34.2195 7.02078 34.2837 7.02942 34.3479 7.043C35.9865 7.37508 36.173 9.44657 35.6523 10.7514C34.9619 12.4822 33.3451 13.8846 31.9221 14.9882C31.8967 15.008 31.8712 15.0277 31.8446 15.0475C31.7344 15.0821 31.623 15.1142 31.5104 15.1438C30.6336 15.3734 30.1854 15.9734 29.9723 16.7412C29.3328 17.5226 28.949 18.4423 29.1706 19.6287C29.299 20.3262 30.4252 20.5077 30.7183 19.8361Z"
    fill="#39B100"
  />
  <path
    d="M43.1561 19.6446C44.2121 20.052 45.1349 19.1261 45.2839 18.115C45.4474 17.0027 45.2367 15.7695 45.1701 14.6535C45.0623 12.8104 44.9339 10.9698 44.7873 9.13036C44.7583 8.22178 44.7038 7.31321 44.6481 6.40585C44.6202 5.95032 44.5415 5.50095 43.9263 5.45897C43.8464 5.45404 43.77 5.45159 43.6974 5.45406C43.1851 5.10717 42.3241 5.32814 42.3689 6.12686C42.6026 10.3513 42.6571 14.5832 42.5323 18.8113C42.5214 19.2175 42.8109 19.5113 43.1561 19.6446Z"
    fill="#39B100"
  />
  <path
    d="M32.0698 24.8334C32.7322 24.0976 32.8279 22.7372 31.8578 22.2064C31.4049 21.957 30.849 22.0533 30.4566 22.3706C30.4106 22.4088 30.3682 22.4484 30.3295 22.4891C29.3921 22.6582 28.8919 23.8445 29.4091 24.6914C30.0013 25.6605 31.3552 25.6272 32.0698 24.8334Z"
    fill="#39B100"
  />
  <path
    d="M44.388 25.4569C44.394 25.3397 44.4013 25.2261 44.4098 25.1138C44.7174 25.036 45.0044 24.8693 45.2188 24.6187C45.7868 23.9558 45.7843 22.8077 44.9632 22.3398C44.629 22.1497 44.2608 22.1485 43.9447 22.2757C43.7522 22.2386 43.5427 22.2695 43.3368 22.3621C42.4503 22.7583 42.3195 23.9533 42.9056 24.657C43.0558 25.1816 43.5172 25.4014 44.388 25.4569Z"
    fill="#39B100"
  />
  <path
    d="M41.79 20.7238L41.7782 20.6338C41.7719 20.585 41.7621 20.5329 41.751 20.4736C41.7421 20.4258 41.7323 20.3733 41.7227 20.314C41.7022 20.1883 41.6855 20.046 41.6927 19.9024L41.6927 19.9024C41.7216 19.3253 41.7528 18.7486 41.784 18.1722C41.9567 14.9784 42.1291 11.7918 41.912 8.59506L41.912 8.59501C41.8597 7.81812 41.8681 7.0343 41.8765 6.25555C41.8797 5.96686 41.8828 5.67887 41.8828 5.39219V5.39201C41.8834 5.03097 42.0175 4.79982 42.2322 4.65722C42.4374 4.52093 42.705 4.47377 42.9563 4.44593L41.79 20.7238ZM41.79 20.7238L41.8806 20.7209M41.79 20.7238L41.8806 20.7209M41.8806 20.7209C42.195 20.7107 42.4947 20.7032 42.7836 20.696C43.5417 20.6771 44.2257 20.66 44.9052 20.6008L44.9055 20.6008M41.8806 20.7209L44.9055 20.6008M44.9055 20.6008C45.0455 20.5882 45.1888 20.5035 45.3046 20.4039C45.4225 20.3025 45.5272 20.1726 45.5864 20.0477M44.9055 20.6008L45.5864 20.0477M45.427 12.6424C45.4222 14.0799 45.4641 15.5179 45.5059 16.9561C45.5273 17.6917 45.5487 18.4273 45.5639 19.163M45.427 12.6424L41.8485 20.4506C41.8602 20.5134 41.8709 20.5709 41.8774 20.6209C42.1937 20.6107 42.4946 20.6032 42.7841 20.5959C43.5409 20.5771 44.2203 20.5601 44.8965 20.5012C45.1158 20.4814 45.3919 20.2246 45.4961 20.0049M45.427 12.6424C45.4323 10.8686 45.4848 9.09485 45.5372 7.32108C45.5575 6.63573 45.5778 5.95038 45.5953 5.26503L45.427 12.6424ZM45.5639 19.163C45.5649 19.2124 45.567 19.263 45.569 19.314C45.5788 19.5561 45.5891 19.8091 45.4961 20.0049M45.5639 19.163L45.6639 19.1609C45.6639 19.1609 45.6639 19.1609 45.6639 19.1608M45.5639 19.163L45.6639 19.1608M45.4961 20.0049L45.5864 20.0477M45.4961 20.0049L45.5864 20.0478C45.5864 20.0478 45.5864 20.0478 45.5864 20.0477M45.5864 20.0477C45.6516 19.9105 45.6707 19.7544 45.6744 19.604C45.6769 19.5063 45.6727 19.4026 45.6688 19.3049C45.6668 19.2548 45.6648 19.2062 45.6639 19.1608M45.5864 20.0477L45.6639 19.1608M45.6639 19.1608C45.6487 18.4234 45.6272 17.6869 45.6058 16.9509C45.564 15.5137 45.5222 14.0787 45.527 12.6427L45.527 12.6427C45.5323 10.8703 45.5847 9.0986 45.6372 7.32532C45.6574 6.63969 45.6777 5.95383 45.6953 5.26761C45.7043 4.9165 45.6704 4.65193 45.5144 4.4882C45.3556 4.32158 45.1004 4.2893 44.7623 4.30968L45.6639 19.1608ZM44.6354 4.31722C44.6777 4.31471 44.72 4.31221 44.7622 4.30969L44.6354 4.31722ZM44.6354 4.31722C44.0772 4.35032 43.5153 4.38364 42.9563 4.44592L44.6354 4.31722ZM42.7513 7.71209L42.7513 7.71203C42.7525 7.22266 42.7684 6.72961 42.8712 6.2682L42.8712 6.2682C42.9399 5.95981 43.0568 5.7796 43.2166 5.67692C43.3796 5.57224 43.6061 5.53569 43.9208 5.55736L43.9209 5.55736C44.1998 5.57639 44.3409 5.68398 44.4221 5.82569C44.5093 5.97772 44.5358 6.18208 44.5497 6.41058L44.5497 6.41058C44.6224 7.59836 44.6924 8.78367 44.7082 9.96977C44.732 11.7817 44.7333 13.5944 44.7346 15.4073C44.7349 15.8909 44.7352 16.3746 44.736 16.8583C44.736 17.2654 44.7192 17.674 44.6902 18.0806L44.6902 18.0809C44.6655 18.4421 44.6255 18.7183 44.559 18.9226C44.4929 19.1259 44.4043 19.2472 44.2894 19.3145C44.173 19.3826 44.0116 19.4061 43.7774 19.3742C43.5569 19.3441 43.2829 19.2664 42.9409 19.144C42.9268 18.5653 42.9122 17.9842 42.8976 17.4013C42.8559 15.739 42.8138 14.0621 42.7827 12.385C42.7549 10.8279 42.7464 9.26947 42.7513 7.71209ZM43.9277 5.4576L43.9277 5.4576L43.9277 5.4576Z"
    fill="#251C1C"
    stroke="#251C1C"
    stroke-width="0.2"
  />
  <path
    d="M42.1762 26.2733L42.1661 26.1939C42.1162 25.8036 42.066 25.4214 42.0165 25.0448C41.9015 24.17 41.7905 23.3253 41.6973 22.4788L42.1762 26.2733ZM42.1762 26.2733L42.256 26.2808M42.1762 26.2733L42.256 26.2808M42.256 26.2808C42.5107 26.3045 42.7559 26.3292 42.9947 26.3532C43.5225 26.4062 44.0187 26.4561 44.5155 26.4859M42.256 26.2808L45.5078 25.5348M45.5078 25.5348L45.5078 25.5349C45.5291 25.8422 45.4562 26.0961 45.2772 26.2668C45.0993 26.4365 44.8358 26.5054 44.5155 26.4859M45.5078 25.5348C45.4399 24.5585 45.3563 23.5821 45.2544 22.6093M45.5078 25.5348L45.2544 22.6093M44.5155 26.4859L44.5216 26.3861L44.5156 26.486C44.5155 26.4859 44.5155 26.4859 44.5155 26.4859ZM45.2544 22.6093C45.2169 22.2509 45.1345 21.9899 44.9455 21.8256C44.7572 21.6618 44.4859 21.6142 44.1267 21.6185L44.1266 21.6185C43.5673 21.626 43.0077 21.642 42.448 21.6705L42.4478 21.6705C42.2217 21.6824 42.0183 21.7494 41.8776 21.8876C41.734 22.0287 41.6698 22.2301 41.6973 22.4788L45.2544 22.6093ZM44.128 21.7185C43.5697 21.7259 43.0113 21.742 42.453 21.7704L45.155 22.6197C45.0811 21.9135 44.8377 21.7099 44.128 21.7185ZM44.3589 23.8371L44.3589 23.8373C44.3783 24.0854 44.3687 24.3373 44.3502 24.6042C44.3437 24.6968 44.3362 24.792 44.3284 24.8894C44.3166 25.0378 44.3044 25.1914 44.2951 25.3494C43.6017 25.2923 43.2334 25.1211 43.0665 24.7935C42.9767 24.6173 42.9381 24.3838 42.9522 24.0725C42.9656 23.7758 43.0265 23.4157 43.1296 22.9796C43.3715 22.938 43.5641 22.9153 43.7188 22.916C43.8869 22.9168 44 22.9452 44.0805 22.9976C44.1592 23.0488 44.2195 23.1312 44.2651 23.267C44.3114 23.4048 44.34 23.5902 44.3589 23.8371Z"
    fill="#251C1C"
    stroke="#251C1C"
    stroke-width="0.2"
  />
  <path
    d="M35.0204 12.2728L35.0205 12.2727C35.9093 11.5179 36.0709 10.2976 35.461 9.28727C35.2548 8.94577 35.0118 8.61818 34.7409 8.32872C34.3234 7.88332 33.9057 7.71087 33.5478 7.76495C33.1915 7.8188 32.8557 8.10329 32.6144 8.66038C32.5299 8.85736 32.4926 9.08173 32.4733 9.32185C32.4636 9.44163 32.4585 9.56367 32.4539 9.68718C32.4534 9.70083 32.4529 9.7145 32.4524 9.72818C32.4483 9.83771 32.4442 9.94835 32.4371 10.0569L32.437 10.0571C32.4174 10.3466 32.4218 10.6359 32.4266 10.9482C32.4289 11.0934 32.4312 11.2435 32.4312 11.4009V11.5109L32.3217 11.5004C32.0014 11.4698 31.6983 11.444 31.408 11.4193C30.663 11.3559 30.0024 11.2996 29.3531 11.1871L29.353 11.1871C29.2738 11.1733 29.1969 11.1215 29.1332 11.0655C29.0666 11.0071 29.0018 10.9328 28.9466 10.856C28.8916 10.7793 28.8436 10.6966 28.8126 10.6199C28.7972 10.5816 28.785 10.5424 28.779 10.5046C28.7732 10.4679 28.7721 10.425 28.7865 10.3839M35.0204 12.2728L28.8809 10.417M35.0204 12.2728C34.0354 13.1095 33.018 13.8365 31.7306 14.1567M35.0204 12.2728L31.7306 14.1567M28.7865 10.3839L28.8809 10.417M28.7865 10.3839C28.7865 10.384 28.7865 10.384 28.7865 10.384L28.8809 10.417M28.7865 10.3839C28.9751 9.8442 29.114 9.2914 29.2542 8.73341C29.3324 8.42209 29.4111 8.10916 29.499 7.79598C29.7425 6.9282 30.0541 6.0741 30.6207 5.30843M28.8809 10.417C29.0708 9.87358 29.2119 9.31238 29.353 8.75102C29.6501 7.56909 29.9473 6.38649 30.7011 5.36789L30.6207 5.30843M30.6207 5.30843C30.6207 5.30842 30.6207 5.30841 30.6207 5.3084C30.6207 5.30842 30.6207 5.30841 30.6207 5.30843ZM32.3312 11.4009H32.2312C32.2312 11.3977 32.2312 11.3946 32.2312 11.3914C32.2643 11.3945 32.2976 11.3977 32.3312 11.4009ZM32.3312 11.4009L32.3407 11.3013C32.3374 11.301 32.3341 11.3007 32.3309 11.3004C32.3311 11.3336 32.3312 11.3671 32.3312 11.4009ZM31.7547 14.2538C29.8219 14.7328 29.2175 15.5784 29.0347 17.645M31.7547 14.2538C33.0651 13.9279 34.0969 13.1884 35.0852 12.349L29.0347 17.645M31.7547 14.2538L31.7306 14.1567M31.7547 14.2538L31.7307 14.1567C31.7307 14.1567 31.7306 14.1567 31.7306 14.1567M29.0347 17.645C29.0199 17.8178 28.9987 17.9901 28.9774 18.1624C28.9535 18.357 28.9295 18.5517 28.9147 18.7474M29.0347 17.645L28.9147 18.7474M31.7306 14.1567C30.7546 14.3986 30.0952 14.7374 29.6598 15.2923C29.2259 15.8453 29.027 16.5974 28.9351 17.6362L28.935 17.6364C28.9204 17.8073 28.8994 17.9779 28.8781 18.1507L28.8741 18.1835C28.8516 18.3668 28.8292 18.5526 28.815 18.7398L28.815 18.7399C28.7963 18.9888 28.7971 19.195 28.8262 19.3605C28.8555 19.5267 28.9151 19.6615 29.0221 19.7551C29.1292 19.8488 29.2696 19.8888 29.4346 19.895C29.5987 19.9011 29.7968 19.8741 30.0305 19.8241M31.7306 14.1567L30.0305 19.8241M30.0305 19.8241C30.7316 19.6745 31.4375 19.5273 32.1378 19.5066C32.1379 19.5066 32.1379 19.5066 32.138 19.5066L32.135 19.4066M30.0305 19.8241L33.892 16.6207M32.135 19.4066C33.0191 19.3819 33.1438 19.2906 33.0094 18.3462C32.8629 17.324 32.9804 17.0574 33.8402 16.5352M32.135 19.4066C31.4241 19.4276 30.7096 19.5769 30.0096 19.7263C29.0855 19.9238 28.8409 19.7313 28.9147 18.7474M32.135 19.4066L28.9147 18.7474M33.8402 16.5352L33.8917 16.6209C33.8918 16.6209 33.8919 16.6208 33.892 16.6207M33.8402 16.5352L33.8921 16.6206C33.8921 16.6207 33.892 16.6207 33.892 16.6207M33.8402 16.5352C33.9351 16.4783 34.0385 16.437 34.1419 16.3957C34.2248 16.3626 34.3078 16.3294 34.3864 16.2883M33.892 16.6207C33.9697 16.5741 34.0553 16.5381 34.1483 16.5008C34.1584 16.4968 34.1687 16.4927 34.179 16.4885C34.2613 16.4557 34.3492 16.4206 34.4327 16.3769M34.3864 16.2883L34.4327 16.3769M34.3864 16.2883L34.4328 16.3769C34.4327 16.3769 34.4327 16.3769 34.4327 16.3769M34.3864 16.2883C36.2091 15.3365 37.6878 14.0402 38.8165 12.2514M34.4327 16.3769L38.9011 12.3048M38.8165 12.2514L38.9011 12.3048M38.8165 12.2514L38.9011 12.3048C38.9011 12.3048 38.9011 12.3048 38.9011 12.3048M38.8165 12.2514C39.8059 10.6836 39.7878 9.08867 39.4123 7.41099M38.9011 12.3048C39.9103 10.7057 39.8883 9.07998 39.5099 7.38915M39.4123 7.41099L39.5099 7.38921C39.5099 7.38919 39.5099 7.38917 39.5099 7.38915M39.4123 7.41099C39.336 7.06903 39.1459 6.70733 38.9061 6.45672L39.5099 7.38915M39.4123 7.41099L39.5099 7.38915M31.5633 9.12838C31.5012 9.37412 31.4548 9.62517 31.4035 9.90263C31.3854 10.0007 31.3666 10.102 31.3464 10.2076C31.1002 10.1731 30.9087 10.1384 30.7592 10.095C30.5915 10.0461 30.487 9.98899 30.4197 9.91806C30.354 9.8489 30.314 9.75652 30.2961 9.61667C30.2779 9.47445 30.2834 9.29151 30.303 9.04857L30.303 9.04854C30.396 7.89486 30.801 6.84507 31.4186 5.88364C32.1284 4.77881 33.6731 4.33334 34.9109 4.79617L34.9109 4.79618C35.9707 5.19233 36.8313 5.8577 37.7295 6.57559L37.7295 6.5756C38.4765 7.1724 38.7931 8.36838 38.755 9.57716C38.736 10.1778 38.6295 10.7732 38.45 11.2856C38.27 11.7994 38.0194 12.2221 37.7177 12.486C37.4745 12.6982 37.2546 12.9369 37.0391 13.1709L37.024 13.1873C36.8023 13.428 36.5845 13.6632 36.3439 13.8692L36.4089 13.9452L36.3439 13.8692C35.865 14.2792 35.3347 14.6402 34.7907 14.9641C34.5589 15.1017 34.3088 15.2099 34.0519 15.3211L34.0389 15.3268C33.7796 15.439 33.5136 15.5548 33.2664 15.7052C32.5681 16.1281 31.9023 16.6144 31.8282 17.6452C31.8049 17.9666 31.6612 18.1907 31.4514 18.3233C31.2386 18.4578 30.9469 18.5049 30.6206 18.4465C30.3845 18.4041 30.2011 18.2826 30.0849 18.0998C29.9679 17.9157 29.9136 17.6607 29.9549 17.3444L29.9549 17.3443C30.0216 16.8327 30.1593 16.3745 30.4077 16.0114C30.6545 15.6508 31.0139 15.3785 31.5366 15.2419L31.5367 15.2418C33.0259 14.8505 34.2815 14.0695 35.4511 13.0847C36.4026 12.2835 37.0578 11.3213 36.7914 10.0168L36.7914 10.0166C36.4867 8.53236 35.7325 7.27707 34.26 6.66679L34.2599 6.66674C33.8093 6.48064 33.3557 6.51793 32.9488 6.74653C32.5448 6.97349 32.1919 7.38556 31.9261 7.94194L31.9261 7.94198C31.7759 8.2568 31.6908 8.60632 31.6096 8.94037C31.5942 9.00371 31.5789 9.06649 31.5633 9.12838ZM31.5633 9.12838C31.5633 9.12837 31.5633 9.12836 31.5634 9.12835L31.6603 9.15287L31.5633 9.12849C31.5633 9.12845 31.5633 9.12842 31.5633 9.12838Z"
    fill="#251C1C"
    stroke="#251C1C"
    stroke-width="0.2"
  />
  <path
    d="M29.0199 24.7303L29.0199 24.7301C29.007 24.492 28.9867 24.254 28.9664 24.0142L28.9652 24.0005C28.9445 23.7566 28.9237 23.5109 28.9109 23.2646L28.9109 23.2645C28.8812 22.6917 28.9402 22.2848 29.1844 22.0318C29.4289 21.7784 29.8306 21.7088 30.3965 21.7237C30.5174 21.7265 30.6402 21.7369 30.759 21.7471C30.8 21.7506 30.8406 21.754 30.8804 21.7571C31.7226 21.7886 32.276 21.8967 32.6144 22.2479C32.9523 22.5984 33.0517 23.1662 33.0722 24.0335M29.0199 24.7303L32.9722 24.0359M29.0199 24.7303C29.0441 25.1622 29.115 25.4696 29.317 25.648C29.5204 25.8277 29.8265 25.8506 30.2382 25.808L30.2383 25.808C30.3567 25.7957 30.4745 25.7821 30.5918 25.7684C31.071 25.7128 31.5407 25.6583 32.0012 25.702L32.0015 25.702C32.3134 25.7307 32.5485 25.671 32.7196 25.5228C32.8877 25.3772 32.9773 25.1603 33.0312 24.9114M29.0199 24.7303L32.9335 24.8901M33.0722 24.0335L32.9722 24.0359M33.0722 24.0335C33.0722 24.0334 33.0722 24.0334 33.0722 24.0333L32.9722 24.0359M33.0722 24.0335C33.0728 24.0582 33.0735 24.0832 33.0742 24.1084C33.0815 24.368 33.0893 24.6483 33.0312 24.9114M32.9722 24.0359C32.9728 24.0604 32.9735 24.085 32.9742 24.1097C32.9814 24.3716 32.9888 24.6396 32.9335 24.8901M33.0312 24.9114C33.0312 24.9114 33.0312 24.9113 33.0312 24.9113L32.9335 24.8901M33.0312 24.9114C33.0312 24.9115 33.0311 24.9116 33.0311 24.9117L32.9335 24.8901M30.8537 24.5821L30.8541 24.582C30.922 24.5651 30.9877 24.5434 31.0572 24.5204C31.0825 24.512 31.1083 24.5035 31.1349 24.4949C31.2315 24.4639 31.3353 24.4343 31.4441 24.4239M30.8537 24.5821L31.4535 24.5235M30.8537 24.5821C30.628 24.6393 30.4604 24.6129 30.3449 24.5346C30.2292 24.4564 30.1454 24.3125 30.1163 24.0919L30.1163 24.0916C30.0889 23.8875 30.0857 23.6787 30.0898 23.4484C30.0912 23.3681 30.0935 23.2846 30.0959 23.1977C30.0995 23.0705 30.1032 22.9362 30.1045 22.795C30.2446 22.8046 30.3848 22.8079 30.5177 22.811C30.6152 22.8133 30.7088 22.8155 30.7957 22.82C31.0412 22.8328 31.2493 22.864 31.4197 22.9549M30.8537 24.5821L31.4197 22.9549M31.4441 24.4239L31.4535 24.5235M31.4441 24.4239C31.444 24.4239 31.444 24.4239 31.4439 24.4239L31.4535 24.5235M31.4441 24.4239C31.6395 24.4051 31.8161 24.3641 31.9291 24.2851C31.9833 24.2471 32.0201 24.2023 32.0397 24.1481C32.0595 24.0937 32.065 24.0208 32.0407 23.9215M31.4535 24.5235C31.8508 24.4852 32.2492 24.3531 32.1378 23.8976M32.0407 23.9215C32.0407 23.9215 32.0407 23.9216 32.0408 23.9216L32.1378 23.8976M32.0407 23.9215C31.9953 23.7382 31.9115 23.5331 31.8012 23.3541C31.6901 23.1736 31.5577 23.029 31.4197 22.9549M32.0407 23.9215C32.0407 23.9214 32.0407 23.9214 32.0407 23.9213L32.1378 23.8976M32.1378 23.8976L31.4197 22.9549"
    fill="#251C1C"
    stroke="#251C1C"
    stroke-width="0.2"
  />
  <path
    d="M3.41056 27.8113C3.78732 27.8428 4.08632 27.8072 4.29637 27.637C4.50801 27.4655 4.60304 27.1791 4.62954 26.7792C4.71203 25.557 4.76641 24.3272 4.74263 23.1011L4.64264 23.103L4.74263 23.101C4.71234 21.5494 4.65836 19.9963 4.6044 18.4441C4.56785 17.3926 4.53131 16.3414 4.50217 15.2914L4.50217 15.2914C4.49368 14.9888 4.49429 14.7655 4.5171 14.5986C4.53986 14.4323 4.58279 14.3378 4.64575 14.2783C4.70943 14.2181 4.80952 14.1784 4.98177 14.1586C5.15384 14.1388 5.38132 14.1405 5.68621 14.1491L2.38613 25.957C2.38389 26.0151 2.38163 26.0735 2.37974 26.1325C2.37294 26.3444 2.37104 26.5603 2.3938 26.7751L2.39383 26.7753C2.42954 27.106 2.52374 27.3567 2.69795 27.5303C2.87262 27.7044 3.11327 27.7866 3.41056 27.8113ZM3.41056 27.8113L3.4189 27.7116L3.41063 27.8113C3.41061 27.8113 3.41059 27.8113 3.41056 27.8113ZM1.56754 4.47632L1.49875 4.5489C1.94313 4.97007 2.10049 5.404 2.11896 5.97892C2.12734 6.24466 2.15035 6.50996 2.17308 6.77205C2.17514 6.79584 2.1772 6.81959 2.17925 6.84333C2.20395 7.12969 2.22676 7.41246 2.22954 7.69474L2.22954 7.6948C2.28541 13.0367 2.33305 18.3786 2.38069 23.7205C2.386 24.3151 2.3913 24.9096 2.39661 25.5042L21.454 13.1055L21.5489 13.0743C21.5489 13.0742 21.5489 13.0742 21.5489 13.0741C21.5084 12.9515 21.4025 12.8616 21.3034 12.793C21.2519 12.7574 21.1967 12.724 21.1447 12.6928L21.1291 12.6834C21.0819 12.6552 21.0379 12.6288 20.9978 12.6022L20.9978 12.6022C20.8146 12.4808 20.6315 12.3593 20.4484 12.2377C19.4378 11.5672 18.427 10.8964 17.4057 10.2413C16.8791 9.90307 16.42 9.56151 16.2109 8.853C16.3387 8.75547 16.4649 8.65743 16.5904 8.55983C16.8874 8.32905 17.1811 8.10073 17.4866 7.88744C17.9729 7.54898 18.464 7.21513 18.9556 6.88095C19.8056 6.30307 20.6571 5.72418 21.488 5.1187L21.4291 5.03789L21.488 5.1187C21.6574 4.99523 21.7884 4.89338 21.883 4.79894C21.9785 4.70362 22.0433 4.6097 22.0719 4.50056C22.1005 4.3918 22.0896 4.28068 22.0585 4.15796C22.0278 4.03654 21.9742 3.89317 21.9089 3.71863L21.886 3.65746L21.8207 3.65385C21.1835 3.61855 20.5624 3.5844 19.9491 3.55068C19.3223 3.51622 18.7036 3.4822 18.0841 3.44787L18.0841 3.44787C18.0179 3.44421 17.9506 3.43989 17.8828 3.43554C17.7624 3.42782 17.6405 3.41999 17.5201 3.41556C16.5737 3.3805 15.6272 3.34377 14.6806 3.30703C12.0242 3.20393 9.36718 3.10082 6.70986 3.03463L6.70985 3.03463C6.25095 3.02326 5.89715 2.96094 5.61322 2.79268C5.33194 2.626 5.10623 2.34737 4.9208 1.87594L4.92079 1.87593C4.63695 1.15475 3.91674 0.764457 3.16916 0.700872C2.42169 0.637295 1.61898 0.897214 1.15482 1.51041L1.1548 1.51043C0.513759 2.35785 0.611695 3.71176 1.49891 4.54905L1.56754 4.47632ZM1.56754 4.47632C2.03377 4.9182 2.19972 5.37849 2.21891 5.97571M1.56754 4.47632L2.21891 5.97571M2.21891 5.97571C2.22719 6.23857 2.24997 6.50119 2.27274 6.7638C2.29961 7.07369 2.32648 7.38355 2.32954 7.69375C2.38541 13.0358 2.43305 18.3778 2.48069 23.7198L2.21891 5.97571ZM3.65035 6.016L3.55042 6.01981C3.55042 6.01981 3.55042 6.01981 3.55042 6.01981C3.5434 5.83578 3.51249 5.65074 3.47402 5.46126C3.46046 5.39448 3.44576 5.32628 3.43091 5.25738C3.41475 5.18241 3.39841 5.10661 3.38317 5.03092C3.28613 5.09679 3.20981 5.16045 3.15483 5.2212C3.07804 5.30606 3.05174 5.37513 3.05377 5.43003L3.05378 5.43029C3.13866 7.90233 3.1203 10.3779 3.10195 12.8509C3.09466 13.8337 3.08737 14.8161 3.08657 15.7977C3.08385 19.1234 3.15547 22.4433 3.55216 25.7532L3.79228 19.2967C3.76968 16.0546 3.74707 12.8126 3.72146 9.57055C3.71243 8.38646 3.69551 7.20008 3.65035 6.016ZM3.65035 6.016C3.64035 5.7541 3.58421 5.49381 3.52803 5.23331C3.5093 5.14646 3.49056 5.05958 3.47353 4.97262L3.65035 6.016ZM11.5386 3.83126L11.5386 3.83126C9.24962 3.58918 6.96431 3.56287 4.60833 4.15173C4.59838 4.28167 4.5868 4.41296 4.57512 4.54537C4.5443 4.89471 4.51279 5.25177 4.50892 5.61197C4.50892 5.61199 4.50892 5.612 4.50892 5.61201L11.5386 3.83126ZM11.5386 3.83126C12.6265 3.94621 13.723 3.9812 14.8289 4.01648C15.2163 4.02885 15.6049 4.04125 15.9947 4.05713C17.4452 4.11626 18.9176 4.22369 20.4291 4.55507M11.5386 3.83126L20.4291 4.55507M20.4291 4.55507C20.306 4.68844 20.1944 4.81603 20.0907 4.93469C20.0256 5.00924 19.9635 5.08027 19.9035 5.14697C19.7156 5.35608 19.5459 5.52629 19.3531 5.65421L19.353 5.65427C18.0352 6.53103 16.6866 7.36206 15.3271 8.17286L15.327 8.1729C15.2588 8.21366 15.1875 8.24937 15.1132 8.28657C15.0937 8.29631 15.074 8.30616 15.0541 8.31623C14.9609 8.36346 14.8643 8.41507 14.7797 8.47935C14.6943 8.54435 14.618 8.62456 14.5677 8.73064C14.5172 8.83715 14.4962 8.96255 14.51 9.11253M20.4291 4.55507L4.50666 9.63873C4.4942 10.522 4.43986 11.4045 4.37661 12.283C4.35622 12.5701 4.41009 12.7895 4.52257 12.9434C4.63377 13.0957 4.81235 13.1979 5.0711 13.232L5.07134 13.232C5.19436 13.2485 5.31735 13.2656 5.44027 13.2826C6.24733 13.3943 7.05166 13.5057 7.84504 13.4683L7.84507 13.4683C8.76203 13.4252 9.67782 13.3443 10.5954 13.2584C10.7261 13.2462 10.8569 13.2339 10.9878 13.2215C11.7744 13.1473 12.5627 13.073 13.3519 13.0196C13.9771 12.9768 14.6087 12.996 15.2343 13.015C15.4717 13.0222 15.7082 13.0294 15.9432 13.0332L15.9433 13.0332C16.1039 13.0358 16.2641 13.04 16.4242 13.0443C17.3968 13.0698 18.3678 13.0953 19.4225 12.7751M14.51 9.11253C14.51 9.11248 14.51 9.11243 14.51 9.11238L14.6096 9.10338L14.51 9.11253ZM14.51 9.11253C14.5554 9.61531 14.8863 9.87253 15.3025 10.0981L15.3025 10.0981C16.2985 10.6373 17.259 11.2445 18.2221 11.8534C18.3426 11.9296 18.4632 12.0058 18.5839 12.0819M18.5839 12.0819C18.7318 12.1755 18.8699 12.2887 19.0251 12.4244C19.0741 12.4673 19.1251 12.5127 19.1786 12.5603C19.2544 12.6277 19.3351 12.6995 19.4225 12.7751M18.5839 12.0819L18.6374 11.9974M18.5839 12.0819C18.584 12.082 18.584 12.082 18.584 12.082L18.6374 11.9974M19.4225 12.7751C19.4598 12.7638 19.4972 12.752 19.5347 12.7398M19.4225 12.7751C19.4516 12.8003 19.4815 12.826 19.5122 12.852C18.417 13.197 17.4102 13.1704 16.4198 13.1442C16.2601 13.14 16.1008 13.1358 15.9416 13.1332L19.5347 12.7398M19.5347 12.7398C19.4301 12.6502 19.3353 12.5658 19.2465 12.4868C19.0255 12.2902 18.8418 12.1267 18.6374 11.9974M19.5347 12.7398L15.3501 10.0101C16.3493 10.5511 17.3128 11.1602 18.2755 11.7688C18.3961 11.8451 18.5167 11.9213 18.6374 11.9974M21.3899 13.8024L21.3901 13.802L7.83401 14.1236C8.748 14.0626 9.6565 13.9914 10.5643 13.9202C11.5999 13.839 12.6346 13.7579 13.6755 13.6921C13.9664 13.6741 14.2605 13.6861 14.5591 13.7055C14.6464 13.7111 14.7344 13.7175 14.8228 13.7238C15.0347 13.739 15.249 13.7544 15.462 13.7613C17.301 13.8211 19.1401 13.8787 20.9792 13.9316L20.9821 13.8317L20.9789 13.9316C21.0373 13.9335 21.1167 13.9311 21.1872 13.9196C21.2221 13.9138 21.2595 13.9051 21.2923 13.8911C21.3212 13.8788 21.3677 13.8536 21.3899 13.8024ZM4.1622 2.76668L4.1622 2.76685C4.16015 3.06937 4.01271 3.37367 3.78615 3.60164C3.55939 3.82981 3.26411 3.97094 2.97812 3.96327C2.56306 3.95117 2.26318 3.82163 2.06955 3.59741C1.87474 3.37182 1.77364 3.03446 1.79055 2.57915C1.80226 2.27607 1.89929 2.02988 2.04595 1.86528C2.19135 1.70212 2.38842 1.61517 2.61531 1.63028C2.98428 1.65523 3.37729 1.82182 3.67736 2.04806C3.82692 2.16081 3.95021 2.28604 4.03508 2.41186C4.12038 2.53832 4.1631 2.65958 4.1622 2.76668Z"
    fill="#251C1C"
    stroke="#251C1C"
    stroke-width="0.2"
  />
</svg>
