<svg
  width="46"
  height="35"
  viewBox="0 0 46 35"
  fill="none"
  xmlns="http://www.w3.org/2000/svg"
>
  <path
    d="M44.8388 28.9575C47.212 21.6182 45.5457 13.9795 43.122 6.8899C42.819 6.04115 42.2636 5.54189 41.5567 5.29225C40.9002 2.49637 36.3558 3.89431 36.7597 6.93983C37.2647 10.6344 37.7696 14.329 38.2746 18.0235C38.527 22.3172 38.9815 26.6109 39.6379 30.8547C40.0418 33.5008 44.3843 33.0015 44.5863 30.5052C44.8893 29.956 44.9398 29.4068 44.8388 28.9575Z"
    fill="#47AD4B"
  />
  <path
    d="M10.0481 28.4582C9.3412 22.3172 8.63428 16.2262 7.92737 10.0852C7.6749 7.93835 7.97786 4.04408 6.36205 2.34658C5.45316 1.39797 4.14032 1.19826 2.97896 1.59768C1.46414 1.4479 -0.353642 2.74599 0.0503095 4.69313C0.151297 5.09254 0.201791 5.49195 0.302779 5.84144C0.302779 7.38916 0.656237 9.08667 0.757225 10.3348C1.00969 13.4802 1.26216 16.5757 1.46414 19.6711C1.86809 25.0132 1.8176 30.5551 7.72539 32.652C10.4016 33.6006 11.7144 30.1557 10.0481 28.4582Z"
    fill="#E5332A"
  />
  <path
    d="M44.7379 8.68728C44.6874 7.68875 44.0815 6.39066 43.3241 5.74162C40.6479 3.44499 37.3153 2.29668 33.9322 1.64764C30.1452 0.898738 26.3076 0.499326 22.4701 0.14984C20.4503 -0.0498668 18.4306 0.14984 16.4108 0.0499864C11.7654 -0.14972 7.22093 0.249693 2.72697 1.398C1.41412 1.74749 0.505231 2.49639 0.404243 4.04411C0.0507854 11.9325 0.858689 19.7211 2.22203 27.4097C2.424 28.7078 3.2824 30.1557 4.29228 30.9545C7.67537 33.5008 11.7149 34.0999 15.8554 34.0001C23.7325 33.8003 31.66 33.9002 39.4866 32.5023C43.8795 31.7034 45.2934 29.8562 45.1924 26.0617C45.1419 23.5155 45.1924 20.9692 45.1924 18.373C45.0409 18.373 44.8894 18.373 44.7379 18.373C44.7884 15.1278 44.8894 11.8826 44.7379 8.68728ZM3.43388 27.21C1.91906 20.1704 1.5656 13.0808 1.6161 5.8914C1.6161 3.84441 2.12104 2.64617 4.34277 2.44646C4.89821 2.39654 5.40315 1.99712 6.16055 1.69756C7.32192 11.8826 8.48328 21.818 9.59414 31.8033C6.21105 31.6535 3.98931 29.8062 3.43388 27.21ZM35.8005 31.8532C28.7314 32.3026 21.6117 32.9017 14.5426 33.0015C11.008 33.0514 10.705 32.2027 10.4525 29.1572C10.0991 24.3143 9.44266 19.5214 8.88723 14.7284C8.38229 10.4846 7.87735 6.24088 7.32192 1.89727C17.3197 0.948665 26.7621 1.09844 36.4569 3.54485C36.9114 9.23648 37.3153 14.9281 37.8203 20.6697C38.1232 24.2144 38.4767 27.7592 38.8302 31.4039C37.5678 31.6036 36.7094 31.8033 35.8005 31.8532ZM40.143 30.655C39.2846 21.9178 38.3757 13.1807 37.4668 4.09404C42.7687 5.8914 43.6271 6.79007 43.7281 10.7343C43.8291 15.8767 44.233 21.0191 44.334 26.2115C44.3845 28.9575 42.6677 30.655 40.143 30.655Z"
    fill="black"
  />
  <path
    d="M25.6511 14.5787C24.7927 13.7799 23.6819 13.2806 22.571 13.031C22.0661 12.9311 21.5106 12.981 20.9552 12.8312C19.8443 12.5816 19.7938 12.2821 19.5414 11.4333C20.9552 11.4333 22.369 11.4333 23.7829 11.4333C24.0353 11.4333 24.2878 11.1837 24.2878 10.934C24.2878 9.38631 24.2878 7.83859 24.2878 6.24094C24.2878 5.94138 24.0353 5.74167 23.7829 5.74167C21.0057 5.64182 18.4305 6.19101 15.9058 7.28939C15.6533 7.38925 15.6028 7.58895 15.6533 7.78866C15.6533 7.83859 15.6533 7.93844 15.6533 7.98837C15.7038 10.8841 15.9563 13.7798 16.4612 16.6257C16.5117 16.8753 16.8652 17.075 17.0672 16.9752C20.6017 15.7769 24.1363 18.8224 22.5205 22.3672C21.5611 24.5141 19.1374 25.4127 17.0167 25.9619C16.8147 26.0119 16.6127 26.2116 16.6632 26.4612C16.8147 27.5097 16.9662 28.5581 17.0672 29.6565C17.1177 29.8562 17.2187 30.1058 17.4206 30.1558C23.2274 31.2042 26.9135 26.8107 27.5699 21.4685C27.9234 19.0221 27.5699 16.3261 25.6511 14.5787ZM25.2472 25.7622C24.2373 27.5596 20.7027 30.5053 18.481 29.1073C17.6731 28.608 17.5216 27.26 18.279 26.7108C18.8345 26.3114 19.9958 26.1117 20.6017 25.7622C22.9245 24.4641 24.5403 22.0177 23.7829 19.3217C22.975 16.4759 20.0968 15.2277 17.3701 15.8768C16.9662 13.2806 16.7137 10.7343 16.6632 8.08822C17.8751 7.58895 19.1374 7.18954 20.5008 6.93991C21.8641 6.7402 23.0255 6.24094 23.3284 7.68881C23.5304 8.53756 23.5304 9.9355 22.8235 10.4847C22.268 10.8841 19.5919 10.4847 18.885 10.4847C18.582 10.4847 18.279 10.7843 18.38 11.1337C18.683 11.9825 18.885 12.7314 19.0364 13.6301C19.0869 13.8298 19.3394 14.0295 19.5414 13.9796C22.571 13.68 25.6006 14.6785 26.5095 17.8239C27.1155 20.3202 26.5095 23.5155 25.2472 25.7622Z"
    fill="black"
  />
</svg>
