<svg
  width="288"
  height="137"
  viewBox="0 0 288 137"
  fill="none"
  xmlns="http://www.w3.org/2000/svg"
>
  <path
    d="M87.2772 53.5445C84.3635 51.7189 81.1689 50.8413 77.4127 51.6838C75.201 52.2104 73.0947 53.3689 70.9884 54.3519C69.2332 55.1944 67.5481 56.2476 65.8631 57.1955C64.7748 57.8274 64.5993 58.5997 65.4418 59.7231C67.2673 62.2157 69.163 64.6731 70.848 67.2709C70.7427 67.5167 70.6374 67.7624 70.5672 68.0433C68.2502 65.1997 65.5471 62.7774 62.4579 61.3731C62.3526 61.2678 62.2472 61.1625 62.1068 61.0572C60.0356 59.0912 57.8942 57.1604 55.6475 55.4402C49.0126 50.3498 40.5874 51.3679 35.6727 59.8636C34.8302 61.3029 33.9525 62.672 33.2153 64.1465C31.7058 67.1656 30.8984 70.4305 31.1792 73.239C31.1792 81.1378 33.3207 87.7027 36.445 93.8813C39.8502 100.587 43.3958 107.222 47.1872 113.681C47.9244 114.945 48.7318 116.174 49.5392 117.367C52.4529 123.511 56.3496 128.987 62.1068 132.498C67.1971 135.587 73.7968 136.921 79.3785 134.464C81.0987 133.727 82.6082 132.638 83.872 131.375C86.0836 134.183 89.8399 133.692 91.9462 130.918C104.9 113.892 110.938 89.6335 105.005 68.7103C102.548 60.2848 96.2992 52.8072 87.2772 53.5445ZM90.8579 113.892C90.893 113.47 90.9632 113.014 91.0334 112.593C91.209 112.558 91.3845 112.488 91.56 112.417C91.3143 112.909 91.0685 113.4 90.8579 113.892Z"
    fill="#39B100"
  />
  <path
    d="M263.927 75.3452C263.365 85.8419 262.979 96.3387 262.522 106.87C262.452 108.801 262.944 110.065 265.331 110.311C270.456 110.837 275.582 111.575 280.672 112.452C285.938 113.365 286.956 112.733 287.307 107.186C287.412 105.326 287.623 103.465 287.517 101.64C286.815 90.5462 285.797 79.4526 285.341 68.3591C284.744 53.6497 284.639 38.9052 284.112 24.1957C284.042 22.6159 282.954 19.8075 282.041 19.7021C274.879 18.6841 267.648 17.9819 260.416 17.7362C259.188 17.7011 257.397 20.1936 256.625 21.8787C255.501 24.4064 255.326 27.3553 254.308 29.9531C250.727 39.1509 246.971 48.3136 243.215 57.4763C241.74 61.0571 242.548 63.1634 246.199 65.1294C254.799 69.6932 254.975 69.7985 258.696 60.8815C260.486 56.6337 262.382 52.4561 264.243 48.2785C264.559 48.3487 264.839 48.454 265.155 48.5242C265.261 49.437 265.506 50.3848 265.436 51.2976C264.98 59.3018 264.348 67.3411 263.927 75.3452ZM265.085 39.5722C261.399 46.5934 257.994 53.755 254.273 60.7411C253.641 61.9347 251.64 63.4794 250.727 63.2337C248.551 62.672 246.234 61.373 246.69 58.3188C246.795 57.4763 246.901 56.5635 247.252 55.7912C252.131 44.8381 256.906 33.8499 262.031 23.0372C263.646 19.667 278.425 20.65 280.11 24.0202C280.461 24.7574 280.496 25.7053 280.531 26.5478C281.233 43.504 281.865 60.4603 282.638 77.3814C282.954 84.192 283.586 90.9674 284.112 98.4099C283.901 100.481 283.621 103.184 283.375 105.888C283.164 108.38 281.9 108.977 279.584 108.38C276.003 107.502 272.352 106.73 268.701 106.133C266.314 105.747 265.787 104.518 265.928 102.272C267.227 81.7696 268.455 61.2677 269.614 40.7658C269.684 39.3615 268.912 37.8871 268.561 36.4828C267.367 37.5009 265.752 38.3084 265.085 39.5722Z"
    fill="black"
  />
  <path
    d="M130.036 109.644C128.315 115.331 128.245 115.331 133.476 118.105C143.656 123.476 144.358 123.195 148.606 112.488C155.101 96.0228 161.7 79.6283 167.984 63.0933C169.143 60.0742 170.757 59.0561 173.706 59.1263C181.5 59.337 189.293 59.5125 197.086 59.5827C199.789 59.6178 200.562 60.8816 200.913 63.4093C203.265 81.0676 205.757 98.6908 208.425 116.314C208.601 117.437 210.286 119.017 211.409 119.193C216.183 119.895 221.028 120.141 225.837 120.527C228.154 120.737 229.313 119.439 229.559 117.332C229.699 116.103 229.594 114.875 229.594 112.803C229.523 111.891 229.559 110.135 229.243 108.45C226.083 92.5473 222.643 76.7145 219.764 60.7763C217.517 48.4892 215.587 36.167 214.182 23.7745C213.551 18.2278 210.567 16.5076 205.933 15.5246C194.418 13.1023 182.904 12.8916 171.214 13.8395C167.247 14.1555 165.422 15.4544 163.982 19.0352C159.383 30.3745 154.293 41.5031 149.624 52.8423C145.938 61.7593 142.252 70.7113 139.163 79.8038C135.723 89.5984 133.055 99.6738 130.036 109.644ZM165.808 24.3362C166.229 23.3181 166.404 22.0894 167.071 21.282C168.125 20.0182 169.423 18.3331 170.793 18.1224C175.532 17.4203 180.376 17.2448 187.327 16.7182C192.417 17.4905 199.473 18.6139 206.53 19.7022C209.198 20.1235 210.567 21.6331 210.953 24.3713C212.533 35.4999 214.147 46.6286 215.868 57.7221C216.289 60.3901 217.237 62.988 217.693 65.656C220.326 80.2602 222.889 94.8643 225.451 109.468C225.592 110.206 225.557 110.943 225.557 111.68C225.592 116.068 225.205 116.63 220.958 115.963C211.83 114.559 211.585 115.893 210.356 106.449C208.355 91.2484 206.53 76.0474 204.95 60.7763C204.564 57.2657 203.475 55.721 199.86 55.5806C189.995 55.2647 180.131 54.5625 170.231 54.3168C169.002 54.2817 167.107 55.8615 166.615 57.1253C161.033 70.9922 155.733 84.9995 150.221 98.9015C148.255 103.851 146.043 108.696 143.902 113.541C142.954 115.647 142.006 117.543 138.917 116.279C133.967 114.243 132.844 113.155 133.897 109.644C137.864 96.6547 141.375 83.4548 146.184 70.7464C152.152 55.0891 159.208 39.818 165.808 24.3362Z"
    fill="black"
  />
  <path
    d="M177.708 46.2073C183.465 46.7339 189.223 47.5062 195.015 47.787C196.946 47.8924 199.438 47.3307 200.737 46.1019C203.967 43.1179 202.036 32.3755 197.964 30.7255C194.278 29.2159 190.241 28.584 186.204 27.4957C183.746 28.3383 180.446 28.4436 179.534 29.9532C177.287 33.6393 175.883 37.9573 174.584 42.1701C173.952 44.3115 175.181 45.9615 177.708 46.2073ZM179.007 38.3435C181.254 32.235 190.697 29.251 195.506 33.7095C197.437 35.4999 197.507 39.4318 197.964 42.4509C198.034 42.9073 195.471 43.7498 194.769 44.1009C189.679 43.5041 185.537 43.0126 181.359 42.5562C178.586 42.2403 178.164 40.6605 179.007 38.3435Z"
    fill="black"
  />
  <path
    d="M112.342 41.1169C115.186 35.5351 116.766 29.6022 116.66 23.1777C116.836 23.1426 116.976 23.0724 117.152 23.0373C116.45 19.9129 115.923 16.7182 114.905 13.7693C114.519 12.6108 113.045 11.4523 111.886 11.1715C108.516 10.364 105.286 10.8555 102.653 13.7693C99.494 17.2448 98.2302 21.6331 97.5983 26.3022C96.9664 30.9362 95.9484 35.6053 97.7388 40.2744C98.7568 42.9073 100.161 44.8733 102.724 45.7158C106.831 47.085 110.096 45.5052 112.342 41.1169ZM102.583 40.9063C101.565 38.2733 100.863 35.2893 100.828 32.4457C100.758 29.4266 101.706 26.3724 102.022 23.2831C102.373 19.948 103.952 17.4906 106.164 15.4544C107.147 14.5066 108.34 13.7693 109.674 14.647C111.044 15.5597 111.57 17.0342 111.43 18.8246C111.36 19.4565 111.535 20.1586 111.711 20.7905C112.027 21.8788 112.448 22.932 112.658 23.5288C112.378 25.8107 112.307 27.5309 111.921 29.1458C111.36 31.533 110.763 33.9553 109.85 36.2021C109.113 38.0276 108.095 39.8531 106.866 41.3276C105.357 43.1882 103.426 43.0829 102.583 40.9063Z"
    fill="black"
  />
  <path
    d="M33.0048 93.7058C35.4973 98.8664 37.8142 104.167 40.6929 109.082C44.9055 116.314 49.2936 123.511 55.2966 129.198C57.9295 131.691 60.8783 133.832 63.7569 136.079C64.2484 136.465 64.9154 136.816 65.5122 136.851C69.1982 136.886 72.9544 137.272 76.5352 136.64C78.6766 136.254 80.7127 134.359 82.5732 132.814C84.7146 131.024 86.9614 129.163 88.5762 126.846C90.0155 124.775 92.0516 123.195 92.7537 120.246C93.4558 117.262 95.4919 114.734 96.6153 111.856C98.2652 107.573 99.8098 103.255 100.968 98.7961C102.127 94.3377 103.11 89.7739 103.461 85.175C103.882 79.874 104.128 74.4325 102.127 69.3071C100.933 66.2177 100.126 62.8475 98.4759 60.1093C96.9663 57.6167 94.6494 55.6157 92.4729 53.6849C88.6464 50.2796 84.4689 47.2253 79.2734 47.7519C76.3947 48.0679 73.5161 49.0509 70.813 50.2445C68.1801 51.4381 65.793 53.3689 63.2303 54.7731C62.5282 55.1593 61.3347 55.0891 60.6325 54.7029C58.5613 53.5795 56.6657 52.1051 54.6647 50.8764C46.1692 45.7509 37.9195 49.6126 33.0048 57.0199C28.2656 64.1816 27.5986 66.9198 27.6689 74.0113C27.388 80.5059 29.8454 87.2463 33.0048 93.7058ZM33.1804 64.1465C33.9176 62.672 34.8303 61.3029 35.6377 59.8635C40.5524 51.3679 48.9777 50.3498 55.6125 55.4402C57.8592 57.1604 60.0007 59.0912 62.0719 61.0571C65.5122 64.322 68.4259 68.0432 69.8301 72.923C69.9705 73.4496 70.2513 74.0464 70.6375 74.3272C71.1641 74.7134 71.9715 75.2049 72.4279 74.9942C72.8491 74.8187 73.3757 73.7304 73.2353 73.2038C72.8842 71.589 72.463 69.8688 71.6204 68.5347C69.6897 65.4805 67.5131 62.6018 65.3717 59.7231C64.5292 58.5997 64.7047 57.8274 65.793 57.1955C67.5131 56.2125 69.1631 55.1944 70.9183 54.3519C73.0247 53.3338 75.131 52.1753 77.3426 51.6838C83.5211 50.2796 88.2603 53.6146 92.508 58.0029C97.5631 63.2337 99.0375 70.2198 99.4939 77.4517C99.9854 85.175 97.9493 92.6877 95.9132 99.8844C93.9824 106.695 90.6474 113.119 87.4177 119.403C85.1359 123.862 81.9062 127.618 77.5181 130.041C74.6395 131.655 71.7609 132.217 68.5312 132.217C64.9505 132.217 61.9314 131.269 59.3337 128.812C54.6647 124.388 50.417 119.439 47.082 113.716C43.2906 107.257 39.745 100.622 36.3398 93.9164C33.2155 87.7728 31.0741 81.208 31.0741 73.274C30.8634 70.4305 31.6708 67.2007 33.1804 64.1465Z"
    fill="black"
  />
  <path
    d="M78.2902 0.288546C77.6232 0.569395 76.7807 0.393864 76.0435 0.323652C73.2702 0.0779098 70.8129 0.709819 68.9172 3.13214C67.6534 4.74701 66.3545 6.29168 65.0907 7.90656C61.7908 12.0842 61.7206 17.1043 62.2472 22.1596C62.844 27.8117 64.178 33.1478 68.4608 36.9393C71.199 39.3616 74.1478 40.9765 77.6583 39.3616C78.8168 38.835 79.87 37.7116 80.6072 36.5882C84.2581 31.0415 86.3644 23.3532 86.3293 16.4373C86.224 11.1012 84.8549 6.22147 82.0465 1.79811C81.0986 0.288546 80.0455 -0.448681 78.2902 0.288546ZM78.0445 33.6393C76.4648 36.7988 73.3404 37.1499 71.0586 34.5521C69.4437 32.7265 67.8991 30.5851 67.1268 28.233C66.0737 25.1085 65.7928 21.7032 65.1609 18.4033C65.3365 14.8927 65.5822 13.4182 67.1268 11.0661C68.3906 9.13527 70.0054 7.45018 71.199 5.48424C73.5862 1.55236 79.9402 4.32574 81.204 7.90656C84.4336 17.1395 82.0816 25.6 78.0445 33.6393Z"
    fill="black"
  />
  <path
    d="M34.2687 35.3244C35.6729 36.518 37.358 37.3606 39.0079 38.0978C43.1854 39.9935 47.5736 37.3606 48.9076 31.8138C49.2937 30.1287 49.5395 28.3734 49.8554 26.5128C49.1533 21.598 48.8022 16.5076 45.9938 12.1895C44.2035 9.45127 42.5535 6.64278 40.7632 3.90451C39.3941 1.86836 37.4282 0.850282 35.1815 0.674752C33.7071 0.569434 32.1624 0.850282 31.8816 3.06196C31.8465 3.44813 31.5656 3.90451 31.2848 4.08004C27.1073 6.60768 26.0892 11.1013 26.0892 15.665C26.0541 23.4937 28.4413 30.4096 34.2687 35.3244ZM29.5647 13.1023C30.1965 8.67893 33.2507 7.38001 36.2346 6.08108C38.5867 5.06301 39.2186 7.94171 40.5525 9.13531C40.6579 9.20552 40.7281 9.34595 40.8334 9.45127C44.1333 14.0853 46.8364 18.965 46.5906 25.3192C46.1343 27.4256 45.8183 29.6021 45.1864 31.6383C44.2386 34.6223 41.5004 35.7808 38.9728 34.3766C37.7792 33.7095 36.5155 33.0776 35.5676 32.0596C30.6529 26.8639 28.4764 20.6852 29.5647 13.1023Z"
    fill="black"
  />
  <path
    d="M8.22045 48.5945C10.7129 51.1572 13.1703 53.6849 16.5404 54.8082C22.1221 56.6338 26.7208 52.9827 26.9315 46.5934C26.9315 46.0317 26.9315 45.47 26.9315 44.9083C27.0368 37.8169 24.2635 32.1297 19.8051 27.2851C16.7861 23.9851 13.5564 21.0362 9.30871 19.7373C5.30673 18.4735 -0.20477 22.8266 0.00586085 27.3904C0.356912 35.535 2.60364 42.8371 8.22045 48.5945ZM8.78214 23.6692C12.4682 24.4415 15.3468 26.7585 17.8393 29.6723C21.1391 33.5691 24.1231 37.7467 23.6316 43.7849C23.6316 44.2764 23.6316 44.9083 23.6316 45.5402C23.4561 50.771 19.9105 53.088 15.6978 50.5253C14.0479 49.5423 12.6437 48.0679 11.2044 46.6987C6.11415 41.9945 4.18337 35.6754 3.62169 28.6191C3.37595 25.8106 6.18436 23.1426 8.78214 23.6692Z"
    fill="black"
  />
</svg>
