<svg
  width="293"
  height="135"
  viewBox="0 0 293 135"
  fill="none"
  xmlns="http://www.w3.org/2000/svg"
>
  <path
    d="M225.913 118.04C221.587 102.176 216.059 86.5535 209.088 71.8921C208.127 69.2482 207.166 66.364 205.964 63.7201L201.157 50.2605C199.955 46.6552 198.753 42.5692 195.629 40.4061C193.225 38.7236 190.822 38.4833 187.938 38.4833C185.294 36.8008 182.409 35.8394 179.285 35.5991C176.881 35.3587 173.757 35.8394 171.594 37.2815C171.113 37.7622 170.632 38.2429 170.392 38.964H169.671C167.508 38.964 165.825 40.4061 165.104 42.3289C156.452 70.2096 150.683 98.8114 147.559 127.654C146.838 133.422 155.971 133.662 156.932 128.134C158.134 127.894 159.095 127.173 159.816 125.971C167.027 115.155 170.632 103.138 172.555 90.8798C180.246 90.8798 187.697 90.6395 195.388 89.9184C196.109 89.9184 196.59 89.6781 197.071 89.4377C200.917 101.455 204.762 113.713 208.608 125.731C210.531 131.499 219.424 129.096 217.741 123.327C217.741 122.847 217.501 122.606 217.501 122.125C220.625 125.731 227.115 123.327 225.913 118.04ZM182.89 48.0973C183.371 48.0973 183.852 48.0973 184.332 48.0973C187.697 58.9131 191.062 69.4886 194.427 80.3044H194.187C193.946 78.1412 192.504 76.4588 189.62 76.4588C188.899 76.4588 188.418 76.4588 187.697 76.4588C186.736 75.7377 185.534 75.4974 184.092 75.7377C182.65 75.9781 181.208 76.2184 179.766 76.4588C178.083 76.4588 176.401 76.4588 174.718 76.4588C175.68 67.0851 176.401 57.7114 177.843 48.578C179.525 48.0973 181.208 48.0973 182.89 48.0973ZM165.104 78.6219C165.104 79.5833 164.864 80.5447 164.864 81.5061H164.623C164.864 80.5447 164.864 79.5833 165.104 78.6219ZM160.538 102.897C161.259 98.8114 161.98 94.7255 162.701 90.6395C162.941 90.6395 163.181 90.6395 163.422 90.6395C162.701 94.9658 161.739 99.0518 160.538 102.897Z"
    fill="#39B100"
  />
  <path
    d="M43.1213 62.0946C48.1687 62.0946 51.5336 62.8157 54.8985 64.4981C55.6196 64.9788 57.0617 64.7385 57.7827 64.4981C61.388 62.335 65.2336 60.4122 69.5599 60.1718C76.2898 59.9315 81.5775 63.056 86.6249 66.6613C87.8266 67.6227 89.0284 68.5841 90.2301 69.5455C94.0758 72.1894 95.9986 75.7946 95.5179 80.3613C95.0372 84.4473 94.3161 88.5333 92.874 92.3789C91.6722 95.5034 89.2687 98.3877 87.3459 101.272C83.7407 106.56 80.3757 111.847 76.2898 116.654C72.6845 121.221 68.5985 125.547 64.2722 129.393C60.1862 132.998 55.1389 132.998 50.3318 130.595C46.9669 128.912 44.5634 126.749 42.8809 123.144C38.0739 113.049 33.0265 102.954 27.9792 92.8596C23.6529 84.2069 25.095 76.2754 30.1423 68.5841C32.7862 65.2192 39.516 62.0946 43.1213 62.0946ZM59.9459 67.142C60.6669 68.3438 61.388 69.0648 61.8687 70.2666C62.109 70.7473 61.6283 71.7087 61.388 71.949C61.1476 72.1894 60.1862 71.949 59.7055 71.7087C58.0231 70.5069 56.581 69.0648 54.8985 68.1034C49.3704 64.9788 43.602 63.7771 37.5932 66.6613C30.8634 70.0262 27.9792 75.7947 28.2195 83.0052C28.4599 87.0912 30.1423 91.4175 32.0651 95.2631C36.6318 104.637 41.4388 113.53 46.0055 122.903C48.409 127.47 52.9757 130.354 58.0231 128.672C60.9073 127.711 63.5512 126.028 65.7143 123.865C73.4055 115.933 80.3757 107.281 86.1442 97.907C89.0284 92.8596 91.4319 87.8122 92.1529 82.0438C92.6336 78.4385 91.9126 75.0736 89.0284 72.9104C85.4231 70.0262 81.5775 67.142 77.4915 64.9788C72.2038 61.8543 64.9933 63.056 59.9459 67.142Z"
    fill="#251C1C"
  />
  <path
    d="M117.631 19.7922C115.948 29.8869 112.583 38.7799 103.931 45.0291C100.806 47.1922 97.4411 47.6729 94.0762 45.9905C90.7113 44.0676 89.5095 40.9431 89.7499 37.0975C90.2306 30.3676 90.9516 23.3974 95.5183 18.1097C98.6429 14.5045 102.248 11.1395 105.853 8.01497C108.978 5.37111 114.506 7.29392 115.948 11.6202C116.91 14.2641 117.15 17.1483 117.631 19.7922ZM114.266 18.5904C114.266 15.9466 114.266 13.0623 111.622 10.8992C110.18 9.69743 108.738 9.21673 107.295 10.4185C103.931 13.543 100.325 16.6676 97.2007 20.0325C94.0762 23.3974 93.8358 27.9641 93.1148 32.2904C92.8744 34.9343 92.6341 37.5782 93.1148 40.222C94.0762 44.0676 97.2007 45.0291 100.566 43.3466C109.459 39.7413 115.227 26.0413 114.266 18.5904Z"
    fill="#251C1C"
  />
  <path
    d="M55.8607 25.8009C55.6203 16.1869 59.2256 8.49565 66.4362 2.24652C71.4835 -2.0798 75.0888 0.323709 77.0116 5.37108C80.3765 14.0237 79.8958 22.6764 75.8099 30.8483C73.887 34.6939 71.2432 38.2992 68.5993 41.6641C64.7537 46.2308 59.7063 43.3466 58.2642 39.5009C56.8221 35.1746 56.1011 30.3676 55.1396 25.8009C55.38 25.8009 55.6203 25.8009 55.8607 25.8009ZM58.7449 25.8009C58.7449 27.0027 58.5046 28.6851 58.7449 30.1273C59.466 33.2518 59.9467 36.3764 61.3888 39.0202C63.0712 42.1448 64.994 42.1448 67.3976 39.5009C73.887 32.5308 77.252 24.3588 76.5309 14.7448C76.2906 10.8992 75.8098 6.81319 72.9256 3.92898C72.4449 3.44827 71.0028 2.96757 70.7625 3.20792C68.359 5.13073 65.4747 7.05354 63.5519 9.45705C59.2256 14.0237 58.2642 19.5518 58.7449 25.8009Z"
    fill="#251C1C"
  />
  <path
    d="M42.6441 24.5994C42.4037 31.0889 41.4423 35.8959 39.0388 40.2223C36.6353 44.7889 32.7897 45.2696 28.944 41.6644C25.0984 38.0591 22.6949 33.7328 22.2142 28.4451C21.7335 22.6766 20.5318 17.1486 22.6949 11.6205C24.137 7.77486 26.5405 4.89065 30.6265 4.1696C33.03 3.68889 35.1932 4.1696 36.6353 6.0924C38.3177 8.49592 40.2405 10.8994 41.202 13.7836C42.1634 17.6293 42.4037 21.9556 42.6441 24.5994ZM40.2405 25.5609C40.0002 23.638 39.5195 21.2345 39.5195 18.5907C39.2791 15.4661 38.3177 12.5819 36.6353 9.93802C33.2704 5.131 29.6651 5.37135 26.5405 9.69767C25.0984 11.6205 24.3774 14.2643 24.137 16.4275C23.8967 19.0714 24.3774 21.4749 24.3774 24.1187C24.8581 29.8872 26.3002 34.9345 30.3862 39.2609C33.03 41.9047 34.7125 41.9047 36.6353 38.5398C39.0388 34.9345 40.2405 30.6082 40.2405 25.5609Z"
    fill="#251C1C"
  />
  <path
    d="M7.54911 42.1438C12.1158 42.1438 14.5193 45.2684 16.9228 48.3929C18.3649 50.5561 19.3263 53.4403 20.0474 55.8438C21.0088 58.728 20.0474 61.6122 18.1246 64.0157C17.1632 64.9771 15.2403 65.6982 13.7982 65.6982C9.71227 65.4579 7.06841 62.3333 4.90525 59.4491C3.22279 57.0456 2.02103 54.4017 0.578926 51.9982C-0.622829 49.3543 0.0982242 46.9508 2.26138 45.028C3.70349 43.8262 5.38595 42.8648 7.06841 41.6631C7.30876 41.9034 7.30876 42.1438 7.54911 42.1438ZM17.1632 57.5263C16.6825 53.1999 14.7596 49.114 10.6737 46.2298C8.75087 44.5473 6.82806 44.5473 4.42455 46.4701C2.74209 47.6719 2.50174 49.5947 3.22279 51.2771C5.1456 55.3631 7.30876 59.4491 11.1544 62.0929C14.2789 64.2561 16.4421 63.2947 16.9228 59.4491C17.1632 58.9684 17.1632 58.4877 17.1632 57.5263Z"
    fill="#251C1C"
  />
  <path
    d="M59.9465 67.1417C64.7536 62.8154 72.2045 61.6136 77.4922 64.7382C81.5781 67.1417 85.4238 69.7856 89.029 72.6698C91.9132 74.8329 92.6343 78.1978 92.1536 81.8031C91.4325 87.5715 89.029 92.8593 86.1448 97.6663C80.3764 107.28 73.4062 115.693 65.715 123.624C63.7922 125.787 60.9079 127.47 58.0237 128.431C53.2167 129.873 48.4097 127.229 46.0062 122.663C41.4395 113.529 36.3921 104.396 32.0658 95.0224C30.143 91.1768 28.4605 87.0908 28.2202 82.7645C27.7395 75.7943 30.6237 69.7856 37.5939 66.4206C43.6027 63.5364 49.3711 64.7382 54.8992 67.8627C56.5816 68.8241 58.0237 70.2663 59.7062 71.468C60.1869 71.7084 61.1483 71.9487 61.3886 71.7084C61.8694 71.2277 62.1097 70.5066 61.8694 70.0259C61.629 69.3048 60.6676 68.3434 59.9465 67.1417Z"
    fill="white"
  />
  <path
    d="M114.268 18.5906C115.23 26.0415 109.221 39.7415 100.808 43.5871C97.2032 45.0292 94.0787 44.0678 93.3576 40.4625C92.8769 38.059 92.8769 35.1748 93.3576 32.5309C93.8383 28.2046 94.319 23.6379 97.4436 20.273C100.568 16.9081 104.173 13.7835 107.538 10.659C108.98 9.45723 110.423 9.69758 111.865 11.1397C114.268 13.0625 114.508 15.9467 114.268 18.5906Z"
    fill="white"
    stroke="#221E1F"
    stroke-width="0.3568"
    stroke-miterlimit="10"
  />
  <path
    d="M58.7437 25.8012C58.263 19.5521 59.2244 14.024 63.3104 9.21699C65.4735 6.81348 68.1174 4.89067 70.5209 2.96786C71.0016 2.72751 72.2034 3.20821 72.6841 3.68891C75.8086 6.81348 76.049 10.8995 76.5297 14.7451C77.2508 24.3591 73.8858 32.5311 67.3964 39.5012C64.9928 42.1451 63.07 42.1451 61.3876 39.0205C59.9455 36.3767 59.4648 33.2521 58.7437 30.1275C58.5034 28.6854 58.7437 27.003 58.7437 25.8012Z"
    fill="white"
    stroke="#221E1F"
    stroke-width="0.3568"
    stroke-miterlimit="10"
  />
  <path
    d="M40.2373 25.5602C39.997 30.8479 39.0356 34.9339 36.8724 38.7795C34.9496 41.9041 33.2671 42.1444 30.6233 39.5006C26.5373 35.1742 24.8548 30.1269 24.6145 24.3584C24.3741 21.7146 23.8934 19.0707 24.3741 16.6672C24.6145 14.504 25.3355 11.8602 26.5373 10.1777C29.6619 5.61105 33.5075 5.3707 36.632 10.4181C38.3145 13.0619 39.2759 15.7058 39.5163 19.0707C39.5163 21.2339 39.997 23.6374 40.2373 25.5602Z"
    fill="white"
    stroke="#221E1F"
    stroke-width="0.3568"
    stroke-miterlimit="10"
  />
  <path
    d="M17.1629 57.5276C17.1629 58.489 17.1629 58.9697 17.1629 59.4504C16.6822 63.2961 14.519 64.2575 11.3944 62.0943C7.54882 59.4504 5.38566 55.3645 3.46285 51.2785C2.74179 49.596 2.98214 47.6732 4.6646 46.4715C6.82776 44.789 8.75057 44.789 10.9137 46.2311C14.7594 49.1153 16.6822 53.2013 17.1629 57.5276Z"
    fill="white"
    stroke="#221E1F"
    stroke-width="0.3568"
    stroke-miterlimit="10"
  />
  <path
    d="M269.666 107.464C274.232 106.983 278.799 106.502 283.366 106.021C287.211 105.541 289.615 106.742 290.576 110.348C291.778 114.914 292.499 119.721 292.98 124.528C293.22 128.134 291.297 129.336 287.932 129.336C276.876 129.095 265.82 129.095 254.764 128.855C249.957 128.855 245.15 128.614 240.343 128.614C237.939 128.614 236.497 127.172 236.257 124.769C235.776 114.674 237.699 105.06 243.467 96.6477C245.63 93.5232 249.957 91.6004 253.562 89.4372C256.446 87.7547 259.811 87.0337 262.936 85.5916C265.82 84.1495 268.945 82.467 271.348 80.3039C281.924 69.7284 277.116 50.981 262.695 46.174C255.966 44.0108 249.236 48.8179 248.995 56.2687C248.995 59.3933 249.476 62.7582 249.957 65.8828C250.437 71.4109 249.236 72.6126 243.948 71.1705C240.583 70.2091 237.218 69.2477 233.853 68.767C231.209 68.2863 230.008 66.8442 229.767 64.4407C229.527 62.9986 229.287 61.5565 229.767 60.1144C233.132 49.7793 237.218 39.6845 247.073 33.6757C253.081 30.0705 259.811 29.5898 266.301 32.474C277.838 38.002 286.009 46.895 291.297 58.4319C292.259 60.8354 292.499 63.96 292.018 66.6038C290.095 77.9003 282.164 84.6302 273.271 90.3986C270.146 92.3214 267.022 94.4846 263.897 96.4074C262.936 96.8881 261.974 97.6091 261.494 98.3302C260.292 100.253 259.571 102.416 258.609 104.579C260.532 105.3 262.455 106.021 264.378 106.502C266.06 106.742 267.983 106.502 269.666 106.502C269.666 107.223 269.666 107.464 269.666 107.464ZM277.116 125.25C278.078 125.009 279.28 125.25 280.241 125.009C289.134 125.009 289.134 125.009 288.173 115.876C287.692 110.348 286.49 109.867 280.962 109.867C273.752 110.107 266.301 110.348 259.09 109.627C254.523 109.146 252.841 105.06 255.245 100.974C256.927 98.3302 259.33 95.6863 261.974 93.5232C268.464 88.4758 275.434 84.3898 281.683 79.1021C289.374 72.6126 290.336 62.5179 285.288 53.8652C280.722 46.174 274.473 40.6459 266.781 36.0792C261.013 32.7143 255.244 32.7143 249.476 35.3582C239.141 40.4056 234.815 49.7793 232.651 60.3547C232.171 62.9986 232.892 64.681 236.016 65.4021C238.18 65.8828 240.343 66.6038 242.506 67.3249C244.909 68.0459 245.63 67.0845 245.63 64.9214C245.63 61.7968 245.63 58.4319 245.63 55.3073C245.63 49.7793 248.515 45.9336 253.562 44.0108C260.773 40.8863 266.301 43.7705 271.348 48.8179C286.49 64.2003 279.52 83.6688 261.734 89.6776C257.167 91.1197 252.841 93.2828 248.755 95.6863C246.592 96.8881 244.669 99.0513 243.467 101.214C240.343 106.983 238.901 112.992 238.66 119.481C238.66 124.048 239.381 125.009 243.708 125.009C255.004 125.25 266.06 125.25 277.116 125.25Z"
    fill="#251C1C"
  />
  <path
    d="M209.335 134.623C201.884 134.623 201.644 134.623 199.48 127.413C196.596 117.558 194.193 107.704 191.549 97.8493C191.068 95.6862 190.347 93.7634 189.866 91.6002C188.905 86.0721 185.059 84.63 180.252 84.3897C180.012 84.3897 179.531 84.3897 179.291 84.3897C171.359 83.909 171.6 83.909 168.956 91.6002C165.591 101.935 161.745 112.03 158.38 122.125C157.419 124.769 156.698 127.413 156.217 130.056C155.256 133.902 153.333 135.104 149.487 134.383C145.642 133.662 142.036 132.941 138.191 132.46C135.307 132.22 134.586 131.018 135.547 128.134C144.44 103.858 153.333 79.5826 162.226 55.0668C164.389 48.8177 166.072 42.5686 168.235 36.3194C168.475 35.5984 169.917 34.637 170.879 34.637C179.291 34.637 187.463 36.5598 195.154 40.4054C196.115 40.8861 197.077 42.5686 197.317 43.7703C199 57.951 203.807 70.93 208.614 84.1493C212.459 95.2055 216.545 106.262 219.91 117.558C221.112 121.404 220.631 125.97 220.391 130.056C220.391 132.7 218.708 134.623 215.824 134.623C213.421 134.623 211.258 134.623 209.335 134.623ZM216.545 121.163C216.545 120.202 216.545 118.279 216.065 116.597C212.7 106.262 209.335 95.6862 205.489 85.3511C200.201 72.6125 196.115 59.3931 193.712 45.4528C193.472 44.0107 191.789 42.3282 190.587 41.8475C186.501 40.4054 182.175 39.2036 177.849 38.2422C172.561 37.2808 171.359 38.0019 169.196 43.0493C168.956 43.7703 168.715 44.7317 168.235 45.4528C163.428 57.951 158.38 70.4493 153.814 83.1879C148.766 96.8879 144.2 110.588 139.633 124.288C138.672 127.172 139.633 128.374 142.517 129.095C151.17 131.258 151.65 131.018 154.535 122.605C159.101 109.627 163.908 96.6476 168.475 83.6686C169.436 81.2651 170.638 80.0633 173.282 80.3037C177.849 80.7844 182.656 80.7844 187.222 81.5054C188.424 81.7458 190.107 83.1879 190.587 84.63C192.27 88.9563 193.472 93.2827 194.673 97.609C197.317 107.223 199.721 116.837 202.365 126.451C202.845 127.893 203.807 129.576 205.008 130.056C212.94 133.421 216.305 131.018 216.305 122.365C216.545 122.365 216.545 122.125 216.545 121.163Z"
    fill="#251C1C"
  />
  <path
    d="M187.461 62.9993V63.2397C187.221 73.8151 184.097 75.738 174.483 71.1713C173.521 70.6906 172.319 68.7678 172.319 67.566C172.56 64.4415 173.281 61.0765 174.002 57.952C174.242 56.5099 174.963 55.0678 176.886 56.0292C177.367 56.2695 178.088 56.0292 178.568 56.0292C185.539 54.5871 187.702 56.2695 187.461 62.9993ZM185.298 63.2397C183.616 61.5572 182.654 59.6344 181.453 59.6344C177.607 59.1537 175.925 61.0765 175.684 65.4029C175.444 69.7292 179.53 67.8064 181.453 69.2485C182.414 67.3257 183.616 65.6432 185.298 63.2397Z"
    fill="#251C1C"
  />
</svg>
