<svg
  width="288"
  height="118"
  viewBox="0 0 288 118"
  fill="none"
  xmlns="http://www.w3.org/2000/svg"
>
  <path
    d="M122.122 24.2344C121.446 24.2344 120.771 24.6864 120.095 25.3644C119.194 26.4944 118.293 27.6245 117.617 28.9805C116.941 29.2065 116.491 29.4326 116.04 29.8846C113.337 32.8227 111.761 36.4388 112.211 40.507C112.436 42.767 114.464 44.8011 116.716 44.3491C118.293 45.0271 120.545 44.8011 121.671 42.993C125.05 38.4729 127.077 33.5007 128.204 28.0765C129.33 24.2344 124.825 21.7483 122.122 24.2344Z"
    fill="white"
  />
  <path
    d="M90.138 9.09137C87.2098 4.3452 81.8039 4.79721 78.8757 9.31738C75.9475 14.2896 75.497 20.3918 76.6232 25.816C76.8485 26.72 77.5242 27.398 78.1999 28.0761C78.4252 28.3021 78.4252 28.5281 78.6504 28.5281C78.6504 29.6581 78.8757 30.7882 79.1009 31.9182C79.5514 35.3083 84.5069 35.5343 86.0836 32.8222C86.9846 31.0142 87.8856 29.2061 88.5613 27.398C89.4623 26.042 90.3633 24.6859 90.8138 23.3299C92.6157 18.8097 92.6157 13.1595 90.138 9.09137Z"
    fill="white"
  />
  <path
    d="M45.5404 18.3583C45.0899 18.1323 44.8647 18.1323 44.4142 17.9063C43.9637 17.6803 43.2879 17.4543 42.6122 17.4543C37.4315 16.7762 31.8003 19.7143 31.5751 25.3645C31.3498 30.1107 34.7285 34.1789 39.0082 35.5349C39.9092 37.117 41.2607 38.473 42.8374 39.6031C44.6394 40.9591 46.8919 39.8291 48.0181 38.247C50.0453 35.5349 51.3968 32.1448 51.3968 28.7547C52.523 24.4605 50.2706 19.7143 45.5404 18.3583Z"
    fill="white"
  />
  <path
    d="M27.7448 58.1358C24.1409 51.8076 9.95034 48.6434 7.24738 57.4578C5.8959 61.7519 8.14836 65.5941 11.5271 67.6281C12.4281 69.4362 13.7795 70.7922 15.8068 71.6963C23.6904 75.3124 32.0245 65.5941 27.7448 58.1358Z"
    fill="white"
  />
  <path
    d="M90.1387 79.6063C88.3367 79.1542 85.6338 80.2843 85.4085 82.3184C85.1833 83.9004 84.958 85.4825 84.7328 87.0645C84.2823 86.6125 83.8318 86.1605 83.3813 85.7085C81.5793 83.9004 79.5521 80.9623 76.8492 80.2843C70.9927 78.9282 68.9655 87.9686 74.5967 88.8726C75.0472 88.8726 75.4977 88.8726 75.9482 88.8726C77.0744 90.0026 78.2006 91.3587 79.1016 92.2627C80.9036 94.0708 82.7056 95.8788 84.5075 97.9129C86.3095 99.721 90.364 99.269 90.8145 96.3309C91.4902 92.2627 91.9407 88.4206 92.6164 84.3524C93.2922 82.3184 92.3912 80.2843 90.1387 79.6063Z"
    fill="#39B100"
  />
  <path
    d="M204.547 64.6551C207.025 65.5591 209.277 66.6891 211.755 67.5932C221.215 70.5313 227.522 77.3115 232.253 85.2218C233.379 87.2559 233.379 91.098 232.253 93.1321C227.297 102.172 219.639 108.275 209.728 111.665C200.268 114.829 190.582 117.089 180.446 117.089C174.815 117.089 169.183 115.507 163.552 114.151C162.426 113.925 161.3 111.213 161.525 109.631C161.75 104.206 162.651 99.0083 163.327 93.5841C163.778 90.646 164.003 87.7079 164.453 84.7698C166.931 70.0792 166.255 55.3887 166.03 40.6982C166.03 35.5 166.706 30.3018 167.156 25.3296C167.382 23.5215 168.282 22.1655 170.535 21.9395C182.248 20.8095 193.961 20.5834 205.223 23.9736C215.359 27.1377 223.468 33.0139 228.874 42.2802C230.676 45.2183 230.225 49.2865 227.522 51.7726C223.918 54.7107 219.864 57.4228 215.81 59.6829C212.431 61.4909 208.376 62.621 204.772 63.977C204.547 64.203 204.547 64.429 204.547 64.6551ZM180.896 114.377C188.78 112.795 196.664 110.761 204.322 109.405C213.782 107.823 220.765 102.398 226.621 95.6182C230 91.776 230.225 87.9339 227.748 84.3178C219.414 72.5653 207.926 67.3672 193.961 66.4631C193.06 66.4631 192.159 65.3331 191.032 64.6551C191.933 63.977 192.609 62.847 193.51 62.621C198.916 61.0389 204.772 59.9089 209.953 57.8748C214.458 56.0667 218.963 53.5806 223.017 51.0946C226.621 48.8345 227.072 45.6704 224.819 42.0542C224.144 40.6982 223.243 39.5681 222.116 38.6641C216.035 32.5619 209.052 28.0417 200.268 26.4597C191.933 24.8776 183.599 24.1996 175.04 25.1036C171.211 25.5556 170.084 26.2336 169.859 30.0758C169.409 35.726 169.183 41.1502 169.183 46.8004C169.409 60.5869 169.634 74.5994 167.381 88.3859C166.255 94.7141 166.03 101.268 165.354 107.597C165.129 109.631 165.58 110.987 167.832 111.665C172.337 112.117 176.391 113.247 180.896 114.377Z"
    fill="#251C1C"
  />
  <path
    d="M266.943 58.1012C265.366 60.3613 264.014 62.6214 262.438 64.8815C261.987 65.5595 261.537 66.4635 261.086 67.1416C257.257 71.8877 257.257 71.8877 251.851 68.9496C250.5 68.2716 249.148 67.5936 247.571 66.9156C244.643 65.5595 244.193 64.6555 245.769 61.7174C250.274 53.8071 255.004 45.8968 259.509 37.7605C261.311 34.8224 262.663 31.6583 264.465 28.7202C266.042 26.0081 266.943 26.2341 269.42 27.8161C270.547 28.7202 272.123 28.9462 273.475 29.3982C277.079 30.7542 280.908 31.8843 284.512 33.2403C287.44 34.1444 288.341 36.1784 287.89 39.3426C286.764 48.6089 285.413 57.8752 284.737 67.3676C284.287 72.3398 284.512 77.5379 284.287 82.5101C284.061 89.9684 284.061 97.4267 283.386 104.659C283.16 108.501 281.584 108.727 277.98 107.597C273.249 106.241 268.519 104.885 263.789 104.207C261.311 103.755 260.636 102.851 260.861 100.365C262.888 87.7083 265.141 75.0518 267.168 62.3954C267.393 61.0393 267.393 59.6833 267.618 58.3272C267.618 58.3272 267.168 58.3272 266.943 58.1012ZM284.737 40.4726C284.962 40.2466 285.188 40.2466 285.413 40.0206C284.737 38.8905 284.061 36.8565 283.16 36.6305C278.655 34.8224 274.15 33.4663 269.646 32.3363C268.745 32.1103 266.943 33.0143 266.267 33.9184C261.086 42.2807 256.131 50.643 251.401 59.0053C248.923 63.5254 249.148 63.5254 253.428 65.7855C255.68 66.9156 257.032 66.9156 258.383 64.6555C262.212 58.7793 266.042 53.1291 269.871 47.4788C270.321 46.8008 271.447 46.3488 272.348 45.8968C272.799 46.8008 273.249 47.4788 273.475 48.3829C273.7 48.8349 273.249 49.5129 273.249 50.1909C270.547 65.7855 268.069 81.6061 265.366 97.2007C264.915 99.6867 265.816 100.591 267.844 101.043C270.997 101.721 274.15 102.625 277.304 103.755C279.106 104.433 280.007 103.981 280.232 101.947C280.683 95.8446 281.133 89.7424 281.358 83.6402C281.584 78.216 281.133 72.5658 281.584 67.1416C282.485 58.3272 283.611 49.5129 284.737 40.4726Z"
    fill="#251C1C"
  />
  <path
    d="M193.284 101.495C191.257 101.269 189.004 101.043 186.977 100.817C184.049 100.591 182.923 98.7825 183.148 96.2964C183.599 90.1942 184.274 84.318 184.95 78.2158C185.175 75.7297 186.527 74.3736 189.23 75.5037C189.455 75.7297 189.905 75.7297 190.131 75.7297C197.113 74.8257 202.519 77.9898 207.925 81.8319C210.628 83.866 213.782 85.6741 213.331 89.5162C212.881 93.3583 210.403 96.5224 207.024 97.8785C202.744 99.4605 198.465 100.591 193.96 101.947C193.509 101.947 193.284 101.721 193.284 101.495ZM186.752 91.0982C186.977 97.2005 187.653 98.1045 193.735 97.4265C197.564 96.9745 201.393 96.0704 204.997 94.7144C209.952 92.6803 210.178 88.1601 205.898 84.996C204.096 83.64 202.294 82.7359 200.492 81.3799C197.564 79.3458 194.185 79.1198 191.032 79.5718C189.905 79.7978 188.554 80.9279 188.329 81.8319C187.428 84.996 187.202 87.9341 186.752 91.0982Z"
    fill="#251C1C"
  />
  <path
    d="M186.077 57.197C185.176 57.197 184.05 57.197 183.149 57.197C180.897 57.197 179.996 56.0669 179.996 53.8068C179.996 47.4786 180.221 41.3764 180.446 35.0482C180.446 34.1441 181.122 33.0141 181.798 32.5621C190.132 28.0419 201.845 30.754 207.701 38.4383C211.981 43.8625 210.854 50.1907 204.322 52.6768C198.466 54.9369 192.159 56.0669 186.077 57.649C186.077 57.649 186.077 57.423 186.077 57.197ZM184.275 44.7665H184.05C184.05 46.8006 183.825 48.8346 184.05 50.8687C184.275 51.7728 185.402 53.3548 186.077 53.3548C191.934 53.1288 197.79 52.6768 202.971 49.7387C207.025 47.4786 207.476 44.3145 204.773 40.4723C201.394 35.5002 196.213 34.3701 190.807 33.4661C187.204 33.0141 184.05 36.4042 184.05 40.0203C184.275 41.6024 184.275 43.1844 184.275 44.7665Z"
    fill="#251C1C"
  />
  <path
    d="M86.0845 117.35C77.2999 117.124 70.092 114.186 63.3346 109.665C61.3074 108.309 59.5054 106.727 57.7034 105.371C52.9733 101.981 51.6218 96.7829 50.0451 91.3587C46.6663 79.8323 53.1985 64.6897 64.2356 59.0395C68.29 57.0054 73.0202 55.8754 77.5252 57.2314C79.7776 57.9095 81.3544 57.2314 82.9311 55.8754C87.2108 51.8072 92.3914 49.7732 98.0226 48.8691C102.302 48.1911 105.681 50.4512 109.06 52.7113C113.114 55.4234 114.916 59.9435 117.619 63.7857C120.322 67.8538 120.998 72.374 121.448 76.8942C121.674 80.5103 120.998 84.3524 120.547 87.9686C119.196 94.9748 116.042 101.303 111.087 106.501C108.384 109.439 105.231 111.925 102.077 113.96C100.275 115.09 97.7974 115.316 95.5449 115.768C92.1662 116.672 88.7875 116.898 86.0845 117.35ZM54.55 85.0305C55.2257 87.2905 55.6762 90.9067 56.8025 94.2968C57.4782 96.5569 58.3792 98.817 59.9559 100.399C63.7851 104.241 68.0648 107.631 73.2455 109.891C83.1563 113.96 92.8419 113.507 101.852 107.631C115.592 98.817 118.971 83.2224 116.042 69.4359C115.141 65.5937 112.664 61.7516 110.411 58.3615C107.933 54.9714 104.78 52.2593 100.275 52.2593C96.4459 52.2593 92.8419 53.1633 89.4632 55.4234C85.4088 58.1355 85.634 59.7175 89.238 62.6556C91.04 64.0117 92.8419 65.8198 94.6439 67.4018C95.7701 68.5319 95.7701 69.8879 94.6439 70.7919C93.5177 71.696 92.6167 71.47 91.7157 70.3399C87.6613 64.4637 81.8049 61.9776 75.2727 60.8476C67.8396 59.7175 62.6589 64.0117 58.6044 69.6619C55.2257 73.73 55.0005 78.9282 54.55 85.0305Z"
    fill="#251C1C"
  />
  <path
    d="M44.638 43.4457C39.4574 43.6717 35.8534 40.9596 32.7 38.0215C30.6727 36.2134 29.096 34.1793 27.7445 31.9192C24.3658 26.721 25.2668 21.2969 27.5193 16.0987C29.5465 12.0305 33.6009 9.99644 37.8806 10.4485C44.4128 10.9005 50.7197 12.9345 54.7741 19.0368C58.8286 25.365 58.1529 33.9533 53.4227 39.3775C50.945 42.3156 47.7915 43.6717 44.638 43.4457ZM29.7718 23.7829C29.3213 28.7551 35.8534 36.6654 40.1331 38.4735C44.638 40.2815 47.1158 39.8295 50.044 36.6654C54.5489 31.6932 53.1974 20.6188 47.341 17.0027C45.7643 16.0987 43.9623 15.6466 42.1603 14.9686C33.8262 12.7085 30.898 16.5507 29.7718 23.7829Z"
    fill="#251C1C"
  />
  <path
    d="M19.8616 73.9557C10.6265 74.1817 2.74281 66.7234 0.265096 59.0391C-0.410644 57.2311 0.265096 55.875 1.61658 54.971C3.6438 54.067 4.54479 52.4849 5.22053 50.6768C6.57201 48.1907 8.14874 45.9307 11.0769 45.9307C13.3294 45.9307 16.0324 46.3827 18.0596 47.2867C21.8888 49.3208 25.718 51.5809 29.0967 54.519C32.2501 57.2311 34.0521 61.0732 32.7006 65.3674C31.1239 70.3396 27.52 72.8256 22.5645 73.7297C21.6635 73.9557 20.7626 73.7297 19.8616 73.9557ZM19.8616 70.1135C20.9878 69.8875 22.114 69.8875 23.2403 69.4355C27.2947 68.0795 29.5472 63.3333 27.52 60.3952C24.1413 55.197 19.6363 51.5809 13.5547 50.2248C11.0769 49.5468 9.50022 50.9028 8.59923 53.1629C8.14873 54.293 7.24775 55.649 6.34676 56.101C4.09429 57.0051 4.77003 58.1351 5.22053 59.4912C5.44577 60.1692 6.12151 61.0732 6.57201 61.7512C9.95071 66.2714 13.7799 69.6615 19.8616 70.1135Z"
    fill="#251C1C"
  />
  <path
    d="M95.771 14.742C94.87 21.0702 93.5185 26.7204 90.365 31.9186C88.1126 35.7608 83.8329 37.3428 79.5532 37.7948C76.625 38.0209 74.1473 35.9868 72.7958 33.5007C66.2636 23.3303 68.5161 10.4479 76.625 3.66761C83.1571 -1.75659 91.0408 -0.400539 94.1942 8.63979C95.0952 10.6739 95.3205 12.9339 95.771 14.742ZM72.7958 20.3922C73.2463 22.6523 73.6968 26.2684 75.0482 29.4325C77.526 34.6307 80.2289 35.7608 85.1843 31.6926C85.4096 31.6926 85.4096 31.4666 85.4096 31.4666C90.1398 26.7204 91.4913 20.8442 91.7165 14.516C91.9418 11.3519 90.8155 8.63979 88.7883 6.37971C87.6621 4.79765 86.0853 4.34563 84.0581 4.79765C82.7066 5.02366 81.1299 5.24967 79.7784 5.70168C79.1027 5.92769 78.2017 6.37971 77.526 6.83172C74.5978 9.99584 73.2463 14.516 72.7958 20.3922Z"
    fill="#251C1C"
  />
  <path
    d="M131.584 28.0764C131.359 37.1168 125.502 45.9311 115.141 45.7051C110.861 45.7051 108.834 44.349 107.933 40.0549C106.131 32.5966 110.636 22.6522 117.393 19.2621C124.151 15.872 131.584 20.6182 131.584 28.0764ZM115.591 42.089C124.601 41.8629 128.656 34.4047 128.205 26.4944C128.205 24.4603 126.629 23.1043 124.601 22.6522C121.223 21.9742 117.844 22.4262 115.141 25.1383C111.537 28.9805 110.861 33.9527 111.312 38.9248C111.537 41.6369 112.663 42.089 115.591 42.089Z"
    fill="#251C1C"
  />
  <path
    d="M77.0736 74.408C80.4523 74.634 83.6058 75.764 85.8582 78.7021C86.9845 80.2842 88.1107 80.0582 89.2369 78.9281C89.9127 78.2501 90.8137 77.3461 91.4894 76.668C93.7419 74.86 96.2196 74.634 98.2468 75.99C100.725 77.5721 101.626 80.2842 100.725 82.9963C99.5983 86.1604 98.9225 89.5505 97.3458 92.4886C95.7691 95.4267 93.2914 98.1388 90.8137 100.625C89.6874 101.755 88.3359 101.755 86.9845 100.625C85.1825 99.0428 83.1553 97.6868 81.128 96.1047C76.6231 92.2626 72.7939 87.7424 70.7667 81.8662C69.6404 76.894 73.0192 74.634 77.0736 74.408ZM79.3261 78.9281C76.6231 78.9281 75.7221 80.5102 76.8483 82.3182C79.5513 87.2904 83.1553 91.3586 87.4349 94.7487C88.7864 95.8787 89.9127 95.6527 90.8137 94.2967C92.3904 92.0366 93.9671 89.7765 95.3186 87.2904C96.2196 85.9344 96.6701 84.3523 97.1206 82.7703C97.3458 82.0922 96.6701 80.9622 95.9943 80.5102C95.7691 80.2842 94.4176 80.9622 93.9671 81.4142C93.2914 82.0922 93.0661 83.2223 92.3904 83.9003C91.2641 85.4824 90.3632 87.2904 88.7864 88.6465C86.9845 90.0025 85.8582 89.3245 84.9572 87.0644C84.2815 85.0303 83.6058 82.9963 82.4795 81.1882C81.5785 80.0582 80.0018 79.3801 79.3261 78.9281Z"
    fill="#251C1C"
  />
</svg>
