<svg
  width="288"
  height="129"
  viewBox="0 0 288 129"
  fill="none"
  xmlns="http://www.w3.org/2000/svg"
>
  <path
    d="M207.46 86.5248C205.296 80.9953 200.007 77.1487 193.516 75.9467C193.035 75.9467 192.795 75.7062 192.314 75.7062C190.39 74.985 188.467 74.5042 186.544 74.2638C185.582 73.7829 184.621 73.3021 183.659 72.8213C186.063 71.3788 188.227 69.9363 190.39 68.013C191.352 67.2918 192.314 66.3301 193.275 65.3685C198.805 61.5219 206.017 56.7136 205.536 49.0204C205.536 47.8183 205.056 46.6162 204.815 45.6546C204.815 45.4142 204.815 45.1738 204.815 44.6929C203.854 37.2401 196.882 33.6339 190.15 32.4318C185.342 31.7106 180.293 31.2298 175.244 31.4702C171.879 31.2298 168.513 31.4702 165.147 31.7106C163.464 30.2681 160.82 30.2681 158.656 31.2298C152.405 33.8743 151.924 41.5676 151.924 47.5779C152.405 69.6959 152.886 91.5735 153.607 113.692C153.607 118.019 159.377 118.74 161.3 115.855C161.541 116.817 161.781 117.538 162.022 118.259C162.022 119.942 162.743 121.625 164.907 121.866C181.495 124.51 201.93 117.538 209.864 101.911C213.711 94.9393 212.028 90.131 207.46 86.5248ZM185.101 43.4909C186.784 43.7313 189.669 43.9717 192.314 44.6929C193.997 46.1354 194.718 48.0587 193.997 50.4628C193.516 52.6266 192.314 54.3095 191.112 56.2328C189.669 57.6752 188.227 58.8773 187.265 59.839L187.025 60.0794C186.544 60.3198 186.063 60.5602 185.582 61.041C180.533 64.1664 175.244 66.8109 169.955 68.7343C169.234 68.9747 168.753 69.4555 168.272 69.9363C168.032 62.0027 168.032 53.8286 167.792 45.895C167.792 44.6929 167.792 43.2504 167.792 41.808C173.562 42.5292 179.331 43.01 185.101 43.4909ZM168.994 112.489C168.994 109.845 168.994 107.2 168.753 104.556C168.753 99.0263 168.513 93.4968 168.513 88.2077C174.764 87.9673 180.774 88.2077 187.025 89.1694C187.746 89.1694 189.669 89.4098 191.833 89.8906C193.035 91.5735 193.997 93.4968 194.958 95.4201C195.68 97.103 196.641 98.5455 197.843 99.5071C197.843 99.7476 197.603 99.988 197.603 100.228C194.958 103.594 191.112 105.998 187.746 107.922C181.976 111.047 175.725 113.211 169.234 113.932C168.994 113.451 168.994 112.97 168.994 112.489Z"
    fill="#39B100"
  />
  <path
    d="M256.746 98.5446C260.833 98.0638 264.92 97.3426 269.007 97.1022C273.816 96.8618 278.624 96.8618 283.673 96.8618C287.519 97.1022 288 97.8234 288 101.67C288 105.757 287.76 109.604 287.519 113.691C287.279 117.297 285.596 119.22 281.99 119.461C277.181 119.701 272.614 119.22 267.805 118.98C263.478 118.98 259.391 119.22 255.063 119.22C248.091 119.22 241.119 119.461 234.147 119.461C227.897 119.461 227.175 118.739 229.099 112.489C231.263 106.238 233.186 99.9871 236.071 93.9768C239.677 86.7644 246.409 82.1966 252.659 77.1479C256.987 73.7821 261.074 70.4163 263.718 65.3676C265.642 61.521 265.161 57.9148 262.997 54.549C260.353 50.9428 256.746 48.7791 252.419 48.2983C248.091 47.8175 245.928 49.2599 244.726 53.5874C244.245 55.5107 244.004 57.6744 244.004 59.5977C243.764 62.9635 242.562 64.6464 239.196 64.406C234.628 63.9251 230.301 62.9635 225.733 62.2422C225.012 62.0018 224.291 61.2806 224.291 60.5594C224.291 60.0785 225.012 59.3573 225.493 58.6361C226.214 57.1936 227.416 55.9915 227.656 54.549C229.099 45.6537 232.705 37.9605 239.677 32.1906C245.928 26.9015 254.583 25.459 262.757 30.5077C271.652 36.0372 277.662 43.7304 281.028 53.347C283.432 60.0785 282.23 67.0505 278.143 73.3013C272.854 81.4753 266.122 88.2069 259.15 94.698C258.189 95.6597 257.468 96.6213 256.506 97.583C256.506 98.0638 256.506 98.3042 256.746 98.5446ZM276.22 115.133C276.22 115.374 276.22 115.614 276.22 116.095C276.941 116.095 277.662 116.095 278.384 116.095C282.23 116.095 283.432 115.133 283.913 111.287C284.153 108.642 284.394 105.997 284.634 103.353C284.875 101.43 283.913 100.468 281.99 100.468C278.143 100.468 274.296 100.468 270.45 100.708C265.401 101.189 260.353 102.151 255.304 102.391C253.621 102.391 251.698 101.189 249.774 100.468C250.496 99.0255 251.217 97.3426 252.419 96.1405C259.15 89.4089 266.122 82.6774 272.614 75.7054C277.903 69.9355 279.826 62.4827 277.662 54.7894C274.537 44.4517 268.286 36.518 257.948 32.1906C254.342 30.7481 250.736 30.5077 247.37 31.9502C237.273 35.7968 232.945 43.9708 231.263 54.0682C231.022 56.2319 230.06 59.1169 231.022 60.0785C232.465 61.2806 235.35 61.0402 237.513 61.521H237.754C239.196 61.7614 239.917 61.2806 240.158 59.5977C240.398 57.6744 240.639 55.5107 241.119 53.5874C243.764 45.6537 249.053 43.0092 256.506 46.375C268.046 51.6641 272.614 62.9635 262.035 72.8204C258.189 76.4266 254.342 80.0328 250.015 83.1582C239.917 90.611 234.388 100.949 231.984 112.969C231.743 114.652 231.984 115.854 233.907 115.854C237.032 115.854 240.398 116.335 243.524 116.335C254.583 115.854 265.401 115.614 276.22 115.133Z"
    fill="#251C1C"
  />
  <path
    d="M187.507 70.657C192.555 73.3015 197.604 75.2248 201.932 78.1098C205.297 80.2735 208.423 83.3989 211.067 86.5243C216.597 93.0154 216.837 100.468 211.548 107.2C204.095 117.297 194.719 124.99 181.977 126.914C172.361 128.356 162.744 128.356 153.849 123.788C151.685 122.586 150.243 120.903 150.243 118.499C150.483 111.046 151.204 103.594 151.445 96.3812C151.926 77.3886 151.926 58.3959 152.166 39.4033C152.166 38.2012 152.166 36.9991 152.166 35.7971C152.406 33.1525 153.368 31.2292 156.253 30.508C159.378 29.7867 162.263 28.3443 165.148 27.1422C171.399 24.4976 177.65 25.2189 183.901 27.1422C190.632 29.3059 196.642 32.4313 201.691 37.48C203.855 39.8841 206.499 41.8074 208.423 43.9711C212.029 48.0581 211.788 52.626 208.423 56.4726C203.614 62.0021 197.364 65.8487 190.632 69.2145C189.43 69.6953 188.468 70.1762 187.507 70.657ZM171.88 123.788C175.005 123.548 177.409 123.548 179.573 123.308C191.353 121.625 200.489 115.374 207.942 106.479C212.51 100.949 213.231 94.4579 208.904 88.9284C203.855 82.1968 197.364 77.1482 188.709 75.4653C185.583 74.744 182.218 74.5036 178.852 74.0228C177.89 73.7824 177.169 72.8207 176.207 72.3399C176.688 71.6186 177.169 70.657 177.65 70.4166C181.737 68.7337 186.064 67.5316 189.911 65.3679C194.96 62.4829 200.008 59.1172 204.336 55.511C207.942 52.626 208.423 49.0198 205.538 45.4136C203.134 42.2882 200.008 39.6437 196.642 37.2396C185.583 28.8251 173.563 25.6997 160.1 31.9505C155.532 34.1142 154.811 35.0758 154.811 40.1245C155.051 48.0581 155.532 55.9918 155.291 63.9254C154.811 80.0331 154.33 96.3812 153.608 112.489C153.368 119.22 156.013 121.625 162.504 122.827C166.11 123.307 169.476 123.548 171.88 123.788Z"
    fill="#251C1C"
  />
  <path
    d="M167.072 53.3474C166.832 49.5008 166.351 45.6542 166.351 42.048C166.351 40.1247 166.351 38.4418 169.236 39.163C169.717 39.4034 170.438 38.9226 170.919 38.6822C177.41 36.0377 184.382 37.2397 189.19 42.2884C191.354 44.6925 193.277 47.0967 195.201 49.7412C196.643 51.6645 196.162 53.8282 194.239 55.5111C187.748 61.5215 179.814 63.6852 171.159 62.9639C167.553 62.7235 166.832 61.5215 166.832 57.9153C166.832 56.4728 166.832 54.7899 166.832 53.3474H167.072ZM170.198 50.7029C170.438 52.8666 169.957 54.7899 170.438 56.9536C170.679 57.9153 172.121 59.5982 173.083 59.5982C179.574 59.5982 186.065 57.9153 191.114 53.8282C191.835 53.3474 192.075 51.6645 191.835 50.9433C189.431 44.4521 182.218 40.3651 175.246 41.0863C171.159 41.5672 169.957 43.0096 169.957 47.0967C170.198 48.2987 170.198 49.5008 170.198 50.7029Z"
    fill="#251C1C"
  />
  <path
    d="M170.439 100.709C170.439 98.5455 170.439 96.6222 170.439 94.4585C170.198 89.8906 172.843 87.0056 176.93 85.3228C180.776 83.6399 184.382 84.1207 187.748 86.7652C189.431 88.2077 191.114 89.4098 192.797 90.8523C197.124 95.1797 197.605 100.469 193.518 104.796C187.989 110.566 180.536 111.287 173.083 111.047C172.362 111.047 170.919 108.883 170.679 107.681C170.198 105.517 170.439 103.113 170.439 100.709ZM173.564 100.709C173.804 100.709 173.804 100.709 174.045 100.709C174.045 102.152 173.804 103.594 174.045 105.037C174.285 105.998 175.247 107.2 175.968 107.2C181.017 106.96 186.065 106.239 190.152 102.873C193.278 100.469 193.518 96.8626 190.874 93.9776C189.431 92.5352 187.989 91.0927 186.306 89.8906C181.498 86.044 175.247 88.4481 174.285 94.4585C174.045 96.3818 173.804 98.5455 173.564 100.709Z"
    fill="#251C1C"
  />
  <path
    d="M92.0777 69.4323C92.3181 75.4426 89.914 81.6934 86.5482 87.7037C83.9037 92.512 81.4995 97.5606 78.6146 102.129C74.2871 108.86 69.7193 115.592 63.7089 120.881C61.0644 123.285 57.939 125.208 55.0541 127.372C54.5732 127.853 53.852 128.093 53.3712 128.093C49.5246 128.093 45.678 128.574 42.0718 127.853C39.908 127.372 37.7443 125.689 35.821 124.247C33.6573 122.564 31.2532 120.881 29.5703 118.717C28.1278 116.794 25.9641 115.351 25.2428 112.466C24.5216 109.822 22.3579 107.418 21.3962 104.533C19.7133 100.446 18.0304 96.599 16.8284 92.2716C15.3859 88.4249 14.4242 84.0975 14.1838 79.7701C13.703 74.7214 13.4626 69.6727 15.6263 64.8644C16.8284 62.2199 17.5496 59.0945 19.2325 56.45C20.675 54.0458 23.0791 52.3629 25.4832 50.4396C29.3299 47.3143 33.6573 44.4293 38.9464 44.9101C41.8313 45.1506 44.9567 46.1122 47.6013 47.3143C50.2458 48.5163 52.6499 50.1992 55.2945 51.6417C56.0157 51.8821 57.2178 51.8821 57.939 51.6417C60.1027 50.6801 62.0261 49.2376 64.1898 48.0355C72.8447 43.2272 81.4995 46.8334 86.5482 53.8054C91.3565 60.2966 92.0777 62.7007 92.0777 69.4323ZM88.4715 68.7111C88.7119 66.0665 87.9907 63.1815 86.3078 60.2966C85.5866 58.8541 84.6249 57.652 83.6632 56.2096C78.6146 48.2759 69.9597 47.3143 63.2281 52.1225C60.824 53.8054 58.6603 55.4883 56.4965 57.4116C52.8904 60.537 50.0054 63.9028 48.5629 68.4706C48.3225 68.9515 48.0821 69.4323 47.8417 69.6727C47.3608 70.1535 46.3992 70.394 45.9184 70.394C45.4375 70.1535 44.9567 69.1919 45.1971 68.7111C45.6779 67.2686 45.9184 65.5857 46.88 64.3836C48.8033 61.4987 51.2075 58.8541 53.3712 56.2096C54.3328 55.2479 54.0924 54.5267 52.8904 53.8054C51.2075 52.8438 49.5246 51.8821 47.6013 51.1609C45.4375 50.1992 43.2738 49.2376 41.1101 48.7568C34.8594 47.5547 29.8107 50.4396 25.4832 54.7671C20.1941 59.5754 18.7517 66.0665 18.2708 72.7981C17.79 80.0105 19.9537 86.9825 21.877 93.714C23.8003 99.9648 27.4065 105.975 30.5319 111.985C32.936 116.072 36.3018 119.679 40.6293 121.842C43.5142 123.285 46.6396 123.766 49.765 123.766C53.3712 123.766 56.4966 122.804 59.1411 120.64C63.9494 116.553 68.2768 111.985 71.6426 106.696C75.4892 100.686 79.0954 94.4353 82.7016 88.1845C86.3078 82.1742 88.4715 75.9235 88.4715 68.7111Z"
    fill="#251C1C"
  />
  <path
    d="M31.7324 15.8206C31.7324 10.7719 33.1749 6.20405 36.0599 2.11703C37.0215 0.674547 38.2236 -0.0466924 39.9065 0.674547C40.6277 0.914961 41.349 0.674547 42.3106 0.674547C45.1956 0.434134 47.5997 0.914961 49.523 3.31909C50.7251 4.76157 52.1676 6.20405 53.3696 7.64653C56.7354 11.4931 56.7354 16.3014 56.2546 20.8693C55.5333 26.1584 54.3313 31.207 49.7634 34.5728C46.8785 36.7365 43.9935 38.4194 40.3873 36.7365C39.1852 36.2557 37.9832 35.2941 37.2619 34.092C33.8961 29.2837 31.7324 22.0713 31.7324 15.8206ZM53.3696 17.5035C53.1292 14.1377 52.8888 12.9356 51.4463 10.7719C50.2442 9.08901 48.5614 7.40612 47.3593 5.48281C44.9552 1.87661 38.464 4.28075 37.0215 7.64653C33.6557 16.3014 36.0599 24.2351 40.1469 31.6879C41.8298 34.5728 44.9552 35.0536 47.3593 32.6495C49.0422 30.9666 50.7251 29.0433 51.4463 26.8796C52.408 23.7542 52.8888 20.6289 53.3696 17.5035Z"
    fill="#251C1C"
  />
  <path
    d="M0 21.8304C0.72124 18.9454 1.20207 16.0605 2.40413 13.1755C2.88496 12.2139 4.32744 11.0118 5.5295 10.7714C8.89529 10.0501 12.2611 10.531 14.9056 13.1755C18.031 16.3009 19.4735 20.6283 20.1947 24.9558C20.916 29.2832 21.8776 33.6106 19.9543 37.9381C18.9926 40.3422 17.5502 42.2655 14.9056 42.9868C10.8186 44.1888 7.45281 42.7463 5.04868 38.6593C1.92331 33.6106 0.480827 28.0811 0.480827 22.0708C0.240413 22.0708 0.240413 21.8304 0 21.8304ZM4.56785 22.3112C4.80827 24.4749 5.04868 25.9174 5.28909 27.6003C5.76992 29.764 6.49116 32.1682 7.45281 34.0915C8.17405 35.7744 9.37612 37.4573 10.5782 38.8997C12.0207 40.5826 14.1844 40.5826 14.9056 38.4189C15.8673 36.0148 16.5885 33.1298 16.8289 30.4853C16.8289 27.6003 15.8673 24.7154 15.6269 22.0708C15.146 18.9454 13.7036 16.7817 11.2994 14.8584C10.3378 13.8968 9.1357 13.1755 7.69322 14.1372C6.25074 14.8584 5.76992 16.3009 6.01033 17.9838C6.01033 18.705 6.01033 19.1858 5.76992 19.9071C5.28909 20.8687 4.80827 21.8304 4.56785 22.3112Z"
    fill="#251C1C"
  />
  <path
    d="M92.7993 42.2655C92.7993 35.7743 95.4439 30.2448 100.012 25.9174C103.137 22.792 106.503 20.1475 110.83 18.9454C114.917 17.7433 120.687 21.8304 120.447 26.1578C119.966 33.851 117.802 40.5826 112.032 45.8717C109.388 48.2758 106.984 50.68 103.378 51.6416C97.6076 53.3245 92.7993 49.9587 92.7993 43.9484C92.7993 43.2271 92.7993 42.7463 92.7993 42.2655ZM96.1651 41.3038C96.1651 41.7847 96.1651 42.2655 96.1651 42.9867C96.4055 47.795 100.012 49.9587 104.339 47.5546C106.022 46.5929 107.465 45.1505 108.907 43.9484C114.196 39.6209 116.119 33.6106 116.6 27.1195C116.841 24.4749 113.956 22.0708 111.311 22.5516C107.465 23.2728 104.58 25.4366 101.935 28.0811C98.8097 31.6873 95.6843 35.5339 96.1651 41.3038Z"
    fill="#251C1C"
  />
  <path
    d="M69.2397 25.1959C69.961 20.6281 70.2014 15.8198 73.3268 11.9732C75.2501 9.32866 76.933 6.68411 78.6159 4.27998C80.0583 2.35667 81.9816 1.39502 84.3858 1.39502C85.8283 1.39502 87.5112 1.63543 87.7516 3.55874C87.7516 3.79915 87.992 4.27998 88.4728 4.52039C92.8002 6.92453 93.7619 11.0115 93.7619 15.339C93.7619 22.5514 91.3578 29.0425 85.3474 33.6104C83.905 34.8125 82.2221 35.5337 80.5392 36.2549C76.2117 37.9378 71.6439 35.5337 70.4418 30.485C69.7206 28.5617 69.4802 26.8788 69.2397 25.1959ZM72.6055 23.9939C73.0864 25.9172 73.3268 28.0809 74.048 29.7638C75.0097 32.6487 77.8946 33.6104 80.5392 32.4083C81.7412 31.6871 83.1837 31.2063 84.1454 30.2446C89.194 25.4363 91.3578 19.6664 90.3961 12.6944C89.6749 8.60742 86.5495 7.40535 83.6645 6.20329C81.2604 5.24163 80.5392 7.88618 79.3371 9.08824L79.0967 9.32866C75.0097 13.4157 72.3651 17.9835 72.6055 23.9939Z"
    fill="#251C1C"
  />
</svg>
