<svg
  width="924"
  height="167"
  viewBox="0 0 924 167"
  fill="none"
  xmlns="http://www.w3.org/2000/svg"
>
  <g clip-path="url(#clip0_6656_88)">
    <path
      d="M582.315 164.925C580.496 164.5 578.285 164.999 577.803 167.129C577.433 168.637 577.966 169.955 578.954 171.065C577.421 171.367 576.047 172.21 575.893 173.95C575.641 177.118 578.999 178.272 581.529 178.859C584.058 179.445 587.209 180.144 589.677 178.759C590.684 178.17 591.619 177.086 591.709 175.881C591.677 175.522 591.694 175.075 591.614 174.803C592.333 174.74 592.629 173.991 592.295 173.352C590.346 169.207 586.576 165.889 582.315 164.925ZM588.826 171.567L588.874 171.479C588.962 171.527 589.001 171.663 589.089 171.711C588.865 171.703 588.826 171.567 588.826 171.567ZM579.574 167.643C579.701 167.826 579.741 167.962 579.916 168.058C579.733 168.186 579.637 168.361 579.628 168.584C579.597 168.225 579.517 167.954 579.574 167.643ZM578.065 173.315L578.153 173.363C578.328 173.459 578.456 173.643 578.631 173.739C578.224 173.858 577.944 174.161 577.84 174.56C577.76 174.288 577.769 174.065 577.825 173.753C577.873 173.666 577.969 173.49 578.065 173.315ZM589.042 176.587C588.626 176.93 588.259 177.185 587.716 177.343C587.54 177.247 587.413 177.064 587.325 177.016C587.373 176.928 587.334 176.792 587.246 176.744C587.82 176.944 588.275 176.738 588.516 176.299C589.098 176.276 589.522 175.71 589.587 175.175C589.802 175.407 589.322 176.284 589.042 176.587ZM587.105 169.713C586.363 169.193 585.534 168.625 584.793 168.105C584.617 168.009 584.529 167.961 584.354 167.865C584.091 167.721 583.867 167.713 583.732 167.753C583.468 167.608 583.341 167.425 583.078 167.281C583.253 167.377 583.429 167.473 583.652 167.481C584.976 167.978 586.156 168.738 587.105 169.713Z"
      fill="#39B100"
    />
    <path
      d="M575.877 179.186C577.018 179.81 578.486 180.044 579.914 180.141C581.032 180.183 582.237 180.273 583.402 180.226C585.15 180.157 586.81 180.04 588.351 179.515C589.03 179.317 589.669 178.983 590.395 178.696C590.531 178.657 590.579 178.569 590.763 178.442C591.099 177.828 591.571 177.174 591.731 176.464C591.836 176.065 591.677 175.522 591.606 175.027C591.447 174.484 591.424 173.901 591.129 173.398C590.923 172.943 590.852 172.448 590.373 172.072C589.895 171.696 589.648 171.106 589.266 170.554C588.621 169.859 588.063 169.212 587.418 168.516C586.724 167.909 586.031 167.301 585.201 166.733C584.285 166.118 583.32 165.589 582.25 165.46C581.628 165.347 580.918 165.187 580.287 165.298C579.705 165.321 579.114 165.567 578.571 165.726C577.573 166.092 576.662 166.505 576.222 167.518C576.021 168.093 575.909 168.715 575.844 169.25C575.78 169.784 575.89 170.415 575.913 170.998C575.953 171.133 575.809 171.396 575.673 171.436C575.306 171.691 574.851 171.898 574.395 172.105C572.702 173.116 572.588 174.991 573.423 176.588C574.171 178.138 574.562 178.466 575.877 179.186ZM576.038 178.476C575.464 178.275 575.034 177.812 574.651 177.261C574.436 177.029 574.269 176.709 574.102 176.39C573.091 174.696 573.732 173.109 575.233 172.449C575.736 172.154 576.279 171.996 576.822 171.837C577.772 171.559 578.674 171.369 579.696 171.586C579.783 171.634 579.919 171.594 580.055 171.554C580.19 171.515 580.374 171.387 580.334 171.251C580.383 171.164 580.167 170.932 580.08 170.884C579.768 170.828 579.37 170.723 579.146 170.715C578.428 170.778 577.709 170.841 576.943 170.991C576.672 171.07 576.544 170.887 576.552 170.663C576.521 170.304 576.538 169.857 576.506 169.498C576.523 169.051 576.539 168.604 576.604 168.07C576.917 166.873 578.011 166.332 579.233 165.974C580.678 165.625 582.05 166.034 583.326 166.619C584.778 167.299 585.901 168.371 586.937 169.394C587.973 170.417 588.826 171.567 589.63 172.805C590.179 173.676 590.593 174.587 590.599 175.616C590.575 176.286 590.374 176.861 590.174 177.435C589.838 178.049 589.374 178.479 588.647 178.766C587.426 179.123 586.117 179.432 584.816 179.518C583.291 179.596 581.815 179.586 580.25 179.528C578.822 179.43 577.442 179.244 576.038 178.476Z"
      fill="#251C1C"
    />
    <path
      d="M571.281 163.217C570.316 162.689 569.295 162.472 568.305 162.614C567.946 162.646 567.674 162.725 567.658 163.172C567.697 163.308 567.513 163.435 567.417 163.611C567.129 164.137 566.977 164.623 567.272 165.127C567.391 165.534 567.558 165.853 567.765 166.309C568.13 167.307 569.095 167.835 570.068 168.14C571.081 168.58 572.19 168.845 573.324 168.44C574.051 168.153 574.602 167.771 574.675 167.013C574.683 166.79 574.604 166.518 574.437 166.199C573.633 164.96 572.421 163.841 571.281 163.217ZM569.567 167.181C568.953 166.845 568.738 166.613 568.443 166.11C568.236 165.655 568.117 165.248 567.863 164.88C567.401 164.057 568.551 163.205 569.261 163.366C571.176 163.616 572.515 164.919 573.535 166.389C573.917 166.94 573.717 167.514 573.038 167.713C572.543 167.784 572.048 167.855 571.513 167.791C570.803 167.63 570.229 167.43 569.567 167.181Z"
      fill="#251C1C"
    />
    <path
      d="M575.31 158.354C574.736 158.154 574.026 157.993 573.404 157.88C573.18 157.872 572.773 157.991 572.677 158.167C572.166 158.685 571.965 159.259 572.203 160.073C572.529 160.936 573.175 161.631 573.916 162.151C574.658 162.671 575.439 163.326 576.372 163.495C576.907 163.56 577.402 163.489 577.817 163.146C578.465 162.589 578.45 161.782 577.94 161.047C577.399 159.953 576.491 159.114 575.31 158.354C575.35 158.49 575.31 158.354 575.31 158.354ZM575.054 159.239C575.444 159.567 575.708 159.711 575.971 159.855C576.361 160.183 576.752 160.511 577.007 160.878C577.31 161.158 577.429 161.565 577.596 161.885C577.803 162.34 577.523 162.643 577.076 162.626C576.541 162.562 575.919 162.449 575.393 162.161C574.866 161.873 574.436 161.409 573.91 161.121C573.344 160.697 573.049 160.194 572.89 159.651C572.811 159.38 572.819 159.156 573.051 158.941C573.371 158.774 573.682 158.83 573.945 158.975C574.033 159.023 574.208 159.119 574.344 159.079C574.655 159.135 574.878 159.143 575.054 159.239Z"
      fill="#251C1C"
    />
    <path
      d="M725.626 146.855C723.758 146.915 721.752 147.97 721.837 150.152C721.871 151.704 722.726 152.839 723.968 153.656C722.566 154.344 721.457 155.515 721.758 157.235C722.335 160.36 725.877 160.606 728.472 160.518C731.067 160.429 734.291 160.289 736.317 158.312C737.137 157.483 737.76 156.194 737.534 155.007C737.411 154.668 737.311 154.232 737.164 153.99C737.842 153.743 737.934 152.943 737.446 152.412C734.49 148.913 729.99 146.684 725.626 146.855ZM733.633 151.586L733.657 151.489C733.754 151.512 733.828 151.633 733.925 151.657C733.707 151.707 733.633 151.586 733.633 151.586ZM723.681 150.19C723.851 150.334 723.925 150.455 724.119 150.502C723.975 150.673 723.927 150.867 723.977 151.085C723.854 150.747 723.707 150.505 723.681 150.19ZM723.692 156.059L723.789 156.083C723.983 156.13 724.154 156.275 724.348 156.322C723.985 156.542 723.794 156.907 723.796 157.32C723.649 157.078 723.599 156.86 723.573 156.545C723.597 156.448 723.644 156.253 723.692 156.059ZM735.141 156.379C734.829 156.817 734.54 157.159 734.056 157.453C733.862 157.405 733.691 157.261 733.594 157.237C733.618 157.14 733.544 157.019 733.447 156.995C734.054 157.04 734.44 156.723 734.558 156.237C735.115 156.064 735.378 155.407 735.302 154.874C735.57 155.042 735.333 156.014 735.141 156.379ZM731.491 150.24C730.64 149.93 729.692 149.596 728.842 149.286C728.647 149.239 728.55 149.215 728.356 149.168C728.064 149.096 727.846 149.146 727.725 149.22C727.434 149.149 727.263 149.004 726.972 148.933C727.166 148.981 727.361 149.028 727.578 148.978C728.986 149.115 730.323 149.544 731.491 150.24Z"
      fill="#39B100"
    />
    <path
      d="M723.098 162.296C724.361 162.604 725.84 162.449 727.245 162.174C728.335 161.925 729.522 161.7 730.636 161.354C732.306 160.834 733.879 160.291 735.232 159.386C735.836 159.019 736.367 158.53 736.995 158.066C737.116 157.992 737.139 157.895 737.284 157.725C737.449 157.044 737.736 156.291 737.707 155.563C737.705 155.151 737.411 154.668 737.214 154.208C736.92 153.725 736.747 153.168 736.332 152.758C736.015 152.372 735.818 151.912 735.259 151.673C734.7 151.434 734.308 150.927 733.797 150.493C732.993 149.989 732.287 149.508 731.484 149.003C730.657 148.596 729.829 148.189 728.882 147.855C727.836 147.497 726.768 147.237 725.701 147.389C725.071 147.441 724.344 147.469 723.763 147.74C723.206 147.913 722.699 148.304 722.216 148.598C721.347 149.209 720.574 149.844 720.411 150.937C720.366 151.544 720.418 152.174 720.494 152.707C720.57 153.24 720.841 153.821 721.014 154.377C721.087 154.498 721.016 154.79 720.895 154.863C720.606 155.204 720.22 155.522 719.834 155.84C718.46 157.255 718.835 159.096 720.055 160.422C721.179 161.725 721.641 161.941 723.098 162.296ZM723.07 161.569C722.463 161.524 721.927 161.187 721.415 160.754C721.148 160.586 720.904 160.32 720.659 160.055C719.244 158.681 719.453 156.982 720.732 155.956C721.142 155.541 721.625 155.247 722.108 154.953C722.954 154.439 723.776 154.021 724.819 153.967C724.916 153.99 725.037 153.917 725.158 153.843C725.279 153.77 725.423 153.599 725.35 153.478C725.373 153.381 725.106 153.213 725.008 153.189C724.693 153.216 724.281 153.218 724.063 153.268C723.385 153.514 722.708 153.761 722.006 154.105C721.765 154.252 721.594 154.107 721.544 153.889C721.421 153.55 721.321 153.114 721.198 152.776C721.098 152.34 720.999 151.904 720.923 151.37C720.916 150.133 721.832 149.328 722.92 148.666C724.225 147.955 725.657 147.995 727.04 148.229C728.619 148.511 729.981 149.255 731.247 149.975C732.512 150.695 733.633 151.586 734.731 152.574C735.487 153.272 736.122 154.045 736.395 155.038C736.544 155.692 736.499 156.298 736.454 156.905C736.288 157.585 735.952 158.12 735.324 158.585C734.237 159.246 733.052 159.884 731.818 160.304C730.365 160.773 728.936 161.146 727.411 161.494C726.005 161.769 724.624 161.947 723.07 161.569Z"
      fill="#251C1C"
    />
    <path
      d="M714.524 148.061C713.456 147.801 712.413 147.856 711.494 148.249C711.155 148.372 710.913 148.519 711.013 148.955C711.086 149.076 710.942 149.247 710.895 149.441C710.752 150.024 710.731 150.534 711.146 150.943C711.366 151.306 711.611 151.571 711.928 151.957C712.54 152.827 713.608 153.087 714.627 153.13C715.72 153.293 716.86 153.262 717.85 152.577C718.478 152.112 718.911 151.6 718.785 150.849C718.736 150.631 718.589 150.39 718.345 150.124C717.247 149.137 715.787 148.369 714.524 148.061ZM713.895 152.334C713.215 152.168 712.947 152 712.532 151.59C712.215 151.204 711.994 150.841 711.653 150.552C710.994 149.877 711.885 148.756 712.612 148.728C714.527 148.474 716.157 149.386 717.522 150.542C718.034 150.975 717.989 151.582 717.385 151.949C716.926 152.146 716.466 152.343 715.933 152.419C715.205 152.447 714.599 152.402 713.895 152.334Z"
      fill="#251C1C"
    />
    <path
      d="M717.158 142.322C716.552 142.277 715.824 142.306 715.194 142.358C714.976 142.408 714.613 142.628 714.566 142.822C714.206 143.455 714.161 144.062 714.602 144.787C715.14 145.535 715.943 146.04 716.794 146.35C717.645 146.66 718.569 147.091 719.515 147.013C720.048 146.937 720.507 146.74 720.82 146.302C721.301 145.596 721.078 144.821 720.395 144.243C719.59 143.326 718.495 142.75 717.158 142.322C717.232 142.443 717.158 142.322 717.158 142.322ZM717.139 143.244C717.602 143.459 717.893 143.53 718.184 143.601C718.647 143.817 719.109 144.032 719.45 144.321C719.815 144.513 720.035 144.876 720.279 145.141C720.597 145.527 720.405 145.892 719.969 145.992C719.436 146.068 718.806 146.12 718.223 145.978C717.64 145.836 717.104 145.499 716.521 145.357C715.865 145.094 715.45 144.685 715.156 144.201C715.009 143.96 714.96 143.742 715.128 143.474C715.393 143.23 715.708 143.204 716 143.275C716.097 143.298 716.291 143.346 716.412 143.272C716.727 143.246 716.945 143.196 717.139 143.244Z"
      fill="#251C1C"
    />
    <path
      d="M717.318 161.093C715.958 160.762 714.65 161.061 713.563 161.722C712.741 162.139 711.992 162.677 711.608 163.407C711.225 164.137 711.741 165.395 712.713 165.632C714.291 165.914 715.843 165.88 717.293 164.998C717.897 164.631 718.502 164.264 718.862 163.631C719.511 162.657 718.97 161.496 717.707 161.188C717.513 161.141 717.416 161.117 717.318 161.093ZM716.982 161.629C717.079 161.653 717.176 161.676 717.371 161.724C718.439 161.984 718.662 162.759 717.964 163.515C717.698 163.759 717.336 163.979 716.973 164.2C715.862 164.958 714.504 165.039 713.097 164.902C712.514 164.76 712.146 164.156 712.362 163.694C712.625 163.037 713.253 162.573 713.954 162.229C714.8 161.715 715.719 161.321 716.982 161.629Z"
      fill="#251C1C"
    />
    <path
      d="M714.716 155.725C713.697 155.682 712.725 155.445 711.709 155.815C711.128 156.085 710.474 156.235 709.797 156.481C709.337 156.678 709.048 157.019 708.953 157.408C708.882 157.7 708.811 157.991 709.273 158.207C709.37 158.23 709.444 158.351 709.444 158.351C709.74 159.247 710.567 159.654 711.442 159.867C712.996 160.246 714.475 160.092 715.633 159.139C715.899 158.895 716.164 158.651 716.453 158.309C717.031 157.627 716.661 156.61 715.664 156.058C715.469 156.011 715.104 155.819 714.716 155.725ZM714.379 156.26C714.744 156.452 715.23 156.57 715.571 156.859C716.107 157.196 716.183 157.729 715.846 158.264C715.702 158.435 715.437 158.679 715.195 158.826C713.987 159.561 712.629 159.642 711.219 159.092C710.368 158.782 710.219 158.128 710.166 157.498C710.09 156.965 710.697 157.01 710.962 156.766C710.962 156.766 710.962 156.766 711.083 156.692C712.026 156.201 713.116 155.952 714.379 156.26Z"
      fill="#251C1C"
    />
    <path
      d="M652.449 142.792C648.552 139.29 644.867 143.315 644.406 147.281C641.309 147.524 638.735 150.561 640.669 153.9C642.054 156.368 645.293 157.115 647.966 157.438C650.017 157.649 653.68 157.83 655.43 156.507C658.698 154.078 654.745 144.846 652.449 142.792ZM653.099 145.77C654.102 147.687 655.652 151.727 655.17 153.857C654.519 156.921 649.66 156.427 647.21 156.112C646.053 155.935 644.857 155.622 643.756 155.133C639.585 152.964 641.614 146.551 646.271 148.872C646.973 149.256 647.549 148.204 646.847 147.82C646.409 147.579 645.922 147.427 645.475 147.411C645.677 145.583 646.343 143.326 648.467 142.778C650.862 142.151 652.264 144.172 653.099 145.77Z"
      fill="#251C1C"
    />
    <path
      d="M637.305 150.462C636.23 149.304 634.196 148.646 633.116 149.993C632.413 150.862 632.459 152.028 633.008 152.898C633.048 153.034 633.088 153.17 633.127 153.305C634.243 154.6 636.053 155.249 637.73 154.685C639.727 153.954 638.166 151.389 637.305 150.462ZM636.976 152.106C637.143 152.425 637.565 153.112 637.373 153.463C637.229 153.726 636.383 153.606 636.16 153.597C635.537 153.485 635.051 153.332 634.572 152.956C634.533 152.821 634.493 152.685 634.318 152.589C633.576 152.069 633.666 150.864 634.48 150.626C635.574 150.085 636.514 151.283 636.976 152.106Z"
      fill="#251C1C"
    />
    <path
      d="M635.738 142.08C634.692 142.533 634.235 143.993 634.968 144.736C634.824 144.999 634.767 145.311 634.982 145.542C635.931 146.517 637.788 148.332 639.289 147.672C640.79 147.011 640.466 144.896 639.75 143.706C639.033 142.516 637.239 141.42 635.738 142.08ZM639.236 145.477C639.307 145.972 639.331 146.554 638.612 146.617C638.389 146.609 638.086 146.329 637.91 146.233C637.296 145.897 636.866 145.433 636.3 145.01C636.532 144.794 636.596 144.26 636.11 144.107C635.863 143.516 635.92 143.205 636.454 143.27C636.726 143.19 636.997 143.111 637.348 143.303C637.659 143.359 638.01 143.552 638.225 143.783C638.616 144.111 639.126 144.846 639.236 145.477Z"
      fill="#251C1C"
    />
    <path
      d="M643.277 137.886C642.416 136.959 640.948 136.725 639.981 137.45C639.758 137.442 639.486 137.521 639.382 137.92C639.013 139.428 639.401 141.008 640.389 142.119C641.162 142.998 643.268 144.151 643.996 142.611C644.629 141.248 644.265 138.996 643.277 137.886ZM642.811 139.569C642.93 139.976 642.962 140.335 642.945 140.782C642.937 141.006 642.929 141.229 642.92 141.453C643.039 141.86 642.943 142.035 642.545 141.931C641.778 142.081 641.053 141.115 640.759 140.611C640.424 139.972 640.314 139.342 640.426 138.719C640.426 138.719 640.426 138.719 640.474 138.632C641.314 137.723 642.533 138.619 642.811 139.569Z"
      fill="#251C1C"
    />
    <path
      d="M647.61 133.302C646.645 132.774 645.376 133.219 644.896 134.097C644.76 134.136 644.664 134.312 644.568 134.487C644.238 136.131 644.921 138.215 646.269 139.294C647.44 140.278 649.468 139.905 649.622 138.166C649.768 136.65 649.189 134.167 647.61 133.302ZM648.014 135.689C648.212 136.368 648.578 137.366 648.465 137.989C648.175 139.768 646.678 137.922 646.343 137.283C646.009 136.644 645.811 135.965 645.836 135.295C645.971 135.255 646.067 135.08 646.076 134.856C646.061 134.05 646.994 134.219 647.385 134.547C647.688 134.827 647.847 135.37 648.014 135.689Z"
      fill="#251C1C"
    />
    <path
      d="M823.672 141.286C819.774 137.784 816.089 141.809 815.629 145.775C812.532 146.018 809.957 149.055 811.892 152.394C813.277 154.862 816.516 155.609 819.189 155.932C821.24 156.142 824.903 156.323 826.653 155.001C829.92 152.572 825.967 143.34 823.672 141.286ZM824.322 144.263C825.325 146.18 826.875 150.221 826.393 152.351C825.742 155.415 820.883 154.921 818.433 154.606C817.276 154.429 816.079 154.116 814.979 153.627C810.808 151.458 812.836 145.045 817.494 147.366C818.196 147.75 818.772 146.697 818.07 146.313C817.631 146.073 817.145 145.921 816.698 145.904C816.9 144.077 817.566 141.819 819.69 141.272C822.085 140.645 823.486 142.666 824.322 144.263Z"
      fill="#251C1C"
    />
    <path
      d="M808.529 148.957C807.453 147.798 805.419 147.14 804.34 148.487C803.636 149.356 803.682 150.522 804.232 151.392C804.271 151.528 804.311 151.664 804.351 151.8C805.466 153.094 807.277 153.743 808.954 153.179C810.95 152.448 809.389 149.884 808.529 148.957ZM808.199 150.6C808.366 150.92 808.788 151.607 808.596 151.957C808.452 152.221 807.606 152.1 807.383 152.091C806.761 151.979 806.274 151.826 805.796 151.451C805.756 151.315 805.716 151.179 805.541 151.083C804.799 150.563 804.889 149.358 805.703 149.12C806.798 148.579 807.738 149.777 808.199 150.6Z"
      fill="#251C1C"
    />
    <path
      d="M806.961 140.574C805.915 141.028 805.458 142.488 806.191 143.231C806.047 143.494 805.991 143.805 806.206 144.037C807.154 145.012 809.011 146.826 810.512 146.166C812.014 145.506 811.689 143.391 810.973 142.2C810.256 141.01 808.462 139.914 806.961 140.574ZM810.46 143.971C810.531 144.466 810.554 145.049 809.835 145.112C809.612 145.103 809.309 144.824 809.134 144.728C808.52 144.391 808.089 143.928 807.523 143.504C807.755 143.289 807.82 142.754 807.333 142.602C807.087 142.011 807.143 141.7 807.678 141.765C807.949 141.685 808.22 141.606 808.571 141.798C808.882 141.854 809.233 142.046 809.448 142.278C809.839 142.606 810.349 143.341 810.46 143.971Z"
      fill="#251C1C"
    />
    <path
      d="M814.501 136.38C813.641 135.452 812.172 135.219 811.206 135.944C810.982 135.935 810.711 136.015 810.606 136.414C810.237 137.922 810.626 139.502 811.614 140.613C812.387 141.492 814.492 142.645 815.22 141.105C815.853 139.742 815.489 137.49 814.501 136.38ZM814.036 138.063C814.155 138.47 814.186 138.829 814.17 139.276C814.161 139.5 814.153 139.723 814.145 139.947C814.264 140.354 814.168 140.529 813.769 140.425C813.003 140.575 812.278 139.609 811.983 139.105C811.649 138.466 811.538 137.836 811.651 137.213C811.651 137.213 811.651 137.213 811.699 137.126C812.538 136.217 813.758 137.113 814.036 138.063Z"
      fill="#251C1C"
    />
    <path
      d="M818.834 131.797C817.869 131.269 816.599 131.714 816.119 132.591C815.983 132.631 815.887 132.806 815.791 132.982C815.461 134.625 816.145 136.709 817.492 137.789C818.664 138.772 820.691 138.4 820.846 136.66C820.991 135.144 820.412 132.661 818.834 131.797ZM819.237 134.184C819.436 134.863 819.801 135.861 819.689 136.483C819.399 138.262 817.901 136.417 817.567 135.778C817.232 135.139 817.034 134.46 817.059 133.79C817.195 133.75 817.291 133.575 817.299 133.351C817.284 132.545 818.218 132.714 818.608 133.042C818.911 133.322 819.07 133.865 819.237 134.184Z"
      fill="#251C1C"
    />
    <path
      d="M912.794 159.915C908.897 156.414 905.212 160.439 904.751 164.405C901.654 164.647 899.08 167.684 901.014 171.023C902.399 173.491 905.638 174.238 908.311 174.561C910.362 174.772 914.025 174.953 915.775 173.631C919.043 171.201 915.09 161.97 912.794 159.915ZM913.444 162.893C914.447 164.81 915.997 168.85 915.515 170.981C914.864 174.044 910.005 173.55 907.555 173.236C906.398 173.058 905.201 172.745 904.101 172.257C899.93 170.088 901.959 163.674 906.616 165.995C907.318 166.38 907.894 165.327 907.192 164.943C906.754 164.703 906.267 164.55 905.82 164.534C906.022 162.706 906.688 160.449 908.812 159.901C911.207 159.274 912.609 161.296 913.444 162.893Z"
      fill="#251C1C"
    />
    <path
      d="M897.651 167.586C896.575 166.427 894.541 165.77 893.462 167.117C892.758 167.986 892.804 169.151 893.354 170.022C893.393 170.158 893.433 170.293 893.473 170.429C894.588 171.724 896.399 172.373 898.076 171.809C900.072 171.077 898.512 168.513 897.651 167.586ZM897.321 169.23C897.489 169.549 897.911 170.236 897.718 170.587C897.574 170.85 896.729 170.729 896.505 170.721C895.883 170.608 895.396 170.456 894.918 170.08C894.878 169.944 894.839 169.809 894.663 169.713C893.922 169.193 894.011 167.988 894.826 167.75C895.92 167.209 896.86 168.407 897.321 169.23Z"
      fill="#251C1C"
    />
    <path
      d="M896.083 159.204C895.037 159.657 894.58 161.117 895.313 161.86C895.169 162.124 895.113 162.435 895.328 162.667C896.276 163.642 898.133 165.456 899.634 164.796C901.136 164.136 900.812 162.02 900.095 160.83C899.379 159.64 897.585 158.544 896.083 159.204ZM899.582 162.601C899.653 163.096 899.676 163.679 898.958 163.741C898.734 163.733 898.431 163.453 898.256 163.357C897.642 163.021 897.212 162.558 896.645 162.134C896.877 161.919 896.942 161.384 896.455 161.232C896.209 160.641 896.265 160.33 896.8 160.394C897.071 160.315 897.343 160.235 897.693 160.427C898.005 160.484 898.356 160.676 898.571 160.908C898.961 161.235 899.471 161.97 899.582 162.601Z"
      fill="#251C1C"
    />
    <path
      d="M903.623 155.009C902.763 154.082 901.295 153.849 900.328 154.573C900.104 154.565 899.833 154.644 899.729 155.043C899.359 156.551 899.748 158.132 900.736 159.243C901.509 160.122 903.614 161.274 904.343 159.735C904.975 158.371 904.611 156.12 903.623 155.009ZM903.158 156.692C903.277 157.1 903.308 157.459 903.292 157.906C903.284 158.129 903.275 158.353 903.267 158.576C903.386 158.983 903.29 159.159 902.891 159.054C902.125 159.205 901.4 158.238 901.105 157.735C900.771 157.096 900.66 156.465 900.773 155.843C900.773 155.843 900.773 155.843 900.821 155.755C901.66 154.847 902.88 155.742 903.158 156.692Z"
      fill="#251C1C"
    />
    <path
      d="M907.956 150.427C906.991 149.899 905.721 150.344 905.241 151.221C905.105 151.261 905.009 151.436 904.913 151.611C904.584 153.255 905.267 155.339 906.614 156.418C907.786 157.402 909.814 157.03 909.968 155.29C910.114 153.774 909.535 151.291 907.956 150.427ZM908.359 152.814C908.558 153.492 908.923 154.49 908.811 155.113C908.521 156.892 907.023 155.046 906.689 154.407C906.355 153.768 906.156 153.09 906.181 152.419C906.317 152.38 906.413 152.204 906.421 151.981C906.406 151.175 907.34 151.344 907.73 151.671C908.033 151.951 908.192 152.494 908.359 152.814Z"
      fill="#251C1C"
    />
    <path
      d="M23.5692 145.811C21.8122 145.177 19.5576 145.415 18.8305 147.474C18.2878 148.929 18.6634 150.3 19.5151 151.518C17.9577 151.638 16.4947 152.316 16.1387 154.026C15.5189 157.143 18.7197 158.681 21.1631 159.558C23.6066 160.435 26.655 161.497 29.2678 160.409C30.3361 159.942 31.3915 158.974 31.6209 157.788C31.6316 157.427 31.7003 156.985 31.653 156.706C32.3738 156.728 32.7556 156.018 32.4981 155.344C31.0455 151 27.6881 147.266 23.5692 145.811ZM29.2609 153.167L29.3188 153.086C29.4003 153.143 29.4239 153.283 29.5055 153.341C29.2845 153.306 29.2609 153.167 29.2609 153.167ZM20.5295 148.191C20.6347 148.388 20.6583 148.528 20.8213 148.643C20.624 148.748 20.5081 148.912 20.4738 149.132C20.4845 148.772 20.4373 148.493 20.5295 148.191ZM18.3697 153.648L18.4512 153.706C18.6142 153.822 18.7194 154.019 18.8824 154.135C18.4641 154.206 18.1509 154.474 18.0008 154.858C17.9536 154.579 17.9879 154.358 18.0801 154.056C18.138 153.974 18.2538 153.811 18.3697 153.648ZM28.8901 158.178C28.4375 158.47 28.0428 158.68 27.485 158.775C27.322 158.659 27.2169 158.462 27.1353 158.404C27.1933 158.322 27.1697 158.183 27.0881 158.125C27.6352 158.391 28.1114 158.238 28.401 157.831C28.9823 157.876 29.4693 157.363 29.5958 156.84C29.7824 157.095 29.2033 157.91 28.8901 158.178ZM27.7677 151.125C27.0919 150.522 26.3346 149.861 25.6588 149.259C25.4958 149.143 25.4142 149.085 25.2512 148.969C25.0066 148.795 24.7857 148.761 24.6462 148.785C24.4017 148.611 24.2966 148.414 24.052 148.24C24.215 148.356 24.3781 148.472 24.599 148.506C25.8562 149.154 26.9396 150.046 27.7677 151.125Z"
      fill="#39B100"
    />
    <path
      d="M15.5125 159.224C16.5723 159.977 18.0032 160.38 19.4104 160.644C20.5152 160.816 21.7015 161.045 22.8643 161.135C24.6083 161.27 26.2709 161.347 27.8626 161.006C28.5598 160.888 29.2334 160.631 29.9885 160.431C30.1279 160.408 30.1858 160.326 30.3832 160.221C30.7886 159.65 31.3334 159.056 31.5758 158.369C31.7259 157.985 31.6315 157.428 31.6186 156.928C31.5242 156.37 31.5692 155.789 31.3353 155.255C31.183 154.778 31.1701 154.279 30.7388 153.85C30.3076 153.421 30.1317 152.805 29.8163 152.213C29.2563 151.447 28.7779 150.739 28.218 149.973C27.6001 149.289 26.9822 148.605 26.2249 147.944C25.3861 147.226 24.4894 146.588 23.4425 146.335C22.8375 146.151 22.151 145.909 21.5117 145.945C20.9304 145.9 20.3147 146.076 19.757 146.17C18.723 146.417 17.7706 146.722 17.215 147.677C16.949 148.224 16.7646 148.829 16.6381 149.352C16.5115 149.875 16.548 150.515 16.503 151.096C16.5266 151.236 16.3529 151.48 16.2135 151.504C15.8187 151.714 15.3425 151.866 14.8663 152.019C13.0665 152.825 12.7341 154.675 13.3778 156.358C13.94 157.985 14.2897 158.356 15.5125 159.224ZM15.7549 158.538C15.2078 158.272 14.8345 157.761 14.5191 157.169C14.3325 156.914 14.2037 156.577 14.075 156.24C13.2683 154.441 14.0898 152.939 15.6579 152.458C16.1921 152.224 16.7498 152.13 17.3076 152.036C18.2836 151.87 19.2017 151.787 20.1907 152.121C20.2722 152.179 20.4117 152.156 20.5511 152.132C20.6906 152.108 20.8879 152.003 20.8643 151.864C20.9222 151.782 20.7355 151.527 20.654 151.469C20.3515 151.377 19.9675 151.227 19.7466 151.192C19.0258 151.171 18.305 151.15 17.5263 151.21C17.2474 151.257 17.1423 151.06 17.1766 150.839C17.1873 150.478 17.2559 150.036 17.2666 149.676C17.3352 149.234 17.4039 148.792 17.5304 148.269C17.9808 147.117 19.1306 146.707 20.3856 146.494C21.8614 146.316 23.1765 146.882 24.3757 147.612C25.738 148.457 26.7292 149.652 27.6388 150.789C28.5485 151.925 29.2607 153.167 29.9151 154.491C30.3592 155.42 30.6639 156.372 30.5503 157.396C30.4474 158.058 30.1814 158.606 29.9154 159.153C29.51 159.723 28.9995 160.097 28.2444 160.296C26.9895 160.509 25.653 160.663 24.3508 160.597C22.8277 160.496 21.3625 160.314 19.8158 160.074C18.4085 159.81 17.0592 159.465 15.7549 158.538Z"
      fill="#251C1C"
    />
    <path
      d="M12.8092 142.829C11.9124 142.192 10.9235 141.857 9.92381 141.883C9.56341 141.872 9.28454 141.919 9.21593 142.361C9.23953 142.501 9.04218 142.606 8.92635 142.769C8.57886 143.258 8.37079 143.723 8.60465 144.258C8.67548 144.676 8.80422 145.013 8.95656 145.489C9.20333 146.523 10.1001 147.16 11.0311 147.576C11.9858 148.132 13.0563 148.524 14.2297 148.254C14.9848 148.054 15.5768 147.739 15.7377 146.994C15.772 146.773 15.7248 146.495 15.596 146.158C14.9416 144.834 13.8689 143.582 12.8092 142.829ZM10.6449 146.566C10.0742 146.16 9.88761 145.905 9.65375 145.371C9.5014 144.895 9.43058 144.476 9.22032 144.082C8.85772 143.211 10.0997 142.498 10.7862 142.741C12.659 143.213 13.8369 144.663 14.6779 146.241C14.9933 146.834 14.7273 147.381 14.0301 147.499C13.5303 147.512 13.0305 147.524 12.507 147.398C11.8205 147.156 11.2735 146.89 10.6449 146.566Z"
      fill="#251C1C"
    />
    <path
      d="M17.3784 138.469C16.8314 138.203 16.1449 137.96 15.54 137.776C15.319 137.742 14.9007 137.812 14.7849 137.975C14.2164 138.43 13.9504 138.977 14.0921 139.814C14.3152 140.708 14.8752 141.474 15.551 142.077C16.2268 142.68 16.9261 143.422 17.8336 143.699C18.357 143.825 18.8569 143.812 19.3095 143.52C20.0174 143.042 20.0967 142.24 19.6762 141.45C19.2664 140.3 18.4618 139.361 17.3784 138.469C17.4021 138.608 17.3784 138.469 17.3784 138.469ZM17.0203 139.318C17.37 139.689 17.6145 139.863 17.8591 140.037C18.2088 140.408 18.5585 140.779 18.7688 141.174C19.0369 141.487 19.1077 141.905 19.2365 142.242C19.3888 142.718 19.0756 142.986 18.6337 142.918C18.1103 142.791 17.5053 142.607 17.0162 142.259C16.527 141.912 16.1537 141.401 15.6646 141.054C15.1519 140.567 14.918 140.033 14.8236 139.475C14.7764 139.196 14.8107 138.975 15.0659 138.788C15.4027 138.66 15.7052 138.752 15.9498 138.926C16.0313 138.984 16.1943 139.099 16.3338 139.076C16.6363 139.168 16.8572 139.202 17.0203 139.318Z"
      fill="#251C1C"
    />
    <path
      d="M10.588 155.97C9.4467 155.159 8.12094 154.953 6.86601 155.166C5.94786 155.25 5.05334 155.473 4.42697 156.009C3.80061 156.545 3.8157 157.905 4.63092 158.485C5.99319 159.33 7.44768 159.872 9.12093 159.589C9.81812 159.471 10.5153 159.353 11.0838 158.898C12.0469 158.233 11.9739 156.955 10.9141 156.202C10.751 156.086 10.6695 156.028 10.588 155.97ZM10.0775 156.343C10.159 156.401 10.2405 156.459 10.4036 156.575C11.3003 157.212 11.221 158.014 10.2922 158.458C9.95537 158.587 9.53705 158.658 9.11873 158.729C7.80588 159.023 6.51445 158.596 5.25731 157.948C4.76818 157.601 4.65015 156.904 5.02125 156.554C5.50818 156.041 6.26327 155.842 7.04198 155.781C8.01804 155.616 9.0177 155.59 10.0775 156.343Z"
      fill="#251C1C"
    />
    <path
      d="M10.1543 150.019C9.22325 149.603 8.40804 149.024 7.32685 148.992C6.68758 149.028 6.02468 148.925 5.30389 148.904C4.80406 148.917 4.40937 149.127 4.1777 149.453C4.00396 149.698 3.83021 149.942 4.1799 150.313C4.26142 150.371 4.28504 150.511 4.28504 150.511C4.22933 151.452 4.8472 152.137 5.5809 152.658C6.88525 153.584 8.3161 153.988 9.74478 153.531C10.0816 153.402 10.4184 153.273 10.8131 153.063C11.6025 152.642 11.6346 151.561 10.9116 150.68C10.7485 150.564 10.4804 150.251 10.1543 150.019ZM9.64375 150.392C9.91192 150.705 10.3195 150.995 10.5298 151.39C10.9031 151.9 10.7766 152.424 10.266 152.797C10.0687 152.902 9.73188 153.031 9.45301 153.078C8.05864 153.314 6.76719 152.887 5.66019 151.856C4.9844 151.253 5.08736 150.59 5.27181 149.985C5.39834 149.461 5.94536 149.727 6.28215 149.599C6.28215 149.599 6.28217 149.599 6.42161 149.575C7.47919 149.468 8.58396 149.639 9.64375 150.392Z"
      fill="#251C1C"
    />
    <path
      d="M168.009 144.575C166.148 144.417 164.031 145.231 163.862 147.408C163.715 148.953 164.432 150.18 165.57 151.137C164.097 151.656 162.859 152.689 162.958 154.433C163.166 157.604 166.656 158.261 169.243 158.476C171.83 158.691 175.049 158.928 177.292 157.201C178.203 156.473 178.972 155.265 178.886 154.06C178.803 153.709 178.755 153.264 178.637 153.007C179.339 152.841 179.524 152.056 179.101 151.472C176.574 147.652 172.364 144.914 168.009 144.575ZM175.411 150.207L175.445 150.113C175.539 150.148 175.598 150.277 175.692 150.312C175.469 150.336 175.411 150.207 175.411 150.207ZM165.689 147.66C165.841 147.824 165.9 147.952 166.088 148.022C165.924 148.175 165.855 148.362 165.879 148.584C165.796 148.233 165.678 147.976 165.689 147.66ZM165.015 153.491L165.109 153.526C165.296 153.595 165.449 153.759 165.636 153.828C165.251 154.005 165.018 154.345 164.972 154.755C164.854 154.498 164.83 154.276 164.841 153.96C164.876 153.866 164.945 153.678 165.015 153.491ZM176.349 155.144C175.988 155.543 175.661 155.848 175.147 156.083C174.959 156.014 174.807 155.85 174.713 155.815C174.748 155.722 174.689 155.593 174.595 155.558C175.192 155.674 175.613 155.403 175.787 154.935C176.36 154.828 176.698 154.206 176.685 153.668C176.931 153.866 176.583 154.803 176.349 155.144ZM173.44 148.621C172.631 148.214 171.728 147.772 170.92 147.364C170.732 147.295 170.638 147.26 170.451 147.19C170.17 147.086 169.948 147.11 169.819 147.168C169.538 147.064 169.385 146.901 169.104 146.796C169.291 146.866 169.479 146.935 169.701 146.911C171.083 147.212 172.361 147.793 173.44 148.621Z"
      fill="#39B100"
    />
    <path
      d="M163.698 159.616C164.917 160.069 166.403 160.088 167.831 159.979C168.943 159.858 170.148 159.773 171.294 159.559C173.014 159.238 174.64 158.882 176.089 158.141C176.732 157.846 177.316 157.423 177.994 157.035C178.122 156.976 178.157 156.883 178.32 156.73C178.564 156.074 178.937 155.359 178.993 154.633C179.039 154.223 178.803 153.709 178.661 153.229C178.426 152.715 178.319 152.142 177.955 151.686C177.684 151.266 177.542 150.786 177.015 150.484C176.487 150.181 176.158 149.632 175.7 149.141C174.961 148.547 174.316 147.987 173.577 147.392C172.803 146.891 172.029 146.39 171.126 145.948C170.13 145.471 169.099 145.087 168.022 145.114C167.39 145.092 166.664 145.036 166.056 145.237C165.483 145.344 164.934 145.673 164.42 145.908C163.485 146.414 162.644 146.955 162.354 148.021C162.239 148.618 162.217 149.25 162.231 149.789C162.244 150.327 162.445 150.935 162.552 151.508C162.61 151.637 162.506 151.918 162.377 151.977C162.05 152.282 161.63 152.553 161.209 152.823C159.68 154.068 159.837 155.94 160.895 157.4C161.859 158.826 162.292 159.093 163.698 159.616ZM163.755 158.89C163.158 158.775 162.665 158.378 162.207 157.888C161.961 157.69 161.749 157.398 161.538 157.106C160.293 155.576 160.697 153.913 162.088 153.043C162.543 152.679 163.057 152.443 163.572 152.208C164.472 151.795 165.337 151.477 166.379 151.544C166.473 151.579 166.601 151.52 166.73 151.461C166.858 151.402 167.022 151.25 166.963 151.121C166.998 151.027 166.751 150.829 166.658 150.794C166.342 150.784 165.932 150.738 165.709 150.762C165.008 150.928 164.306 151.094 163.569 151.353C163.312 151.471 163.16 151.308 163.135 151.085C163.053 150.735 163.004 150.29 162.922 149.939C162.873 149.494 162.825 149.05 162.812 148.511C162.949 147.282 163.954 146.589 165.111 146.059C166.49 145.505 167.907 145.711 169.254 146.105C170.789 146.569 172.055 147.466 173.228 148.329C174.401 149.192 175.411 150.207 176.385 151.316C177.055 152.099 177.595 152.94 177.751 153.958C177.823 154.625 177.707 155.222 177.592 155.819C177.348 156.475 176.952 156.968 176.274 157.356C175.117 157.886 173.866 158.381 172.591 158.654C171.094 158.951 169.631 159.154 168.075 159.323C166.647 159.432 165.255 159.448 163.755 158.89Z"
      fill="#251C1C"
    />
    <path
      d="M156.843 144.479C155.812 144.096 154.77 144.028 153.811 144.312C153.46 144.395 153.203 144.513 153.251 144.957C153.31 145.086 153.147 145.239 153.077 145.426C152.868 145.988 152.787 146.492 153.152 146.947C153.328 147.333 153.54 147.625 153.81 148.046C154.316 148.981 155.347 149.364 156.354 149.525C157.42 149.814 158.556 149.916 159.619 149.352C160.297 148.963 160.787 148.505 160.75 147.745C160.726 147.522 160.608 147.265 160.397 146.973C159.422 145.864 158.062 144.932 156.843 144.479ZM155.72 148.649C155.064 148.405 154.817 148.207 154.453 147.751C154.183 147.331 154.006 146.945 153.701 146.618C153.125 145.871 154.14 144.861 154.866 144.918C156.797 144.889 158.31 145.985 159.531 147.292C159.989 147.782 159.874 148.379 159.231 148.674C158.752 148.816 158.272 148.957 157.734 148.971C157.008 148.914 156.411 148.799 155.72 148.649Z"
      fill="#251C1C"
    />
    <path
      d="M160.128 139.086C159.531 138.97 158.805 138.914 158.173 138.892C157.951 138.916 157.565 139.093 157.495 139.28C157.064 139.867 156.948 140.464 157.302 141.236C157.749 142.042 158.488 142.637 159.297 143.044C160.105 143.451 160.973 143.987 161.921 144.02C162.46 144.006 162.939 143.865 163.301 143.466C163.861 142.82 163.73 142.025 163.119 141.371C162.426 140.366 161.405 139.667 160.128 139.086C160.187 139.214 160.128 139.086 160.128 139.086ZM160.002 139.999C160.436 140.267 160.717 140.371 160.998 140.476C161.432 140.744 161.866 141.012 162.171 141.339C162.511 141.572 162.688 141.957 162.899 142.249C163.17 142.67 162.937 143.01 162.492 143.058C161.954 143.071 161.322 143.05 160.759 142.841C160.197 142.632 159.704 142.235 159.142 142.026C158.52 141.689 158.156 141.233 157.921 140.719C157.803 140.462 157.779 140.239 157.977 139.993C158.269 139.782 158.585 139.792 158.866 139.897C158.96 139.932 159.147 140.001 159.276 139.942C159.592 139.953 159.814 139.929 160.002 139.999Z"
      fill="#251C1C"
    />
    <path
      d="M158.099 157.748C156.787 157.26 155.453 157.405 154.296 157.935C153.431 158.253 152.625 158.7 152.158 159.381C151.692 160.061 152.059 161.371 152.996 161.719C154.531 162.183 156.076 162.33 157.619 161.624C158.262 161.329 158.905 161.035 159.336 160.448C160.094 159.557 159.693 158.341 158.474 157.888C158.287 157.818 158.193 157.783 158.099 157.748ZM157.703 158.241C157.797 158.276 157.89 158.311 158.078 158.38C159.109 158.764 159.24 159.559 158.458 160.228C158.166 160.44 157.78 160.617 157.394 160.793C156.202 161.417 154.844 161.339 153.462 161.039C152.9 160.83 152.606 160.187 152.873 159.753C153.211 159.132 153.889 158.743 154.625 158.484C155.525 158.072 156.484 157.788 157.703 158.241Z"
      fill="#251C1C"
    />
    <path
      d="M156.139 152.112C155.132 151.951 154.195 151.603 153.142 151.852C152.534 152.052 151.867 152.124 151.166 152.29C150.686 152.432 150.359 152.737 150.22 153.112C150.115 153.394 150.011 153.675 150.445 153.943C150.538 153.978 150.597 154.106 150.597 154.106C150.787 155.03 151.561 155.531 152.405 155.845C153.905 156.402 155.391 156.421 156.653 155.61C156.945 155.399 157.237 155.187 157.564 154.882C158.217 154.271 157.968 153.219 157.042 152.554C156.854 152.485 156.514 152.251 156.139 152.112ZM155.743 152.605C156.083 152.838 156.552 153.012 156.857 153.339C157.35 153.736 157.363 154.274 156.966 154.767C156.803 154.919 156.511 155.131 156.254 155.249C154.968 155.837 153.61 155.759 152.274 155.049C151.465 154.642 151.393 153.975 151.414 153.343C151.401 152.805 151.998 152.92 152.29 152.708C152.29 152.708 152.29 152.708 152.419 152.649C153.413 152.272 154.524 152.152 155.743 152.605Z"
      fill="#251C1C"
    />
    <path
      d="M95.8057 132.007C92.3431 128.075 88.2138 131.643 87.2937 135.528C84.1896 135.408 81.2787 138.124 82.8106 141.666C83.8984 144.279 87.0284 145.398 89.6456 146.031C91.6578 146.479 95.2747 147.086 97.1667 145.977C100.695 143.945 97.846 134.315 95.8057 132.007ZM96.1041 135.04C96.8765 137.061 97.9451 141.255 97.218 143.314C96.2142 146.281 91.4454 145.224 89.0491 144.626C87.9207 144.315 86.7687 143.864 85.7325 143.251C81.8431 140.61 84.6057 134.477 88.9607 137.326C89.6129 137.789 90.3079 136.811 89.6557 136.347C89.2481 136.058 88.7825 135.85 88.3406 135.781C88.7545 133.99 89.6789 131.825 91.852 131.529C94.304 131.186 95.4604 133.357 96.1041 135.04Z"
      fill="#251C1C"
    />
    <path
      d="M79.8707 137.86C78.9375 136.583 76.9939 135.693 75.7647 136.905C74.9646 137.686 74.8746 138.849 75.3187 139.778C75.3423 139.917 75.3659 140.057 75.3895 140.196C76.3464 141.612 78.0691 142.468 79.8002 142.103C81.8682 141.609 80.6173 138.881 79.8707 137.86ZM79.3517 139.454C79.4804 139.79 79.8194 140.522 79.5878 140.848C79.414 141.093 78.5881 140.874 78.3671 140.84C77.7622 140.655 77.2967 140.447 76.8654 140.018C76.8418 139.879 76.8182 139.739 76.6552 139.623C75.9794 139.021 76.2089 137.834 77.0455 137.693C78.1953 137.283 78.9891 138.583 79.3517 139.454Z"
      fill="#251C1C"
    />
    <path
      d="M79.2912 129.351C78.1993 129.679 77.5751 131.076 78.2166 131.9C78.0429 132.144 77.9506 132.447 78.1373 132.702C78.9654 133.781 80.5981 135.8 82.1662 135.319C83.7343 134.838 83.659 132.7 83.0862 131.434C82.5133 130.168 80.8593 128.871 79.2912 129.351ZM82.3698 133.133C82.3827 133.633 82.3377 134.214 81.6169 134.193C81.396 134.158 81.1278 133.845 80.9647 133.729C80.3941 133.324 80.0208 132.814 79.508 132.327C79.7633 132.14 79.8899 131.616 79.4243 131.408C79.2484 130.793 79.3406 130.49 79.8641 130.617C80.1429 130.57 80.4218 130.522 80.7479 130.754C81.0503 130.846 81.3764 131.078 81.5631 131.333C81.9128 131.704 82.3333 132.494 82.3698 133.133Z"
      fill="#251C1C"
    />
    <path
      d="M87.2678 126.065C86.5212 125.044 85.0903 124.641 84.0457 125.248C83.8247 125.213 83.5458 125.261 83.3957 125.645C82.853 127.099 83.0548 128.714 83.9065 129.933C84.5716 130.896 86.5281 132.286 87.4312 130.842C88.2184 129.561 88.1196 127.283 87.2678 126.065ZM86.6094 127.682C86.6802 128.101 86.6695 128.461 86.6009 128.903C86.5666 129.124 86.5322 129.345 86.4979 129.566C86.5687 129.984 86.4529 130.147 86.0689 129.997C85.2902 130.057 84.683 129.013 84.4492 128.478C84.1917 127.805 84.1552 127.166 84.3396 126.561C84.3396 126.561 84.3397 126.561 84.3976 126.479C85.3371 125.675 86.4441 126.706 86.6094 127.682Z"
      fill="#251C1C"
    />
    <path
      d="M92.1061 122.018C91.2094 121.381 89.8965 121.675 89.3174 122.49C89.1779 122.514 89.0621 122.677 88.9463 122.84C88.4273 124.434 88.8629 126.583 90.075 127.813C91.1241 128.926 93.1813 128.793 93.5373 127.083C93.859 125.594 93.5735 123.061 92.1061 122.018ZM92.2286 124.436C92.3466 125.133 92.5934 126.167 92.4089 126.772C91.9135 128.505 90.6413 126.498 90.3838 125.824C90.1263 125.15 90.0083 124.453 90.1112 123.79C90.2506 123.767 90.3665 123.604 90.4008 123.383C90.4801 122.58 91.3875 122.857 91.7372 123.228C92.0054 123.541 92.0998 124.099 92.2286 124.436Z"
      fill="#251C1C"
    />
    <path
      d="M266.036 150.476C262.573 146.544 258.444 150.112 257.524 153.997C254.42 153.877 251.509 156.593 253.041 160.135C254.129 162.748 257.259 163.867 259.876 164.5C261.888 164.948 265.505 165.555 267.397 164.446C270.926 162.414 268.076 152.785 266.036 150.476ZM266.334 153.51C267.107 155.53 268.175 159.724 267.448 161.784C266.445 164.751 261.676 163.693 259.279 163.095C258.151 162.784 256.999 162.334 255.963 161.72C252.073 159.08 254.836 152.946 259.191 155.795C259.843 156.258 260.538 155.28 259.886 154.817C259.478 154.527 259.013 154.319 258.571 154.25C258.985 152.459 259.909 150.294 262.082 149.998C264.534 149.655 265.691 151.826 266.334 153.51Z"
      fill="#251C1C"
    />
    <path
      d="M250.102 156.329C249.168 155.053 247.225 154.163 245.996 155.375C245.196 156.156 245.106 157.319 245.55 158.248C245.573 158.387 245.597 158.526 245.621 158.666C246.577 160.082 248.3 160.937 250.031 160.573C252.099 160.079 250.848 157.351 250.102 156.329ZM249.583 157.923C249.711 158.26 250.05 158.992 249.819 159.318C249.645 159.562 248.819 159.344 248.598 159.309C247.993 159.125 247.528 158.917 247.096 158.488C247.073 158.348 247.049 158.209 246.886 158.093C246.21 157.49 246.44 156.304 247.276 156.162C248.426 155.753 249.22 157.052 249.583 157.923Z"
      fill="#251C1C"
    />
    <path
      d="M249.522 147.822C248.43 148.15 247.806 149.546 248.447 150.37C248.274 150.615 248.181 150.917 248.368 151.173C249.196 152.252 250.829 154.27 252.397 153.789C253.965 153.309 253.89 151.17 253.317 149.904C252.744 148.639 251.09 147.341 249.522 147.822ZM252.601 151.603C252.614 152.103 252.569 152.685 251.848 152.663C251.627 152.629 251.359 152.316 251.196 152.2C250.625 151.794 250.252 151.284 249.739 150.797C249.994 150.61 250.121 150.087 249.655 149.879C249.479 149.263 249.571 148.961 250.095 149.087C250.374 149.04 250.653 148.993 250.979 149.225C251.281 149.317 251.607 149.548 251.794 149.804C252.144 150.175 252.564 150.964 252.601 151.603Z"
      fill="#251C1C"
    />
    <path
      d="M257.5 144.535C256.753 143.513 255.322 143.11 254.278 143.717C254.057 143.683 253.778 143.73 253.628 144.114C253.085 145.569 253.287 147.184 254.139 148.403C254.804 149.366 256.76 150.756 257.663 149.312C258.45 148.031 258.352 145.753 257.5 144.535ZM256.841 146.152C256.912 146.57 256.901 146.931 256.833 147.373C256.799 147.594 256.764 147.815 256.73 148.036C256.801 148.454 256.685 148.617 256.301 148.467C255.522 148.527 254.915 147.482 254.681 146.948C254.424 146.275 254.387 145.635 254.572 145.03C254.572 145.03 254.572 145.03 254.63 144.949C255.569 144.144 256.676 145.176 256.841 146.152Z"
      fill="#251C1C"
    />
    <path
      d="M262.337 140.488C261.44 139.851 260.127 140.145 259.548 140.961C259.409 140.984 259.293 141.147 259.177 141.31C258.658 142.904 259.094 145.054 260.306 146.283C261.355 147.396 263.412 147.263 263.768 145.553C264.09 144.064 263.804 141.531 262.337 140.488ZM262.459 142.906C262.577 143.603 262.824 144.637 262.64 145.242C262.144 146.976 260.872 144.968 260.615 144.294C260.357 143.621 260.239 142.923 260.342 142.26C260.481 142.237 260.597 142.074 260.632 141.853C260.711 141.051 261.618 141.327 261.968 141.698C262.236 142.012 262.331 142.569 262.459 142.906Z"
      fill="#251C1C"
    />
  </g>
  <defs>
    <clipPath id="clip0_6656_88">
      <rect width="924" height="167" fill="white" />
    </clipPath>
  </defs>
</svg>
