<svg
  width="288"
  height="296"
  viewBox="0 0 288 296"
  fill="none"
  xmlns="http://www.w3.org/2000/svg"
>
  <path
    d="M53.3963 186.297C55.4735 184.077 52.0502 180.698 50.071 182.971C49.0815 184.104 48.1276 185.254 47.2004 186.413C45.774 185.022 44.3209 183.658 42.8945 182.285C41.8425 181.269 39.8367 182.642 40.7817 183.916C42.1367 185.735 43.474 187.598 44.8558 189.426C43.6701 191.004 42.5201 192.6 41.4146 194.267C40.5855 195.515 42.3417 196.602 43.3581 195.764C44.6864 194.668 45.9612 193.545 47.2093 192.395C47.9047 193.233 48.6179 194.062 49.3579 194.855C51.2389 196.879 54.056 193.928 52.3444 191.869C51.6757 191.057 50.9715 190.282 50.2494 189.506C51.3102 188.463 52.3622 187.393 53.3963 186.297Z"
    fill="#00AB2E"
  />
  <path
    d="M176.949 46.7258C175.906 45.7452 174.818 44.8091 173.704 43.9176C174.533 43.0796 175.344 42.2238 176.129 41.359C177.885 39.4066 175.139 36.6163 173.231 38.4616C172.233 39.4245 171.261 40.4318 170.316 41.4571C168.372 40.1733 166.34 39.0322 164.209 38.0694C162.738 37.4097 161.695 39.2462 162.961 40.209C164.646 41.4928 166.277 42.83 167.873 44.2029C166.795 45.4599 165.751 46.7258 164.744 48.0096C163.532 49.5519 165.377 51.4775 166.91 50.1759C168.203 49.0883 169.487 47.9472 170.753 46.7793C171.814 47.7689 172.857 48.7763 173.864 49.8282C175.816 51.8608 179.008 48.6604 176.949 46.7258Z"
    fill="#ED1B23"
  />
  <path
    d="M279.168 212.936C273.623 195.873 248.696 202.461 236.715 207.417C228.451 210.841 220.828 215.851 214.543 222.243C207.723 229.188 202.553 237.104 194.395 242.542C195.171 239.324 195.831 236.07 196.357 232.79C196.401 232.486 196.455 232.174 196.499 231.871C197.123 230.053 197.596 228.1 197.328 226.487C198.398 219.132 199.129 211.349 197.979 204.27C200.77 204.128 203.551 203.985 206.341 203.825C206.35 203.86 206.359 203.887 206.368 203.923C206.564 204.698 207.67 204.493 207.723 203.753C210.942 203.566 212.84 203.379 214.08 203.183C216.077 203.593 218.261 203.076 220.258 202.8C222.237 202.523 224.243 202.238 226.195 201.774C226.347 201.819 226.516 201.855 226.694 201.846C238.302 201.641 249.534 198.859 261.017 197.602C261.686 197.531 262.336 197.076 262.301 196.318C261.418 177.276 260.553 158.26 259.421 139.254C268.042 139.637 274.158 131.935 274.202 123.242C274.256 112.794 265.617 100.91 255.811 97.5673C255.614 97.496 255.427 97.4871 255.258 97.496C254.277 83.0449 253.412 69.6456 253.368 67.1584C253.341 67.0068 253.314 66.8552 253.297 66.7037C253.047 66.3828 252.869 65.9905 252.869 65.4734C252.869 64.9029 252.842 64.359 252.824 63.7974C252.815 63.735 252.806 63.6816 252.797 63.6191C252.806 63.6281 252.815 63.628 252.824 63.6369C252.788 62.5939 252.717 61.542 252.61 60.4989C252.494 60.4543 252.378 60.4186 252.262 60.4097C250.586 50.4874 248.268 37.8014 246.191 31.6144C245.05 28.2178 244.078 24.7677 240.486 23.2967C235.752 21.3533 228.968 22.4677 223.993 22.4944C209.791 22.5657 218.305 23.1363 204.139 24.1437C175.727 26.1584 147.467 29.8582 119.207 33.3707C91.0798 36.8653 62.9086 40.1014 34.5947 41.51C34.4253 41.6437 34.2381 41.7686 34.0241 41.8666C33.8636 41.9736 33.6853 42.0627 33.4981 42.1251C32.874 42.3302 32.2411 42.5174 31.6081 42.6868C31.3763 42.7848 31.1446 42.8651 30.9128 42.9186C30.9039 42.9186 30.8949 42.9186 30.886 42.9186C30.8771 42.9186 30.8682 42.9275 30.8593 42.9275C31.0198 42.9186 31.1713 42.9186 31.3318 42.9097C28.4611 44.5767 26.5712 47.8931 25.644 51.3789C25.1715 54.3208 25.0467 57.343 24.6723 60.4097C25.2874 69.3871 25.8758 78.3734 26.4196 87.3597C26.4731 87.3686 26.5266 87.3775 26.589 87.3775C27.0258 94.4649 27.7212 101.534 28.2294 108.613C13.8139 113.73 7.99242 146.377 26.9635 147.964C27.8906 148.044 28.7643 148.026 29.5755 147.955C29.522 148.525 29.5844 149.123 29.6647 149.72C29.4507 151.726 29.6647 153.821 29.8608 155.773C30.5651 172.159 31.1891 188.545 31.6795 204.921C31.7062 205.902 32.4818 206.695 33.4714 206.713C48.3059 207.043 63.1404 207.221 77.9838 207.257C75.9244 228.065 80.7029 248.72 91.2047 266.747C86.0518 266.934 81.0327 269.207 78.8039 273.977C73.874 284.487 84.5898 293.367 94.0218 294.606C105.629 296.13 113.421 290.309 117.343 279.762C122.737 265.249 124.279 248.792 125.438 233.36C125.902 233.476 126.365 233.529 126.838 233.529C129.494 234.412 132.24 235.063 135.022 235.437C133.301 250.61 143.99 263.68 159.253 265.088C159.449 265.106 159.6 265.079 159.752 265.035C160.634 268.458 161.651 271.801 162.721 274.975C166.073 284.933 173.73 294.312 185.249 293.777C194.797 293.331 203.266 285.165 201.465 275.26C200.181 268.226 194.199 263.831 187.558 262.984C187.78 262.485 187.977 261.977 188.191 261.469C188.494 261.888 188.975 262.191 189.644 262.2C211.254 262.601 233.728 259.401 253.742 250.949C268.033 244.905 284.882 230.525 279.168 212.936ZM87.5317 203.245C87.5763 203.174 87.6119 203.085 87.6208 202.969C88.129 189.445 87.5406 175.707 86.5421 161.987C103.16 161.265 119.786 160.462 136.404 159.589C137.206 172.64 138.026 185.692 138.882 198.743C138.962 199.947 140.834 199.956 140.763 198.743C139.925 185.656 139.051 172.578 138.16 159.5C159.146 158.394 180.122 157.199 201.099 155.978C201.26 157.895 201.411 159.821 201.581 161.737C202.695 174.45 202.936 187.992 205.602 200.571C166.251 202.095 126.9 203.014 87.5317 203.245ZM151.131 111.608C145.737 112.188 140.335 112.776 134.941 113.356C134.005 100.144 133.06 86.9229 132.107 73.7109C138.989 73.0868 145.871 72.4717 152.762 71.9101C167.018 70.7422 181.281 69.7169 195.545 68.763C196.134 81.4401 196.856 94.0994 197.64 106.768C182.128 108.337 166.625 109.941 151.131 111.608ZM197.81 109.549C197.997 112.482 198.175 115.406 198.363 118.339C199.12 130.036 199.932 141.723 200.877 153.402C179.909 154.525 158.941 155.684 137.973 156.923C137.036 143.283 136.083 129.652 135.12 116.021C141.325 115.335 147.529 114.657 153.743 114.006C168.426 112.455 183.118 110.975 197.81 109.549ZM133.64 113.498C116.719 115.326 99.7987 117.198 82.8959 119.24C81.7459 105.751 80.3641 92.2986 78.7505 78.8726C96.2773 77.1431 113.795 75.378 131.331 73.7822C132.098 87.0209 132.864 100.26 133.64 113.498ZM133.8 116.164C134.603 129.786 135.405 143.408 136.243 157.021C119.626 158.011 103.017 159.063 86.4084 160.204C85.4634 147.598 84.2153 135.01 83.199 122.636C83.1812 122.395 83.1544 122.155 83.1366 121.914C100.022 119.997 116.907 118.036 133.8 116.164ZM259.546 192.423C258.752 196.773 254.322 195.382 250.453 195.641C242.946 196.158 235.369 196.675 227.96 198.021C227.8 197.959 227.621 197.932 227.425 197.923V197.896C224.76 198.173 222.13 198.69 219.455 198.93C217.155 199.144 214.837 198.957 212.742 199.991C212.609 200.054 212.511 200.143 212.413 200.223C211.271 200.303 209.8 200.384 207.83 200.464C208.071 187.234 205.753 173.496 204.665 160.4C204.541 158.858 204.398 157.315 204.273 155.773C229.369 154.311 231.74 152.831 256.827 151.44C257.504 161.193 258.173 170.937 258.868 180.69C259.118 184.221 260.188 188.937 259.546 192.423ZM261.445 112.616C261.552 112.553 261.65 112.491 261.757 112.42C261.935 112.304 262.042 112.081 261.98 111.867C261.365 109.71 258.316 109.139 256.042 109.121C255.846 106.215 255.641 103.255 255.436 100.304C266.74 104.396 278.125 123.599 267.15 133.53C259.911 140.083 249.668 134.386 247.172 126.291C245.701 121.522 246.245 115.371 250.845 112.429C252.61 111.368 254.518 110.851 256.577 110.877C258.146 110.868 259.582 111.261 260.883 112.054C260.669 112.393 261.106 112.821 261.445 112.616ZM27.3914 48.2676C28.158 46.7698 29.1476 45.5753 30.2976 44.5144C29.4953 46.2796 29.8608 48.642 30.9663 50.4428C28.0422 49.8633 26.6247 51.9405 25.9471 54.5615C26.1076 52.4041 26.3572 50.2913 27.3914 48.2676ZM17.7543 138.139C15.5166 129.117 19.047 114.675 28.3542 110.984C28.4523 112.446 28.5503 113.9 28.6216 115.362C28.7197 117.394 28.7375 119.445 28.7197 121.504C27.5072 121.459 26.2057 121.647 24.8238 122.155C24.708 122.199 24.7525 122.351 24.8773 122.333C34.452 121.023 38.5886 131.364 36.9304 139.049C34.764 149.114 20.0187 147.259 17.7543 138.139ZM35.1652 203.138C34.5144 187.662 33.7031 172.203 32.776 156.763C32.8384 156.602 32.8919 156.424 32.9008 156.219C32.9989 154.204 32.9632 152.18 32.7849 150.174C32.6958 149.149 32.6601 148.178 32.2767 147.357C42.4755 143.711 40.3894 125.872 31.6973 122.173C31.5547 119.864 31.4031 117.581 31.2872 115.362C30.7701 105.805 29.9232 96.2211 27.8103 86.8693C27.0882 78.1862 26.3215 69.503 25.5281 60.8288C26.3572 56.4961 26.5979 52.1545 32.1608 51.6909C32.5174 51.6642 32.6868 51.3432 32.5442 51.0223C31.1445 48.0001 30.788 45.2454 33.6408 42.9453C33.6942 42.9008 33.6942 42.8473 33.721 42.8027C87.3445 40.3421 140.335 30.9725 193.816 26.6933C206.983 25.6414 220.195 24.8301 233.407 24.6697C234.192 24.741 234.941 24.8658 235.6 25.0709C244.729 27.9682 245.772 39.415 247.359 47.483C248.875 55.2034 251.719 85.6302 253.805 109.326C249.936 110.039 246.717 112.678 245.309 116.387C241.975 125.141 246.94 136.044 255.935 138.674C256.176 142.16 256.426 145.646 256.666 149.131C231.571 150.549 229.173 151.877 204.059 153.223C203.034 141.153 201.973 129.091 200.975 117.011C200.761 114.434 200.573 111.858 200.377 109.29C204.05 108.934 207.723 108.559 211.396 108.212C221.007 107.302 230.617 106.411 240.236 105.546C240.673 105.511 241.047 105.466 241.386 105.43C241.27 104.307 241.137 103.193 240.994 102.078C240.905 102.096 240.807 102.123 240.718 102.141C240.45 102.203 240.263 102.355 240.12 102.533C239.764 102.578 239.371 102.631 238.917 102.667C229.297 103.585 219.687 104.53 210.077 105.484C206.769 105.814 203.462 106.161 200.154 106.491C199.174 93.8765 198.238 81.2529 197.328 68.6294C201.786 68.3352 206.252 68.0142 210.71 67.7379C229.939 66.5522 226.935 66.8196 246.022 64.3234C246.958 64.1986 247.02 62.8614 246.022 62.8168C226.855 61.9609 229.85 64.2967 210.71 65.518C206.199 65.8033 201.679 66.1421 197.168 66.4452C196.294 54.3297 195.412 42.2232 194.44 30.1167C194.431 30.0008 194.253 29.9919 194.253 30.1167C194.467 42.2678 194.886 54.4189 195.43 66.5611C180.755 67.5685 166.09 68.6561 151.434 69.8863C144.935 70.4302 138.445 71.0007 131.946 71.5713C131.135 60.2582 130.315 48.954 129.503 37.6409C129.494 37.4805 129.245 37.4805 129.254 37.6409C129.913 48.9718 130.564 60.3028 131.215 71.6337C113.635 73.2027 96.0633 74.9233 78.5365 76.9827C77.2438 66.356 75.8174 55.7383 74.2395 45.1384C74.2127 44.9333 73.8472 44.9779 73.874 45.1919C74.9349 55.8542 75.969 66.5165 76.9675 77.1788C63.6574 78.7656 50.3652 80.5397 37.1265 82.608C37.0195 82.6258 37.0463 82.8042 37.1533 82.7952C50.49 81.6185 63.8179 80.3169 77.1368 79.0064C78.4028 92.4858 79.6063 105.974 80.7563 119.471C67.3126 121.103 53.8866 122.868 40.4964 124.803C40.5142 125.382 40.5498 125.961 40.5766 126.541C54.056 125.15 67.5265 123.67 80.997 122.146C81.0505 122.743 81.104 123.34 81.1486 123.938C82.1649 136.071 83.0386 148.213 83.832 160.364C69.675 161.345 55.527 162.361 41.3879 163.502C41.272 163.511 41.2631 163.699 41.3879 163.69C55.5716 163.244 69.7642 162.682 83.9479 162.076C83.9746 162.522 84.0103 162.967 84.037 163.422C84.875 176.554 84.9909 189.9 86.56 202.951C86.5778 203.067 86.6224 203.156 86.6759 203.227C69.5056 203.343 52.3354 203.308 35.1652 203.138ZM136.02 235.553C137.981 235.776 139.952 235.847 141.922 235.812C141.369 244.45 148.234 251.903 156.614 253.428C156.899 253.481 157.149 253.428 157.372 253.347C157.799 256.352 158.37 259.338 159.056 262.271C145.319 260.479 135.788 249.362 136.02 235.553ZM157.033 250.673C149.143 249.211 144.908 243.247 144.115 235.714C148.51 235.384 152.852 234.376 156.908 232.593C157.149 232.486 157.3 232.317 157.416 232.139C157.487 232.076 157.559 232.014 157.621 231.951C156.391 237.96 156.337 244.325 157.033 250.673ZM177.412 248.631C176.414 253.57 183.671 255.068 187.914 255.086C187.049 257.591 186.167 260.078 185.231 262.565C185.195 262.655 185.204 262.735 185.195 262.824C183.278 262.824 181.344 263.109 179.49 263.724C177.956 264.233 178.571 266.595 180.167 266.167C191.079 263.261 204.594 272.889 197.319 284.523C191.141 294.392 177.537 292.422 170.423 285.049C164.031 278.416 161.704 266.961 159.761 258.197C157.746 249.122 157.532 240.43 158.227 231.292C158.486 230.953 158.7 230.579 158.896 230.195C159.056 230.061 159.226 229.928 159.386 229.812C161.526 228.163 163.559 226.406 165.457 224.472C165.707 224.222 165.342 223.883 165.083 224.097C163.371 225.479 161.579 226.763 159.689 227.886C159.672 227.833 159.618 227.806 159.574 227.842C159.395 227.984 159.208 228.118 159.03 228.261C158.771 228.403 158.522 228.564 158.263 228.698C156.819 229.464 155.143 229.946 153.699 230.721C144.4 233.137 135.878 233.422 126.579 230.632C124.805 229.892 122.737 229.678 120.963 228.947C118.574 227.966 116.318 226.656 114.098 225.345C114 225.292 113.92 225.417 113.982 225.497C115.739 227.583 117.78 229.25 120.107 230.668C121.007 231.22 121.988 231.853 123.013 232.388C122.862 242.783 121.899 253.044 120.045 263.288C118.538 271.641 116.906 280.761 110.666 287.028C103.534 294.187 87.9774 294.383 82.2451 285.111C78.3314 278.782 81.6033 271.57 88.5391 269.795C90.0547 269.412 91.5524 269.314 93.0501 269.394C93.3264 269.519 93.6206 269.537 93.9059 269.466C96.1614 269.68 98.408 270.223 100.628 270.749C101.528 270.963 102.045 269.76 101.252 269.261C99.2994 268.021 96.9459 267.237 94.4943 266.898C91.7218 262.396 89.3592 257.734 87.3712 252.946C89.6356 253.909 93.0055 252.884 94.2803 250.994C96.1168 248.275 94.316 245.511 91.9892 243.924C89.7961 242.427 86.6045 241.223 84.251 241.508C84.0816 241.499 83.9033 241.544 83.7339 241.606C83.7072 241.615 83.6804 241.633 83.6448 241.642C83.6091 241.66 83.5645 241.669 83.5289 241.696C83.511 241.704 83.4932 241.713 83.4843 241.713C83.0029 240.011 82.5572 238.299 82.1738 236.578C82.4591 236.739 82.7979 236.873 83.1812 236.953C84.3402 237.202 85.5526 236.997 86.7294 237.202C87.8794 237.407 89.0027 237.719 90.1705 237.853C91.8644 238.04 93.8168 238.04 95.2075 236.908C101.305 231.951 85.5882 223.545 80.0253 222.305C79.633 217.331 79.5974 212.303 79.9183 207.248C118.788 207.311 157.675 206.366 196.499 204.351C195.742 210.573 195.626 216.787 195.171 223.01C190.901 222.983 186.363 224.24 182.467 225.809C179.757 226.897 177.145 229.099 178.063 232.353C178.99 235.66 182.779 237.238 185.775 238.058C188.315 238.754 190.892 239.494 192.8 238.566C192.327 240.581 191.801 242.587 191.248 244.575C191.132 244.477 191.008 244.388 190.856 244.352C187.156 243.452 178.402 243.728 177.412 248.631ZM267.248 238.522C260.972 244.388 252.824 247.775 244.774 250.414C226.971 256.263 208.347 258.812 189.626 258.402C189.555 258.402 189.492 258.411 189.421 258.42C189.938 257.092 190.437 255.754 190.901 254.417C191.837 253.749 192.425 252.625 191.881 251.529C192.648 249.148 193.317 246.741 193.941 244.317C201.403 241.767 206.894 235.981 212.297 230.061C212.956 234.938 214.962 242.917 220.124 240.091C222.513 238.78 222.718 235.705 222.79 233.307C222.897 229.723 222.13 226.13 220.846 222.805C220.703 222.421 220.463 222.109 220.195 221.824C221.684 220.433 223.226 219.123 224.858 217.973C225.865 217.268 226.89 216.591 227.933 215.94C227.238 218.686 227.648 222.457 227.613 224.445C227.532 228.216 228.04 231.47 231.232 233.815C232.186 234.519 233.826 234.207 234.602 233.378C236.964 230.864 237.446 227.815 237.365 224.454C237.267 220.665 237.891 215.04 235.761 211.732C238.186 210.636 240.673 209.691 243.214 208.888C242.821 211.26 244.275 214.184 244.283 216.627C244.292 219.399 244.248 222.02 245.87 224.4C246.994 226.041 249.668 226.389 250.72 224.4C252.503 221.022 253.769 217.465 254.277 213.676C254.589 211.322 254.964 208.585 253.965 206.339C261.703 205.073 270.921 205.055 274.603 211.715C279.587 220.692 273.988 232.228 267.248 238.522Z"
    fill="black"
  />
  <path
    d="M65.4851 180.707C64.246 180.6 62.8196 181.572 61.7765 182.169C60.5106 182.892 59.5478 183.837 58.5404 184.871C58.2373 185.183 58.6207 185.664 58.9951 185.459C60.1808 184.808 61.4377 184.273 62.6323 183.64C63.7021 183.079 65.1553 182.767 65.9666 181.884C66.4034 181.421 66.0824 180.761 65.4851 180.707Z"
    fill="black"
  />
  <path
    d="M79.4813 178.186C76.9673 177.972 74.4533 178.73 71.966 178.908C71.4846 178.944 71.4846 179.63 71.966 179.657C74.4622 179.826 76.9673 180.593 79.4813 180.379C80.8899 180.254 80.8899 178.302 79.4813 178.186Z"
    fill="black"
  />
  <path
    d="M94.7616 181.403C92.7735 180.61 90.625 180.209 88.5033 180.021C88.1645 179.995 88.1021 180.53 88.4231 180.61C90.4913 181.091 92.2743 181.938 94.0573 183.097C95.1181 183.784 96.0542 181.92 94.7616 181.403Z"
    fill="black"
  />
  <path
    d="M110.033 184.444C108.945 183.909 107.911 184.203 106.734 184.239C105.344 184.283 103.989 184.212 102.625 183.936C102.143 183.837 101.804 184.506 102.277 184.765C103.507 185.442 104.827 186.031 106.2 186.316C107.43 186.574 108.972 186.895 110.033 186.084C110.55 185.701 110.746 184.8 110.033 184.444Z"
    fill="black"
  />
  <path
    d="M123.057 180.859C121.979 180.743 121.132 181.759 120.312 182.339C119.384 182.998 118.413 183.569 117.388 184.05C116.915 184.273 117.281 184.879 117.717 184.826C118.966 184.656 120.214 184.389 121.39 183.943C122.389 183.56 123.664 183.15 123.913 181.991C124.056 181.376 123.655 180.921 123.057 180.859Z"
    fill="black"
  />
  <path
    d="M132.436 173.603C131.652 174.236 131.179 175.208 130.626 176.037C130.074 176.866 129.396 177.677 128.71 178.399C128.344 178.783 128.701 179.478 129.245 179.318C131.357 178.667 134.112 176.759 134.041 174.272C134.014 173.389 133.06 173.104 132.436 173.603Z"
    fill="black"
  />
  <path
    d="M147.021 161.7C145.969 161.941 145.363 162.77 144.668 163.536C143.91 164.374 143.277 165.328 142.573 166.211C142.448 166.363 142.609 166.63 142.805 166.505C143.776 165.881 144.81 165.328 145.738 164.633C146.593 164 147.414 163.501 147.77 162.449C147.931 161.985 147.449 161.602 147.021 161.7Z"
    fill="black"
  />
  <path
    d="M157.862 147.963C157.728 147.125 156.587 146.964 156.052 147.49C155.125 148.4 154.973 149.924 154.376 151.065C153.752 152.26 153.003 153.356 152.272 154.48C152.031 154.845 152.486 155.211 152.825 155.032C154.162 154.346 155.268 153.312 156.168 152.108C157.068 150.914 158.102 149.514 157.862 147.963Z"
    fill="black"
  />
  <path
    d="M159.511 137.693C159.181 137.061 158.165 137.061 157.835 137.693C157.273 138.754 157.523 139.815 157.657 140.956C157.79 142.097 157.951 143.203 158.183 144.326C158.281 144.808 159.047 144.808 159.145 144.326C159.377 143.203 159.538 142.097 159.671 140.956C159.823 139.806 160.064 138.754 159.511 137.693Z"
    fill="black"
  />
  <path
    d="M157.122 132.416C156.248 130.963 155.25 129.76 153.877 128.752C152.718 127.897 150.98 126.747 149.482 127.264C149.027 127.424 148.724 127.959 149.018 128.414C149.74 129.546 151.176 129.929 152.308 130.562C153.645 131.311 154.991 132.176 156.168 133.156C156.667 133.584 157.496 133.049 157.122 132.416Z"
    fill="black"
  />
  <path
    d="M146.352 124.838C145.104 124.285 143.83 123.563 142.474 123.314C141.387 123.117 139.987 122.734 139.167 123.635C138.926 123.902 138.908 124.303 139.167 124.562C139.925 125.337 140.977 125.097 141.984 125.186C143.339 125.311 144.641 125.373 145.925 125.863C146.504 126.095 146.932 125.097 146.352 124.838Z"
    fill="black"
  />
  <path
    d="M130.974 124.188C128.407 124.883 124.672 126.22 123.521 128.841C123.272 129.412 123.816 130.143 124.44 129.76C125.527 129.109 126.294 128.128 127.257 127.317C128.443 126.318 129.762 125.605 131.215 125.088C131.786 124.892 131.563 124.027 130.974 124.188Z"
    fill="black"
  />
  <path
    d="M122.808 133.896C121.596 135.332 119.911 138.104 121.061 139.994C121.337 140.449 122.068 140.377 122.202 139.843C122.416 139.013 122.211 138.122 122.3 137.266C122.416 136.152 122.728 135.251 123.396 134.351C123.655 134.012 123.084 133.575 122.808 133.896Z"
    fill="black"
  />
  <path
    d="M124.27 147.311C123.584 146.108 122.861 144.922 122.371 143.612C122.282 143.371 121.925 143.46 121.979 143.718C122.264 145.109 122.487 146.509 123.022 147.828C123.441 148.871 123.833 150.057 124.832 150.663C125.161 150.859 125.705 150.61 125.661 150.191C125.536 149.085 124.805 148.247 124.27 147.311Z"
    fill="black"
  />
  <path
    d="M133.952 154.523L129.958 152.09C129.227 151.644 128.353 152.723 129.031 153.293C130.216 154.301 131.393 155.299 132.579 156.306C133.836 157.376 135.351 155.37 133.952 154.523Z"
    fill="black"
  />
  <path
    d="M142.867 161.807C142.662 161.495 142.448 161.192 142.216 160.889C141.815 160.363 140.861 160.63 141.075 161.37C141.173 161.727 141.289 162.075 141.414 162.413C141.815 163.546 143.491 162.752 142.867 161.807Z"
    fill="black"
  />
  <path
    d="M154.421 166.773C153.253 166.265 152.067 165.891 150.846 165.534C150.043 165.302 149.553 166.461 150.275 166.88C151.372 167.522 152.459 168.12 153.636 168.61C154.679 169.056 155.464 167.228 154.421 166.773Z"
    fill="black"
  />
  <path
    d="M167.758 167.407C166.982 166.658 166.135 167.086 165.217 167.318C164.067 167.612 162.881 167.835 161.687 167.772C161.214 167.746 161.107 168.503 161.571 168.602C163.166 168.94 167.178 170.26 167.945 168.12C168.034 167.888 167.936 167.576 167.758 167.407Z"
    fill="black"
  />
  <path
    d="M173.873 164.626C172.687 165.428 172.001 166.739 170.521 167.149C169.772 167.354 169.986 168.379 170.699 168.442C172.509 168.611 175.264 167.452 174.987 165.259C174.925 164.76 174.39 164.278 173.873 164.626Z"
    fill="black"
  />
  <path
    d="M180.042 158.394C179.828 158.367 179.686 158.358 179.472 158.394C178.973 158.465 178.741 158.991 178.687 159.428C178.571 160.382 178.277 161.175 177.395 161.674C176.78 162.022 177.216 162.878 177.849 162.762C179.418 162.486 180.809 161.068 180.818 159.428C180.827 159 180.497 158.456 180.042 158.394Z"
    fill="black"
  />
  <path
    d="M181.005 147.705C181.014 149.265 181.397 150.843 181.656 152.376C181.745 152.947 182.708 152.947 182.806 152.376C183.056 150.843 183.448 149.265 183.457 147.705C183.457 146.127 180.996 146.127 181.005 147.705Z"
    fill="black"
  />
  <path
    d="M182.609 138.015C182.395 137.873 182.048 137.873 181.834 138.015C180.924 138.621 181.014 139.62 181.058 140.609C181.103 141.724 181.272 142.811 181.424 143.917C181.531 144.71 182.921 144.71 183.028 143.917C183.18 142.811 183.349 141.724 183.394 140.609C183.43 139.629 183.519 138.621 182.609 138.015Z"
    fill="black"
  />
  <path
    d="M182.868 127.762C182.574 127.165 181.584 127.307 181.433 127.949C181.21 128.948 181.406 129.964 181.397 130.971C181.388 132.05 181.388 133.111 181.254 134.19C181.174 134.867 182.155 134.885 182.36 134.341C183.1 132.398 183.849 129.741 182.868 127.762Z"
    fill="black"
  />
  <path
    d="M183.34 115.753C182.975 115.164 182.199 115.343 181.968 115.931C181.549 117.01 181.825 118.267 181.861 119.408C181.905 120.665 181.869 121.904 181.736 123.152C181.673 123.758 182.574 123.812 182.752 123.286C183.465 121.218 184.615 117.776 183.34 115.753Z"
    fill="black"
  />
  <path
    d="M181.389 99.3144C180.765 99.1628 180.06 99.7423 180.292 100.411C180.631 101.383 181.326 102.114 181.727 103.05C182.164 104.057 182.342 105.065 182.218 106.152C182.137 106.812 183.243 107.115 183.501 106.5C184.464 104.218 184.384 100.054 181.389 99.3144Z"
    fill="black"
  />
  <path
    d="M178.857 95.3384C177.243 94.1616 175.424 92.6907 173.41 92.343C172.768 92.2271 172.072 93.0562 172.696 93.5733C174.337 94.9373 176.61 95.4008 178.634 95.8911C178.973 95.9625 179.124 95.5256 178.857 95.3384Z"
    fill="black"
  />
  <path
    d="M161.82 52.3776L162.203 51.9942C162.23 51.9675 162.185 51.9229 162.159 51.9497C162.025 52.0834 161.9 52.2082 161.766 52.3419C161.383 52.021 160.723 51.9496 160.349 52.4935C159.324 53.9823 158.209 55.4176 157.425 57.049C157.086 57.7533 157.96 58.5467 158.557 57.9227C159.859 56.5587 160.848 54.954 161.918 53.4117C162.194 53.0105 162.078 52.6272 161.82 52.3776Z"
    fill="black"
  />
  <path
    d="M156.471 59.8039C155.473 60.5973 154.599 61.5512 153.948 62.6478C153.431 63.5304 152.789 64.7428 153.235 65.7413C153.36 66.0177 153.779 66.0355 153.975 65.8393C154.599 65.1886 154.626 64.0831 154.938 63.2451C155.366 62.0861 156.034 61.0966 156.89 60.2229C157.167 59.9466 156.765 59.5721 156.471 59.8039Z"
    fill="black"
  />
  <path
    d="M154.206 79.46C153.047 78.0425 152.156 76.2417 153.19 74.4944C153.413 74.1199 152.86 73.6653 152.575 74.0219C151.086 75.903 150.89 79.362 153.404 80.4942C154.091 80.8062 154.688 80.0484 154.206 79.46Z"
    fill="black"
  />
  <path
    d="M160.982 85.0685C160.215 84.391 159.431 83.7581 158.727 83.0092C158.192 82.4476 157.291 83.1696 157.666 83.8294C158.201 84.7654 158.798 85.7282 159.556 86.5038C160.242 87.2081 161.151 88.2333 162.23 87.9837C162.533 87.9124 162.81 87.5736 162.783 87.2616C162.712 86.2275 161.695 85.6926 160.982 85.0685Z"
    fill="black"
  />
  <path
    d="M170.788 91.7628C170.378 91.0585 169.754 90.6573 169.041 90.3007C168.31 89.9352 167.597 89.6054 166.893 89.1953C166.447 88.9278 165.921 89.5697 166.322 89.9352C166.928 90.479 167.454 91.0496 168.016 91.6291C168.569 92.1907 169.148 92.6989 169.933 92.8682C170.565 93.0109 171.127 92.3512 170.788 91.7628Z"
    fill="black"
  />
  <path
    d="M252.574 32.6677C252.458 32.2754 251.879 32.3556 251.87 32.7657C251.754 37.7046 252.111 42.8486 252.931 47.725C253.154 49.089 255.489 48.7859 255.365 47.3952C254.901 42.4741 253.938 37.4104 252.574 32.6677Z"
    fill="black"
  />
  <path
    d="M257.861 35.4558C257.682 34.8496 256.8 35.1081 256.925 35.7144C258.289 42.5432 257.522 49.3364 258.182 56.1653C258.315 57.5471 260.553 58.1444 260.829 56.5219C262.006 49.5237 259.831 42.0975 257.861 35.4558Z"
    fill="black"
  />
  <path
    d="M108.036 23.4844C105.531 21.3716 103.16 19.1072 100.69 16.9587C98.818 15.3272 96.6695 12.4209 94.0217 12.6527C93.0589 12.733 92.3279 13.5353 92.5864 14.5338C93.2729 17.1994 96.5625 18.1533 98.7913 19.4103C101.671 21.0328 104.622 22.5216 107.474 24.1887C107.92 24.4472 108.437 23.8232 108.036 23.4844Z"
    fill="black"
  />
  <path
    d="M135.958 9.63C135.842 7.17838 136.314 4.67327 136.056 2.26623C135.895 0.750686 133.444 0.0731467 133.132 1.87397C132.347 6.45626 133.577 12.7146 134.968 17.1275C135.227 17.9476 136.608 17.8496 136.537 16.9135C136.359 14.4886 136.073 12.0638 135.958 9.63Z"
    fill="black"
  />
  <path
    d="M166.768 4.57449C162.783 8.26528 158.851 11.8313 155.357 16.0213C155.062 16.3779 155.517 16.8415 155.865 16.5295C159.796 13.017 164.111 9.62039 168.854 7.28467C170.993 6.22379 168.693 2.78258 166.768 4.57449Z"
    fill="black"
  />
  <path
    d="M57.2921 292.377C50.5167 290.647 42.0653 292.609 35.1919 293.197C34.3628 293.268 34.3628 294.409 35.1919 294.481C42.0742 295.078 50.5256 297.03 57.2921 295.301C58.7363 294.944 58.7363 292.751 57.2921 292.377Z"
    fill="black"
  />
  <path
    d="M145.942 282.525C144.694 282.124 143.339 282.552 142.056 282.712C140.674 282.882 139.292 283.007 137.901 283.122C137.135 283.185 137.135 284.246 137.901 284.317C139.292 284.442 140.674 284.558 142.056 284.727C143.348 284.888 144.685 285.325 145.942 284.914C147.119 284.531 147.119 282.9 145.942 282.525Z"
    fill="black"
  />
  <path
    d="M286.335 286.136C276.796 284.629 266.963 285.28 257.344 285.369C246.913 285.467 236.563 286.011 226.15 286.51C224.777 286.573 224.777 288.579 226.15 288.641C236.563 289.131 246.913 289.684 257.344 289.782C266.963 289.871 276.805 290.522 286.335 289.015C287.753 288.784 287.753 286.368 286.335 286.136Z"
    fill="black"
  />
  <path
    d="M35.0849 260.158C24.0125 258.42 11.6563 260.737 0.468036 261.049C-0.156012 261.067 -0.156012 262.003 0.468036 262.021C11.6563 262.333 24.0214 264.651 35.0849 262.913C36.4488 262.699 36.4488 260.372 35.0849 260.158Z"
    fill="black"
  />
  <path
    d="M242.509 163.333C242.5 163.235 242.34 163.2 242.322 163.306C241.618 167.728 241.6 172.56 242.349 176.973C242.429 177.481 243.267 177.356 243.24 176.848C243.026 172.355 242.759 167.835 242.509 163.333Z"
    fill="black"
  />
  <path
    d="M239.924 179.193C236.055 178.889 232.008 179.54 228.147 179.879C227.755 179.915 227.737 180.503 228.147 180.503C232.061 180.521 236.189 180.824 240.058 180.209C240.673 180.111 240.468 179.237 239.924 179.193Z"
    fill="black"
  />
  <path
    d="M243.9 182.02C243.846 181.672 243.24 181.753 243.285 182.1C243.659 185.363 243.597 188.786 244.203 192.005C244.283 192.424 244.89 192.299 244.907 191.907C245.103 188.679 244.364 185.212 243.9 182.02Z"
    fill="black"
  />
  <path
    d="M254.036 178.23C252.806 178.042 251.603 178.452 250.381 178.622C249.044 178.809 247.707 178.925 246.369 179.13C245.959 179.192 246.102 179.772 246.459 179.807C247.885 179.95 249.311 179.906 250.747 179.825C251.915 179.763 253.109 179.834 254.17 179.317C254.616 179.103 254.536 178.31 254.036 178.23Z"
    fill="black"
  />
  <path
    d="M249.623 171.5C249.053 172.008 248.705 172.641 248.268 173.265C247.796 173.933 247.288 174.575 246.753 175.19C246.334 175.672 246.985 176.349 247.466 175.895C248.589 174.834 250.06 173.532 250.515 172.017C250.675 171.482 250.007 171.161 249.623 171.5Z"
    fill="black"
  />
  <path
    d="M239.746 175.546C238.818 174.913 237.668 174.556 236.634 174.119C236.224 173.941 235.859 174.503 236.269 174.743C237.267 175.332 238.275 176.054 239.371 176.437C239.924 176.624 240.182 175.84 239.746 175.546Z"
    fill="black"
  />
  <path
    d="M239.719 183.053C238.471 183.544 237.285 184.337 236.394 185.344C235.894 185.906 236.376 186.726 237.107 186.575C238.524 186.28 239.79 185.416 240.655 184.275C241.083 183.713 240.37 182.804 239.719 183.053Z"
    fill="black"
  />
  <path
    d="M249.882 184.738C249.186 183.748 247.876 183.267 246.779 182.875C246.521 182.785 246.28 183.169 246.503 183.347C247.394 184.042 248.295 185.014 249.365 185.406C249.73 185.54 250.105 185.059 249.882 184.738Z"
    fill="black"
  />
  <path
    d="M243.196 177.838C241.083 177.838 241.074 181.128 243.196 181.128C245.317 181.128 245.317 177.838 243.196 177.838Z"
    fill="black"
  />
</svg>
