<svg
  width="376"
  height="285"
  viewBox="0 0 376 285"
  fill="none"
  xmlns="http://www.w3.org/2000/svg"
>
  <path
    d="M140.386 210.891C138.143 210.477 135.513 211.542 133.521 212.544C132.331 213.133 131.917 214.749 132.418 215.902C132.995 217.23 134.222 217.656 135.6 217.455C136.014 217.393 136.477 217.342 137.003 217.23C137.404 217.142 137.793 217.029 138.194 216.929C139.171 216.704 140.223 216.616 141.062 216.027C142.002 215.376 142.591 214.398 142.403 213.221C142.252 212.206 141.488 211.091 140.386 210.891Z"
    fill="#ED1B23"
  />
  <path
    d="M141.15 261.278C142.09 260.965 142.866 260.176 142.892 258.911C142.929 257.069 142.654 255.29 142.052 253.549C141.326 251.457 138.995 251.469 137.931 252.747C136.39 251.77 133.947 252.321 134.135 254.626C134.886 263.558 136.928 272.353 137.718 281.297C138.106 285.695 143.931 284.755 143.869 281.272C143.881 281.285 143.906 281.285 143.919 281.297C143.305 274.708 142.679 267.83 141.15 261.278Z"
    fill="#ED1B23"
  />
  <path
    d="M250.052 248.651C249.839 243.928 242.498 243.89 242.686 248.651C242.836 252.434 243.626 256.054 244.49 259.725C245.355 263.408 245.229 267.542 246.444 271.05C247.271 273.418 250.854 274.357 252.17 271.802C255.69 264.949 250.378 255.854 250.052 248.651Z"
    fill="#00AB2E"
  />
  <path
    d="M179.71 27.4003C179.372 25.7968 177.317 24.1682 176.277 22.9655C174.649 21.0864 173.045 19.1947 171.279 17.4408C170.815 16.9773 169.963 17.3156 169.963 17.9795C169.988 21.1741 169.938 24.3561 170.051 27.5506C170.064 27.8889 170.226 28.2647 170.552 28.415C170.665 28.4651 170.79 28.4902 170.903 28.5403C171.254 29.3796 172.268 29.6177 172.907 29.1416C173.847 29.317 174.786 29.3671 175.751 29.2919C177.893 29.555 180.148 29.4298 179.71 27.4003Z"
    fill="#251C1C"
  />
  <path
    d="M260.049 42.7593C257.569 42.6591 255.101 43.0725 252.658 43.4734C251.13 43.724 249.276 43.6363 248.85 45.3776C248.75 45.4528 248.737 45.6156 248.825 45.7159C248.8 46.3422 249.15 46.931 249.789 47.119C251.155 47.4948 252.282 48.1963 253.36 48.9856C253.836 49.424 254.312 49.8625 254.788 50.301C255.815 51.228 257.206 52.7939 258.609 53.1698C261.315 53.8838 264.722 49.5493 265.123 47.1816C265.662 44.0371 262.618 42.8596 260.049 42.7593Z"
    fill="#251C1C"
  />
  <path
    d="M191.185 72.099C189.895 68.1277 185.823 65.522 181.777 67.5013C176.954 69.869 176.064 77.1476 176.941 81.7828C177.004 82.121 177.204 82.3465 177.455 82.4718C177.292 82.5846 177.204 82.8226 177.417 82.9729C180.186 84.9272 183.28 87.082 186.387 88.435C187.627 88.9737 188.554 89.3119 189.77 88.3598C191.787 86.7813 191.285 82.8727 191.448 80.6804C191.649 77.8867 192.075 74.855 191.185 72.099ZM189.832 79.0142C189.719 81.4195 190.534 86.9943 187.001 87.0694C186.5 87.082 185.811 86.7187 185.109 86.2802C185.109 86.2677 185.134 86.2677 185.134 86.2551C186.425 83.5116 187.214 80.6052 187.352 77.5735C187.414 76.0326 187.577 73.2766 185.573 72.8005C183.568 72.3245 182.541 75.1181 181.965 76.4836C181.038 78.6509 180.123 81.4821 180.725 83.8624C180.086 83.5492 179.459 83.2485 178.82 82.9479C178.808 82.8477 178.795 82.7474 178.77 82.6347C178.77 82.6222 178.783 82.6221 178.783 82.6096C178.77 82.4467 178.758 82.309 178.745 82.1586C178.833 82.0083 178.883 81.8329 178.858 81.6074C178.495 77.9869 178.545 73.6273 181.163 70.7585C183.982 67.6642 188.154 68.8669 189.469 72.7755C190.108 74.7423 189.932 76.9972 189.832 79.0142Z"
    fill="#251C1C"
  />
  <path
    d="M231.311 80.4173C230.07 76.3834 226.162 73.3642 222.266 76.1829C217.455 79.6656 215.413 88.1092 214.248 93.5713C214.035 94.586 215.626 94.8491 215.827 93.8344C216.591 89.9884 217.731 86.2677 219.435 82.7349C220.787 79.9287 224.821 71.6981 229.519 79.628C230.459 81.219 230.509 83.8373 230.622 85.6538C230.785 88.3348 231.023 96.5153 228.129 97.6928C227.54 97.9309 226.588 97.768 225.586 97.4924C226.713 95.9014 226.989 92.9825 227.252 91.3038C227.54 89.4747 227.327 82.0459 223.631 83.9877C221.99 84.8521 221.477 87.7961 220.975 89.3745C220.324 91.4416 219.71 93.5963 219.635 95.7636C218.094 95.4003 216.553 95.0746 214.962 94.8992C214.599 94.8616 214.411 95.3752 214.762 95.5381C218.282 97.079 223.393 99.2713 227.214 99.3715C228.755 99.4091 229.181 99.4091 230.108 98.219C233.127 94.3605 232.614 84.6516 231.311 80.4173Z"
    fill="#251C1C"
  />
  <path
    d="M271.975 35.6811C269.044 28.8661 261.402 25.0201 253.51 23.4416C253.51 23.166 253.46 22.8779 253.284 22.5772C246.143 10.5758 233.566 3.71063 220.036 1.41808C208.41 -0.54875 190.646 -1.80151 181.363 7.0555C176.077 6.50429 170.69 7.01792 165.466 8.72168C165.29 8.78431 165.153 8.87201 165.027 8.9597C165.015 8.97223 165.002 8.97224 164.99 8.98476C164.915 9.0474 164.864 9.13509 164.802 9.21025C164.614 9.44828 164.476 9.7239 164.514 10.0246C165.378 17.0901 165.817 24.4689 167.47 31.4092C167.094 31.334 166.693 31.4217 166.43 31.7725C158.914 41.4187 154.091 55.0488 156.408 67.2882C156.521 67.8645 156.684 68.4408 156.834 69.0045C156.834 69.017 156.859 69.0296 156.859 69.0546C156.959 69.468 157.072 69.8814 157.198 70.2948C157.21 70.3324 157.198 70.3575 157.21 70.3825C158.5 75.0052 160.555 79.3899 163.01 83.4864C165.04 86.8814 167.332 90.101 169.713 93.2454C170.402 94.1599 171.078 95.2247 171.842 96.1894C171.592 96.6278 171.354 97.1039 171.128 97.6426C168.948 97.1665 166.706 96.8659 164.376 96.7531C161.131 96.5903 157.461 96.4024 154.153 97.154C154.266 97.6802 154.391 98.2063 154.542 98.7325C155.957 98.3692 157.436 98.1437 158.926 97.9933C159.24 97.8305 159.59 97.8055 159.929 97.9433C163.486 97.7052 167.182 97.9683 170.752 98.72C170.427 99.9101 170.389 101.025 170.577 102.09C165.491 101.739 160.342 102.616 155.982 105.385C155.343 105.786 155.92 106.85 156.621 106.55C161.369 104.458 165.942 103.067 170.802 103.029C171.805 106.312 174.924 108.93 178.069 110.696C183.919 113.991 190.671 116.171 196.735 112.651C197.449 117.699 204.727 120.029 209.187 120.718C211.693 121.107 214.987 121.069 217.894 120.217C217.931 120.255 217.981 120.292 218.019 120.33C220.199 122.66 220.738 125.316 221.99 128.097C222.203 128.586 223.055 128.598 223.105 127.984C223.368 124.853 221.74 121.946 219.322 119.691C220.8 119.065 222.116 118.213 223.055 116.998C225.999 119.315 228.229 122.334 228.818 125.567C228.981 126.456 230.246 126.343 230.221 125.429C230.096 121.22 226.989 118.288 223.644 116.158C223.681 116.096 223.732 116.058 223.757 115.996C223.894 115.72 223.957 115.457 224.045 115.181C235.846 113.327 246.832 105.234 253.798 95.801C258.145 89.913 262.454 82.3213 264.96 74.4415C265.148 73.7274 265.348 73.0259 265.611 72.3368C265.624 72.3118 265.636 72.3118 265.636 72.2867C265.636 72.2742 265.624 72.2742 265.624 72.2617C267.065 66.9374 267.603 61.5381 266.664 56.4894C266.902 56.4644 267.14 56.3892 267.328 56.2639C270.911 53.8837 272.627 47.219 273.629 43.2478C274.456 39.9906 274.681 37.3848 271.975 35.6811ZM180.85 109.895C178.67 108.855 175.024 106.036 173.233 103.13C174.473 103.242 175.738 103.405 177.029 103.718C177.367 103.794 177.442 103.28 177.116 103.192C175.701 102.804 174.248 102.528 172.782 102.315C172.243 101.2 172.005 100.085 172.293 99.0833C176.202 100.048 179.885 101.501 182.904 103.267C183.067 103.368 183.242 103.092 183.08 102.979C179.872 100.624 176.44 99.0582 172.807 98.0685C173.358 97.3168 174.273 96.6404 175.738 96.1393C182.178 93.8843 188.466 102.303 193.189 108.316C193.49 108.78 193.841 109.206 194.217 109.619C194.868 110.433 195.482 111.16 196.046 111.786C191.335 114.129 185.284 111.987 180.85 109.895ZM209.538 112.588C213.296 112.087 217.756 113.415 221.464 115.833C221.188 116.246 220.775 116.597 220.099 116.835C219.359 117.511 218.495 117.962 217.53 118.225C215.138 116.547 212.344 115.457 209.901 115.306C209.575 115.281 209.488 115.745 209.813 115.82C212.106 116.321 214.261 117.261 216.115 118.639C214.474 119.015 212.707 119.065 211.079 119.002C206.682 118.827 199.416 116.647 197.211 112.3C197.236 112.25 197.248 112.2 197.248 112.15C197.286 112.074 197.286 111.974 197.273 111.886C197.386 111.886 197.499 111.849 197.587 111.786C197.825 111.799 198.05 111.724 198.2 111.548C198.363 111.536 198.526 111.486 198.651 111.398C200.769 111.724 202.961 111.31 204.715 110.007C204.74 109.982 204.765 109.957 204.802 109.932C205.754 109.682 206.719 109.444 207.684 109.243C209.538 108.867 211.467 108.542 213.371 108.441C214.461 108.454 215.539 108.466 216.628 108.479C220.036 108.416 221.527 109.907 221.126 112.926C221.627 113.741 221.79 114.417 221.765 115.006C218.006 112.839 213.885 111.16 209.513 112.137C209.187 112.187 209.225 112.638 209.538 112.588ZM268.806 48.3841L267.916 50.3008C266.989 51.3155 266.689 52.3929 267.027 53.5579C266.626 53.2823 266.087 53.2197 265.687 53.583L265.461 53.7835C264.897 54.2971 264.772 54.936 265.173 55.6125C265.21 55.6751 265.248 55.7378 265.286 55.8004C265.035 55.9507 264.86 56.2138 264.897 56.6022C265.273 60.5484 264.972 64.6073 264.171 68.6412C263.67 68.2904 263.018 68.1025 262.292 67.9146C259.51 67.2131 256.604 66.7245 253.773 66.2735C250.453 65.7348 245.492 65.0708 243.2 68.2528C241.12 71.1342 242.974 74.8674 245.367 76.8593C249.2 80.0664 254.838 81.056 259.648 82.0708C258.671 84.1629 257.619 86.2174 256.479 88.1717C256.303 87.9462 256.065 87.7583 255.777 87.633C252.533 86.3677 249.1 84.9772 245.667 84.3007C243.124 83.7996 240.556 84.4009 239.341 86.9064C236.485 92.7568 242.523 97.8681 247.346 100.198C240.869 106.55 233.002 110.521 224.358 113.853C224.634 110.684 222.028 107.84 218.921 106.813C215.413 105.648 210.841 106.086 206.531 107.151C206.895 106.124 206.481 105.021 205.391 104.433C203.625 103.468 201.62 104.307 200.142 105.397C199.603 105.798 198.977 106.274 198.438 106.813C198.426 106.813 198.401 106.825 198.388 106.825C197.587 103.718 194.83 98.6198 192.124 101.313C191.523 101.915 191.398 102.716 191.486 103.543C186.224 97.392 178.758 91.0656 174.022 93.8592C171.692 90.9153 166.205 82.5844 165.591 81.5822C163.862 78.751 162.309 75.7819 161.094 72.6876C164.288 73.79 168.585 72.5122 170.552 69.8564C172.519 67.2256 171.504 64.3818 168.936 62.7031C165.867 60.6987 162.422 58.8321 158.801 58.1431C158.901 56.8277 159.102 55.5248 159.34 54.2344C162.973 57.429 168.084 59.4835 172.92 58.8195C175.112 58.5189 176.377 56.8778 176.089 54.6729C175.738 52.0045 173.609 49.8874 171.441 48.5093C170.038 47.6199 165.328 45.3023 162.071 45.177C163.8 40.9301 166.029 36.8336 168.322 32.925C168.46 32.6995 168.472 32.474 168.422 32.261C168.698 32.1357 168.936 31.8977 168.936 31.572C168.973 25.1203 167.909 18.5433 167.082 12.1041C170.652 14.2714 174.135 16.5765 177.417 19.1446C180.975 21.9258 184.057 25.3458 187.665 28.0142C188.592 28.7032 189.92 27.5757 189.18 26.586C184.282 20.0717 176.515 14.9103 169.287 10.6635C178.419 9.02234 187.264 10.1373 195.657 14.6347C197.399 15.5617 198.651 12.7806 196.923 11.8536C193.064 9.78652 188.968 8.34586 184.771 7.5441C189.594 5.05111 195.181 3.84844 200.894 3.43503C202.071 6.66715 206.857 7.74454 209.939 8.34586C218.119 9.9494 226.463 10.8639 234.743 11.7283C235.583 11.816 236.197 11.3149 236.51 10.6509C241.608 13.6826 246.056 17.704 249.451 22.7902C246.118 22.4394 242.874 22.4645 240.068 22.8403C238.088 23.1034 238.389 26.2227 240.381 25.9346C250.24 24.544 260.951 26.9619 267.353 34.2028C263.281 33.7769 258.446 34.7039 255.138 35.4806C248.975 36.9464 242.886 39.5396 237.437 42.7467C236.785 43.135 237.387 44.0746 238.051 43.8616C245.567 41.4438 252.746 38.0363 260.738 37.3347C265.073 36.9464 270.522 36.4578 271.023 41.6943C271.211 43.8115 269.658 46.4172 268.806 48.3841Z"
    fill="#251C1C"
  />
  <path
    d="M276.022 150.358C275.909 143.868 274.005 137.028 272.139 130.94C269.996 123.949 267.428 115.343 262.48 109.781C262.442 109.731 262.392 109.718 262.342 109.706C262.229 102.076 260.901 94.0837 258.621 87.2562C258.546 87.0056 258.321 86.9805 258.145 87.0682C258.12 86.993 258.108 86.9053 258.083 86.8302C257.619 87.6069 257.156 88.3711 256.692 89.1603C257.995 93.5199 259.198 97.9046 259.836 102.502C259.887 102.828 259.899 103.141 259.937 103.467C260.087 105.308 260.187 107.163 260.287 109.017C256.993 107.689 253.072 107.463 249.614 107.826C247.046 108.102 242.285 108.716 242.461 112.174C242.624 115.318 245.73 117.786 248.424 118.763C251.405 119.84 255.953 120.793 259.273 120.492C259.348 120.517 259.411 120.555 259.486 120.567C259.912 120.617 260.162 120.517 260.538 120.316C260.651 120.254 260.688 120.166 260.763 120.091C260.688 123.824 260.5 127.557 260.074 131.278C259.26 138.344 257.895 145.271 256.091 152.099C251.368 149.456 244.816 146.011 239.379 147.526C235.783 148.529 233.103 152.387 235.119 155.97C236.159 157.812 238.126 158.801 239.955 159.678C243.237 161.282 247.321 163.862 250.904 164.564C251.405 164.664 251.856 164.652 252.282 164.576C251.23 167.621 250.115 170.652 248.912 173.659C248.599 173.346 248.223 173.045 247.735 172.807C246.131 172.018 244.152 171.905 242.473 171.179C240.406 170.289 238.452 169.199 236.297 168.523C233.491 167.633 229.971 167.12 227.29 168.723C225.248 169.938 224.571 172.043 226.024 174.022C227.941 176.628 232.576 178.545 235.47 179.672C238.727 180.938 242.072 181.627 245.542 181.702C245.304 182.228 245.091 182.754 244.853 183.28C244.791 183.355 244.741 183.443 244.716 183.543C244.703 183.593 244.678 183.643 244.666 183.694C244.515 184.032 244.365 184.383 244.202 184.733C244.102 184.946 244.114 185.134 244.164 185.297C243.35 187.903 242.423 190.484 241.383 192.964C241.346 193.064 241.321 193.164 241.296 193.265C241.296 193.29 241.296 193.302 241.283 193.327C241.283 193.34 241.271 193.34 241.271 193.352C240.707 195.044 239.893 196.647 238.928 198.15C233.829 207.446 226.087 214.173 213.321 212.946C205.241 212.169 197.161 206.907 197.073 198.038C196.948 185.961 210.19 185.66 218.821 186.7C219.184 186.738 219.347 186.249 219.009 186.086C215.977 184.671 212.394 184.107 208.949 184.433C209.2 178.307 209.363 172.293 210.741 166.268C212.294 159.453 215.288 153.452 218.082 147.113C218.42 146.336 217.33 145.597 216.792 146.311C215.301 148.278 213.96 150.483 212.783 152.826C210.528 149.969 210.44 146.148 210.365 142.591C210.352 142.102 209.576 142.089 209.501 142.565C208.862 146.888 208.636 151.661 211.718 155.068C207.672 164.276 206.03 175.35 207.509 184.621C202.61 185.46 198.176 188.204 196.159 193.064C195.144 195.52 194.981 198.075 195.445 200.518C184.145 201.658 172.845 202.723 161.545 203.888C158.776 204.176 155.97 204.427 153.151 204.665C154.091 197.95 151.31 188.943 147.614 183.418C143.054 176.565 136.577 173.296 129.762 169.237C129.574 169.124 129.374 169.437 129.549 169.575C134.899 173.672 140.937 179.008 144.72 184.583C147 187.94 148.328 191.599 149.092 195.57C149.681 198.627 149.656 201.996 150.884 204.865C149.794 204.965 148.704 205.053 147.602 205.153C144.232 205.442 140.862 205.755 137.504 206.093C137.367 206.156 137.229 206.231 137.053 206.243C136.953 206.256 136.866 206.256 136.765 206.268C136.602 206.356 136.415 206.419 136.189 206.419H134.423C131.14 206.795 127.871 207.208 124.626 207.734C124.15 207.809 123.95 208.173 123.95 208.523L123.812 208.536C123.712 208.548 123.724 208.699 123.824 208.699L123.962 208.686C123.987 208.786 124.062 208.874 124.112 208.962C123.962 209.049 123.849 209.187 123.887 209.413C125.115 215.89 126.468 222.266 127.144 228.843C127.194 229.282 127.47 229.57 127.833 229.707C127.808 229.758 127.771 229.808 127.771 229.883C127.883 232.689 128.247 235.47 128.748 238.239C128.723 238.264 128.71 238.289 128.685 238.326C128.748 238.74 128.848 239.166 128.86 239.579C128.936 239.905 129.011 240.243 129.086 240.581C129.123 240.757 129.174 240.92 129.211 241.095C129.224 241.133 129.211 241.17 129.211 241.208C129.236 241.346 129.261 241.471 129.286 241.609C129.324 241.559 129.362 241.508 129.387 241.458C129.512 242.06 129.637 242.648 129.775 243.237C129.875 243.663 129.975 244.139 130.063 244.628C122.346 241.12 115.556 238.464 109.919 231.562C108.415 229.72 107.138 227.766 106.01 225.724C108.967 227.064 112.988 226.162 115.218 223.845C117.924 221.038 114.353 217.719 111.973 216.215C110.269 215.138 108.415 214.386 106.561 213.622C105.509 213.196 102.314 212.307 101.45 211.279C101.45 210.791 101.112 210.377 100.648 210.29C100.448 209.275 100.26 208.26 100.097 207.233C99.7713 205.178 99.4581 202.999 99.1951 200.731C99.6335 201.132 100.16 201.533 100.811 201.984C105.183 205.003 111.898 206.732 116.633 203.537C130.326 194.342 107.012 183.155 99.1324 179.271C100.448 170.327 103.893 162.109 111.334 157.072C111.71 156.822 111.372 156.183 110.946 156.371C110.019 156.797 109.142 157.298 108.315 157.837C108.603 156.997 108.866 156.158 109.18 155.331C109.693 153.978 110.257 152.663 110.846 151.347C112.712 152.951 115.093 153.853 117.46 154.542C118.989 154.98 121.682 155.907 123.436 155.231C124.012 155.106 124.538 154.755 125.002 154.028C128.297 148.804 120.93 142.403 116.897 140.11C118.4 137.705 120.003 135.35 121.67 133.032C122.321 138.845 124.05 144.582 126.793 149.819C133.283 162.234 145.923 174.661 159.515 178.958C173.847 183.481 185.773 170.001 185.448 156.095C185.285 149.418 181.364 142.578 174.724 140.511C171.642 139.546 168.423 139.91 165.717 141.275C164.526 136.089 161.044 130.865 156.734 127.131C156.822 126.981 156.897 126.831 156.96 126.655C157.549 124.902 157.499 121.582 156.196 120.166C155.695 119.627 154.893 119.928 154.88 120.667C154.855 121.895 155.456 123.073 155.507 124.325C155.507 124.35 155.482 125.24 155.369 126.004C153.966 124.939 152.513 124.012 151.022 123.323C150.433 123.047 149.769 123.799 150.195 124.325C152.362 126.969 155.482 128.773 157.924 131.165C161.006 134.172 163.487 137.617 165.003 141.638C163.086 142.766 161.47 144.42 160.455 146.549C159.991 147.526 161.495 148.203 161.983 147.251C164.476 142.34 170.339 140.098 175.463 142.353C179.885 144.307 182.579 149.08 183.193 153.703C184.333 162.271 178.971 173.709 170.44 176.703C162.046 179.647 152.788 173.221 146.399 168.422C143.067 165.917 139.922 163.148 137.079 160.117C138.72 160.355 140.749 160.016 142.077 159.728C145.209 159.052 150.283 157.047 150.934 153.427C151.548 150.044 148.316 148.078 145.259 148.316C143.167 148.479 141.3 149.443 139.371 150.157C136.602 151.184 133.721 151.523 130.902 152.274C129.65 150.333 128.522 148.316 127.558 146.224C128.773 146.662 130.301 146.787 132.193 146.8C134.398 146.812 137.329 146.775 139.885 146.061C140.261 145.935 140.636 145.823 141.012 145.697C141.025 145.697 141.025 145.697 141.037 145.685V145.672C141.125 145.66 141.188 145.61 141.263 145.597C141.576 145.459 141.889 145.347 142.215 145.234C142.202 145.209 142.215 145.184 142.202 145.171C143.192 144.62 144.044 143.881 144.633 142.891C146.524 139.684 144.532 136.289 141.05 135.75C138.469 135.35 135.688 136.151 133.145 136.427C130.151 136.74 127.219 136.477 124.238 136.54C123.812 134.623 123.511 132.694 123.336 130.752C123.373 130.702 123.423 130.639 123.461 130.589C123.724 130.238 123.536 129.875 123.236 129.75C122.709 121.632 124.513 113.439 129.199 106.223C131.391 102.84 134.022 99.6459 136.916 96.6268C140.774 100.448 144.269 105.734 149.418 107.839C153.289 109.43 158.714 108.378 159.052 103.442C159.127 102.302 158.864 101.199 158.438 100.147C158.463 100.135 158.488 100.122 158.526 100.109C158.488 100.047 158.463 99.9967 158.426 99.9341C158.363 99.8339 158.35 99.7462 158.325 99.6585C158.3 99.6209 158.288 99.5708 158.275 99.5206C158.263 99.4705 158.25 99.433 158.25 99.3829C158.213 99.2576 158.162 99.1323 158.162 98.9694C158.1 99.007 158.025 99.0321 157.975 99.0822C157.611 98.3807 157.21 97.7042 156.809 97.0652C155.156 94.4094 153.402 90.7138 150.947 88.6843C149.731 87.6821 148.479 87.2687 147.263 87.2562C150.621 84.5752 154.078 82.0697 157.524 79.6769C158.864 79.013 160.217 78.349 161.232 77.3468C161.745 76.8457 161.244 76.1943 160.643 76.2068C161.069 75.3173 160.104 74.0395 159.052 74.691C149.556 80.604 138.732 88.6342 133.17 98.6813C130.965 101.124 128.936 103.717 127.232 106.536C122.709 113.99 120.93 122.571 121.507 131.065C118.5 134.322 115.869 137.893 113.564 141.676C113.439 141.851 113.339 142.027 113.226 142.215C110.745 146.336 108.666 150.696 106.962 155.181C106.486 156.421 106.01 157.749 105.547 159.102C105.81 159.152 106.085 159.215 106.348 159.277C100.786 163.887 97.9673 171.053 96.7146 178.845C96.4766 179.134 96.3763 179.547 96.5768 179.885C95.2238 189.469 96.1383 199.854 97.2909 207.509C98.719 217.017 101.625 226.488 107.927 233.929C113.151 240.093 121.544 246.557 129.85 247.346C130.138 247.371 130.389 247.296 130.614 247.183C130.965 248.662 131.429 250.102 132.155 251.192C132.719 252.044 133.508 252.608 134.41 253.009C134.398 253.046 134.373 253.071 134.373 253.109C134.385 254.024 134.423 254.926 134.46 255.828C134.623 256.379 134.748 256.942 134.811 257.544C135.6 265.424 136.377 273.303 136.991 281.208C137.016 281.208 137.041 281.208 137.053 281.208C137.404 282.624 137.905 283.852 138.695 284.503C139.647 285.292 141.538 284.917 142.603 284.866C142.728 284.866 142.854 284.854 142.979 284.841C143.33 285.004 143.743 284.979 144.056 284.791C146.9 284.666 149.756 284.503 152.6 284.353C159.603 283.99 166.594 283.551 173.584 283.075C200.531 281.271 227.428 278.665 253.986 273.692C254.612 273.579 255.151 273.065 255.063 272.364C254.951 271.462 254.813 270.56 254.688 269.658C254.725 269.67 254.75 269.671 254.788 269.671C254.763 269.533 254.725 269.407 254.7 269.27C254.612 268.956 254.587 268.643 254.537 268.33C254.525 268.33 254.512 268.33 254.512 268.33C253.698 262.542 252.658 256.792 251.405 251.08C250.829 250.04 250.416 248.925 250.24 247.685C250.153 247.108 250.178 246.532 250.228 245.956C250.103 245.417 249.977 244.878 249.839 244.34C250.027 244.164 250.165 243.964 250.328 243.776C250.416 243.876 250.528 243.939 250.654 244.014C250.817 243.538 251.005 243.074 251.243 242.623C251.23 242.648 251.205 242.686 251.192 242.711C251.217 242.674 251.243 242.623 251.268 242.586C251.443 242.248 251.631 241.922 251.831 241.596C251.781 241.596 251.731 241.609 251.681 241.596C253.397 237.537 252.558 231.712 251.105 226.513C251.205 226.488 251.305 226.488 251.405 226.438C253.673 225.348 255.928 224.271 258.208 223.218C259.473 222.629 259.536 220.951 258.296 220.299C252.959 217.493 250.804 212.394 249.727 206.87C249.764 206.882 249.777 206.907 249.814 206.92C254.136 208.711 261.841 207.634 265.461 204.69C268.994 201.821 267.466 197.061 264.434 194.48C262.43 192.776 259.912 191.761 257.343 191.235C255.89 190.947 254.399 190.822 252.921 190.784C251.794 190.759 249.739 191.273 248.537 191.06H248.524C248.399 190.96 248.261 190.884 248.111 190.847C248.148 189.444 248.261 188.041 248.474 186.663C248.737 185.009 249.175 183.268 249.739 181.489C253.71 184.896 261.691 186.174 266.601 187.502C270.009 188.417 276.987 191.26 279.505 187.038C281.785 183.23 278.39 177.906 275.634 175.413C270.773 171.016 263.62 169.224 257.506 167.157C260.112 164.038 263.144 161.482 266.476 160.029C266.827 159.879 266.626 159.34 266.263 159.465C260.388 161.57 255.089 166.406 251.243 172.181C252.483 169.011 253.635 165.804 254.7 162.572C256.016 160.442 256.492 157.123 256.98 155.181C256.98 155.156 256.98 155.143 256.98 155.118C259.323 146.8 261.027 138.306 261.778 129.675C262.229 124.501 262.342 119.277 262.154 114.078C262.154 113.965 262.154 113.852 262.167 113.739C262.204 113.301 262.242 112.875 262.304 112.462C262.342 112.186 262.329 111.91 262.292 111.635C264.259 118.112 267.716 124.263 269.646 130.802C270.097 132.343 270.46 133.884 270.798 135.437C268.656 135.6 266.576 136.778 264.835 137.93C263.307 138.945 261.327 140.185 261.402 142.265C261.44 143.417 261.878 144.244 262.555 144.871C262.593 144.908 262.63 144.946 262.668 144.971C262.793 145.084 262.931 145.184 263.081 145.271C263.169 145.334 263.257 145.384 263.344 145.434C265.937 146.9 270.472 146.449 272.878 146.374C273.128 147.739 273.379 149.105 273.679 150.458C271.399 150.333 269.032 150.721 267.353 151.297C267.178 151.36 267.215 151.598 267.391 151.61C269.52 151.823 271.625 152.011 273.73 152.475C274.845 152.725 275.972 153.176 277.099 153.427C295.402 161.131 299.687 185.072 295.465 202.736C292.934 213.321 287.41 223.005 279.643 230.622C275.959 234.23 271.788 237.274 267.328 239.855C262.317 242.749 256.943 244.202 251.631 246.357C251.23 246.52 251.393 247.096 251.806 247.071C262.618 246.532 273.792 239.529 281.459 232.301C289.928 224.308 295.678 213.71 298.221 202.372C302.643 183.23 296.956 157.185 276.022 150.358ZM245.568 185.685C245.618 185.635 245.655 185.573 245.705 185.498C245.53 186.349 245.392 187.189 245.304 188.028C245.142 189.557 245.066 191.135 245.054 192.726C244.465 192.726 243.901 192.776 243.35 192.889C244.177 190.509 244.891 188.078 245.568 185.685ZM147.89 207.271C152.55 206.757 157.198 206.181 161.783 205.73C173.171 204.615 184.546 203.374 195.933 202.234C197.286 206.506 200.506 210.277 204.427 212.382C212.369 216.629 223.769 216.002 231.186 210.916C235.959 207.634 239.053 203.036 241.333 197.963C241.659 204.702 242.761 211.392 243.25 218.119C243.25 218.145 243.262 218.157 243.262 218.182C240.582 218.996 237.675 219.51 235.069 220.099C223.481 222.717 211.68 224.433 199.854 225.561C177.267 227.728 154.617 227.54 131.955 227.64C131.103 221.615 130.514 214.775 128.096 209.125C134.698 208.761 141.3 208.035 147.89 207.271ZM241.922 245.129C238.339 245.906 234.368 246.069 231.725 246.419C218.821 248.161 205.843 249.263 192.851 250.002C180.173 250.716 167.47 251.08 154.78 251.38C151.773 251.455 148.767 251.543 145.76 251.631C143.768 251.681 141.275 251.982 138.92 251.831C138.031 244.803 136.389 236.31 133.446 229.858C169.4 230.384 205.955 229.62 240.957 220.901C242.699 228.956 243.538 236.648 241.922 244.853C241.897 244.954 241.909 245.041 241.922 245.129ZM125.039 209.313C125.866 209.275 126.681 209.212 127.507 209.175C127.608 215.288 129.349 221.602 130.188 227.665C129.863 227.665 129.537 227.665 129.211 227.665C128.309 221.464 127.144 215.226 125.039 209.313ZM133.195 249.614C132.005 248.311 131.241 244.014 130.752 241.258C130.677 241.145 130.614 241.045 130.589 240.882C130.577 240.769 130.564 240.669 130.552 240.556C130.451 239.855 130.389 239.141 130.326 238.439C130.289 238.402 130.251 238.352 130.201 238.314C129.612 235.495 129.123 232.651 128.51 229.833C128.51 229.82 128.497 229.82 128.497 229.808C130.088 229.833 131.679 229.858 133.27 229.883C133.533 236.911 135.275 244.653 136.941 251.568C135.488 251.242 134.172 250.679 133.195 249.614ZM139.196 280.582C138.193 277.939 138.068 274.581 137.63 271.775C136.665 265.649 135.964 259.473 135.287 253.309C136.853 253.798 138.695 253.836 140.473 253.773C139.634 263.231 140.812 273.379 142.277 282.774C140.448 282.536 140.098 282.937 139.196 280.582ZM182.453 280.169C170.815 281.058 159.152 281.747 147.501 282.499C146.587 282.561 145.535 282.737 144.507 282.824C143.317 273.166 142.816 263.332 141.35 253.735C142.666 253.66 143.906 253.56 144.946 253.547C161.996 253.447 179.058 253.071 196.071 252.032C211.355 251.105 227.052 250.065 242.173 247.209C242.811 255.64 243.626 264.284 244.766 272.652C244.778 272.752 244.816 272.827 244.853 272.903C224.183 276.398 203.337 278.578 182.453 280.169ZM252.633 271.562C250.629 271.938 248.624 272.276 246.607 272.615C246.607 272.564 246.632 272.527 246.632 272.477C246.469 264.158 245.104 255.151 242.974 247.071C243.914 246.883 244.866 246.72 245.793 246.532C246.545 246.369 247.221 246.144 247.835 245.868C249.915 254.349 251.518 262.893 252.633 271.562ZM244.265 244.503C245.868 236.497 245.568 228.091 242.047 220.638C243.488 220.274 244.929 219.923 246.357 219.523C248.775 225.411 250.29 231.674 250.14 238.076C250.052 241.534 247.534 243.413 244.265 244.503ZM249.601 218.633C250.077 218.495 250.353 217.932 250.315 217.468C250.303 217.393 250.303 217.318 250.29 217.255C251.405 218.971 252.796 220.475 254.487 221.69C253.134 222.366 251.794 223.055 250.441 223.732C250.416 223.744 250.391 223.769 250.366 223.794C249.764 221.99 249.138 220.324 248.562 218.934C248.912 218.821 249.263 218.733 249.601 218.633ZM246.77 216.804C246.595 216.954 246.407 217.004 246.231 217.017C245.906 217.23 245.53 217.418 245.066 217.606C245.054 217.606 245.041 217.606 245.041 217.618C244.966 217.092 244.916 216.566 244.841 216.052C244.666 215.827 244.59 215.514 244.666 215.15C244.678 215.088 244.691 215.013 244.703 214.95C243.901 208.624 243.425 202.247 242.185 195.996C242.235 195.87 242.298 195.745 242.348 195.607C242.824 195.382 243.225 195.282 243.601 195.244C243.864 195.144 244.139 195.106 244.428 195.169C247.91 195.219 248.023 200.869 248.048 203.688C248.061 207.296 249.915 214.098 246.77 216.804Z"
    fill="#251C1C"
  />
  <path
    d="M252.283 166.381C252.32 166.381 252.32 166.318 252.27 166.318L252.283 166.381Z"
    fill="#251C1C"
  />
  <path
    d="M211.781 126.631C205.73 120.869 196.071 121.645 188.492 123.186C187.828 123.324 187.464 123.725 187.339 124.188C181.526 117.048 172.694 112.375 164.927 119.278C164.852 119.353 164.902 119.503 165.015 119.453C171.154 117.01 177.405 117.423 182.666 121.72C187.452 125.629 189.356 131.154 191.436 136.728C191.912 138.019 193.653 137.292 193.39 136.039C192.701 132.845 190.997 129.199 188.655 125.905C188.792 125.905 188.918 125.917 189.081 125.892C195.996 124.401 205.179 123.337 211.58 126.957C211.768 127.07 211.943 126.782 211.781 126.631Z"
    fill="#251C1C"
  />
  <path
    d="M206.193 255.515C205.918 255.54 205.742 255.678 205.629 255.866C194.104 253.698 179.91 252.922 169.838 259.511C166.543 261.666 163.75 265.374 164.689 269.546C165.604 273.63 169.725 275.76 173.396 276.837C179.735 278.691 186.7 278.34 193.127 277.25C198.764 276.298 205.429 275.146 209.989 271.45C215.877 266.639 216.065 254.425 206.193 255.515ZM206.068 271.375C202.56 273.066 198.414 273.88 194.63 274.607C187.176 276.048 177.981 277.025 170.903 273.63C163.649 270.147 166.631 263.32 171.98 260.3C175.576 258.271 179.647 257.181 183.706 256.592C191.01 255.515 198.263 256.354 205.567 256.705C205.692 256.981 205.955 257.169 206.344 257.106C211.781 256.229 213.434 261.578 212.181 265.625C211.367 268.293 208.448 270.222 206.068 271.375Z"
    fill="#251C1C"
  />
  <path
    d="M236.347 228.83C221.201 228.53 206.131 230.659 191.11 232.326C183.806 233.14 176.465 233.866 169.124 234.255C161.445 234.668 153.678 233.816 146.036 234.393C145.134 234.455 144.908 235.708 145.823 235.984C159.428 240.168 176.089 237.474 189.958 235.959C205.417 234.267 220.775 232.338 236.36 232.275C238.577 232.275 238.577 228.868 236.347 228.83Z"
    fill="#251C1C"
  />
  <path
    d="M196.347 238.265C190.471 238.503 183.506 238.415 177.944 240.47C177.38 240.683 177.255 241.585 177.944 241.748C183.719 243.038 190.509 242.048 196.347 241.497C198.376 241.297 198.451 238.177 196.347 238.265Z"
    fill="#251C1C"
  />
  <path
    d="M211.067 243.05C202.736 244.341 194.355 245.243 185.936 245.681C178.933 246.044 171.692 245.455 164.777 246.558C164.076 246.671 164.126 247.773 164.777 247.923C172.306 249.602 180.624 248.788 188.266 248.324C196.159 247.848 203.988 246.934 211.806 245.731C213.56 245.443 212.82 242.775 211.067 243.05Z"
    fill="#251C1C"
  />
  <path
    d="M143.655 218.897C143.505 216.768 143.781 213.861 143.067 211.832C142.077 209.026 136.026 210.09 133.721 211.042C133.709 211.042 133.696 211.055 133.684 211.055C133.596 211.093 133.483 211.13 133.408 211.168C132.782 211.468 132.944 212.395 133.508 212.646C133.546 214.826 133.871 217.006 134.034 219.173C134.122 220.413 133.658 223.345 134.598 224.322C135.563 225.324 138.406 225.036 139.584 225.036C140.649 225.023 143.142 225.362 143.856 224.247C144.57 223.107 143.743 220.175 143.655 218.897ZM141.501 216.279C141.576 217.006 141.639 217.732 141.714 218.446C139.784 218.271 137.367 218.183 135.5 218.922C135.4 217.983 135.312 217.043 135.174 216.104C137.254 216.329 139.396 216.241 141.476 216.279C141.488 216.292 141.488 216.279 141.501 216.279ZM134.448 212.671C135.638 212.521 136.803 212.308 138.006 212.27C138.958 212.245 139.647 212.22 140.461 212.821C141.401 213.523 141.313 213.886 141.388 214.939C139.296 214.863 137.091 214.813 135.024 215.227C134.861 214.35 134.686 213.498 134.448 212.671ZM141.401 223.081C140.473 223.507 138.306 223.257 137.291 223.094C135.312 222.793 135.751 221.428 135.575 219.636C135.575 219.611 135.575 219.586 135.563 219.561C137.492 220.2 139.872 220.138 141.826 220.15C141.852 220.15 141.877 220.137 141.902 220.137C142.102 221.315 142.34 222.643 141.401 223.081Z"
    fill="#251C1C"
  />
  <path
    d="M155.344 219.21C154.467 218.947 153.527 219.173 152.625 219.386C152.575 218.396 152.312 217.406 152.212 216.442C152.086 215.176 152.049 213.911 151.999 212.646C153.039 212.696 154.116 212.771 155.005 212.245C155.356 212.045 155.406 211.443 155.005 211.255C153.878 210.704 152.613 211.017 151.397 211.118C150.057 211.23 148.742 211.356 147.451 211.756C147.213 211.832 147.188 212.195 147.451 212.258C148.616 212.533 149.794 212.583 150.971 212.596C150.658 214.738 150.333 217.557 151.009 219.724C150.27 219.887 149.531 220.062 148.829 220.388C148.441 220.576 148.529 221.252 148.955 221.328C150.082 221.528 151.197 221.403 152.337 221.328C153.414 221.252 154.617 221.34 155.544 220.751C156.17 220.375 156.058 219.423 155.344 219.21Z"
    fill="#251C1C"
  />
  <path
    d="M166.782 210.253C164.076 210.103 160.693 210.027 158.125 211.017C157.85 211.13 157.749 211.618 158.125 211.681C159.466 211.906 160.894 211.932 162.322 211.894C162.159 214.575 162.322 217.268 162.497 219.949C162.56 220.814 163.863 220.826 163.85 219.949C163.813 217.243 163.75 214.537 163.362 211.869C164.527 211.819 165.679 211.756 166.782 211.744C167.734 211.706 167.734 210.303 166.782 210.253Z"
    fill="#251C1C"
  />
  <path
    d="M84.4252 248.787C77.6353 247.898 70.3943 248.825 63.5417 248.95C56.5764 249.076 49.611 249.113 42.6457 249.151C28.715 249.201 14.8093 248.938 0.878655 249.151C-0.323995 249.163 -0.261357 250.842 0.878655 250.98C15.1977 252.658 29.5418 253.247 43.9485 253.498C57.09 253.723 72.0354 255.176 84.9263 252.508C87.2063 252.032 86.3419 249.051 84.4252 248.787Z"
    fill="#251C1C"
  />
  <path
    d="M78.9503 230.046C72.2981 227.641 64.1928 230.61 58.167 233.642C56.789 234.343 57.7536 236.723 59.2319 236.172C62.5266 234.932 65.9091 234.043 69.4168 233.629C72.6364 233.253 75.7558 233.391 78.9503 232.69C80.3784 232.376 80.1404 230.472 78.9503 230.046Z"
    fill="#251C1C"
  />
  <path
    d="M373.199 243.552C341.128 245.055 309.033 246.057 276.937 246.633C275.734 246.658 275.747 248.437 276.937 248.487C309.02 249.891 341.103 249.953 373.199 248.776C376.556 248.65 376.556 243.389 373.199 243.552Z"
    fill="#251C1C"
  />
  <path
    d="M326.258 223.496C321.949 224.636 317.176 224.109 312.816 223.546C311.425 223.37 311.275 225.5 312.503 225.901C317.276 227.429 321.873 227.367 326.809 227.492C329.716 227.555 329.202 222.706 326.258 223.496Z"
    fill="#251C1C"
  />
</svg>
