<svg
  width="395"
  height="326"
  viewBox="0 0 395 326"
  fill="none"
  xmlns="http://www.w3.org/2000/svg"
>
  <path
    d="M63.7382 252.631C63.4479 247.406 61.5128 241.601 55.6106 240.73C49.9988 239.956 46.709 245.761 45.1609 250.309C43.3226 255.631 43.9031 261.339 46.1285 266.467C47.2896 269.176 48.9345 271.692 50.4826 274.305C50.7728 277.981 50.289 281.755 48.0636 284.754C46.709 286.496 43.9999 288.431 42.5485 285.819C41.0004 283.013 42.4518 279.433 41.7745 276.433C40.4199 270.434 32.6793 272.756 32.2923 278.078C31.4215 287.947 40.5166 300.622 51.4501 297.429C56.1912 295.978 58.9004 291.721 59.4809 287.076C60.0615 281.948 58.3198 277.111 55.9009 272.756C54.8366 265.693 51.7404 258.34 51.2566 251.567C51.2566 251.373 51.1598 251.083 51.1598 250.889C51.2566 250.793 51.2566 250.599 51.3533 250.502C51.8371 249.438 52.9014 247.213 53.9658 246.632C57.2555 244.891 58.2231 250.986 58.3198 252.825C58.3198 256.211 63.9317 256.211 63.7382 252.631ZM48.3539 292.108C47.8701 292.108 47.3863 292.108 46.9025 292.108C48.8377 291.334 50.676 289.979 52.0306 288.334C52.7079 287.463 53.2885 286.593 53.7722 285.722C53.482 288.915 52.0307 291.818 48.3539 292.108Z"
    fill="#EF4036"
  />
  <path
    d="M94.5056 244.697C92.0867 241.988 88.1197 240.924 84.8299 242.859C83.3786 243.729 82.3142 244.987 81.5402 246.439C81.1532 246.729 80.8629 247.213 80.6694 247.696C77.8634 256.018 76.4121 264.919 76.5088 273.724C76.5088 277.498 76.2186 282.529 78.3472 285.915C80.0889 288.818 83.7656 290.076 86.7651 288.238C89.7645 286.302 91.6029 281.852 93.0543 278.755C94.6991 275.079 96.0537 271.305 97.0213 267.338C98.5694 260.178 99.924 250.599 94.5056 244.697ZM88.1196 275.853C87.4423 277.304 86.7651 278.755 85.8942 280.11C85.5072 280.884 85.0234 281.658 84.5396 282.335C83.9591 283.109 83.8623 283.787 83.0883 283.013C81.9272 282.045 82.2175 278.755 82.1207 277.498C82.024 275.562 81.9272 273.724 82.024 271.789C82.1207 266.564 82.798 261.436 83.9591 256.405C85.7975 257.469 88.7969 255.921 88.1196 253.212C87.7326 251.76 86.9586 250.696 85.7975 250.019C86.3781 248.567 87.2488 247.309 88.5067 247.406C91.6997 247.6 92.4737 253.308 92.5705 255.534C92.9575 262.403 90.9256 269.66 88.1196 275.853Z"
    fill="#EF4036"
  />
  <path
    d="M312.888 215.961C312.598 211.994 309.501 210.833 306.018 211.994C302.341 213.155 300.6 215.574 300.697 219.444C300.793 224.089 301.084 228.83 301.084 233.474C301.18 240.15 301.18 246.826 300.987 253.503C294.794 242.569 294.794 228.539 290.053 217.025C289.957 216.832 289.86 216.638 289.763 216.445C289.763 216.058 289.86 215.671 289.86 215.284C290.15 212.187 284.925 211.413 284.345 214.51C284.248 214.993 284.151 215.574 284.054 216.058C282.99 216.348 282.023 217.122 281.926 218.67C281.636 224.669 281.152 230.668 280.378 236.667C278.83 245.472 277.282 254.18 275.733 262.985C275.346 265.113 277.185 266.565 278.926 266.468C279.41 266.661 279.894 266.661 280.378 266.661C282.119 267.629 284.732 266.855 284.538 264.436C284.248 261.533 284.248 258.631 284.441 255.728C285.99 247.213 287.247 238.699 288.312 230.184C291.118 241.989 292.763 254.373 301.567 263.469C302.051 263.952 302.729 264.243 303.309 264.243C304.857 265.791 308.244 265.21 308.147 262.404C308.147 261.63 308.147 260.856 308.05 260.082C309.598 260.663 311.63 259.792 311.824 257.566C312.501 248.374 312.985 239.086 312.985 229.797C313.081 225.25 313.275 220.605 312.888 215.961Z"
    fill="#EF4036"
  />
  <path
    d="M355.847 220.702C354.879 218.96 353.524 217.315 351.686 215.961C347.719 212.961 341.914 212.187 337.656 214.896C337.269 215.09 336.979 215.38 336.689 215.574C335.334 214.606 332.819 214.8 332.044 216.928C329.916 222.831 328.464 228.926 327.787 235.215C327.207 240.247 326.723 246.246 329.142 250.89C330.013 252.535 331.27 253.793 332.722 254.663C333.593 256.115 334.56 257.469 335.624 258.727C338.914 262.597 344.236 265.113 349.364 263.468C354.685 261.727 356.911 255.921 358.749 251.18C362.523 241.408 363.684 228.829 355.847 220.702ZM335.141 246.439C334.173 243.053 333.786 239.376 333.883 236.28C333.98 233.087 334.85 227.862 336.882 223.895C337.366 223.314 337.947 222.831 338.527 222.347C341.333 220.508 345.107 220.508 348.106 221.863C349.267 222.347 350.235 223.024 351.105 223.701C352.847 227.959 351.976 234.054 350.235 237.925C348.59 241.795 346.268 246.536 342.688 249.052C341.236 250.019 339.688 250.503 338.334 250.503C336.882 249.535 335.818 248.084 335.141 246.439ZM344.333 257.663C344.333 257.856 344.429 258.05 344.526 258.243C344.139 258.147 343.655 257.953 343.171 257.76C343.559 257.76 343.945 257.76 344.333 257.663Z"
    fill="#EF4036"
  />
  <path
    d="M235.48 47.4109C233.835 45.5725 231.126 46.0563 229.965 48.0882C229.675 48.6687 229.481 49.1525 229.578 49.7331C229.191 50.1201 228.804 50.5071 228.32 50.8941C227.836 51.3779 227.256 51.765 226.675 52.152C226.385 52.3455 225.998 52.6358 225.708 52.8293C225.611 52.8293 225.611 52.8293 225.514 52.8293C225.417 52.539 225.417 52.3455 225.321 52.0552C225.127 51.0877 225.03 50.1201 224.934 49.1525C224.837 47.2174 224.837 45.2823 225.127 43.4439C225.611 39.9606 220.58 38.3158 219.709 41.9925C218.838 45.766 217.774 51.1844 215.064 54.0871C211.581 57.7639 212.742 49.9266 212.645 48.4752C212.549 45.379 208.001 44.605 207.13 47.7012C205.969 52.152 204.131 56.3125 201.325 60.086C200.938 60.5698 200.648 61.0536 200.261 61.4406L200.164 61.5374C200.164 61.4406 200.067 61.4406 200.067 61.3439C199.874 60.8601 199.68 60.473 199.583 59.9893C199.003 57.8606 199.003 55.6352 199.003 53.5066C199.003 49.8298 193.681 49.9266 193.391 53.5066C193.197 56.7963 192.327 60.086 190.972 63.0855C190.682 63.7628 189.521 66.6655 188.65 66.9557C187.392 67.246 187.392 63.9563 187.392 63.0855C187.199 59.2152 187.392 55.3449 187.973 51.4747C190.004 48.959 191.94 46.4433 193.875 43.9277C195.713 41.5087 199.293 38.219 198.132 34.7358C197.164 31.8331 193.584 30.5752 190.875 31.5428C187.586 32.7039 186.328 36.1871 185.263 39.1866C184.102 42.3796 183.328 45.766 182.748 49.0558C179.651 52.8293 176.555 56.6028 173.266 60.3763C170.943 63.0855 174.814 67.0525 177.233 64.3433C178.781 62.6017 180.232 60.8601 181.78 59.0217C181.78 60.6666 181.78 62.3114 181.877 63.8595C182.07 67.3428 183.231 71.3098 187.005 72.3741C191.166 73.5352 193.681 69.7617 195.326 66.5687C195.52 66.1817 195.713 65.6979 195.907 65.3109C197.261 67.246 199.39 68.6006 201.809 67.3428C204.421 65.9882 206.55 62.1179 208.001 59.6022C208.195 59.2152 208.388 58.9249 208.582 58.5379C210.13 60.086 212.258 60.6666 214.484 60.1828C216.903 59.699 218.838 58.0541 220.289 55.9255C220.676 56.8931 221.257 57.6671 222.128 58.1509C226.385 60.8601 232.771 54.0871 235.093 51.0877C236.448 50.1201 236.641 48.6687 235.48 47.4109Z"
    fill="#EF4036"
  />
  <path
    d="M222.322 30.8657C218.742 30.8657 218.742 36.4776 222.322 36.4776C225.902 36.4776 225.902 30.8657 222.322 30.8657Z"
    fill="#39B100"
  />
  <path
    d="M119.181 68.0199C118.987 67.4393 118.6 66.9556 118.116 66.6653C118.116 66.5685 118.116 66.4718 118.019 66.375C117.729 64.8269 116.471 64.3431 115.31 64.4399C115.117 62.408 112.698 61.4404 111.053 62.3112C110.085 60.4729 107.279 60.3761 106.118 62.3112C104.861 61.4404 103.022 61.4404 102.248 62.795C100.603 61.8275 97.894 62.5048 97.894 65.0204C97.894 66.5685 97.7005 68.0199 97.4103 69.4712C97.12 69.3745 96.8297 69.3745 96.5394 69.2777C96.7329 67.2458 97.0232 65.2139 97.2167 63.0853C97.6038 60.0858 93.4432 59.6988 91.9919 61.6339C91.2178 62.6983 90.5405 63.6658 89.7665 64.7302C88.7989 62.9885 86.2832 62.3112 85.0254 64.5366C84.5416 65.5042 83.9611 66.4718 83.4773 67.3426C83.0903 67.1491 82.6064 66.9556 82.1227 66.9556C82.1227 66.375 82.2195 65.6977 82.2195 65.1172C82.3162 62.2145 78.9297 61.7307 77.2848 63.4723C76.1237 61.9242 73.3178 62.021 72.3503 63.9561C71.1892 62.795 69.1573 62.6015 68.2865 64.5366C68.093 64.9237 67.8995 65.2139 67.706 65.601C66.7384 64.4399 64.9 63.9561 63.7389 64.8269C62.4811 63.4723 59.7719 63.5691 58.9011 65.8912C58.9011 65.988 58.8043 66.0848 58.8043 66.0848C57.8368 64.2464 55.0308 63.6658 53.9665 65.7945C53.6762 66.2783 53.4827 66.762 53.1925 67.2458C53.1925 67.1491 53.1925 67.0523 53.1925 67.0523C52.9022 64.3431 49.5157 63.1821 47.9676 65.601C47.7741 65.988 47.5805 66.2783 47.2903 66.6653C45.8389 65.6977 43.6135 65.988 42.9362 68.1166C42.2589 70.7291 41.8719 73.3415 41.8719 75.9539C41.8719 78.7599 45.6455 79.7274 47.0968 77.4053C47.1936 77.3085 47.1935 77.2118 47.2903 77.115C47.1935 80.0177 50.58 81.2755 52.4184 78.7599C53.0957 77.8891 53.6762 77.0182 54.2568 76.1474C55.1276 77.5988 57.2562 78.3728 58.6108 76.8247C58.9978 76.341 59.3849 75.8572 59.7719 75.2766C60.1589 75.4701 60.6427 75.5669 61.1265 75.5669C61.1265 75.8572 61.1265 76.2442 61.2232 76.5345C61.6103 79.3404 64.7065 80.308 66.4481 77.9858C67.0287 77.2118 67.6092 76.4377 68.0929 75.6637C68.867 76.8247 70.4151 77.2118 71.673 76.4377C72.6405 77.6955 74.866 77.7923 76.1238 76.5345C77.0914 77.502 78.7362 77.7923 80.0908 76.6312C80.1875 76.5345 80.2843 76.4377 80.3811 76.341C81.4454 77.502 83.3805 77.7923 84.5416 76.341C85.1221 76.8247 85.993 77.115 86.767 76.9215C86.4768 81.2755 86.2832 85.7263 86.1865 90.0804C85.7994 90.5642 85.5091 91.1447 85.5091 91.9188C85.0254 103.046 84.4448 114.173 83.9611 125.3C83.7675 128.88 89.2827 128.88 89.5729 125.3C89.6697 124.042 89.7664 122.687 89.8632 121.43C91.0243 121.236 92.0886 120.365 92.1854 118.72C92.1854 118.43 92.1854 118.14 92.1854 117.85C93.54 117.85 94.7978 116.882 94.7978 115.14C94.7978 109.625 94.7978 104.11 94.6043 98.595C94.701 94.2409 94.7978 89.8869 94.9913 85.6296C96.0557 83.9847 96.8297 82.2431 97.507 80.4047C98.281 80.2112 98.9584 79.8242 99.3454 79.1469C99.5389 78.7599 99.7324 78.3728 100.023 77.9858C100.119 77.9858 100.313 78.0826 100.41 78.0826C100.506 78.0826 100.603 78.1793 100.797 78.1793C105.344 79.3404 110.666 80.5015 114.826 77.7923C115.697 77.2118 116.471 76.5345 117.052 75.8572C117.632 75.5669 118.116 74.9864 118.213 74.2123C119.471 72.4707 119.858 70.2453 119.181 68.0199Z"
    fill="#39B100"
  />
  <path
    d="M156.624 70.439L152.657 70.3422C151.206 70.3422 149.851 71.6001 149.851 73.1482C150.045 79.0503 149.561 84.9525 148.11 90.6611C148.11 90.7579 148.11 90.7579 148.11 90.8546C147.045 90.9514 146.078 91.3384 145.304 92.1125C144.433 92.9833 144.046 94.5314 143.078 95.2087C141.53 96.3698 139.885 95.1119 138.918 93.5638C138.821 93.2735 138.724 92.9833 138.724 92.5962C137.95 89.5968 137.466 86.5973 137.176 83.5979C136.596 77.4055 136.692 71.213 137.757 65.1174C138.337 61.6341 132.919 60.086 132.338 63.666C132.145 64.9239 131.951 66.0849 131.854 67.3428C131.08 67.5363 130.403 68.2136 130.21 69.2779C130.21 69.5682 130.113 69.7617 130.113 70.052C129.049 77.986 129.339 85.8233 131.177 93.6606C132.532 99.466 134.757 108.271 141.433 110.012C148.884 111.948 151.98 103.627 153.915 98.2081C156.818 90.0806 159.14 81.8563 159.527 73.2449C159.527 71.6968 158.076 70.439 156.624 70.439Z"
    fill="#39B100"
  />
  <path
    d="M10.6191 144.651H2.685C-0.894999 144.651 -0.894999 150.263 2.685 150.263H10.6191C14.199 150.166 14.199 144.651 10.6191 144.651Z"
    fill="#39B100"
  />
  <path
    d="M12.071 187.03C10.9099 185.869 9.36174 186.063 8.10391 187.03C6.45904 188.288 4.52396 189.256 2.58883 189.933C1.13748 190.417 0.16991 191.868 0.653694 193.416C1.04072 194.771 2.68556 195.835 4.13691 195.351C7.03961 194.287 9.65205 192.836 12.071 190.997C13.232 190.03 13.0385 187.998 12.071 187.03Z"
    fill="#EF4036"
  />
  <path
    d="M389.422 89.79C388.068 89.016 386.423 89.4997 385.552 90.7576C384.971 91.6284 383.81 92.1122 382.746 92.0154C379.166 91.9186 379.166 97.5305 382.746 97.6273C385.842 97.7241 388.648 96.0792 390.39 93.5635C391.261 92.3057 390.68 90.4673 389.422 89.79Z"
    fill="#EF4036"
  />
  <path
    d="M392.71 132.169C392.323 130.621 390.775 129.944 389.227 130.234C388.937 130.331 388.26 130.234 387.776 130.138C387.098 129.944 386.711 129.751 386.131 129.267C384.97 128.299 383.035 129.073 382.261 130.234C381.39 131.686 382.067 133.137 383.228 134.105C385.357 135.749 388.066 136.136 390.582 135.653C392.227 135.362 393.097 133.524 392.71 132.169Z"
    fill="#39B100"
  />
  <path
    d="M390.195 170.195C388.551 168.841 386.906 167.389 385.261 166.035C384.1 165.067 382.455 164.874 381.294 166.035C380.326 167.002 380.133 169.034 381.294 170.002C382.939 171.356 384.584 172.808 386.228 174.162C387.389 175.13 389.034 175.323 390.195 174.162C391.163 173.195 391.356 171.163 390.195 170.195Z"
    fill="#EF4036"
  />
  <path
    d="M378.583 204.544C377.906 203.479 377.229 202.318 376.648 201.254C375.874 199.996 374.133 199.416 372.778 200.286C371.52 201.06 370.94 202.802 371.81 204.157L373.746 207.446C374.52 208.704 376.261 209.285 377.616 208.414C378.874 207.543 379.454 205.801 378.583 204.544Z"
    fill="#39B100"
  />
  <path
    d="M23.1978 100.627C22.7141 99.5631 22.327 98.402 21.8432 97.3377C21.2627 95.9831 19.9081 94.9188 18.36 95.4026C17.0054 95.7896 15.8443 97.4345 16.4249 98.8858C16.9087 99.9501 17.2957 101.111 17.7794 102.176C18.36 103.53 19.7146 104.594 21.2627 104.111C22.5205 103.627 23.7784 102.079 23.1978 100.627Z"
    fill="#EF4036"
  />
  <path
    d="M21.1648 222.54C19.8102 221.766 18.1653 222.25 17.2945 223.508C16.5204 224.669 15.0691 225.443 13.8113 225.54C12.2632 225.636 11.0053 226.701 11.0053 228.346C11.0053 229.797 12.2632 231.248 13.8113 231.152C17.2945 230.861 20.1972 229.216 22.1323 226.314C23.0031 225.153 22.4226 223.314 21.1648 222.54Z"
    fill="#39B100"
  />
  <path
    d="M117.825 310.492C117.341 310.008 116.567 309.621 115.89 309.718C115.212 309.718 114.438 310.008 113.954 310.492C113.471 311.072 113.18 311.75 113.18 312.427V313.782C113.18 314.459 113.471 315.233 113.954 315.717C114.438 316.2 115.212 316.587 115.89 316.491C116.567 316.491 117.341 316.2 117.825 315.717C118.309 315.136 118.599 314.459 118.599 313.782V312.427C118.599 311.75 118.309 310.976 117.825 310.492Z"
    fill="#39B100"
  />
  <path
    d="M152.659 319.49C149.079 319.49 149.079 325.102 152.659 325.102C156.239 325.102 156.239 319.49 152.659 319.49Z"
    fill="#EF4036"
  />
  <path
    d="M201.327 314.265C197.747 314.265 197.747 319.877 201.327 319.877C204.907 319.877 204.907 314.265 201.327 314.265Z"
    fill="#39B100"
  />
  <path
    d="M240.125 303.042C236.545 303.042 236.545 308.654 240.125 308.654C243.705 308.654 243.705 303.042 240.125 303.042Z"
    fill="#EF4036"
  />
  <path
    d="M267.025 289.302C263.445 289.302 263.445 294.914 267.025 294.914C270.605 294.818 270.701 289.302 267.025 289.302Z"
    fill="#39B100"
  />
  <path
    d="M154.013 4.74084L153.336 4.06354C152.852 3.57976 152.078 3.28949 151.401 3.28949C150.724 3.28949 149.853 3.57976 149.466 4.06354C148.982 4.64408 148.595 5.32138 148.692 5.99868C148.692 6.77273 148.982 7.45003 149.466 7.93381L150.143 8.6111C150.627 9.09489 151.401 9.38516 152.078 9.38516C152.756 9.38516 153.626 9.09489 154.013 8.6111C154.497 8.03056 154.884 7.35327 154.787 6.67597C154.787 5.99868 154.497 5.22462 154.013 4.74084Z"
    fill="#39B100"
  />
  <path
    d="M189.423 0C185.843 0 185.843 5.61188 189.423 5.61188C193.1 5.51513 193.1 0 189.423 0Z"
    fill="#EF4036"
  />
  <path
    d="M226.289 6.57904C222.709 6.57904 222.709 12.1909 226.289 12.1909C229.869 12.0942 229.869 6.57904 226.289 6.57904Z"
    fill="#39B100"
  />
  <path
    d="M255.897 15.0944C252.317 15.0944 252.317 20.7062 255.897 20.7062C259.477 20.7062 259.477 15.0944 255.897 15.0944Z"
    fill="#EF4036"
  />
  <path
    d="M231.03 98.0146C231.03 98.3049 230.933 98.5951 230.933 98.8854C230.546 99.1757 230.353 99.6594 230.159 100.24C227.837 110.399 226.869 120.752 227.256 131.105C227.45 134.782 232.481 134.589 232.868 131.105C233.062 129.557 233.255 128.009 233.352 126.461C234.513 126.171 235.481 125.3 235.481 123.849C235.481 118.14 235.577 112.431 235.577 106.723C235.868 103.82 236.255 100.917 236.545 98.0146C237.029 94.4346 231.417 94.4346 231.03 98.0146Z"
    fill="#39B100"
  />
  <path
    d="M232.482 79.7276C233.062 78.373 232.869 76.6314 231.514 75.8573C230.256 75.18 228.321 75.4703 227.644 76.8249C227.45 77.2119 227.257 77.6957 227.063 78.0827C226.773 78.373 226.579 78.76 226.483 79.2438C226.483 79.4373 226.386 79.5341 226.386 79.7276C226.192 80.1146 225.999 80.5984 225.805 80.9854C225.225 82.34 225.418 84.0816 226.773 84.8557C227.644 85.3395 228.514 85.3395 229.192 84.9525C230.159 84.7589 231.03 84.0817 231.32 83.0173C231.417 82.6303 231.514 82.2433 231.611 81.953C231.707 81.7595 231.707 81.566 231.804 81.3725C231.901 80.8887 232.191 80.3081 232.482 79.7276Z"
    fill="#39B100"
  />
  <path
    d="M261.509 59.9886C263.154 61.3432 264.218 62.4075 265.379 63.1816C266.25 63.7621 267.218 63.9556 268.185 64.4394C271.185 66.0843 271.862 67.8259 271.088 71.1156C270.701 72.8572 270.798 74.7923 270.701 76.6307C270.604 77.7918 270.701 79.0496 270.604 80.2107C269.346 90.2734 267.895 100.336 266.734 110.399C265.766 118.43 264.992 126.557 264.122 134.588C264.122 134.975 264.122 135.362 264.122 135.749C264.412 135.846 264.702 135.943 264.992 136.039C266.153 132.943 267.605 129.944 268.282 126.751C271.765 110.302 278.345 94.821 284.344 79.2432C286.085 74.5988 288.408 70.148 290.826 65.794C292.084 63.5686 294.019 61.1497 297.019 61.827C300.115 62.5043 300.309 65.6972 300.405 68.0194C300.502 70.9221 300.018 73.9215 299.051 76.6307C295.471 86.4999 291.407 96.1756 287.924 106.045C285.021 114.366 282.796 122.88 280.086 131.298C278.248 137.007 275.926 142.425 272.346 147.263C266.928 154.52 264.509 163.034 263.057 171.742C262.38 176.29 260.542 180.16 258.123 183.837C255.801 187.417 252.704 187.32 251.059 183.45C249.705 180.257 248.834 176.58 248.834 173.194C248.737 164.486 249.318 155.778 249.608 147.07C249.705 143.006 249.898 138.942 249.705 134.878C249.415 129.653 250.576 124.912 253.091 120.558C254.93 117.462 255.22 114.172 254.349 110.786C252.221 101.981 253.478 93.4664 256.865 85.2421C258.413 81.4686 258.606 78.2756 256.478 74.6956C252.704 67.7291 255.994 62.0205 261.509 59.9886ZM296.535 63.8589C294.89 65.1167 293.439 65.8907 292.568 67.1486C291.213 69.0837 289.956 71.1156 289.085 73.341C285.602 82.3394 282.215 91.3377 278.925 100.433C276.41 107.399 273.701 114.366 271.862 121.623C270.217 128.105 268.669 134.394 265.089 140.103C264.509 140.974 263.348 141.458 262.573 142.135C262.09 141.264 261.509 140.393 261.122 139.426C260.929 139.039 260.929 138.458 261.025 137.878C261.509 133.137 261.896 128.492 262.477 123.751C264.218 107.206 267.121 90.8539 267.992 74.2118C267.992 73.728 268.185 73.2442 268.282 72.6637C269.25 68.0194 269.153 67.8259 264.605 66.0843C263.638 65.6972 262.767 65.3102 261.799 64.9232C259.09 63.9556 257.445 64.8264 257.445 67.8259C257.445 69.5675 257.832 71.5994 258.703 73.1475C260.929 77.1145 261.412 80.7913 259.381 85.1453C255.994 92.6923 255.026 100.82 256.671 108.947C257.639 113.785 257.542 118.139 255.026 122.397C252.995 125.88 252.414 129.557 252.414 133.62C252.414 143.393 252.221 153.262 252.027 163.034C251.93 167.679 251.737 172.323 251.93 176.967C252.027 179.386 252.704 181.805 255.123 183.547C257.639 180.354 259.768 177.161 260.445 173.291C262.283 162.938 265.283 153.068 271.572 144.457C275.249 139.426 277.184 133.717 279.022 127.815C281.344 120.461 283.183 113.011 285.698 105.754C289.278 95.4983 293.245 85.4356 297.309 75.3729C298.664 71.5994 298.277 68.1161 296.535 63.8589Z"
    fill="#251C1C"
  />
  <path
    d="M128.179 264.338C125.566 266.177 123.534 267.628 121.503 268.886C120.632 269.37 119.567 269.563 118.6 269.854C118.406 268.886 118.116 267.918 118.116 266.951C117.826 260.758 121.503 256.501 125.953 253.308C133.307 248.083 137.467 240.633 141.338 232.892C147.627 220.314 155.464 208.8 164.753 198.35C169.881 192.545 175.88 187.61 183.814 186.062C186.039 185.578 188.555 185.772 190.78 186.353C196.295 187.804 198.811 192.448 196.973 197.963C194.457 205.414 190.393 211.993 185.846 218.282C177.138 230.474 165.624 239.859 154.4 249.438C148.014 254.856 143.079 260.952 140.467 268.886C139.983 270.337 139.886 272.079 140.273 273.53C140.951 276.046 142.499 276.626 145.111 276.336C150.82 275.659 154.884 271.789 159.141 268.596C164.172 264.919 168.913 260.855 173.945 256.985C174.622 256.404 175.88 256.501 176.847 256.211C176.751 257.275 176.944 258.339 176.557 259.307C175.493 262.21 174.332 265.112 173.074 267.918C172.59 268.983 171.622 270.047 170.655 270.724C163.495 275.949 156.722 281.658 148.401 285.238C143.466 287.27 138.532 287.366 133.5 286.786C130.598 286.399 126.921 281.755 126.921 278.562C127.018 274.498 127.598 270.531 127.888 266.467C127.792 266.177 127.888 265.693 128.179 264.338ZM121.406 265.403C123.051 264.338 124.405 263.758 125.566 262.79C127.114 261.532 128.469 259.984 130.114 258.727C130.694 258.243 131.759 258.243 132.533 258.049C132.63 258.823 132.92 259.597 132.726 260.371C132.436 261.629 131.952 262.79 131.565 263.951C129.92 268.692 128.759 273.53 129.824 278.658C130.404 281.561 132.146 283.496 135.145 284.077C139.596 284.948 143.853 284.173 148.014 282.335C154.787 279.336 160.979 275.465 166.494 270.434C169.01 268.209 170.945 266.08 171.526 262.694C165.43 267.048 159.625 271.595 153.529 275.562C150.82 277.304 147.627 278.465 144.434 279.142C140.177 280.013 136.306 276.143 136.887 271.789C137.758 265.693 140.177 260.178 144.047 255.534C146.95 252.05 150.723 249.341 154.11 246.342C163.108 238.311 172.59 230.764 180.234 221.185C185.942 214.122 190.49 206.478 193.973 198.157C196.102 193.029 193.877 189.255 188.458 188.288C184.781 187.61 181.395 188.675 178.202 190.416C172.493 193.609 167.559 197.963 163.495 203.188C154.787 214.412 147.046 226.12 140.757 238.891C137.854 244.697 135.145 251.083 128.566 254.179C127.114 254.856 125.857 256.211 124.792 257.469C123.051 259.597 121.309 261.726 121.406 265.403Z"
    fill="#251C1C"
  />
  <path
    d="M94.7985 108.173C94.7985 111.85 94.7985 118.623 94.7985 125.395C94.7985 126.363 94.4114 127.427 94.3147 128.395C94.0244 130.33 92.9601 131.007 91.0249 131.201C82.8974 131.685 82.7039 131.685 82.8974 123.654C83.1877 111.753 83.9617 99.8517 84.3488 87.8539C84.5423 80.1134 85.9936 80.3069 77.2855 80.3069C66.739 80.4036 56.1925 80.8874 45.5493 81.2744C43.7109 81.3712 42.7434 80.5971 42.5499 78.9523C42.0661 74.308 41.6791 69.5669 41.3888 64.8258C41.3888 64.342 42.3564 63.4712 43.0337 63.3745C48.6456 62.8907 54.3542 62.5036 59.9661 62.1166C66.1585 61.7296 72.2541 61.3426 78.4466 61.149C81.5428 61.0523 84.639 61.7296 87.7352 61.7296C96.6369 61.7296 105.442 61.6328 114.343 61.6328C115.311 61.6328 116.375 61.6328 117.343 61.6328C119.375 61.7296 120.245 62.7939 120.052 64.8258C119.568 69.2766 119.181 73.7274 118.697 78.1782C118.31 81.4679 117.827 81.855 114.537 81.7582C109.505 81.6615 104.377 81.5647 99.346 81.3712C96.9271 81.2744 95.9595 82.3388 95.8628 84.5642C95.5725 91.4339 95.1855 98.3036 94.7985 108.173ZM63.8363 78.3717C63.8363 78.275 63.8363 78.0815 63.8363 77.9847C70.8028 77.9847 77.6725 77.9847 84.639 77.9847C86.6709 77.9847 87.3482 78.7588 87.2515 80.6939C86.8644 85.7252 86.5741 90.8533 86.3806 95.8847C85.9936 106.141 85.7033 116.3 85.5098 126.557C85.5098 127.137 86.6709 128.298 87.2515 128.298C88.6061 128.298 90.7347 129.459 91.3152 127.137C91.799 125.105 92.2828 122.977 92.2828 120.945C92.6698 108.076 92.8633 95.2074 93.1536 82.4355C93.2504 79.1458 93.4439 78.8555 96.8303 78.7588C102.249 78.7588 107.667 78.8555 113.085 79.049C114.924 79.1458 115.795 78.4685 115.988 76.7269C116.375 73.3404 116.665 69.9539 116.956 66.6642C117.052 65.1161 116.375 64.6323 114.827 64.6323C108.248 64.6323 101.668 64.6323 95.0887 64.5355C89.5736 64.4388 84.0585 63.8582 78.6401 63.955C70.9963 64.0517 63.4493 64.6323 55.8056 65.0193C53.0964 65.2128 50.3872 65.3096 47.678 65.6966C46.9039 65.7934 45.6461 66.4707 45.5493 66.9544C45.1623 70.0507 44.9688 73.1469 44.872 76.2431C44.7753 77.9847 45.8396 78.5652 47.4845 78.4685C52.9996 78.275 58.418 78.3717 63.8363 78.3717Z"
    fill="#251C1C"
  />
  <path
    d="M153.432 147.166C153.432 151.423 153.336 155.293 153.432 159.164C153.626 164.485 153.916 169.807 154.303 175.129C154.497 177.934 153.529 179.483 150.82 180.353C146.079 181.998 145.982 182.095 145.111 177.16C142.596 162.744 140.274 148.327 137.855 133.91C137.758 133.233 137.661 132.556 137.468 131.975C136.403 128.202 136.307 128.008 139.79 126.557C144.918 124.428 150.143 122.59 155.368 120.751C157.593 119.977 157.883 121.429 158.27 123.073C159.431 128.589 160.689 134.104 161.947 139.619C162.237 140.78 162.818 141.941 163.205 143.102C163.398 143.005 163.689 143.005 163.882 142.909C163.398 138.361 162.818 133.813 162.334 129.169C161.947 125.589 161.85 122.106 161.56 118.526C161.463 116.784 162.237 115.526 163.979 115.139C167.365 114.172 170.849 113.301 174.332 112.43C175.686 112.043 176.557 112.43 176.751 114.075C178.009 127.331 179.363 140.49 180.621 153.649C180.815 155.971 181.008 158.39 180.911 160.712C180.911 161.486 180.041 162.55 179.266 162.937C175.299 164.679 171.139 166.13 167.172 167.969C165.14 168.936 164.269 168.646 163.302 166.614C160.592 160.518 157.593 154.519 154.69 148.52C154.303 148.133 153.916 147.843 153.432 147.166ZM173.558 115.623C171.816 115.817 170.171 116.01 168.526 116.3C164.076 117.075 163.689 117.655 164.172 122.203C164.85 128.105 165.624 134.007 166.301 139.812C166.785 143.779 167.269 147.746 167.656 151.617C167.752 152.487 166.978 153.358 166.591 154.229C166.011 153.842 165.14 153.552 164.946 152.971C163.592 150.069 162.044 147.166 161.173 144.166C159.335 138.264 157.883 132.265 156.335 126.266C156.045 125.009 155.851 123.654 154.013 123.944C149.272 124.912 144.628 126.266 140.661 129.169C140.177 129.556 139.887 130.427 139.983 131.007C141.822 142.909 143.66 154.713 145.692 166.614C146.272 170.291 147.143 174.064 148.014 178.031C149.659 177.354 151.594 177.838 151.497 175.419C151.304 168.452 151.11 161.583 150.917 154.616C150.82 150.456 150.627 146.295 150.627 142.135C150.627 141.457 151.304 140.683 151.594 140.006C152.175 140.296 152.949 140.49 153.432 141.07C154.206 142.038 154.981 143.102 155.561 144.263C158.754 150.552 161.85 156.842 164.946 163.131C165.721 164.679 166.495 165.066 168.139 164.195C170.365 163.034 172.493 161.873 174.912 161.292C177.815 160.518 178.492 158.777 178.202 156.067C177.235 147.65 176.46 139.232 175.493 130.814C174.719 125.879 174.138 120.848 173.558 115.623Z"
    fill="#251C1C"
  />
  <path
    d="M301.854 231.054C302.338 225.926 302.919 220.798 303.403 215.767C303.886 211.122 305.144 209.768 309.789 209.864C312.207 209.961 314.626 210.251 317.045 210.542C318.497 210.735 318.787 211.606 318.4 212.961C316.852 218.96 316.368 225.055 316.658 231.344C316.948 235.698 316.368 240.149 316.465 244.503C316.561 250.018 316.852 255.534 317.045 260.952C317.142 263.855 316.368 264.338 313.562 264.338C309.692 264.242 305.821 264.532 301.951 265.016C299.823 265.306 298.855 264.822 298.371 262.694C296.92 256.308 295.372 250.018 293.824 243.729C293.243 241.601 292.566 239.472 291.405 237.44C290.824 240.633 290.34 243.826 289.663 247.019C288.212 253.792 286.76 260.565 285.309 267.338C284.825 269.66 283.567 270.724 281.245 270.434C279.117 270.241 276.988 270.047 274.956 270.047C273.118 269.95 272.827 268.789 273.021 267.435C273.795 260.662 274.472 253.792 275.44 247.019C277.085 235.989 279.02 224.958 280.858 214.025C280.955 213.251 281.923 212.09 282.697 211.896C284.825 211.413 286.954 211.219 289.179 211.219C292.082 211.122 294.888 211.413 297.791 211.413C299.823 211.413 300.5 212.09 300.5 214.315C300.403 219.927 300.693 225.442 300.79 231.054C301.177 230.957 301.467 231.054 301.854 231.054ZM303.403 241.214H303.499C303.499 242.762 303.693 244.31 303.403 245.761C303.306 246.438 302.241 247.019 301.661 247.599C301.177 247.116 300.5 246.632 300.306 246.051C299.919 245.084 299.629 243.923 299.629 242.858C299.049 234.054 298.565 225.345 297.887 216.541C297.791 215.67 297.21 214.218 296.533 214.025C293.63 213.348 290.727 212.767 287.825 212.67C285.406 212.574 283.664 213.638 283.18 216.541C281.536 226.7 279.6 236.859 277.859 247.019C276.891 252.728 276.407 258.436 275.73 264.145C275.537 265.79 275.924 267.241 278.052 267.241C279.891 267.338 282.116 268.596 282.89 265.403C283.858 261.145 285.309 256.888 286.18 252.631C287.438 246.245 288.309 239.762 289.47 233.376C289.663 232.409 290.244 231.441 290.727 230.57C291.405 231.344 292.276 231.925 292.759 232.796C293.533 234.344 294.211 236.085 294.694 237.73C296.63 244.89 298.565 252.147 300.306 259.307C300.79 261.436 301.951 262.306 304.08 262.016C306.402 261.726 308.821 261.436 311.143 261.532C313.756 261.629 314.336 260.468 314.239 258.243C314.143 254.276 314.239 250.309 314.336 246.342C314.626 236.763 314.723 227.281 315.304 217.702C315.594 212.283 315.594 211.896 309.982 212.187C309.692 212.187 309.498 212.283 309.208 212.187C307.079 212.187 306.209 213.348 306.015 215.283C305.047 223.991 304.177 232.602 303.403 241.214Z"
    fill="#251C1C"
  />
  <path
    d="M54.4503 255.921C55.2243 257.372 56.0951 258.727 56.8692 260.275C58.9011 264.435 61.2232 268.499 62.8681 272.853C64.6097 277.304 64.1259 281.851 61.707 286.012C60.6427 287.85 59.6752 289.785 58.7076 291.624C55.9984 296.558 51.5476 298.881 46.1292 299.558C44.3876 299.751 42.1622 300.429 41.0011 299.655C38.3886 297.816 35.9698 295.397 34.1314 292.882C30.5514 287.947 30.2611 282.142 30.6482 276.336C30.7449 274.401 31.7125 272.466 32.3898 270.531C32.5833 269.95 33.3573 269.176 33.9379 269.079C36.4535 268.499 39.066 268.015 41.6784 267.628C43.42 267.338 43.7103 268.209 43.5168 269.95C43.2265 272.466 43.1297 275.175 43.6135 277.691C43.807 278.755 45.5487 279.626 46.613 280.594C47.4838 279.432 48.8384 278.465 49.1287 277.207C49.9027 273.821 48.9351 270.628 47.2903 267.531C45.4519 264.048 43.9038 260.371 42.646 256.695C40.9043 251.373 44.1941 244.213 49.806 240.246C50.6768 239.569 51.6443 238.988 52.6119 238.408C56.1919 236.279 59.9654 236.666 62.8681 239.569C66.1578 243.052 67.8994 247.212 67.5124 252.05C67.3189 254.856 66.4481 255.437 63.6422 255.437C60.8362 255.437 57.9335 255.437 55.1276 255.437C54.8373 255.437 54.6438 255.63 54.4503 255.921ZM59.3848 252.147C60.5459 252.147 61.6103 252.341 62.4811 252.05C63.1584 251.857 64.126 250.889 64.0292 250.309C63.6422 247.89 63.4486 245.374 62.2875 243.245C59.8686 238.601 55.9016 237.924 51.7411 241.214C50.3865 242.278 49.1287 243.439 48.1611 244.794C45.3551 248.761 44.1941 252.921 46.613 257.662C48.3546 261.145 49.806 264.822 51.2573 268.402C52.8054 272.176 53.0957 275.949 51.354 279.723C50.2897 282.045 48.4514 283.593 45.9357 283.786C43.8071 283.883 41.4849 281.851 40.7108 279.239C40.227 277.304 39.84 275.272 39.84 273.337C39.84 271.402 39.066 270.918 37.4211 271.111C35.7763 271.305 34.5184 272.079 34.1314 273.821C32.5833 281.948 33.9378 289.302 40.0335 295.397C40.8076 296.171 42.2589 296.752 43.42 296.849C51.5475 297.429 61.32 287.85 60.8362 279.626C60.4492 274.111 58.0302 269.079 55.5146 264.242C53.9665 261.145 52.1281 258.243 50.7735 255.05C49.3222 251.567 50.0962 248.18 52.4184 245.277C54.2568 242.955 56.2886 243.052 57.4497 245.761C58.4173 247.6 58.7075 249.825 59.3848 252.147Z"
    fill="#251C1C"
  />
  <path
    d="M291.986 165.841C292.469 163.035 293.243 159.261 293.921 155.391C294.985 149.489 295.856 143.49 296.92 137.588C299.726 122.881 302.532 108.174 305.628 93.5634C307.563 84.3715 308.821 74.9861 313.175 66.4716C314.82 63.1818 318.884 60.9564 322.561 61.4402C330.591 62.5045 336.977 70.5353 334.849 79.437C332.043 91.6283 330.108 104.013 327.979 116.301C327.398 119.688 327.398 123.268 327.689 126.654C328.463 136.523 327.398 146.102 323.818 155.391C321.206 162.067 318.497 168.743 315.594 175.323C314.336 178.032 312.498 180.548 310.66 182.967C308.241 186.16 304.564 186.547 301.468 184.031C298.952 181.902 296.63 179.58 294.308 177.161C293.534 176.387 293.147 175.129 292.953 173.968C292.566 171.743 292.373 169.324 291.986 165.841ZM294.211 167.292C294.017 172.614 296.436 176.484 300.403 179.87C305.628 184.321 307.37 184.418 310.95 178.419C315.401 171.065 318.787 163.035 321.593 154.907C324.399 146.586 326.334 138.071 325.367 129.267C324.593 121.333 325.657 113.592 327.205 105.852C329.043 96.5629 330.785 87.2742 332.623 77.9856C334.365 69.471 328.463 64.7299 321.593 63.6656C320.432 63.4721 318.69 64.1494 317.723 65.0202C313.175 68.8905 312.014 74.5991 310.853 79.9207C308.337 92.2088 306.402 104.594 303.983 116.785C301.951 127.235 299.339 137.588 297.307 148.037C296.146 154.423 295.275 160.906 294.211 167.292Z"
    fill="#251C1C"
  />
  <path
    d="M33.7413 188.771C33.3543 180.256 32.9673 171.742 32.5803 163.227C32.5803 162.647 32.3867 162.066 32.29 161.486C31.3224 158.196 31.6127 157.809 34.8057 157.422C37.1279 157.131 39.5468 157.035 41.8689 156.841C43.804 156.744 44.7716 157.615 44.3846 159.647C43.9975 161.679 43.804 163.711 43.3203 165.646C41.2884 173 40.6111 180.547 40.9981 187.997C41.1916 191.48 42.4495 195.157 43.804 198.447C45.5457 202.414 50.6738 202.801 53.383 199.414C56.8662 195.06 58.5111 190.125 57.8338 184.514C57.4467 181.321 57.737 180.934 61.1235 180.643C62.7684 180.45 64.5099 180.16 66.1548 179.869C68.6705 179.386 69.1543 179.773 69.251 182.385C69.6381 190.222 67.7997 197.673 64.897 204.833C63.6391 207.832 62.0911 210.831 60.4462 213.637C58.0273 217.604 53.0927 219.249 48.4484 218.088C39.6435 215.863 36.6441 210.831 34.9992 202.123C34.2252 197.769 33.8381 193.318 33.2576 188.868C33.4511 188.868 33.6446 188.868 33.7413 188.771ZM37.1278 187.416C36.9343 195.737 36.9343 204.155 42.1592 211.315C47.2873 218.185 56.4792 217.121 59.9624 209.38C61.5105 205.994 62.8651 202.317 63.8327 198.737C64.9938 194.286 65.5743 189.642 66.2516 185.094C66.3484 184.514 65.7678 183.546 65.284 183.353C63.1554 182.482 61.0267 184.127 60.93 186.449C60.7365 191.577 59.1884 196.318 56.2857 200.382C55.2214 201.93 53.4797 203.381 51.6413 204.058C46.8035 205.703 41.0949 202.607 39.3533 197.382C38.4825 194.093 37.9019 190.706 37.1278 187.416ZM36.1603 180.934C36.644 180.934 37.1278 181.03 37.6116 181.03C37.8051 179.192 37.9986 177.354 38.2889 175.515C39.063 171.451 39.9338 167.388 40.6111 163.324C40.8046 162.163 40.7078 160.518 40.0305 159.937C39.45 159.357 37.5149 159.647 36.7408 160.228C36.0635 160.711 35.9667 162.26 35.87 163.324C35.87 165.066 36.1603 166.807 36.1603 168.646C36.1603 172.709 36.1603 176.87 36.1603 180.934Z"
    fill="#251C1C"
  />
  <path
    d="M336.497 172.323C337.368 165.55 338.625 158.293 339.206 151.133C339.883 142.618 339.98 134.104 340.27 125.492C340.561 118.332 340.56 111.076 341.044 103.916C341.722 95.014 342.786 86.1124 343.753 77.114C344.237 72.5664 344.528 68.0189 345.398 63.5681C345.689 62.2135 347.14 60.3751 348.495 59.9881C349.559 59.6011 351.784 60.5686 352.558 61.6329C355.848 66.4708 358.848 71.3086 357.686 77.7913C356.719 82.9194 357.106 88.241 356.719 93.4659C356.332 98.4972 355.655 103.529 355.171 108.56C354.977 110.785 354.784 113.107 354.59 115.333C353.913 120.945 353.042 126.557 352.365 132.169C351.688 137.393 351.107 142.521 350.526 147.746C349.656 155.487 348.978 163.227 348.011 170.968C347.624 174.354 346.946 177.644 346.172 180.934C345.785 182.579 345.205 184.417 342.979 184.127C340.851 183.837 338.625 183.256 338.142 180.74C337.271 178.225 336.98 175.516 336.497 172.323ZM339.012 171.936C339.399 174.548 339.496 176.967 340.077 179.192C340.27 180.063 341.431 180.644 342.205 181.418C342.786 180.644 343.657 179.966 343.753 179.192C345.108 170.097 346.559 161.002 347.624 151.81C348.398 145.908 347.914 139.812 349.365 134.2C352.171 123.073 351.881 111.559 353.719 100.239C354.88 92.9821 354.01 85.5318 355.074 78.2751C355.848 72.9535 353.719 68.8897 351.591 64.6324C351.107 63.7616 349.849 63.1811 348.978 62.5038C348.495 63.4713 347.72 64.5356 347.624 65.5032C346.172 77.2108 344.721 89.0151 343.657 100.819C342.979 108.463 342.302 116.204 342.592 123.847C342.979 133.039 342.496 142.134 341.528 151.23C340.851 158.293 339.883 165.259 339.012 171.936Z"
    fill="#251C1C"
  />
  <path
    d="M195.521 277.885C188.748 277.788 183.427 271.596 183.814 263.855C184.491 250.986 189.135 239.763 198.037 230.474C202.294 226.12 207.519 223.121 213.615 221.863C219.226 220.605 225.225 223.411 227.741 228.442C228.805 230.571 228.902 232.603 226.967 234.441C219.807 240.924 212.066 246.439 203.455 250.599C198.424 253.018 196.779 257.953 195.424 262.984C194.941 264.823 196.682 265.597 197.94 265.113C199.972 264.242 201.907 262.984 203.455 261.533C204.906 260.082 205.874 258.05 207.035 256.308C208.293 254.373 210.131 253.502 212.453 253.792C214.098 253.986 215.84 253.986 217.485 254.179C219.323 254.276 220 255.244 219.033 256.889C214.485 265.21 208.583 272.273 200.069 276.724C198.811 277.401 197.069 277.498 195.521 277.885ZM215.743 257.759C212.26 255.824 210.131 256.308 208.099 259.501C205.874 262.984 203.455 266.177 199.391 267.629C196.972 268.499 194.747 267.725 193.392 266.177C192.522 265.21 192.425 262.984 192.909 261.533C193.779 258.824 195.521 256.405 196.392 253.696C197.359 250.696 199.682 249.632 202.101 248.471C209.841 244.794 217.001 240.053 223.581 234.538C227.257 231.442 225.903 228.539 222.806 226.217C221.355 225.152 219.226 224.475 217.388 224.378C210.131 223.991 204.423 227.475 199.778 232.409C191.361 241.408 186.523 252.148 186.716 264.532C186.813 272.176 191.554 277.208 198.811 274.402C206.455 271.305 211.389 264.823 215.743 257.759Z"
    fill="#251C1C"
  />
  <path
    d="M160.784 74.5983C160.3 86.2091 158.075 97.2394 150.915 106.818C150.335 107.592 149.754 108.56 149.077 109.237C144.916 113.107 142.207 113.785 137.756 110.592C132.241 106.722 129.435 101.593 128.661 95.2075C127.5 85.3383 127.016 75.4691 128.855 65.6C129.242 63.5681 130.112 62.6005 132.241 62.794C133.983 62.8908 135.821 62.6005 137.563 62.407C139.788 62.2135 140.852 63.2778 140.562 65.4065C140.078 69.6637 139.401 73.921 138.917 78.2751C138.53 81.4681 138.24 84.661 138.046 87.854C137.95 88.6281 138.046 89.4989 138.433 90.0794C139.498 91.6275 140.852 92.8853 142.11 94.3367C142.981 93.0789 144.336 91.9178 144.723 90.5632C145.69 87.1767 146.367 83.6935 146.948 80.2102C147.529 76.6302 147.819 73.0502 148.303 69.3735C148.593 67.5351 149.754 67.1481 151.496 67.6319C153.527 68.2124 155.559 68.8897 157.688 69.0832C160.3 69.3735 161.171 70.6313 160.978 73.0502C160.687 73.4373 160.784 74.0178 160.784 74.5983ZM130.016 80.9843C130.499 85.5318 130.79 90.4664 131.467 95.401C132.047 99.368 133.402 103.045 136.595 105.947C142.207 111.076 144.723 111.076 149.077 104.786C155.463 95.6913 158.269 85.5318 158.365 74.5016C158.365 72.5664 157.591 71.7924 155.85 71.3086C150.528 69.8573 150.141 70.1475 149.851 75.6627C149.851 75.9529 149.851 76.34 149.851 76.6302C149.464 82.9194 148.786 89.1118 145.497 94.7237C144.336 96.7556 142.594 97.5297 140.659 96.2718C139.111 95.3043 137.272 93.8529 136.789 92.208C135.918 89.3053 135.531 86.1124 135.724 83.0162C136.015 78.3718 137.079 73.8243 137.659 69.18C138.24 65.3097 136.692 63.9551 133.112 65.6C132.048 66.0838 131.177 67.9221 130.983 69.18C130.403 73.147 130.306 76.8237 130.016 80.9843Z"
    fill="#251C1C"
  />
  <path
    d="M199.487 62.2136C200.648 60.9557 202.003 59.8914 202.777 58.5368C204.809 55.0536 206.647 51.3768 208.486 47.7968C208.776 47.313 208.873 46.6357 209.356 46.2487C209.743 45.8617 210.421 45.6682 211.001 45.4747C211.195 46.0552 211.679 46.7325 211.582 47.2163C211.292 48.6676 210.614 50.119 210.421 51.6671C210.227 53.5055 210.518 55.4406 210.614 57.279C210.905 57.3757 211.098 57.4725 211.388 57.5692C212.259 56.8919 213.42 56.4082 214.001 55.4406C216.129 52.0541 218.161 48.5709 220.193 45.0876C220.774 44.1201 221.161 43.1525 221.935 42.2817C222.322 41.8947 223.096 41.8947 223.676 41.7012C223.87 42.2817 224.257 42.959 224.063 43.4428C223.483 45.2812 222.515 47.0228 222.128 48.9579C221.741 50.893 222.032 52.8282 222.032 54.7633C223.386 53.699 224.934 52.7314 226.192 51.5703C227.063 50.6995 227.643 49.5384 228.417 48.4741C228.804 47.9903 229.385 47.7968 229.869 47.5066C230.159 48.0871 230.643 48.6676 230.643 49.2482C230.643 49.9255 230.256 50.6995 229.772 51.2801C228.321 53.0217 226.869 54.8601 225.321 56.5049C222.419 59.4076 220.58 58.9238 218.452 54.473C217.484 55.6341 216.613 56.6984 215.646 57.7628C212.162 61.5363 209.937 61.3428 207.421 56.5049C206.647 57.7628 205.97 58.8271 205.196 59.7947C204.325 60.9557 203.551 62.1168 202.487 63.0844C199.39 65.9871 198.133 65.7936 195.617 62.4071C194.262 64.0519 193.005 65.6968 191.65 67.3417C191.263 67.8254 190.973 68.3092 190.489 68.6963C188.65 70.3411 186.715 72.2763 184.006 71.4054C181.2 70.5346 180.716 67.7287 180.426 65.213C180.329 64.5357 180.233 63.9552 180.039 62.9876C178.975 63.5682 178.298 64.1487 177.427 64.439C176.846 64.6325 176.072 64.3422 175.395 64.2455C175.588 63.6649 175.685 62.9876 176.072 62.5038C176.556 61.9233 177.233 61.5363 177.814 61.0525C179.652 59.2141 180.813 57.279 181.2 54.473C182.168 47.0228 185.264 40.5401 190.876 35.412C191.65 34.7347 192.714 34.1541 193.779 34.0574C196.294 33.8639 197.649 35.8958 196.294 38.4114C193.585 43.5395 190.586 48.5709 187.586 53.6022C186.619 55.2471 185.167 56.6017 183.909 58.1498C182.265 60.1817 182.168 66.0838 183.909 68.019C184.393 68.5995 186.135 68.793 186.619 68.3092C191.069 64.9227 194.359 60.5687 196.004 55.1503C196.488 53.6022 197.068 51.9574 197.939 50.506C198.326 49.8287 199.39 49.6352 200.165 49.2482C200.358 50.119 201.035 51.0865 200.745 51.9574C200.358 53.5055 199.294 54.8601 198.907 56.4082C198.423 58.1498 198.326 59.9882 198.036 61.8265C198.616 61.8265 199.003 62.0201 199.487 62.2136ZM184.2 53.5055C187.973 48.4741 192.231 43.6363 193.972 37.1536C189.715 38.0244 184.296 47.1195 184.2 53.5055Z"
    fill="#251C1C"
  />
  <path
    d="M113.083 180.257C113.083 193.319 108.826 203.092 101.085 211.219C97.0215 215.477 91.6031 215.477 86.3783 213.929C80.9599 212.284 77.5734 208.413 76.0253 202.705C72.8323 191.094 72.6388 179.58 75.5415 167.872C76.8961 162.454 78.928 157.423 82.3145 152.972C83.282 151.714 85.1204 151.133 86.5718 150.263C86.9588 150.069 87.4426 150.166 87.8296 149.972C94.9896 147.747 102.73 150.456 106.31 157.036C110.374 164.776 113.18 173 113.083 180.257ZM110.471 180.935C109.89 172.033 107.665 162.357 100.214 154.52C97.3118 151.521 92.861 150.746 89.0874 152.488C88.6037 152.682 87.9264 153.069 87.4426 152.875C85.6042 152.295 84.8302 153.456 83.9594 154.617C77.4767 164.002 76.0253 174.645 76.2188 185.579C76.3156 190.9 77.4767 196.319 78.6377 201.544C79.7988 206.769 83.0885 210.445 88.3134 211.606C92.6675 212.574 97.1182 211.993 100.214 208.317C106.407 200.963 110.277 192.352 110.471 180.935Z"
    fill="#251C1C"
  />
  <path
    d="M109.89 19.0603C108.149 22.2533 106.601 24.8657 105.246 27.5749C102.634 32.7997 102.15 32.8965 98.0862 28.8327C96.0543 26.8008 94.0224 24.6722 91.9905 22.5435C91.8938 22.4468 91.7003 22.4468 91.1197 22.35C89.4749 25.7365 87.7333 29.2197 86.0884 32.703C85.3143 34.3478 84.4435 36.0895 83.6695 37.7343C83.0889 38.9922 82.1213 39.2824 80.8635 38.7019C78.7349 37.7343 76.6062 36.67 74.3808 35.6057C73.897 35.3154 73.4133 35.0251 72.5425 34.5414C71.3814 38.1214 70.2203 41.5078 69.2527 44.8943C67.8014 49.9257 67.6078 50.1192 62.77 48.0873C61.2219 47.41 59.7706 46.4424 58.2225 45.6684C58.029 45.8619 57.8354 45.9586 57.6419 46.1522C57.7387 47.8938 57.8355 49.6354 58.029 51.377C58.2225 53.3121 58.5127 55.1505 58.6095 57.0857C58.6095 57.6662 57.9322 58.3435 57.6419 59.0208C57.2549 58.4402 56.5776 57.8597 56.4808 57.2792C56.0938 53.2154 55.7068 49.2484 55.5133 45.1846C55.4165 43.5397 56.2874 42.9592 57.7387 43.5397C59.6738 44.3138 61.609 45.3781 63.5441 46.2489C65.7695 47.2165 66.0597 47.1197 66.8338 44.8943C68.0916 41.3143 69.3495 37.7343 70.6073 34.2511C71.4781 31.9289 72.1554 31.7354 74.2841 32.9932C75.9289 33.9608 77.5738 34.9284 79.3154 35.8959C80.9603 36.7668 82.1214 36.4765 82.8954 34.5414C83.9598 31.9289 85.3143 29.3165 86.5722 26.8008C87.6365 24.5754 88.7975 22.4468 89.8619 20.2214C90.6359 18.5765 91.797 19.0603 92.7646 19.9311C94.4094 21.576 95.9575 23.4143 97.6024 25.156C98.4732 26.1235 99.344 26.9943 100.215 27.8651C101.182 28.9295 101.956 28.8327 102.731 27.5749C104.375 24.5754 106.02 21.6727 107.665 18.77C108.826 16.6414 109.794 16.3511 111.729 17.996C113.567 19.5441 115.406 21.0922 117.051 22.8338C117.438 23.2208 117.244 24.2852 117.244 25.0592C116.663 24.9624 115.793 24.9624 115.406 24.5754C113.567 22.8338 111.922 21.0922 109.89 19.0603Z"
    fill="#251C1C"
  />
  <path
    d="M243.898 253.889C245.446 252.051 247.381 250.406 248.542 248.374C251.155 243.73 255.606 242.859 260.153 242.181C262.088 241.891 262.088 243.536 261.508 244.6C259.863 247.503 258.411 250.696 256.089 253.115C251.929 257.372 247.284 261.243 242.64 265.113C241.576 265.984 240.124 266.467 238.77 267.048C236.351 267.919 234.319 267.241 232.674 265.306C229.868 261.92 229.481 258.146 230.836 254.083C234.029 244.6 238.286 235.602 242.93 226.7C246.22 220.411 251.348 219.927 256.96 219.347C259.379 219.057 260.153 220.315 258.992 222.443C255.702 228.442 252.219 234.344 248.929 240.343C246.994 243.826 245.156 247.31 243.317 250.89C242.93 251.664 243.027 252.728 242.93 253.599C243.124 253.599 243.511 253.696 243.898 253.889ZM256.186 222.443C252.122 221.669 247.865 223.024 246.22 226.023C242.543 232.796 239.06 239.666 235.77 246.632C234.222 250.019 233.351 253.696 232.577 257.276C232.094 259.888 232.868 262.694 235.287 264.242C237.512 265.597 239.641 264.145 241.382 262.887C245.156 259.985 248.929 256.889 252.413 253.599C254.638 251.47 256.38 248.858 258.605 246.149C257.347 245.955 256.863 245.858 256.476 245.858C253.864 246.052 252.219 247.697 250.574 249.535C248.736 251.664 246.801 253.889 244.769 255.921C243.317 257.372 241.963 256.985 240.802 255.34C239.254 253.212 239.931 251.083 241.092 249.148C243.898 244.31 246.897 239.666 249.703 234.731C252.026 230.667 254.057 226.604 256.186 222.443Z"
    fill="#251C1C"
  />
  <path
    d="M322.949 240.536C324.11 233.666 324.884 226.796 326.529 220.12C327.98 214.025 333.205 211.315 338.623 209.187C343.268 207.348 347.622 208.606 351.976 210.058C352.75 210.348 353.621 210.735 354.201 211.219C359.329 216.056 364.07 221.185 364.748 228.828C365.812 240.439 362.619 250.502 354.491 258.92C344.719 268.982 330.496 263.854 326.142 253.695C324.4 249.438 323.336 245.18 323.529 240.633C323.336 240.536 323.142 240.536 322.949 240.536ZM325.658 240.923C325.755 245.664 327.109 249.825 329.238 253.888C333.302 261.822 343.945 265.402 352.072 257.565C360.684 249.147 364.07 238.891 361.748 226.893C360.2 218.475 354.104 211.896 345.783 210.251C342.687 209.671 339.301 209.574 337.269 212.863C337.075 213.154 336.591 213.444 336.204 213.541C331.56 214.025 329.625 217.411 328.851 221.185C327.4 227.667 326.625 234.343 325.658 240.923Z"
    fill="#251C1C"
  />
  <path
    d="M73.9942 273.143C74.1877 264.048 75.4455 255.243 78.9288 246.825C81.5412 240.633 87.0563 237.537 92.8617 239.085C95.7644 239.859 97.6028 241.697 99.0541 244.31C103.505 252.05 103.311 260.275 101.57 268.692C100.118 276.046 96.345 282.238 91.1201 287.463C86.9596 291.72 81.5412 292.107 76.8969 288.431C75.8326 287.56 75.1553 285.915 74.9618 284.56C74.478 280.787 74.2845 276.917 73.9942 273.143ZM76.9936 274.014C77.0904 275.852 77.2839 278.271 77.4774 280.69C77.5742 281.561 77.8645 282.335 78.058 283.109C79.3158 287.173 82.412 288.721 86.379 287.076C87.6369 286.592 88.8947 285.818 89.7655 284.851C94.8936 279.239 98.5704 272.95 99.4412 264.919C100.215 257.952 99.538 251.47 96.2482 245.277C94.5066 241.988 91.9909 240.923 88.5077 241.697C84.3472 242.665 82.412 245.761 80.9607 249.244C77.7677 257.082 77.3807 265.209 76.9936 274.014Z"
    fill="#251C1C"
  />
  <path
    d="M186.523 129.556C186.716 121.815 189.135 113.688 195.231 106.625C196.972 104.593 199.004 103.915 201.326 104.98C204.519 106.334 208.196 107.399 210.808 109.624C215.84 113.978 219.613 119.397 219.13 126.653C218.646 134.394 216.033 141.651 212.357 148.327C207.616 156.938 196.876 157.035 191.554 148.907C187.974 143.586 186.523 137.49 186.523 129.556ZM216.517 126.363C216.42 125.589 216.42 124.912 216.324 124.234C214.969 116.881 210.615 111.85 203.745 108.947C199.875 107.302 196.779 108.27 194.36 111.753C193.683 112.72 193.102 113.785 192.618 114.849C187.684 125.879 187.587 136.813 193.876 147.456C197.553 153.648 205.777 154.132 209.744 147.649C213.711 141.167 215.84 133.91 216.517 126.363Z"
    fill="#251C1C"
  />
  <path
    d="M230.16 93.7565C230.353 93.7565 230.547 93.7565 230.644 93.7565C235.095 93.8533 234.804 93.95 234.707 98.4008C234.611 106.141 235.095 113.785 235.191 121.526C235.191 125.202 234.998 128.976 234.611 132.653C234.417 134.878 233.159 135.942 230.547 135.652C225.032 135.072 225.225 135.168 224.935 129.75C224.451 120.461 223.58 111.173 222.903 101.884C222.806 100.046 222.516 98.2073 222.613 96.3689C222.613 95.6916 223.58 94.7241 224.258 94.5306C226.096 94.0468 228.031 93.8533 229.966 93.563C230.16 93.6597 230.16 93.6597 230.16 93.7565ZM232.772 106.819C232.482 106.819 232.289 106.819 231.998 106.819C231.998 105.754 231.998 104.593 231.998 103.529C231.998 102.465 231.805 101.304 231.805 100.239C231.805 96.8527 230.257 95.6916 226.967 96.756C226.386 96.9495 225.516 98.0138 225.612 98.6911C225.709 102.852 226.096 106.915 226.386 111.076C226.773 117.365 227.161 123.751 227.548 130.04C227.644 131.782 228.322 132.653 230.063 132.846C231.998 133.04 232.289 131.685 232.676 130.427C232.869 129.75 232.869 128.879 232.869 128.202C232.772 120.945 232.772 113.882 232.772 106.819Z"
    fill="#251C1C"
  />
  <path
    d="M34.4195 148.424C34.4195 148.908 34.4195 148.812 34.4195 148.618C34.7098 146.78 34.3227 143.974 35.3871 143.2C37.2254 141.942 39.9346 141.845 42.3535 141.555C43.9017 141.361 44.7725 142.135 44.4822 143.877C44.2887 145.038 44.2887 146.199 44.1919 147.457C43.5147 152.198 41.0957 153.94 36.2579 152.972C33.9357 152.488 34.226 150.843 34.4195 148.424ZM40.7087 144.748C37.6125 145.425 37.419 147.07 37.7092 148.908C37.806 149.392 38.3865 150.069 38.6768 150.069C39.2573 150.069 40.1281 149.586 40.2249 149.199C40.6119 147.844 40.6119 146.489 40.7087 144.748Z"
    fill="#251C1C"
  />
  <path
    d="M112.018 308.362C110.664 310.587 108.729 311.168 106.6 310.103C100.794 307.104 95.9566 302.847 91.3123 298.299C90.7317 297.719 91.2155 296.074 91.2155 294.913C92.0864 295.203 93.0539 295.3 93.6345 295.88C97.3112 298.88 100.698 302.266 104.471 304.975C106.6 306.524 109.406 307.201 112.018 308.362Z"
    fill="#251C1C"
  />
  <path
    d="M264.414 204.736C264.51 207.832 258.898 214.218 255.802 214.508C252.996 214.799 251.545 213.057 252.125 210.348C252.319 209.187 252.126 207.929 252.222 206.768C252.222 206.284 252.416 205.51 252.803 205.316C255.028 204.059 257.254 202.704 259.672 201.833C261.995 200.962 264.317 202.607 264.414 204.736ZM261.511 204.929C261.317 204.736 261.317 204.639 261.221 204.639C258.415 204.059 254.157 208.413 254.931 211.025C255.028 211.412 256.48 211.702 256.867 211.509C259.189 209.767 261.027 207.735 261.511 204.929Z"
    fill="#251C1C"
  />
  <path
    d="M172.88 318.716C168.526 319.2 164.171 319.683 159.914 320.07C159.334 320.167 158.366 319.78 158.269 319.393C158.076 318.813 158.269 317.652 158.656 317.458C159.624 316.877 160.785 316.49 161.946 316.394C169.106 316.103 176.266 315.91 183.426 315.91C184.007 315.91 184.684 316.877 185.264 317.458C184.587 318.039 184.007 319.103 183.233 319.2C179.749 319.393 176.266 319.296 172.88 319.296C172.976 319.103 172.976 318.909 172.88 318.716Z"
    fill="#251C1C"
  />
  <path
    d="M222.128 82.4366C222.128 82.1463 222.128 81.7593 222.128 81.469C221.838 75.6636 223.193 75.2766 228.998 75.8571C229.675 75.9539 230.836 77.2117 230.836 77.889C230.643 80.7917 230.353 83.7912 229.772 86.5971C229.095 89.6933 226.676 88.7257 224.644 88.5322C222.709 88.3387 221.838 87.2744 222.032 85.3393C222.128 84.3717 222.128 83.4041 222.128 82.4366ZM228.031 81.1787C228.224 81.082 228.321 80.8885 228.514 80.7917C227.934 80.0176 227.353 78.663 226.676 78.4695C224.838 78.0825 224.838 79.8241 224.741 80.9852C224.644 81.9528 224.644 83.0171 224.838 83.9847C225.031 84.662 225.805 85.1457 226.289 85.6295C226.773 85.049 227.45 84.5652 227.74 83.8879C227.934 83.0171 227.837 82.0495 228.031 81.1787Z"
    fill="#251C1C"
  />
  <path
    d="M143.27 320.457C137.174 319.296 131.563 318.232 125.854 317.071C125.08 316.878 124.209 316.394 123.822 315.813C123.532 315.329 123.532 314.362 123.822 313.685C123.919 313.298 124.79 313.007 125.273 313.104C131.176 314.265 137.174 315.523 143.077 316.781C143.754 316.974 144.528 317.265 145.108 317.748C145.399 318.039 145.302 319.006 145.012 319.296C144.528 319.877 143.754 320.167 143.27 320.457Z"
    fill="#251C1C"
  />
  <path
    d="M341.237 47.5074C341.237 44.2177 345.688 40.2507 348.977 40.4442C351.88 40.6377 354.106 44.2177 352.848 46.7334C351.493 49.5393 349.364 51.4744 346.075 51.8615C343.075 52.2485 341.14 50.4101 341.237 47.5074ZM346.075 50.1199C347.623 48.7653 349.171 47.7977 350.138 46.5399C350.525 45.9593 350.138 44.2177 349.558 43.7339C349.074 43.2501 347.623 43.6372 346.752 44.0242C345.978 44.3145 345.107 44.9918 344.623 45.6691C344.14 46.3463 343.559 47.4107 343.753 47.9912C343.946 48.6685 345.01 49.249 346.075 50.1199Z"
    fill="#251C1C"
  />
  <path
    d="M210.904 313.49C210.71 313.297 210.033 313.006 209.936 312.619C209.839 312.039 210.033 311.168 210.42 310.781C210.904 310.297 211.774 310.104 212.452 309.91C217.773 308.362 223.192 306.814 228.513 305.363C229.191 305.169 229.965 305.459 230.739 305.459C230.545 306.233 230.449 307.008 230.061 307.685C229.771 308.169 229.191 308.459 228.61 308.652C223.095 310.2 217.483 311.749 211.968 313.2C211.774 313.393 211.581 313.393 210.904 313.49Z"
    fill="#251C1C"
  />
  <path
    d="M259.575 289.979C259.188 290.463 258.994 290.947 258.607 291.237C254.93 293.753 251.254 296.268 247.48 298.687C246.9 299.074 245.835 298.881 245.061 298.978C245.351 298.107 245.448 296.946 246.029 296.462C249.512 293.849 253.092 291.334 256.769 288.915C257.253 288.625 258.027 288.431 258.607 288.625C259.091 288.721 259.284 289.495 259.575 289.979Z"
    fill="#251C1C"
  />
  <path
    d="M0.362122 168.549C1.5232 167.969 2.58752 167.195 3.7486 166.711C6.84482 165.647 9.94104 164.776 13.134 164.002C13.6178 163.905 14.3919 164.776 14.9724 165.163C14.3919 165.743 13.9081 166.518 13.134 166.808C10.3281 167.775 7.52211 168.549 4.71617 169.323C3.36158 169.71 2.00703 169.71 0.652439 169.904C0.652439 169.42 0.555635 168.936 0.362122 168.549Z"
    fill="#251C1C"
  />
  <path
    d="M389.904 194.964C389.614 195.254 389.42 195.738 389.13 195.835C388.646 195.931 388.065 195.738 387.775 195.448C385.066 192.932 382.26 190.513 379.648 187.901C379.164 187.417 379.357 186.449 379.164 185.675C379.744 185.675 380.615 185.385 381.002 185.675C383.808 188.191 386.517 190.9 389.227 193.512C389.517 193.803 389.71 194.383 389.904 194.964Z"
    fill="#251C1C"
  />
  <path
    d="M274.765 23.6077C274.184 25.1558 273.894 26.1233 273.41 27.0909C271.959 29.7033 270.507 32.4125 268.959 34.9282C268.572 35.5087 267.798 35.8958 267.218 36.3795C267.024 35.7022 266.347 34.8314 266.54 34.4444C268.572 30.9612 270.798 27.4779 273.023 24.0914C273.12 23.8012 273.604 23.8979 274.765 23.6077Z"
    fill="#251C1C"
  />
  <path
    d="M9.74591 121.235C12.0681 122.686 14.3902 123.944 16.5189 125.492C16.8091 125.686 16.6156 127.234 16.2286 127.621C15.8416 128.008 14.6805 128.008 14.1 127.718C12.2616 126.75 10.4232 125.492 8.68161 124.331C8.19783 124.041 7.61726 123.073 7.81078 122.783C8.00429 122.203 8.77834 121.912 9.74591 121.235Z"
    fill="#251C1C"
  />
  <path
    d="M394.161 155.197C393.58 155.197 392.903 155.294 392.419 155.197C389.613 154.52 386.711 153.842 383.905 152.971C383.421 152.875 382.937 152.197 382.744 151.617C382.647 151.423 383.518 150.553 383.808 150.649C387.485 151.423 391.258 152.197 394.451 154.229C394.355 154.616 394.258 154.907 394.161 155.197Z"
    fill="#251C1C"
  />
  <path
    d="M326.045 29.0267C326.335 29.8007 326.819 30.478 326.722 31.1553C326.625 31.7359 326.045 32.5099 325.561 32.8002C323.722 33.671 321.691 34.3483 319.755 34.9288C319.175 35.1223 318.498 34.8321 317.917 34.8321C318.014 34.1548 317.917 33.0905 318.401 32.8969C320.433 31.7359 322.755 30.6715 326.045 29.0267Z"
    fill="#251C1C"
  />
  <path
    d="M386.809 115.526C386.422 115.333 385.455 114.849 384.487 114.268C385.551 113.688 386.519 112.914 387.583 112.72C389.228 112.333 390.97 112.333 392.615 112.333C393.195 112.333 393.873 112.817 394.453 113.107C393.969 113.688 393.485 114.559 392.905 114.752C391.26 115.236 389.422 115.236 386.809 115.526Z"
    fill="#251C1C"
  />
  <path
    d="M11.7812 206.865C12.4585 207.349 13.1358 207.833 13.8131 208.316C13.2326 208.897 12.8455 209.574 12.1682 209.864C11.1039 210.445 9.84608 210.929 8.685 211.122C8.10446 211.219 7.33037 210.542 6.65308 210.252C6.94335 209.574 7.13686 208.703 7.62064 208.413C8.78172 207.833 10.1364 207.446 11.7812 206.865Z"
    fill="#251C1C"
  />
  <path
    d="M300.79 30.1876C300.403 30.9617 300.307 31.3487 300.113 31.5422C298.662 32.7033 297.21 33.7676 295.759 34.8319C295.469 35.0254 294.791 35.1222 294.598 34.9287C294.308 34.6384 294.017 33.8644 294.114 33.6708C295.469 32.1227 296.727 30.5746 298.275 29.22C298.662 29.0265 299.92 29.8973 300.79 30.1876Z"
    fill="#251C1C"
  />
  <path
    d="M267.121 285.624C266.927 284.657 266.444 283.786 266.637 283.399C267.508 282.044 268.669 280.69 269.83 279.529C270.217 279.142 271.281 279.625 272.056 279.625C271.862 280.399 271.862 281.27 271.378 281.754C270.507 282.818 269.346 283.689 268.282 284.657C268.185 284.947 267.895 285.14 267.121 285.624Z"
    fill="#251C1C"
  />
  <path
    d="M222.805 35.219C222.225 34.2514 221.644 33.5741 221.838 33.2839C222.128 32.6066 222.709 32.1228 223.289 31.4455C223.773 31.9293 224.644 32.5098 224.547 32.8968C224.354 33.6709 223.58 34.2514 222.805 35.219Z"
    fill="black"
  />
  <path
    d="M186.811 202.704C186.037 204.155 185.456 205.8 184.392 207.058C178.587 213.638 172.878 220.314 166.782 226.603C161.751 231.828 156.139 236.472 150.721 241.31C150.043 241.891 148.979 242.471 148.108 242.471C147.431 242.471 146.463 241.891 146.076 241.31C145.883 240.923 146.27 239.859 146.754 239.375C154.784 229.312 162.815 219.346 170.943 209.38C173.168 206.671 175.587 204.252 178.006 201.737C178.974 200.769 180.038 199.995 181.199 199.318C184.489 197.479 186.424 198.737 186.811 202.704ZM184.392 201.35C179.844 202.414 157.01 228.345 155.075 234.247C158.364 231.247 161.364 228.732 164.17 225.926C170.653 219.443 177.425 213.154 182.457 205.317C183.134 204.252 183.618 203.091 184.392 201.35Z"
    fill="#251C1C"
  />
  <path
    d="M325.658 88.532C326.335 95.0147 323.723 100.723 322.465 106.625C319.949 118.43 317.53 130.331 315.595 142.232C314.531 148.618 312.499 154.52 310.177 160.422C309.403 162.357 308.822 164.292 307.855 166.034C307.371 166.905 306.403 167.389 305.629 168.066C305.049 167.195 304.178 166.421 303.984 165.55C301.759 155.101 303.307 144.844 306.21 134.685C308.532 126.461 310.951 118.236 312.596 109.915C314.047 102.658 314.337 95.1114 315.402 87.7579C315.885 84.2747 316.853 80.8882 318.207 77.5985C319.272 75.0828 320.917 75.4698 322.755 77.3082C326.045 80.6947 326.045 84.6617 325.658 88.532ZM305.919 162.744C306.21 162.744 306.5 162.744 306.79 162.744C309.499 155.584 312.789 148.618 313.466 140.781C314.627 127.622 318.207 114.85 321.497 102.078C323.045 96.1758 323.723 90.2736 323.142 84.2747C322.949 82.3396 321.787 80.5012 321.013 78.6628C320.723 78.6628 320.433 78.6628 320.143 78.7596C319.562 79.9206 318.788 81.0817 318.595 82.3396C317.917 86.8871 317.337 91.5314 316.853 96.1758C315.789 105.561 314.724 114.947 311.822 124.042C309.403 131.685 307.467 139.523 306.113 147.36C305.242 152.391 305.919 157.616 305.919 162.744Z"
    fill="#251C1C"
  />
  <path
    d="M216.808 232.215C216.615 232.602 216.518 233.376 216.034 233.957C213.422 237.44 210.229 240.053 206.068 241.407C205.197 241.697 204.036 241.214 202.972 241.117C203.069 240.149 202.972 239.085 203.359 238.214C204.036 236.473 204.907 234.828 205.584 233.086C207.132 229.506 210.906 228.151 213.809 228.538C215.744 228.925 216.905 230.183 216.808 232.215ZM206.358 238.214C206.552 238.408 206.745 238.601 206.939 238.795C208.874 237.247 210.906 235.795 212.648 234.15C213.228 233.57 213.325 232.505 213.615 231.635C212.551 231.635 211.293 231.344 210.519 231.731C208.197 233.183 207.036 235.602 206.358 238.214Z"
    fill="#251C1C"
  />
  <path
    d="M104.86 179.193C105.634 187.514 103.022 194.867 97.9902 201.544C96.0551 204.156 93.6362 206.091 90.2497 205.317C86.7664 204.543 84.4443 201.834 83.4767 198.641C81.3481 191.771 80.6708 184.708 81.9286 177.645C82.8962 171.646 85.2183 166.131 88.7983 161.196C91.7978 157.132 99.5383 158.1 101.667 162.647C104.086 167.872 105.537 173.291 104.86 179.193ZM84.541 184.321C84.541 186.256 84.2508 188.288 84.6378 190.126C85.4119 194.093 85.6054 198.254 88.7016 201.35C90.6367 203.285 92.3783 203.575 94.2167 201.544C96.3453 199.221 98.6675 196.706 99.7318 193.803C103.215 184.611 103.118 175.323 100.119 165.937C99.4416 163.905 98.6675 161.68 96.0551 161.68C93.4427 161.68 90.7335 161.777 89.1854 164.776C86.1859 170.968 83.8637 177.258 84.541 184.321Z"
    fill="#251C1C"
  />
  <path
    d="M355.845 232.409C355.942 237.633 354.684 242.471 352.459 247.116C350.233 251.663 345.396 254.856 340.945 254.566C338.429 254.372 336.107 253.308 335.236 250.889C332.043 242.568 331.076 230.667 337.849 222.346C340.074 219.637 342.686 217.314 346.46 217.895C350.814 218.572 354.007 221.185 355.362 225.345C356.039 227.571 355.749 230.086 355.845 232.409ZM354.2 230.377C353.91 230.28 353.717 230.28 353.426 230.183C353.717 225.055 351.588 221.959 346.944 220.701C343.461 219.733 340.751 221.765 338.332 226.023C334.172 233.376 335.043 240.923 336.978 248.47C337.752 251.47 340.751 252.727 343.944 251.663C347.137 250.599 349.459 248.277 350.427 245.277C352.072 240.343 353.039 235.311 354.2 230.377Z"
    fill="#251C1C"
  />
  <path
    d="M82.1232 267.822C82.0264 261.339 83.5746 255.244 87.5416 250.019C89.767 247.116 92.6697 247.31 94.0243 250.502C94.9919 252.825 95.7659 255.534 95.8626 258.05C96.0561 264.532 94.7015 270.821 91.3151 276.433C90.7345 277.498 89.767 278.465 88.7027 279.046C86.3805 280.497 84.2518 280.013 83.4778 277.401C82.5102 274.305 82.22 271.015 81.5427 267.822C81.7362 267.822 81.9297 267.822 82.1232 267.822ZM91.7988 251.47C91.4118 251.373 90.928 251.373 90.541 251.277C89.767 252.051 88.7994 252.825 88.2189 253.792C84.6389 260.372 84.5421 267.532 85.6065 274.692C85.7032 275.369 86.2837 276.433 86.6708 276.433C87.3481 276.433 88.2189 275.853 88.7027 275.369C89.38 274.595 90.0572 273.724 90.2508 272.756C91.2183 268.499 92.4762 264.242 92.8632 259.985C93.2502 257.179 92.2826 254.276 91.7988 251.47Z"
    fill="black"
  />
  <path
    d="M193.297 132.266C193.49 127.428 194.458 122.881 197.167 118.914C199.586 115.43 202.488 115.334 205.681 118.236C211.1 123.171 211.487 128.879 209.358 135.362C208.778 137.201 208.294 139.136 207.52 140.877C206.455 143.683 203.746 145.522 200.844 145.522C197.747 145.425 196.006 143.49 195.232 140.877C194.361 138.071 193.877 135.169 193.297 132.266ZM195.812 131.008C196.393 134.201 196.586 136.717 197.457 139.039C198.038 140.49 199.489 142.329 200.844 142.619C202.972 143.103 204.617 141.264 205.391 139.232C206.359 136.33 207.326 133.427 207.81 130.428C208.487 126.17 206.746 122.59 203.359 120.075C202.779 119.688 201.618 119.301 201.134 119.688C199.876 120.558 198.425 121.526 197.941 122.784C196.973 125.59 196.49 128.589 195.812 131.008Z"
    fill="#251C1C"
  />
</svg>
