<svg
  width="269"
  height="211"
  viewBox="0 0 269 211"
  fill="none"
  xmlns="http://www.w3.org/2000/svg"
>
  <path
    d="M173.628 50.9638C173.847 50.9638 174.039 50.9907 174.259 50.9907C174.588 51.0176 174.588 50.4795 174.259 50.4795C174.039 50.4795 173.847 50.5064 173.628 50.5064C173.326 50.5333 173.326 50.9369 173.628 50.9638Z"
    fill="#E6332A"
  />
  <path
    d="M187.836 127.189C185.093 127.081 182.185 127.108 179.634 128.182C178.372 128.72 177.604 130.358 177.604 131.647C177.604 131.728 177.604 131.808 177.604 131.889C176.836 132.963 176.48 134.279 176.672 135.676C176.973 137.905 178.51 139.383 180.594 140.135C182.13 140.699 183.968 140.753 185.559 140.296C187.424 139.786 188.851 138.738 189.756 137.207C192.005 136.321 193.376 134.065 193.047 131.674C192.691 129.123 190.524 127.296 187.836 127.189Z"
    fill="#E6332A"
  />
  <path
    d="M187.123 82.2805C187.123 81.5822 187.123 80.8839 187.123 80.2124C189.344 79.6484 191.182 77.3922 191.072 75.1629C190.935 72.1816 188.741 70.2209 185.779 69.9792C185.257 69.9523 184.709 69.9792 184.215 70.0866C180.073 70.4089 175.931 71.1878 172.146 72.8531C171.954 72.9336 171.762 73.0411 171.597 73.1754C170.747 73.3365 170.034 73.5514 169.513 73.7394C169.787 75.3241 169.869 77.0968 170.445 78.6546C170.72 79.4066 171.872 80.1318 172.749 80.3198C175.849 80.9913 179.003 81.4748 182.158 81.9045C183.721 82.1731 185.34 82.1731 187.123 82.2805Z"
    fill="#E6332A"
  />
  <path
    d="M186.767 22.7611C184.572 21.4182 181.802 21.5256 179.525 22.6537C179.498 22.6805 179.443 22.6805 179.415 22.7074C179.196 22.7074 178.977 22.7074 178.73 22.7074C177.879 22.7074 177.002 22.8148 176.179 23.0028C174.094 23.0297 172.037 23.8623 170.418 25.1516C166.825 28.0255 166.825 33.1555 170.117 36.298C172.75 38.7959 176.343 39.0914 179.717 38.393C183.338 38.2856 187.205 37.1307 189.153 33.9344C191.375 30.2816 190.552 25.071 186.767 22.7611Z"
    fill="#48AE4C"
  />
  <path
    d="M181.034 86.4167C178.4 86.551 176.096 87.9208 174.231 89.6667C172.393 90.365 170.83 91.8422 170.309 93.8298C168.827 99.2822 174.286 103.848 179.607 102.666C181.418 102.264 183.338 101.297 184.901 99.9537C184.983 99.9268 185.066 99.8731 185.148 99.8463C185.532 99.8463 185.916 99.8194 186.327 99.7925C186.574 99.3628 186.739 98.9599 186.821 98.5839C187.617 97.6707 188.138 96.5157 188.165 95.3071C188.549 94.0716 188.577 92.7555 188.165 91.4394C187.205 88.4043 184.27 86.2555 181.034 86.4167Z"
    fill="#48AE4C"
  />
  <path
    d="M69.3399 123.724C65.39 123.912 61.495 124.261 57.5999 124.852C54.0615 125.389 50.5779 126.088 47.0943 127.001C45.3114 127.458 43.5559 127.968 41.8278 128.639C40.1272 129.284 37.686 130.17 36.8082 131.836C36.2322 132.91 36.5888 134.038 37.5762 134.709C38.9477 135.623 41.1695 135.461 42.7604 135.381C44.5708 135.273 46.3537 135.085 48.1641 134.897C51.7025 134.548 55.2684 134.226 58.8343 133.984C62.3178 133.742 65.8288 133.501 69.3124 133.393C72.988 133.259 76.691 133.501 80.3666 133.34C82.945 133.232 85.4137 131.218 85.2765 128.532C85.1394 125.685 83.1096 123.993 80.3666 123.724C76.7459 123.321 72.9606 123.563 69.3399 123.724Z"
    fill="#48AE4C"
  />
  <path
    d="M29.1825 33.1286C30.9655 33.1824 32.721 33.2629 34.5039 33.1555C35.9028 33.0749 37.2743 32.9943 38.6732 32.9138C39.4412 32.9406 40.2093 32.9406 40.9773 32.9406C44.79 32.9406 48.6028 32.8869 52.4155 32.7526C59.849 32.484 67.3098 32.2154 74.7433 31.8663C89.8296 31.1948 104.916 30.765 120.002 30.577C128.533 30.4696 137.091 30.5233 145.649 30.389C148.145 30.3622 150.559 28.2672 150.449 25.6887C150.34 23.0834 148.337 21.0689 145.649 20.9884C130.398 20.5586 115.092 20.9346 99.8415 21.3644C84.7551 21.7673 69.6688 22.3313 54.6099 23.5668C50.2211 23.9429 45.8872 24.3726 41.5533 24.9635C39.4138 25.2589 37.3017 25.6081 35.1896 26.011C34.1473 26.2259 33.105 26.4407 32.0901 26.8168C31.0477 27.1928 30.2523 27.8106 29.2922 28.3477C28.7162 28.67 28.4693 29.1804 28.4693 29.6907C27.3447 29.9593 26.5218 30.5502 26.659 31.8931C26.7961 33.3167 28.1676 33.1018 29.1825 33.1286Z"
    fill="#48AE4C"
  />
  <path
    d="M212.523 204.919C223.988 204.731 235.426 204.301 246.892 203.979C253.475 203.817 260.086 203.441 266.669 204.22C268.04 204.381 269.192 203.28 268.973 202.206C268.699 200.89 267.629 200.675 266.504 200.782C265.105 200.917 263.734 201.373 262.308 201.427C253.338 201.803 244.369 202.26 235.399 202.421C222.617 202.636 192.088 202.77 179.278 202.85V204.919C184.462 204.972 207.366 204.999 212.523 204.919Z"
    fill="black"
  />
  <path
    d="M172.338 162.348C187.809 162.268 213.949 161.999 229.42 161.919C234.247 161.892 239.157 161.945 243.93 162.59C246.673 162.966 248.62 162.375 250.678 160.925C252.378 159.716 253.064 158.454 252.762 156.251C251.665 148.22 250.568 140.19 250.019 132.132C249.251 120.932 248.374 109.758 246.7 98.6656C245.576 91.2525 244.89 83.7588 243.82 76.3189C242.174 64.7695 240.227 53.247 238.636 41.6976C236.853 28.859 236.222 15.913 235.482 2.99382C235.454 2.53722 235.482 2.05375 235.372 1.62401C235.07 0.495933 234.412 -0.0949652 233.068 0.0124708C227.088 0.442215 221.081 0.979395 215.101 1.11369C201.277 1.436 187.452 1.57029 173.628 1.75831C154.344 2.0269 135.089 2.16119 115.806 2.53722C102.694 2.80581 89.5829 3.34299 76.4715 3.82645C67.8586 4.14876 59.2456 4.52478 50.6327 5.0351C40.374 5.626 30.1427 6.37805 19.884 7.07639C14.3706 7.45241 8.88467 8.63421 3.28901 7.8553C2.95985 7.80158 2.57583 7.88216 2.21925 7.93588C0.299167 8.23133 -0.221998 8.9028 0.0797289 10.7292C0.244307 11.7499 0.573464 12.7705 0.600894 13.7911C0.847761 26.7372 1.14949 39.7101 1.25921 52.683C1.28664 58.001 0.710612 63.3191 0.683183 68.6372C0.600894 85.3972 0.573464 102.184 0.655753 118.971C0.683183 124.531 1.01234 130.064 1.3415 135.624C1.89009 144.514 2.57583 153.377 3.097 162.268C3.20672 163.987 4.24905 164.551 5.51081 164.766C7.70519 165.115 9.95443 165.249 12.2037 165.33C22.2429 165.625 32.2822 165.544 42.3215 164.739C48.7949 164.228 81.2169 164.336 87.7177 164.094C96.2209 163.799 104.724 163.423 113.2 163.073C113.2 163.1 113.2 163.154 113.2 163.181C115.915 163.181 118.631 163.261 121.347 163.154C123.294 163.073 124.254 164.067 124.556 165.706C124.912 167.747 124.967 169.842 125.242 171.91C125.845 176.986 123.102 180.21 119.042 182.681C118.247 183.164 117.369 183.54 116.519 183.916C112.98 185.528 109.387 187.005 105.958 188.778C98.7993 192.457 92.7922 197.265 89.7201 204.973C88.4857 208.062 89.2538 209.378 92.6276 209.244C95.3432 209.137 98.0587 208.868 100.774 208.814C110.21 208.599 119.673 208.411 129.109 208.331C138.435 208.223 147.761 208.385 157.087 208.197C162.025 208.089 166.962 207.552 171.9 207.122C174.286 206.907 175.63 204.973 174.78 202.583C173.71 199.548 172.64 196.379 170.857 193.72C168.608 190.389 165.947 187.273 161.613 186.065C158.102 185.098 154.674 183.782 151.327 182.358C148.091 180.988 145.978 178.356 145.457 174.999C144.964 171.829 145.018 168.553 145.156 165.33C145.265 163.02 145.978 162.509 148.283 162.483C159.501 162.348 134.156 162.214 145.375 162.214C154.372 162.133 163.369 162.402 172.338 162.348ZM142.659 177.282C144.36 181.875 147.295 184.964 151.848 186.736C153.165 187.247 154.482 187.837 155.853 188.133C163.835 189.798 168.745 194.445 170.473 202.798C168.197 203.255 165.947 203.899 163.671 204.141C154.838 205.081 146.006 205.135 137.146 204.973C126.558 204.812 115.97 205.269 105.355 205.43C101.954 205.484 98.5524 205.43 95.1786 205.43C94.3831 203.093 95.2334 201.401 96.4952 199.79C99.0736 196.513 102.393 194.122 106.096 192.242C110.512 190.013 115.038 188.052 119.399 185.769C123.075 183.862 126.778 181.66 127.902 177.47C128.615 174.757 128.341 171.803 128.341 168.929C128.341 167.022 128.039 165.088 127.847 162.751C132.593 162.751 136.899 162.751 141.699 162.751C141.699 164.04 141.727 165.356 141.699 166.699C141.562 170.245 141.343 173.736 142.659 177.282ZM111.801 160.173C96.3306 160.629 54.9392 160.871 39.4962 161.919C30.3621 162.536 21.3103 162.133 12.2311 161.784C7.48575 161.596 6.66286 161.059 6.27885 156.359C5.40109 145.884 4.77021 135.382 4.02961 124.88C3.78274 121.523 3.50844 118.192 3.42616 114.835C3.20672 106.052 2.87756 97.2421 2.95985 88.4592C3.04214 80.1329 3.53587 71.8066 4.02961 63.4803C4.55077 54.1065 4.22162 44.7864 3.64559 35.4126C3.17929 27.919 3.45358 20.3716 3.53587 12.8511C3.5633 10.7024 4.22162 10.3263 6.41599 10.1652C14.6449 9.52056 22.8738 8.76851 31.1302 8.23133C40.7854 7.61357 50.4681 7.04953 60.1508 6.64664C76.6909 6.00203 93.2036 5.41113 109.744 4.95453C123.568 4.5785 137.393 4.30991 151.217 4.14876C166.112 3.96074 181.006 3.9876 195.901 3.82645C205.583 3.71901 215.266 3.45042 224.949 3.26241C225.881 3.23555 226.869 3.20869 227.774 3.36985C231.175 3.93388 231.916 4.55164 232.245 7.96274C232.958 15.4295 233.397 22.9501 234.165 30.4169C234.796 36.5139 235.674 42.5571 236.524 48.6273C237.566 55.9598 238.691 63.2654 239.761 70.5979C240.83 77.9036 241.955 85.2092 242.833 92.5686C243.903 101.754 245.713 110.833 246.097 120.099C246.454 128.989 247.194 137.88 247.798 146.77C247.88 147.925 248.319 149.026 248.428 150.181C248.675 152.679 248.84 155.177 249.087 158.4C245.96 158.695 243.546 159.098 241.132 159.098C231.093 159.125 221.026 158.91 210.987 158.991C198.122 159.071 174.615 159.447 161.751 159.447C149.105 159.447 172.997 158.937 160.379 159.071C144.141 159.179 127.985 159.689 111.801 160.173Z"
    fill="black"
  />
  <path
    d="M187.836 146.501C199.302 146.393 210.74 146.232 222.206 146.151C224.427 146.151 226.677 146.447 228.926 146.635C230.243 146.742 231.559 146.474 231.504 144.996C231.395 141.827 232.656 138.926 232.135 135.569C230.873 127.243 230.489 118.782 229.804 110.375C229.392 105.406 229.283 100.437 228.761 95.4953C227.554 84.2145 227.061 72.8801 227.061 61.5456C227.061 54.9651 227.5 48.3578 227.5 41.7774C227.5 36.2444 227.143 30.6846 227.006 26.7632C227.006 21.0959 227.006 17.0402 227.006 12.9845C227.006 10.0569 226.018 9.27797 223.166 9.654C221.904 9.81515 220.615 9.73458 219.326 9.70772C217.68 9.654 216.034 9.46599 214.416 9.49284C211.124 9.57342 207.833 9.89573 204.541 9.94945C194.968 10.0837 185.395 10.2449 175.822 10.218C162.93 10.1643 150.038 9.84201 137.174 9.81515C131.852 9.81515 126.531 10.1912 121.237 10.4598C114.517 10.8089 107.796 11.3998 101.076 11.561C91.4208 11.7759 81.7381 10.5135 72.0554 11.561C66.8986 12.125 61.6321 11.8564 56.4753 12.4205C44.8451 13.656 33.2423 15.0795 21.5298 15.3481C19.1983 15.4018 16.8119 15.3481 14.5353 14.8915C11.2985 14.22 9.43333 15.8316 9.76248 19.1352C10.5305 26.3603 11.4083 33.6122 11.8197 40.8641C12.3409 50.2111 12.9443 59.558 13.0266 68.9318C13.1912 89.6401 14.0415 110.348 14.6724 131.057C14.8918 138.094 15.221 145.158 15.5502 152.195C15.6599 154.397 16.5925 155.31 18.8417 155.391C19.884 155.418 20.9538 155.23 21.9961 155.069C23.6145 154.773 25.2054 154.236 26.8238 154.102C38.4814 153.162 50.139 152.195 61.7967 151.389C70.7388 150.771 79.7357 150.449 88.6778 149.938C100.335 149.267 111.993 148.381 123.678 147.924C138.188 147.333 152.726 147.038 167.237 146.689C174.121 146.474 180.979 146.581 187.836 146.501ZM130.974 145.211C123.541 145.48 116.08 145.453 108.647 145.748C102.283 146.017 95.9192 146.554 89.5555 146.957C84.6182 147.253 79.6534 147.521 74.6886 147.817C66.542 148.273 58.3954 148.622 50.2762 149.24C41.6907 149.885 33.1326 150.798 24.5471 151.577C23.5048 151.657 22.435 151.496 21.3927 151.496C19.5823 151.469 19.0337 150.556 18.9514 148.837C18.6223 143.304 17.964 137.771 17.7445 132.238C17.3331 121.146 17.0862 110.026 16.8668 98.9064C16.5651 84.9129 16.5925 70.8925 16.0439 56.899C15.5776 45.0004 14.5078 33.1288 13.7398 21.2302C13.6849 20.4513 13.8221 19.6724 13.9044 18.7055C21.6396 18.1683 28.9633 17.7386 36.2322 17.0939C41.6358 16.6105 46.9846 15.8047 52.3883 15.1332C52.7449 15.0795 53.1014 15.0258 53.458 15.0258C61.7144 14.6498 69.9707 14.0589 78.2271 13.9514C86.3737 13.8171 94.5203 14.2737 102.667 14.2737C106.891 14.2737 111.143 13.7903 115.367 13.5217C122.444 13.0919 129.493 12.313 136.57 12.2862C149.325 12.2593 162.08 12.6891 174.862 12.8771C177.468 12.9039 180.074 12.7696 182.652 12.7159C191.265 12.5816 199.878 12.3399 208.463 12.3668C212.715 12.3936 216.939 12.9308 221.191 13.1994C223.138 13.3337 223.413 14.7035 223.522 16.127C223.714 18.5443 223.851 20.9616 223.879 23.4058C224.016 33.6928 224.098 43.9798 224.153 54.2668C224.208 62.4588 223.989 70.6776 224.345 78.8696C224.784 88.5657 225.662 98.2618 226.402 107.958C227.143 117.412 227.993 126.867 228.761 136.294C228.816 137.1 228.871 137.906 228.844 138.711C228.789 141.209 228.405 141.585 225.881 142.042C218.146 143.439 210.301 142.579 202.539 142.901C197.245 143.116 191.923 143.358 186.629 143.492C183.557 143.573 180.485 143.465 177.413 143.519C168.087 143.68 158.733 143.815 149.407 144.137C143.236 144.379 137.119 144.996 130.974 145.211Z"
    fill="black"
  />
  <path
    d="M201.661 26.2258C204.458 26.3601 207.311 26.2795 210.027 26.8436C213.071 27.4882 213.483 27.327 213.208 23.7547C208.326 23.4593 203.444 23.0833 198.561 22.9758C197.958 22.9758 197.327 24.3188 196.696 25.0709C197.299 25.5006 197.82 26.1721 198.479 26.3064C199.521 26.4407 200.618 26.1721 201.661 26.2258Z"
    fill="black"
  />
  <path
    d="M207.668 29.7444C204.843 29.6101 202.045 29.6369 199.22 29.5564C198.013 29.5295 197.053 29.7712 196.998 31.1142C196.943 32.3766 197.738 33.0212 198.973 33.0212C202.374 32.9943 205.775 32.9406 209.177 32.8063C210.329 32.7526 211.206 32.2423 211.152 30.4427C210.027 30.201 208.847 29.7981 207.668 29.7444Z"
    fill="black"
  />
  <path
    d="M198.204 38.8224C202.291 38.8493 206.378 38.8224 210.465 38.8224C210.301 35.8679 209.67 35.1964 207.119 35.277C204.211 35.3576 201.304 35.5993 198.369 35.6799C197.217 35.7068 196.119 35.7605 196.037 37.1303C195.955 38.5001 197.052 38.8224 198.204 38.8224Z"
    fill="black"
  />
  <path
    d="M207.997 96.8113C206.351 96.6502 204.705 96.4622 203.06 96.301C203.06 96.3279 203.06 96.3816 203.06 96.4085C201.77 96.4085 200.399 96.1936 199.192 96.489C198.506 96.6502 198.04 97.6977 197.464 98.3423C198.067 98.8258 198.616 99.363 199.274 99.7121C199.631 99.9001 200.207 99.7121 200.673 99.739C203.005 99.7658 205.364 99.739 207.695 99.8196C208.765 99.8733 209.67 99.7927 209.752 98.584C209.835 97.4828 209.067 96.9456 207.997 96.8113Z"
    fill="black"
  />
  <path
    d="M199.494 118.057C198.89 118.487 198.424 119.534 198.424 120.286C198.424 120.716 199.494 121.468 200.124 121.495C202.813 121.629 205.501 121.548 208.408 121.548C208.408 120.474 208.545 120.044 208.381 119.829C207.256 118.513 200.81 117.117 199.494 118.057Z"
    fill="black"
  />
  <path
    d="M195.654 47.8203C199.192 47.8203 202.703 47.8203 206.242 47.8203C206.379 48.0888 206.489 48.3574 206.626 48.6529C207.229 47.9814 208.272 47.3905 208.381 46.6385C208.573 45.3761 207.476 44.9195 206.269 44.9732C205.556 45.0001 204.843 45.0269 204.157 45.0001C201.442 44.8926 198.754 44.8121 196.065 44.5972C194.941 44.5166 193.871 44.2749 193.624 45.7253C193.35 47.2562 194.255 47.8203 195.654 47.8203Z"
    fill="black"
  />
  <path
    d="M198.149 103.284C197.573 103.418 197.299 104.869 196.888 105.701C197.573 105.943 198.314 106.507 198.918 106.4C201.798 105.916 204.65 105.272 207.503 104.573C208.024 104.439 208.381 103.768 208.957 103.204C205.117 101.189 201.578 102.505 198.149 103.284Z"
    fill="black"
  />
  <path
    d="M197.628 51.4196C196.888 51.4196 195.654 52.4671 195.489 53.1923C195.215 54.4278 196.339 54.8844 197.546 54.8844C197.793 54.8844 198.012 54.8575 198.259 54.8575C200.947 54.8844 203.636 54.8575 206.324 54.9381C208.299 54.9918 208.491 54.7769 208.299 51.8493C204.76 51.6613 201.194 51.3927 197.628 51.4196Z"
    fill="black"
  />
  <path
    d="M199.302 134.709C200.454 134.709 201.633 134.521 202.785 134.414C202.785 134.387 202.785 134.387 202.785 134.36C203.937 134.28 205.117 134.172 206.296 134.145C207.256 134.145 208.463 134.172 208.271 132.937C208.189 132.319 207.174 131.46 206.488 131.325C204.212 130.922 201.88 130.761 199.576 130.6C198.259 130.519 197.299 131.083 197.244 132.534C197.162 133.931 197.903 134.683 199.302 134.709Z"
    fill="black"
  />
  <path
    d="M207.01 91.2515C205.309 90.9292 203.553 90.8487 201.99 90.6875C200.399 90.6875 198.945 90.4726 197.629 90.7681C196.998 90.9024 196.257 91.9767 196.202 92.6751C196.12 93.6151 196.833 94.3403 198.013 94.3135C200.92 94.206 203.828 94.206 206.708 93.9643C207.284 93.9106 207.805 93.0511 208.381 92.5676C207.942 92.111 207.558 91.359 207.01 91.2515Z"
    fill="black"
  />
  <path
    d="M199.192 61.9213C201.825 61.6258 204.458 61.411 207.558 61.1155C207.942 59.316 206.653 58.4833 205.062 58.3222C202.95 58.1342 200.81 58.2416 198.698 58.3491C197.381 58.4296 196.421 59.1548 196.531 60.5783C196.696 62.2436 197.957 62.0556 199.192 61.9213Z"
    fill="black"
  />
  <path
    d="M199.164 135.73C198.506 135.784 197.601 136.804 197.409 137.503C197.08 138.711 198.287 139.141 199.192 139.087C201.743 138.953 204.294 138.631 206.817 138.281C207.229 138.228 207.558 137.529 208.298 136.751C204.925 135.408 202.017 135.515 199.164 135.73Z"
    fill="black"
  />
  <path
    d="M198.588 116.929C201.249 116.741 203.91 116.526 206.982 116.311C207.997 113.732 207.695 113.195 204.979 113.115C202.758 113.061 200.508 112.98 198.287 112.927C196.943 112.9 195.955 113.383 195.982 114.887C195.982 116.257 197.052 117.036 198.588 116.929Z"
    fill="black"
  />
  <path
    d="M206.598 125.604C206.954 125.362 207.009 124.664 207.311 123.912C201.523 122.596 198.506 123.536 198.122 126.49C200.454 127.027 205.144 126.598 206.598 125.604Z"
    fill="black"
  />
  <path
    d="M197.766 86.4438C198.287 86.5781 198.89 86.2021 199.466 86.0678C201.523 85.5306 203.581 85.1008 205.583 84.4562C206.214 84.2682 206.68 83.5699 207.229 83.1133C206.625 82.5761 206.049 82.0389 205.556 81.5823C202.346 82.3075 199.576 82.8447 196.888 83.5967C196.394 83.731 195.736 84.9397 195.928 85.3426C196.147 85.8797 197.08 86.2826 197.766 86.4438Z"
    fill="black"
  />
  <path
    d="M195.324 74.0615C196.833 74.0346 198.369 74.0615 199.878 74.0615C199.878 74.1152 199.878 74.1958 199.878 74.2495C201.386 74.2495 202.922 74.3569 204.431 74.1958C205.089 74.1152 206.104 73.6049 206.241 73.1214C206.543 72.0739 205.748 71.5099 204.623 71.4024C202.758 71.2413 200.893 71.0801 199.055 70.8921C197.903 70.7847 196.723 70.5698 195.571 70.4892C194.337 70.4087 193.13 70.5698 193.048 72.1545C192.993 73.6586 193.953 74.0883 195.324 74.0615Z"
    fill="black"
  />
  <path
    d="M206.077 79.1916C206.817 77.7413 206.077 76.5058 204.733 76.3715C201.743 76.076 198.671 76.1298 195.654 76.3178C195.187 76.3446 194.556 77.6607 194.474 78.4396C194.447 78.735 195.654 79.5408 196.284 79.5408C199.439 79.5139 202.566 79.3259 206.077 79.1916Z"
    fill="black"
  />
  <path
    d="M187.068 139.651C188.248 139.544 189.427 139.759 190.607 139.625C192.582 139.437 193.185 138.631 192.445 136.858C191.539 134.736 191.512 132.614 191.704 130.385C191.814 129.284 191.731 128.156 191.731 126.732C190.25 126.84 189.208 126.947 188.193 127.001C185.148 127.189 182.131 127.404 179.086 127.565C178.154 127.619 177.166 127.484 176.261 127.672C174.286 128.102 173.738 129.311 174.204 131.245C174.698 133.366 175.027 135.515 175.219 137.664C175.466 140.457 176.179 140.941 179.059 140.43C181.665 140.054 184.38 139.866 187.068 139.651ZM178.017 131.11C181.582 130.922 184.819 130.734 188.44 130.546C188.577 132.614 188.714 134.494 188.906 136.831C185.779 137.1 182.817 137.261 179.882 136.939C179.196 136.858 178.373 135.596 178.099 134.709C177.797 133.769 178.017 132.668 178.017 131.11Z"
    fill="black"
  />
  <path
    d="M167.209 37.9093C167.483 39.4403 168.279 39.9775 169.925 39.8163C172.366 39.5746 174.862 39.7089 177.303 39.5746C181.528 39.3597 185.779 39.0911 190.003 38.7688C191.512 38.6345 192.307 37.775 192.061 36.1635C191.704 33.8805 191.457 31.5975 191.155 29.3144C191.21 29.3144 191.292 29.3144 191.347 29.2876C191.347 28.4818 191.347 27.676 191.347 26.8703C191.347 26.0645 191.484 25.2587 191.402 24.453C191.183 21.8745 190.332 21.2836 187.754 21.7671C181.335 22.922 174.944 23.5666 168.526 21.7671C167.895 21.579 166.441 22.1699 166.277 22.6534C165.755 24.3992 165.289 26.3062 165.481 28.0789C165.81 31.3557 166.606 34.6057 167.209 37.9093ZM169.513 25.6079C174.697 25.3662 179.498 25.0439 184.298 24.9364C187.699 24.8558 187.809 25.1244 188.028 28.4012C188.138 29.8785 188.495 31.3557 188.632 32.833C188.824 35.1428 188.412 35.6532 186.136 36.1903C181.473 37.3184 176.782 36.7275 172.092 36.5127C170.912 36.4589 169.623 35.9218 169.568 34.5251C169.431 31.5706 169.513 28.6161 169.513 25.6079Z"
    fill="black"
  />
  <path
    d="M167.126 58.2684C167.428 61.5452 168.882 62.9956 172.256 62.8613C174.587 62.7807 176.946 62.7807 179.278 62.8344C182.103 62.8882 184.928 63.103 187.754 63.0493C191.566 62.9687 191.95 62.4316 191.457 58.6176C191.347 57.8118 191.155 57.0329 191.045 56.2271C190.716 53.8367 190.442 51.4194 190.25 49.9421C190.524 44.8926 190.359 44.8389 186.08 44.9732C180.21 45.1344 174.34 45.1344 168.471 45.1344C166.057 45.1344 165.234 45.8596 165.289 48.1694C165.316 48.8409 165.536 49.5124 165.673 50.1839C166.166 52.8698 166.88 55.5557 167.126 58.2684ZM171.46 48.062C175.822 47.9546 180.183 47.9546 184.544 47.9008C185.834 47.874 187.04 48.1426 187.205 49.593C187.616 53.0041 187.918 56.4151 188.302 60.3634C182.021 60.8737 176.507 59.6919 170.857 59.2353C169.321 55.8511 169.705 52.3594 169.184 48.7603C169.979 48.4917 170.72 48.062 171.46 48.062Z"
    fill="black"
  />
  <path
    d="M186.191 123.053C187.014 123.133 187.837 123.348 188.632 123.348C190.47 123.348 191.567 122.166 190.717 120.77C189.208 118.299 189.291 115.72 189.291 113.088C189.291 111.235 188.276 110.348 186.465 110.268C183.997 110.133 181.528 110.026 179.059 109.918C179.059 109.838 179.059 109.784 179.032 109.704C175.768 110.08 172.476 110.268 169.267 110.912C167.264 111.315 167.045 112.47 167.786 114.297C168.471 115.962 169.185 117.708 169.459 119.453C170.117 123.912 171.9 125.336 176.097 123.751C179.526 122.462 182.817 122.757 186.191 123.053ZM173.217 120.179C172.86 118.54 172.449 116.982 172.202 115.398C171.982 114.028 172.75 113.115 174.149 113.061C177.304 112.954 180.486 112.9 183.64 113.034C184.381 113.061 185.478 113.894 185.67 114.538C186.164 116.257 186.273 118.084 186.548 120.152C182.077 120.179 177.907 120.179 173.217 120.179Z"
    fill="black"
  />
  <path
    d="M169.788 82.9788C170.83 83.1399 171.872 83.704 172.86 83.5965C176.481 83.1936 179.854 84.1874 183.338 84.8858C185.752 85.3692 188.275 85.6915 190.36 83.9188C190.36 80.5346 189.976 77.4995 190.442 74.5719C191.21 69.7373 189.619 69.3344 185.587 69.2538C180.074 69.1732 174.615 70.5968 168.992 69.4418C166.496 68.9315 164.878 71.8054 165.728 74.169C166.359 75.9954 166.908 77.9024 167.182 79.8094C167.401 81.5284 167.922 82.6833 169.788 82.9788ZM187.123 72.7992C187.123 75.9417 187.123 78.9231 187.123 82.2804C185.34 82.173 183.722 82.173 182.159 81.9313C179.004 81.4747 175.85 81.0181 172.75 80.3466C171.872 80.1586 170.72 79.4334 170.446 78.6813C169.87 77.0966 169.788 75.3508 169.513 73.7661C172.723 72.45 183.201 71.886 187.123 72.7992Z"
    fill="black"
  />
  <path
    d="M188.933 88.9682C188.028 87.088 185.916 88.5116 184.407 88.3504C180.21 87.9475 175.959 87.8938 171.707 87.867C168.388 87.8401 167.071 89.8814 168.031 93.0776C168.525 94.716 168.772 96.435 169.074 98.1271C169.266 99.2283 169.348 100.383 169.513 101.753C170.802 101.753 171.844 101.699 172.859 101.753C177.549 102.048 182.24 102.451 186.93 102.72C189.673 102.854 190.496 101.753 190.03 99.1477C189.701 97.3482 189.509 95.5218 189.344 93.6954C189.18 92.1107 189.564 90.3111 188.933 88.9682ZM186.272 99.7923C181.691 100.249 177.248 98.5031 172.338 98.3151C172.064 97.5093 171.762 96.999 171.707 96.435C171.405 91.1975 170.994 90.5797 176.891 90.7409C178.756 90.7946 180.649 90.6872 182.514 90.7946C184.407 90.9289 185.861 91.6809 186.108 93.8296C186.354 95.7098 187.616 97.5362 186.272 99.7923Z"
    fill="black"
  />
  <path
    d="M141.507 21.3641C133.004 21.579 124.528 21.955 116.025 22.2236C106.095 22.5191 96.1657 22.6802 86.2362 23.0831C79.6256 23.3517 73.0425 23.9963 66.4319 24.3992C62.5369 24.6409 58.6419 24.5872 54.7469 24.8289C45.311 25.393 35.9026 26.0913 26.4668 26.6553C23.0381 26.8702 22.0781 28.0251 22.901 31.3288C23.477 33.6924 24.4096 36.0291 24.629 38.4196C25.6165 50.3987 26.3845 62.4046 27.2623 74.3838C27.4543 77.0428 27.6463 79.7018 28.0852 82.3072C29.2647 89.7471 29.8132 97.2407 29.6212 104.761C29.5664 107.367 30.0601 108.065 32.7757 108.307C35.2443 108.522 37.7404 108.656 40.1817 108.548C45.9694 108.28 51.7296 107.877 57.5173 107.474C67.7486 106.776 78.0073 106.024 88.2386 105.298C91.777 105.057 95.3154 104.815 98.8264 104.493C105.41 103.902 111.965 103.15 118.548 102.639C125.735 102.075 132.922 101.646 140.136 101.296C144.003 101.108 147.898 100.679 151.738 101.834C154.234 102.586 155.524 101.458 155.633 98.8523C155.661 98.0465 155.524 97.2407 155.469 96.435C155.03 90.6603 154.618 84.9125 154.18 79.1378C153.494 70.6235 152.671 62.1092 152.095 53.568C151.492 44.9463 150.038 36.2709 153.165 27.7834C153.631 26.521 153.878 25.4467 155.249 24.8289C156.621 24.2112 157.526 23.1905 156.977 21.3104C151.848 21.3373 146.664 21.2298 141.507 21.3641ZM26.6314 31.9197C26.4394 30.3082 27.6463 29.771 29.1001 29.6098C31.1024 29.3681 33.0774 28.9652 35.0523 28.8041C41.3886 28.3206 47.7249 27.864 54.0886 27.4611C59.8488 27.1119 65.6365 26.9508 71.3967 26.6016C80.2291 26.0913 89.0614 25.393 97.8938 24.9901C103.654 24.7215 109.469 24.8826 115.257 24.7752C124.117 24.6141 132.949 24.3723 141.809 24.1575C144.14 24.1037 146.472 24.1575 149.023 24.1575C149.023 25.0975 149.023 25.8227 149.023 26.8971C145.649 26.8971 142.495 26.8434 139.34 26.8971C131.55 27.0582 123.76 27.1657 115.997 27.5148C111.526 27.7028 107.083 28.4012 102.639 28.7235C92.0513 29.5024 81.4634 30.2276 70.8755 30.8991C58.7516 31.678 46.6277 32.43 34.5037 33.1552C32.7482 33.2626 30.9653 33.1821 29.1824 33.1284C28.1675 33.1015 26.796 33.3164 26.6314 31.9197ZM151.684 83.865C151.876 86.9806 152.424 90.0694 152.616 93.185C152.89 97.0796 151.738 98.0465 147.816 98.2345C139.45 98.6374 131.084 99.1477 122.718 99.6849C116.957 100.061 111.17 100.491 105.41 101.001C96.4675 101.807 87.5802 102.801 78.6382 103.606C73.5911 104.063 68.5166 104.358 63.4421 104.6C55.1857 104.976 46.9294 105.245 38.673 105.433C36.945 105.486 35.2169 105.003 33.4065 104.761C33.242 103.714 32.8854 102.881 32.9951 102.156C33.8728 97.1333 32.7208 92.245 31.9528 87.3566C30.8007 80.2659 30.6361 73.0945 30.1973 65.95C29.6761 57.4089 28.6886 48.9214 27.948 40.4071C27.8383 39.1716 27.8109 37.9093 27.7286 36.4052C31.1573 36.056 34.2843 35.68 37.4387 35.3845C38.9748 35.2502 40.5108 35.2502 42.0469 35.1696C53.4851 34.525 64.9233 33.961 76.3341 33.2089C86.4556 32.5643 96.5772 31.6511 106.699 30.9796C117.89 30.2276 129.054 28.9921 140.3 29.8784C142.988 30.0933 145.649 30.4156 148.365 30.6842C148.502 31.4094 148.611 31.8391 148.639 32.2957C148.749 37.1303 148.639 41.9918 148.968 46.8264C149.407 53.1652 150.285 59.4502 150.751 65.7889C151.217 71.859 151.299 77.8754 151.684 83.865Z"
    fill="black"
  />
  <path
    d="M135.884 107.662C135.006 107.528 133.909 107.582 133.196 108.011C131.002 109.408 129.932 111.557 129.548 113.571C129.548 116.794 132.675 119.91 135.198 119.668C137.393 119.453 140.52 116.177 140.657 113.894C140.821 111.772 137.969 107.958 135.884 107.662ZM136.926 113.518C136.872 114.726 136.734 115.854 135.253 116.15C134.101 116.365 133.196 115.398 133.141 114.001C133.114 112.712 133.553 111.664 135.006 111.611C136.213 111.557 136.981 112.175 136.926 113.518Z"
    fill="black"
  />
  <path
    d="M120.935 106.803C117.341 106.615 115.174 108.817 115.202 113.222C115.257 113.732 115.284 114.78 115.559 115.773C116.327 118.567 119.865 120.554 122.114 119.211C124.199 117.976 126.037 116.284 126.338 113.598C126.695 110.079 124.254 106.991 120.935 106.803ZM121.209 115.827C120.139 116.526 118.987 116.311 118.658 115.156C118.329 114.028 118.301 112.631 118.658 111.53C119.124 110.026 120.249 110.079 123.129 111.61C123.568 113.652 122.663 114.914 121.209 115.827Z"
    fill="black"
  />
  <path
    d="M124.693 126.114C124.665 123.966 124.117 123.294 122.06 123.455C118.412 123.724 114.791 124.315 111.143 124.395C105.3 124.503 99.5398 126.678 93.5876 124.986C91.7224 124.449 90.6526 125.604 90.7349 127.511C90.8172 129.23 90.9818 130.976 91.2286 132.668C91.5304 134.709 92.2435 135.193 94.3008 135.004C95.8368 134.87 97.3455 134.763 98.8815 134.682C102.996 134.44 107.11 134.252 111.225 133.984C114.05 133.796 116.875 133.5 118.85 133.339C120.414 133.447 121.1 133.527 121.813 133.5C125.132 133.447 126.037 132.184 125.104 129.069C124.83 128.129 124.693 127.108 124.693 126.114ZM119.372 130.385C117.177 130.788 114.955 131.083 112.761 131.432C107.522 132.265 102.228 132.131 96.9614 131.862C96.3854 131.835 95.6448 131.889 95.2608 131.593C94.6848 131.137 93.999 130.385 94.0265 129.767C94.0265 129.31 95.0414 128.558 95.6722 128.478C101.734 127.806 107.796 127.242 113.858 126.625C113.858 126.732 113.886 126.839 113.886 126.947C115.531 126.839 117.177 126.813 118.823 126.651C119.975 126.517 120.99 126.517 121.237 127.914C121.429 129.31 120.688 130.143 119.372 130.385Z"
    fill="black"
  />
  <path
    d="M97.8944 50.1036C95.7823 45.9405 92.0793 45.5376 88.2392 44.9198C87.5534 44.8124 86.8403 44.9198 86.1271 44.9198C82.2869 44.4901 78.6936 45.2153 75.1826 46.9342C66.9537 50.9899 63.7993 61.2501 64.7319 68.8243C64.8965 70.2747 65.2531 71.8325 65.9662 73.0949C67.9137 76.5328 70.7939 79.0307 74.4969 80.5886C77.1027 81.6898 79.6811 82.8447 82.3418 83.8116C87.4711 85.6918 92.6279 85.45 97.4281 83.0596C108.674 77.4998 108.592 64.4463 103.737 57.4092C101.954 54.8845 99.2659 52.8164 97.8944 50.1036ZM102.667 73.5246C101.543 77.9026 95.6452 82.0658 90.5707 82.2538C85.2768 82.4418 80.6686 80.3737 76.2524 77.9295C74.2226 76.8283 72.4945 75.1899 70.7664 73.6589C67.6943 70.8925 67.036 67.3739 67.7766 63.5062C68.1332 61.6798 68.5721 59.8803 69.1481 58.1344C71.0682 52.1717 76.2798 48.1698 82.6984 47.6326C83.631 47.552 84.591 47.4983 85.5236 47.4177C85.5236 47.364 85.5511 47.2834 85.5511 47.2297C87.1694 47.4446 88.8426 47.5251 90.4061 47.928C91.7502 48.2772 92.6828 49.1367 93.396 50.5602C94.356 52.4672 95.8646 54.2399 97.5104 55.6634C103.188 60.5517 104.45 66.595 102.667 73.5246Z"
    fill="black"
  />
  <path
    d="M93.2858 60.9277C89.8571 58.8864 86.4284 56.8451 82.9174 54.9113C82.0945 54.4547 80.4761 53.8906 80.1744 54.213C79.5161 54.9381 79.1869 56.2005 79.1869 57.248C79.2144 59.7728 79.4887 62.2707 79.6807 64.7954C79.5161 64.7954 79.3241 64.8223 79.1595 64.8223C79.1595 66.5681 79.0772 68.2871 79.1869 70.0329C79.3241 72.6382 80.9699 73.3634 83.2465 71.9399C86.6204 69.8449 90.0217 67.7499 93.3955 65.628C95.8917 64.0434 95.8368 62.4587 93.2858 60.9277ZM83.1094 67.9648C83.1094 64.9297 83.1094 62.3512 83.1094 59.2087C85.6878 60.5785 87.7724 61.6798 90.0765 62.9153C88.5679 65.8698 85.7426 66.4338 83.1094 67.9648Z"
    fill="black"
  />
  <path
    d="M80.9695 124.449C77.7603 125.711 74.4412 125.147 71.1497 125.362C64.6763 125.765 58.2029 126.437 51.702 126.651C46.6824 126.813 41.745 128.612 36.6157 126.92C34.531 126.222 33.1047 127.968 33.379 130.224C33.571 131.701 33.763 133.205 33.955 134.682C34.2841 137.207 35.4088 138.013 38.042 137.664C40.5107 137.341 42.9519 136.885 45.4206 136.67C52.3603 136.052 59.3 135.381 66.2398 135.005C71.3143 134.736 76.3888 134.79 81.4633 134.924C83.9319 135.005 84.9194 134.387 84.9194 131.808C84.5902 130.036 84.3434 128.075 83.8771 126.168C83.5479 124.718 82.4507 123.858 80.9695 124.449ZM78.638 131.594C67.1449 132.534 55.6519 133.527 44.1588 134.441C42.6502 134.575 41.0867 134.521 39.5781 134.36C37.3563 134.118 37.2191 133.877 37.3837 130.815C42.3759 130.197 47.1213 129.499 51.9215 129.069C58.0109 128.505 64.1277 128.129 70.2445 127.78C72.96 127.618 75.6756 127.726 78.3911 127.672C79.79 127.645 81.1615 127.86 81.2712 129.499C81.3535 131.164 80.0369 131.459 78.638 131.594Z"
    fill="black"
  />
  <path
    d="M81.656 206.396C78.3645 206.691 39.6063 207.175 36.3147 207.282C27.3726 207.551 18.4031 207.685 9.461 207.846C7.34891 207.9 7.1569 208.222 7.81521 210.667C12.9171 210.398 17.7173 210.156 22.545 209.915C30.7739 209.512 74.4969 209.136 82.7532 208.76C84.5087 208.679 84.5361 207.766 84.207 206.369C83.2469 206.369 82.4515 206.315 81.656 206.396Z"
    fill="black"
  />
  <path
    d="M80.4764 111.718C78.4192 111.933 76.362 112.201 74.2773 112.363C73.0978 112.47 72.1652 112.765 72.2201 114.135C72.2749 115.237 72.9881 115.747 74.0853 115.747C76.7734 115.747 79.4615 115.774 82.1497 115.613C83.1097 115.559 84.0149 114.941 85.6058 114.296C83.7406 112.524 82.3965 111.53 80.4764 111.718Z"
    fill="black"
  />
  <path
    d="M36.2042 118.191C37.7129 118.191 39.2489 117.949 40.7575 117.896C48.0539 117.627 55.3502 117.385 62.6465 117.144C63.003 117.144 63.4419 117.197 63.6888 117.036C64.21 116.633 64.9231 116.15 64.978 115.64C65.0328 115.129 64.5117 114.162 64.0454 114.055C62.9482 113.786 61.7413 113.733 60.6441 113.867C52.2506 114.968 43.8845 116.123 35.4362 114.27C34.8876 114.135 34.2841 114.243 33.5984 114.243C32.9401 115.452 32.0898 116.66 33.3241 117.708C33.9824 118.245 35.2167 118.191 36.2042 118.191Z"
    fill="black"
  />
</svg>
