<svg
  width="357"
  height="239"
  viewBox="0 0 357 239"
  fill="none"
  xmlns="http://www.w3.org/2000/svg"
>
  <path
    d="M269.821 201.474H178.77C177.414 201.407 176.064 201.337 174.707 201.245C172.872 201.119 171.046 201.029 169.235 200.735C169.205 201.139 169.163 201.54 169.114 201.942C168.441 202.409 167.973 203.174 168.011 204.008C168.073 205.385 169.125 206.549 170.558 206.549H210.304C225.326 207.228 240.343 207.979 255.364 208.694L266.648 209.233C266.786 208.915 266.947 208.618 267.084 208.316C267.354 207.725 267.627 207.136 267.903 206.549H269.813C271.145 206.549 272.422 205.38 272.359 204.008C272.297 202.635 271.249 201.474 269.821 201.474Z"
    fill="#E6332A"
  />
  <path
    d="M208.642 7.02096C208.663 6.95423 208.682 6.88751 208.701 6.82238C208.715 6.78743 208.752 6.69052 208.787 6.61109L208.959 6.76995C209.206 7.01143 209.436 7.26561 209.683 7.51026C211.064 8.89396 212.769 9.75342 214.776 9.63109C216.9 9.50241 218.872 8.59212 220.949 8.20132C221.808 8.03939 222.679 7.948 223.553 7.92807C224.654 7.89174 225.756 7.93421 226.85 8.05516C228.179 8.19814 229.454 6.78425 229.397 5.51334C229.33 4.01366 228.283 3.13038 226.85 2.97152C224.73 2.7587 222.59 2.81903 220.484 3.15103C218.654 3.42428 216.956 4.07721 215.159 4.47119C214.988 4.48679 214.817 4.51278 214.648 4.54903C214.518 4.54903 214.387 4.55698 214.254 4.54903H214.136C214.109 4.52877 214.078 4.51321 214.045 4.50296C214.014 4.49033 213.981 4.48024 213.948 4.47278L213.873 4.42353C213.837 4.3997 213.781 4.3584 213.741 4.32821C213.665 4.2599 213.582 4.19477 213.514 4.12487C213.237 3.86274 212.981 3.58155 212.718 3.31148C211.356 1.94208 209.597 0.973007 207.608 1.45913C205.677 1.93572 204.359 3.62286 203.801 5.44979C203.22 7.34822 203.801 9.2387 203.769 11.1594C203.763 11.2095 203.763 11.2601 203.769 11.3103C203.769 11.3341 203.759 11.3595 203.755 11.3913C203.736 11.5057 203.705 11.6217 203.675 11.7329C203.645 11.8441 203.592 11.995 203.549 12.1253C203.42 12.3636 203.295 12.6018 203.144 12.8258C203.08 12.9212 203.008 13.0117 202.946 13.107C203.298 12.5621 203.011 13.0149 202.908 13.134C202.112 14.0523 201.141 14.8164 200.185 15.5663C197.863 17.3884 195.493 19.344 194.753 22.3482C194.435 23.6365 195.165 25.1648 196.532 25.4746C197.847 25.7733 199.326 25.0806 199.665 23.6985C199.701 23.5508 199.953 22.8867 199.824 23.1155C199.894 22.9725 199.965 22.8311 200.046 22.6929C200.128 22.5547 200.206 22.4498 200.277 22.3275L200.295 22.2973C200.177 22.507 200.425 22.1226 200.463 22.0781C200.58 21.9425 200.7 21.8107 200.822 21.6825C201.608 20.8564 202.51 20.1511 203.406 19.4489C205.341 17.9317 207.246 16.359 208.227 14.038C208.925 12.3842 208.881 10.7018 208.704 8.94162C208.658 8.49839 208.615 8.05357 208.609 7.60717C208.609 7.434 208.609 7.26243 208.621 7.08927C208.623 7.07974 208.631 7.05114 208.642 7.02096Z"
    fill="#E6332A"
  />
  <path
    d="M197.422 153.956C197.365 153.609 197.309 153.265 197.263 152.92C197.209 152.563 197.199 152.201 197.235 151.841C196.682 152 196.124 152.146 195.56 152.278C195.014 152.005 194.418 151.846 193.808 151.809C193.198 151.772 192.587 151.859 192.011 152.064C190.725 152.507 189.49 153.017 188.166 153.357C188.052 153.387 187.937 153.414 187.822 153.441C187.065 153.506 186.315 153.563 185.578 153.613C176.709 154.192 167.806 153.235 159.263 150.786C154.36 149.387 149.714 147.436 145.235 145.132L132.067 133.45C129.96 131.578 127.75 129.121 124.896 128.455C122.668 127.934 120.367 128.676 118.993 130.361C118.704 130.423 118.425 130.526 118.164 130.665C116.824 131.384 116.506 133.251 116.425 134.62C116.394 135.108 116.393 135.597 116.409 136.085C117.028 135.89 117.67 135.772 118.318 135.734C118.5 136.299 118.891 136.775 119.41 137.064L135.962 146.233C138.566 147.676 141.153 149.177 143.76 150.632L144.834 151.56C147.082 153.546 149.389 155.513 151.948 157.092C154.384 158.561 156.995 159.719 159.72 160.539C165.307 162.276 171.252 162.83 177.067 163.197C180.226 163.397 183.39 163.492 186.559 163.481C189.374 163.481 192.331 163.569 194.922 162.304C197.468 161.065 198.719 158.371 198.127 155.64C197.997 155.04 197.758 154.469 197.422 153.956Z"
    fill="#48AE4C"
  />
  <path
    d="M310.366 148.572C310.037 147.284 308.525 146.38 307.234 146.796C305.824 147.252 305.2 148.518 305.455 149.922C305.466 149.983 305.476 150.045 305.487 150.105C304.651 151.115 304.049 152.298 303.727 153.568C303.566 153.902 303.48 154.267 303.475 154.637C303.475 154.671 303.475 154.704 303.475 154.739C303.426 155.035 303.388 155.332 303.359 155.63C303.072 158.649 303.528 161.691 303.333 164.708C302.98 165.014 302.734 165.425 302.633 165.882C302.291 167.448 302.009 169.026 301.779 170.611C301.234 171.641 300.508 172.564 299.636 173.337L299.477 173.309C298.327 173.15 296.902 173.881 296.683 175.129C296.683 175.152 296.675 175.172 296.67 175.194C295.715 175.685 294.776 176.191 293.994 176.966C293.087 177.862 292.463 179.02 292.04 180.211C291.651 181.34 291.384 182.508 291.244 183.694C291.171 184.077 291.107 184.458 291.033 184.833L290.114 189.413C289.853 190.712 290.487 192.22 291.892 192.539C293.38 192.878 294.474 192.082 295.024 190.763C295.285 190.137 295.54 189.505 295.79 188.876L296.816 188.842V189.135C296.822 189.746 297.048 190.335 297.454 190.794C297.859 191.252 298.416 191.549 299.024 191.631C300.332 191.805 301.384 191.017 301.818 189.81C301.977 189.365 302.137 188.918 302.296 188.469C302.703 188.429 303.111 188.387 303.518 188.337H303.547C303.992 188.393 304.445 188.334 304.861 188.166C306.484 187.954 308.097 187.682 309.701 187.349C309.898 187.328 310.093 187.286 310.282 187.225C311.76 186.907 313.231 186.534 314.687 186.1C314.775 184.546 314.822 182.989 314.829 181.431C315.432 180.966 315.855 180.257 315.784 179.479C314.762 169.055 312.951 158.723 310.366 148.572Z"
    fill="#48AE4C"
  />
  <path
    d="M270.513 212.869C272.614 212.172 273.9 210.427 274.771 208.478C275.726 206.325 276.342 203.992 277.075 201.755L278.331 197.933C278.524 197.345 278.717 196.757 278.91 196.168C279.085 195.635 279.295 195.116 279.184 194.6C279.564 194.646 279.946 194.692 280.328 194.735C280.1 195.288 279.939 195.867 279.851 196.458C279.762 197.253 279.714 198.037 279.692 198.825C279.657 200.398 279.739 201.971 279.938 203.531C280.301 206.549 281.159 209.496 282.31 212.316C284.691 218.085 288.446 223.187 293.25 227.179C303.147 235.456 317.302 238.935 329.961 236.532C335.786 235.428 341.156 232.633 345.398 228.496C349.404 224.595 352.401 219.735 354.35 214.516C358.659 203.005 357.713 189.389 351.513 178.726C345.113 167.721 332.472 160.02 319.492 162.045C318.304 162.234 317.133 162.517 315.991 162.892C315.642 161.84 315.265 160.795 314.876 159.751C313.381 153.678 311.26 147.776 308.546 142.14C307.462 139.304 306.247 136.529 304.657 133.901C303.862 132.586 303.041 131.285 302.195 130.001C301.511 128.965 300.819 127.805 299.978 126.851C300.56 126.254 301.093 125.611 301.57 124.928C304.473 120.817 305.574 115.516 304.708 110.578C303.886 105.884 301.126 101.666 297.297 98.8571C295.446 97.497 293.357 96.4938 291.138 95.8991C290.165 95.6433 288.787 95.5194 288.432 94.4026C288.114 93.397 288.475 92.2404 288.707 91.2555C293.822 69.6216 292.681 46.9832 285.419 25.9703C284.999 24.7598 284.576 23.5508 284.134 22.3482V22.3387C284.105 22.2624 284.078 22.1798 284.049 22.1068C283.669 21.0773 282.044 21.7287 282.27 22.7565C286.051 39.8741 285.639 57.6287 283.091 74.8925C282.367 79.803 281.5 84.696 280.637 89.5826C280.631 89.6285 280.631 89.675 280.637 89.7208C279.794 89.1394 278.71 88.8789 277.632 88.8948C277.47 88.541 277.284 88.1991 277.074 87.8717C276.942 87.6683 276.801 87.4697 276.657 87.2791C277.495 85.8493 277.57 84.0605 277.02 82.4941C276.343 80.5719 274.846 79.1675 272.947 78.4542C268.887 76.9291 264.83 78.7719 261.475 81.0548C255.111 72.7637 245.735 66.8524 235.55 64.5028C233.737 63.5798 231.56 63.4892 229.62 62.8633C228.118 62.3788 226.755 61.5511 225.429 60.7186C225.219 60.5868 225.006 60.4581 224.793 60.3263C228.175 60.0895 231.603 59.3826 234.66 57.9941C235.787 57.4893 236.849 56.8491 237.821 56.0878C239.412 55.2474 240.756 53.8017 241.898 52.48C243.078 51.1006 244.108 49.5999 244.97 48.0032C249.488 45.5916 250.946 39.3705 251.559 34.5379C251.796 32.6772 251.902 30.8023 251.877 28.9268C251.861 27.9736 251.837 26.9728 251.629 26.0259C251.614 25.4318 251.323 24.809 251.131 24.2689C250.787 23.3013 250.384 22.3553 249.926 21.4364C249.645 20.8719 249.342 20.3217 249.017 19.7858C246.523 14.324 241.97 10.0077 237.06 6.62388C234.137 4.60948 230.872 3.02561 227.352 2.43464C223.867 1.85161 220.297 2.47276 216.985 3.61341C215.477 2.24621 213.684 1.23043 211.735 0.639473C209.879 0.0802719 206.86 -0.586957 205.284 0.930194C204.489 1.6991 204.216 2.83656 203.938 3.87235C203.599 5.12738 203.32 6.3967 203.091 7.67556C202.899 8.74826 202.765 9.83069 202.692 10.918C201.224 11.9638 199.863 13.1504 198.627 14.4606C194.543 18.8342 191.957 24.4135 191.044 30.3057C190.513 33.5911 190.639 36.949 191.414 40.1855C191.537 40.6764 191.685 41.1609 191.847 41.6407C191.642 41.6459 191.44 41.6885 191.25 41.7662C185.9 43.9116 180.68 46.3671 175.617 49.12C173.082 50.4989 170.613 51.9875 168.186 53.5459C166.151 54.8534 164.157 56.2196 162.314 57.7813C162.222 57.8084 162.135 57.8485 162.054 57.9004C155.254 62.4659 149.451 68.3585 144.994 75.2229C140.534 82.0558 137.455 89.6932 135.932 97.7054C135.317 100.958 134.98 104.258 134.926 107.568C128.093 99.3496 117.473 95.494 107.908 91.0998C102.271 88.5135 96.9271 85.5396 92.1876 81.5203C87.2651 77.3453 82.8168 72.5572 77.3978 68.9955C77.0795 68.7836 76.7495 68.575 76.4079 68.3695C76.1437 67.9247 75.7394 67.5625 75.2684 67.472C75.0749 67.4332 74.8793 67.4056 74.6827 67.3894C70.1628 65.0064 64.7549 63.5623 59.8977 65.3416C58.4664 65.838 57.1929 66.7047 56.207 67.8532C55.0579 69.2306 54.5725 70.9717 54.4325 72.7335C54.173 75.9759 54.5009 79.4058 54.9099 82.6196C55.6484 88.5246 57.4961 94.7568 62.1815 98.7602C67.8679 103.621 75.7172 103.407 82.7659 103.35L95.708 103.243C99.9048 103.21 104.113 103.084 108.306 103.243C115.408 103.528 123.058 105.137 127.923 110.758C128.514 111.441 129.05 112.171 129.526 112.939C126.762 112.477 123.93 112.619 121.226 113.355C117.464 114.37 113.587 116.364 111.33 119.644C109.261 122.649 109.167 126.606 111.55 129.472C112.493 130.62 113.826 131.381 115.296 131.61C114.107 134.559 114.871 138.108 115.253 141.155C113.641 141.05 112.336 142.529 111.911 144.024C111.33 146.081 111.45 148.45 111.453 150.569C111.453 151.364 111.471 152.159 111.507 152.952C109.4 153.015 107.942 155.24 107.563 157.113C107.288 158.474 107.394 159.835 107.483 161.208C107.566 162.463 107.652 163.717 107.749 164.97C103.336 166.849 99.2332 169.456 95.7892 172.754C90.3653 177.943 87.1378 184.555 84.7744 191.513C84.6779 191.676 84.6166 191.858 84.5945 192.047C84.0407 193.715 83.533 195.4 83.0556 197.091C82.7277 198.254 82.4635 199.429 82.1898 200.606C82.1472 200.778 82.1657 200.959 82.2423 201.118C82.0477 201.129 81.8644 201.213 81.7291 201.353C81.5938 201.493 81.5165 201.679 81.5127 201.874C81.5088 202.068 81.5788 202.257 81.7085 202.402C81.8381 202.548 82.018 202.639 82.2121 202.657C84.9176 202.938 87.6136 203.174 90.3192 203.382C89.9834 204.848 89.9133 206.4 89.9245 207.89C89.9203 209.755 90.086 211.616 90.4194 213.45C90.7228 215.047 91.2065 216.605 91.8613 218.092C92.0937 218.617 92.3515 219.131 92.6348 219.63C92.9075 220.287 93.2051 220.93 93.5276 221.559C96.7647 227.85 102.281 232.157 108.857 234.605C112.478 235.954 116.28 236.77 120.082 237.41C124.247 238.111 128.439 238.546 132.655 238.081C140.106 237.253 147.008 233.771 152.095 228.273C157.181 222.775 160.111 215.631 160.347 208.151C164.182 208.278 168.032 208.138 171.869 208.135C173.779 208.135 175.668 208.063 177.57 208.071C179.567 208.081 181.593 208.211 183.587 208.108C183.686 208.102 183.784 208.087 183.88 208.062C187.532 208.274 191.186 208.479 194.841 208.677C204.372 209.19 213.905 209.672 223.442 210.122L266.307 212.187C267.424 213.166 269.019 213.358 270.513 212.869ZM276.084 196.546L275.105 199.48C274.414 201.556 273.731 203.631 273.036 205.703C272.528 207.206 271.981 208.94 270.676 209.959C270.02 210.439 269.219 210.68 268.406 210.643C268.548 210.211 268.691 209.779 268.833 209.345H268.779C268.909 209.109 269.041 208.869 269.158 208.646C269.476 208.02 269.794 207.398 270.12 206.77C270.825 205.381 271.547 204 272.286 202.627C273.626 200.142 275.018 197.686 276.462 195.259C276.308 195.709 276.203 196.174 276.079 196.546H276.084ZM242.008 200.862C241.582 199.204 240.477 197.945 239.123 196.995C239.801 196.579 240.46 196.109 241.109 195.688C242.11 195.037 243.106 194.38 244.115 193.742C246.177 192.439 248.277 191.201 250.414 190.028C252.514 188.877 254.646 187.791 256.793 186.733C257.909 186.183 259.035 185.654 260.169 185.144C260.692 184.908 261.217 184.674 261.744 184.443C261.997 184.318 262.256 184.207 262.521 184.108L262.68 184.065C262.712 184.475 262.744 184.885 262.782 185.295C262.954 187.158 263.005 189.267 264.187 190.812C265.524 192.56 268.115 192.773 270.108 193.165C271.618 193.464 273.133 193.733 274.65 193.974C273.117 196.561 271.655 199.19 270.264 201.86C270.052 202.263 269.842 202.672 269.627 203.078C265.11 202.834 260.594 202.585 256.077 202.333C251.387 202.072 246.697 201.82 242.007 201.579C242.069 201.344 242.068 201.096 242.003 200.862H242.008ZM128.601 151.044C128.619 151.349 128.636 151.652 128.655 151.957C128.697 152.669 128.739 153.38 128.783 154.089C128.8 154.393 128.819 154.698 128.837 155.003L128.849 155.227C128.321 155.324 127.538 155.525 127.369 155.545C124.664 155.966 121.945 156.048 119.213 156.134C118.969 156.136 118.732 156.214 118.535 156.356C118.315 153.896 118.037 151.441 117.766 148.982C118.293 149.15 118.855 149.25 119.358 149.363C120.472 149.614 121.598 149.773 122.722 149.94C123.846 150.107 124.996 150.258 126.137 150.378C126.655 150.435 127.175 150.493 127.694 150.537C127.945 150.558 128.292 150.537 128.609 150.558C128.601 150.747 128.601 150.934 128.601 151.044ZM119.106 158.369C122.03 158.636 125.011 158.369 127.902 157.916C129.096 157.729 130.877 157.697 131.245 156.263C131.404 155.627 131.245 154.858 131.206 154.197C131.159 153.435 131.111 152.673 131.065 151.913C130.993 150.76 131.292 148.736 129.849 148.305C129.227 148.118 128.459 148.172 127.812 148.132C127.032 148.084 126.252 148.04 125.474 147.973C123.969 147.852 122.469 147.693 120.971 147.496C119.956 147.363 118.681 147.05 117.574 147.139C117.33 144.896 117.096 142.651 116.84 140.408C116.736 139.474 116.609 138.535 116.522 137.595C119.302 137.475 121.92 138.009 124.535 139.099C127.005 140.128 129.29 141.584 131.451 143.145C135.957 146.4 139.917 150.329 144.343 153.684C149.466 157.57 155.405 160.337 161.419 162.555C167.182 164.679 173.303 165.712 179.446 165.429C186.182 165.121 192.732 163.469 198.703 160.345C198.838 160.968 198.971 161.59 199.101 162.21C200.234 167.647 201.105 173.277 203.282 178.415C205.196 182.961 208.494 186.79 212.709 189.362C216.78 191.872 221.4 193.322 225.929 194.763C228.476 195.572 231.022 196.376 233.514 197.337C235.559 198.131 238.551 199.099 239.299 201.424C226.017 200.746 212.731 200.127 199.445 199.488C194.157 199.232 188.868 198.967 183.578 198.736L175.643 198.395C173.54 198.306 171.414 198.196 169.312 198.352C169.243 192.908 167.561 187.495 164.798 182.744C160.382 175.137 153.549 169.399 145.594 165.745C137.247 161.933 127.981 160.589 118.893 161.872C118.85 160.668 118.778 159.465 118.689 158.264C118.822 158.322 118.963 158.358 119.108 158.369H119.106ZM197.257 152.919C197.483 154.455 197.777 155.988 198.095 157.526C197.912 157.549 197.734 157.606 197.572 157.694C192.295 160.485 186.496 162.157 180.541 162.605C174.585 163.053 168.602 162.268 162.965 160.298C156.982 158.202 151.044 155.483 145.907 151.745C141.451 148.504 137.501 144.629 133.035 141.399C130.544 139.598 127.864 138.047 124.971 136.984C122.391 136.031 119.138 135.21 116.409 136.087C116.393 135.601 116.394 135.111 116.425 134.622C116.509 133.253 116.824 131.383 118.164 130.67C119.947 129.716 122.058 130.716 123.615 131.643C127.54 133.984 131.202 136.762 135.051 139.223C142.649 144.078 150.546 148.302 159.258 150.79C167.802 153.238 176.706 154.193 185.577 153.613C189.339 153.36 193.429 152.946 197.233 151.84C197.197 152.199 197.205 152.561 197.258 152.919H197.257ZM199.104 151.225C202.254 150.07 205.119 148.35 207.315 145.725C208.681 144.09 209.721 142.019 209.575 139.847C209.52 139.048 209.316 138.267 208.975 137.542C210.792 138.162 212.678 138.516 214.625 138.311C217.44 138.015 220.205 136.157 221.242 133.483C221.879 131.825 221.65 130.147 220.875 128.697C222.433 127.915 223.289 125.996 223.069 124.304C222.821 122.412 221.29 121.031 219.845 119.946C218.351 118.835 216.696 117.957 214.937 117.344C212.791 116.593 210.528 116.316 208.267 116.253C206.239 116.196 204.189 116.161 202.155 116.253C202.29 115.728 202.414 115.203 202.528 114.677C203.306 114.265 204.033 113.577 204.637 112.979C205.364 112.257 206.069 111.516 206.752 110.754C208.09 109.248 209.336 107.661 210.482 106.004C212.456 103.166 214.302 100.055 215.629 96.8205C215.906 96.2613 216.177 95.6973 216.434 95.1254C217.246 95.5337 218.058 95.9308 218.858 96.3344C226.319 100.071 234.063 102.891 242.393 103.901C244.67 104.179 246.961 104.332 249.254 104.359C250.451 104.371 251.647 104.35 252.843 104.295C254.041 104.239 255.364 104.268 256.504 103.898C256.658 103.849 256.804 103.778 256.938 103.687C257.178 103.666 257.415 103.642 257.654 103.623C258.692 103.54 259.723 103.437 260.761 103.305C262.688 103.058 264.595 102.674 266.468 102.158C267.494 101.871 268.567 101.54 269.633 101.148C269.643 102.252 270.568 103.18 271.565 103.723C271.565 103.723 271.565 103.734 271.565 103.739C271.651 108.724 272.449 113.706 273.316 118.607C273.751 121.06 274.222 123.506 274.729 125.945C274.984 127.162 275.249 128.38 275.525 129.599C275.659 130.204 275.796 130.813 275.936 131.419C275.966 131.559 276.003 131.697 276.047 131.833C270.193 140.878 266.115 150.952 264.033 161.518C262.749 168.015 262.24 174.64 262.516 181.257C261.343 181.333 260.181 182.04 259.126 182.528C257.992 183.04 256.867 183.57 255.751 184.116C253.523 185.217 251.336 186.423 249.2 187.7C247.064 188.977 244.964 190.329 242.912 191.745C241.886 192.452 240.867 193.164 239.877 193.921C239.043 194.557 238.126 195.221 237.38 195.987C235.446 195.033 233.401 194.315 231.358 193.635C227.172 192.242 222.889 191.116 218.793 189.467C214.902 187.899 211.092 185.813 208.381 182.537C205.3 178.815 203.925 174.025 202.822 169.412C202.097 166.36 201.434 163.292 200.753 160.233C200.395 158.644 200.01 157.055 199.639 155.467C199.458 154.699 199.28 153.929 199.092 153.162C199.006 152.809 198.85 152.437 198.807 152.075C198.778 151.816 198.762 150.89 198.982 151.727C198.983 151.732 198.985 151.737 198.988 151.74C198.992 151.744 198.996 151.747 199.001 151.748C199.005 151.75 199.011 151.75 199.015 151.749C199.02 151.748 199.025 151.745 199.028 151.741C199.095 151.675 199.139 151.589 199.153 151.496C199.167 151.403 199.15 151.308 199.104 151.225ZM218.946 126.38C216.842 124.669 214.144 123.912 211.579 123.203L200.908 120.221C201.067 119.794 201.213 119.363 201.358 118.93C205.272 119.165 209.333 118.642 213.135 119.751C214.906 120.268 216.575 121.086 218.069 122.167C219.04 122.865 220.817 124.145 220.123 125.553C219.913 125.977 219.515 126.268 219.2 126.604C219.116 126.523 219.032 126.45 218.946 126.38ZM274.75 191.408C272.508 191.052 270.246 190.671 268.039 190.137C267.353 189.969 266.571 189.778 266.129 189.171C265.766 188.661 265.632 187.989 265.551 187.336C267.803 188.788 270.757 189.351 273.307 189.735C276.617 190.236 279.977 190.328 283.317 190.461C290.234 190.734 297.181 190.846 304.07 190.064C307.613 189.686 311.118 189.01 314.547 188.043C314.471 189.019 314.388 189.991 314.272 190.963C305.619 192.54 296.815 193.14 288.028 192.752C283.58 192.554 279.147 192.106 274.75 191.408ZM287.447 216.019C287.387 215.922 287.326 215.827 287.269 215.73C287.331 215.72 287.392 215.705 287.452 215.684L287.447 216.019ZM287.819 209.444C287.808 209.539 287.799 209.635 287.788 209.728C287.788 209.552 287.775 209.376 287.77 209.199L287.864 209.274C287.842 209.328 287.827 209.386 287.819 209.444ZM290.49 204.664C289.954 204.71 289.704 205.348 289.771 205.798C289.912 206.745 290.05 207.692 290.186 208.638C289.944 208.422 289.699 208.211 289.448 208.003C288.637 207.341 287.358 206.074 286.295 206.996C285.41 207.762 285.828 209.504 285.871 210.505L286 213.417C283.662 208.799 282.342 203.735 282.13 198.565C282.104 197.898 282.112 197.232 282.114 196.565C282.096 196.006 282.038 195.449 281.94 194.898C282.617 194.963 283.295 195.025 283.971 195.078C289.346 195.502 294.742 195.562 300.125 195.257C298.799 198.058 298.651 201.11 299.32 204.038C298.501 203.589 297.745 203.035 297.071 202.39C296.96 202.273 296.82 202.186 296.666 202.138C296.512 202.09 296.348 202.083 296.189 202.117C296.031 202.15 295.885 202.224 295.763 202.331C295.642 202.437 295.55 202.573 295.497 202.726C295.109 203.89 294.943 205.116 295.008 206.341L293.541 205.547C292.535 205 291.661 204.56 290.49 204.664ZM299.402 205.982C299.265 205.964 299.125 205.973 298.99 206.006C298.977 205.941 298.966 205.876 298.954 205.812C299.103 205.873 299.253 205.931 299.404 205.982H299.402ZM297.072 207.528C297.009 207.213 296.963 206.895 296.936 206.575C296.981 206.893 297.027 207.21 297.074 207.528H297.072ZM347.56 193.389C347.721 191.787 347.812 190.182 347.832 188.574C348.912 189.556 349.969 190.562 351.004 191.592C351.443 192.032 352.057 191.734 352.157 191.178L352.535 189.073C354.415 195.996 354.415 203.293 352.535 210.216C349.869 219.827 343.377 228.914 333.717 232.414C327.698 234.594 320.911 234.673 314.647 233.655C308.834 232.714 303.285 230.562 298.36 227.338C296.082 225.833 293.983 224.075 292.104 222.096C292.29 221.43 292.229 220.603 292.271 220.007L292.414 217.983C292.823 218.368 293.236 218.749 293.654 219.125C294.356 219.761 295.271 220.873 296.302 220.204C297.128 219.662 296.977 218.337 297.031 217.503L297.157 215.56L299.067 217.219C299.574 217.662 300.528 217.652 300.73 216.864C300.967 215.937 301.156 214.999 301.296 214.053C301.854 214.529 302.45 214.958 303.079 215.336C303.588 215.641 304.452 215.47 304.597 214.802C304.685 214.405 304.772 214.008 304.855 213.601C306.913 215.622 309.33 217.298 311.857 218.668C315.123 220.434 318.658 221.573 322.385 220.769C325.649 220.066 328.568 218.139 330.944 215.852C333.501 213.413 335.594 210.532 337.124 207.348C338.423 204.626 338.938 201.596 338.612 198.598C339.008 197.745 338.894 196.558 338.956 195.666C339.015 194.859 339.059 194.048 339.102 193.237C339.552 193.758 340.041 194.245 340.565 194.693C341.136 195.18 342.09 196.187 342.93 195.888C343.818 195.57 343.614 194.088 343.665 193.362C343.711 192.695 343.753 192.026 343.792 191.36C344.543 192.368 345.467 193.235 346.52 193.921C346.621 193.982 346.736 194.017 346.854 194.021C346.972 194.025 347.088 193.998 347.193 193.944C347.298 193.889 347.387 193.809 347.451 193.711C347.515 193.612 347.553 193.499 347.561 193.381L347.56 193.389ZM346.25 176.437C346.296 177.434 346.344 178.43 346.331 179.43C346.322 179.947 346.304 180.462 346.275 180.977C346.275 181.074 346.191 181.649 346.148 182.103C345.954 181.97 345.763 181.832 345.573 181.692C345.195 181.414 344.823 181.125 344.459 180.823C343.646 180.141 342.878 179.408 342.16 178.627C341.63 178.059 340.568 178.548 340.777 179.344C341.143 180.688 341.278 182.085 341.176 183.474C339.903 182.484 338.63 181.494 337.356 180.505C336.879 180.138 336.047 180.551 336.083 181.158C336.176 182.934 336.317 184.703 336.508 186.466C335.391 185.602 334.235 184.791 333.04 184.034C332.466 183.671 331.84 184.301 332.103 184.885C332.396 185.545 332.656 186.22 332.88 186.907C329.009 182.81 322.745 179.074 317.477 181.368C317.49 176.215 317.056 171.071 316.18 165.993C327.109 161.999 339.354 167.764 346.251 176.429L346.25 176.437ZM325.336 199.273C324.954 197.966 324.177 196.698 323.485 195.602C322.594 194.191 321.646 192.815 320.641 191.472C320.177 190.853 319.703 190.245 319.218 189.646C318.663 188.963 318.088 188.17 317.211 187.915C317.297 186.776 317.362 185.635 317.407 184.493L317.482 184.442C319.587 182.902 322.452 183.498 324.664 184.442C327.168 185.517 329.346 187.39 331.102 189.441C334.646 193.583 336.564 199.238 334.734 204.554C333.764 207.369 331.963 209.987 329.975 212.18C328.113 214.245 325.928 216.084 323.324 217.127C320.58 218.226 317.77 217.921 315.09 216.809C312.387 215.664 309.881 214.102 307.664 212.18C302.87 208.017 299.773 201.482 301.497 195.181C303.545 195.043 305.59 194.852 307.632 194.606C307.976 195.364 308.385 196.104 308.787 196.83C308.888 197.01 308.993 197.188 309.095 197.365C309.965 199.544 310.901 201.693 311.969 203.782C312.272 204.429 312.619 205.056 313.007 205.657C316.541 202.705 321.172 201.285 325.337 199.266L325.336 199.273ZM310.78 156.433C311.477 158.393 312.123 160.391 312.831 162.358C313.856 167.161 314.491 172.039 314.729 176.944C314.874 180.001 314.859 183.065 314.684 186.121C308.391 187.993 301.864 188.747 295.312 188.901C293.71 188.941 292.109 188.944 290.506 188.928C290.508 188.905 290.508 188.883 290.506 188.86C290.496 188.066 290.839 187.487 290.959 186.717C291.085 185.923 291.093 185.1 291.176 184.293C291.302 182.906 291.592 181.54 292.042 180.222C292.465 179.029 293.089 177.873 293.996 176.975C295.172 175.809 296.702 175.253 298.118 174.433C301.061 172.726 302.549 169.847 303.117 166.579C303.754 162.952 303.01 159.283 303.356 155.638C303.647 152.552 305.019 149.546 307.95 148.3C308.905 151.004 309.822 153.727 310.782 156.425L310.78 156.433ZM301.662 134.12C302.998 136.36 304.261 138.637 305.245 141.056C305.953 142.804 306.612 144.551 307.25 146.329C304.505 146.915 302.496 149.433 301.5 151.961C300.029 155.695 300.766 159.808 300.658 163.705C300.574 166.724 299.862 170.197 297.077 171.882C295.597 172.78 293.972 173.382 292.637 174.511C291.403 175.552 290.506 176.894 289.855 178.362C289.136 179.973 288.779 181.733 288.567 183.476C288.452 184.319 288.39 185.167 288.38 186.018C288.38 186.993 288.817 187.834 288.809 188.782C288.807 188.824 288.807 188.866 288.809 188.908C287.591 188.884 286.374 188.852 285.158 188.811C281.883 188.701 278.59 188.617 275.326 188.307C273.557 188.145 271.802 187.855 270.074 187.44C268.47 187.049 266.966 186.407 265.403 185.91C263.828 171.105 266.689 155.867 273.1 142.459C276.548 135.231 281.064 128.561 286.497 122.672C287.167 124.665 288.165 126.498 289.736 127.88C291.41 129.354 293.654 130.033 295.85 129.432C296.755 129.177 297.61 128.769 298.377 128.226C298.745 129.056 299.208 129.856 299.635 130.639C300.279 131.809 300.976 132.957 301.664 134.112L301.662 134.12ZM293.162 99.383C295.675 100.685 297.831 102.58 299.444 104.903C300.689 106.727 301.544 108.788 301.955 110.956C302.366 113.125 302.324 115.355 301.831 117.506C301.316 119.788 300.322 121.935 298.914 123.805C298.49 124.372 298.01 124.895 297.481 125.367C297.402 125.214 297.286 125.082 297.144 124.984C297.002 124.885 296.838 124.823 296.667 124.801C296.56 124.704 296.455 124.606 296.348 124.504C296.17 124.328 295.998 124.146 295.831 123.958C295.45 123.534 295.102 123.083 294.79 122.607C294.157 121.63 293.635 120.585 293.234 119.492C292.338 117.066 291.989 114.434 291.777 111.866C291.585 109.512 291.402 107.124 291.544 104.764C291.591 103.676 291.776 102.598 292.094 101.556C292.361 100.791 292.72 100.062 293.162 99.383ZM290.297 98.2916C290.805 98.4425 291.31 98.5982 291.808 98.784C290.718 99.8516 290.106 101.418 289.791 102.878C289.342 104.967 289.371 107.085 289.444 109.206C289.604 114.091 289.922 119.204 292.559 123.481C293.214 124.572 294.017 125.568 294.946 126.439C295.027 126.512 295.105 126.588 295.194 126.658C294.773 126.774 294.336 126.816 293.901 126.784C290.215 126.503 288.902 121.382 288.392 118.464C287.434 112.946 287.113 107.336 287.437 101.745C287.463 101.307 287.495 100.868 287.527 100.43C288.267 99.4958 289.128 98.7173 290.297 98.2916ZM282.095 91.9259C282.074 91.8274 282.05 91.7352 282.023 91.6415C282.07 91.5773 282.104 91.5044 282.122 91.427C282.7 89.0838 283.226 86.6119 283.171 84.1733C284.702 77.3801 285.807 70.4979 286.478 63.5671C287.368 54.7305 287.399 45.8286 286.572 36.986C286.556 36.8144 286.537 36.6444 286.519 36.4728C287.858 42.1456 288.771 47.9105 289.249 53.7191C290.126 64.2407 289.685 74.8845 287.737 85.2679C287.274 87.7335 286.543 90.1752 286.179 92.6551C286.019 93.7369 286.01 94.8935 286.524 95.8895C286.559 95.9594 286.597 96.0262 286.637 96.0929C286.286 96.0634 285.936 96.1536 285.644 96.3487C284.429 95.4486 282.99 94.8991 281.484 94.76C282.022 93.9085 282.294 92.8695 282.093 91.9259H282.095ZM281.385 100.088C281.608 99.2711 281.625 98.4115 281.434 97.5862C281.724 97.6768 282.01 97.7784 282.284 97.8817C283.08 98.1899 283.717 98.6982 284.433 99.1637C284.559 99.2465 284.699 99.3087 284.845 99.348C284.38 104.603 284.454 109.893 285.068 115.133C285.227 116.551 285.416 118.075 285.704 119.59C282.849 122.579 280.225 125.778 277.852 129.16C277.831 129.083 277.812 129.002 277.796 128.936C277.526 127.72 277.26 126.502 277 125.283C276.501 122.9 276.009 120.517 275.543 118.116C274.639 113.471 273.87 108.775 272.689 104.189C274.242 104.635 276.031 104.492 277.522 103.99C279.356 103.367 280.888 101.995 281.385 100.088ZM277.986 89.8352C279.058 90.1895 280.026 90.8917 280.382 91.9132C280.844 93.2413 279.451 94.9951 278.056 94.3962C278.019 94.3799 277.982 94.3661 277.944 94.3549C278.434 92.8925 278.449 91.313 277.987 89.8416L277.986 89.8352ZM276.394 96.9841C276.671 96.676 276.922 96.346 277.145 95.9976C277.234 96.0884 277.338 96.1627 277.452 96.2168C277.685 96.3275 277.931 96.4066 278.184 96.4519C278.279 96.6902 278.435 96.8999 278.635 97.0604C279.348 97.6466 279.416 98.7539 279.182 99.5799C278.845 100.773 277.893 101.497 276.784 101.963C275.613 102.434 274.338 102.588 273.089 102.411C272.255 102.285 270.727 101.744 270.822 100.681C272.937 99.7928 274.936 98.6188 276.4 96.9905L276.394 96.9841ZM248.422 76.3318C248.659 75.85 248.925 75.3826 249.218 74.9322C249.606 74.5366 249.9 74.0378 250.239 73.558C250.339 73.4173 250.401 73.253 250.418 73.0814C251.777 74.0385 253.081 75.0729 254.322 76.1793C256.625 78.2386 258.705 80.5335 260.528 83.0263C260.861 83.4807 261.509 83.3695 261.896 83.0915C264.655 81.1152 268.102 79.1469 271.623 80.0937C273.085 80.4877 274.37 81.3646 275.002 82.7658C275.439 83.6956 275.5 84.7581 275.172 85.7318C273.164 84.0478 270.594 83.182 267.975 83.3075C264.802 83.4473 261.081 85.1885 259.612 88.164C258.572 85.8067 257.19 83.6152 255.51 81.6601C253.55 79.3836 251.026 77.787 248.403 76.3731C248.412 76.3599 248.421 76.3461 248.428 76.3318H248.422ZM246.257 70.4872C246.285 70.4999 246.312 70.5158 246.337 70.5301L246.222 70.6635C246.241 70.6061 246.255 70.5471 246.264 70.4872H246.257ZM245.79 74.4953C245.777 74.5922 245.766 74.6907 245.753 74.7876C245.744 74.8663 245.744 74.9457 245.753 75.0244L245.444 74.8782C245.564 74.7527 245.68 74.624 245.796 74.4953H245.79ZM240.073 68.6936C240.172 68.5036 240.199 68.2843 240.15 68.0757C240.101 67.8672 239.978 67.6833 239.804 67.5577C239.963 67.6165 240.122 67.6737 240.291 67.7357C241.793 68.3 243.264 68.9443 244.698 69.6659C244.658 69.7124 244.622 69.7624 244.591 69.8152C243.853 71.0499 243.372 72.4208 243.178 73.8456C241.399 73.0671 239.594 72.3491 237.767 71.6739C238.741 70.8367 239.572 69.8374 240.079 68.6936H240.073ZM228.498 65.0032C228.69 65.0223 228.883 65.0445 229.076 65.0667C229.208 65.1081 229.341 65.1494 229.477 65.1859C230.728 65.5243 232.023 65.672 233.266 66.0533C233.274 66.2116 233.322 66.3652 233.406 66.4997C233.423 66.5329 233.435 66.569 233.439 66.6061C232.805 67.5686 232.512 68.7161 232.609 69.8644C232.01 69.6643 231.412 69.4662 230.814 69.2703C228.69 68.5761 226.516 67.8405 224.306 67.2845C224.368 67.024 224.411 66.7428 224.465 66.433C224.562 65.8606 224.624 65.2829 224.651 64.703C225.928 64.8682 227.226 64.8745 228.504 65.0032H228.498ZM248.536 24.9457C248.971 25.149 249.194 25.6383 249.332 26.0688C249.754 27.3636 249.65 28.8458 249.608 30.1834C249.518 33.4226 249.076 36.6968 248.108 39.8042C247.365 42.1872 246.159 44.6782 243.843 45.8792C241.386 47.1501 238.461 46.6369 235.975 45.7298C233.375 44.7578 230.955 43.3621 228.813 41.5994C224.198 37.8375 221.237 31.6084 223.319 25.8019C223.575 25.902 223.833 25.9942 224.096 26.0815C225.533 26.5411 227.004 26.8885 228.495 27.1205C231.524 27.6216 234.608 27.7013 237.659 27.3572C240.779 27.0141 243.722 26.1927 246.678 25.1633C247.228 24.9679 247.964 24.674 248.536 24.9457ZM193.34 29.4415C194.39 24.3579 196.792 19.5077 200.445 15.7792C201.14 15.0746 201.875 14.4111 202.647 13.7918C202.665 14.3081 202.693 14.8244 202.741 15.3471C202.805 16.0556 203.839 15.8634 203.919 15.2454C204.191 13.15 204.517 11.0419 204.893 8.95918C205.09 7.86143 205.34 6.77162 205.626 5.69611C205.865 4.79853 206.061 3.77227 206.492 2.94459C206.908 2.15027 207.765 2.26306 208.561 2.33455C209.439 2.41767 210.303 2.60432 211.136 2.89058C212.845 3.47771 214.397 4.4465 215.674 5.72312C215.777 5.82736 215.897 5.91332 216.028 5.9773C216.083 6.13617 216.135 6.28391 216.188 6.43642L216.404 6.35222C219.359 5.24017 222.53 4.4951 225.703 4.76358C228.768 5.02412 231.636 6.2998 234.211 7.92497C239.591 11.3199 245.034 16.1271 247.177 22.2847C247.231 22.4361 247.303 22.5802 247.392 22.7136C246.146 22.8884 244.914 23.4587 243.706 23.8892C243.707 23.7436 243.68 23.5992 243.627 23.4635C242.471 20.3783 240.385 17.5505 238.039 15.255C235.715 12.97 232.942 11.1909 229.895 10.0299C229.785 9.98703 229.736 10.1538 229.84 10.1999C232.787 11.513 235.411 13.4555 237.525 15.8904C239.615 18.2988 240.963 21.0773 241.878 24.1116C241.908 24.2135 241.952 24.3108 242.008 24.4008C240.522 24.7846 239.014 25.0753 237.491 25.2713C237.183 21.0964 235.391 16.9341 231.651 14.7498C231.611 14.7241 231.563 14.7152 231.516 14.725C231.47 14.7348 231.43 14.7626 231.404 14.8022C231.378 14.8418 231.369 14.89 231.379 14.9362C231.389 14.9824 231.417 15.0227 231.456 15.0484C232.938 16.2812 233.798 18.2257 234.464 19.9923C235.15 21.7394 235.505 23.5983 235.512 25.4747C234.836 25.5234 234.157 25.5568 233.476 25.5748C233.583 24.8027 233.299 23.8606 233.108 23.2109C232.825 22.2577 232.459 21.2425 231.689 20.5705C231.667 20.5485 231.638 20.5342 231.607 20.5295C231.576 20.5249 231.544 20.5302 231.516 20.5447C231.489 20.5592 231.466 20.5821 231.452 20.6102C231.438 20.6382 231.434 20.67 231.439 20.7008C231.612 21.6206 231.967 22.4849 231.99 23.4349C231.996 23.865 231.961 24.2947 231.888 24.7185C231.84 24.9997 231.765 25.2443 231.74 25.4937C231.453 25.4429 231.188 25.4937 230.812 25.5223C230.688 25.5319 230.562 25.535 230.436 25.5366C230.217 25.5255 229.997 25.5144 229.776 25.5001C229.555 25.4858 229.319 25.4397 229.095 25.3952C227.936 25.1633 226.795 24.8138 225.655 24.5135C224.787 24.2848 223.915 24.0618 223.042 23.8447C222.49 23.7304 221.928 23.6096 221.385 23.4428C220.848 24.7214 220.433 26.0481 220.146 27.4049C220.146 27.4748 220.131 27.5431 220.125 27.6162C220.048 28.6398 220.086 29.6688 220.24 30.6838C220.512 34.7349 222.468 38.7049 225.31 41.6454C226.524 42.8881 227.866 43.9999 229.313 44.9625C229.112 45.2719 228.887 45.5646 228.64 45.8379C228.157 46.3142 227.623 46.7357 227.048 47.0945C225.921 47.8318 224.681 48.3822 223.378 48.7244C220.766 49.4091 217.751 49.425 215.147 48.672C215.132 48.6672 215.117 48.6653 215.101 48.6665C215.086 48.6677 215.071 48.672 215.057 48.679C215.043 48.686 215.031 48.6956 215.021 48.7074C215.01 48.7191 215.003 48.7327 214.998 48.7475C214.993 48.7622 214.991 48.7777 214.993 48.7931C214.994 48.8085 214.998 48.8236 215.005 48.8373C215.012 48.8511 215.022 48.8634 215.033 48.8735C215.045 48.8835 215.059 48.8912 215.074 48.896C216.506 49.4886 217.881 49.9254 219.439 50.043C220.965 50.1576 222.499 50.0506 223.994 49.7253C225.461 49.416 226.881 48.9184 228.219 48.2447C229.203 47.7379 230.392 47.0166 230.987 46.0094C231.334 46.2096 231.687 46.4002 232.042 46.5877C231.662 46.9547 231.336 47.3979 230.977 47.7792C230.341 48.4607 229.657 49.0977 228.95 49.7126C228.241 50.3334 227.469 50.8786 226.647 51.3393C225.765 51.827 224.81 52.0653 223.879 52.4275C223.744 52.48 223.828 52.7135 223.967 52.6674C225.014 52.3116 226.125 52.3894 227.196 52.1257C228.089 51.8859 228.946 51.5263 229.742 51.0565C230.571 50.5635 231.356 50.0007 232.088 49.3742C232.711 48.8642 233.618 48.2812 234.03 47.5377C234.568 47.7696 235.117 47.9793 235.672 48.1732C235.195 50.0255 234.014 52.2957 232.16 52.9534C231.923 53.0392 232.001 53.43 232.249 53.3458C233.463 52.9677 234.647 52.6627 235.647 51.8382C236.633 51.033 237.357 49.9529 237.725 48.7355C238.242 48.8437 238.764 48.9243 239.29 48.977C238.932 50.4147 238.72 51.7397 237.733 52.9311C236.683 54.202 235.26 55.1282 233.783 55.8288C230.398 57.4365 226.383 58.064 222.662 58.1228C215.037 58.2435 207.702 55.6048 201.813 50.8024C199.267 48.7371 197.015 46.2652 195.027 43.6424C194.291 42.1833 193.71 40.6508 193.296 39.0703C193.136 38.4983 192.977 37.9248 192.818 37.3498C192.818 37.3037 192.818 37.256 192.807 37.21C192.641 34.6083 192.82 31.9962 193.34 29.4415ZM117.502 102.678C113.647 101.669 109.653 101.394 105.684 101.334C101.598 101.275 97.5096 101.345 93.429 101.367C89.2911 101.389 85.1532 101.412 81.0153 101.434C77.4805 101.45 73.871 101.443 70.4143 100.628C67.2313 99.8738 64.3013 98.3789 62.1083 95.9149C60.1857 93.7576 58.9332 91.0855 58.1295 88.3308C57.286 85.4506 56.8563 82.4528 56.6494 79.4678C56.5433 77.9141 56.4797 76.3572 56.4584 74.7972C56.4393 73.064 56.4839 71.1862 57.4531 69.6786C59.0287 67.2273 62.3279 66.5648 65.0462 66.7126C66.5287 66.7998 67.9952 67.0665 69.4132 67.5069C69.262 68.5554 69.4228 69.6786 69.3989 70.7255C69.3613 72.193 69.1421 73.6502 68.7464 75.0641C67.965 77.8903 66.6281 80.548 65.9692 83.4076C65.6287 84.8914 65.226 86.7167 65.5825 88.2371C65.714 88.7845 66.0218 89.2738 66.4589 89.6297C66.8959 89.9856 67.4379 90.1884 68.0016 90.207C68.9565 90.253 69.9257 89.6557 70.5607 88.9774C71.6748 87.7938 72.3002 86.148 72.948 84.688C73.5761 83.2463 74.1296 81.7733 74.6063 80.2748C75.5678 77.2916 76.2336 74.2214 76.5941 71.1084C78.7872 72.6049 80.8418 74.3365 82.8343 76.1284C82.6962 76.1398 82.5649 76.1929 82.4577 76.2806C82.3505 76.3683 82.2726 76.4864 82.2344 76.6193C81.8683 77.9347 81.7076 79.2597 81.2508 80.5576C80.7828 81.8501 80.2211 83.1068 79.5702 84.3179C78.8795 85.6317 77.9914 86.9344 77.4503 88.3117C76.7548 90.0592 77.9675 91.7924 79.8376 91.8544C82.7723 91.9513 84.2794 88.8058 85.107 86.488C85.6251 85.0734 86.0384 83.6228 86.3436 82.1478C86.5204 81.3426 86.6459 80.5271 86.7192 79.7061C87.1213 80.0778 87.524 80.4485 87.9271 80.8181C89.3754 82.1335 90.8428 83.433 92.3674 84.661C92.3025 84.6789 92.2388 84.7007 92.1764 84.7262C91.8104 84.8755 91.8582 85.3124 92.1001 85.53C92.0125 86.7533 91.5605 87.9606 91.0147 89.0504C90.3303 90.423 89.7972 92.1038 91.0529 93.3398C91.7643 94.0451 92.7128 94.0404 93.4958 93.4573C94.6632 92.5789 95.5544 91.3855 96.0645 90.0179C96.352 89.2779 96.5212 88.4974 96.5658 87.7049C98.5851 89.0014 100.672 90.1893 102.819 91.2634C108.177 93.9768 113.776 96.1882 119.138 98.8889C124.146 101.415 129.039 104.419 132.702 108.738C133.614 109.808 134.433 110.954 135.15 112.162C135.731 113.144 137.582 112.977 137.525 111.641C137.258 105.257 138.031 98.8724 139.815 92.7361C139.885 93.2222 139.983 93.7083 140.082 94.1913C140.366 95.5857 140.77 96.9533 141.289 98.2788C141.796 99.5498 142.606 100.721 143.849 101.377C145.173 102.074 147.09 102.247 148.118 100.943C149.146 99.6387 148.423 97.7324 147.884 96.3359C147.386 95.046 146.61 93.9165 145.8 92.8028C145.078 91.8099 144.223 90.9076 143.617 89.8336C143.044 88.8185 142.574 87.7414 141.887 86.8009C141.883 86.7958 141.878 86.791 141.873 86.7866C143.395 83.0314 145.294 79.4393 147.54 76.0649C147.549 76.4351 147.562 76.8068 147.581 77.177C147.634 78.1794 147.721 79.1834 147.844 80.1795C148.062 81.9255 148.412 83.6525 148.891 85.3457C149.838 88.7491 151.282 91.9946 153.177 94.9777C154.323 96.7649 155.929 98.568 158.286 97.7578C158.773 97.6018 159.213 97.3264 159.566 96.9568C159.919 96.5871 160.174 96.135 160.307 95.6417C160.625 94.4121 160.02 93.3874 159.459 92.3485C157.653 89.0332 156.079 85.5979 154.746 82.0668C154.012 80.1188 153.404 78.1257 152.926 76.0999C152.685 75.0688 152.459 74.0473 152.275 73.0036C152.128 72.1775 151.869 71.3705 151.689 70.5539C152.198 69.9545 152.721 69.3656 153.257 68.7873C155.442 66.4169 157.824 64.2348 160.377 62.2644C160.401 62.957 160.442 63.664 160.442 64.3614C160.416 66.1817 160.485 68.0021 160.649 69.8152C160.953 72.6843 161.976 75.5629 163.908 77.7489C164.891 78.8454 166.117 79.6964 167.489 80.2335C168.475 80.6243 169.514 80.7101 170.43 80.0985C171.449 79.4265 171.756 78.2477 171.576 77.0943C171.328 75.5057 170.736 73.8948 170.201 72.3809C169.643 70.8049 169.06 69.2385 168.508 67.6594C167.882 65.9467 167.347 64.202 166.905 62.4328C166.695 61.5352 166.55 60.6233 166.388 59.7162C166.304 59.2507 166.229 58.7789 166.181 58.3087C166.181 58.2849 166.181 58.261 166.172 58.2388C166.286 58.1403 166.399 58.0434 166.515 57.9528C167.555 57.1412 168.64 56.3896 169.765 55.7017C171.408 54.6898 173.107 53.7954 174.842 52.9502C174.788 53.2489 174.755 53.5539 174.716 53.8414C174.601 54.7034 174.577 55.5751 174.645 56.442C174.775 58.2007 175.181 59.891 175.6 61.5956C176.375 64.7363 177.202 67.9041 178.576 70.8462C179.341 72.4809 180.226 74.5462 182.324 74.5525C184.689 74.5525 185.465 72.2283 185.521 70.2759C185.617 66.827 184.474 63.6243 183.134 60.4994C182.427 58.9011 181.86 57.2449 181.439 55.5492C181.232 54.6961 181.111 53.8287 180.944 52.9677C180.769 52.078 180.54 51.2202 180.481 50.321C181.913 49.6681 183.361 49.0167 184.794 48.3479C186.226 47.6791 187.614 46.996 189.013 46.2986C190.267 45.6726 191.788 45.1182 192.842 44.1761C192.911 44.2886 192.989 44.3949 193.076 44.4939C193.135 44.6527 193.194 44.8005 193.256 44.953C193.879 46.4991 194.733 47.9421 195.789 49.2328C196.843 50.5037 198.258 52.0113 199.938 52.3354C200.087 52.3608 200.239 52.3608 200.387 52.3354C206.394 57.5612 214.1 60.4289 222.068 60.4041C221.795 61.4717 221.982 62.7267 221.909 63.799C221.872 64.4866 221.799 65.1717 221.689 65.8515C221.639 66.1423 221.567 66.4107 221.513 66.6729C221.061 66.5966 220.609 66.5299 220.157 66.4775C219.656 66.4187 219.42 67.1701 219.853 67.4179C220.466 67.769 221.094 68.0883 221.736 68.387C221.875 68.5667 222.057 68.7091 222.265 68.8011C222.473 68.8932 222.701 68.9321 222.928 68.9144C224.774 69.6881 226.688 70.3236 228.558 70.9971L228.864 71.1068C227.638 72.7637 226.881 74.7606 226.27 76.7162C225.944 77.7447 225.678 78.7912 225.474 79.8506C225.215 81.2312 225.146 82.8023 226.784 83.3552C229.44 84.2527 230.763 80.9595 231.476 79.0658C231.859 78.0412 232.173 76.9919 232.415 75.9251C232.655 74.8655 232.976 73.6772 233.003 72.5635C234.386 73.0497 235.765 73.5421 237.141 74.0696L237.975 74.3952C236.508 75.7202 235.588 77.644 235.076 79.5281C234.585 81.3344 233.912 84.24 235.34 85.7842C236.295 86.82 237.886 86.7691 238.892 85.8477C239.68 85.1281 240.273 84.1002 240.768 83.1614C241.289 82.1972 241.729 81.1919 242.085 80.1557C242.443 79.0897 242.863 77.7902 242.788 76.6606C242.788 76.5828 242.774 76.5018 242.762 76.4303C243.655 76.8423 244.539 77.2728 245.416 77.7219C247.943 79.0277 250.609 80.4464 252.654 82.4544C254.922 84.6785 256.169 87.5158 257.958 90.0799C258.631 91.0458 259.868 90.6804 260.067 89.7812C260.891 88.863 261.725 87.9193 262.726 87.1981C263.976 86.2926 265.425 85.7009 266.952 85.4728C269.904 85.0471 273.111 86.2115 274.818 88.7073C276.392 91.0092 276.364 93.7544 274.274 95.7132C272.019 97.8277 268.763 99.0493 265.82 99.8437C264.029 100.313 262.208 100.657 260.369 100.872C259.414 100.989 258.459 101.078 257.505 101.138C257.21 101.157 256.913 101.169 256.615 101.18C256.502 101.142 256.386 101.117 256.268 101.103C255.289 100.987 254.277 101.157 253.292 101.208C252.307 101.259 251.299 101.288 250.301 101.291C248.408 101.297 246.516 101.217 244.626 101.049C240.787 100.71 236.988 100.013 233.279 98.9667C229.491 97.8992 225.858 96.4249 222.274 94.8029C220.598 94.0467 218.908 93.2858 217.235 92.4867C217.017 91.9227 216.312 91.6066 215.691 91.7321C214.623 91.2015 213.568 90.6518 212.535 90.0704C209.912 88.5977 207.06 86.4991 206.631 83.3043C206.534 82.5831 205.453 82.7356 205.397 83.4108C205.293 84.6432 205.525 85.8808 206.07 86.9916C206.035 86.9757 205.999 86.9614 205.965 86.9423C205.192 86.5221 204.497 85.9712 203.912 85.314C203.578 84.9767 203.281 84.6038 203.028 84.2019C202.821 83.8461 202.722 83.4473 202.491 83.1042C202.471 83.068 202.443 83.0368 202.409 83.0128C202.376 82.9888 202.337 82.9726 202.296 82.9653C202.255 82.958 202.213 82.9598 202.173 82.9706C202.133 82.9815 202.096 83.001 202.065 83.0279C200.658 84.0558 202.049 86.3879 202.894 87.2886C204.008 88.4817 205.918 89.9194 207.678 89.4667L207.777 89.4365C208.285 89.9715 208.833 90.468 209.416 90.9219C210.922 92.0756 212.526 93.0946 214.211 93.9673C212.844 97.3606 211.232 100.679 209.241 103.747C208.887 104.293 208.52 104.829 208.146 105.358C207.175 106.708 206.145 108.012 205.055 109.271C204.419 110.012 203.755 110.736 203.064 111.442L203.056 111.452C203.607 106.537 202.951 101.574 200.172 97.2796C198.103 94.0721 195.07 91.57 191.351 90.5247C187.331 89.3952 183.049 89.8797 179.19 91.3683C177.4 92.0751 175.684 92.9579 174.069 94.0038C173.968 93.9308 173.855 93.877 173.734 93.845C172.138 93.4175 170.449 93.4773 168.887 94.0165C168.151 94.2699 167.44 94.5889 166.762 94.9697C166.203 95.2874 165.416 95.6671 165.256 96.3487C165.241 96.4022 165.246 96.4598 165.271 96.5097C165.296 96.5596 165.339 96.598 165.392 96.6171C165.968 96.8395 166.573 96.5409 167.126 96.3661C167.747 96.1691 168.373 95.9769 169.011 95.8419C169.916 95.6297 170.846 95.5362 171.775 95.5639C170.184 96.7013 168.627 97.9309 167.337 99.3941C167.152 99.6038 167.351 99.9676 167.633 99.8182C169.353 98.9095 170.913 97.7355 172.566 96.7124C174.22 95.6752 175.951 94.767 177.745 93.9959C181.156 92.5566 184.988 91.7988 188.683 92.3596C188.365 92.69 188.071 93.0427 187.789 93.3684C187.102 94.18 186.469 95.036 185.895 95.9308C184.747 97.6824 183.778 99.5453 183.005 101.491C182.359 103.108 184.343 104.668 185.806 103.861C187.65 102.866 189.307 101.56 190.703 99.9993C191.417 99.2002 192.056 98.3377 192.613 97.4226C193.16 96.5155 193.79 95.4828 193.97 94.4216C195.464 95.4591 196.743 96.7747 197.737 98.2963C196.332 98.9906 195.116 100.136 194.142 101.302C192.853 102.892 191.979 104.776 191.596 106.786C191.392 107.83 191.755 108.813 192.823 109.204C194.967 109.986 197.08 108.821 198.598 107.347C199.256 106.714 199.857 106.026 200.397 105.291C200.49 105.903 200.552 106.519 200.581 107.137C200.803 111.824 199.549 116.394 197.792 120.701C197.521 121.367 197.992 122.236 198.667 122.428L207.847 125.03C210.34 125.738 212.99 126.283 215.336 127.413C216.869 128.156 218.667 129.375 218.769 131.253C218.882 133.327 216.834 134.875 215.005 135.323C212.481 135.944 209.901 134.93 207.551 133.844C207.429 133.507 207.182 133.229 206.861 133.068C201.888 130.355 196.198 129.96 190.674 129.292C188.128 128.986 185.508 128.601 183.108 127.662C182.107 127.272 181.199 126.649 180.735 125.653C180.099 124.286 180.142 122.371 180.458 120.936C180.618 120.212 179.532 119.824 179.344 120.572C178.794 122.696 178.011 125.338 179.141 127.416C179.227 127.574 179.322 127.727 179.426 127.874C168.065 125.967 156.696 124.061 145.934 119.859C143.948 119.084 141.987 118.234 140.079 117.284C138.098 116.296 136.169 115.198 134.138 114.31C133.206 113.903 132.244 113.569 131.26 113.311C128.919 107.714 123.233 104.179 117.502 102.673V102.678ZM226.997 79.5679C226.961 79.6172 226.931 79.6705 226.906 79.7267C226.781 80.0715 226.567 79.6552 226.989 79.5631L226.997 79.5679ZM112.761 122.68C114.017 119.332 117.812 117.308 121.037 116.326C124.941 115.142 128.935 115.268 132.71 116.825C134.704 117.648 136.571 118.742 138.499 119.705C140.378 120.642 142.292 121.506 144.241 122.296C159.984 128.65 177.121 129.912 193.593 133.416C195.653 133.855 197.712 134.316 199.747 134.846C201.216 135.234 202.693 135.718 204.005 136.502C205.089 137.15 206.156 138.023 206.515 139.285C207.024 141.075 205.924 142.886 204.764 144.175C202.471 146.729 199.259 148.192 195.996 149.077C192.193 150.11 188.198 150.548 184.276 150.736C175.808 151.144 167.332 150.11 159.21 147.681C150.866 145.177 143.295 141.069 135.975 136.435C134.109 135.254 132.23 134.099 130.357 132.93C128.561 131.809 126.782 130.627 124.923 129.613C123.22 128.685 121.154 127.793 119.167 128.163C118.282 128.346 117.465 128.77 116.806 129.388C116.583 129.17 116.286 129.046 115.974 129.04C112.953 128.895 111.849 125.109 112.761 122.68ZM113.686 146.543C113.744 145.06 113.888 143.385 115.462 142.951C115.961 147.12 116.477 151.285 116.985 155.454C117.252 157.656 117.621 159.826 118.046 162.001C116.977 162.173 115.912 162.385 114.852 162.636C114.852 162.063 114.669 161.467 114.572 160.889C114.412 159.936 114.271 158.976 114.15 158.01C113.91 156.081 113.756 154.145 113.687 152.202C113.619 150.323 113.611 148.431 113.686 146.543ZM111.583 154.466C111.644 155.41 111.721 156.352 111.816 157.294C111.927 158.412 112.065 159.527 112.231 160.639C112.35 161.434 112.368 162.442 112.745 163.195C111.735 163.489 110.735 163.819 109.747 164.187C109.567 162.39 109.344 160.582 109.334 158.785C109.325 156.922 109.821 155.181 111.583 154.466ZM99.2029 211.558C98.9849 213.001 98.7525 214.443 98.5456 215.887C98.5456 215.868 98.5297 215.849 98.5233 215.83C98.2861 215.102 98.0072 214.388 97.6878 213.692C97.6185 213.552 97.5102 213.434 97.3759 213.353C97.2417 213.272 97.087 213.232 96.9303 213.236C96.6447 212.925 96.3396 212.633 96.0167 212.361C95.5759 211.986 94.9679 212.448 94.9202 212.92C94.7992 214.132 94.5876 215.374 94.4252 216.617C92.9772 212.441 92.6314 207.964 93.421 203.617C96.4703 203.826 99.5228 204.001 102.575 204.163C102.563 204.378 102.567 204.599 102.575 204.81C102.603 205.778 102.716 206.743 102.911 207.692C103.076 208.526 103.292 209.349 103.559 210.157C103.475 210.231 103.41 210.325 103.371 210.43C103.332 210.535 103.319 210.648 103.334 210.759C103.409 211.714 103.369 212.674 103.215 213.619C102.434 212.694 101.589 211.825 100.685 211.02C100.113 210.519 99.3175 210.804 99.2029 211.558ZM150.465 225.092C146.412 229.941 140.598 233.256 134.424 234.506C130.801 235.24 127.124 235.131 123.47 234.675C119.892 234.227 116.308 233.598 112.823 232.635C107.931 231.281 103.312 229.062 99.8061 225.5C100.029 224.549 100.114 223.57 100.058 222.595C100.946 222.951 101.834 223.306 102.717 223.673C103.354 223.935 103.831 223.278 103.767 222.72C103.697 222.112 103.673 221.5 103.697 220.888C104.87 221.683 106.33 222.423 106.917 220.881C107.235 220.043 107.191 218.985 107.285 218.097C107.312 217.849 107.366 217.559 107.418 217.254C110.412 220.788 114.566 223.421 118.914 224.949C123.411 226.538 128.342 226.935 133.002 225.845C137.39 224.791 141.376 222.484 144.473 219.206C147.76 215.73 149.951 211.306 150.44 206.546L155.841 206.799C156.296 206.819 156.75 206.835 157.205 206.848C157.111 213.519 154.733 219.957 150.465 225.092ZM122.065 208.824C123.718 209.384 125.458 209.677 127.102 210.254C127.816 210.51 128.499 210.056 128.773 209.411C129.179 208.469 129.535 207.507 129.839 206.529C129.941 206.202 130.011 205.866 130.048 205.526L146.792 206.368L147.561 206.405C146.687 213.77 140.967 220.294 133.949 222.572C125.91 225.183 116.7 222.63 110.546 217.012C108.731 215.357 107.137 213.455 105.997 211.274C105.849 210.883 105.641 210.499 105.51 210.138L105.464 210.009C105.392 209.738 105.325 209.466 105.267 209.191C105.055 208.205 104.907 207.205 104.823 206.2C104.768 205.564 104.757 204.908 104.663 204.27C107.967 204.438 111.271 204.587 114.57 204.759L121.782 205.12C121.493 205.944 121.417 206.851 121.304 207.706C121.226 208.192 121.629 208.675 122.065 208.824ZM123.707 206.878L123.464 206.827C123.438 206.489 123.405 206.149 123.349 205.815C123.453 205.922 123.558 206.024 123.667 206.133C123.625 206.381 123.638 206.636 123.707 206.878ZM165.524 204.972C165.41 204.919 165.288 204.887 165.163 204.875C154.406 203.763 143.593 203.461 132.795 202.969L128.143 202.757C127.829 202.688 127.509 202.649 127.188 202.638C126.02 202.591 124.852 202.551 123.687 202.508C123.576 202.504 123.466 202.515 123.359 202.54C115.761 202.199 108.163 201.87 100.564 201.553C94.8947 201.321 89.2242 201.116 83.5489 201.127C83.5578 201.111 83.5658 201.094 83.5728 201.077C83.9627 199.977 84.3431 198.868 84.7235 197.758C85.968 198.466 87.4115 198.462 88.8184 198.514L93.0788 198.673C95.8353 198.775 98.5615 198.617 101.308 198.447C104.055 198.277 106.796 198.417 109.525 198.49C112.369 198.566 115.212 198.573 118.056 198.584C118.072 198.578 118.087 198.567 118.097 198.553C118.107 198.539 118.112 198.522 118.112 198.505C118.112 198.487 118.107 198.47 118.097 198.456C118.087 198.442 118.072 198.431 118.056 198.425C115.225 198.166 112.393 197.901 109.556 197.704C106.833 197.515 104.071 197.386 101.372 196.962C98.6729 196.538 95.961 196.114 93.2014 195.952L89.1049 195.71C87.8539 195.635 86.568 195.502 85.3712 195.853C85.6258 195.112 85.8831 194.37 86.1431 193.629C87.098 193.799 88.1579 193.732 89.0953 193.74C90.308 193.751 91.5239 193.791 92.7351 193.731C93.9016 193.672 95.0682 193.624 96.2364 193.503C96.8125 193.443 97.3711 193.283 97.944 193.197C98.6427 193.092 99.3557 193.06 100.061 193.003C100.086 193.001 100.11 192.99 100.128 192.972C100.145 192.954 100.156 192.93 100.157 192.905C100.158 192.88 100.15 192.855 100.134 192.835C100.118 192.815 100.095 192.802 100.07 192.798C98.8289 192.576 97.6401 192.226 96.4098 191.955C95.2385 191.694 94.0369 191.549 92.8512 191.375C91.7022 191.206 90.5404 191.132 89.385 191.032C88.6847 190.97 87.9224 190.858 87.1728 190.83C89.1033 185.776 91.4444 180.923 95.1414 176.823C100.553 170.824 107.908 166.814 115.766 165.054C132.036 161.4 150.766 167.532 160.507 181.338C165.303 188.12 167.835 196.814 165.524 204.966V204.972ZM198.468 206.047C193.17 205.825 187.872 205.593 182.57 205.412C177.877 205.253 173.2 205.172 168.508 205.163C168.88 203.713 169.124 202.234 169.235 200.741C171.042 201.035 172.872 201.126 174.707 201.251C177.03 201.41 179.36 201.502 181.687 201.625C186.446 201.877 191.206 202.101 195.966 202.33L224.209 203.674C238.93 204.371 253.652 204.958 268.378 205.58C268.281 205.779 268.182 205.976 268.086 206.176C267.744 206.891 267.413 207.606 267.084 208.33C266.947 208.632 266.786 208.936 266.648 209.247L255.364 208.708C236.4 207.798 217.437 206.835 198.468 206.041V206.047Z"
    fill="black"
  />
  <path
    d="M288.338 143.66C287.562 143.258 286.691 143.169 285.83 143.123C284.628 143.061 283.427 143.005 282.225 142.948C281.632 142.918 280.941 143.434 280.977 144.079C280.977 144.116 280.977 144.151 280.987 144.187C280.428 145.685 280.658 147.261 282.33 148.078C283.285 148.542 284.355 148.645 285.395 148.728C286.436 148.81 287.523 148.789 288.419 148.214C290.16 147.112 290.224 144.632 288.338 143.66Z"
    fill="black"
  />
  <path
    d="M234.802 121.562C239.735 121.746 244.645 122.153 249.577 122.283C254.509 122.413 259.421 122.455 264.351 122.186C265.69 122.113 265.693 120.181 264.351 120.108C259.418 119.838 254.513 119.884 249.577 120.013C244.642 120.142 239.729 120.547 234.802 120.734C234.696 120.741 234.597 120.787 234.525 120.864C234.452 120.941 234.412 121.043 234.412 121.148C234.412 121.254 234.452 121.355 234.525 121.432C234.597 121.509 234.696 121.555 234.802 121.562Z"
    fill="black"
  />
  <path
    d="M251.688 176.526C249.579 176.424 247.465 176.55 245.355 176.61C243.245 176.67 241.134 176.696 239.024 176.732C238.513 176.742 238.512 177.517 239.024 177.527C241.134 177.562 243.245 177.587 245.355 177.647C247.465 177.708 249.579 177.835 251.688 177.733C251.848 177.733 252.002 177.669 252.115 177.556C252.229 177.443 252.292 177.29 252.292 177.129C252.292 176.969 252.229 176.816 252.115 176.703C252.002 176.589 251.848 176.526 251.688 176.526Z"
    fill="black"
  />
  <path
    d="M246.14 28.1437C246.287 30.7538 246.036 33.371 245.395 35.9058C244.733 38.4476 243.658 40.7718 242.417 43.0737C242.013 43.8252 243.1 44.5559 243.542 43.8045C246.248 39.2197 247.227 33.4355 246.81 28.1755C246.776 27.7561 246.117 27.7068 246.14 28.1437Z"
    fill="black"
  />
  <path
    d="M239.589 34.3185C239.355 36.7372 238.631 39.0831 237.46 41.2132C237.218 41.6644 237.883 42.1028 238.133 41.6501C239.357 39.3994 240.053 36.9007 240.168 34.3423C240.186 33.9738 239.622 33.9515 239.589 34.3185Z"
    fill="black"
  />
  <path
    d="M209.755 36.6334C209.118 36.2331 208.294 35.8026 207.527 35.7311C206.987 35.6802 206.487 36.3665 206.81 36.8431C207.237 37.4786 207.95 37.9901 208.614 38.3666C208.846 38.5089 209.124 38.5567 209.39 38.5003C209.657 38.4438 209.892 38.2874 210.046 38.0632C210.192 37.8337 210.244 37.5563 210.19 37.2896C210.135 37.0228 209.979 36.7876 209.755 36.6334Z"
    fill="black"
  />
  <path
    d="M203.051 37.4657C204.595 37.3434 206.234 36.503 207.03 35.1352C207.594 34.1661 207.707 32.9921 207.226 32.0278C207.124 30.9031 206.864 29.7982 206.454 28.7457C206.435 28.6949 206.363 28.7282 206.368 28.7775V28.8029C206.05 28.9506 205.717 29.1031 205.413 29.2795C205.027 29.5202 204.676 29.8132 204.371 30.1501C203.79 29.9551 203.176 29.8826 202.566 29.9373C201.956 29.992 201.364 30.1727 200.828 30.4678C200.449 30.3185 200.063 30.1882 199.693 30.0134C199.417 29.8771 199.151 29.7204 198.898 29.5448H198.88C198.928 30.0087 199.006 30.5075 199.023 30.9952C199.014 31.0937 198.995 31.189 198.995 31.2923C198.987 31.3464 198.995 31.4017 199.019 31.4512C199.019 31.5131 199.007 31.5735 198.999 31.6339C198.64 32.1351 198.443 32.7346 198.436 33.3512C198.298 34.1042 198.552 34.908 199.015 35.5864C199.921 36.9399 201.458 37.5928 203.051 37.4657Z"
    fill="black"
  />
  <path
    d="M183.953 148.288C188.047 149.344 192.272 148.434 196.136 146.969C199.502 145.698 203.616 143.598 203.44 139.377C203.379 137.947 201.14 137.833 201.212 139.269C201.371 142.773 197.418 144.194 194.75 145.258C191.317 146.623 187.869 148.291 184.087 147.641C183.702 147.571 183.589 148.194 183.953 148.288Z"
    fill="black"
  />
  <path
    d="M199.44 36.684C198.726 36.2677 197.733 37.1081 197.212 37.545C197.121 37.6301 197.049 37.7336 197 37.8486C196.952 37.9636 196.928 38.0875 196.931 38.2122C196.934 38.337 196.963 38.4596 197.017 38.5723C197.071 38.6849 197.148 38.7849 197.243 38.8657C197.338 38.9465 197.449 39.0064 197.569 39.0412C197.689 39.0761 197.815 39.0853 197.939 39.0681C198.063 39.051 198.182 39.0079 198.288 38.9417C198.394 38.8755 198.484 38.7877 198.554 38.6841C198.606 38.611 198.661 38.5411 198.713 38.4712C198.739 38.4296 198.771 38.3917 198.807 38.3584C198.939 38.2122 199.081 38.0804 199.221 37.9422C199.518 37.6546 199.989 37.0064 199.44 36.684Z"
    fill="black"
  />
  <path
    d="M153.511 40.6207C155.576 40.6355 157.64 40.6487 159.704 40.6604C161.819 40.6699 163.945 40.7494 166.055 40.6032C166.246 40.6032 166.43 40.5274 166.565 40.3924C166.7 40.2575 166.776 40.0744 166.776 39.8835C166.776 39.6927 166.7 39.5096 166.565 39.3747C166.43 39.2397 166.246 39.1639 166.055 39.1639C162.376 38.9081 158.629 39.1099 154.94 39.1337L143.825 39.21C136.468 39.2592 129.112 39.2815 121.754 39.3164C107.04 39.3874 92.3263 39.4345 77.6124 39.4578C69.2995 39.4853 60.9897 39.5658 52.6831 39.6993C52.6342 39.6993 52.5872 39.7187 52.5526 39.7532C52.518 39.7878 52.4985 39.8347 52.4985 39.8835C52.4985 39.9324 52.518 39.9793 52.5526 40.0139C52.5872 40.0484 52.6342 40.0678 52.6831 40.0678C67.4491 40.2855 82.215 40.3315 96.9841 40.3586C111.698 40.3856 126.413 40.4729 141.126 40.5428C145.254 40.5619 149.383 40.5878 153.511 40.6207Z"
    fill="black"
  />
  <path
    d="M154.988 196.793C154.245 197.496 154.477 198.676 154.127 199.556C154.121 199.577 154.123 199.6 154.132 199.62C154.141 199.64 154.157 199.657 154.177 199.666C154.197 199.676 154.22 199.678 154.241 199.672C154.263 199.667 154.281 199.654 154.294 199.636C154.432 199.409 154.545 199.168 154.63 198.917C154.635 198.924 154.642 198.929 154.649 198.933C155.427 199.21 156.293 199.216 157.111 199.269C158.023 199.327 158.965 199.51 159.876 199.477C159.963 199.473 160.049 199.449 160.125 199.407C160.102 199.831 160.092 200.255 160.297 200.638C160.425 200.879 160.83 200.938 160.972 200.67C161.276 200.096 161.189 199.467 161.2 198.829C161.209 198.3 161.266 197.74 160.947 197.284C160.359 196.45 159.037 196.547 158.15 196.471C157.164 196.387 155.798 196.029 154.988 196.793ZM160.027 198.122C160.054 198.191 160.077 198.262 160.094 198.334C159.151 198.125 158.13 198.19 157.168 198.241C156.336 198.285 155.446 198.368 154.698 198.755C154.791 198.466 154.92 198.19 155.08 197.933C155.639 197.103 156.801 197.442 157.638 197.546C158.104 197.604 158.569 197.661 159.035 197.721C159.417 197.767 159.869 197.74 160.027 198.122Z"
    fill="black"
  />
  <path
    d="M151.347 196.773C151.192 197.608 151.11 198.456 151.103 199.305C151.103 199.806 151.899 199.849 151.884 199.345C151.856 198.474 151.749 197.607 151.566 196.755C151.542 196.622 151.359 196.657 151.347 196.773Z"
    fill="black"
  />
  <path
    d="M145.848 196.042C145.764 196.063 145.689 196.109 145.634 196.175C145.578 196.241 145.545 196.323 145.539 196.409C145.549 197.44 145.633 198.469 145.789 199.488C145.791 199.497 145.796 199.505 145.804 199.51C145.791 199.654 145.835 199.798 145.926 199.911C146.516 200.586 147.806 200.333 148.55 200.044C149.383 199.726 149.983 199.091 149.738 198.153C149.34 196.628 147.339 195.54 145.848 196.042ZM146.069 199.111C145.996 199.14 145.932 199.19 145.888 199.254C145.972 198.443 146.09 197.632 146.254 196.833C147.137 196.895 147.995 197.184 148.482 198.009C149.268 199.378 146.664 198.876 146.069 199.111Z"
    fill="black"
  />
  <path
    d="M122.439 118.675C126.417 117.673 130.78 119.59 134.228 121.425C135.941 122.339 137.602 123.341 139.313 124.253C140.189 124.722 141.078 125.168 141.987 125.569C142.896 125.969 143.952 126.49 144.96 126.241C145.639 126.072 145.959 125.206 145.455 124.676C144.75 123.932 143.639 123.723 142.706 123.381C141.736 123.017 140.784 122.604 139.842 122.167C137.957 121.292 136.116 120.324 134.208 119.498C132.324 118.659 130.328 118.095 128.283 117.824C126.214 117.568 124.361 117.824 122.394 118.459C122.256 118.493 122.297 118.706 122.439 118.675Z"
    fill="black"
  />
  <path
    d="M142.288 196.555C142.025 197.253 142.468 199.351 141.034 199.067C140.004 198.865 139.489 197.447 139.579 196.538C139.598 196.354 139.333 196.32 139.271 196.482C138.741 197.869 139.415 199.791 141.055 200.017C141.807 200.12 142.487 199.699 142.878 199.064C143.291 198.398 143.458 197.188 143.076 196.489C143.035 196.416 142.974 196.357 142.9 196.318C142.827 196.279 142.743 196.262 142.66 196.269C142.577 196.276 142.498 196.307 142.432 196.358C142.366 196.408 142.316 196.477 142.288 196.555Z"
    fill="black"
  />
  <path
    d="M137.423 69.6755C136.468 69.6882 135.513 69.7057 134.558 69.7391C132.542 69.8121 130.529 69.8831 128.52 69.9519C124.547 70.0917 120.575 70.1807 116.601 70.2188C116.133 70.2188 116.124 70.9401 116.601 70.9448C120.576 70.9861 124.549 71.0756 128.52 71.2133L134.399 71.4198C135.354 71.4548 136.309 71.4739 137.264 71.4866C138.296 71.5009 139.32 71.5819 140.326 71.3086C141.043 71.1148 141.045 70.0504 140.326 69.855C139.367 69.5961 138.406 69.6628 137.423 69.6755Z"
    fill="black"
  />
  <path
    d="M137.036 196.072C135.352 195.963 133.671 195.858 132.018 196.231C131.79 196.282 131.741 196.662 131.994 196.708C132.933 196.894 133.884 197.019 134.84 197.081C134.579 197.885 134.462 198.954 134.929 199.645C135.075 199.861 135.471 199.84 135.473 199.526C135.473 199.108 135.314 198.714 135.273 198.298C135.231 197.904 135.222 197.508 135.244 197.113C135.822 197.156 136.401 197.195 136.979 197.253C137.739 197.337 137.803 196.125 137.036 196.072Z"
    fill="black"
  />
  <path
    d="M127.057 197.529C126.913 197.52 126.77 197.495 126.631 197.453L126.402 197.445C126.304 197.227 126.209 197.005 126.113 196.787C126.309 196.77 126.505 196.766 126.701 196.776C127.076 196.764 127.446 196.73 127.815 196.686C128.647 196.589 129.451 196.441 130.272 196.276C130.297 196.269 130.319 196.253 130.334 196.231C130.349 196.21 130.356 196.184 130.354 196.157C130.352 196.131 130.341 196.107 130.322 196.088C130.304 196.069 130.279 196.058 130.253 196.055C129.465 196.025 128.695 196.004 127.906 196.037C127.269 196.066 126.486 196.038 125.883 196.265C125.28 196.492 125.087 197.15 125.622 197.596C125.961 197.882 126.505 197.885 126.92 197.934L127.005 197.944L128.181 198.079C128.486 198.112 129.102 198.052 129.368 198.195C130.676 198.894 129.05 198.888 128.805 198.903C128.42 198.93 128.033 198.942 127.646 198.949C126.868 198.965 126.098 198.94 125.321 198.975C125.275 198.975 125.23 198.991 125.194 199.02C125.159 199.05 125.135 199.091 125.127 199.136C125.118 199.182 125.126 199.229 125.149 199.269C125.172 199.309 125.208 199.34 125.251 199.356C126.65 199.798 128.146 199.763 129.589 199.553C130.385 199.439 131.181 198.772 130.463 197.965C129.677 197.078 128.165 197.618 127.057 197.529Z"
    fill="black"
  />
  <path
    d="M77.4073 160.732C72.34 160.314 67.2424 160.457 62.1608 160.485C57.1841 160.512 52.2075 160.571 47.2309 160.614C37.1705 160.703 27.1117 160.805 17.0545 160.921L8.79462 161.013C5.92992 161.044 3.07796 161.221 0.218035 161.262C0.160209 161.262 0.104751 161.285 0.0638611 161.326C0.0229715 161.367 0 161.422 0 161.48C0 161.537 0.0229715 161.593 0.0638611 161.634C0.104751 161.674 0.160209 161.697 0.218035 161.697C5.29969 161.772 10.3813 161.964 15.4662 162.015L30.3944 162.174C40.4548 162.285 50.5142 162.377 60.5724 162.449C66.1777 162.498 71.818 162.674 77.4073 162.215C77.5877 162.192 77.7533 162.103 77.8733 161.967C77.9933 161.83 78.0594 161.655 78.0594 161.473C78.0594 161.292 77.9933 161.116 77.8733 160.98C77.7533 160.843 77.5877 160.755 77.4073 160.732Z"
    fill="black"
  />
  <path
    d="M74.5411 121.217C71.7703 120.803 68.9835 120.957 66.1873 120.982C63.347 121.008 60.5062 121.043 57.6648 121.087C51.9853 121.178 46.3042 121.255 40.6214 121.319C40.0612 121.319 40.0596 122.186 40.6214 122.193C46.3031 122.251 51.9842 122.329 57.6648 122.426C60.5062 122.472 63.347 122.507 66.1873 122.531C68.9835 122.556 71.7703 122.709 74.5411 122.296C75.0758 122.207 75.0758 121.29 74.5411 121.217Z"
    fill="black"
  />
  <path
    d="M25.6309 217.648C27.2638 217.713 28.903 217.713 30.5375 217.746C33.8627 217.809 37.1868 217.87 40.5098 217.932C47.0525 218.054 53.5967 218.107 60.1394 218.134C63.8953 218.15 67.629 218.11 71.3786 217.879C72.6884 217.798 72.69 215.929 71.3786 215.846C64.7929 215.439 58.1866 215.576 51.5914 215.655C45.0472 215.735 38.504 215.834 31.9619 215.952L26.4267 216.059C24.5169 216.094 22.6309 216.35 20.7275 216.536C20.6414 216.536 20.5588 216.57 20.4979 216.63C20.437 216.691 20.4028 216.774 20.4028 216.86C20.4028 216.946 20.437 217.028 20.4979 217.089C20.5588 217.15 20.6414 217.184 20.7275 217.184C22.3588 217.346 23.9821 217.576 25.6309 217.648Z"
    fill="black"
  />
</svg>
