<svg
  width="39"
  height="26"
  viewBox="0 0 39 26"
  fill="none"
  xmlns="http://www.w3.org/2000/svg"
>
  <path
    d="M2.15683 4.01962C2.65415 4.03581 3.15307 4.05971 3.64885 4.02964C4.039 4.00573 4.42912 3.98184 4.81927 3.95794C5.03439 3.96333 5.24948 3.96641 5.46306 3.96564C6.53558 3.96179 7.60349 3.95022 8.67524 3.90936C10.7679 3.82917 12.8597 3.75129 14.9516 3.65645C19.1885 3.46369 23.4292 3.34187 27.67 3.29021C30.0718 3.26091 32.4735 3.2717 34.8753 3.23315C35.5793 3.22159 36.2547 2.62172 36.2215 1.88691C36.1884 1.14054 35.6301 0.561481 34.8753 0.540663C30.5875 0.42038 26.2859 0.526793 21.9989 0.646305C17.7574 0.764275 13.5159 0.92388 9.28748 1.28164C8.0569 1.38574 6.83707 1.51681 5.61343 1.68413C5.01278 1.76586 4.42066 1.8684 3.82542 1.98791C3.53088 2.04728 3.23553 2.11514 2.95333 2.22C2.66341 2.32717 2.43367 2.5076 2.16843 2.6595C2.00728 2.75125 1.93941 2.89698 1.94095 3.04425C1.62406 3.11904 1.39046 3.28867 1.43518 3.67419C1.48222 4.07205 1.86923 4.01037 2.15683 4.01962Z"
    fill="#39B100"
  />
  <path
    d="M33.7297 0.643951C31.3425 0.704092 28.957 0.814347 26.5706 0.889909C23.7802 0.977808 20.989 1.02253 18.2002 1.1405C16.3435 1.21837 14.4922 1.40574 12.6363 1.51754C11.5429 1.58385 10.4449 1.5746 9.35159 1.64168C6.70074 1.80514 4.05299 2.00176 1.40291 2.16908C0.435252 2.23076 0.169241 2.56385 0.400555 3.513C0.565558 4.18998 0.828466 4.85924 0.88321 5.54547C1.1577 8.9851 1.37516 12.4294 1.62112 15.8721C1.67587 16.6323 1.73213 17.3964 1.8501 18.149C2.18474 20.2871 2.33284 22.436 2.28427 24.5987C2.26807 25.3482 2.40837 25.5448 3.17247 25.615C3.8641 25.679 4.56496 25.716 5.25813 25.6828C6.88272 25.6065 8.50578 25.4885 10.1281 25.3736C13.0071 25.1709 15.8847 24.9596 18.763 24.7491C19.7569 24.6766 20.7507 24.6088 21.7423 24.517C23.5905 24.3451 25.4356 24.1307 27.2854 23.9835C29.3047 23.8223 31.3279 23.7005 33.3512 23.5941C34.4399 23.537 35.5309 23.4183 36.615 23.746C37.3182 23.9588 37.6821 23.6396 37.7091 22.8909C37.7168 22.6596 37.6821 22.4267 37.6651 22.1946C37.544 20.54 37.4292 18.8853 37.2997 17.2314C37.1069 14.7841 36.8787 12.3399 36.7114 9.89185C36.5425 7.4168 36.1323 4.93018 37.0128 2.48828C37.1423 2.12898 37.211 1.81979 37.5957 1.64399C37.982 1.46742 38.2365 1.16981 38.08 0.637014C36.6358 0.637014 35.1816 0.60694 33.7297 0.643951ZM1.43762 3.67339C1.38442 3.21461 1.72521 3.0604 2.13232 3.01028C2.69209 2.94166 3.24653 2.82214 3.80708 2.77742C5.58896 2.63555 7.37155 2.50371 9.15574 2.39499C10.7765 2.2963 12.4003 2.24618 14.0218 2.1498C16.5046 2.00253 18.9858 1.80283 21.4701 1.68563C23.0931 1.6093 24.7224 1.65324 26.3478 1.62086C28.8359 1.57228 31.3225 1.50135 33.8107 1.44661C34.4661 1.43196 35.123 1.44429 35.8393 1.44429C35.8393 1.71493 35.8393 1.92388 35.8393 2.22921C34.8924 2.22921 34.0058 2.21379 33.1206 2.2323C30.9324 2.27779 28.7434 2.30863 26.5575 2.40656C25.3022 2.46284 24.0546 2.66177 22.8001 2.75584C19.8254 2.97867 16.8493 3.18609 13.873 3.38347C10.4658 3.61016 7.05855 3.82296 3.65054 4.03037C3.15475 4.06044 2.65584 4.03655 2.15852 4.02036C1.87015 4.0111 1.48312 4.07279 1.43762 3.67339ZM36.5887 18.5877C36.6427 19.4813 36.7946 20.3688 36.8532 21.2624C36.9273 22.3805 36.6065 22.6588 35.5039 22.7128C33.1507 22.8277 30.7998 22.9772 28.4496 23.1322C26.8273 23.2394 25.2058 23.3597 23.5874 23.5108C21.0768 23.746 18.5718 24.0289 16.0613 24.2579C14.6395 24.3883 13.213 24.4769 11.7866 24.5401C9.46649 24.6442 7.1449 24.726 4.82329 24.783C4.33753 24.7954 3.84868 24.6604 3.34596 24.5918C3.29738 24.2911 3.19867 24.0544 3.23414 23.8408C3.47779 22.3974 3.16094 20.998 2.93965 19.5908C2.6189 17.5545 2.57261 15.4997 2.44924 13.4479C2.30197 10.9998 2.02823 8.56026 1.81388 6.11605C1.78227 5.75983 1.77459 5.40052 1.75146 4.96719C2.71218 4.86464 3.59579 4.76132 4.4825 4.67805C4.9112 4.63795 5.34373 4.64104 5.77475 4.61637C8.98846 4.43286 12.2029 4.26786 15.4143 4.05659C18.2602 3.87 21.1023 3.61324 23.9483 3.41894C27.0926 3.20382 30.2346 2.84836 33.3943 3.10512C34.1484 3.1668 34.9002 3.25856 35.6627 3.3372C35.6974 3.54538 35.7344 3.67107 35.7375 3.79752C35.766 5.18849 35.7368 6.5833 35.8285 7.97041C35.9496 9.78776 36.1994 11.5966 36.3312 13.414C36.4569 15.1357 36.4854 16.8644 36.5887 18.5877Z"
    fill="#251C1C"
  />
  <path
    d="M21.4687 8.89316C20.8734 7.70113 19.8309 7.57853 18.7546 7.40813C18.5603 7.37729 18.3575 7.40427 18.1586 7.40427C17.0753 7.28167 16.0675 7.48677 15.0852 7.98332C12.7759 9.14991 11.8854 12.0945 12.1452 14.2704C12.1953 14.6891 12.2933 15.134 12.4945 15.4972C13.0396 16.4802 13.8538 17.2012 14.8917 17.6514C15.6218 17.9683 16.3497 18.2953 17.0946 18.5744C18.5333 19.1133 19.9829 19.0463 21.3384 18.3623C24.4974 16.7678 24.4758 13.0221 23.1118 10.9989C22.6152 10.261 21.858 9.67346 21.4687 8.89316ZM22.8087 15.6143C22.4911 16.8688 20.8372 18.067 19.4069 18.1187C17.9195 18.1727 16.6219 17.5759 15.3782 16.8766C14.8114 16.5581 14.3196 16.0909 13.8346 15.6475C12.9695 14.8564 12.7821 13.8402 12.9949 12.733C13.0944 12.2125 13.2201 11.6944 13.3805 11.1901C13.924 9.47453 15.3866 8.32721 17.187 8.17686C17.4515 8.1545 17.716 8.13445 17.9804 8.11363C17.9835 8.09513 17.9866 8.07662 17.9897 8.05811C18.4454 8.12134 18.9134 8.14216 19.3537 8.26244C19.7315 8.36499 19.9906 8.60864 20.1949 9.01575C20.4679 9.56088 20.8865 10.0721 21.3492 10.4769C22.9606 11.8871 23.3122 13.6266 22.8087 15.6143Z"
    fill="#251C1C"
  />
  <path
    d="M20.1767 11.9982C19.2137 11.4107 18.2468 10.8285 17.2653 10.2726C17.0301 10.1392 16.5767 9.97885 16.4942 10.0714C16.3069 10.2811 16.2135 10.6419 16.2158 10.9403C16.222 11.6636 16.3038 12.3853 16.3554 13.1077C16.3069 13.1101 16.2582 13.1124 16.2097 13.1139C16.2097 13.612 16.1873 14.1109 16.2151 14.6074C16.2567 15.3561 16.7132 15.5658 17.3586 15.1556C18.3093 14.5519 19.263 13.9536 20.2091 13.3421C20.9038 12.8926 20.8945 12.4362 20.1767 11.9982ZM17.3123 14.0183C17.3123 13.1471 17.3123 12.4076 17.3123 11.5071C18.0332 11.8995 18.6215 12.2203 19.27 12.5734C18.8459 13.4177 18.051 13.5819 17.3123 14.0183Z"
    fill="#251C1C"
  />
</svg>
