<svg
  width="348"
  height="200"
  viewBox="0 0 348 200"
  fill="none"
  xmlns="http://www.w3.org/2000/svg"
>
  <path
    d="M79.8243 178.902C78.0243 175.002 76.3243 170.802 73.9243 167.202C73.5243 166.602 72.7243 166.602 72.2243 166.902C70.7243 165.102 68.4243 163.502 66.9243 162.702C66.2243 162.402 65.6243 162.702 65.3243 163.202C61.7243 163.002 58.1243 162.702 54.4243 162.702C54.3243 162.602 54.3243 162.602 54.2243 162.502C52.4243 160.802 50.7243 159.102 48.0243 159.802C46.1243 160.302 44.2243 161.702 42.6243 163.102C39.6243 163.402 36.7243 163.902 33.8243 164.702C31.6243 165.302 27.5243 166.002 26.5243 168.602C26.2243 168.702 26.0243 168.802 25.8243 169.102L18.0243 181.802C17.7243 182.302 17.9243 183.102 18.4243 183.402C31.4243 191.202 46.5243 196.702 61.8243 193.602C68.2243 192.302 74.6243 189.502 79.4243 184.902C81.7243 182.802 81.1243 181.702 79.8243 178.902ZM67.3243 165.702C68.8243 166.602 70.6243 168.002 70.8243 169.302C71.3243 172.302 67.0243 172.602 65.3243 172.902C64.9243 173.002 64.6243 173.002 64.2243 173.102C64.4243 172.702 64.3243 172.302 63.9243 171.902C61.5243 169.602 59.2243 167.302 56.8243 165.102C60.4243 165.202 63.8243 165.402 67.3243 165.702ZM39.1243 170.902C39.2243 170.902 39.2243 170.902 39.1243 170.902C39.6243 170.502 40.2243 170.102 40.7243 169.702C40.5243 169.902 40.4243 170.202 40.2243 170.402C40.1243 170.602 40.0243 170.802 40.0243 171.002C39.8243 171.002 39.6243 170.902 39.4243 170.902C39.3243 170.902 39.2243 170.902 39.1243 170.902ZM50.7243 166.102C50.3243 166.402 49.9243 166.802 49.6243 167.102C50.2243 166.402 50.7243 165.702 51.3243 164.902C51.5243 164.902 51.7243 164.902 51.8243 164.902C51.4243 165.402 51.0243 165.702 50.7243 166.102ZM38.3243 173.002C38.4243 173.002 38.6243 173.102 38.8243 173.202C39.3243 173.302 39.8243 173.402 40.3243 173.602C39.6243 173.502 38.9243 173.402 38.2243 173.202C38.3243 173.102 38.3243 173.102 38.3243 173.002ZM60.8243 173.402C61.1243 173.102 61.2243 172.802 61.2243 172.402C61.6243 172.802 61.9243 173.102 62.3243 173.502C61.6243 173.602 61.0243 173.702 60.3243 173.802C60.4243 173.602 60.6243 173.502 60.8243 173.402ZM30.6243 168.202C31.5243 167.302 34.7243 166.902 35.9243 166.602C37.2243 166.302 38.5243 166.102 39.8243 165.802C38.8243 166.802 38.0243 167.902 37.3243 169.202C37.1243 169.402 36.9243 169.602 36.7243 169.802C36.3243 170.202 36.3243 170.602 36.5243 171.002C36.3243 171.402 36.2243 171.902 36.1243 172.402C36.1243 172.502 36.1243 172.602 36.1243 172.702C35.2243 172.502 34.3243 172.302 33.3243 172.002C31.5243 171.602 27.7243 171.202 30.6243 168.202ZM77.8243 183.302C77.2243 184.502 75.3243 185.402 74.3243 186.102C69.1243 189.602 63.0243 191.502 56.8243 192.102C44.0243 193.302 31.6243 188.502 20.7243 182.102C22.8243 178.602 25.0243 175.202 27.1243 171.702C28.3243 173.202 30.9243 173.902 32.6243 174.402C43.0243 177.202 54.0243 177.602 64.5243 175.502C67.1243 175.002 72.7243 174.602 73.5243 171.402C74.4243 173.202 75.2243 175.002 76.1243 176.802C77.1243 178.602 78.9243 181.002 77.8243 183.302Z"
    fill="#251C1C"
  />
  <path
    d="M30.624 174.801C28.824 174.301 26.624 174.901 25.424 176.401C24.224 177.801 23.924 180.001 24.824 181.601C25.824 183.201 27.524 184.001 29.224 183.501C29.524 183.501 29.724 183.401 30.024 183.201C30.824 182.801 30.624 181.701 29.924 181.201C29.624 181.001 29.024 181.001 28.724 181.201C27.824 181.601 26.824 180.701 26.624 179.901C26.424 179.201 26.724 178.301 27.224 177.801C27.724 177.301 28.524 177.001 29.224 177.001C29.524 177.001 31.124 177.401 30.924 177.901C30.424 179.301 32.724 179.901 33.224 178.501C33.924 176.701 32.224 175.201 30.624 174.801Z"
    fill="#251C1C"
  />
  <path
    d="M38.2225 180.302C39.6225 180.902 40.7225 178.902 39.4225 178.302C38.6225 177.902 37.8225 177.602 37.0225 177.202C36.4225 177.002 35.7225 177.002 35.4225 177.602C34.8225 178.802 34.2225 180.002 33.7225 181.202C33.3225 182.202 32.6225 183.202 32.3225 184.202C31.9225 186.202 34.5225 186.502 35.9225 187.002C37.3225 187.502 37.9225 185.202 36.5225 184.702C35.9225 184.502 35.3225 184.402 34.8225 184.102C35.0225 183.802 35.2225 183.302 35.2225 183.302C35.3225 183.102 35.4225 183.002 35.4225 182.802C36.0225 183.102 36.7225 183.402 37.4225 183.602C38.0225 183.802 38.7225 183.402 38.8225 182.802C39.0225 182.202 38.6225 181.502 38.0225 181.402C37.4225 181.202 36.9225 181.002 36.4225 180.702C36.6225 180.302 36.8225 180.002 36.9225 179.602C37.4225 179.902 37.8225 180.102 38.2225 180.302Z"
    fill="#251C1C"
  />
  <path
    d="M71.5234 177.502C72.7234 176.702 71.7234 174.602 70.5234 175.402C69.8234 175.902 69.0234 176.402 68.3234 176.902C67.8234 177.202 67.4234 177.902 67.8234 178.502C68.5234 179.702 69.2234 180.802 69.9234 181.902C70.5234 182.802 71.0234 183.902 71.7234 184.702C73.2234 186.202 74.8234 184.202 76.0234 183.202C77.2234 182.302 75.6234 180.502 74.5234 181.502C74.0234 181.902 73.6234 182.302 73.1234 182.702C72.9234 182.402 72.7234 181.902 72.7234 181.902C72.6234 181.702 72.5234 181.602 72.4234 181.402C73.0234 181.102 73.6234 180.602 74.2234 180.202C74.7234 179.802 74.7234 179.002 74.3234 178.602C73.9234 178.102 73.1234 178.102 72.7234 178.502C72.2234 178.902 71.8234 179.202 71.2234 179.502C71.0234 179.102 70.8234 178.802 70.6234 178.402C70.7234 178.002 71.1234 177.702 71.5234 177.502Z"
    fill="#251C1C"
  />
  <path
    d="M48.7232 179.602C46.8232 177.602 42.8232 177.502 41.6232 180.402C41.0232 181.802 41.7232 183.202 42.8232 184.102C43.3232 184.502 44.7232 185.002 44.8232 185.702C44.9232 187.002 42.3232 186.402 41.8232 185.702C40.9232 184.502 38.9232 185.702 39.8232 186.902C41.4232 189.102 45.9232 189.902 47.0232 186.802C47.4232 185.502 47.0232 184.202 45.9232 183.402C45.2232 182.802 42.8232 182.002 44.2232 180.802C45.0232 180.102 46.3232 180.602 47.0232 181.302C48.2232 182.402 49.8232 180.702 48.7232 179.602Z"
    fill="#251C1C"
  />
  <path
    d="M59.4233 187.802C58.9233 186.102 58.2233 184.502 57.2233 183.002C56.5233 181.902 55.4233 180.102 54.1233 179.602C52.5233 179.002 52.0233 180.602 51.6233 181.802C50.9233 183.802 50.2233 185.802 49.6233 187.802C49.1233 189.202 51.4233 189.802 51.9233 188.402L52.4233 186.802C53.7233 186.802 55.0233 186.802 56.3233 186.702C56.4233 186.702 56.5233 186.702 56.6233 186.602C56.8233 187.202 57.0233 187.702 57.2233 188.302C57.5233 189.802 59.8233 189.202 59.4233 187.802ZM53.8233 182.302C54.1233 182.602 54.4233 183.102 54.5233 183.202C54.8233 183.602 55.1233 184.002 55.4233 184.402C54.7233 184.402 53.9233 184.502 53.2233 184.502C53.3233 183.802 53.5233 183.002 53.8233 182.302Z"
    fill="#251C1C"
  />
  <path
    d="M68.6236 183.902C67.1236 183.702 65.5236 183.502 64.0236 183.402C64.5236 182.802 64.9236 182.002 64.9236 181.102C64.9236 179.302 63.5236 178.102 61.8236 178.102C60.2236 178.102 58.0236 179.102 58.2236 180.902C58.5236 183.402 60.2236 186.102 61.1236 188.302C61.7236 189.702 63.7236 188.502 63.1236 187.102C62.9236 186.502 62.6236 186.002 62.4236 185.402C64.5236 185.602 66.6236 185.902 68.6236 186.102C70.1236 186.402 70.1236 184.002 68.6236 183.902ZM62.5236 181.102C62.6236 181.802 61.9236 182.402 61.2236 182.802C61.1236 182.602 61.0236 182.302 60.9236 182.102C60.8236 181.802 60.6236 181.402 60.5236 181.102C60.9236 180.202 61.5236 180.302 62.5236 181.102Z"
    fill="#251C1C"
  />
  <path
    d="M97.3238 187.101C96.7238 186.701 96.2238 186.901 95.8238 187.301C95.0238 187.601 93.8238 187.501 93.1238 187.601C91.8238 187.801 90.5238 187.901 89.2238 188.101C86.8238 188.401 84.3238 188.701 81.9238 189.001C80.4238 189.201 80.4238 191.501 81.9238 191.301C84.9238 190.901 87.9238 190.501 90.9238 190.201C92.8238 190.001 95.7238 190.201 97.4238 189.201C98.1238 188.601 98.0238 187.601 97.3238 187.101Z"
    fill="#251C1C"
  />
  <path
    d="M9.02429 182.502C6.72429 182.802 4.32429 183.002 2.02429 183.302C0.524292 183.502 0.524292 185.802 2.02429 185.602C4.32429 185.302 6.72429 185.102 9.02429 184.802C10.5243 184.702 10.5243 182.402 9.02429 182.502Z"
    fill="#251C1C"
  />
  <path
    d="M27.2238 197.502C26.0238 197.402 24.8238 197.502 23.5238 197.702C22.9238 197.802 22.5238 198.602 22.7238 199.102C22.9238 199.802 23.5238 200.002 24.1238 199.902C25.1238 199.702 26.1238 199.702 27.1238 199.802C28.7238 199.902 28.7238 197.602 27.2238 197.502Z"
    fill="#251C1C"
  />
  <path
    d="M87.3226 163.502C86.4226 163.002 85.4226 162.802 84.4226 162.702C83.8226 162.702 83.2226 163.302 83.2226 163.902C83.2226 164.602 83.7226 165.002 84.4226 165.102C85.0226 165.102 85.6226 165.302 86.1226 165.602C86.7226 165.902 87.4226 165.702 87.7226 165.202C88.0226 164.502 87.8226 163.702 87.3226 163.502Z"
    fill="#251C1C"
  />
  <path
    d="M51.7229 163.502C50.2229 164.002 49.0229 164.902 48.1229 166.202C47.6229 166.802 48.0229 167.502 48.6229 167.802C48.6229 168.002 48.5229 168.202 48.5229 168.402C48.4229 169.002 49.1229 169.602 49.7229 169.602C50.4229 169.602 50.8229 169.102 50.9229 168.402C51.0229 167.802 51.3229 167.202 51.7229 166.702C51.9229 166.402 52.0229 166.102 52.0229 165.902C52.1229 165.802 52.2229 165.802 52.4229 165.702C53.7229 165.202 53.1229 163.002 51.7229 163.502Z"
    fill="#251C1C"
  />
  <path
    d="M63.0225 172.702C62.5225 171.602 62.2225 171.502 61.1225 171.102C60.4225 170.802 59.8225 171.402 59.7225 172.102C53.3225 172.002 47.1225 173.202 40.7225 172.602C40.7225 172.502 40.7225 172.502 40.7225 172.402C41.1225 172.102 41.4225 171.702 41.8225 171.102C42.0225 170.802 42.0225 170.502 41.9225 170.202C42.4225 169.702 43.0225 169.402 43.7225 169.102C45.1225 168.502 43.9225 166.502 42.5225 167.102C40.5225 168.002 39.3225 169.102 38.3225 171.002C38.2225 171.102 38.1225 171.302 38.1225 171.402C38.1225 171.402 38.1225 171.402 38.1225 171.502V171.602C38.1225 171.602 38.1225 171.602 38.1225 171.702C38.1225 171.802 38.1225 171.902 38.1225 171.902C38.1225 172.102 38.1225 172.402 38.2225 172.602C38.1225 172.702 38.0225 172.802 37.9225 173.002C37.5225 173.602 37.9225 174.602 38.6225 174.702C46.2225 175.802 53.5225 174.102 61.1225 174.502C61.6225 175.002 62.3225 174.902 62.8225 174.502C63.0225 174.202 63.3225 173.302 63.0225 172.702Z"
    fill="#251C1C"
  />
  <path
    d="M137.825 148.902C101.525 149.302 65.2247 150.402 29.0247 152.402C27.7247 152.502 27.7247 154.502 29.0247 154.402C65.2247 152.402 101.525 151.202 137.825 150.902C139.125 150.902 139.125 148.902 137.825 148.902Z"
    fill="#251C1C"
  />
  <path
    d="M332.325 147.702C316.425 147.902 300.525 148.402 284.625 149.302C284.025 149.302 284.025 150.202 284.625 150.202C300.525 149.302 316.425 148.802 332.325 148.602C332.825 148.602 332.825 147.702 332.325 147.702Z"
    fill="#251C1C"
  />
  <path
    d="M262.523 180.501C246.623 180.701 230.723 181.201 214.823 182.101C214.223 182.101 214.223 183.001 214.823 183.001C230.723 182.101 246.623 181.601 262.523 181.401C263.123 181.401 263.123 180.501 262.523 180.501Z"
    fill="#251C1C"
  />
  <path
    d="M347.325 7.80188C345.225 2.90188 339.225 0.901879 334.625 0.701879C320.625 -0.0981211 310.925 12.2019 305.525 24.5019C301.425 33.9019 299.125 44.0019 294.525 53.1019C290.825 60.5019 285.825 67.1019 280.025 72.8019C280.025 72.8019 279.925 72.8019 279.925 72.7019C267.625 64.9019 253.225 63.0019 239.225 61.7019C232.225 61.1019 225.225 60.7019 218.325 61.2019C212.625 61.6019 205.725 62.4019 200.525 65.3019C200.525 64.9019 200.325 64.5019 200.125 64.2019C198.725 56.1019 196.125 47.5019 191.225 41.1019C191.225 40.9019 191.225 40.7019 191.025 40.5019C188.225 35.0019 184.225 30.8019 179.125 27.6019C178.425 27.2019 177.525 27.7019 177.325 28.5019C176.625 32.3019 175.825 37.1019 173.825 40.5019C171.425 44.5019 167.225 43.8019 163.325 44.7019C156.925 46.3019 152.325 49.9019 146.725 53.2019C143.225 55.3019 141.725 54.9019 138.325 52.7019C137.325 52.1019 136.925 51.4019 135.825 51.1019C134.425 50.7019 133.025 50.8019 131.925 51.9019C130.625 53.3019 130.925 55.5019 130.825 57.3019C130.725 61.9019 130.825 66.5019 131.025 71.1019C131.025 71.4019 131.225 71.6019 131.525 71.7019C130.825 82.7019 136.525 96.0019 145.425 103.002C144.925 105.602 145.925 108.202 147.725 110.102C148.825 111.202 150.125 112.002 151.625 112.602C151.225 119.902 153.025 127.302 154.525 134.402C156.225 142.102 157.225 150.002 158.825 157.702C156.425 157.802 154.225 159.302 154.525 162.602C155.025 168.202 162.725 169.202 166.525 167.102C171.825 164.202 175.725 154.702 177.925 149.202C180.625 142.502 182.725 134.702 182.325 127.302C184.125 128.002 186.025 128.402 187.825 128.802C188.025 135.702 189.125 142.602 190.225 149.402C191.325 155.602 192.725 161.802 197.725 165.702C198.025 166.002 198.525 165.802 198.725 165.502C200.225 166.102 202.125 166.302 203.425 166.302C205.325 166.302 207.625 164.802 208.625 163.102C209.725 161.302 209.525 159.002 207.925 157.602C207.125 156.902 206.125 156.602 205.125 156.502C208.725 151.602 210.925 145.302 212.825 139.502C214.025 136.002 214.825 132.502 215.525 129.002C220.625 130.302 225.925 130.202 231.025 129.502C232.125 130.602 233.525 131.402 234.925 132.002C234.325 135.602 234.425 139.302 234.325 143.002C234.125 147.802 233.625 149.802 233.525 154.602C232.425 154.402 231.325 154.602 230.425 155.702C229.125 157.202 229.325 159.302 230.625 160.802C234.725 165.402 240.125 162.302 243.325 158.302C247.625 169.702 261.525 158.102 265.725 153.702C280.425 138.302 288.925 116.402 286.125 94.4019C286.125 94.2019 286.025 94.0019 285.925 93.9019C285.825 92.8019 285.625 91.8019 285.425 90.7019C285.225 89.3019 284.925 88.0019 284.425 86.8019C295.525 82.6019 302.225 70.0019 308.125 59.8019C312.325 52.4019 316.525 44.9019 321.725 38.3019C327.125 31.4019 333.825 26.1019 340.425 20.7019C343.925 17.5019 349.925 13.8019 347.325 7.80188ZM242.925 155.802C241.525 157.602 239.925 159.402 237.725 160.202C236.725 160.602 235.525 160.902 234.325 160.802C234.025 160.802 233.825 160.802 233.525 160.802C232.925 160.802 232.325 160.602 231.725 160.202C231.625 160.202 231.625 160.102 231.525 160.102C231.525 160.102 231.525 160.102 231.525 160.002C231.325 159.902 231.125 159.702 231.025 159.502C230.225 158.502 230.425 157.202 231.325 156.402C232.225 155.602 233.825 155.202 235.225 155.502C234.925 155.302 234.625 155.102 234.225 154.902C234.325 154.802 234.325 154.702 234.425 154.602C235.325 150.102 235.625 148.202 235.725 143.502C235.925 143.502 236.025 143.502 236.225 143.502C237.825 143.102 241.425 141.402 240.525 139.102C240.225 138.202 239.225 137.802 238.325 137.802C237.525 137.802 236.525 138.002 235.725 138.302C235.725 136.302 235.625 134.302 235.525 132.402C239.825 133.902 244.925 133.902 249.025 133.602C248.525 136.902 247.825 140.202 247.225 143.402C247.225 143.402 247.125 143.402 247.125 143.502C246.725 144.102 246.625 144.802 246.825 145.402C246.225 148.502 245.725 151.502 245.325 154.602C244.025 154.802 242.525 153.702 242.925 155.802ZM342.325 16.2019C340.625 17.7019 338.825 19.1019 337.025 20.6019C333.925 23.1019 330.825 25.6019 327.825 28.3019C322.125 33.5019 317.425 39.7019 313.225 46.3019C308.925 53.1019 305.125 60.3019 300.725 67.1019C296.125 74.3019 290.625 82.0019 282.625 84.7019C282.625 85.0019 282.725 85.3019 282.725 85.6019C283.325 87.9019 283.525 90.2019 283.725 92.6019C283.925 94.7019 284.125 96.8019 284.025 98.8019C284.325 102.502 284.225 106.202 283.825 109.902C283.325 110.402 282.825 111.002 282.325 111.502C281.425 112.302 280.425 113.002 279.425 113.502C278.925 113.702 279.225 114.602 279.725 114.302C280.925 113.802 282.025 113.302 283.125 112.602C283.325 112.502 283.425 112.402 283.625 112.302C283.625 112.602 283.525 112.902 283.525 113.202C283.325 113.202 283.125 113.302 282.925 113.502C282.325 114.102 281.925 114.602 281.325 115.002C280.625 115.402 281.225 116.502 281.925 116.302C282.325 116.202 282.725 116.002 283.125 115.802C281.925 121.702 280.025 127.502 277.425 133.002C274.525 139.002 270.925 144.502 266.625 149.402C264.625 151.702 262.525 153.902 260.225 155.902C258.625 157.302 256.925 158.602 255.025 159.602C253.725 160.402 252.325 160.902 250.825 161.002C249.825 161.302 249.125 161.302 248.625 161.202C247.025 161.202 245.425 160.602 244.925 159.002C244.925 158.902 244.825 158.802 244.825 158.602C244.725 158.302 244.725 158.102 244.725 157.802C244.725 157.402 244.825 157.102 244.925 156.802C245.025 156.802 245.025 156.702 245.125 156.702C245.925 156.002 246.525 155.902 247.625 156.202C248.525 156.402 249.125 156.502 250.025 156.502C250.125 156.502 250.225 156.302 250.125 156.302C249.325 155.602 248.525 155.002 247.525 154.702C248.325 152.002 248.925 149.202 249.425 146.502C250.325 146.502 251.225 146.302 251.925 146.302C253.525 146.102 255.425 145.902 256.825 145.202C258.925 144.102 259.925 141.102 257.825 139.302C256.125 137.802 253.125 137.802 250.825 138.402C251.125 136.502 251.425 134.502 251.725 132.602C251.825 131.902 251.325 131.202 250.725 131.302C249.025 131.502 247.125 131.602 245.225 131.502C247.425 130.202 249.725 128.102 247.325 126.002C246.025 124.902 244.525 125.802 243.325 126.602C241.425 127.802 239.525 129.002 237.825 130.502C236.725 130.202 235.625 129.802 234.625 129.302C228.325 126.202 227.925 116.602 228.725 110.102C228.725 110.102 228.625 110.002 228.625 110.102C228.225 112.302 227.825 114.802 227.625 117.302C226.425 114.902 226.125 112.402 226.925 109.602C226.925 109.502 226.725 109.402 226.725 109.502C225.625 112.602 225.725 116.202 227.125 119.202C227.225 119.402 227.425 119.502 227.525 119.502C227.525 122.602 228.125 125.602 229.925 128.002C225.125 128.602 220.425 128.402 215.625 128.202C216.025 125.602 216.325 123.102 216.425 120.402C216.425 119.902 215.525 119.802 215.525 120.302C215.125 124.902 214.125 129.402 212.725 133.702C211.425 133.702 209.725 133.902 208.925 135.002C207.725 136.602 209.525 138.002 210.525 139.002C210.625 139.102 210.725 139.202 210.825 139.202C210.225 140.602 209.725 142.002 209.125 143.402C208.325 143.002 207.325 143.102 206.725 143.902C205.925 144.902 206.325 146.702 207.425 147.302C206.125 150.002 204.825 152.802 203.525 155.502C203.425 155.802 203.425 156.102 203.525 156.402C202.625 156.502 201.725 156.802 200.925 157.102C200.525 157.302 200.625 158.002 201.125 158.002C202.525 157.902 204.125 157.802 205.525 158.202C208.625 159.002 208.425 162.302 205.925 163.802C203.625 165.102 200.325 164.102 198.125 163.102C197.925 163.002 197.725 163.002 197.525 163.102C194.525 158.502 193.325 153.102 192.425 147.702C193.725 147.402 195.625 146.002 195.225 144.402C195.025 143.602 194.425 143.102 193.625 142.802C193.025 142.502 192.225 142.202 191.525 142.102C191.425 141.202 191.225 140.202 191.125 139.302C191.225 139.302 191.225 139.402 191.325 139.402C193.125 140.402 195.725 139.902 196.925 138.102C198.225 136.102 196.725 134.102 195.125 132.902C193.625 131.802 191.825 131.202 190.025 131.302C189.525 127.902 189.025 124.502 188.225 121.202C188.225 121.102 188.125 121.102 188.125 121.202C188.025 122.902 187.925 124.702 187.925 126.402C182.125 125.402 176.625 123.302 170.925 121.002C170.725 120.902 170.525 121.202 170.725 121.402C172.025 122.202 173.225 123.002 174.625 123.802C173.825 124.002 173.025 124.002 172.225 123.902C171.225 123.802 170.325 123.202 169.225 123.102C169.025 123.102 168.825 123.302 168.925 123.502C170.225 125.602 173.825 125.502 175.825 124.902C175.925 124.902 176.025 124.802 176.125 124.702C177.525 125.402 178.925 126.102 180.325 126.702C180.025 128.802 179.825 130.802 179.525 132.802C178.725 132.602 177.925 132.702 177.125 133.202C176.325 133.702 175.725 134.702 175.625 135.702C175.425 137.702 176.925 138.702 178.525 139.302C178.325 140.302 178.125 141.202 177.925 142.202C177.225 141.802 176.425 141.702 175.725 141.802C175.225 141.802 174.725 142.202 174.725 142.702C174.425 144.302 175.325 145.802 176.725 146.402C176.325 147.602 175.925 148.702 175.425 149.902C173.825 153.802 171.725 157.502 169.325 161.002C167.725 163.302 166.325 165.502 163.025 166.002C162.025 166.202 161.225 166.202 160.625 166.002C158.725 165.802 156.925 164.902 156.625 162.902C156.125 158.702 160.425 158.602 163.225 159.502C163.225 159.302 163.125 159.102 162.925 159.002C162.225 158.602 161.425 158.302 160.625 158.102C160.725 158.002 160.725 157.802 160.725 157.602C160.825 153.202 160.025 148.602 159.025 144.102C159.425 144.102 159.825 143.902 160.225 143.702C160.925 143.402 161.725 143.102 162.225 142.502C164.225 140.002 158.925 137.102 157.125 136.102C157.125 135.902 157.025 135.702 157.025 135.502C156.625 133.902 156.325 132.302 156.025 130.702C157.325 130.902 158.825 130.902 160.125 130.502C161.525 130.102 162.025 128.502 161.225 127.202C159.925 125.102 157.225 123.702 154.825 124.102C154.125 120.402 153.525 116.702 152.825 113.002C154.725 113.602 156.825 113.802 158.725 113.802C160.125 113.802 160.325 111.402 158.925 111.202C156.125 110.902 153.225 110.802 150.625 109.302C148.725 108.202 147.225 106.202 146.825 104.002C148.825 105.302 150.825 106.402 153.125 107.002C154.325 107.402 154.725 105.602 153.825 104.902C148.525 101.102 143.725 98.1019 139.825 92.7019C140.725 91.6019 141.525 90.5019 142.425 89.3019C143.025 88.4019 143.425 87.2019 142.525 86.4019C140.925 85.1019 138.025 85.7019 136.225 86.3019C135.625 85.0019 135.125 83.7019 134.625 82.4019C134.825 82.5019 135.025 82.6019 135.225 82.7019C136.125 82.9019 136.925 82.4019 137.725 82.0019C138.525 81.6019 139.425 81.0019 140.125 80.3019C141.325 79.0019 141.025 77.0019 139.425 76.3019C138.625 75.9019 137.525 75.9019 136.625 75.8019C136.025 75.7019 135.525 75.7019 134.925 75.6019C134.625 75.6019 134.425 75.6019 134.125 75.6019C133.725 75.6019 133.625 75.6019 133.725 75.7019C133.425 75.6019 133.125 75.7019 132.825 75.9019C132.525 74.4019 132.225 72.9019 132.125 71.3019C132.225 71.2019 132.225 71.1019 132.325 71.0019C132.525 68.1019 132.525 64.9019 132.825 61.9019C132.725 61.8019 132.725 61.7019 132.725 61.6019C132.625 59.6019 132.625 57.5019 132.725 55.5019C132.725 54.6019 132.825 53.4019 133.625 53.0019C135.125 52.2019 137.225 54.3019 138.325 55.3019C138.425 55.4019 138.425 55.5019 138.425 55.5019C139.325 55.9019 140.025 56.7019 141.025 56.9019C146.425 58.2019 151.325 52.6019 155.725 50.3019C159.225 48.4019 163.125 47.1019 167.025 46.5019C169.225 46.2019 172.225 46.6019 174.125 45.0019C177.425 42.4019 178.825 35.4019 179.625 30.7019C183.725 33.4019 186.925 37.1019 189.225 41.7019C189.525 42.4019 190.125 42.4019 190.625 42.1019C191.225 43.7019 191.925 45.3019 192.525 46.9019C192.425 46.9019 192.225 46.9019 192.125 46.9019C191.225 47.4019 190.425 48.3019 189.725 49.1019C189.025 49.8019 188.425 50.5019 188.225 51.4019C188.125 52.0019 188.525 52.7019 189.025 52.8019C190.025 53.0019 191.025 53.0019 192.025 53.0019C192.825 53.0019 193.925 52.9019 194.625 52.5019C194.825 53.1019 195.025 53.8019 195.225 54.4019C193.725 55.4019 192.525 57.0019 191.825 58.7019C191.425 59.6019 191.025 60.8019 191.725 61.6019C192.425 62.5019 193.925 62.1019 194.825 61.9019C195.625 61.7019 196.425 61.3019 197.125 60.7019C197.525 62.4019 197.925 64.1019 198.225 65.9019C198.225 66.1019 198.325 66.2019 198.325 66.3019C198.325 66.4019 198.325 66.5019 198.425 66.7019C198.425 66.8019 198.425 66.8019 198.425 66.9019C198.425 67.1019 198.425 67.3019 198.525 67.5019C198.625 68.2019 198.925 68.9019 198.925 69.7019C198.925 70.4019 198.925 71.2019 198.925 71.9019C198.925 72.1019 199.325 72.2019 199.325 71.9019C199.425 71.1019 199.525 70.3019 199.725 69.5019C199.925 68.6019 200.325 67.8019 200.525 66.9019V66.8019C203.925 66.2019 207.325 65.3019 210.725 64.5019C214.825 73.4019 212.825 84.0019 211.425 93.3019C211.325 94.1019 211.825 94.7019 212.525 94.7019C217.925 94.6019 221.225 86.0019 222.625 81.4019C224.025 76.8019 225.525 66.8019 221.125 63.1019C224.125 63.0019 227.125 63.1019 230.125 63.2019C230.925 72.8019 231.325 82.7019 227.125 91.6019C226.825 92.3019 227.125 93.4019 228.025 93.5019C233.325 94.2019 236.625 86.7019 238.225 82.3019C239.825 77.9019 242.325 68.7019 239.825 64.1019C239.825 64.1019 239.825 64.0019 239.725 64.0019C240.025 64.0019 240.325 64.1019 240.625 64.1019C243.225 64.4019 245.825 64.6019 248.325 65.0019C248.225 65.2019 248.225 65.3019 248.225 65.6019C249.525 72.4019 248.225 78.7019 246.525 85.2019C245.925 87.5019 243.425 92.4019 245.525 94.4019C250.025 98.7019 256.325 81.0019 257.325 78.3019C258.425 75.0019 259.225 69.8019 257.725 66.7019C259.725 67.1019 261.825 67.7019 263.825 68.2019C263.225 72.9019 262.325 77.6019 260.925 82.2019C260.125 84.8019 257.225 89.1019 258.225 91.9019C258.425 92.6019 259.025 92.9019 259.625 92.9019C265.425 93.2019 268.525 82.3019 269.925 78.0019C270.725 75.5019 271.625 72.9019 271.325 71.0019C273.725 72.0019 276.025 73.2019 278.225 74.5019C277.925 74.8019 277.625 75.1019 277.225 75.4019C277.125 75.5019 277.125 75.6019 277.125 75.6019C278.725 74.7019 280.125 73.5019 281.725 72.5019C282.125 72.3019 282.425 72.1019 282.825 71.9019C292.925 61.9019 298.525 49.2019 303.425 35.2019C303.625 34.5019 303.925 33.8019 304.225 33.1019C305.325 33.5019 306.625 33.7019 307.825 33.9019C309.125 34.1019 310.925 33.9019 311.625 32.5019C313.025 29.8019 308.725 28.4019 305.825 28.8019C306.325 27.5019 306.825 26.3019 307.425 25.0019C308.425 26.1019 310.425 26.5019 311.625 26.6019C313.225 26.8019 315.925 27.0019 316.725 25.1019C317.725 22.9019 315.225 22.0019 313.625 21.6019C312.325 21.3019 310.525 20.9019 309.125 21.3019C311.125 17.4019 313.425 13.8019 316.425 10.6019C322.825 3.90188 333.325 -0.298121 341.825 4.60188C346.425 7.50188 346.525 12.5019 342.325 16.2019Z"
    fill="#251C1C"
  />
  <path
    d="M183.923 39.4019C183.223 38.5019 182.523 37.7019 181.723 37.0019C181.123 36.5019 180.123 36.7019 179.923 37.6019C179.623 39.7019 178.923 42.1019 179.223 44.2019C179.323 44.8019 179.923 44.9019 180.223 44.4019C180.323 44.3019 180.323 44.2019 180.323 44.1019C180.423 44.1019 180.523 44.1019 180.623 44.1019C182.023 43.8019 185.023 44.0019 185.123 41.8019C185.123 40.9019 184.423 40.1019 183.923 39.4019Z"
    fill="#251C1C"
  />
  <path
    d="M136.625 57.4012C135.825 56.4012 134.425 56.9012 134.425 58.2012C134.325 60.3012 134.225 62.3012 134.125 64.4012C134.125 64.7012 134.225 65.0012 134.325 65.2012C134.025 65.8012 134.725 66.7012 135.325 66.2012C136.025 65.6012 136.625 64.8012 137.325 64.0012C137.825 63.4012 138.625 62.7012 138.925 61.9012C139.525 60.4012 137.425 58.5012 136.625 57.4012Z"
    fill="#251C1C"
  />
  <path
    d="M196.724 78.4016C196.624 77.7016 195.624 77.3016 195.324 78.1016C194.324 80.8016 194.024 83.6016 192.524 86.1016C191.024 88.6016 188.724 90.3016 186.124 91.3016C187.024 90.2016 187.924 89.1016 188.624 87.9016C189.124 87.0016 187.924 86.2016 187.224 86.9016C181.924 92.6016 177.024 97.5016 169.624 100.102C169.124 100.302 169.424 101.102 169.924 100.902C175.124 99.4016 180.524 96.8016 184.624 92.9016C191.324 93.1016 197.924 85.6016 196.724 78.4016Z"
    fill="#251C1C"
  />
  <path
    d="M282.325 91.2014C282.125 90.4014 281.325 89.9014 280.525 90.1014C280.225 90.2014 279.925 90.5014 279.925 90.9014V91.0014C279.725 91.3014 279.625 91.7014 279.725 92.1014C279.925 92.8014 280.625 93.2014 281.225 93.0014C282.025 92.8014 282.625 92.0014 282.325 91.2014Z"
    fill="#251C1C"
  />
  <path
    d="M149.924 80.7022C152.424 80.2022 154.924 79.8022 157.424 79.3022C157.424 79.4022 157.424 79.6022 157.424 79.7022C157.424 80.7022 157.924 81.4022 158.524 81.9022C156.224 83.0022 153.924 84.3022 151.724 85.5022C151.524 85.6022 151.724 85.8022 151.824 85.8022C154.324 84.6022 156.824 83.5022 159.324 82.4022C160.624 83.0022 162.424 83.2022 163.724 83.2022C165.124 83.2022 166.424 83.0022 167.624 82.5022C167.924 84.2022 169.024 85.2022 171.124 85.1022C173.224 84.9022 174.924 83.3022 174.824 81.2022C178.724 81.5022 183.124 79.5022 182.524 75.7022C185.024 75.5022 187.624 75.5022 190.124 75.2022C190.324 75.2022 190.324 74.8022 190.124 74.8022C187.524 74.7022 185.024 75.0022 182.524 75.4022V75.3022C182.224 73.9022 180.824 73.0022 179.324 72.5022C182.024 71.1022 184.824 70.2022 187.824 69.6022C188.224 69.5022 188.024 69.0022 187.724 69.0022C184.324 69.5022 181.224 70.6022 178.324 72.2022C177.324 72.0022 176.224 71.9022 175.424 71.9022C174.324 71.9022 173.324 72.1022 172.424 72.5022C172.624 71.1022 172.524 69.8022 171.624 68.8022C171.224 68.3022 170.424 68.5022 170.124 68.9022C169.424 69.9022 169.024 71.0022 168.724 72.1022C167.624 70.7022 166.224 69.6022 164.924 71.1022C164.624 71.4022 164.524 71.9022 164.724 72.3022C165.424 73.3022 166.124 74.3022 166.924 75.1022C163.224 73.9022 158.524 74.7022 157.624 78.2022C154.924 78.9022 152.324 79.6022 149.924 80.7022C149.924 80.7022 149.824 80.7022 149.924 80.7022ZM170.624 77.7022C171.024 77.5022 171.224 77.1022 170.924 76.7022C171.124 76.0022 171.424 75.2022 171.624 74.5022C173.224 73.4022 175.324 72.6022 177.124 72.7022C175.924 73.4022 174.824 74.1022 173.724 74.9022C173.324 75.2022 173.924 75.9022 174.324 75.5022C175.624 74.5022 176.924 73.7022 178.324 72.9022C178.824 73.1022 179.224 73.3022 179.624 73.6022C180.424 74.3022 180.724 75.0022 180.724 75.6022C179.324 75.8022 177.924 76.1022 176.524 76.2022C176.124 76.2022 176.224 76.8022 176.524 76.7022C177.924 76.3022 179.224 76.0022 180.624 75.9022C180.524 79.1022 173.724 81.6022 170.924 77.9022C171.024 77.8022 170.824 77.7022 170.624 77.7022ZM170.724 80.0022C171.524 80.6022 172.524 81.0022 173.624 81.2022C173.724 82.8022 172.424 83.9022 170.824 84.0022C169.424 84.1022 168.624 83.5022 168.024 82.4022C169.124 81.9022 170.024 81.1022 170.724 80.0022ZM158.924 79.1022C161.124 78.7022 163.324 78.4022 165.624 78.1022C166.024 78.1022 165.924 77.4022 165.524 77.4022C163.324 77.5022 161.124 77.8022 158.924 78.1022C159.324 76.8022 160.924 75.8022 162.324 75.8022C162.924 75.6022 163.524 75.6022 164.024 75.6022C164.924 75.6022 165.924 75.8022 166.624 76.4022C167.124 76.6022 167.524 76.9022 168.124 77.3022C168.424 77.5022 168.624 77.7022 168.924 77.8022C169.024 78.0022 169.324 78.2022 169.524 78.2022C168.924 79.3022 168.124 80.1022 167.224 80.6022C167.224 80.9022 166.924 81.3022 166.524 81.3022C165.024 81.5022 163.524 81.9022 162.024 81.7022C161.824 81.7022 161.524 81.6022 161.324 81.5022C162.324 81.1022 163.324 80.7022 164.424 80.2022C164.924 80.0022 164.524 79.2022 164.024 79.4022C162.824 79.9022 161.524 80.4022 160.324 81.0022C159.724 80.6022 159.224 80.1022 159.024 79.4022C158.924 79.4022 158.924 79.2022 158.924 79.1022Z"
    fill="#251C1C"
  />
  <path
    d="M153.824 74.4019C156.224 73.6019 158.524 72.6019 160.824 71.5019C161.124 71.3019 161.324 70.9019 161.224 70.6019C160.424 67.2019 158.124 57.9019 152.724 59.6019C147.624 61.2019 151.024 69.4019 152.824 73.3019C152.624 73.9019 153.024 74.7019 153.824 74.4019ZM152.124 61.9019C153.124 61.8019 154.024 61.6019 155.024 61.5019C155.724 61.9019 156.224 62.4019 156.624 63.1019C157.124 63.8019 157.524 64.5019 157.924 65.2019C158.724 66.8019 159.124 68.6019 159.424 70.3019C158.824 70.6019 158.224 70.8019 157.624 71.0019C157.824 70.0019 157.324 68.9019 156.924 67.9019C156.424 66.5019 156.024 65.1019 155.124 63.9019C154.324 62.9019 152.824 63.7019 152.724 64.8019C152.624 66.3019 153.124 67.8019 153.524 69.2019C153.824 70.2019 154.024 71.4019 154.924 72.0019C154.424 72.2019 153.824 72.4019 153.324 72.6019C153.024 71.2019 152.724 69.8019 152.424 68.4019C152.124 67.2019 150.724 63.0019 152.124 61.9019Z"
    fill="#251C1C"
  />
  <path
    d="M173.524 67.7018C176.024 67.5018 178.524 67.1018 181.024 66.6018C181.324 66.5018 181.624 66.2018 181.624 65.8018C181.724 62.3018 181.724 52.7018 176.124 53.0018C170.724 53.3018 172.024 62.1018 172.924 66.3018C172.524 66.9018 172.724 67.7018 173.524 67.7018ZM173.724 61.6018C173.824 60.2018 173.424 55.8018 175.024 55.1018C176.024 55.2018 176.924 55.3018 177.924 55.4018C178.424 56.0018 178.824 56.6018 179.124 57.3018C179.524 58.1018 179.724 58.9018 179.824 59.7018C180.124 61.5018 180.124 63.3018 180.024 65.1018C179.424 65.2018 178.724 65.3018 178.124 65.4018C178.624 64.4018 178.324 63.3018 178.224 62.2018C178.124 60.7018 178.024 59.2018 177.424 57.9018C176.924 56.8018 175.224 57.1018 174.924 58.2018C174.424 59.6018 174.624 61.2018 174.624 62.7018C174.624 63.8018 174.624 65.0018 175.224 65.8018C174.624 65.8018 174.124 65.9018 173.524 65.9018C173.624 64.4018 173.624 63.0018 173.724 61.6018Z"
    fill="#251C1C"
  />
</svg>
