<svg
  width="23"
  height="24"
  viewBox="0 0 23 24"
  fill="none"
  xmlns="http://www.w3.org/2000/svg"
>
  <path
    d="M10.4899 20.3605C12.258 18.1426 13.7361 15.5933 15.2245 13.1796C16.6836 10.8123 18.1377 8.4433 19.5883 6.07084C20.3024 4.9035 19.8441 3.28464 18.6784 2.60312C17.4751 1.89928 15.9231 2.3388 15.2107 3.51301C13.7962 5.84083 12.3765 8.16519 10.9551 10.4879C10.2444 11.6483 9.55942 12.826 8.86932 14.0002C8.7955 14.1255 8.71995 14.2508 8.64442 14.3761C7.61441 12.8517 6.57069 11.3342 5.35528 9.9866C4.41969 8.94973 2.55881 10.0347 2.99484 11.3599C3.96133 14.3006 5.60765 17.0507 6.83336 19.8918C7.39128 21.1827 9.62121 21.4489 10.4899 20.3605Z"
    fill="#39B100"
  />
  <path
    d="M0.0309601 11.8441C0.219795 12.3625 0.441233 12.8724 0.703885 13.3565C0.894436 13.7067 1.19487 13.9968 1.40774 14.3385C2.06695 15.3874 2.70042 16.4534 3.35791 17.504C3.89866 18.3709 4.43254 19.2464 5.02136 20.079C5.71661 21.0627 6.49253 21.9879 7.19122 22.9699C7.79034 23.8111 8.6178 23.7973 9.13452 22.9768C9.53107 22.345 9.98943 21.7527 10.4289 21.1502C11.452 19.7442 12.4786 18.3417 13.5069 16.9392C13.7283 16.6388 13.9618 16.3469 14.1884 16.0499C14.7154 15.365 15.2545 14.6886 15.7609 13.9899C16.1266 13.4869 16.4304 12.941 16.7892 12.4346C17.8312 10.9686 18.8921 9.51453 19.9359 8.0502C20.2964 7.5455 20.6277 7.02367 20.9693 6.50695C21.5358 5.65376 22.0663 4.77656 22.6757 3.95599C22.9435 3.59377 23.0482 3.23497 22.9795 2.83327C22.9503 2.6616 22.7238 2.37662 22.619 2.39035C21.9083 2.48649 21.6543 1.94913 21.2989 1.53369C21.2045 1.42382 21.0878 1.31741 20.9573 1.25733C20.2294 0.922576 19.4964 0.59809 18.76 0.278788C18.5333 0.180937 18.2999 0.0813828 18.0578 0.0350325C17.2664 -0.117752 16.7806 0.232451 16.554 1.02212C16.4441 1.40323 16.2914 1.78607 16.0854 2.12254C14.3155 5.01 12.1456 7.61077 10.1336 10.3231C9.69932 10.9051 9.16028 11.4097 8.58862 12.038C8.01869 11.4561 7.50882 10.9274 6.98867 10.4055C6.4668 9.88193 5.9947 9.27939 5.39215 8.87082C4.64196 8.36096 4.08405 8.48631 3.51926 9.19529C3.11584 9.70515 2.618 10.0313 2.05493 10.3094C1.49873 10.584 0.956242 10.8879 0.408621 11.1797C0.139103 11.3222 -0.0840575 11.5299 0.0309601 11.8441ZM3.87291 10.6321C4.65572 10.3145 5.37672 10.4845 5.84194 11.19C6.41359 12.0535 7.12944 12.7694 7.85388 13.4939C8.26245 13.9042 8.69331 13.9385 9.16197 13.5368C9.37312 13.3582 9.54993 13.1316 9.71645 12.9085C10.9645 11.2484 12.2194 9.59349 13.4468 7.91801C14.5283 6.44167 15.5789 4.94137 16.645 3.45129C16.8252 3.19894 17.0072 2.94824 17.1978 2.70276C17.9548 1.74142 18.6226 1.78954 19.4294 2.50368C20.0303 3.03414 20.5985 3.24352 21.5804 3.1388C21.1616 3.86152 20.8611 4.39543 20.5453 4.91902C19.9032 5.98336 19.3402 7.10778 18.5866 8.088C17.0759 10.0519 15.7008 12.1102 14.2434 14.1101C12.9455 15.8903 11.6512 17.6722 10.3431 19.4438C9.883 20.067 9.38857 20.6644 8.90447 21.2686C8.49418 21.7802 7.98092 21.77 7.60325 21.2343C6.17326 19.2104 4.70892 17.2053 3.34072 15.1401C2.73302 14.2234 2.32102 13.1762 1.84207 12.2338C2.37595 11.3857 3.08495 10.9531 3.87291 10.6321Z"
    fill="#251C1C"
  />
</svg>
