<svg
  width="51"
  height="34"
  viewBox="0 0 51 34"
  fill="none"
  xmlns="http://www.w3.org/2000/svg"
>
  <path
    d="M29.4188 11.4005C30.0183 10.6296 30.0839 9.4539 29.0977 8.91581C27.9757 8.30085 26.684 8.4139 25.7023 9.26173C25.3064 9.60539 25.0305 10.0056 24.8337 10.4442C24.5758 10.0033 24.2931 9.57375 23.9809 9.16C22.9969 7.85999 21.2348 8.35739 21.0312 9.95811C20.7869 11.8799 21.7641 14.1521 23.524 15.0994C23.9063 15.4815 24.4582 15.5945 24.9649 15.4928C26.9713 15.4476 28.3105 12.8249 29.4188 11.4005Z"
    fill="#EF4036"
  />
  <path
    d="M50.9574 3.51133C50.9053 1.91062 50.333 1.44034 48.6999 1.35443C42.9159 1.05825 37.1319 0.775673 31.3479 0.481757C29.6197 0.393582 27.8938 0.219495 26.1656 0.201408C18.2667 0.113233 10.3654 0.0702455 2.4664 0.000157807C0.876193 -0.0134076 -0.0603165 0.847995 0.00302021 2.43288C0.131956 5.6637 0.369415 8.89228 0.457634 12.1254C0.595618 17.235 0.63181 22.3446 0.740388 27.4542C0.778842 29.3963 0.690641 31.3836 2.05917 33.2285C3.36436 33.0725 4.54966 32.8125 5.73496 32.8103C10.0192 32.8035 14.3057 32.8803 18.5923 32.9323C21.6777 32.9685 24.7631 32.9956 27.8463 33.068C29.7215 33.1109 31.5945 33.2421 33.4674 33.3167C35.4987 33.3958 37.5414 33.6287 39.5546 33.4727C41.9093 33.2896 44.1894 33.4184 46.4967 33.8661C48.9126 34.3341 49.7721 33.6084 49.6296 31.1666C49.1976 23.7712 50.0593 16.4572 50.8397 9.13194C51.0365 7.27348 51.0207 5.38109 50.9574 3.51133ZM47.7635 2.87148C47.5214 3.26488 47.3879 3.73063 47.078 3.95446C43.7325 6.36909 40.4073 8.81541 36.9803 11.1102C33.9288 13.1518 30.7236 14.9628 27.6518 16.9772C25.953 18.0918 24.4487 18.0127 22.906 16.7918C17.6084 12.5911 11.8244 9.10478 6.21001 5.36978C4.88446 4.49029 3.47751 3.59948 2.57044 2.1299C6.01324 0.610581 41.0271 1.22329 47.7635 2.87148ZM1.45743 4.18507C2.61107 4.91082 3.41417 5.40368 4.20135 5.9169C7.09448 7.7957 9.99209 9.66773 12.8649 11.5782C13.6724 12.114 14.3759 12.8036 15.1677 13.3666C16.1132 14.0358 16.1675 14.8339 15.5296 15.6795C14.6746 16.8167 13.8262 17.9788 12.8286 18.9849C10.026 21.8042 7.15096 24.5557 4.29402 27.3208C3.87328 27.7278 3.38703 28.0692 2.56591 28.7384C2.18815 20.364 1.83067 12.4712 1.45743 4.18507ZM36.5279 31.967C30.7416 31.8607 24.9531 31.725 19.1668 31.5916C14.4324 31.4831 9.70031 31.3633 4.96589 31.2412C4.60623 31.2321 4.24659 31.1598 3.80097 31.1055C3.89824 30.8116 3.91403 30.572 4.03844 30.4228C6.97002 26.9274 9.68451 23.2399 13.2585 20.3166C14.4121 19.3738 15.3237 18.1416 16.3801 17.0767C18.0155 15.4285 18.2576 15.4172 20.1577 16.8234C21.4787 17.8024 22.7816 18.804 24.0845 19.8056C25.2879 20.7348 25.6454 20.7371 26.7605 19.7197C27.3125 19.2132 27.7738 18.587 28.3846 18.1732C29.7463 17.2485 31.1737 16.4211 32.549 15.5687C34.6165 16.7466 43.9293 28.3925 45.0219 31.2141C42.2034 31.8742 39.3735 32.019 36.5279 31.967ZM49.2269 8.83575C48.3538 15.0193 47.6412 21.2141 47.6345 27.47C47.6322 28.2184 47.5711 28.9668 47.5214 30.0475C44.5943 27.4045 35.838 16.2741 35.0124 14.1059C39.5342 11.074 44.108 8.00373 48.6999 4.92439C49.7268 6.29223 49.3988 7.6126 49.2269 8.83575Z"
    fill="black"
  />
</svg>
