<svg
  width="51"
  height="51"
  viewBox="0 0 51 51"
  fill="none"
  xmlns="http://www.w3.org/2000/svg"
>
  <path
    d="M27.9018 37.4392C30.1407 35.6385 30.8778 32.3698 29.1785 29.9837C29.0775 29.8418 28.9696 29.7065 28.8525 29.5712C27.7617 27.6907 25.5665 26.4755 23.3069 26.6351C20.6524 26.8214 18.464 28.8328 17.8693 31.3032C16.5673 36.7296 23.3941 41.0672 27.9018 37.4392Z"
    fill="#39B100"
  />
  <path
    d="M48.0486 18.4569C47.7042 18.1265 47.2977 17.8448 46.8797 17.5965C46.5376 17.3947 46.1197 17.3082 45.773 17.1086C44.9876 16.6584 44.2344 16.1617 43.4583 15.6982C42.8566 15.339 42.2138 15.0418 41.642 14.6471C39.7797 13.3697 37.9586 12.0303 36.0871 10.7663C34.1445 9.45791 32.1606 8.20724 30.1949 6.93213C27.8871 5.43082 25.5587 3.95388 23.2785 2.41266C22.3622 1.79395 21.5769 0.997823 20.6813 0.34807C19.9419 -0.188586 19.4253 -0.0998713 18.8558 0.580928C17.5744 2.10441 16.3298 3.65672 15.0439 5.17798C13.8889 6.54401 12.7936 7.97435 11.5053 9.21398C9.59252 11.0501 7.50749 12.72 5.54186 14.5074C3.81046 16.0819 1.57847 17.235 0.795437 19.6345C0.735733 19.8141 0.501482 19.9338 0.421111 20.1112C0.131778 20.761 -0.327488 21.4041 0.356808 22.1048C0.499179 22.2512 0.515248 22.5461 0.524433 22.7745C0.604804 24.6218 0.613987 26.4735 0.751764 28.3163C0.930875 30.7179 1.17659 33.1151 1.44985 35.5101C1.6657 37.3818 1.97573 39.2446 2.22832 41.114C2.3041 41.6684 2.29949 42.2361 2.37756 42.7905C2.57734 44.223 2.80008 45.6511 3.01364 47.0815C3.11697 47.7578 3.17206 48.4431 3.3374 49.1039C3.60836 50.1883 4.06536 50.4677 5.21581 50.4056C6.00573 50.3635 6.79562 50.3436 7.58324 50.3103C8.57754 50.2659 9.57183 50.2283 10.5638 50.1662C12.0174 50.0753 13.4686 49.8956 14.9245 49.8779C18.3115 49.8335 21.6251 49.2525 24.9571 48.7713C27.6713 48.3788 30.3877 48.0195 33.1112 47.7024C36.3329 47.3276 39.5615 47.0106 42.7878 46.6735C45.0404 46.4362 47.2793 45.6756 49.5664 46.465C50.4299 46.5493 51.0889 45.9262 50.9902 45.0613C50.8983 44.2652 50.7054 43.4779 50.6204 42.6818C50.4964 41.5265 50.4849 40.3578 50.3242 39.2091C50.0004 36.905 49.6032 34.612 49.2496 32.3102C49.0154 30.8022 48.7559 29.2965 48.5951 27.7819C48.3402 25.3869 48.1566 22.9852 47.9522 20.5835C47.9292 20.3152 47.8902 19.9981 48.005 19.7764C48.2438 19.3218 48.4918 18.8805 48.0486 18.4569ZM4.05617 18.3483C4.85987 17.3282 5.68883 16.3081 6.6326 15.4144C8.94957 13.219 11.3882 11.1455 13.673 8.92129C15.0141 7.61735 16.1577 6.12048 17.3885 4.70788C17.7903 4.24662 18.1669 3.76097 18.5917 3.32189C19.57 2.31067 19.9626 2.28846 21.159 3.06683C23.949 4.88082 26.732 6.7015 29.5381 8.4911C30.9572 9.39587 32.4567 10.192 33.8574 11.1211C36.218 12.6867 38.5282 14.3255 40.8635 15.9244C41.27 16.2016 41.6993 16.4455 42.1173 16.705C42.487 16.9334 42.859 17.1618 43.4032 17.4989C41.8257 18.0267 40.418 17.9713 39.0311 17.9557C37.4604 17.938 35.8782 18.1797 34.3191 17.7805C34.0091 17.7007 33.6531 17.7473 33.3224 17.7761C30.1374 18.0489 26.9548 18.3549 23.7653 18.5988C22.3163 18.7097 20.8581 18.7496 19.4023 18.7452C17.7788 18.743 16.1829 18.8782 14.5755 19.1399C12.4882 19.4792 10.3686 19.6455 8.26294 19.8828C7.1079 20.0114 5.9529 20.1556 4.79327 20.2509C4.37305 20.2842 3.93905 20.191 3.5395 20.1578C3.34431 19.3484 3.69565 18.8029 4.05617 18.3483ZM4.00336 21.8742C6.51321 21.5438 9.02072 21.2023 11.5352 20.9051C13.5582 20.6679 15.5882 20.4705 17.6181 20.2931C18.6928 20.1999 19.7766 20.1955 20.8535 20.1356C24.298 19.9449 27.7355 19.6655 31.1823 19.5701C34.2134 19.4859 37.2514 19.6056 40.2871 19.63C41.3434 19.6389 42.3997 19.6322 43.5731 19.6322C39.6418 23.2491 35.0515 25.8969 30.7184 29.2144C30.7919 27.8927 30.0088 27.192 29.0834 26.7706C27.8641 26.2185 26.6494 25.5155 25.1889 25.6796C24.7389 25.7306 24.2751 25.6596 23.8227 25.6995C23.2923 25.7461 22.7205 25.7527 22.2497 25.9568C21.051 26.4757 19.8661 26.9902 19.0831 28.1611C18.6629 28.7887 17.8546 29.1767 17.3081 29.6047C15.8453 28.9749 14.5984 28.3407 13.2804 27.895C11.6018 27.3273 10.2309 26.2739 8.73829 25.4179C7.9254 24.9522 7.18598 24.3624 6.37079 23.9011C5.55791 23.4376 4.68532 23.0739 3.85176 22.6459C3.64969 22.5417 3.49129 22.3577 3.20425 22.1204C3.55788 22.0095 3.77602 21.9052 4.00336 21.8742ZM4.83229 47.2989C4.41436 44.4759 4.04469 41.9256 3.66121 39.3798C3.27543 36.8362 2.82764 34.2993 2.49927 31.7491C2.1686 29.1834 1.90221 26.6087 1.73229 24.0297C1.82644 23.9742 1.92288 23.921 2.01703 23.8656C3.04806 24.4377 4.08603 24.9943 5.10329 25.5864C6.49255 26.3936 7.86339 27.2319 9.24576 28.0502C9.49376 28.1966 9.75098 28.3562 10.0265 28.4272C12.7499 29.1301 15.1174 30.5605 17.5538 31.8533C18.3552 32.2769 19.1956 32.6339 19.9832 33.0774C20.7227 33.4921 20.7778 33.7959 20.2129 34.3991C19.6572 34.9934 19.0671 35.5767 18.4126 36.0667C16.9062 37.1911 15.3103 38.2045 13.8315 39.3577C12.2516 40.5884 10.7338 41.899 9.24346 43.2318C8.48568 43.9081 7.83124 44.6666 6.94487 45.2343C6.21235 45.7044 5.67273 46.4562 4.83229 47.2989ZM44.7924 44.9748C43.0197 45.201 41.2309 45.3096 39.4559 45.527C36.5281 45.884 33.6071 46.2943 30.6817 46.6713C28.2085 46.9884 25.7332 47.2944 23.2578 47.5982C21.818 47.7756 20.3782 47.9974 18.9293 48.0994C15.9464 48.3123 12.9589 48.4786 9.97143 48.625C8.79113 48.6826 7.60625 48.6338 6.42366 48.6338C6.39381 48.5562 6.36622 48.4786 6.33637 48.401C6.88748 47.8909 7.45006 47.3942 7.9851 46.8708C8.45354 46.414 8.92432 45.955 9.34224 45.456C11.3262 43.0899 13.8407 41.2914 16.2679 39.3998C18.1164 37.9628 19.9878 36.5524 21.8226 35.0999C22.2359 34.7739 22.5941 34.3548 22.8834 33.9201C23.3955 33.1506 23.182 32.6029 22.3439 32.1727C21.4024 31.6892 20.4838 31.1681 19.3564 30.5539C20.3208 29.587 21.1061 28.762 21.942 27.9903C22.1969 27.7553 22.5781 27.5823 22.9294 27.5202C24.3141 27.2762 25.6711 27.4448 26.9548 28.0014C28.0754 28.4848 28.6816 29.3386 28.7482 30.6159C28.5415 30.698 28.3325 30.8199 28.1075 30.8643C27.5656 30.9663 27.1638 31.2125 27.0949 31.7735C27.0237 32.3435 27.0305 32.9089 27.6437 33.2571C28.4267 33.7006 29.1914 34.184 29.9951 34.5943C33.4097 36.3329 36.8289 38.0648 40.2664 39.7657C41.4123 40.3334 42.6592 40.7215 43.7867 41.3202C45.0198 41.9766 46.1794 42.7638 47.3413 43.5333C47.5802 43.693 47.6972 44.0234 47.9452 44.3827C46.8407 44.8417 45.7959 44.8462 44.7924 44.9748ZM48.168 35.9093C48.5194 37.8364 48.9327 39.7524 48.9005 41.8081C48.3999 41.6019 47.9291 41.451 47.5066 41.2226C43.0495 38.7988 38.2916 36.9627 33.7886 34.6298C32.6542 34.0421 31.5543 33.3968 30.4452 32.7648C30.2753 32.6672 30.1467 32.4987 29.8987 32.2725C32.0894 29.5803 35.1043 28.0191 37.6945 25.9812C40.2664 23.9587 42.9669 22.0871 45.6031 20.1556C46.4895 20.7721 46.4504 21.6081 46.5239 22.3155C46.765 24.5863 46.8178 26.8749 47.0841 29.1412C47.3528 31.4076 47.7616 33.6607 48.168 35.9093Z"
    fill="#251C1C"
  />
</svg>
