<svg
  width="155"
  height="102"
  viewBox="0 0 155 102"
  fill="none"
  xmlns="http://www.w3.org/2000/svg"
>
  <path
    d="M132.293 91.9313C131.474 88.7607 128.568 86.8634 125.511 86.0692C126.103 78.7762 124.219 71.439 120.859 64.7764C120.84 64.4738 120.727 64.1713 120.525 63.9696C120.493 63.9317 120.449 63.9128 120.411 63.875C117.525 58.4163 113.654 53.4429 109.343 49.3773C112.551 46.9694 115.249 43.8997 117.071 40.2374C121.88 30.5491 117.966 20.5205 111.978 12.3954C113.49 8.63862 114.656 4.73054 115.64 0.803541C115.753 0.362306 115.337 -0.123053 114.865 0.0282278C111.272 1.21326 107.672 2.75128 104.748 5.20329C104.741 5.19699 104.735 5.19068 104.729 5.18438C101.243 3.55181 97.3664 2.48024 93.4078 2.05161C92.8721 1.83729 92.2985 1.79947 91.7312 1.91924C90.9747 1.87511 90.2184 1.8436 89.4619 1.8436C89.2098 1.81838 88.9514 1.81838 88.6992 1.8562C81.9294 2.02639 75.2605 4.16323 70.2052 8.74578C70.1736 8.72687 70.1484 8.70166 70.1043 8.68275C66.4294 7.35274 62.7483 6.74131 58.878 6.39463C58.607 6.36941 58.3863 6.69088 58.4683 6.93672C59.5714 10.3342 60.9392 13.9334 62.8365 16.9906C62.4394 17.6398 62.1558 18.3962 62.0864 19.1274C60.9455 21.8505 60.4728 24.7311 60.5358 27.6181C60.5169 27.8324 60.5169 28.0341 60.5484 28.2232C60.7123 31.545 61.5948 34.8606 63.0256 37.9304C57.7245 42.3112 52.6755 47.0639 48.4775 52.5227C43.8193 58.5865 40.6676 65.5958 38.2093 72.8069C37.352 75.3219 36.4821 78.0576 36.0472 80.8121C31.824 75.9523 33.0468 68.5017 34.2318 62.6459C35.6312 55.7248 38.0139 49.0369 41.279 42.7713C44.8845 35.8566 51.3329 22.9977 40.5919 18.5727C31.0613 14.6394 20.3014 24.8572 16.2105 32.5284C10.9472 42.4058 11.6343 56.0147 14.6599 66.4783C17.6729 76.9041 25.2495 86.4663 36.2994 88.1745C36.4317 88.6661 36.5893 89.1452 36.791 89.6243H36.7847C37.0368 90.0529 37.2827 90.4752 37.4907 90.9291C37.5285 91.0047 37.5285 91.0803 37.5474 91.156C37.5915 91.219 37.6104 91.2883 37.642 91.3577C37.6672 91.3577 37.6924 91.3514 37.7113 91.3514C40.0877 94.9569 44.9917 97.0496 48.8431 94.6102C49.8075 94.9632 50.7908 95.2847 51.7804 95.5746C55.7011 97.0433 59.9811 97.9132 64.0531 98.0519C70.1358 98.2536 76.8363 98.6759 82.7489 96.9677C82.7804 96.9551 82.8056 96.9362 82.8308 96.9236C90.7478 100.655 101.35 97.8502 109.412 95.9907C109.759 96.4571 110.169 96.9046 110.666 97.327C111.505 98.0518 112.639 98.9658 113.837 99.4827C113.818 99.4827 113.806 99.4827 113.787 99.4827C113.862 99.5016 113.944 99.5331 114.026 99.5521C115.457 100.674 117.625 101.153 119.233 101.475C122.239 102.073 126.015 102.193 128.568 100.283C128.6 100.258 128.612 100.227 128.631 100.195C131.171 98.3166 133.075 94.9632 132.293 91.9313ZM14.7607 57.1367C14.4141 53.7707 14.2439 50.2787 14.4456 46.8181C15.8008 47.9338 17.3956 48.7532 19.1353 49.081C20.9759 49.4277 23.3144 49.5159 24.2977 47.5871C26.5922 43.0928 19.0029 39.7583 16.0151 38.4977C15.9647 38.4725 15.9017 38.4661 15.8449 38.4472C16.0088 37.8925 16.1601 37.3315 16.3555 36.7831C16.7841 35.5792 17.3451 34.3563 18.007 33.1524C19.255 34.3816 20.7552 35.554 22.2176 36.4113C23.535 37.1866 25.092 37.6215 26.548 36.9659C30.5633 35.1632 27.2855 30.9399 25.155 29.1309C24.2788 28.3871 23.2766 27.637 22.1546 27.347C25.0541 24.1323 28.6219 21.4912 32.3345 20.2431C36.23 18.932 41.134 19.4552 43.4726 23.2435C45.5023 26.5276 44.9287 30.6815 43.6365 34.1105C43.5608 34.3122 43.4726 34.5076 43.3906 34.703C42.4073 34.0097 41.2034 33.5369 40.0625 33.1776C39.1359 32.8877 38.0517 32.5347 37.1062 32.9129C34.3264 34.0286 37.1188 37.0983 38.2597 38.2644C39.0224 39.0461 39.886 39.8655 41.0395 39.8781C40.0562 41.8384 39.0161 43.7799 38.0391 45.7465C37.1881 44.6245 35.8644 43.8366 34.5407 43.4269C33.1666 42.9983 31.0171 42.6642 30.1347 44.1266C29.2837 45.5385 30.0086 47.5619 30.91 48.7595C32.0383 50.2534 33.7339 51.0414 35.4673 51.5961C35.3917 51.8041 35.2971 52.0058 35.2215 52.2138C32.1833 60.862 27.5818 75.5551 35.5556 82.949C35.6249 83.012 35.6942 83.0372 35.7699 83.0751C35.7383 83.6108 35.7257 84.1466 35.7447 84.6824C35.751 84.7013 35.7573 84.7202 35.7573 84.7391C35.7888 84.9787 35.8014 85.2182 35.8077 85.4577V85.464C35.814 85.4893 35.8329 85.5082 35.8392 85.5397C35.8959 85.817 35.9338 86.0818 35.9464 86.3717C35.9464 86.4285 35.9338 86.4726 35.9274 86.523C35.9653 86.7499 36.022 86.9768 36.0661 87.2038C22.8732 83.3272 16.1286 70.2414 14.7607 57.1367ZM38.0895 79.8793C38.7009 76.778 39.6338 73.6831 40.7432 70.6574C42.3569 71.3697 44.5 70.8339 45.1367 69.0438C45.704 67.4427 44.582 65.5076 42.9179 65.2618C43.1511 64.7323 43.3906 64.2091 43.6302 63.6859C44.8089 64.1587 46.1956 64.1965 47.1411 63.2069C48.3199 61.9777 47.6832 60.4334 46.6684 59.3681C46.5045 59.1979 46.265 59.0845 46.0191 59.0403C50.5702 51.2242 56.9744 45.0406 63.3219 38.567C63.4984 38.92 63.6749 39.273 63.8577 39.6134C55.9028 47.1837 50.2046 57.5149 46.7755 67.8524C45.0736 72.9771 43.9327 78.2845 43.3591 83.655C43.0818 86.2709 41.9472 90.9291 44.7143 92.4986C44.5568 92.4923 44.4496 92.7192 44.6135 92.8012C45.061 93.0281 45.5212 93.2361 45.975 93.4504C39.3376 94.73 36.9675 85.5712 38.0895 79.8793ZM130.516 94.2572C129.835 98.5813 126.406 100.353 122.586 100.22C121.918 100.138 121.25 100.056 120.575 99.987C115.917 99.0856 112.217 96.5832 109.444 93.0092C108.599 90.2861 107.685 87.6639 107.263 84.7644C106.752 81.2786 106.506 77.7487 106.178 74.244C106.166 74.118 105.983 74.1117 105.977 74.244C105.876 75.9649 105.794 77.837 105.781 79.7532C103.525 77.7802 103.455 75.0131 103.065 72.1387C103.058 72.0757 102.951 72.0757 102.939 72.1387C102.27 75.4417 102.434 79.5893 105.472 81.6505C105.586 81.7261 105.699 81.7703 105.8 81.7892C105.901 85.546 106.399 89.3721 107.874 92.6058C107.861 92.6121 107.849 92.6247 107.836 92.631C107.931 92.7444 108 92.8768 108.025 93.0533L108.032 93.1037C108.196 93.5071 108.328 93.9169 108.429 94.3392C108.441 94.3203 108.467 94.3077 108.473 94.2887C108.498 94.3707 108.542 94.4463 108.574 94.522C106.5 95.001 104.426 95.499 102.34 95.9402C103.172 94.4842 103.55 92.5616 103.897 91.1308C104.577 88.3068 104.937 85.2623 104.256 82.4069C104.231 82.306 104.098 82.3376 104.092 82.4321C103.657 86.7373 103.909 93.2487 100.247 96.3563C98.2425 96.7408 96.2254 97.0685 94.1832 97.2324C90.2246 97.5539 86.8776 96.9803 83.2216 96.1987C83.2153 96.123 83.2027 96.0537 83.1775 95.9844C84.06 95.3918 84.8794 94.6859 85.5728 93.7845C85.598 93.671 85.6358 93.5513 85.7177 93.4378C86.159 92.8075 86.5498 92.1519 86.9091 91.4711C86.8902 91.4522 86.8713 91.4333 86.8587 91.4081C88.529 87.1659 87.1675 82.0413 82.8749 79.8162C80.2401 78.4484 76.9183 78.2215 73.9305 79.022C73.9241 79.0157 73.9241 79.0157 73.9178 79.0094C72.7139 78.3664 71.4847 77.7613 70.2493 77.1751C70.0791 77.0932 69.8963 77.0427 69.7198 76.986C69.121 76.6835 68.5159 76.3935 67.8981 76.1161C67.8351 71.9938 67.7721 67.2158 70.722 64.02C71.9197 62.7215 73.5459 61.2024 75.292 60.7738C78.513 59.9795 80.6877 62.5891 82.1437 65.0411C82.295 65.2933 82.7552 65.1231 82.6354 64.8331C82.1437 63.5977 81.4756 62.5261 80.6814 61.6751C88.0311 56.9791 96.6793 59.9102 100.657 67.5058C100.751 67.6885 101.066 67.5625 100.997 67.3608C97.8391 58.5109 87.4323 55.7815 79.843 60.8809C77.9079 59.3618 75.3991 59.0845 72.7202 60.8998C67.4632 64.4612 66.8707 69.8443 66.9589 75.719C65.3074 75.0257 63.6055 74.4332 61.8784 74.036C62.1495 73.91 62.4331 73.7902 62.6915 73.6326C63.3786 73.2103 64.2926 72.6367 64.6267 71.874C64.8032 71.4769 64.4439 71.0987 64.0342 71.2815C63.303 71.6218 62.7105 72.3404 62.036 72.788C61.4939 73.1473 60.914 73.4561 60.3278 73.7398C60.1513 73.7146 59.9685 73.6704 59.792 73.6452C61.1976 72.4917 62.036 70.6196 61.1472 68.8988C60.8951 68.4134 60.2017 68.6782 60.1765 69.1635C60.0883 70.815 59.8172 72.4098 58.733 73.5381C57.3841 73.4372 56.0415 73.4687 54.7304 73.702C54.2702 73.7839 54.3081 74.4836 54.7304 74.5907C57.5606 75.2967 60.5232 75.2715 63.3849 75.9586C66.0512 76.5952 68.7302 77.4273 71.2704 78.4925C71.7432 78.8014 72.2222 79.1039 72.695 79.4065C70.7346 80.1503 69.0012 81.3669 67.8162 83.0246C67.3182 83.7243 68.4717 84.3862 68.9634 83.6928C73.0921 77.9504 84.6588 78.9653 85.9699 86.523C86.8019 91.3199 83.8456 94.2824 80.0447 95.8331C74.9453 96.4004 69.9026 96.7975 64.7275 96.684C64.1287 96.6714 63.5299 96.6273 62.9374 96.5706C63.7757 96.0222 64.4628 94.9506 65.0112 94.1942C66.461 92.2023 67.7721 89.0822 66.0765 86.8319C64.4943 84.7392 62.1179 85.9116 60.7942 87.5883C59.8109 88.8363 58.9789 90.2294 58.3359 91.6792C57.8253 92.8264 57.6362 94.3896 56.9744 95.4549C55.3355 95.0956 53.7029 94.7111 52.0704 94.3077C52.8961 94.2635 53.6336 93.8538 54.182 92.7696C55.2221 90.721 56.2306 86.9768 54.9825 84.7959C53.8164 82.7662 50.9358 84.6887 49.7318 85.6846C47.948 87.1596 46.1704 89.5801 45.5086 91.8241C42.4893 90.3239 45.1241 79.9108 45.5527 77.7172C46.0633 75.0761 46.7377 72.4602 47.5319 69.8884C47.6643 69.9452 47.8093 69.9956 47.9669 70.0082C48.2568 70.0334 48.5531 70.0586 48.8431 70.0838C49.0763 70.1027 49.2528 70.0523 49.4167 69.9767C49.9209 70.0649 50.4567 70.0523 50.9547 70.0586C52.1712 70.0649 53.5138 70.0775 54.7052 69.7876C56.5836 69.3211 57.7308 67.6633 56.5269 65.9047C55.2662 64.0641 52.852 62.5135 50.6836 62.1101C50.5891 62.0912 50.5071 62.1038 50.4189 62.1038C51.0303 60.717 51.667 59.3492 52.3603 58.0255C54.8123 60.2695 58.3611 61.7382 61.6515 62.0218C64.5826 62.274 65.755 59.5005 64.8725 56.9413C63.9963 54.4074 60.9455 51.5645 58.3674 50.8586C57.7182 50.6821 57.1383 50.7199 56.6025 50.8964C58.9726 47.3287 61.5948 43.9123 64.3998 40.5526C65.0616 41.662 65.7991 42.7335 66.5996 43.7358C68.8184 46.5155 71.5163 48.8289 74.4915 50.6758C73.2875 49.2386 71.9764 47.9023 70.7725 46.4588C70.0917 45.6457 69.537 44.7758 69.0012 43.887C67.6964 42.5255 66.5051 41.0694 65.5092 39.4999C66.814 40.0042 68.4276 39.752 69.392 38.4157C70.2871 37.174 70.035 35.5603 68.7932 34.6526C67.3749 33.6189 65.2444 33.9214 63.6181 34.1357C63.3723 34.1673 63.1706 34.3122 63.0193 34.5013C62.4331 32.9129 62.0108 31.2677 61.7839 29.5784C61.7902 29.5784 61.7965 29.5847 61.8091 29.591C64.0216 30.2655 66.8076 29.4145 68.4213 27.8261C70.2052 26.0674 69.9089 23.6595 67.7973 22.361C66.7446 21.7118 65.4524 21.4029 64.2359 21.2832C63.6244 21.2201 62.887 21.113 62.2692 21.258C62.3764 20.8356 62.4835 20.4196 62.6159 19.9973C62.6348 19.9784 62.66 19.9721 62.6789 19.9406C63.1202 19.0644 63.366 18.1126 63.7883 17.2175C63.7883 17.2112 63.8009 17.1986 63.8009 17.1923C63.7568 17.1545 63.7127 17.1103 63.6686 17.0725C63.6686 17.041 63.6875 17.0095 63.6749 16.9717C62.4205 13.7002 60.8762 10.5233 59.5399 7.2771C63.0824 7.4662 66.5366 8.37388 69.8144 9.71019C70.1421 9.84257 70.3817 9.62825 70.451 9.3509C73.754 7.37165 77.0002 5.57519 80.5112 4.35864C80.1456 6.19292 81.7151 7.94525 83.6818 7.87592C85.39 7.81919 86.7263 6.51439 86.9406 4.95746C87.3566 5.51846 87.9617 5.90296 88.7055 5.83363C89.8527 5.72647 90.3381 4.76836 90.4453 3.76612C90.4705 4.35234 90.7415 4.92594 91.2584 5.26002C92.0967 5.80841 93.2566 5.65083 93.9625 4.95746C94.4479 4.4721 94.6622 3.74721 94.4983 3.12318C97.8391 3.60224 101.104 4.59186 104.206 6.04794C104.514 6.19292 104.798 6.02903 104.924 5.79581C104.987 5.80211 105.056 5.80841 105.119 5.7769C108.107 4.283 110.994 2.75128 114.121 1.59776C113.182 5.31045 112.015 8.92858 110.748 12.553C110.711 12.6665 110.717 12.761 110.736 12.8493C110.66 12.8808 110.585 12.9123 110.503 12.9501C110.572 13.0132 110.616 13.0825 110.692 13.1455C112.633 15.9442 114.411 18.9005 115.684 21.9702C115.028 21.5731 114.089 22.1341 113.453 22.38C112.204 22.859 110.95 23.2498 110.389 24.5861C109.223 27.3596 113.175 29.0174 115.375 28.9292C115.438 29.0741 115.533 29.2065 115.684 29.3011C116.213 29.6414 116.768 29.7108 117.373 29.5595C117.449 29.5406 117.487 29.4839 117.55 29.4523C117.619 30.3222 117.644 31.2047 117.594 32.0871C115.501 31.3938 111.662 30.3663 110.276 32.5977C108.738 35.0623 111.933 37.9682 113.862 39.0965C114.058 39.4053 114.266 39.7079 114.474 39.9916C114.606 40.1744 114.808 40.3193 115.028 40.4202C110.509 48.3498 101.716 53.0521 92.7208 53.651C90.7415 53.7833 88.7623 53.6573 86.8082 53.3547C91.1954 55.0692 97.6185 54.4893 101.993 53.3736C104.388 52.4659 106.67 51.2683 108.75 49.7933C109.463 50.7577 110.181 51.7095 110.9 52.655C110.862 52.6613 110.83 52.6487 110.793 52.6613C107.622 53.5375 104.823 55.4222 102.724 57.9562C101.085 59.9354 100.72 62.6711 103.821 63.3644C106.935 64.0578 111.391 62.0533 114.014 60.4712C114.171 60.3766 114.291 60.2758 114.417 60.1686C114.461 60.1623 114.499 60.156 114.549 60.1308C114.984 59.8913 115.438 59.7022 115.905 59.5257C116.497 60.4082 117.09 61.2843 117.644 62.1983C115.646 62.6269 113.831 63.396 112.11 64.518C111.599 64.8457 111.461 65.4382 111.725 65.9803C112.457 67.4616 114.404 67.6823 115.892 67.5688C117.348 67.4616 118.634 66.9637 119.806 66.1631C120.941 68.5206 121.861 70.9285 122.548 73.3931C119.025 72.8321 109.355 77.3327 114.367 80.7302C115.482 81.4866 116.97 81.5244 118.268 81.6505C119.832 81.8081 121.628 81.9972 123.172 81.556C123.462 81.474 123.696 81.3416 123.904 81.1904C124.011 82.6906 124.042 84.2097 123.973 85.7414C123.601 85.691 123.229 85.6405 122.87 85.6216C122.158 85.5838 122.076 86.6175 122.706 86.8193C126.482 88.0547 131.323 89.1704 130.516 94.2572Z"
    fill="#251C1C"
  />
  <path
    d="M95.0526 44.1328C95.0276 44.1703 95.0027 44.1952 94.9777 44.2327C94.9715 44.2639 94.9902 44.2389 95.0526 44.1328Z"
    fill="black"
  />
  <path
    d="M111.518 40.6724C110.837 39.4369 109.438 39.355 108.146 39.2856C107.736 39.2604 107.326 39.2667 106.923 39.2667C105.517 36.9975 101.634 35.6486 98.6906 36.613C99.0751 35.9511 99.1444 35.2704 98.4574 34.6905C97.1337 33.5748 95.4002 34.6968 94.6565 36.0268C93.6605 34.8418 91.656 33.2596 90.9564 34.8859C90.6223 35.6549 91.3787 36.5121 91.8073 37.0542C92.2927 37.6783 92.8285 38.2267 93.4084 38.7309C91.0887 37.3568 88.4792 36.6256 85.6679 36.9219C83.5499 37.1425 80.1713 38.1951 79.5158 40.5841C79.3078 40.6219 79.0997 40.6598 78.8917 40.7039C76.6982 41.1388 74.6307 41.7313 73.2691 43.6034C73.1494 43.7673 73.4078 43.9501 73.5402 43.8114C75.0026 42.3301 77.1394 41.4225 79.4401 40.8867C79.4086 41.0821 79.3897 41.2838 79.396 41.4918C79.4086 42.0528 79.5725 42.5634 79.8435 43.0298C78.98 43.3828 78.2236 43.9123 77.6878 44.7443C77.5806 44.9145 77.7949 45.1351 77.9651 45.0217C78.7594 44.4985 79.4906 44.0194 80.3037 43.6665C81.7976 45.3936 84.798 46.3643 86.5818 46.7803C88.9771 47.3413 91.675 47.1648 93.6038 45.6898C93.8874 46.9253 95.0599 47.7573 96.3458 47.5556C97.1778 47.4233 98.5645 46.3706 98.4826 45.381C98.5141 45.3873 98.533 45.4062 98.5645 45.4125C101.073 46.0807 105.089 45.526 106.696 43.2567C106.784 43.1307 106.828 43.0046 106.904 42.8785C107.818 43.2504 108.713 43.761 109.608 44.4607C109.93 44.7128 110.39 44.2905 110.074 43.9942C109.274 43.2441 108.297 42.6453 107.244 42.2167C107.578 41.2964 107.503 40.4139 107.125 39.6323C108.637 39.7584 110.056 40.1303 111.102 41.0001C111.329 41.1766 111.669 40.9497 111.518 40.6724ZM86.2289 45.589C85.2266 45.3179 83.6193 44.9208 82.825 44.2338C82.2766 44.0447 81.9741 43.6917 81.8795 43.1937C83.4743 42.9038 85.0942 42.9605 86.7079 42.9542C86.7394 42.9542 86.752 42.9038 86.7142 42.8975C85.3023 42.6201 83.531 42.368 81.8669 42.5319C81.911 42.223 82.0056 41.8763 82.1632 41.4855C81.9867 41.1136 81.8732 40.7858 81.7976 40.477C84.1613 40.2059 86.5503 40.2626 88.4792 40.5652C88.517 40.5715 88.5359 40.5211 88.4981 40.5085C86.2289 39.8529 83.9912 39.897 81.7345 40.2059C81.5518 39.0272 82.2073 38.3527 83.7075 38.1699C87.5273 36.9471 91.5804 38.1636 94.9338 40.1366C94.9338 40.4328 94.9212 40.7354 94.9338 41.0317C94.9338 41.0695 94.959 41.0821 94.9716 41.1136C94.9653 41.1325 94.9527 41.1388 94.9527 41.1577C94.4358 45.6142 89.8911 46.5786 86.2289 45.589ZM97.5245 45.5575C97.3228 46.0617 96.9383 46.4715 96.4214 46.6606C95.4002 47.0325 94.3602 46.3391 93.9316 45.4188C94.3161 45.0784 94.6817 44.6939 94.9779 44.2275C95.0094 44.1329 95.2868 43.5845 95.5326 43.0676C96.1567 43.9816 96.7807 44.6498 97.7136 45.091C97.6506 45.2297 97.5938 45.381 97.5245 45.5575ZM100.853 42.1789C102.403 42.0213 103.809 42.0591 105.139 42.3301C104.994 42.8029 104.817 43.2946 104.565 43.8303C102.347 45.3684 95.8415 45.2927 95.728 41.164C95.728 41.1388 95.7091 41.1325 95.7028 41.1073C95.7091 41.0821 95.728 41.0695 95.7343 41.0443C95.7343 41.0254 95.7343 41.0001 95.7343 40.9812C95.8163 41.0064 95.9234 40.9686 95.9297 40.8489C95.9297 40.8047 95.9297 40.7606 95.9297 40.7165C95.9928 40.7291 96.0495 40.6535 95.9991 40.6093C95.9802 40.5904 95.9549 40.5715 95.936 40.5526C95.936 40.4139 95.936 40.2689 95.9423 40.1303C96.0999 40.0798 96.2323 39.9601 96.2638 39.7899C96.3016 39.5819 96.371 39.3865 96.4277 39.1911C96.5096 39.1722 96.5916 39.1343 96.6546 39.0524C98.7347 36.7517 101.017 36.2915 103.5 37.672C104.351 38.0502 104.918 38.5986 105.215 39.3045C103.601 39.3991 102 39.6323 100.411 40.0483C100.374 40.0609 100.393 40.1114 100.43 40.1051C101.823 39.9034 103.563 39.6386 105.303 39.5819C105.486 40.1681 105.486 40.8552 105.328 41.6305C103.809 41.3468 102.239 41.4162 100.84 41.9835C100.739 42.0276 100.733 42.1915 100.853 42.1789Z"
    fill="black"
  />
  <path
    d="M110.667 4.47852C109.097 5.20341 107.647 6.10479 106.242 7.10072C106.235 7.10702 106.235 7.10702 106.235 7.11333C106.053 7.23939 105.908 7.40328 105.895 7.66172C105.876 8.10295 106.343 8.51898 106.607 8.82154C107.187 9.48339 107.83 10.0885 108.492 10.6684C108.788 10.9269 109.211 10.8197 109.343 10.4415C109.973 8.61983 110.692 6.83598 111.417 5.05212C111.6 4.59828 111.02 4.31463 110.667 4.47852Z"
    fill="#251C1C"
  />
  <path
    d="M67.6698 11.4374C66.1885 10.9772 64.701 10.5612 63.2197 10.12C62.8541 10.0128 62.5641 10.4289 62.7406 10.744C63.5159 12.1686 64.2345 13.7129 64.5308 15.314C64.6253 15.8245 65.4321 15.6985 65.4258 15.1942C65.4258 15.0744 65.4069 14.9547 65.4006 14.8286C65.804 14.3306 66.2075 13.8453 66.6298 13.3788C66.8126 13.3095 66.9513 13.1708 66.9828 12.9943C67.2601 12.7107 67.5501 12.4396 67.8652 12.1812C68.1426 11.9669 67.9598 11.5319 67.6698 11.4374Z"
    fill="#251C1C"
  />
  <path
    d="M87.003 24.6681C86.6878 23.9999 85.7486 24.3907 85.7108 25.0211C85.6352 26.307 85.8873 27.4542 85.5973 28.7464C85.3389 29.8873 84.6455 32.0178 83.0319 31.6144C80.832 31.066 79.5335 27.555 79.439 25.601C79.4137 25.1093 78.6762 25.103 78.6699 25.601C78.6636 28.3177 80.1638 33.2785 83.6811 33.1398C87.1606 33.0011 88.1313 27.1075 87.003 24.6681Z"
    fill="black"
  />
  <path
    d="M105.944 24.3467C105.579 23.4327 104.091 23.7983 104.431 24.7627C104.904 26.0801 104.835 27.2841 104.488 28.6267C104.217 29.6604 103.858 31.6901 102.332 30.732C100.258 29.4335 99.5525 26.244 99.3571 24.0126C99.3445 23.8361 99.1113 23.7983 99.0546 23.9685C98.1406 26.6348 99.6849 32.0557 102.975 32.497C106.398 32.9634 106.77 26.3953 105.944 24.3467Z"
    fill="black"
  />
  <path
    d="M27.4415 93.932C22.9716 93.2724 18.3163 93.7194 13.8211 93.7848C9.27109 93.8502 4.74219 93.981 0.200644 94.4116C-0.0647708 94.4389 -0.0689837 94.9239 0.200644 94.9512C4.73797 95.3818 9.26688 95.5126 13.8211 95.578C18.3205 95.6434 22.9673 96.0904 27.4415 95.4309C28.183 95.3218 28.1872 94.041 27.4415 93.932Z"
    fill="#251C1C"
  />
  <path
    d="M154.259 97.5287C147.603 96.7723 140.177 97.0748 133.527 97.806C132.897 97.8754 132.897 98.72 133.527 98.7894C140.184 99.5205 147.603 99.8168 154.259 99.0667C155.243 98.9532 155.249 97.6421 154.259 97.5287Z"
    fill="#251C1C"
  />
</svg>
