<svg
  width="258"
  height="199"
  viewBox="0 0 258 199"
  fill="none"
  xmlns="http://www.w3.org/2000/svg"
>
  <path
    d="M50.2098 93.2737H34.6023C32.0003 93.2737 31.9966 97.3175 34.6023 97.3175H50.2098C52.8106 97.3175 52.8155 93.2737 50.2098 93.2737Z"
    fill="#EF4036"
  />
  <path
    d="M52.2638 99.0237H45.283C42.6809 99.0237 42.6773 103.068 45.283 103.068H52.2651C54.866 103.068 54.8707 99.0237 52.2638 99.0237Z"
    fill="#EF4036"
  />
  <path
    d="M255.986 26.7016C253.424 26.8861 250.844 26.8558 248.296 26.5002C247.206 26.3485 246.138 26.7659 245.81 27.9116C245.539 28.8546 246.142 30.2479 247.221 30.3984C250.142 30.8062 253.041 30.9579 255.986 30.7443C258.566 30.5586 258.586 26.5135 255.986 26.7016Z"
    fill="#EF4036"
  />
  <path
    d="M26.7962 181.983C19.5447 182.46 12.292 182.936 5.04043 183.412C2.45657 183.582 2.43837 187.627 5.04043 187.456C12.292 186.979 19.5447 186.502 26.7962 186.026C29.3801 185.855 29.3995 181.811 26.7962 181.983Z"
    fill="#EF4036"
  />
  <path
    d="M25.9718 189.291C18.1693 189.729 10.3667 190.166 2.56418 190.604C-0.0233088 190.75 -0.0402998 194.794 2.56418 194.648C10.3667 194.21 18.1693 193.773 25.9718 193.335C28.5605 193.189 28.5751 189.144 25.9718 189.291Z"
    fill="#EF4036"
  />
  <path
    d="M249.324 89.4119C247.441 88.1618 245.23 87.5137 243.208 88.2213C239.743 89.4325 239.592 93.236 237.726 95.843C236.634 97.3697 238.146 98.8443 239.639 98.7666C239.669 98.7848 239.7 98.8006 239.73 98.8103C240.609 99.104 241.458 98.8067 241.615 97.6525C241.637 97.4887 241.657 97.3236 241.678 97.1585C242.192 96.2519 242.552 95.2713 242.953 94.3028C243.296 93.48 243.723 92.1802 244.724 91.9787C246.1 91.7032 247.65 93.2239 248.513 94.0977C249.638 95.2374 250.295 96.5068 249.841 98.1174C248.969 101.207 245.984 103.19 243.933 105.464C241.873 107.746 240.115 110.566 240.507 113.765C240.64 114.857 241.34 115.775 242.529 115.787C243.519 115.797 244.683 114.849 244.55 113.765C244.531 113.61 244.521 113.457 244.517 113.305C244.673 113.023 244.785 112.633 244.876 112.111C245.137 110.624 245.651 109.327 246.975 108.493C249.929 106.635 252.227 104.097 253.949 101.134C255.188 99.0021 256.101 96.7823 254.621 94.0953C253.343 91.776 251.422 90.4762 249.324 89.4119Z"
    fill="#EF4036"
  />
  <path
    d="M194.96 24.9526C194.111 20.2715 188.84 20.9548 185.221 20.9633C180.909 20.9742 176.597 21.1963 172.307 21.6284C169.891 21.8723 167.471 22.1636 165.073 22.5495C163.31 22.8335 161.472 23.3226 160.173 24.6321C159.846 24.961 159.59 25.3179 159.381 25.6929C158.666 25.9417 158.075 26.5473 158.022 27.5097C156.93 47.5688 156.167 67.645 155.744 87.7296C155.624 93.3997 155.533 99.0699 155.466 104.74C155.451 105.936 156.413 106.622 157.488 106.762C168.629 108.2 179.887 108.413 191.074 107.393C192.215 107.289 193.026 106.548 193.096 105.371C194.17 87.408 194.829 69.4218 195.058 51.4282C195.116 46.8346 195.146 42.2398 195.15 37.6449C195.151 35.5392 195.146 33.4335 195.136 31.3278C195.128 29.2513 195.333 27.0073 194.96 24.9526ZM165.262 27.0558C165.261 27.0631 165.26 27.0704 165.258 27.0764C165.227 27.0607 165.197 27.0449 165.167 27.0303C165.176 26.8653 165.169 26.7087 165.147 26.5582C165.256 26.5376 165.366 26.5206 165.474 26.5036C165.38 26.665 165.307 26.8483 165.262 27.0558ZM170.887 103.85C170.912 103.739 170.925 103.622 170.928 103.502C171.17 103.564 171.424 103.593 171.678 103.576C172.201 103.758 172.805 103.733 173.317 103.497C173.468 103.673 173.646 103.824 173.839 103.944C172.855 103.923 171.871 103.891 170.887 103.85ZM176.075 103.978C176.185 103.898 176.287 103.802 176.38 103.69C176.407 103.791 176.441 103.888 176.48 103.98C176.347 103.98 176.211 103.979 176.075 103.978ZM176.519 64.021C176.566 63.1423 176.615 62.2649 176.662 61.3862C176.704 62.2236 176.745 63.061 176.786 63.8985C176.695 63.9337 176.605 63.9737 176.519 64.021ZM176.697 25.6055C176.695 25.5011 176.687 25.4028 176.672 25.3069C176.961 25.2875 177.25 25.2681 177.54 25.2499C177.238 25.3069 176.949 25.4259 176.697 25.6055ZM179.173 25.5752C178.874 25.3652 178.513 25.245 178.143 25.2159C178.503 25.1953 178.864 25.1759 179.224 25.1577C179.206 25.2972 179.189 25.4368 179.173 25.5752ZM183.033 88.811C183.008 88.8049 182.984 88.7976 182.959 88.7928C183.001 88.2029 183.039 87.6131 183.068 87.022C183.074 87.3643 183.08 87.7066 183.086 88.05C183.069 88.3025 183.052 88.5573 183.033 88.811ZM185.745 58.0341C185.681 57.3314 185.618 56.6275 185.546 55.9248C185.701 55.7913 185.833 55.625 185.928 55.4224C185.869 56.2926 185.808 57.164 185.745 58.0341ZM186.182 25.7887C186.007 27.0157 185.833 28.2427 185.658 29.4697C185.614 28.7306 185.573 27.9927 185.524 27.2536C185.432 25.8434 184.36 25.2099 183.342 25.3167C183.343 25.2196 183.346 25.1225 183.347 25.0254C183.972 25.0145 184.597 25.0072 185.223 25.006C185.642 25.0047 186.061 25.0132 186.479 25.0169C186.331 25.2244 186.227 25.4792 186.182 25.7887ZM190.375 77.8384C190.352 78.4816 190.324 79.1249 190.3 79.7693C190.276 78.6151 190.23 77.4609 190.164 76.3056L191.077 44.9013C190.999 55.8824 190.768 66.8634 190.375 77.8384Z"
    fill="#39B100"
  />
  <path
    d="M242.434 120.793C239.832 120.793 239.829 124.837 242.434 124.837C245.035 124.837 245.04 120.793 242.434 120.793Z"
    fill="#39B100"
  />
  <path
    d="M4.0305 98.4668C4.14701 98.4777 4.26597 98.4862 4.38369 98.4947C5.19198 99.0736 6.3474 99.1331 6.98699 98.4267C8.13024 98.2969 9.29655 98.0372 10.4155 97.6476C10.6571 97.6464 10.8973 97.6391 11.1352 97.6197C12.5236 97.5092 13.9193 96.9412 15.2106 96.3551C16.3575 95.8332 17.388 95.0394 18.4184 94.2955C18.6927 94.0976 18.8286 93.6535 18.939 93.2942C19.1259 92.6837 19.1817 92.0951 19.1429 91.5223C19.3553 91.0198 19.5252 90.4773 19.6441 89.8887C20.1186 87.5476 19.5627 84.9953 17.8563 83.3168C18.5372 82.7877 19.1514 82.1602 19.6344 81.4539C20.3067 80.9806 20.8578 80.3665 21.1199 79.5363C21.5847 78.0605 20.8747 76.66 19.9985 75.5107C16.792 71.3054 11.145 70.5566 6.23095 70.1561C5.22119 70.0735 4.09977 71.1525 4.20899 72.178C4.22113 72.2872 4.22957 72.3964 4.24171 72.5057C3.75382 73.2521 3.83397 74.4062 4.47721 75.1453C4.95538 81.5813 4.75272 88.0549 3.82428 94.4436C3.71141 94.4606 3.60091 94.4787 3.4929 94.4957C1.08502 94.9011 1.93332 98.2653 4.0305 98.4668ZM9.72741 76.4221C10.7724 76.6406 11.8088 76.9051 12.8331 77.217C13.4703 77.4112 14.1075 77.62 14.7374 77.847C14.9874 78.228 15.0966 78.6662 15.0674 79.1541C14.8405 79.2135 14.6499 79.2645 14.5322 79.3045C12.6353 79.9635 10.7056 80.5048 8.75163 80.9587C8.7395 79.5266 8.69212 78.0945 8.61202 76.6624C8.97368 76.5592 9.34875 76.4828 9.72741 76.4221ZM8.1569 92.2238C8.29525 91.0041 8.41065 89.7819 8.50167 88.5586C8.57328 88.4894 8.64964 88.4251 8.73338 88.3656C10.3415 88.2843 12.5394 88.2539 13.105 89.8839C13.6402 91.4252 11.0782 92.8464 10.0053 93.3961C9.86091 93.4702 9.71284 93.5333 9.56598 93.5989C9.4337 93.628 9.30147 93.6559 9.16918 93.6814C8.70557 93.3464 8.36929 92.8622 8.1569 92.2238Z"
    fill="#39B100"
  />
  <path
    d="M173.378 151.611C173.374 151.518 173.365 151.427 173.351 151.339C173.326 148.354 173.083 148.326 169.639 147.911C168.065 147.721 167.607 147.815 167.561 148.838C167.158 149.163 166.884 149.661 166.878 150.333C166.735 165.087 166.591 179.842 166.449 194.596C166.427 196.8 170.11 197.443 170.42 195.134C170.445 194.954 170.465 194.776 170.49 194.596H170.493V194.569C170.496 194.549 170.498 194.528 170.502 194.507C170.647 194.544 170.799 194.565 170.952 194.572C171.219 194.805 171.576 194.915 171.994 194.87C172.45 194.821 172.965 194.14 173.208 193.626C173.464 193.089 173.504 192.411 173.507 191.795C173.513 189.481 173.515 187.166 173.516 184.852C173.899 173.776 173.854 162.687 173.378 151.611Z"
    fill="#39B100"
  />
  <path
    d="M254.103 32.8412C252.513 32.3618 250.925 32.3303 249.298 32.5973C248.22 32.7732 247.619 34.1119 247.886 35.084C248.201 36.2297 249.292 36.6727 250.373 36.4967C251.262 36.3511 252.164 36.4797 253.029 36.7407C254.074 37.0562 255.231 36.3632 255.515 35.3292C255.81 34.2503 255.152 33.158 254.103 32.8412Z"
    fill="#39B100"
  />
  <path
    d="M2.63278 58.0802C2.61822 58.3035 2.81244 58.5644 3.03575 58.6093C4.13046 58.8253 5.23115 58.9188 6.34649 58.9346C6.57223 58.9382 6.82835 58.7634 6.87568 58.5316C7.19609 56.9369 7.52859 55.3398 7.41815 53.7086C7.82715 50.331 7.98257 46.928 8.19375 43.5286C8.34909 42.5552 8.50445 41.5819 8.65858 40.6085C10.5422 44.6548 12.1599 48.814 13.5095 53.063C13.6673 54.1152 13.8262 55.1674 14.001 56.216C14.2534 57.7294 14.5592 59.2343 14.8772 60.7356C14.916 60.9165 14.9682 61.0718 15.0338 61.2041C15.1454 61.8813 15.5205 62.6071 16.1297 62.942C16.1382 62.9833 16.1479 63.0246 16.1576 63.0658C16.6297 65.2832 19.5862 64.7564 20.068 62.8874C21.2234 62.7126 22.2939 62.3291 22.8388 61.3558C23.3413 60.4565 23.3145 59.2404 23.4468 58.2404C23.6337 56.8301 23.8194 55.4186 24.0063 54.0084C24.6775 48.9293 25.3486 43.8514 26.0198 38.7723C26.3013 36.6399 26.7383 34.2769 25.1896 32.4953C24.6144 31.8339 23.8546 31.3848 23.0475 31.1967C22.897 30.9746 22.6774 30.778 22.3545 30.6251C20.1493 29.5728 18.9648 30.1348 18.4575 32.4893C18.4162 32.6786 18.3811 32.8703 18.3495 33.0633C18.2366 33.1507 18.1577 33.2854 18.1529 33.4698C18.0606 37.1557 17.2232 40.7238 16.3979 44.2956C15.9173 42.0503 15.3712 39.8185 14.734 37.6121C14.2898 36.0744 13.8772 34.34 13.1623 32.812C13.098 32.1227 13.0471 31.4333 13.0289 30.744C12.9998 29.6675 12.3637 29.3702 11.4948 29.3168C10.8297 29.2767 10.1659 29.2366 9.50079 29.2014C8.64395 28.915 7.72283 28.8568 6.83444 29.1007C6.70701 29.0983 6.57953 29.0959 6.45209 29.0935C4.41195 29.068 4.13651 29.3653 4.08311 31.4225C4.07947 31.5511 4.07582 31.6797 4.07339 31.8072C3.79426 32.6931 3.72264 33.6859 3.69958 34.6592C3.6389 37.1472 3.58305 39.6352 3.52844 42.1232C3.30513 43.6609 3.06608 45.1997 2.93501 46.7508C2.78452 48.5251 2.7638 50.3128 2.75652 52.103C2.56476 53.3093 2.37179 54.5157 2.18004 55.7233C2.06717 56.4321 2.22257 57.136 2.65826 57.6299C2.64977 57.7816 2.64371 57.9309 2.63278 58.0802ZM16.9696 47.144C16.9635 47.1125 16.9574 47.0797 16.9513 47.0481C16.9695 47.0421 16.9889 47.036 17.0071 47.0287C16.995 47.0663 16.9805 47.1052 16.9696 47.144Z"
    fill="#39B100"
  />
  <path
    d="M250.436 88.4033C245.205 84.6871 240.421 87.3753 238.6 92.3622C237.968 94.0953 237.707 95.9813 237.428 97.8212C237.155 99.6186 237.753 100.633 239.07 100.61C242.159 100.554 242.858 100.494 243.176 98.3989C243.334 97.3588 243.263 96.2798 243.457 95.2495C243.934 92.7154 246.279 91.9787 248.233 93.6596C249.657 94.883 249.715 96.6148 250.051 98.2399C250.318 99.5288 249.878 100.625 248.858 101.445C247.25 102.743 245.606 103.993 243.995 105.288C241.358 107.41 238.901 109.572 239.67 113.562C239.922 114.879 240.223 115.651 241.673 115.529C242.055 115.498 242.442 115.525 242.826 115.525C245.609 115.705 245.968 115.431 246.606 112.665C246.628 112.572 246.613 112.457 246.663 112.384C247.29 111.463 247.745 110.305 248.592 109.672C252.117 107.038 254.737 103.74 256.334 99.6659C257.234 97.3721 257.153 95.1949 255.695 92.9581C254.333 90.867 252.351 89.7638 250.436 88.4033ZM253.948 101.134C252.226 104.097 249.929 106.635 246.975 108.493C245.651 109.327 245.136 110.624 244.875 112.111C244.58 113.787 244.087 114.101 242.533 113.845C241.366 113.654 241.159 113.363 240.841 111.733C241.365 110.816 241.709 109.698 242.451 109.019C244.328 107.307 246.223 105.517 248.399 104.257C253.339 101.397 251.931 94.1524 248.175 91.6729C245.951 90.2044 242.654 91.6328 242.071 94.3696C241.842 95.4473 241.762 96.5578 241.614 97.6525C241.457 98.8067 240.608 99.104 239.729 98.8103C239.327 98.6756 238.871 97.7945 238.937 97.3199C239.373 94.1511 240.017 91.0964 242.934 89.0381C244.366 88.0283 245.783 87.7552 247.25 88.4276C250.114 89.7431 252.93 91.0272 254.621 94.0953C256.1 96.7823 255.187 99.0021 253.948 101.134Z"
    fill="#251C1C"
  />
  <path
    d="M250.035 63.5939C250.63 56.8473 251.153 50.0958 251.651 43.3418C252.145 36.6328 252.565 29.9189 253.039 23.2098C253.108 22.2401 252.75 21.7147 251.772 21.7208C247.444 21.7487 243.115 21.7098 238.791 21.8542C233.321 22.0387 227.858 22.4477 222.387 22.6237C218.689 22.7414 214.983 22.5994 211.28 22.6225C209.287 22.6334 208.503 23.4441 208.482 25.3823C208.475 26.1506 208.507 26.9212 208.547 27.6894C208.927 34.9373 209.314 42.1852 209.699 49.4343C209.66 49.4355 209.621 49.4367 209.582 49.4392C209.815 57.8485 210.066 66.2567 210.259 74.6661C210.286 75.8166 210.774 76.1891 211.814 76.228C217.096 76.4258 222.376 76.7656 227.658 76.8227C232.845 76.8773 238.035 76.6758 243.222 76.5362C244.563 76.5011 245.9 76.2923 247.237 76.1358C248.393 76.0011 248.885 75.3675 248.817 74.1672C248.765 73.2679 248.882 72.3516 248.996 71.4523C249.33 68.8308 249.803 66.2227 250.035 63.5939ZM247.865 68.6123C247.732 69.9983 247.473 71.3734 247.22 72.7436C246.984 74.0119 246.288 74.8335 244.889 74.8493C237.684 74.9318 230.477 75.0641 223.272 75.075C220.199 75.0799 217.126 74.7898 214.052 74.7109C211.906 74.6551 211.788 74.5762 211.723 72.4596C211.433 63.1534 211.169 53.8459 210.809 44.5421C210.565 38.2518 210.192 31.9676 209.83 25.6833C209.771 24.6711 210.082 24.273 211.088 24.2791C214.549 24.3009 218.01 24.2876 222.886 24.2876C228.105 23.966 234.714 23.5072 241.33 23.1759C244.064 23.04 246.813 23.2366 249.552 23.1662C250.99 23.1298 251.419 23.7366 251.338 25.0655C250.986 30.7757 250.782 36.4981 250.314 42.1986C249.591 51.0109 248.708 59.811 247.865 68.6123Z"
    fill="#251C1C"
  />
  <path
    d="M249.384 146.109C248.785 145.703 247.933 145.332 247.267 145.433C245.431 145.708 243.549 146.025 241.842 146.712C237.481 148.464 233.918 151.371 230.84 154.901C229.686 156.227 227.993 156.36 226.612 155.342C225.664 154.643 225.622 153.415 226.507 151.812C226.692 151.477 226.898 151.149 227.133 150.847C228.37 149.259 229.555 147.623 230.881 146.111C233.356 143.29 235.881 140.508 239.328 138.795C242.071 137.433 244.803 136.052 247.653 134.623C247.338 133.609 246.568 133.799 245.917 134.089C243.417 135.203 240.872 136.249 238.474 137.56C232.706 140.71 228.779 145.815 224.939 150.921C222.946 153.572 223.852 156.085 226.931 157.399C227.927 157.824 228.008 158.315 227.504 159.152C227.008 159.973 226.49 160.795 226.116 161.672C224.166 166.25 224.466 167.207 228.661 169.866C228.442 170.259 228.237 170.674 227.987 171.06C227.336 172.068 226.616 173.036 226.011 174.071C224.826 176.099 225.013 178.436 226.431 179.978C227.031 180.632 228.164 181.267 228.155 181.897C228.143 182.7 227.211 183.484 226.688 184.285C225.179 186.598 225.648 188.709 227.978 190.198C228.394 190.465 228.777 190.787 229.216 191.114C228.845 191.613 228.608 191.973 228.329 192.296C227.108 193.708 226.484 195.386 227.243 197.091C227.999 198.791 229.84 199.033 231.481 198.997C234.842 198.92 238.204 198.69 241.558 198.416C242.019 198.378 242.429 197.729 242.863 197.362C242.406 196.96 241.998 196.322 241.479 196.213C240.708 196.05 239.86 196.266 239.044 196.316C236.31 196.482 233.577 196.724 230.84 196.782C229.258 196.816 228.485 195.544 229.34 194.409C230.546 192.806 232.033 191.534 234.231 191.545C238.141 191.566 241.687 190.223 245.029 188.386C245.786 187.971 246.548 186.724 246.509 185.899C246.451 184.661 245.22 184.096 243.963 184.013C243.437 183.979 242.886 183.956 242.38 184.073C238.798 184.897 235.316 185.961 232.585 188.62C231.464 189.714 230.305 189.376 229.149 188.729C228.215 188.206 227.379 187.488 227.808 186.317C228.46 184.541 229.93 182.284 232.57 182.37C235.566 182.468 238.373 181.687 241.014 180.304C243.009 179.258 245.043 178.269 246.955 177.083C248.426 176.171 248.313 174.662 246.706 173.982C245.693 173.554 244.457 173.384 243.355 173.48C238.676 173.893 234.768 176.02 231.296 179.104C230.776 179.566 229.67 180.007 229.211 179.759C228.431 179.338 227.689 178.451 227.403 177.6C226.923 176.178 227.758 174.927 228.511 173.723C229.676 171.857 230.998 170.264 233.244 169.576C236.539 168.567 239.854 167.565 243.024 166.237C244.794 165.494 246.385 164.21 247.883 162.962C249.001 162.03 248.728 160.659 247.416 160.027C246.759 159.71 245.872 159.439 245.22 159.621C242.877 160.274 240.413 160.816 238.327 161.989C235.803 163.409 233.562 165.362 231.305 167.213C230.038 168.25 228.924 167.675 227.834 167.169C226.777 166.677 226.978 165.703 227.313 164.778C227.459 164.376 227.513 163.941 227.601 163.518C228.322 160.032 230.533 157.853 233.952 157.13C234.927 156.923 235.909 156.587 236.793 156.126C239.855 154.526 242.91 152.905 245.896 151.169C247.211 150.405 248.392 149.391 249.56 148.406C250.478 147.633 250.275 146.709 249.384 146.109ZM243.797 186.425C241.325 187.951 238.732 189.097 235.72 188.95C238.199 187.42 240.736 186.07 243.797 186.425ZM244.845 175.758C241.357 177.449 238.264 180.165 233.858 179.98C236.004 177.242 241.595 175.231 244.845 175.758ZM246.081 161.649C245.379 163.358 237.56 166.887 235.612 166.374C237.175 163.913 243.798 160.924 246.081 161.649ZM233.728 154.588C236.017 151.099 244.366 145.941 247.548 147.406C246.612 149.714 235.974 155.319 233.728 154.588Z"
    fill="#251C1C"
  />
  <path
    d="M246.323 37.3015C246.447 37.2481 246.571 37.1959 246.694 37.1425C246.694 36.9981 246.696 36.8537 246.694 36.7093C246.652 34.2322 246.11 32.0513 243.583 30.857C243.244 30.6968 243.079 29.9954 242.992 29.516C242.766 28.2623 242.505 27.0984 241.317 26.3143C239.601 25.182 237.937 25.0304 236.234 26.2719C235.641 26.704 235.141 26.8812 234.471 26.2646C232.765 24.6966 230.812 24.4138 228.769 25.5764C227.777 26.1432 226.87 26.863 225.924 27.5135C225.143 28.0499 224.432 28.7987 223.566 29.0827C221.586 29.7344 220.038 30.9298 218.98 32.6204C218.444 33.4748 218.48 34.6752 218.18 35.6959C218.036 36.1898 217.782 36.691 217.452 37.0843C216.533 38.179 215.418 39.1305 214.628 40.3053C213.897 41.3915 213.792 42.6719 214.878 43.7399C215.593 44.4426 215.203 44.9474 214.686 45.5761C213.333 47.2194 212.493 48.9816 213.767 51.1116C213.939 51.398 213.829 51.9332 213.697 52.2973C213.554 52.6918 213.22 53.0134 212.992 53.3799C211.135 56.3764 211.674 58.8995 214.536 61.0671C214.834 61.2941 214.983 61.9943 214.897 62.4118C213.837 67.5419 217.013 69.2204 220.918 68.8915C221.512 68.8405 222.304 69.1233 222.736 69.5347C224.758 71.4608 228.523 71.911 230.909 70.5263C231.43 70.2241 232.223 70.3272 232.89 70.3466C234.209 70.3843 235.56 70.718 236.835 70.5214C238.779 70.2204 241.026 67.9497 240.642 66.5504C240.128 64.6753 241.237 63.952 242.316 63.0259C243.744 61.8026 244.634 60.203 244.548 58.3607C244.467 56.6143 245.203 55.3812 246.122 54.0523C247.361 52.2597 248.156 50.3288 246.878 48.1309C246.663 47.7631 246.792 47.1102 246.933 46.6405C247.192 45.7679 247.796 44.9487 247.857 44.0785C247.947 42.8357 247.8 41.5408 247.526 40.3186C247.294 39.2761 246.739 38.304 246.323 37.3015ZM246.673 43.087C246.311 44.1707 245.758 45.1963 245.236 46.2218C244.721 47.234 244.295 48.1527 245.661 48.893C245.963 49.0569 246.225 49.5884 246.232 49.955C246.268 51.6844 244.277 54.5073 242.327 55.3933C242.585 53.2694 242.755 51.3239 243.068 49.4015C243.888 44.3819 242.485 39.8987 239.453 36.0187C238.066 34.2443 236.115 32.7867 234.164 31.6131C231.95 30.283 229.648 31.2005 227.622 32.4445C224.909 34.1108 222.787 36.327 221.423 39.2834C219.171 44.1708 218.105 49.2547 218.045 54.6433C217.999 58.965 223.234 66.0418 227.556 66.4484C231.246 66.7943 234.214 65.3756 236.766 63.1473C238.379 61.7395 239.424 59.6763 240.701 57.891C241.055 57.3958 241.327 56.8412 241.63 56.323C243.332 57.2089 243.554 57.7199 243.037 59.3255C242.469 61.0926 241.133 62.1752 239.637 63.0988C238.722 63.6643 238.134 64.2117 238.947 65.3695C239.201 65.7287 239.136 66.52 238.919 66.969C237.748 69.3854 234.892 70.0736 232.722 68.4885C232.08 68.0201 231.556 67.8647 230.966 68.5031C229.448 70.1464 227.54 70.224 225.648 69.5177C224.818 69.2082 223.985 68.4109 223.565 67.6172C223.046 66.6353 222.56 66.4739 221.644 66.9011C221.129 67.1402 220.58 67.4072 220.031 67.4448C216.959 67.6597 215.514 65.7226 216.475 62.7468C217.173 60.5865 217.139 60.51 215.091 59.6314C213.419 58.9153 212.886 56.323 214.056 54.5086C214.289 54.1469 214.57 53.8071 214.877 53.5049C215.957 52.4466 216.543 51.5412 215 50.228C213.977 49.3578 214.824 48.1563 215.335 47.2012C215.576 46.7509 216.033 46.4136 216.401 46.0349C217.674 44.7266 217.673 44.5494 216.352 43.2726C215.323 42.2786 215.218 41.5226 216.329 40.2834C217.247 39.2603 218.383 38.4168 219.492 37.5879C220.378 36.9253 221.288 36.4398 219.917 35.333C219.672 35.1351 219.662 34.2844 219.876 33.9409C220.912 32.2697 222.248 30.9553 224.286 30.4784C224.978 30.3157 225.609 29.8072 226.216 29.3825C227.386 28.5633 228.436 27.528 229.689 26.8787C231.631 25.8726 232.769 26.1845 234.058 27.9382C234.793 28.9383 235.401 28.9698 236.271 28.1919C236.766 27.7477 237.319 27.3205 237.92 27.0486C239.744 26.2258 241.6 27.4309 241.664 29.425C241.687 30.0973 241.543 30.8352 241.778 31.4202C241.986 31.9336 242.607 32.612 243.067 32.629C244.585 32.6848 245.164 33.5696 245.229 34.8208C245.289 36.0005 245.127 37.202 244.952 38.378C244.809 39.3477 244.706 40.1475 245.87 40.6136C247.018 41.0735 246.984 42.1524 246.673 43.087ZM236.518 61.2188C233.972 63.8573 230.812 65.7372 226.837 64.6231C225.86 64.3488 224.87 63.7784 224.125 63.0866C221.01 60.1933 219.135 56.7417 219.739 53.0085C219.839 46.8857 221.196 41.809 224.293 37.3525C225.774 35.2213 227.792 33.4239 230.524 33.0064C231.646 32.8341 233.046 32.8317 233.977 33.3572C238.736 36.043 241.469 40.1245 241.764 45.6854C242.076 51.5606 240.647 56.9395 236.518 61.2188Z"
    fill="#251C1C"
  />
  <path
    d="M246.008 121.962C246.056 119.947 245.619 119.474 243.667 119.421C241.249 119.355 240.728 119.7 240.658 121.415C240.551 124.004 241.726 125.218 244.442 125.325C245.499 125.366 245.951 124.395 246.008 121.962ZM242.426 122.041C242.373 121.866 242.982 121.251 243.263 121.269C243.645 121.292 244.002 121.729 244.653 122.188C244.013 122.702 243.657 122.989 243.301 123.275C242.991 122.87 242.567 122.5 242.426 122.041Z"
    fill="#251C1C"
  />
  <path
    d="M226.883 113.829C226.956 116.568 227.166 119.304 227.291 122.043C227.478 126.116 227.615 126.218 231.701 125.971C233.017 125.89 233.683 125.273 233.683 124.013C233.686 121.753 233.615 119.495 233.568 117.235C233.462 112.102 233.274 106.968 233.269 101.835C233.267 98.1865 233.499 94.5371 233.65 90.8889C233.689 89.9349 233.386 89.1461 232.385 89.1521C230.818 89.1594 229.246 89.3475 227.69 89.5611C227.36 89.6073 226.859 90.0696 226.832 90.3743C226.645 92.5176 226.447 94.6718 226.473 96.8199C226.507 99.7958 226.734 102.77 226.867 105.539C226.867 108.444 226.814 111.139 226.883 113.829ZM228.384 91.8804C228.596 90.4046 229.815 90.5891 230.865 90.5769C231.991 90.5648 232.207 91.3015 232.184 92.2142C232.053 97.4438 231.883 102.673 231.8 107.904C231.738 111.785 231.787 115.668 231.787 119.55C231.904 119.55 232.022 119.549 232.138 119.549C232.138 120.462 232.153 121.374 232.135 122.287C232.113 123.401 232.029 124.331 230.439 124.325C228.89 124.32 228.853 123.345 228.812 122.339C228.594 116.929 228.406 111.516 228.227 106.103C228.121 102.889 227.997 99.6732 227.989 96.4571C227.985 94.9315 228.17 93.395 228.384 91.8804Z"
    fill="#251C1C"
  />
  <path
    d="M218.27 88.4347C216.851 88.2381 215.404 88.1483 213.976 88.1908C213.6 88.2017 212.976 88.834 212.919 89.2454C212.151 94.7214 211.299 100.193 210.79 105.695C209.749 116.949 208.892 128.22 207.996 139.487C207.922 140.414 207.571 140.755 206.681 140.766C205.382 140.783 204.085 140.92 202.786 140.924C196.775 140.942 190.764 140.932 184.752 140.932C184.752 141.033 184.754 141.134 184.754 141.234C184.273 141.234 183.793 141.221 183.313 141.237C176.532 141.458 169.749 141.631 162.972 141.924C158.965 142.097 158.074 143.322 158.715 147.231C158.894 148.321 159.413 148.871 160.551 148.775C161.653 148.681 162.756 148.587 163.862 148.544C166.195 148.457 166.189 148.493 166.294 150.774C166.429 153.706 166.588 156.635 166.788 159.563C167.175 165.226 167.656 170.882 167.992 176.548C168.345 182.503 168.565 188.467 168.861 194.426C168.957 196.359 169.906 197.027 172.523 197.086C174.296 197.128 174.9 196.574 175.053 194.578C175.191 192.757 175.308 190.927 175.292 189.103C175.238 182.51 175.093 175.919 175.041 169.327C174.992 163.028 175.03 156.728 174.995 150.429C174.989 149.284 175.411 148.805 176.586 148.733C180.042 148.521 183.488 148.102 186.946 147.968C192.375 147.758 197.813 147.712 203.247 147.601C204.301 147.579 205.806 147.157 206.289 147.675C206.842 148.272 206.542 149.71 206.525 150.782C206.412 157.945 206.221 165.106 206.161 172.269C206.104 179.194 206.165 186.12 206.192 193.045C206.201 195.847 206.352 196.026 209.021 196.87C209.478 197.016 209.982 197.274 210.409 197.193C210.871 197.105 211.55 196.751 211.644 196.386C211.941 195.239 212.08 194.036 212.148 192.847C212.279 190.593 212.205 188.323 212.418 186.079C213.073 179.152 213.946 172.245 214.481 165.311C214.738 161.973 214.449 158.591 214.367 155.23C214.317 153.212 213.948 151.17 214.163 149.186C214.375 147.225 215.224 145.341 215.647 143.392C216.233 140.695 216.909 137.989 217.144 135.252C217.605 129.848 217.778 124.418 218.095 119C218.221 116.844 218.429 114.691 218.572 112.534C218.875 107.929 219.148 103.321 219.462 98.7179C219.641 96.0782 219.888 93.4434 220.076 90.805C220.169 89.51 219.559 88.6131 218.27 88.4347ZM173.504 191.796C173.502 192.413 173.462 193.09 173.206 193.627C172.963 194.141 172.447 194.822 171.992 194.871C171.105 194.966 170.49 194.371 170.44 193.369C170.361 191.786 170.27 190.204 170.175 188.622C169.678 180.378 169.203 172.131 168.668 163.888C168.362 159.194 167.957 154.507 167.594 149.817C167.445 147.879 167.662 147.673 169.639 147.911C173.326 148.355 173.345 148.355 173.355 152.015C173.371 158.307 173.359 164.598 173.359 170.891C173.411 170.891 173.463 170.891 173.515 170.891C173.514 177.86 173.521 184.827 173.504 191.796ZM211.611 175.639C211.136 181.098 210.699 186.559 210.237 192.018C210.188 192.591 210.152 193.182 209.978 193.722C209.868 194.067 209.517 194.333 209.273 194.635C208.945 194.325 208.428 194.067 208.329 193.695C208.106 192.869 207.995 191.985 208.008 191.129C208.118 183.503 208.311 175.879 208.385 168.254C208.436 163.078 208.311 157.9 208.314 152.724C208.315 151.238 208.454 149.749 208.596 148.267C208.664 147.568 210.38 146.871 211.51 147.19C211.817 147.277 212.078 148.019 212.117 148.48C212.424 152.118 212.67 155.76 212.999 160.278C212.586 164.832 212.081 170.234 211.611 175.639ZM212.51 144.978C208.654 145.436 204.785 145.784 200.915 146.088C199.337 146.21 197.743 146.107 196.157 146.107C196.154 146.046 196.15 145.987 196.146 145.926C189.48 146.222 182.815 146.596 176.145 146.771C173.907 146.829 171.66 146.298 169.41 146.188C167.958 146.118 166.491 146.296 165.036 146.421C163.889 146.52 162.752 146.781 161.606 146.822C161.165 146.838 160.331 146.442 160.331 146.236C160.333 145.597 160.467 144.61 160.881 144.393C161.781 143.924 162.879 143.692 163.909 143.639C170.485 143.296 177.06 142.933 183.642 142.759C193.008 142.51 202.378 142.407 211.749 142.285C212.328 142.278 213.163 142.49 213.445 142.899C214.126 143.886 213.727 144.835 212.51 144.978ZM218.42 91.4749C218.186 94.4447 217.892 97.4108 217.702 100.383C217.232 107.721 216.845 115.065 216.352 122.401C215.984 127.862 215.531 133.32 215.033 138.771C214.978 139.368 214.448 140.342 214.027 140.407C212.739 140.602 211.38 140.54 210.092 140.322C209.856 140.282 209.823 139.036 209.695 138.348C209.735 138.345 209.775 138.34 209.816 138.336C210.085 134.07 210.318 129.801 210.636 125.538C210.928 121.61 211.257 117.681 211.666 113.763C212.354 107.175 213.117 100.593 213.854 94.009C213.961 93.055 214.174 92.1096 214.223 91.1532C214.294 89.7976 215.169 89.5925 216.214 89.6871C217.312 89.7879 218.551 89.8316 218.42 91.4749Z"
    fill="#251C1C"
  />
  <path
    d="M79.7031 22.4489C79.0344 22.8979 78.2261 23.3652 77.4591 23.404C75.2563 23.5132 73.0389 23.3227 70.8325 23.4052C63.2921 23.6868 55.7542 24.0339 48.2162 24.3591C45.6773 24.4684 43.1396 24.614 40.6006 24.6893C39.3117 24.7269 38.0083 24.7427 36.7315 24.591C35.0616 24.3944 34.3358 24.8227 34.3528 26.5364C34.371 28.4467 34.593 30.3545 34.7508 32.2612C34.8552 33.5052 35.0421 34.7431 35.1246 35.9883C35.3516 39.3841 35.564 42.781 35.7412 46.1805C35.8553 48.3699 35.8395 50.5666 35.9913 52.7536C36.1539 55.0838 36.5798 57.4019 36.6502 59.7333C36.7716 63.708 36.7133 67.6899 36.7158 71.6683C36.7182 76.6127 36.6829 81.557 36.7036 86.5014C36.7218 90.7286 36.8007 94.9557 36.8468 99.1828C36.8784 102.201 36.8237 105.222 36.9402 108.237C37.1818 114.504 36.1878 120.769 36.9427 127.038C37.0702 128.092 37.3092 128.566 38.4937 128.538C45.6979 128.366 52.9057 128.077 60.1063 128.196C66.978 128.31 73.8375 128.964 80.7079 129.216C88.5432 129.502 96.3835 129.643 104.224 129.776C108.793 129.854 113.364 129.795 117.934 129.795C125.778 129.796 133.621 129.795 141.464 129.795C141.464 129.81 141.464 129.826 141.464 129.842C146.228 129.842 150.99 129.831 155.754 129.846C162.196 129.864 168.643 130.081 175.077 129.881C182.091 129.662 189.094 129.065 196.102 128.631C198.309 128.494 198.799 128.068 198.727 125.813C198.633 122.934 198.325 120.062 198.168 117.185C197.65 107.632 197.065 98.0821 196.682 88.5234C196.265 78.1455 196.03 67.7591 195.751 57.3764C195.66 54.0121 195.609 50.6443 195.661 47.28C195.751 41.5601 196.018 35.8427 196.037 30.1228C196.043 28.1773 195.595 26.2173 195.226 24.2876C194.955 22.8591 193.993 22.3044 192.488 22.3287C189.08 22.3845 185.671 22.2935 182.263 22.2523C175.338 22.1697 168.415 22.0265 161.491 22.012C156.585 22.0023 151.678 22.1782 146.773 22.2316C146.179 22.2377 145.479 22.1454 145.007 21.8311C142.978 20.4803 141.012 19.0324 139.028 17.6113C135.794 15.292 132.576 12.9484 129.328 10.6449C126.435 8.59145 123.54 6.53677 120.592 4.56095C118.324 3.04025 116.017 1.56205 113.629 0.239174C113.015 -0.100647 111.857 -0.0739847 111.257 0.291323C109.088 1.61056 107.048 3.14221 104.963 4.60101C97.8483 9.57817 90.7315 14.5517 83.6269 19.5446C82.2955 20.4803 81.0527 21.5435 79.7031 22.4489ZM156.869 23.5533C160.032 23.5132 163.198 23.9684 166.366 24.0072C169.342 24.0436 172.324 23.7086 175.3 23.7596C179.766 23.8361 184.226 24.1249 188.691 24.2803C189.596 24.3106 190.507 24.1273 191.416 24.0691C193.118 23.961 193.768 24.3325 194.046 26.0243C194.355 27.9139 194.562 29.846 194.548 31.7575C194.474 41.372 194.172 50.9865 194.225 60.5998C194.274 69.2567 194.609 77.9149 194.955 86.567C195.128 90.8875 195.694 95.1912 195.925 99.5117C196.171 104.07 196.191 108.641 196.383 113.204C196.538 116.903 196.849 120.596 197.001 124.296C197.098 126.662 196.933 126.86 194.609 127.072C190.299 127.467 185.984 127.94 181.663 128.051C173.969 128.247 166.27 128.239 158.573 128.239C151.262 128.238 143.952 128.109 136.642 128.087C125.865 128.054 115.088 128.155 104.312 128.031C95.5581 127.93 86.8053 127.648 78.0562 127.319C72.63 127.116 67.2158 126.491 61.7908 126.387C54.3924 126.245 46.9893 126.417 39.5885 126.45C39.4477 126.451 39.3081 126.401 38.9027 126.326C38.9027 122.913 38.9209 119.561 38.8978 116.21C38.8748 112.99 38.7911 109.771 38.7644 106.551C38.7146 100.247 38.6601 93.9423 38.6564 87.6386C38.6516 80.0436 38.819 72.445 38.6745 64.8524C38.5847 60.1605 38.0107 55.4783 37.7328 50.7875C37.5859 48.2995 37.7073 45.7934 37.5301 43.309C37.1769 38.3731 36.768 33.4372 36.2303 28.5183C36.0822 27.1602 36.5883 26.7513 37.7085 26.6796C39.2911 26.5789 40.8785 26.5425 42.4635 26.4721C51.1107 26.0922 59.7581 25.7038 68.4065 25.3361C70.3289 25.2536 72.2549 25.2439 74.1797 25.199C87.5019 24.8907 100.824 24.5521 114.149 24.2827C128.387 23.9951 142.628 23.7329 156.869 23.5533ZM97.2306 11.8744C101.503 8.85116 105.856 5.94326 110.104 2.88608C111.545 1.84842 112.913 1.93823 114.267 2.71133C116.432 3.94924 118.565 5.25997 120.616 6.6763C125.438 10.0078 130.2 13.4242 134.992 16.7993C137.112 18.2933 139.247 19.7679 141.366 21.2643C141.587 21.4197 141.748 21.66 141.938 21.8603C141.902 21.9901 141.868 22.1187 141.833 22.2486C122.036 22.535 102.239 22.8227 82.0418 23.1164C82.742 22.4744 83.1692 21.9986 83.6765 21.6309C88.1852 18.3649 92.6867 15.0893 97.2306 11.8744Z"
    fill="#251C1C"
  />
  <path
    d="M93.24 27.7477C90.4085 27.7926 87.5673 27.6992 84.748 27.9019C78.2878 28.3679 71.8409 29.0075 65.3843 29.5088C63.3345 29.6677 61.2688 29.5937 59.2117 29.6616C55.3863 29.7891 51.5621 29.9541 47.7355 30.0791C45.915 30.1386 44.0824 30.044 42.2753 30.2248C41.7315 30.2782 40.9415 30.9469 40.8165 31.4675C40.5665 32.5064 40.6793 33.6375 40.6757 34.731C40.6624 37.7506 40.6939 40.7701 40.6551 43.7885C40.6187 46.5944 40.3892 49.4028 40.4657 52.2051C40.6186 57.8546 41.0034 63.4981 41.1417 69.1476C41.274 74.552 41.2522 79.9612 41.2255 85.3668C41.2025 90.1401 41.0835 94.9133 40.9949 99.6854C40.9876 100.068 40.8505 100.448 40.848 100.829C40.842 101.689 40.8626 102.552 40.9087 103.411C40.973 104.599 41.0726 105.785 41.1563 106.972C41.2388 108.13 41.3541 109.287 41.3942 110.446C41.5325 114.429 41.6224 118.414 41.7874 122.398C41.8153 123.064 41.9562 123.867 42.3627 124.328C42.6528 124.656 43.4829 124.612 44.057 124.561C44.9587 124.481 45.8421 124.14 46.7415 124.111C53.7029 123.881 60.6668 123.575 67.6307 123.538C73.3968 123.508 79.1641 123.883 84.9325 123.946C90.0311 124.001 95.1344 123.73 100.231 123.856C108.978 124.074 117.72 124.727 126.466 124.756C136.227 124.787 145.989 124.33 155.751 124.082C160.897 123.952 166.053 123.953 171.188 123.645C177.423 123.27 183.638 122.467 189.896 123.18C191.014 123.308 191.51 122.861 191.48 121.734C191.322 115.823 191.266 109.909 191.005 104.004C190.809 99.5871 190.218 95.1888 190.044 90.7724C189.756 83.4675 189.636 76.154 189.503 68.843C189.446 65.7178 189.457 62.5867 189.569 59.4628C189.906 50.1905 190.307 40.9206 190.682 31.6496C190.635 31.6472 190.586 31.6447 190.538 31.6435C190.585 30.8753 190.767 30.0828 190.633 29.3473C190.539 28.84 190.051 28.056 189.669 28.0111C187.961 27.8157 186.225 27.7307 184.507 27.8084C179.802 28.0208 175.104 28.4601 170.396 28.5742C166.074 28.6786 161.744 28.4031 157.419 28.4274C149.672 28.4711 141.923 28.8121 134.181 28.6689C124.33 28.4857 114.487 27.8873 104.637 27.5875C100.843 27.4722 97.0399 27.6858 93.24 27.7477ZM137.502 30.2321C143.606 30.3292 149.716 29.9747 155.824 29.9456C160.245 29.9238 164.669 30.2527 169.085 30.1532C174.129 30.0391 179.164 29.5925 184.206 29.3595C185.442 29.3024 186.725 29.3776 187.913 29.6798C188.348 29.7903 188.845 30.7345 188.847 31.3001C188.859 34.9568 188.742 38.6135 188.673 42.269C188.659 42.9426 188.67 43.6174 188.67 44.2909C188.711 44.2921 188.753 44.2946 188.793 44.297C188.522 50.5436 187.986 56.7927 188.039 63.0357C188.134 74.1952 188.569 85.351 188.895 96.508C189.12 104.294 189.389 112.077 189.663 119.86C189.702 120.967 189.33 121.322 188.171 121.357C177.599 121.68 167.031 122.167 156.458 122.424C144.194 122.722 131.926 122.989 119.66 122.981C110.241 122.975 100.823 122.525 91.4036 122.264C85.0089 122.087 78.6143 121.736 72.2196 121.752C64.4826 121.77 56.7468 122.098 49.011 122.283C47.8556 122.311 46.7002 122.27 45.5461 122.298C44.6382 122.32 44.2681 121.934 44.239 121.01C44.1516 118.271 44.0618 115.528 43.8494 112.796C43.6031 109.645 43.0751 106.509 42.9476 103.354C42.8129 100.049 43.0301 96.7313 43.0495 93.4193C43.0665 90.3876 43.0411 87.356 43.0023 84.3255C42.9391 79.2755 42.8324 74.2255 42.7778 69.1755C42.7304 64.6147 42.7559 60.0514 42.6988 55.4905C42.6467 51.3617 42.5241 47.2341 42.4392 43.1064C42.3833 40.4158 42.3178 37.7251 42.2972 35.0333C42.2778 32.6108 42.5058 32.2819 44.8543 32.1071C47.199 31.9336 49.562 32.0137 51.9117 31.8826C59.929 31.436 67.9621 31.1569 75.9527 30.4141C85.7857 29.5015 95.6174 29.0961 105.481 29.357C116.155 29.6398 126.825 30.0634 137.502 30.2321Z"
    fill="#251C1C"
  />
  <path
    d="M111.811 6.82809C112.006 6.82931 112.2 6.82931 112.394 6.83052C112.663 6.35234 113.229 5.7965 113.129 5.41421C112.996 4.90447 112.345 4.53069 111.917 4.09863C111.588 4.43481 110.951 4.81587 110.992 5.09865C111.077 5.70183 111.515 6.25404 111.811 6.82809Z"
    fill="#251C1C"
  />
  <path
    d="M26.047 121.605C26.3115 118.204 26.4985 114.796 26.717 111.392C26.672 111.39 26.6271 111.386 26.5822 111.384C26.5822 109.988 26.6259 108.59 26.5713 107.197C26.5118 105.699 25.9935 105.377 24.5408 105.618C23.1694 105.843 21.781 106.036 20.3963 106.082C18.8319 106.136 18.0309 106.809 17.9132 108.392C17.8136 109.731 17.5867 111.064 17.5697 112.403C17.5503 114.029 17.7081 115.657 17.7603 117.286C17.7894 118.159 17.9241 119.074 17.7263 119.903C17.1777 122.211 17.7541 123.128 20.0248 123.242C20.2129 123.252 20.3975 123.319 20.5844 123.351C21.599 123.53 22.6123 123.834 23.6306 123.854C25.1755 123.883 25.9256 123.168 26.047 121.605ZM23.8939 120.808C23.8745 121.028 23.7107 121.43 23.6428 121.424C22.6197 121.333 21.5881 121.249 20.5941 121.014C20.3477 120.956 20.071 120.363 20.0734 120.017C20.0904 116.469 20.1414 112.92 20.2518 109.374C20.2651 108.983 20.7155 108.606 20.9619 108.223C21.1002 108.614 21.2288 109.009 21.3781 109.394C21.5274 109.774 21.6973 110.147 21.8587 110.522C22.0055 110.471 22.1536 110.42 22.3004 110.368C22.3308 110.147 22.3089 109.899 22.4012 109.708C22.6111 109.272 22.8769 108.863 23.1196 108.443C23.4061 108.807 23.8709 109.136 23.9486 109.54C24.6719 113.293 24.218 117.053 23.8939 120.808Z"
    fill="#251C1C"
  />
  <path
    d="M0.190957 60.8012C3.01997 60.8097 5.83932 60.8729 8.64891 61.2127C8.78241 58.1786 8.87093 55.1408 9.05662 52.1091C9.12215 51.0435 9.4523 49.9949 9.73266 48.5762C10.155 49.1599 10.4341 49.3857 10.4984 49.6612C10.8734 51.2705 11.2655 52.8822 11.5228 54.5121C11.8505 56.5935 12.0058 58.7029 12.3262 60.7855C12.7692 63.6594 14.0507 64.4495 16.8603 63.9337C18.9794 63.5453 21.1312 63.2224 23.2794 63.1411C25.0392 63.0744 25.4615 62.7989 25.3669 61.0755C25.0926 56.074 24.7006 51.0702 24.6642 46.0652C24.629 41.1681 24.9785 36.2698 25.1496 31.3715C25.2091 29.6979 24.7405 29.1117 23.1106 28.8496C21.8314 28.6433 20.5438 28.4842 19.2586 28.307C17.8338 28.1116 17.0073 28.5814 16.7354 30.0001C16.3361 32.09 16.0849 34.2066 15.7705 36.3123C15.7184 36.3342 15.6662 36.3548 15.6128 36.3766C15.5291 35.9251 15.4332 35.4748 15.364 35.0222C15.0958 33.2672 14.8882 31.5014 14.5593 29.7586C14.1309 27.4867 13.7159 27.2718 11.3541 27.2063C9.40137 27.1529 7.44371 26.9854 5.50552 26.7317C2.48839 26.3385 1.59756 27.3179 1.93617 30.2659C2.09515 31.6519 1.75411 32.9942 1.80994 34.3923C1.92767 37.3803 1.40709 40.395 1.13402 43.3976C1.07819 44.0056 0.883911 44.6076 0.88027 45.2132C0.871774 46.4936 1.00048 47.7764 0.973782 49.0568C0.928877 51.1625 0.845169 53.2681 0.704386 55.3702C0.596371 56.9819 1.49561 58.7453 0.0198138 60.1932C-0.0432958 60.2539 0.0526012 60.5439 0.190957 60.8012ZM2.93505 46.7533C3.14137 44.3126 3.61227 41.9072 3.87563 39.4799C3.93388 36.7941 4.01277 34.1095 4.08316 31.4237C4.13656 29.3666 4.412 29.0692 6.45214 29.0947C8.13425 29.1154 9.81513 29.2149 11.4948 29.3168C12.3638 29.3702 12.9998 29.6676 13.0289 30.7441C13.0653 32.0839 13.2231 33.4214 13.3615 34.7564C13.6758 37.7941 13.9743 40.8331 14.3506 43.8624C14.5617 45.5579 14.7255 47.3031 15.2923 48.8893C15.3129 48.9476 15.3422 49.0022 15.3749 49.0556C16.3361 43.8624 18.0194 38.7893 18.1529 33.4711C18.1578 33.2867 18.2367 33.1519 18.3495 33.0646C18.3811 32.8716 18.4162 32.6798 18.4575 32.4905C18.9648 30.136 20.1494 29.5741 22.3546 30.6264C23.459 31.1531 23.3885 32.1616 23.2878 33.1216C23.09 35.0149 22.7575 36.896 22.6142 38.7917C22.4407 41.1025 22.3424 43.4242 22.34 45.7399C22.34 46.1282 22.3182 46.4571 22.2174 46.7363C22.2223 47.8067 22.0936 48.8663 22.0329 49.9331C22.1421 50.2668 22.1434 50.6515 22.1361 51.1103C22.1179 52.1673 22.6483 53.222 22.8279 54.2961C22.9408 54.9733 22.8594 55.6845 22.84 56.3811C22.8267 56.7974 22.6543 57.2367 22.7405 57.6239C23.2114 59.7417 22.1349 61.186 20.0134 61.311C18.8653 61.3789 17.7099 61.5076 16.5873 61.7442C15.6248 61.9481 15.074 61.6568 14.8786 60.7357C14.5606 59.2344 14.2547 57.7295 14.0022 56.2161C13.5435 53.4745 13.2012 50.7098 12.6769 47.9815C11.5082 45.0178 10.371 42.0394 8.49353 39.4726C8.06511 44.2131 7.98982 48.9864 7.41819 53.7087C7.52864 55.3398 7.19613 56.937 6.87573 58.5317C6.8284 58.7635 6.57227 58.9383 6.34654 58.9347C5.23119 58.9189 4.1305 58.8254 3.03579 58.6094C2.81248 58.5645 2.61826 58.3036 2.63283 58.0802C2.87556 54.3119 2.61829 50.5047 2.93505 46.7533Z"
    fill="#251C1C"
  />
  <path
    d="M21.2316 126.827C18.5021 126.737 16.7035 128.174 16.6744 130.407C16.6441 132.756 17.837 134.08 20.018 134.116C23.0108 134.167 24.7743 133.199 24.5825 131.341C24.273 128.352 23.7172 126.91 21.2316 126.827ZM20.0434 132.053C19.5774 131.671 19.1794 130.791 19.2935 130.236C19.4015 129.716 20.2145 129.341 20.717 128.901C20.9306 128.992 21.1442 129.083 21.3578 129.174C21.4986 130.087 21.6382 131.001 21.7789 131.914C21.183 131.982 20.3675 132.318 20.0434 132.053Z"
    fill="#251C1C"
  />
  <path
    d="M2.6457 96.4837C2.76463 97.5554 3.20038 98.536 4.24169 98.8273C5.78666 99.2581 7.39105 99.598 8.987 99.6914C13.3088 99.9426 17.0348 98.1987 20.1745 95.4752C23.2195 92.8343 22.7765 87.4979 18.6064 85.8547C18.0834 85.6483 17.5906 85.3631 16.8697 85.01C18.4911 84.0682 19.8844 83.3205 21.2121 82.4734C23.512 81.0073 24.1879 77.8579 22.4742 75.9974C20.2957 73.6344 17.8321 71.587 14.4569 71.2072C12.6243 71.0009 10.9167 70.0554 8.94575 70.5712C7.44811 70.9644 5.83882 71.1877 4.30356 71.0919C3.00981 71.013 2.55835 71.6198 2.53287 72.564C2.48432 74.3614 2.65913 76.1649 2.72831 77.9671C2.74651 78.4393 2.73802 78.9162 2.70768 79.3883C2.63244 80.5692 2.31199 81.7877 2.50738 82.92C2.75011 84.3279 2.83993 85.6337 2.39088 87.0064C2.11174 87.8584 1.85928 88.7904 1.91632 89.6667C2.0656 91.9447 2.39447 94.2118 2.6457 96.4837ZM5.02688 75.0374C5.24655 73.0155 5.3267 73.0252 7.3462 73.0167C7.58651 73.0155 7.82674 73.0167 8.06704 73.0167C8.07554 72.9281 8.08403 72.8407 8.09253 72.7521C10.5101 72.9888 12.986 72.9803 15.3223 73.5458C16.9243 73.933 18.4134 75.0034 19.803 75.9804C21.2036 76.9659 21.3614 78.4903 20.3334 79.9005C18.4887 82.431 15.8223 83.2878 12.8234 83.3557C12.3925 83.3654 11.9326 83.1931 11.537 83.2987C11.1037 83.4128 10.7298 83.7526 10.3305 83.9941C10.657 84.3497 10.9168 84.8801 11.3209 85.033C13.0139 85.6738 14.7665 86.1605 16.4631 86.7977C17.0117 87.0028 17.6585 87.3899 17.9061 87.8754C18.7678 89.5599 19.547 91.3149 18.9402 93.2931C18.8298 93.6523 18.6938 94.0965 18.4195 94.2944C17.3892 95.0383 16.3587 95.832 15.2118 96.3539C13.9205 96.9401 12.5248 97.5081 11.1364 97.6185C9.56469 97.7435 7.93112 97.4462 6.36794 97.1246C5.94438 97.0384 5.40194 96.2192 5.37403 95.7107C5.10339 90.6922 4.88616 85.6701 4.75144 80.6456C4.70168 78.7791 4.82421 76.8967 5.02688 75.0374Z"
    fill="#251C1C"
  />
  <path
    d="M14.8623 106.528C14.8854 105.706 14.5772 105.213 13.7204 105.225C11.2628 105.261 8.76021 104.208 6.21641 105.706C6.21641 106.586 6.24428 107.537 6.20787 108.485C6.17632 109.326 5.99909 110.165 6.01244 111.002C6.06341 114.431 6.23455 117.859 6.21392 121.287C6.20421 122.863 6.31705 123.365 7.85353 123.487C9.6121 123.627 11.3889 123.566 13.156 123.519C14.4364 123.485 14.8891 122.727 14.7568 121.486C14.6416 120.39 14.5638 119.282 14.582 118.182C14.6476 114.296 14.7543 110.413 14.8623 106.528ZM12.1147 116.359C12.0771 117.594 12.128 118.83 12.0855 120.063C12.0564 120.902 11.7761 121.582 10.7384 121.567C9.7578 121.554 9.39734 120.991 9.33787 120.099C9.17646 117.704 9.00052 115.311 8.83061 112.918C8.86944 112.914 8.90697 112.91 8.94581 112.907C8.94581 111.416 8.96771 109.926 8.93858 108.436C8.91552 107.291 9.53565 106.942 10.5636 106.914C11.6158 106.887 12.4315 107.142 12.4011 108.371C12.3332 111.035 12.196 113.697 12.1147 116.359Z"
    fill="#251C1C"
  />
  <path
    d="M10.2942 126.257C8.18242 126.32 7.26614 127.123 6.65204 129.452C5.70054 133.063 6.76493 134.453 10.4083 134.352C13.2033 134.275 13.6438 133.79 13.628 130.837C13.5734 130.216 13.537 129.592 13.4605 128.974C13.2215 127.062 12.2105 126.201 10.2942 126.257ZM10.9848 130.5C10.9811 130.596 10.9811 130.692 10.9677 130.785C10.8682 131.485 10.8573 132.443 9.86216 132.197C9.3767 132.076 9.06713 131.243 8.67755 130.732C9.00887 129.523 8.84141 128.168 10.2444 128.278C11.5139 128.377 11.0103 129.649 10.9848 130.5Z"
    fill="#251C1C"
  />
</svg>
