<svg
  width="56"
  height="55"
  viewBox="0 0 56 55"
  fill="none"
  xmlns="http://www.w3.org/2000/svg"
>
  <path
    d="M25.0561 7.66967C24.9172 6.95593 24.6718 6.23251 24.2971 5.61243C24.2229 5.49293 24.084 5.48001 23.9839 5.54137C23.9096 5.522 23.8288 5.51877 23.7481 5.53491C23.6609 5.55106 23.5576 5.62857 23.4736 5.61889C23.2895 5.59951 23.1442 5.73838 23.086 5.90309C22.9698 5.916 22.8664 5.99675 22.8761 6.13562C22.9052 6.51348 22.9439 6.89134 23.015 7.26274C23.0634 7.51142 23.0796 7.85699 23.2314 8.07014C23.4736 8.41571 24.1098 8.39956 24.4554 8.17349C24.7428 8.29621 25.1368 8.07014 25.0561 7.66967Z"
    fill="#E5332A"
  />
  <path
    d="M28.6376 6.21332C28.5989 5.82254 28.5117 5.24444 28.1855 4.97639C27.9207 4.75677 27.3846 4.75678 27.0616 4.82783C26.884 4.86658 26.7516 4.97638 26.6708 5.11203C26.603 5.08296 26.519 5.12495 26.5126 5.21538C26.4641 5.75149 26.5384 6.23593 26.6579 6.75589C26.7451 7.12407 26.7709 7.72799 27.236 7.80873C27.5719 7.86687 28.1338 7.60527 28.3857 7.38889C28.7119 7.11437 28.6764 6.59764 28.6376 6.21332Z"
    fill="#47AD4B"
  />
  <path
    d="M37.1995 21.3762C36.0207 21.1792 34.7676 21.3213 33.5598 21.6571C33.4274 21.5635 33.2659 21.4827 33.0721 21.4149C31.8352 20.9854 30.2656 21.1081 29.1126 21.7896C29.6778 21.2534 30.2914 20.5106 29.6972 20.1812C29.0448 19.8195 28.273 20.8207 27.9435 21.4343C27.4882 21.0823 26.9262 20.6398 26.3449 20.7076C26.0413 20.7432 25.4406 20.9563 25.3502 21.2987C25.2145 21.8025 25.8443 22.1028 26.5806 22.2772C25.4341 22.2998 24.2327 22.5259 23.3478 23.0878C23.0959 23.2493 22.8989 23.4528 22.76 23.6789C21.7104 23.7951 20.6866 24.0761 19.7178 24.5509C19.6532 24.5832 19.6984 24.693 19.7662 24.6671C20.7157 24.299 21.6749 24.0309 22.6535 23.8856C22.5598 24.1052 22.5146 24.3377 22.5243 24.5735C21.6846 24.8189 20.9095 25.313 20.2087 25.8556C20.1344 25.9105 20.2022 26.0365 20.2829 25.9816C21.0322 25.51 21.7459 25.0095 22.5436 24.7382C22.5921 25.0708 22.7439 25.397 23.0152 25.6844C23.8936 26.6113 25.4115 26.4563 26.4708 25.9751C27.007 25.7329 27.4462 25.3873 27.7885 24.9739C27.8886 25.3163 28.2406 25.6069 28.5733 25.6812C29.1352 25.8104 29.5874 25.3809 29.8102 24.9093C29.8231 24.8835 29.8264 24.8577 29.8296 24.8318C30.314 25.1096 30.8889 25.2485 31.5025 25.1935C31.593 25.1871 31.5962 25.0482 31.5025 25.0482C30.0524 25.0676 28.7961 24.0212 28.583 22.5808C28.5668 22.4678 28.3763 22.4968 28.3828 22.6099C28.4377 23.7919 27.7885 24.8351 26.7938 25.4487C25.8508 26.0332 24.3328 26.3917 23.4027 25.6005C23.1056 25.3486 22.9118 24.9998 22.8569 24.6413C23.2315 24.5476 23.6288 24.5056 24.0583 24.5476C24.1358 24.5541 24.1326 24.4346 24.0583 24.4249C23.6385 24.3765 23.2348 24.4023 22.8408 24.4863C22.8343 24.2602 22.8795 24.0374 22.999 23.8307C23.7192 23.7467 24.4523 23.7241 25.2016 23.7887C25.2726 23.7951 25.2694 23.6886 25.2016 23.6821C24.5137 23.6014 23.8258 23.5852 23.1476 23.6337C23.1766 23.6014 23.1993 23.5658 23.2316 23.5335C23.6159 23.1686 24.1714 22.9942 24.6687 22.8618C25.8055 22.5582 26.9456 22.5098 28.1115 22.5033C28.1341 22.5033 28.1502 22.4904 28.1631 22.4742C28.302 22.4775 28.4118 22.4775 28.4829 22.4742C28.5927 22.4678 28.6024 22.345 28.5313 22.2966C28.5539 22.2772 28.5798 22.2546 28.6088 22.232C28.6347 22.2966 28.7186 22.345 28.7929 22.3063C29.7424 21.8445 30.6209 21.4569 31.706 21.4957C32.2518 21.515 32.6555 21.5732 33.0657 21.8057C32.1711 22.0964 31.312 22.4871 30.5466 22.9167C30.5272 22.9296 30.5401 22.9651 30.5627 22.9554C31.5058 22.555 32.4004 22.2126 33.3014 21.9607C33.3434 21.993 33.3854 22.0221 33.4306 22.0576C33.7665 22.3354 33.9053 22.4936 33.9118 22.7455C32.9526 22.8295 32.0225 23.0685 31.144 23.4689C31.1344 23.4722 31.1408 23.4916 31.1505 23.4883C31.9967 23.1718 32.9558 22.9102 33.9086 22.8456C33.8989 22.9587 33.8698 23.0879 33.8278 23.2526C33.7277 23.6207 33.6179 23.8468 33.4306 24.173C33.4112 24.2085 33.4629 24.2376 33.4823 24.2021C33.7729 23.7596 33.999 23.2784 34.0571 22.8359C34.9517 22.794 35.8366 22.9328 36.6085 23.3753C36.6925 23.4237 36.7829 23.3075 36.7119 23.2396C36.0821 22.6454 35.068 22.6712 34.2574 22.71C34.1928 22.7132 34.1314 22.7229 34.0668 22.7294C34.0894 22.3967 34.0055 22.0867 33.7665 21.8348C34.8419 21.5764 35.9464 21.4601 37.1737 21.557C37.2803 21.5667 37.3029 21.3923 37.1995 21.3762ZM28.5442 23.2816C28.7348 23.821 29.0674 24.2796 29.5002 24.6154C29.4582 24.6348 29.4227 24.6607 29.3936 24.7091C29.2192 24.9869 28.9479 25.3615 28.5636 25.2162C28.3375 25.1322 28.1147 24.9384 27.9661 24.7479C28.26 24.3151 28.4635 23.821 28.5442 23.2816Z"
    fill="#251C1C"
  />
  <path
    d="M22.3335 16.4446C21.5197 16.9355 21.5778 18.0336 21.6941 18.8442C21.8265 19.7743 22.0752 20.8142 22.7534 21.4989C22.7437 21.5215 22.7308 21.5409 22.7211 21.5635C22.6533 21.7476 22.8923 21.8445 22.9892 21.6862C23.0828 21.528 23.2088 21.4246 23.3476 21.3471C23.5996 21.2115 23.9096 21.1824 24.2132 21.1534C24.436 21.134 24.6556 21.1146 24.8526 21.0565C24.9075 21.0435 24.9495 20.979 24.9592 20.9241C25.1304 19.8357 24.3682 15.2206 22.3335 16.4446ZM24.2261 20.782C24.2099 20.7884 24.1938 20.7949 24.1776 20.8013C24.0129 20.8659 23.8385 20.9014 23.6674 20.937C23.6641 20.937 23.6609 20.9402 23.6577 20.937C23.5027 20.9757 23.3476 21.008 23.2088 21.0694C23.0602 21.1307 22.931 21.2212 22.8309 21.3633C22.3691 20.5559 22.0849 19.7679 21.9751 18.8151C21.9072 18.2403 21.8168 17.4878 22.2011 16.9904C22.9795 15.9796 23.8547 17.1422 24.1163 17.8818C24.3101 18.434 24.4102 19.0251 24.4941 19.5999C24.5684 20.107 24.7364 20.5623 24.2261 20.782Z"
    fill="#251C1C"
  />
  <path
    d="M31.9711 15.4529C31.5028 14.849 30.4499 14.8522 30.0527 15.5821C29.7782 16.0924 29.8912 16.8578 29.917 17.4036C29.9526 18.127 30.0559 18.8246 30.2206 19.519H30.2109C30.0204 19.5255 30.0204 19.8193 30.2109 19.8161C30.4144 19.8161 30.634 19.8129 30.8601 19.8097C31.267 19.8032 31.6933 19.787 32.0841 19.7192C32.2294 19.6934 32.3683 19.6611 32.5007 19.6159C32.8592 19.5028 32.8592 19.3575 32.8657 19.0055C32.8883 17.8428 32.7074 16.4024 31.9711 15.4529ZM32.5653 19.1573C32.4878 19.3188 32.3069 19.3769 32.1164 19.3995C31.9549 19.4221 31.787 19.4156 31.6578 19.4318C31.5415 19.4447 31.4188 19.4544 31.2993 19.4641C31.2799 19.4673 31.2573 19.4706 31.2347 19.4706C31.0829 19.4802 30.9311 19.4899 30.7793 19.4996C30.6405 19.5061 30.508 19.5125 30.3692 19.5158C30.2626 18.7116 30.1883 17.9042 30.1851 17.0936C30.1819 16.5639 30.114 16.0407 30.4984 15.6499C31.0539 15.0783 31.6642 15.4465 31.9904 16.0666C32.3941 16.8417 32.4943 17.7266 32.5395 18.5889C32.5492 18.7148 32.6202 19.0442 32.5653 19.1573Z"
    fill="#251C1C"
  />
  <path
    d="M28.8056 6.10003C28.7378 5.74154 28.7701 5.09563 28.4859 4.81465C28.1888 4.52076 27.5429 4.71131 27.2134 4.75329C25.6826 4.9503 24.2035 5.31201 22.7405 5.79645C22.608 5.84167 22.6565 6.03867 22.7889 6.01929C22.9827 6.79762 23.1248 7.57596 23.1635 8.38012C23.1668 8.43826 23.212 8.49316 23.2733 8.48993C24.7945 8.42857 26.3221 8.10238 27.7754 7.66315C29.0349 7.28206 29.0446 7.37895 28.8056 6.10003ZM24.2777 8.12498C23.6447 8.21864 23.4736 8.35428 23.3024 7.73097C23.1441 7.15288 23.0634 6.57478 22.8761 5.99991C23.3541 5.86104 23.8385 5.73832 24.3229 5.62205C24.4263 6.43268 24.6168 7.24654 24.8235 8.03456C24.6427 8.06362 24.4618 8.09592 24.2777 8.12498ZM25.1077 7.96996C24.9269 7.17225 24.7202 6.36163 24.4328 5.59299C25.0625 5.44442 25.6955 5.31201 26.3285 5.19898C26.3931 5.61559 26.4706 6.02898 26.5611 6.43914C26.6418 6.81377 26.687 7.21424 26.8646 7.55335C26.8808 7.58242 26.9066 7.58887 26.9325 7.58564C26.3285 7.74066 25.7214 7.87631 25.1077 7.98611C25.1077 7.97965 25.111 7.97642 25.1077 7.96996ZM28.628 6.72334C28.544 7.1335 28.2017 7.22069 27.8626 7.32404C27.559 7.4177 27.2554 7.49844 26.9486 7.57918C26.9744 7.56949 26.997 7.54689 26.997 7.5146C27.0067 7.1335 26.8679 6.74595 26.7774 6.37777C26.6773 5.97407 26.5675 5.57361 26.4416 5.17637C26.4835 5.16991 26.5223 5.16022 26.5643 5.15376C26.8905 5.09886 27.2554 4.98582 27.5848 4.99551C28.1597 5.01489 28.2986 5.10855 28.4601 5.62205C28.5182 5.80614 28.6668 6.53603 28.628 6.72334Z"
    fill="black"
  />
  <path
    d="M32.0195 17.7817C31.942 17.4329 31.2993 15.7115 30.8278 16.7805C30.8117 16.7708 30.7923 16.7708 30.7697 16.7708C30.7342 16.774 30.7018 16.7934 30.6954 16.8322C30.5759 17.6105 30.5436 18.3436 30.7018 19.1252C30.7212 19.2318 30.7438 19.3642 30.7761 19.4998C30.7955 19.6032 30.8246 19.7065 30.8569 19.8099C31.2638 19.8034 31.6901 19.7872 32.0809 19.7194C32.1003 19.6193 32.11 19.5095 32.1164 19.3965C32.1649 18.7441 32.0615 17.9884 32.0195 17.7817ZM31.2993 19.5321C31.2961 19.545 31.2961 19.5515 31.2961 19.5612C31.2864 19.545 31.2767 19.5386 31.267 19.5192C31.2573 19.503 31.2476 19.4837 31.238 19.4675V19.4643C31.2153 19.2576 31.196 18.9831 31.196 18.9766C31.1249 18.5794 31.0959 18.1725 31.07 17.7688C31.0603 17.6008 30.9667 17.1971 31.0539 17.0421C31.2186 16.7353 31.2961 17.1325 31.3381 17.2779C31.351 17.3263 31.3607 17.378 31.3704 17.4264C31.2638 17.4167 31.154 17.5072 31.154 17.6299C31.1572 18.0336 31.2735 18.4244 31.3025 18.8313C31.3155 19.0412 31.309 19.2479 31.2993 19.4578C31.3025 19.4869 31.2993 19.5095 31.2993 19.5321Z"
    fill="#251C1C"
  />
  <path
    d="M24.0033 19.1636C23.8773 18.6792 23.17 17.171 22.7437 18.324C22.6597 18.55 22.6468 18.8019 22.6662 19.0571C22.6275 19.4575 22.6759 19.8742 22.7728 20.2714C22.8245 20.4878 22.8923 20.772 22.9989 21.0304C23.0473 21.1498 23.1022 21.2629 23.1733 21.3662C23.4736 21.2015 23.8482 21.1692 24.2132 21.1337C24.2261 20.9948 24.2293 20.8398 24.2196 20.6816C24.1906 20.0356 24.0452 19.3219 24.0033 19.1636ZM23.535 20.8689C23.4478 20.6363 23.3703 20.3618 23.338 20.2746C23.2346 19.971 23.141 19.6545 23.0893 19.338C23.0505 19.1249 23.0344 18.9085 23.0408 18.6889C23.212 18.4079 23.3186 18.4047 23.3735 18.676C23.3832 18.6857 23.3864 18.7115 23.3961 18.7244C23.367 18.7277 23.3412 18.7309 23.3154 18.7406C23.2282 18.747 23.1539 18.8116 23.1765 18.9214C23.3154 19.5609 23.3767 20.2326 23.5479 20.8656C23.5479 20.885 23.5544 20.9012 23.5608 20.9205C23.5479 20.9012 23.5447 20.8882 23.535 20.8689Z"
    fill="#251C1C"
  />
  <path
    d="M69.4274 64.081C68.4844 63.4513 67.2119 63.5126 66.1139 63.6902C64.7962 63.9066 63.8467 64.0261 62.5807 63.4383C61.5278 62.9474 60.475 62.4533 59.4028 61.9979C60.9562 59.9245 61.8346 57.3118 60.8916 54.8799C60.1003 52.842 58.1497 51.1465 55.7404 50.9043C55.411 47.6489 54.4518 44.2966 53.3893 41.18C53.0728 40.2499 52.6917 39.352 52.2686 38.4801C52.2524 38.4445 52.2395 38.4122 52.2266 38.3832C52.1653 38.2314 52.0877 38.0667 51.9908 37.9246C51.2287 36.4454 50.3373 35.0309 49.3587 33.6389C49.3071 33.4031 49.1617 33.1932 48.9421 33.0608C48.8388 32.9155 48.7354 32.7701 48.6288 32.6248C47.0108 30.419 45.3444 28.1163 43.4615 25.9945C43.3517 25.8556 43.229 25.7199 43.0901 25.5843C42.2504 24.6639 41.3687 23.7757 40.4224 22.9554C40.4063 22.978 40.3934 22.9974 40.3772 23.02C40.2674 22.949 40.1576 22.8811 40.0575 22.8101C39.8993 22.6971 39.7475 22.5872 39.5924 22.4742C39.6344 22.3676 39.6829 22.2578 39.7216 22.1512C39.7249 22.148 39.7281 22.1448 39.7281 22.1416C39.8637 21.7702 39.9897 21.3955 40.0898 21.0177C40.4128 19.826 40.5516 18.6278 40.5419 17.4393C40.5516 17.3908 40.5581 17.3392 40.5613 17.2746C40.5775 16.9904 40.5419 16.6803 40.4903 16.3703C40.4321 15.7244 40.3288 15.0817 40.1835 14.4454C40.1641 14.3324 40.1382 14.2258 40.106 14.1257C39.7927 12.8759 39.3179 11.6551 38.7011 10.4892C38.7528 10.4892 38.8012 10.4731 38.8367 10.4408C38.8432 10.4408 38.8496 10.4375 38.8593 10.4375C39.0919 10.4117 39.0951 10.0467 38.8658 10.0629C38.5493 7.35004 38.7043 4.46924 37.7806 1.86942C37.7387 1.75316 37.5772 1.8016 37.5998 1.9211C37.7613 2.84799 37.8775 3.77488 37.9712 4.70177C37.9454 4.69531 37.9163 4.69208 37.884 4.69854C35.7977 5.08286 33.7469 5.50271 31.6444 5.78691C31.6412 5.78691 31.6412 5.79015 31.6444 5.79015C33.7533 5.61575 35.9043 5.42843 37.9841 5.0538C37.9906 5.0538 37.997 5.04734 38.0035 5.04734C38.0196 5.22174 38.0326 5.39613 38.0487 5.57053C37.645 5.55761 37.2445 5.69649 36.8505 5.76754C36.3629 5.85474 35.8752 5.92579 35.3875 6.02913C35.3617 6.03559 35.3681 6.07758 35.394 6.07758C35.8913 6.0582 36.3822 6.00653 36.8764 5.971C37.2736 5.94194 37.687 5.97746 38.0713 5.87089C38.1165 6.36824 38.1617 6.86883 38.2005 7.36942C34.0795 7.77957 29.9586 8.25755 25.8828 9.00359C21.8523 9.74316 17.9768 10.9995 14.0012 11.9683C13.8655 11.5291 13.7331 11.0899 13.6169 10.6539C13.5458 10.3858 13.4748 10.1178 13.4069 9.84974C13.4328 9.8562 13.4651 9.8562 13.4974 9.84651C14.0787 9.65596 14.6503 9.4525 15.2413 9.28456C15.3318 9.25872 15.293 9.11985 15.2026 9.14246C14.6051 9.2781 14.0044 9.37822 13.4005 9.49126C13.3682 9.49772 13.3456 9.51063 13.3262 9.52678C13.2778 9.34269 13.2293 9.15538 13.1809 8.97129C15.1445 8.3835 17.1242 7.8151 19.02 7.02385C19.0232 7.02385 19.0232 7.01739 19.02 7.01739C17.0467 7.56965 15.1025 8.2091 13.1066 8.68708C12.9548 8.10899 12.7998 7.53089 12.6383 6.9528C12.6318 6.92696 12.6157 6.91727 12.5963 6.91081C17.1694 5.80306 21.7296 4.65333 26.3447 3.71352C32.7425 2.41199 39.1726 1.29779 45.6382 0.387043C45.8934 0.351517 45.7836 -0.0360346 45.5284 0.00272045C39.0692 0.923154 32.6327 2.0309 26.2446 3.36149C19.9824 4.66625 13.6233 5.99361 7.51616 7.92491C7.49678 7.86354 7.46125 7.80864 7.39343 7.77957C7.21903 7.70206 7.03818 7.88615 7.08016 8.06378C7.10277 8.16066 7.18351 8.20911 7.26425 8.20911C7.26748 8.21557 7.27071 8.22203 7.27717 8.22526C7.28686 8.23494 7.29655 8.23172 7.30623 8.23818C7.2804 9.73025 7.3902 11.2288 7.4225 12.7176C7.45802 14.3098 7.3902 15.9181 7.48709 17.5071C7.48709 17.5103 7.49032 17.5103 7.49032 17.5136C7.20935 17.5265 6.87993 17.5362 6.8767 17.8979C6.87347 18.0691 6.97682 18.2015 7.11569 18.2983C7.11569 18.3016 7.11246 18.3016 7.11246 18.3016C7.08339 18.2887 7.04141 18.2984 7.02849 18.3339C6.91869 18.6665 6.81533 19.0218 6.71845 19.3803C6.49561 20.0133 6.28568 20.6592 6.19202 21.289C6.18233 21.36 6.2437 21.4181 6.30506 21.4214C6.29537 21.5053 6.27923 21.5925 6.26954 21.6765C6.25662 21.8025 6.44393 21.8121 6.47946 21.7023C6.56666 21.4504 6.64094 21.1824 6.71199 20.9111C6.69907 21.0274 6.69261 21.1404 6.68938 21.2534C6.68615 21.3665 6.83148 21.3665 6.87024 21.276C6.88962 21.2276 6.909 21.1727 6.92515 21.1242C6.90254 21.3083 6.87993 21.4892 6.86702 21.6733C6.86056 21.7734 7.00588 21.7831 7.03495 21.6959C7.35145 20.7076 7.47417 19.5934 7.57429 18.5438C7.57752 18.8506 7.56783 19.1542 7.55169 19.4545C7.44834 20.1231 7.3353 20.811 7.36437 21.4633C7.36437 21.4989 7.39343 21.5215 7.4225 21.5312C7.41604 21.6474 7.40958 21.7637 7.40635 21.8832C7.40312 21.993 7.56461 22.0091 7.59367 21.909C7.64535 21.7314 7.68409 21.5473 7.71639 21.36C7.72608 21.5344 7.73254 21.7088 7.75192 21.88C7.76484 21.9962 7.92309 21.9962 7.93601 21.88C8.04582 20.7528 7.94893 19.5676 7.88433 18.4372C7.89402 18.434 7.90048 18.4275 7.91017 18.4243C7.94569 19.6354 8.09425 20.8982 8.43336 22.0576C8.47211 22.1836 8.65298 22.1286 8.63037 22.0027C8.41076 20.7787 8.19437 19.5773 8.06841 18.3371C8.08133 18.3274 8.09426 18.3145 8.10718 18.3048C8.12978 18.3855 8.14916 18.4663 8.17176 18.5503C8.14593 18.5599 8.12655 18.5826 8.13624 18.6149C8.41722 19.6386 8.61099 20.7819 9.04699 21.7475C9.08251 21.8283 9.18586 21.7637 9.17617 21.6927C9.16971 21.641 9.15679 21.5893 9.14711 21.5376C9.22139 21.6022 9.3538 21.5538 9.32473 21.4343C9.05667 20.3362 8.64005 19.2285 8.22344 18.1756C8.26865 18.1046 8.29772 18.0271 8.29772 17.9366C8.30095 17.6427 8.0329 17.5168 7.77453 17.5297C7.75192 17.5103 7.72286 17.4942 7.6841 17.5006C7.68087 17.5006 7.67441 17.5006 7.67118 17.5006C7.78745 15.9214 7.70024 14.3001 7.65826 12.7176C7.6195 11.2288 7.60335 9.71409 7.4225 8.23171C7.42572 8.22848 7.42896 8.22849 7.43219 8.22849C7.47095 8.19619 7.49679 8.15421 7.51293 8.10899C9.18909 7.7279 10.862 7.33066 12.5317 6.92696C12.5156 6.93988 12.5026 6.96249 12.5059 6.98833C12.7319 8.24787 13.0194 9.49126 13.3294 10.7314C13.633 11.949 13.8655 13.2634 14.337 14.4261C14.3629 14.4874 14.4081 14.5133 14.4566 14.523C14.4792 14.5068 14.505 14.4971 14.5373 14.4939L14.5696 14.4907C14.5857 14.4777 14.6019 14.4648 14.6116 14.4487C14.6213 14.4519 14.6277 14.4616 14.6406 14.4648C14.6374 14.4713 14.6374 14.481 14.6374 14.4874L14.7763 14.4777C14.7763 14.4681 14.7763 14.4616 14.7763 14.4519C15.209 14.3776 15.6386 14.2937 16.0681 14.2065C15.9228 14.5682 15.8808 14.9816 15.8194 15.3562C15.8162 15.3756 15.813 15.3949 15.813 15.4143C15.6935 15.7728 15.5966 16.141 15.5255 16.5221C15.3834 17.6847 15.3576 18.8571 15.4513 20.0197C15.574 21.0855 15.8097 22.1222 16.1295 23.1395C16.6107 24.3377 17.2082 25.5036 17.9574 26.2335C18.8779 27.1281 19.9436 27.8579 21.0869 28.4393C21.0546 28.4619 21.0385 28.5006 21.0546 28.5523C21.2129 29.0432 21.6424 29.5599 22.1559 29.8312C21.7683 30.3189 21.4163 31.1037 21.4551 31.6915C21.4583 31.7205 21.468 31.7464 21.4809 31.769C19.6336 35.7543 18.3514 39.9592 17.557 44.2158C17.5537 44.219 17.5505 44.2223 17.5473 44.2255C17.544 44.2384 17.544 44.2481 17.5408 44.261C17.5214 44.3579 17.5053 44.4548 17.4891 44.5517C17.2114 45.3494 17.0176 46.4345 16.9595 46.68C16.9401 46.7607 16.9369 46.8479 16.9595 46.9287C16.7334 48.2011 16.5881 49.4833 16.4912 50.7525C16.3943 52.0346 16.3555 53.32 16.3814 54.6022C16.4072 55.8165 16.3846 57.1374 16.6785 58.3259C16.6785 58.3291 16.6817 58.3324 16.685 58.3356C15.1703 58.6553 14.4146 60.6415 14.9216 62.027C14.9862 62.2079 15.0734 62.3629 15.1671 62.5082C15.1509 62.5082 15.138 62.5082 15.1218 62.5082C14.9378 62.4953 14.7472 62.4921 14.5664 62.5211C12.5123 62.4016 10.4002 62.7504 8.45597 63.2962C7.86495 63.4609 7.28363 63.6547 6.71199 63.8679C6.29214 64.0261 5.40723 64.601 4.97124 64.6107C4.19291 64.6301 3.60512 63.9874 2.75251 63.9357C-0.225172 63.7451 -1.11977 67.7563 1.74165 68.5249C2.36496 68.6929 3.08516 68.6444 3.6794 68.4151C3.64711 68.4184 4.64182 67.9533 4.53847 67.9275C5.15532 67.8693 5.75926 68.3958 6.27276 68.6477C8.50441 69.7393 10.9201 70.4918 13.3972 70.9924C18.8585 72.0969 24.5329 72.0064 30.091 71.8869C30.1717 71.8837 30.2331 71.8579 30.2815 71.8191C31.3505 72.4457 32.6391 72.8235 33.8987 73.0238C36.9603 73.5082 40.1835 73.2305 43.1062 72.2874C44.4271 71.8611 45.6705 71.283 46.8784 70.6403C50.4407 71.0214 54.0319 70.9019 57.5457 70.1946C59.4835 69.8039 61.2501 69.1095 63.12 68.554C64.9254 68.0179 66.7662 69.0417 68.5748 68.3021C70.3543 67.569 71.1649 65.2437 69.4274 64.081ZM7.62596 17.8947C7.7067 17.8914 7.97799 17.8268 7.92632 17.9786C7.88434 18.1013 7.70994 18.1272 7.59367 18.1239C7.56784 18.1013 7.52262 18.0949 7.49032 18.1078C7.33207 18.0594 7.04464 17.8882 7.30947 17.7816C7.35791 17.7622 7.40958 17.7525 7.46448 17.7429C7.46771 17.8268 7.51938 17.8979 7.62596 17.8947ZM14.7827 14.1419C14.7698 14.1193 14.7311 14.1193 14.7214 14.1483C14.7214 14.1516 14.7181 14.1548 14.7181 14.1612C14.6891 14.1709 14.6568 14.1774 14.6277 14.1871C14.618 14.1903 14.6148 14.2 14.6051 14.2032C14.4888 13.5831 14.3112 12.9663 14.1271 12.3494C15.926 12.1137 17.6668 11.4904 19.4043 10.9866C21.4066 10.4052 23.4413 9.93371 25.4888 9.5397C29.7002 8.7323 33.96 8.27693 38.2102 7.75374C38.2199 7.75374 38.2296 7.74728 38.236 7.74405C38.3006 8.53207 38.3652 9.32009 38.4459 10.1081C35.3003 10.4892 32.1676 10.9898 29.0349 11.4871C28.7927 11.4742 28.515 11.5291 28.2631 11.6099C27.7592 11.6906 27.2586 11.7713 26.7548 11.8489C25.6406 12.0233 24.5264 12.2041 23.4154 12.3882C23.3864 12.385 23.3573 12.3914 23.3315 12.4011C22.4692 12.5464 21.6069 12.6918 20.7478 12.85C18.7648 13.2182 16.7108 13.5412 14.7827 14.1419ZM14.5599 70.6209C14.6051 70.5499 14.5793 70.453 14.4727 70.4175C14.0722 70.2851 13.5878 70.3141 13.1324 70.3464C12.6738 70.2495 12.2217 70.1462 11.7695 70.0299C11.9698 70.0202 12.17 69.9976 12.3605 69.9524C12.5188 69.9137 12.5349 69.6811 12.3605 69.6488C11.7857 69.5455 11.1624 69.6456 10.5713 69.7005C9.95449 69.5164 9.34088 69.3226 8.74017 69.0998C9.90606 69.2355 11.1107 69.3065 12.2604 69.2387C12.4122 69.229 12.4671 69.0094 12.2992 68.9835C10.9298 68.7801 9.46037 68.7736 8.06841 68.8414C6.92514 68.3861 5.8077 67.85 4.72902 67.2234C4.63536 67.1685 4.46742 67.1814 4.39637 67.2622C3.29185 68.4959 0.482113 68.4184 0.617756 66.2901C0.734021 64.4686 3.07224 63.8872 4.37054 65.2857C4.45128 65.3729 4.61598 65.3793 4.71933 65.3276C7.69055 63.7807 10.6618 63.222 13.9043 62.9151C13.8881 62.97 13.8849 63.025 13.8978 63.0895C13.9979 63.5772 14.8086 63.7355 15.2607 63.8162C15.2866 63.8194 15.3092 63.8227 15.335 63.8259C16.081 64.0907 17.1016 64.0552 17.7669 64.052C17.9058 64.052 17.9994 63.9971 18.0575 63.926C18.2578 63.8937 18.4548 63.8582 18.655 63.8259C18.7777 63.8065 18.8391 63.729 18.8553 63.6386C19.1395 63.5966 19.4172 63.5385 19.6885 63.4706C20.2084 63.1606 20.7769 62.9668 21.3453 62.7537C21.313 62.7181 21.2807 62.6826 21.2516 62.6439H20.9803C21.3711 62.4049 21.7167 62.0981 21.9653 61.7363C22.1042 61.6007 22.2334 61.4554 22.3594 61.3068C22.65 62.9378 24.1485 64.0616 25.8505 64.0843C25.9959 65.4278 27.0681 66.3805 28.3761 66.374C28.2857 66.5097 28.2049 66.6486 28.1339 66.7939C28.1209 66.7907 28.108 66.7939 28.0983 66.7939C27.9982 67.2751 27.9046 67.7563 27.8335 68.244C27.8432 68.5443 27.8949 68.8544 28.0015 69.1709C28.2986 70.0655 28.8605 70.776 29.5807 71.3379C24.6071 71.4413 19.456 71.4736 14.5599 70.6209ZM24.2745 58.4454C24.2228 58.468 24.1712 58.4906 24.1195 58.5132C24.2454 58.2968 24.2874 57.9836 24.1389 57.7704C24.1066 57.7252 24.0678 57.6994 24.0226 57.6832C24.1453 57.4055 24.2584 57.1342 24.3682 56.8693C24.4231 56.9404 24.4941 57.0018 24.5942 57.0696C24.83 57.2343 25.7181 57.5831 25.2821 58.0288C25.182 58.1321 25.0205 58.2032 24.8461 58.2613C24.8397 58.2645 24.8365 58.2645 24.83 58.2645C24.8268 58.2645 24.8268 58.2678 24.8235 58.2678C24.633 58.3356 24.4231 58.384 24.2745 58.4454ZM29.4354 60.5608C29.1641 60.6286 28.9187 60.7287 28.7087 60.874C28.6829 60.8611 28.6571 60.8547 28.6215 60.8579C27.1714 60.9968 25.9765 62.0625 25.8441 63.5029C24.478 63.4932 23.3864 62.6955 22.818 61.5232C22.776 60.1764 23.7481 59.4013 24.8784 58.7457C24.9624 58.7199 25.0464 58.6973 25.1303 58.6682C25.4953 58.5487 25.8505 58.3937 25.9862 58.0062C26.1283 57.6089 25.9054 57.202 25.6148 56.9339C25.3629 56.7014 24.943 56.3914 24.5813 56.3332C25.6277 53.7043 26.1477 50.956 26.2542 48.1365C26.8 48.3949 27.3685 48.6016 27.9369 48.7082C27.9336 48.7372 27.9272 48.7695 27.9239 48.7986C27.3555 52.6709 27.6914 57.1083 29.4354 60.5608ZM28.8573 65.305C28.9316 65.389 29.0091 65.4665 29.0931 65.5376C29.0349 65.5925 28.98 65.6474 28.9251 65.7055C28.8605 65.6248 28.7669 65.5763 28.6441 65.5892C27.4137 65.7281 26.364 64.869 26.4642 63.5707C26.5449 62.5114 27.3136 61.8074 28.2243 61.4037C28.1113 61.6039 28.0273 61.8365 27.9918 62.1174C27.8723 63.0249 27.9239 64.7528 28.8573 65.305ZM46.7298 70.0041C46.6749 68.441 45.7545 64.9885 43.5003 65.2082C42.512 65.305 42.3214 66.0349 42.5669 66.7584C42.7994 67.443 43.1418 68.1148 43.426 68.7833C43.6456 69.3 43.9201 69.82 44.0945 70.3561C44.1171 70.5111 44.1397 70.6662 44.1591 70.8244C44.1655 70.8955 44.1978 70.9601 44.2463 71.015C44.2592 71.1151 44.2657 71.2184 44.2657 71.3185C43.7296 71.5414 43.187 71.7513 42.6218 71.9225C42.4377 71.9774 42.2504 72.0226 42.0663 72.0743C42.0954 70.6403 41.8758 69.1321 41.1394 67.8467C40.6292 66.9521 39.5924 65.8864 38.3426 65.9994C37.1283 66.1092 37.2284 67.2266 37.6224 67.9824C38.4298 69.5261 39.9186 70.7598 39.9574 72.5296C37.9163 72.8526 35.8074 72.8687 33.7727 72.5264C31.0243 72.0646 27.2296 70.017 28.5666 66.9812C28.7733 66.5161 29.0801 66.1254 29.4548 65.7895C29.4677 65.7959 29.4774 65.8024 29.4903 65.8089C29.5 65.741 29.5355 65.6764 29.6098 65.6312C29.6485 65.6054 29.6841 65.5731 29.7228 65.5408L29.726 65.5376C29.7422 65.5214 29.7584 65.5085 29.7777 65.4956C29.81 65.4762 29.8391 65.4633 29.8714 65.4601C31.3376 64.4298 33.5273 64.0584 35.2131 63.7936C35.3746 63.7678 35.5329 63.7484 35.6943 63.7225C35.788 63.8065 35.9624 63.8033 36.0464 63.6709C38.8303 63.2769 41.6465 63.0702 44.4368 62.7117C46.1356 62.4921 47.8279 62.2176 49.4815 61.8074C50.6764 61.5103 51.9682 61.1679 52.8919 60.3864C54.216 59.2657 54.1515 57.7962 53.5992 56.4075C53.0469 57.0599 52.3364 57.6186 51.5904 57.9577C51.5581 57.9739 51.5258 57.9771 51.4967 57.9739C51.1867 58.1644 50.9025 58.3259 50.7345 58.4325C49.8367 59.0073 48.9034 59.5273 47.9506 60.0279C46.2938 60.8999 44.495 61.5684 42.8414 62.4307C41.7983 62.5437 40.7551 62.6471 39.7152 62.7537C38.5784 62.8699 37.3963 62.97 36.2175 63.1154C36.3822 62.0625 35.5393 61.5749 35.3972 60.5156C35.3714 60.3186 35.4134 60.0731 35.4812 59.818C36.6987 59.5693 37.9421 59.4046 39.1694 59.2463C39.347 59.2237 39.4148 58.9686 39.2469 58.8911C38.0196 58.3065 37.0281 57.4927 36.2466 56.5367C36.4727 55.3288 36.6729 54.1177 36.8473 52.9002C36.9151 52.4157 36.9829 51.9249 37.0475 51.434C37.49 51.4146 37.9292 51.3855 38.362 51.3306C39.2146 51.2176 40.7099 50.9075 40.7454 49.9386C40.7842 48.9213 39.6635 48.2722 38.7883 47.8717C38.3684 47.6812 37.9389 47.4874 37.4997 47.3033C37.561 46.5605 37.6095 45.8145 37.645 45.0717C39.4665 45.4495 41.7563 45.6594 42.864 45.1201C43.229 44.9909 43.5487 44.8068 43.7683 44.542C44.4465 43.7249 42.8963 42.84 42.2633 42.4622C40.9166 41.658 39.3309 41.4222 37.8097 41.0024C38.391 40.5405 39.0402 40.1433 39.7539 39.8268C42.3505 38.6803 45.3637 38.7126 47.8376 40.0852C47.97 40.1562 48.0927 39.9915 47.97 39.9075C47.4371 39.5426 46.8655 39.2648 46.2712 39.0646C46.4715 38.9903 46.6717 38.9161 46.8946 38.8805C47.2757 38.8159 47.689 38.7998 48.0733 38.845C48.1767 38.8579 48.1832 38.7191 48.096 38.69C47.3531 38.4478 46.3714 38.3799 45.677 38.7901C45.6415 38.8127 45.6156 38.8386 45.5995 38.8708C42.8866 38.2249 39.825 39.0614 37.6385 40.6923C37.5933 39.8849 37.5223 39.0808 37.4189 38.2863C37.4125 38.2411 37.3511 38.2378 37.3479 38.2863C37.167 40.786 37.1315 43.2857 37.012 45.7822C35.8558 45.6078 33.6952 45.9372 33.3949 47.3485C33.2689 47.9428 33.8309 48.3917 34.2895 48.6533C35.0484 49.086 35.9269 49.1313 36.7795 49.1442C36.7698 49.2443 36.7633 49.3444 36.7536 49.4445C36.6567 50.3973 36.5373 51.3468 36.4081 52.293C36.4048 52.293 36.4016 52.2898 36.3952 52.2866C35.3165 52.054 34.0602 51.7149 32.9653 52.0185C32.2064 52.2284 31.2795 52.9422 31.47 53.84C31.6509 54.6894 32.7683 54.9833 33.4788 55.1835C34.0052 55.3321 35.2034 55.7422 35.8946 55.5388C35.8687 55.6809 35.8461 55.823 35.8203 55.9651C35.8171 55.9618 35.8171 55.9586 35.8138 55.9554C35.7848 56.2719 35.746 56.5851 35.6717 56.8952C35.662 56.9307 35.6491 56.9566 35.6297 56.9824C35.5038 57.638 35.3714 58.2936 35.2325 58.946C35.2325 58.9654 35.2325 58.9815 35.2293 59.0009C35.2196 59.0622 35.2067 59.1204 35.1937 59.1817C35.197 59.2108 35.2002 59.2399 35.1937 59.2722C35.1227 59.6629 35.0258 60.044 34.9225 60.4251C34.9128 60.4607 34.8999 60.4865 34.8805 60.5123C34.845 60.6706 34.8094 60.8321 34.7707 60.9903C34.7448 61.1001 34.7868 61.2099 34.8837 61.268C35.6588 61.8235 35.9527 62.4598 35.7654 63.1735C34.0634 63.4028 32.384 63.7452 30.8725 64.3943C30.4139 64.5913 29.9876 64.8335 29.6033 65.1113C29.5969 65.0919 29.5936 65.0725 29.5807 65.0564C29.3999 64.7334 29.1221 64.5299 28.9477 64.1973C28.712 63.7451 28.6764 63.2284 28.6797 62.7278C28.6926 61.5006 29.2255 61.0323 30.372 60.6835C30.5011 60.6447 30.4818 60.4348 30.3397 60.4413C30.1459 60.4477 29.9554 60.4639 29.7713 60.493C29.148 58.2775 28.4148 56.2137 28.1758 53.8852C28.0822 52.9583 28.0402 52.0217 28.0402 51.0852C28.1597 50.3165 28.2953 49.5479 28.4084 48.776C28.9348 48.8212 29.4548 48.7728 29.9521 48.5854C30.1976 48.4918 30.1879 48.0816 29.8875 48.0978C29.4257 48.1204 28.9671 48.101 28.5085 48.0493C28.5085 48.0429 28.5085 48.0397 28.5117 48.0332C28.473 48.0332 28.4342 48.0332 28.3955 48.0364C27.278 47.8943 26.18 47.5455 25.1336 47.0901C25.1142 47.0191 25.0528 46.961 24.9689 46.99C24.9592 46.9933 24.9463 46.9997 24.9366 47.003C24.507 46.8092 24.084 46.596 23.677 46.3732C23.606 46.3344 23.5543 46.4345 23.6157 46.4798C23.8999 46.6929 24.2196 46.9222 24.5555 47.1515C24.2325 47.271 23.9128 47.3485 23.5608 47.1774C23.4445 47.1192 23.3573 47.2742 23.4607 47.3517C23.8676 47.6456 24.5716 47.7781 24.9656 47.4163C25.2692 47.6069 25.5825 47.7974 25.9087 47.9686C25.8408 47.9621 25.7698 47.9557 25.702 47.9492C25.6471 50.2745 25.3112 52.5611 24.6136 54.783C24.3649 55.5711 24.0678 56.4463 23.7125 57.3215C23.6803 57.3344 23.6512 57.357 23.6254 57.3958C23.3767 57.8318 23.2087 58.3001 23.0505 58.7748C22.3916 60.0763 21.5746 61.2713 20.5476 62.0658C20.512 62.0948 20.5411 62.1497 20.5831 62.1304C20.8899 61.9786 21.1741 61.788 21.4421 61.5684C21.2742 61.7751 21.103 61.9818 20.9028 62.1659C20.6993 62.3532 20.4733 62.5179 20.2375 62.6697C20.1309 62.7278 20.0244 62.786 19.9146 62.8376C19.8952 62.8473 19.8855 62.8635 19.8823 62.8796C19.4495 63.0056 19.0038 63.1218 18.5581 63.1897C18.5226 63.1864 18.4871 63.1897 18.4483 63.2026C18.4386 63.2058 18.4322 63.209 18.4225 63.209C17.5214 63.3221 16.6333 63.222 15.8969 62.5986C14.2983 61.2454 15.574 57.9803 18.0026 58.5746C18.0737 58.5939 18.1092 58.5035 18.0414 58.4745C17.6571 58.3259 17.2986 58.271 16.9692 58.2936C16.995 57.0211 16.7754 55.7358 16.7496 54.4601C16.7366 53.9014 16.7399 53.3426 16.7528 52.7839C18.2901 53.2038 20.2763 53.3362 20.4345 51.5018C20.4927 50.8268 20.4055 50.0614 19.8403 49.5737C19.5012 49.2798 19.0135 49.0311 18.5032 48.86C18.3191 48.7921 18.1254 48.734 17.9348 48.7049C17.6538 48.6468 17.3793 48.6081 17.1274 48.6081C17.108 48.6081 17.0919 48.6113 17.0757 48.6145C17.1306 48.2205 17.1888 47.8297 17.2501 47.4389C18.7228 47.9525 21.2128 48.1333 21.4744 46.2182C21.6747 44.7584 20.3861 43.8735 18.9909 43.5247C18.9651 43.5021 18.9328 43.4859 18.8908 43.473C18.739 43.4343 18.5775 43.4149 18.4193 43.402C18.4096 43.402 18.3999 43.402 18.3902 43.402C18.2901 43.389 18.19 43.3729 18.0866 43.36C18.7067 41.2704 19.1814 39.1421 19.7983 37.0526C20.4377 34.8791 21.355 32.8024 22.2528 30.7129C22.2076 30.7387 22.1624 30.7613 22.1139 30.7839C22.2108 30.503 22.34 30.2285 22.4304 29.9443C22.6209 30.0056 22.818 30.0347 23.015 30.0088C23.2249 29.983 23.283 29.7053 23.0666 29.631C22.7211 29.5083 22.3787 29.463 22.0622 29.266C21.7651 29.0819 21.5261 28.83 21.3227 28.5458C21.623 28.6912 21.9266 28.83 22.2366 28.9592C22.3432 29.0044 22.4562 29.0464 22.566 29.0884L22.5693 28.7461C22.4046 28.675 22.2399 28.6007 22.0784 28.5232C20.68 27.8321 19.2331 26.8826 18.1738 25.6586C19.0684 25.2452 18.8714 24.2085 18.5032 23.498C18.3191 23.1427 18.0801 22.8165 17.6926 22.6777C17.3987 22.5743 16.9659 22.5517 16.6171 22.6325C16.5138 22.3353 16.4137 22.0318 16.3233 21.725C17.4439 21.444 18.5 20.6656 18.0995 19.3577C17.7863 18.3306 16.7076 17.7945 15.6709 17.6395C15.6741 17.2746 15.6999 16.9129 15.7452 16.5576C15.8291 16.2024 15.9163 15.8503 16.0261 15.5048C16.1682 15.0494 16.4234 14.5908 16.4815 14.1193C16.5881 14.0967 16.6947 14.074 16.798 14.0514C16.7463 14.1839 16.7108 14.326 16.6753 14.4551C16.5978 14.7167 16.5396 14.9816 16.4621 15.2432C16.4331 15.3465 16.5978 15.4014 16.6397 15.3045C16.7528 15.0558 16.8787 14.8136 16.9918 14.5649C17.0757 14.3809 17.1855 14.1742 17.192 13.9707C17.3115 13.9449 17.4342 13.919 17.5537 13.8932C17.5279 13.9578 17.5085 14.0256 17.4859 14.0934C17.4181 14.3098 17.3599 14.5165 17.318 14.7393C17.2954 14.8556 17.4471 14.8976 17.5053 14.8039C17.6183 14.6198 17.712 14.439 17.7992 14.242C17.8605 14.1063 17.9445 13.961 17.9284 13.8125C18.0898 13.7769 18.2513 13.7446 18.4128 13.7091C18.3353 13.8641 18.2965 14.0482 18.2578 14.2097C18.2352 14.313 18.374 14.3809 18.4419 14.3001C18.5904 14.1193 18.7777 13.8803 18.7648 13.6316C18.8488 13.6122 18.9328 13.5961 19.0167 13.5799C19.0103 13.6219 19.0006 13.6639 18.9941 13.7059C18.9747 13.8286 19.1362 13.8835 19.1976 13.7737C19.246 13.6897 19.288 13.6058 19.3203 13.5153C19.7079 13.4346 20.0954 13.3538 20.4862 13.2828C21.4389 13.1052 22.3949 12.9405 23.3508 12.7822C23.5478 13.1472 23.9871 13.454 24.3617 13.5121C24.8914 13.5961 25.35 13.1988 25.4888 12.7112C25.5631 12.9211 25.7601 13.1149 25.928 13.2053C26.2962 13.4055 26.7258 13.3474 27.0455 13.0858C27.2102 12.9534 27.3781 12.6982 27.4072 12.456C27.5138 12.7015 27.7463 12.8823 28.0111 12.9598C28.4504 13.0858 28.8864 12.9308 29.2093 12.624C29.416 12.4302 29.6744 12.0555 29.5678 11.7843C32.5164 11.316 35.4683 10.8541 38.4298 10.4924C38.4266 10.5086 38.4298 10.528 38.4363 10.5473C38.7754 11.5162 39.1371 12.4625 39.4342 13.4281C38.4911 13.5315 37.3479 13.9933 36.8667 14.8653C36.3822 15.7373 36.9409 16.6997 37.6547 17.2423C38.2296 17.6783 39.2566 18.0658 40.0252 17.8559C40.0091 18.2887 39.9671 18.7214 39.909 19.151C39.854 19.1316 39.7927 19.1316 39.7345 19.1607C39.0789 19.0831 38.3329 19.1058 37.7903 19.503C37.2445 19.9035 37.18 20.6043 37.5707 21.1404C37.7871 21.4375 38.1004 21.6313 38.4395 21.754C38.5235 21.7863 38.6268 21.8251 38.7366 21.8606C38.7269 21.867 38.7205 21.88 38.7269 21.8961C38.8206 22.0673 38.9272 22.2352 39.0402 22.4032C38.4298 23.8758 37.561 25.1871 36.5211 26.382C37.7677 25.51 38.7689 24.2666 39.4084 22.8844C39.4827 22.9683 39.5569 23.0523 39.6344 23.1298C39.7539 23.2461 39.8896 23.3785 40.0349 23.4948C39.1016 25.2355 37.6256 26.4531 36.0593 27.7869C34.7836 28.872 33.2625 30.2478 33.0041 31.8949C32.8781 32.7088 33.4691 33.2126 34.3153 33.3902C35.3908 33.6195 36.463 33.2191 37.3414 32.6862C38.4621 32.0112 39.4794 31.1715 40.5129 30.3932C40.5387 30.3738 40.5646 30.3544 40.5904 30.335C40.7842 30.1703 40.9812 30.0056 41.2008 29.8667C41.2331 29.8441 41.2621 29.8183 41.2944 29.7957C41.3138 29.7828 41.3332 29.7795 41.3558 29.7731C42.2988 29.0852 43.2677 28.3876 44.0687 27.5963C44.3593 27.9419 44.6468 28.2972 44.931 28.6492C43.8135 29.0787 42.7704 29.744 41.8435 30.4933C41.6723 30.7032 41.485 30.8938 41.2266 31.0197C41.049 31.178 40.8778 31.3362 40.7131 31.4977C39.867 32.3245 38.32 33.7552 39.192 34.9727C39.9283 35.9997 41.6885 35.4991 42.6186 34.9986C43.2742 34.6433 43.8749 34.1944 44.4401 33.7003C44.4465 33.7067 44.453 33.7132 44.4594 33.7196C44.482 33.7035 44.5047 33.6906 44.524 33.6744C44.5919 33.6034 44.6661 33.5356 44.7404 33.471C44.7566 33.4548 44.7727 33.4387 44.7921 33.4225C44.7856 33.4161 44.7792 33.4064 44.7727 33.3999C45.4961 32.7379 46.1711 32.0209 46.8396 31.3717C46.8881 31.3233 46.9075 31.2684 46.9107 31.2135C47.3435 31.7948 47.773 32.3761 48.1993 32.9607C48.0055 33.0253 47.8408 33.1512 47.6761 33.2804C47.6503 33.2998 47.6277 33.3192 47.6018 33.3386C46.9979 33.5323 46.3487 33.9005 45.8159 34.3623C45.6415 34.5432 45.4671 34.724 45.2894 34.9017C45.283 34.9114 45.2733 34.9178 45.2668 34.9275C44.7824 35.5282 44.5402 36.2064 44.8082 36.833C45.2249 37.8051 46.4779 37.7276 47.6955 37.3045C47.702 37.3142 47.7084 37.3206 47.7149 37.3303C47.8279 37.2916 47.9409 37.2528 48.0572 37.2238C48.0895 37.2108 48.1186 37.1947 48.1509 37.1818C48.1412 37.1688 48.1315 37.1559 48.1218 37.1462C49.0132 36.7781 49.8303 36.2678 50.2081 35.9061C50.4988 36.3744 50.7797 36.8491 51.0446 37.3303C50.7055 37.5984 50.3664 37.973 50.1338 38.3864C49.5234 39.1228 49.1908 40.0367 50.3276 40.4663C50.8024 40.6471 51.7389 40.7117 52.2686 40.4598C52.3493 40.4372 52.4268 40.4146 52.5011 40.392C52.6561 40.7828 52.8047 41.18 52.9371 41.5837C53.9124 44.5291 54.4356 47.5261 55.1203 50.52C55.1526 50.5393 55.1785 50.5684 55.1914 50.6104C55.2527 50.8236 55.3044 51.0367 55.3464 51.2499C55.6823 51.2886 56.0084 51.3823 56.3088 51.5211C58.4436 51.9991 60.0713 53.7237 60.5719 55.6615C61.2662 58.3614 59.7386 61.1389 57.7621 63.096C55.7727 65.066 53.189 66.4451 50.7055 67.8467C50.6732 67.8661 50.6376 67.8855 50.6054 67.9049C50.7216 67.5593 50.6699 67.133 50.5375 66.768C50.2985 66.1027 50.0047 64.7786 49.0939 64.5655C48.3027 64.3814 47.8118 65.0693 47.8376 65.6958C47.8731 66.6518 48.3705 67.8112 48.8517 68.7155C48.8549 68.7252 48.8581 68.7349 48.8581 68.7446C48.8743 68.7962 48.9001 68.8414 48.9324 68.8802C48.2639 69.2742 47.5921 69.665 46.9107 70.0396C46.8526 70.0202 46.7912 70.0138 46.7298 70.0041ZM43.891 62.3112C45.7997 61.7073 47.6761 60.7319 49.3394 59.818C50.3147 59.2819 51.2642 58.7005 52.1556 58.0578C52.5173 57.7995 53.1567 57.4571 53.4054 57.0405C53.5088 57.4378 53.5572 57.8415 53.5281 58.2452C53.3989 59.9859 51.684 60.7513 50.0434 61.197C48.0346 61.746 45.9677 62.0658 43.891 62.3112ZM35.6168 59.3723C35.6943 59.1333 35.7719 58.9008 35.8171 58.7038C35.9366 58.1483 36.0496 57.5895 36.1594 57.0308C36.8053 57.7736 37.574 58.426 38.475 58.9395C37.5223 59.0622 36.5631 59.1914 35.6168 59.3723ZM39.2243 21.9672C39.2017 22.0253 39.1758 22.0834 39.1532 22.1416C39.0434 22.0544 38.9304 21.9704 38.8206 21.8832C38.9562 21.922 39.0951 21.9575 39.2243 21.9672ZM69.0883 67.2816C67.438 68.835 66.0073 67.4269 64.2698 67.5432C63.1846 67.6142 62.0575 68.3247 61.0692 68.6477C59.6579 69.1063 58.2078 69.468 56.7351 69.7328C53.7897 70.2657 50.7927 70.3755 47.815 70.1171C49.1456 69.3646 50.4439 68.5572 51.7616 67.8144C54.3 66.3837 56.8837 64.8981 58.773 62.7666C58.9215 62.5986 59.0637 62.4242 59.2058 62.2466C60.5363 62.9733 61.9283 63.7871 63.3525 64.3491C64.1793 64.6753 64.7025 64.5364 65.5681 64.3685C66.1623 64.2554 66.7759 64.1392 67.3895 64.1392C69.2142 64.1488 70.561 65.8993 69.0883 67.2816Z"
    fill="#251C1C"
  />
  <path
    d="M30.0652 41.5902C29.8973 40.1272 29.429 38.6416 29.1028 37.2077C28.7508 35.6575 28.4989 34.0362 27.9563 32.5441C27.9466 32.5151 27.9305 32.4957 27.9079 32.4763C28.2114 32.1857 28.5021 31.8821 28.7831 31.572C28.993 31.3427 29.387 31.0133 29.3838 30.6581C29.3741 29.9702 27.9692 29.2887 27.4912 29.0756C27.4719 29.0659 27.4525 29.0659 27.4331 29.0626C27.4234 28.9819 27.3427 28.9141 27.249 28.9625C26.8033 29.1951 25.547 29.7247 25.6698 30.4029C25.744 30.8195 26.1154 31.2846 26.3318 31.6334C26.5127 31.9241 26.7129 32.2018 26.9196 32.4763C26.9131 32.4828 26.9067 32.4892 26.9002 32.4989C25.5858 34.8404 24.9205 37.4434 24.1551 40.0013C23.9258 40.7667 23.493 41.5741 23.7611 42.3589C24.1454 43.4925 25.476 44.7359 26.1897 45.7047C26.2705 45.8145 26.4126 45.8468 26.5159 45.7467C27.3039 45.0007 28.1049 44.2643 28.8832 43.5054C29.0705 43.4279 29.1965 43.2922 29.2611 43.1307C29.3547 43.0371 29.4516 42.9434 29.5453 42.8498C30.1266 42.2523 30.1492 42.3266 30.0652 41.5902ZM26.264 30.8292C25.9701 30.319 25.9895 30.1607 26.503 29.7764C26.7226 29.6117 26.9487 29.4599 27.178 29.3081C27.1877 29.3565 27.22 29.405 27.2781 29.4405C27.5688 29.6311 27.8788 29.7893 28.1662 29.9831C28.6668 30.319 28.9995 30.503 28.5602 31.1587C28.2502 31.6237 27.7658 32.0113 27.3621 32.415C26.9584 31.9144 26.587 31.3879 26.264 30.8292ZM27.052 32.6475C27.1037 32.7153 27.1554 32.7864 27.207 32.8542C27.2781 32.9414 27.4137 32.9155 27.4848 32.8542C27.5235 32.8219 27.5623 32.7864 27.6011 32.7508C27.7076 33.6584 27.8917 34.5659 28.1081 35.4669C27.9143 35.2925 27.7044 35.1278 27.5171 34.9502C27.1748 34.6272 26.8389 34.2946 26.5224 33.949C26.5191 33.9426 26.5127 33.9458 26.5062 33.9426C26.6806 33.5066 26.8583 33.0738 27.052 32.6475ZM27.9531 43.796C27.7561 43.9834 26.9132 44.9813 26.6516 45.0362C25.9604 45.1751 24.9819 43.4731 24.6654 42.9402C23.8935 41.6451 24.3456 40.7086 24.7526 39.3554C25.2338 40.2403 25.828 41.0767 26.3996 41.9003C26.8679 42.5785 27.3588 43.2438 28.0371 43.7218C28.0112 43.7476 27.9821 43.7702 27.9531 43.796ZM29.3902 42.1425C28.712 41.4901 27.9725 40.9152 27.3427 40.195C27.0036 39.8107 26.6839 39.4103 26.3674 39.0066C26.1574 38.7417 25.4082 38.028 25.2758 37.6211C25.4921 36.9009 25.715 36.1807 25.9572 35.4702C26.1542 35.777 26.5482 36.0741 26.7161 36.2388C27.2458 36.7588 27.9466 37.5791 28.6733 37.8051C28.6862 37.8084 28.6959 37.8084 28.7056 37.8084C28.7992 38.1733 28.8929 38.5383 28.9801 38.9C29.2352 39.9787 29.7423 41.1187 29.3902 42.1425Z"
    fill="#251C1C"
  />
  <path
    d="M28.1337 30.5352C28.0852 30.3608 27.885 30.293 27.7623 30.1896C27.5847 30.0443 27.449 29.8602 27.294 29.6955C27.2003 29.5986 27.0356 29.6277 26.971 29.7375C26.8774 29.8925 26.6481 30.1283 26.6771 30.3285C26.6255 30.3027 26.5673 30.3705 26.5996 30.4189C26.8128 30.7645 27.0356 31.1004 27.1939 31.475C27.2423 31.588 27.407 31.5848 27.4845 31.5138C27.6525 31.3523 27.801 31.1682 27.9464 30.9841C28.0368 30.8549 28.1789 30.7096 28.1337 30.5352Z"
    fill="#251C1C"
  />
</svg>
