<svg
  width="31"
  height="30"
  viewBox="0 0 31 30"
  fill="none"
  xmlns="http://www.w3.org/2000/svg"
>
  <rect x="0.509766" width="29.9796" height="29.9796" rx="5" fill="#0062BC" />
  <path
    d="M24.3392 8.46029L21.548 8.45581C18.4123 8.45581 16.3859 10.5349 16.3859 13.7528V16.1951H13.5795C13.337 16.1951 13.1406 16.3917 13.1406 16.6342V20.1728C13.1406 20.4153 13.3372 20.6117 13.5795 20.6117H16.3859V29.5407C16.3859 29.7832 16.5822 29.9796 16.8247 29.9796H20.4862C20.7287 29.9796 20.9251 29.783 20.9251 29.5407V20.6117H24.2064C24.4489 20.6117 24.6453 20.4153 24.6453 20.1728L24.6466 16.6342C24.6466 16.5178 24.6003 16.4063 24.5181 16.3239C24.4359 16.2415 24.3239 16.1951 24.2075 16.1951H20.9251V14.1248C20.9251 13.1297 21.1622 12.6245 22.4585 12.6245L24.3387 12.6238C24.581 12.6238 24.7774 12.4272 24.7774 12.185V8.89917C24.7774 8.65711 24.5812 8.46074 24.3392 8.46029Z"
    fill="white"
  />
</svg>
