<svg
  width="30"
  height="30"
  viewBox="0 0 30 30"
  fill="none"
  xmlns="http://www.w3.org/2000/svg"
>
  <rect width="29.9796" height="29.9796" rx="5" fill="#EF4036" />
  <path
    d="M15.68 16.46H19.1608C18.5498 18.1871 16.895 19.4254 14.9577 19.4111C12.6071 19.3937 10.6634 17.5136 10.5721 15.1651C10.4743 12.6477 12.4944 10.5685 14.9909 10.5685C16.1324 10.5685 17.1741 11.0033 17.9594 11.7159C18.1455 11.8847 18.4286 11.8858 18.6116 11.7136L19.89 10.5106C20.0899 10.3224 20.0907 10.0046 19.8913 9.81585C18.6459 8.63615 16.9752 7.90084 15.1328 7.86487C11.2031 7.78816 7.89083 11.0094 7.86346 14.939C7.83584 18.8981 11.0375 22.1161 14.9909 22.1161C18.7928 22.1161 21.8986 19.1398 22.1067 15.3906C22.1122 15.3436 22.1159 13.755 22.1159 13.755H15.68C15.4162 13.755 15.2023 13.9688 15.2023 14.2326V15.9825C15.2023 16.2462 15.4162 16.46 15.68 16.46Z"
    fill="white"
  />
</svg>
