<svg
  width="17"
  height="18"
  viewBox="0 0 17 18"
  fill="none"
  xmlns="http://www.w3.org/2000/svg"
>
  <mask id="path-1-inside-1_684_23877" fill="white">
    <path
      fill-rule="evenodd"
      clip-rule="evenodd"
      d="M8.49992 9C10.9852 9 12.9999 6.98528 12.9999 4.5C12.9999 2.01472 10.9852 0 8.49992 0C6.01464 0 3.99992 2.01472 3.99992 4.5C3.99992 6.98528 6.01464 9 8.49992 9ZM14.5103 11.4896C15.6285 12.6078 16.403 14.0054 16.7657 15.5183C17.0233 16.5925 16.1045 17.5 14.9999 17.5H8.49992L1.99992 17.5C0.895348 17.5 -0.0234251 16.5925 0.234118 15.5183C0.596874 14.0054 1.37134 12.6078 2.48951 11.4896C4.08357 9.89553 6.24558 9 8.49992 9C10.7543 9 12.9163 9.89553 14.5103 11.4896Z"
    />
  </mask>
  <path
    d="M8.49992 17.5V18.5V17.5ZM2.48951 11.4896L3.19662 12.1967L2.48951 11.4896ZM1.99992 17.5L1.99992 18.5L1.99992 17.5ZM16.7657 15.5183L15.7933 15.7515L16.7657 15.5183ZM11.9999 4.5C11.9999 6.433 10.4329 8 8.49992 8V10C11.5375 10 13.9999 7.53757 13.9999 4.5H11.9999ZM8.49992 1C10.4329 1 11.9999 2.567 11.9999 4.5H13.9999C13.9999 1.46243 11.5375 -1 8.49992 -1V1ZM4.99992 4.5C4.99992 2.567 6.56692 1 8.49992 1V-1C5.46235 -1 2.99992 1.46243 2.99992 4.5H4.99992ZM8.49992 8C6.56692 8 4.99992 6.433 4.99992 4.5H2.99992C2.99992 7.53757 5.46235 10 8.49992 10V8ZM17.7382 15.2852C17.3327 13.5943 16.4672 12.0322 15.2174 10.7825L13.8032 12.1967C14.7898 13.1833 15.4732 14.4165 15.7933 15.7515L17.7382 15.2852ZM8.49992 18.5H14.9999V16.5H8.49992V18.5ZM1.99992 18.5L8.49992 18.5V16.5L1.99992 16.5L1.99992 18.5ZM1.7824 10.7825C0.532654 12.0322 -0.332905 13.5943 -0.73832 15.2852L1.20656 15.7515C1.52665 14.4165 2.21002 13.1833 3.19662 12.1967L1.7824 10.7825ZM8.49992 8C5.98036 8 3.564 9.00089 1.7824 10.7825L3.19662 12.1967C4.60314 10.7902 6.5108 10 8.49992 10V8ZM15.2174 10.7825C13.4358 9.00089 11.0195 8 8.49992 8V10C10.489 10 12.3967 10.7902 13.8032 12.1967L15.2174 10.7825ZM1.99992 16.5C1.71712 16.5 1.47948 16.3827 1.3388 16.2313C1.20962 16.0923 1.16293 15.9334 1.20656 15.7515L-0.73832 15.2852C-1.18593 17.152 0.428469 18.5 1.99992 18.5L1.99992 16.5ZM15.7933 15.7515C15.8369 15.9334 15.7902 16.0923 15.661 16.2313C15.5204 16.3827 15.2827 16.5 14.9999 16.5V18.5C16.5714 18.5 18.1858 17.152 17.7382 15.2852L15.7933 15.7515Z"
    fill="#4B4B4B"
    mask="url(#path-1-inside-1_684_23877)"
  />
</svg>
